<?xml version="1.0" encoding="UTF-8" standalone="no"?>
<svg
   xmlns:dc="http://purl.org/dc/elements/1.1/"
   xmlns:cc="http://creativecommons.org/ns#"
   xmlns:rdf="http://www.w3.org/1999/02/22-rdf-syntax-ns#"
   xmlns:svg="http://www.w3.org/2000/svg"
   xmlns="http://www.w3.org/2000/svg"
   width="500"
   height="250"
   viewBox="0 0 132.29166 66.145835"
   version="1.1"
   id="svg8">
  <defs
     id="defs2">
    <rect
       id="rect3591"
       height="32.246093"
       width="36.586914"
       y="17.569987"
       x="2.6871745" />
    <rect
       x="33.261906"
       y="1.889881"
       width="32.127975"
       height="25.607887"
       id="rect952" />
    <rect
       x="23.718006"
       y="3.0238094"
       width="21.45015"
       height="20.127232"
       id="rect946" />
    <rect
       id="rect952-5"
       height="25.607887"
       width="32.127975"
       y="1.889881"
       x="33.261906" />
    <rect
       id="rect1246"
       height="25.607887"
       width="32.127975"
       y="1.889881"
       x="33.261906" />
    <rect
       id="rect2592"
       height="20.127232"
       width="21.45015"
       y="3.0238094"
       x="23.718006" />
    <rect
       x="23.718006"
       y="3.0238094"
       width="21.45015"
       height="20.127232"
       id="rect2600" />
    <rect
       id="rect2608"
       height="20.127232"
       width="21.45015"
       y="3.0238094"
       x="23.718006" />
  </defs>
  <metadata
     id="metadata5">
    <rdf:RDF>
      <cc:Work
         rdf:about="">
        <dc:format>image/svg+xml</dc:format>
        <dc:type
           rdf:resource="http://purl.org/dc/dcmitype/StillImage" />
        <dc:title></dc:title>
      </cc:Work>
    </rdf:RDF>
  </metadata>
  <g
     id="g3849"
     transform="matrix(0.6429676,0,0,0.6429676,23.706689,67.97697)">
    <path
       id="path3845"
       d="m 60.616729,-60.990905 v 18.708867"
       style="fill:none;stroke:#000000;stroke-width:3.96875;stroke-linecap:round;stroke-linejoin:miter;stroke-miterlimit:4;stroke-dasharray:none;stroke-opacity:1" />
    <path
       style="fill:none;stroke:#000000;stroke-width:3.96875;stroke-linecap:round;stroke-linejoin:miter;stroke-miterlimit:4;stroke-dasharray:none;stroke-opacity:1"
       d="M 69.971162,-51.636471 H 51.262295"
       id="path3847" />
  </g>
  <g
     transform="matrix(0.50650833,0,0,0.50650833,11.328276,20.098056)"
     id="g4076">
    <circle
       style="fill:#ebba16"
       cx="29"
       cy="29"
       r="29"
       id="circle4012" />
    <g
       id="g4018">
	<polygon
   style="fill:#ffffff"
   points="22,14 44,29 22,44 22,29.273 "
   id="polygon4014" />

	<path
   style="fill:#ffffff"
   d="M 22,45 C 21.84,45 21.679,44.962 21.533,44.884 21.205,44.711 21,44.371 21,44 V 14 c 0,-0.371 0.205,-0.711 0.533,-0.884 0.328,-0.174 0.724,-0.15 1.031,0.058 l 22,15 C 44.836,28.36 45,28.669 45,29 c 0,0.331 -0.164,0.64 -0.437,0.826 l -22,15 C 22.394,44.941 22.197,45 22,45 Z M 23,15.893 V 42.108 L 42.225,29 Z"
   id="path4016" />

</g>
    <g
       id="g4020">
</g>
    <g
       id="g4022">
</g>
    <g
       id="g4024">
</g>
    <g
       id="g4026">
</g>
    <g
       id="g4028">
</g>
    <g
       id="g4030">
</g>
    <g
       id="g4032">
</g>
    <g
       id="g4034">
</g>
    <g
       id="g4036">
</g>
    <g
       id="g4038">
</g>
    <g
       id="g4040">
</g>
    <g
       id="g4042">
</g>
    <g
       id="g4044">
</g>
    <g
       id="g4046">
</g>
    <g
       id="g4048">
</g>
  </g>
  <g
     transform="matrix(0.07435764,0,0,0.07435764,83.334843,15.037153)"
     id="g4194">
    <path
       d="m 26.359375,106.68359 v 342.21875 c 0,2.27344 1.84375,4.1211 4.121094,4.1211 H 481.51953 c 2.27735,0 4.1211,-1.84766 4.1211,-4.1211 V 106.68359 Z m 0,0"
       fill="#ed5176"
       id="path4126" />
    <g
       fill="#ba365f"
       id="g4136">
      <path
         d="M 26.359375,224.04687 H 485.64062 v 23.25 H 26.359375 Z m 0,0"
         id="path4128" />
      <path
         d="M 26.359375,106.68359 H 485.64062 v 23.25 H 26.359375 Z m 0,0"
         id="path4130" />
      <path
         d="m 174.42578,106.68359 v 23.41407 c 0,16.49609 13.37109,29.86718 29.86719,29.86718 h 126.14844 c 21.29296,0 38.55468,-17.26172 38.55468,-38.55468 v -14.72657 z m 0,0"
         id="path4132" />
      <path
         d="m 461.34766,106.68359 v 342.21875 c 0,2.27344 -1.84375,4.1211 -4.1211,4.1211 h 24.29297 c 2.27734,0 4.12109,-1.84766 4.12109,-4.1211 V 106.68359 Z m 0,0"
         id="path4134" />
    </g>
    <path
       d="M 201.07031,299.07031 V 453.02344 H 310.92969 V 299.07031 c 0,-5.6914 -4.61328,-10.30469 -10.30469,-10.30469 h -89.25391 c -5.6875,0 -10.30078,4.61329 -10.30078,10.30469 z m 0,0"
       fill="#6a7193"
       id="path4138" />
    <path
       d="m 216.78125,314.79297 c 0,-5.69141 4.61328,-10.30469 10.30469,-10.30469 h 83.84375 v -5.41797 c 0,-5.6914 -4.61328,-10.30469 -10.30078,-10.30469 H 211.375 c -5.69141,0 -10.30469,4.61329 -10.30469,10.30469 v 153.95313 h 15.71094 z m 0,0"
       fill="#575b7a"
       id="path4140" />
    <path
       d="m 0.640625,177.87109 v 42.05469 c 0,2.27734 1.84375,4.12109 4.121094,4.12109 H 507.23828 c 2.27735,0 4.1211,-1.84375 4.1211,-4.12109 v -42.05469 c 0,-2.27734 -1.84375,-4.12109 -4.1211,-4.12109 H 4.761719 c -2.277344,0 -4.121094,1.84375 -4.121094,4.12109 z m 0,0"
       fill="#c8e7f7"
       id="path4142" />
    <path
       d="m 507.23828,173.75 h -24.19922 c 2.27735,0 4.1211,1.84375 4.1211,4.12109 v 42.0586 c 0,2.27343 -1.84375,4.12109 -4.1211,4.12109 h 24.19922 c 2.27734,0 4.12109,-1.84766 4.12109,-4.12109 v -42.0586 c 0,-2.27734 -1.84375,-4.12109 -4.12109,-4.12109 z m 0,0"
       fill="#8cbcd6"
       id="path4144" />
    <path
       d="m 344.59766,314.00781 v 84.3125 c 0,4.81641 3.90625,8.72266 8.72265,8.72266 h 95.61719 c 4.82031,0 8.72266,-3.90625 8.72266,-8.72266 v -84.3125 c 0,-4.82031 -3.90235,-8.72265 -8.72266,-8.72265 h -95.61719 c -4.82031,-0.004 -8.72265,3.90234 -8.72265,8.72265 z m 0,0"
       fill="#c8e7f7"
       id="path4146" />
    <path
       d="m 54.339844,314.00781 v 84.3125 c 0,4.81641 3.902344,8.72266 8.722656,8.72266 h 95.61719 c 4.82031,0 8.72265,-3.90625 8.72265,-8.72266 v -84.3125 c 0,-4.82031 -3.90625,-8.72265 -8.72265,-8.72265 H 63.0625 c -4.820312,-0.004 -8.722656,3.90234 -8.722656,8.72265 z m 0,0"
       fill="#c8e7f7"
       id="path4148" />
    <path
       d="M 512,83.984375 V 65.089844 H 0 v 18.894531 c 12.535156,0 22.699219,10.164063 22.699219,22.699215 H 489.30078 c 0,-12.535152 10.16406,-22.699215 22.69922,-22.699215 z m 0,0"
       fill="#c8e7f7"
       id="path4150" />
    <path
       d="M 174.42578,65.089844 H 368.99609 V 106.68359 H 174.42578 Z m 0,0"
       fill="#8cbcd6"
       id="path4152" />
    <path
       d="m 487.80078,65.089844 v 18.894531 c -12.53906,0 -22.70312,10.164063 -22.70312,22.699215 h 24.20312 c 0,-12.535152 10.16406,-22.699215 22.69922,-22.699215 V 65.089844 Z m 0,0"
       fill="#8cbcd6"
       id="path4154" />
    <path
       d="m 158.71484,30.367188 v 84.304692 c 0,16.49218 13.3711,29.86718 29.86719,29.86718 h 134.83594 c 16.49219,0 29.86719,-13.375 29.86719,-29.86718 V 30.367188 C 353.28516,13.871094 339.91016,0.5 323.41797,0.5 H 188.58203 c -16.49609,0 -29.86719,13.371094 -29.86719,29.867188 z m 0,0"
       fill="#ffeb96"
       id="path4156" />
    <path
       d="m 226.125,378.39453 h -6.18359 c -4.14063,0 -7.5,-3.35937 -7.5,-7.5 0,-4.14062 3.35937,-7.5 7.5,-7.5 h 6.18359 c 4.14453,0 7.5,3.35938 7.5,7.5 0,4.14063 -3.35547,7.5 -7.5,7.5 z m 0,0"
       fill="#252d4c"
       id="path4158" />
    <path
       d="m 284.83984,100.80859 h -45.88281 c -9.08984,0 -17.03515,-6.457028 -18.89453,-15.355465 l -9.75391,-46.617187 h -9.64843 c -4.14453,0 -7.5,-3.359376 -7.5,-7.5 0,-4.140626 3.35547,-7.5 7.5,-7.5 h 9.64843 c 7.0625,0 13.23829,5.019531 14.6836,11.929687 l 9.75,46.617187 c 0.41406,1.984376 2.1875,3.425782 4.21484,3.425782 h 45.88281 c 1.77735,0 3.39844,-1.121094 4.02735,-2.785156 l 13.71875,-36.316407 h -60.82813 c -4.14453,0 -7.5,-3.359375 -7.5,-7.5 0,-4.140625 3.35547,-7.5 7.5,-7.5 h 64.88672 c 4.00391,0 7.75391,1.96875 10.03125,5.261719 2.27735,3.292969 2.79297,7.496094 1.375,11.242188 l -15.15234,40.113281 c -2.82031,7.464843 -10.07813,12.484371 -18.0586,12.484371 z m 0,0"
       fill="#5692d8"
       id="path4160" />
    <path
       d="m 240.28906,122.74219 h -2.05859 c -4.14453,0 -7.5,-3.35547 -7.5,-7.5 0,-4.14063 3.35547,-7.5 7.5,-7.5 h 2.05859 c 4.14453,0 7.5,3.35937 7.5,7.5 0,4.14453 -3.35547,7.5 -7.5,7.5 z m 0,0"
       fill="#5692d8"
       id="path4162" />
    <path
       d="m 273.76953,122.74219 h -2.05859 c -4.14453,0 -7.5,-3.35547 -7.5,-7.5 0,-4.14063 3.35547,-7.5 7.5,-7.5 h 2.05859 c 4.14453,0 7.5,3.35937 7.5,7.5 0,4.14453 -3.35547,7.5 -7.5,7.5 z m 0,0"
       fill="#5692d8"
       id="path4164" />
  </g>
</svg>
