<?xml version="1.0" encoding="UTF-8" standalone="no"?>
<svg
   xmlns:dc="http://purl.org/dc/elements/1.1/"
   xmlns:cc="http://creativecommons.org/ns#"
   xmlns:rdf="http://www.w3.org/1999/02/22-rdf-syntax-ns#"
   xmlns:svg="http://www.w3.org/2000/svg"
   xmlns="http://www.w3.org/2000/svg"
   width="600"
   height="300"
   viewBox="0 0 158.75 79.375002"
   version="1.1"
   id="svg8">
  <defs
     id="defs2">
    <rect
       x="33.261906"
       y="1.889881"
       width="32.127975"
       height="25.607887"
       id="rect952" />
    <rect
       x="23.718006"
       y="3.0238094"
       width="21.45015"
       height="20.127232"
       id="rect946" />
  </defs>
  <metadata
     id="metadata5">
    <rdf:RDF>
      <cc:Work
         rdf:about="">
        <dc:format>image/svg+xml</dc:format>
        <dc:type
           rdf:resource="http://purl.org/dc/dcmitype/StillImage" />
        <dc:title></dc:title>
      </cc:Work>
    </rdf:RDF>
  </metadata>
  <g
     id="layer1">
    <g
       transform="matrix(0.16172734,0,0,0.16172734,-0.3611776,-6.2413442)"
       id="g18280">
      <rect
         x="213.33299"
         y="292.21899"
         style="fill:#fcd088"
         width="85.333"
         height="93.522003"
         id="rect18121" />
      <rect
         x="255.431"
         y="292.21899"
         style="fill:#ddab62"
         width="43.236"
         height="93.522003"
         id="rect18123" />
      <path
         style="fill:#ffedb5"
         d="m 347.531,205.44 c 0.459,-4.244 0.698,-8.428 0.698,-12.509 0,-53.974 -41.293,-97.728 -92.229,-97.728 -50.936,0 -92.229,43.753 -92.229,97.728 0,4.08 0.24,8.264 0.698,12.509 -8.945,2.326 -13.202,16.087 -9.506,30.817 3.708,14.776 14.014,24.921 23.018,22.661 0.821,-0.205 1.586,-0.538 2.326,-0.927 16.667,33.452 44.351,60.594 75.693,60.594 31.342,0 59.027,-27.139 75.693,-60.594 0.74,0.39 1.505,0.722 2.326,0.927 9.004,2.26 19.309,-7.885 23.018,-22.661 3.695,-14.73 -0.561,-28.494 -9.506,-30.817 z"
         id="path18125" />
      <path
         style="fill:#e8cf89"
         d="m 347.531,205.44 c 0.459,-4.244 0.698,-8.428 0.698,-12.509 0,-53.974 -41.293,-97.728 -92.229,-97.728 -0.193,0 -0.381,0.014 -0.574,0.016 v 223.349 c 0.191,0.002 0.381,0.016 0.574,0.016 31.342,0 59.027,-27.139 75.693,-60.592 0.74,0.39 1.505,0.721 2.326,0.927 9.004,2.26 19.309,-7.885 23.018,-22.661 3.695,-14.731 -0.561,-28.495 -9.506,-30.818 z"
         id="path18127" />
      <path
         style="fill:#c18e56"
         d="m 198.459,258.439 -24.248,-58.127 h -6.992 c 0,0 4.994,28.47 4.994,53.943 0,25.473 26.472,68.22 74.671,68.22 h 18.23 c 48.199,0 74.671,-42.746 74.671,-68.22 0,-25.472 4.994,-53.943 4.994,-53.943 h -6.992 l -24.248,58.127 -57.872,6.565 z"
         id="path18129" />
      <path
         style="fill:#b27e4b"
         d="m 337.789,200.313 -24.248,58.127 -57.872,6.565 -0.243,-0.028 v 57.499 h 9.688 c 48.199,0 74.671,-42.746 74.671,-68.22 0,-25.474 4.996,-53.943 4.996,-53.943 z"
         id="path18131" />
      <path
         style="fill:#6d4711"
         d="m 161.127,181.119 c 0,0 1.724,24.442 6.034,39.253 l 8.045,-0.371 c 0,0 -2.012,-19.997 14.941,-40.365 16.953,-20.368 -29.02,1.483 -29.02,1.483 z"
         id="path18133" />
      <path
         style="fill:#ffffff"
         d="m 378.397,140.802 c 0,31.194 -54.936,42.894 -122.534,42.894 -67.598,0 -122.261,-11.7 -122.261,-42.894 0,-31.194 54.8,-80.938 122.398,-80.938 67.598,0 122.397,49.744 122.397,80.938 z"
         id="path18135" />
      <path
         style="fill:#e2e2e2"
         d="m 256,59.864 c -0.193,0 -0.381,0.012 -0.574,0.014 v 123.816 c 0.147,0 0.291,0.002 0.438,0.002 67.598,0 122.533,-11.702 122.533,-42.894 C 378.397,109.608 323.6,59.864 256,59.864 Z"
         id="path18137" />
      <path
         style="fill:#5b370d"
         d="m 350.873,181.119 c 0,0 -1.724,24.442 -6.034,39.253 l -8.045,-0.371 c 0,0 2.012,-19.997 -14.941,-40.365 -16.953,-20.368 29.02,1.483 29.02,1.483 z"
         id="path18139" />
      <path
         style="fill:#2b3344"
         d="m 256,210.161 c 37.505,0 71.494,-9.485 96.308,-24.855 1.898,-1.176 1.076,-4.099 -1.157,-18.041 H 160.849 c -2.232,13.941 -3.055,16.865 -1.157,18.041 24.816,15.37 58.803,24.855 96.308,24.855 z"
         id="path18141" />
      <path
         style="fill:#121149"
         d="m 351.151,167.265 h -95.725 v 42.887 c 0.193,0 0.381,0.009 0.574,0.009 37.505,0 71.494,-9.485 96.308,-24.855 1.898,-1.176 1.075,-4.099 -1.157,-18.041 z"
         id="path18143" />
      <path
         style="fill:#6d4711"
         d="m 273.984,260.256 c -12.045,-5.847 -15.736,-3.277 -17.984,-0.398 -2.248,-2.879 -5.939,-5.449 -17.984,0.398 -12.317,5.98 -28.562,-0.912 -28.562,-0.912 0,0 8.675,12.622 29.915,11.047 9.099,-0.674 14.686,-3.463 16.631,-6.296 1.945,2.832 7.532,5.622 16.631,6.296 21.242,1.574 29.915,-11.047 29.915,-11.047 0,0 -16.243,6.893 -28.562,0.912 z"
         id="path18145" />
      <path
         style="fill:#5b370d"
         d="m 273.984,260.256 c -12.045,-5.847 -15.736,-3.277 -17.984,-0.398 -0.179,-0.229 -0.372,-0.455 -0.574,-0.678 v 5.589 c 0.202,-0.224 0.419,-0.448 0.574,-0.674 1.945,2.832 7.532,5.622 16.631,6.296 21.242,1.576 29.915,-11.047 29.915,-11.047 0,0 -16.243,6.893 -28.562,0.912 z"
         id="path18147" />
      <path
         style="fill:#e0e2e2"
         d="m 356.49,364.391 -43.946,-12.235 -8.289,-11.593 c -1.488,-2.17 -4.299,-2.988 -6.718,-1.953 L 256,384 214.711,338.627 c -2.4,-1.046 -5.206,-0.26 -6.713,1.881 l -8.311,11.648 -44.247,11.804 c -22.883,4.577 -39.938,21.854 -39.938,45.19 v 60.863 C 155.838,496.547 204.11,512 256,512 c 51.89,0 100.162,-15.453 140.498,-41.987 V 409.15 c 0,-23.336 -17.125,-40.182 -40.008,-44.759 z"
         id="path18149" />
      <path
         style="fill:#c1c1c1"
         d="m 356.49,364.391 -43.946,-12.235 -8.289,-11.593 c -1.488,-2.17 -4.299,-2.988 -6.718,-1.953 L 256,384 255.426,383.371 V 511.99 c 0.191,0 0.381,0.01 0.574,0.01 51.89,0 100.162,-15.453 140.498,-41.987 V 409.15 c 0,-23.336 -17.125,-40.182 -40.008,-44.759 z"
         id="path18151" />
      <path
         style="fill:#273b7a"
         d="m 237.323,400.51 10.488,13.477 v 97.868 c 2.72,0.086 5.448,0.143 8.189,0.143 2.741,0 5.468,-0.059 8.189,-0.143 V 413.987 L 274.677,400.51 256,383.281 Z"
         id="path18153" />
      <g
         id="g18159">
	<path
   style="fill:#2b3344"
   d="m 256,383.281 -0.574,0.529 v 128.18 c 0.191,0 0.381,0.01 0.574,0.01 2.741,0 5.468,-0.059 8.189,-0.143 v -97.868 l 10.488,-13.477 z"
   id="path18155" />

	<path
   style="fill:#2b3344"
   d="m 147.372,380.114 52.996,-12.431 c 1.626,-0.381 2.636,-2.008 2.253,-3.636 l -2.819,-12.012 c -0.381,-1.626 -2.008,-2.636 -3.636,-2.253 l -52.996,12.431 c -1.626,0.381 -2.636,2.008 -2.253,3.636 l 2.819,12.012 c 0.383,1.626 2.01,2.634 3.636,2.253 z"
   id="path18157" />

</g>
      <g
         id="g18165">
	<polygon
   style="fill:#ffc61b"
   points="152.728,359.972 157.058,377.842 163.107,376.423 158.551,358.605 "
   id="polygon18161" />

	<polygon
   style="fill:#ffc61b"
   points="164.826,357.133 169.72,374.872 175.842,373.436 170.861,355.718 "
   id="polygon18163" />

</g>
      <path
         style="fill:#2b3344"
         d="m 364.628,380.114 -52.996,-12.431 c -1.626,-0.381 -2.636,-2.008 -2.253,-3.636 l 2.819,-12.012 c 0.381,-1.626 2.008,-2.636 3.636,-2.253 l 52.996,12.431 c 1.626,0.381 2.636,2.008 2.253,3.636 l -2.819,12.012 c -0.383,1.626 -2.01,2.634 -3.636,2.253 z"
         id="path18167" />
      <g
         id="g18173">
	<polygon
   style="fill:#ffc61b"
   points="359.272,359.972 354.942,377.842 348.893,376.423 353.449,358.605 "
   id="polygon18169" />

	<polygon
   style="fill:#ffc61b"
   points="347.174,357.133 342.28,374.872 336.158,373.436 341.139,355.718 "
   id="polygon18171" />

</g>
      <path
         style="fill:#afafaf"
         d="m 256,383.712 -43.973,-51.053 c -1.872,-2.007 -5.26,-2.003 -7.127,0.007 l -16.994,19.299 36.664,52.707 c 3.053,4.472 10.119,4.596 13.357,0.233 z"
         id="path18175" />
      <path
         style="fill:#8e8e8e"
         d="m 256,383.712 43.973,-51.053 c 1.872,-2.007 5.26,-2.003 7.127,0.007 l 16.994,19.297 -36.664,52.707 c -3.053,4.472 -10.119,4.596 -13.357,0.233 z"
         id="path18177" />
      <path
         style="fill:#494948"
         d="m 350.899,185.792 c -62.828,-8.919 -126.561,-8.938 -189.392,-0.057 -1.46,0.207 -2.808,-0.805 -3.013,-2.265 -0.938,-6.728 -1.874,-13.455 -2.812,-20.183 -0.305,-2.189 1.221,-4.224 3.41,-4.529 64.307,-8.975 129.508,-8.975 193.815,0 2.189,0.305 3.715,2.339 3.41,4.529 -0.957,6.863 -1.912,13.726 -2.869,20.589 -0.17,1.234 -1.313,2.09 -2.549,1.916 z"
         id="path18179" />
      <path
         style="fill:#383838"
         d="m 352.908,158.756 c -32.342,-4.513 -64.914,-6.753 -97.482,-6.727 v 27.064 c 31.899,-0.028 63.802,2.201 95.472,6.697 1.236,0.176 2.379,-0.681 2.551,-1.919 0.957,-6.863 1.912,-13.726 2.869,-20.589 0.306,-2.186 -1.221,-4.221 -3.41,-4.526 z"
         id="path18181" />
      <path
         style="fill:#ffc61b"
         d="m 159.094,174.271 c -0.669,0.093 -1.265,0.364 -1.777,0.734 0.393,2.82 0.786,5.642 1.179,8.463 0.203,1.46 1.552,2.472 3.013,2.265 62.831,-8.882 126.564,-8.863 189.392,0.057 1.236,0.176 2.379,-0.681 2.551,-1.919 0.412,-2.956 0.824,-5.911 1.236,-8.868 -0.512,-0.372 -1.108,-0.641 -1.777,-0.734 -64.308,-8.972 -129.512,-8.972 -193.817,0.002 z"
         id="path18183" />
      <path
         style="fill:#d48b07"
         d="m 352.908,174.271 c -32.342,-4.513 -64.914,-6.753 -97.482,-6.727 v 11.548 c 31.899,-0.028 63.802,2.201 95.472,6.697 1.236,0.176 2.379,-0.681 2.551,-1.919 0.412,-2.956 0.824,-5.911 1.236,-8.868 -0.512,-0.369 -1.107,-0.638 -1.777,-0.731 z"
         id="path18185" />
      <path
         style="fill:#494948"
         d="m 272.748,127.331 c -3.144,4.546 -7.963,7.546 -13.3,8.468 v -9.738 h 3.987 v -6.896 h -3.987 V 115.5 c 6.299,-1.552 10.99,-7.234 10.99,-14.005 0,-7.961 -6.477,-14.438 -14.438,-14.438 -7.961,0 -14.438,6.477 -14.438,14.438 0,6.771 4.691,12.452 10.99,14.005 v 3.665 h -3.987 v 6.896 h 3.987 v 9.738 c -5.335,-0.922 -10.156,-3.922 -13.3,-8.468 l -5.67,3.922 c 5.098,7.371 13.477,11.773 22.418,11.773 8.941,0 17.32,-4.401 22.418,-11.773 z m -24.29,-25.836 c 0,-4.158 3.384,-7.542 7.542,-7.542 4.158,0 7.542,3.384 7.542,7.542 0,4.158 -3.384,7.542 -7.542,7.542 -4.158,0 -7.542,-3.384 -7.542,-7.542 z"
         id="path18187" />
      <path
         style="fill:#383838"
         d="m 272.748,127.331 c -3.144,4.546 -7.963,7.546 -13.3,8.468 v -9.738 h 3.987 v -6.896 h -3.987 V 115.5 c 6.299,-1.552 10.99,-7.234 10.99,-14.005 0,-7.961 -6.477,-14.438 -14.438,-14.438 -0.193,0 -0.383,0.021 -0.574,0.029 v 6.925 c 0.193,-0.016 0.378,-0.059 0.574,-0.059 4.158,0 7.542,3.384 7.542,7.542 0,4.158 -3.384,7.542 -7.542,7.542 -0.197,0 -0.381,-0.043 -0.574,-0.059 v 34.03 c 0.191,0.003 0.381,0.017 0.574,0.017 8.94,0 17.32,-4.401 22.418,-11.773 z"
         id="path18189" />
      <g
         id="g18191">
</g>
      <g
         id="g18193">
</g>
      <g
         id="g18195">
</g>
      <g
         id="g18197">
</g>
      <g
         id="g18199">
</g>
      <g
         id="g18201">
</g>
      <g
         id="g18203">
</g>
      <g
         id="g18205">
</g>
      <g
         id="g18207">
</g>
      <g
         id="g18209">
</g>
      <g
         id="g18211">
</g>
      <g
         id="g18213">
</g>
      <g
         id="g18215">
</g>
      <g
         id="g18217">
</g>
      <g
         id="g18219">
</g>
    </g>
    <g
       transform="matrix(0.11424422,0,0,0.11424422,87.855521,11.378448)"
       id="g18406">
      <circle
         style="fill:#f0f0f0"
         cx="256"
         cy="256"
         r="256"
         id="circle18333" />
      <g
         id="g18343">
	<path
   style="fill:#d80027"
   d="M 244.87,256 H 512 c 0,-23.106 -3.08,-45.49 -8.819,-66.783 H 244.87 Z"
   id="path18335" />

	<path
   style="fill:#d80027"
   d="M 244.87,122.435 H 474.426 C 458.755,96.863 438.718,74.26 415.356,55.652 H 244.87 Z"
   id="path18337" />

	<path
   style="fill:#d80027"
   d="m 256,512 c 60.249,0 115.626,-20.824 159.356,-55.652 H 96.644 C 140.374,491.176 195.751,512 256,512 Z"
   id="path18339" />

	<path
   style="fill:#d80027"
   d="m 37.574,389.565 h 436.852 c 12.581,-20.529 22.338,-42.969 28.755,-66.783 H 8.819 c 6.417,23.814 16.174,46.254 28.755,66.783 z"
   id="path18341" />

</g>
      <path
         style="fill:#0052b4"
         d="m 118.584,39.978 h 23.329 l -21.7,15.765 8.289,25.509 -21.699,-15.765 -21.699,15.765 7.16,-22.037 C 73.158,75.13 56.412,93.776 42.612,114.552 h 7.475 l -13.813,10.035 c -2.152,3.59 -4.216,7.237 -6.194,10.938 l 6.596,20.301 -12.306,-8.941 c -3.059,6.481 -5.857,13.108 -8.372,19.873 l 7.267,22.368 h 26.822 l -21.7,15.765 8.289,25.509 -21.699,-15.765 -12.998,9.444 C 0.678,234.537 0,245.189 0,256 H 256 C 256,114.616 256,97.948 256,0 205.428,0 158.285,14.67 118.584,39.978 Z m 9.918,190.422 -21.699,-15.765 -21.699,15.765 8.289,-25.509 -21.7,-15.765 h 26.822 l 8.288,-25.509 8.288,25.509 h 26.822 l -21.7,15.765 z m -8.289,-100.083 8.289,25.509 -21.699,-15.765 -21.699,15.765 8.289,-25.509 -21.7,-15.765 h 26.822 l 8.288,-25.509 8.288,25.509 h 26.822 z M 220.328,230.4 198.629,214.635 176.93,230.4 l 8.289,-25.509 -21.7,-15.765 h 26.822 l 8.288,-25.509 8.288,25.509 h 26.822 l -21.7,15.765 z m -8.289,-100.083 8.289,25.509 -21.699,-15.765 -21.699,15.765 8.289,-25.509 -21.7,-15.765 h 26.822 l 8.288,-25.509 8.288,25.509 h 26.822 z m 0,-74.574 8.289,25.509 -21.699,-15.765 -21.699,15.765 8.289,-25.509 -21.7,-15.765 h 26.822 l 8.288,-25.509 8.288,25.509 h 26.822 z"
         id="path18345" />
      <g
         id="g18347">
</g>
      <g
         id="g18349">
</g>
      <g
         id="g18351">
</g>
      <g
         id="g18353">
</g>
      <g
         id="g18355">
</g>
      <g
         id="g18357">
</g>
      <g
         id="g18359">
</g>
      <g
         id="g18361">
</g>
      <g
         id="g18363">
</g>
      <g
         id="g18365">
</g>
      <g
         id="g18367">
</g>
      <g
         id="g18369">
</g>
      <g
         id="g18371">
</g>
      <g
         id="g18373">
</g>
      <g
         id="g18375">
</g>
    </g>
  </g>
</svg>
