<?xml version="1.0" encoding="UTF-8" standalone="no"?>
<svg
   xmlns:dc="http://purl.org/dc/elements/1.1/"
   xmlns:cc="http://creativecommons.org/ns#"
   xmlns:rdf="http://www.w3.org/1999/02/22-rdf-syntax-ns#"
   xmlns:svg="http://www.w3.org/2000/svg"
   xmlns="http://www.w3.org/2000/svg"
   id="svg8"
   version="1.1"
   viewBox="0 0 158.75 79.375002"
   height="300"
   width="600">
  <defs
     id="defs2">
    <rect
       x="119.73675"
       y="-29.934187"
       width="44.366741"
       height="29.934187"
       id="rect28762" />
    <rect
       x="124.88902"
       y="14.784079"
       width="28.52369"
       height="39.204365"
       id="rect28742" />
    <rect
       x="124.01306"
       y="14.967094"
       width="46.504898"
       height="49.177593"
       id="rect27647" />
    <rect
       id="rect952"
       height="25.607887"
       width="32.127975"
       y="1.889881"
       x="33.261906" />
    <rect
       id="rect946"
       height="20.127232"
       width="21.45015"
       y="3.0238094"
       x="23.718006" />
  </defs>
  <metadata
     id="metadata5">
    <rdf:RDF>
      <cc:Work
         rdf:about="">
        <dc:format>image/svg+xml</dc:format>
        <dc:type
           rdf:resource="http://purl.org/dc/dcmitype/StillImage" />
        <dc:title></dc:title>
      </cc:Work>
    </rdf:RDF>
  </metadata>
  <text
     transform="matrix(2.0281666,0,0,2.0281666,-233.82654,88.093743)"
     style="font-style:normal;font-variant:normal;font-weight:bold;font-stretch:normal;font-size:10.5833px;line-height:1.25;font-family:sans-serif;-inkscape-font-specification:'sans-serif Bold';white-space:pre;shape-inside:url(#rect28762);fill:#000000;fill-opacity:1;stroke:none;"
     id="text28760"
     xml:space="preserve"><tspan
       x="119.73633"
       y="-20.278129"><tspan>PO</tspan></tspan></text>
  <g
     transform="matrix(0.11275695,0,0,0.11275695,41.994171,10.843764)"
     id="g924">
    <g
       id="g916">
      <path
         d="m 148.375,478.215 -10.332,-10.293 18.501,-18.432 c 0.034,0.034 0.062,0.072 0.096,0.106 l 10.465,10.426 c 2.931,2.92 6.76,4.378 10.588,4.378 3.86,0 7.72,-1.483 10.656,-4.445 5.849,-5.9 5.819,-15.435 -0.066,-21.298 L 150.831,401.344 356.757,196.72 315.834,155.95 4.432,466.729 c -5.91,5.889 -5.909,15.476 10e-4,21.364 l 19.603,19.53 c 5.863,5.841 15.33,5.837 21.188,-0.01 l 44.489,-45.377 37.484,37.344 c 2.931,2.92 6.759,4.378 10.588,4.378 3.86,0 7.72,-1.483 10.656,-4.444 5.849,-5.901 5.819,-15.436 -0.066,-21.299 z"
         fill="#f4da90"
         id="path912" />
      <path
         d="m 148.375,478.215 -10.332,-10.293 18.501,-18.432 c 0.034,0.034 0.062,0.072 0.096,0.106 l 10.465,10.426 c 2.931,2.92 6.76,4.378 10.588,4.378 3.86,0 7.72,-1.483 10.656,-4.445 5.849,-5.9 5.819,-15.435 -0.066,-21.298 L 150.831,401.344 356.757,196.72 335.692,175.734 14.31,497.933 l 9.726,9.689 c 5.863,5.841 15.33,5.837 21.188,-0.01 l 44.489,-45.377 37.484,37.344 c 2.931,2.92 6.759,4.378 10.588,4.378 3.86,0 7.72,-1.483 10.656,-4.444 5.849,-5.9 5.819,-15.435 -0.066,-21.298 z"
         fill="#e7aa60"
         id="path914" />
    </g>
    <g
       id="g922">
      <path
         d="m 459.602,238.277 c 13.917,-13.865 21.581,-32.305 21.58,-51.926 0,-16.478 -5.424,-32.112 -15.4,-44.914 8.973,-3.566 17.384,-8.941 24.638,-16.167 C 504.336,111.404 512,92.964 512,73.344 c 0,-19.62 -7.664,-38.061 -21.58,-51.926 -28.666,-28.558 -75.307,-28.558 -103.972,0 -7.185,7.158 -12.688,15.543 -16.345,24.673 -28.818,-22.341 -70.612,-20.345 -97.086,6.03 -13.917,13.865 -21.581,32.305 -21.58,51.926 0,19.62 7.664,38.06 21.58,51.925 14.332,14.279 33.159,21.419 51.986,21.419 3.241,0 6.48,-0.238 9.698,-0.662 -0.416,3.166 -0.651,6.375 -0.651,9.623 0,19.62 7.664,38.061 21.581,51.926 14.333,14.279 33.159,21.418 51.986,21.418 18.825,-0.001 37.652,-7.14 51.985,-21.419 z M 438.434,30.091 c 11.156,0 22.315,4.232 30.808,12.693 8.198,8.169 12.714,19.022 12.714,30.56 0,11.538 -4.515,22.392 -12.714,30.56 -16.988,16.923 -44.628,16.923 -61.617,0 -8.198,-8.168 -12.714,-19.022 -12.714,-30.56 0,-11.539 4.515,-22.392 12.714,-30.56 8.495,-8.463 19.65,-12.693 30.809,-12.693 z M 294.195,134.607 c -8.199,-8.168 -12.714,-19.021 -12.714,-30.56 0,-11.539 4.515,-22.392 12.714,-30.56 8.495,-8.463 19.65,-12.694 30.808,-12.694 11.156,0 22.315,4.232 30.808,12.693 8.199,8.169 12.714,19.022 12.714,30.561 0,11.539 -4.515,22.392 -12.714,30.56 -16.988,16.924 -44.628,16.924 -61.616,0 z m 82.613,82.305 c -8.199,-8.169 -12.714,-19.022 -12.714,-30.561 0.001,-11.538 4.516,-22.392 12.714,-30.56 8.494,-8.462 19.651,-12.693 30.808,-12.693 11.157,0 22.314,4.231 30.808,12.693 8.199,8.168 12.714,19.021 12.714,30.56 0,11.539 -4.515,22.392 -12.714,30.561 -16.988,16.923 -44.628,16.923 -61.616,0 z"
         fill="#e7aa60"
         id="path918" />
      <path
         d="m 459.602,238.277 c 13.917,-13.865 21.581,-32.305 21.58,-51.926 0,-16.478 -5.424,-32.112 -15.4,-44.914 8.973,-3.566 17.384,-8.941 24.638,-16.167 C 504.336,111.404 512,92.964 512,73.344 c 0,-19.62 -7.664,-38.061 -21.58,-51.926 -0.135,-0.135 -0.277,-0.258 -0.413,-0.391 l -21.247,21.3 c 0.159,0.154 0.324,0.299 0.482,0.456 8.198,8.169 12.714,19.022 12.714,30.56 0,11.538 -4.515,22.392 -12.714,30.56 -16.988,16.923 -44.628,16.923 -61.617,0 -0.048,-0.048 -0.092,-0.098 -0.14,-0.146 L 334.7,176.728 c -0.416,3.166 -0.651,6.375 -0.651,9.623 0,19.62 7.664,38.061 21.581,51.926 14.333,14.279 33.159,21.418 51.986,21.418 18.826,0 37.653,-7.139 51.986,-21.418 z m -82.794,-21.365 c -8.199,-8.169 -12.714,-19.022 -12.714,-30.561 0.001,-11.538 4.516,-22.392 12.714,-30.56 8.494,-8.462 19.651,-12.693 30.808,-12.693 11.157,0 22.314,4.231 30.808,12.693 8.199,8.168 12.714,19.021 12.714,30.56 0,11.539 -4.515,22.392 -12.714,30.561 -16.988,16.923 -44.628,16.923 -61.616,0 z"
         fill="#e48d3c"
         id="path920" />
    </g>
  </g>
  <g
     transform="matrix(0.13466065,0,0,0.13466065,92.17551,3.783456)"
     id="flat">
    <path
       d="m 336,488 h 144 l -3.554,-24.879 a 60,60 0 0 0 -32.564,-45.18 L 296,344 H 216 L 68.118,417.941 a 60,60 0 0 0 -32.564,45.18 L 32,488 h 144"
       fill="#48351b"
       id="path940" />
    <path
       d="m 424,488 v -32 a 8,8 0 0 1 16,0 v 32 z"
       fill="#332613"
       id="path942" />
    <path
       d="m 216,344 -64,32 24,48 40,-32 z"
       fill="#5f4623"
       id="path944" />
    <path
       d="m 208,488 h -32 l -24,-72 56,-24 z"
       fill="#6e5129"
       id="path946" />
    <path
       d="m 296,344 64,32 -24,48 -40,-32 z"
       fill="#5f4623"
       id="path948" />
    <path
       d="m 304,488 h 32 l 24,-72 -56,-24 z"
       fill="#6e5129"
       id="path950" />
    <path
       d="m 296,312 v 19.64 c -0.08,0.06 -0.17,0.11 -0.25,0.17 A 70.9,70.9 0 0 1 216,331.64 V 312 Z"
       fill="#e6af89"
       id="path952" />
    <path
       d="m 216,312 v 32 l -8,24 48,48 48,-48 -8,-24 v -32 z"
       fill="#fdc9a6"
       id="path954" />
    <path
       d="m 296,312 v 19.64 c -0.08,0.06 -0.17,0.11 -0.25,0.17 A 70.9,70.9 0 0 1 216,331.64 V 312 Z"
       fill="#e6af89"
       id="path956" />
    <path
       d="m 304,368 -48,48 -48,-48 v 120 h 96 z"
       fill="#026ca2"
       id="path958" />
    <path
       d="m 72,488 v -32 a 8,8 0 0 1 16,0 v 32 z"
       fill="#332613"
       id="path960" />
    <path
       d="m 152,200 v -72.022 a 57.888,57.888 0 0 1 16.955,-40.933 l 14.09,-14.09 A 57.888,57.888 0 0 1 223.978,56 h 44.245 A 57.889,57.889 0 0 1 320,88 44.846,44.846 0 0 1 357.313,107.969 16,16 0 0 1 360,116.844 V 200 Z"
       fill="#55300b"
       id="path962" />
    <path
       d="M 256,328 A 70.9,70.9 0 0 1 190.173,283.433 198.156,198.156 0 0 1 176,209.837 V 152 l 24,-40.73 H 312 L 336,152 v 57.837 a 198.156,198.156 0 0 1 -14.173,73.6 A 70.9,70.9 0 0 1 256,328 Z"
       fill="#fdc9a6"
       id="path964" />
    <g
       fill="#55300b"
       id="g974">
      <path
         d="m 304,184 h -24 a 8,8 0 0 1 0,-16 h 24 a 8,8 0 0 1 0,16 z"
         id="path966" />
      <circle
         cx="290"
         cy="202"
         r="10"
         id="circle968" />
      <path
         d="m 232,184 h -24 a 8,8 0 0 1 0,-16 h 24 a 8,8 0 0 1 0,16 z"
         id="path970" />
      <circle
         cx="222"
         cy="202"
         r="10"
         id="circle972" />
    </g>
    <path
       d="m 272,280 h -32 a 8,8 0 0 1 0,-16 h 32 a 8,8 0 0 1 0,16 z"
       fill="#e6af89"
       id="path976" />
    <path
       d="m 264,248 h -16 a 8,8 0 0 1 -8,-8 v -24 a 8,8 0 0 1 16,0 v 16 h 8 a 8,8 0 0 1 0,16 z"
       fill="#e6af89"
       id="path978" />
    <path
       d="M 176,176 H 164.944 A 20.944,20.944 0 0 0 144,196.944 v 14.112 a 20.944,20.944 0 0 0 2.211,9.366 A 20.944,20.944 0 0 0 164.944,232 H 184 Z"
       fill="#fdc9a6"
       id="path980" />
    <path
       d="m 336,176 h 11.056 A 20.944,20.944 0 0 1 368,196.944 v 14.112 a 20.944,20.944 0 0 1 -2.211,9.366 A 20.944,20.944 0 0 1 347.056,232 H 328 Z"
       fill="#fdc9a6"
       id="path982" />
  </g>
</svg>
