<?xml version="1.0" encoding="UTF-8" standalone="no"?>
<svg
   xmlns:dc="http://purl.org/dc/elements/1.1/"
   xmlns:cc="http://creativecommons.org/ns#"
   xmlns:rdf="http://www.w3.org/1999/02/22-rdf-syntax-ns#"
   xmlns:svg="http://www.w3.org/2000/svg"
   xmlns="http://www.w3.org/2000/svg"
   width="600"
   height="300"
   viewBox="0 0 158.75 79.375002"
   version="1.1"
   id="svg8">
  <defs
     id="defs2">
    <rect
       x="33.261906"
       y="1.889881"
       width="32.127975"
       height="25.607887"
       id="rect952" />
    <rect
       x="23.718006"
       y="3.0238094"
       width="21.45015"
       height="20.127232"
       id="rect946" />
  </defs>
  <metadata
     id="metadata5">
    <rdf:RDF>
      <cc:Work
         rdf:about="">
        <dc:format>image/svg+xml</dc:format>
        <dc:type
           rdf:resource="http://purl.org/dc/dcmitype/StillImage" />
        <dc:title></dc:title>
      </cc:Work>
    </rdf:RDF>
  </metadata>
  <g
     id="layer1">
    <g
       transform="matrix(1.1028892,0,0,1.1028892,2.3820213,4.3680698)"
       id="Tombstone">
      <path
         d="m 60,47 a 1,1 0 0 0 -1,1 v 3 a 1.993,1.993 0 0 1 -1,1.722 V 48 a 1,1 0 0 0 -2,0 v 4.722 A 1.993,1.993 0 0 1 55,51 v -3 a 1,1 0 0 0 -2,0 v 3 a 4,4 0 0 0 3,3.858 V 60 a 1,1 0 0 0 2,0 V 54.858 A 4,4 0 0 0 61,51 v -3 a 1,1 0 0 0 -1,-1 z"
         fill="#5eac24"
         id="path4990" />
      <path
         d="m 10,47 a 1,1 0 0 0 -1,1 v 3 A 1.993,1.993 0 0 1 8,52.722 V 48 a 1,1 0 0 0 -2,0 v 4.722 A 1.993,1.993 0 0 1 5,51 v -3 a 1,1 0 0 0 -2,0 v 3 a 4,4 0 0 0 3,3.858 V 60 a 1,1 0 0 0 2,0 V 54.858 A 4,4 0 0 0 11,51 v -3 a 1,1 0 0 0 -1,-1 z"
         fill="#4e901e"
         id="path4992" />
      <path
         d="m 50,21 v 35.45 l -0.41,-0.17 a 46.012,46.012 0 0 0 -35.18,0 L 14,56.45 V 21 a 18,18 0 1 1 36,0 z"
         fill="#a7a9ac"
         id="path4994" />
      <path
         d="M 44.73,8.27 A 17.728,17.728 0 0 0 29.5,3.194 17.948,17.948 0 0 1 45,21 v 33.666 a 45.961,45.961 0 0 1 4.59,1.614 L 50,56.45 V 21 A 17.983,17.983 0 0 0 44.73,8.27 Z"
         fill="#939598"
         id="path4996" />
      <path
         d="m 50,56.45 -0.412,-0.17 a 46,46 0 0 0 -35.176,0 L 14,56.45 3,61 H 61 L 50,56.448 Z"
         fill="#8b5e3c"
         id="path4998" />
      <path
         d="m 50,56.448 -0.412,-0.17 A 45.991,45.991 0 0 0 29.5,52.856 46,46 0 0 1 44.588,56.278 L 45,56.448 56,61 h 5 z"
         fill="#754c29"
         id="path5000" />
      <g
         fill="#414042"
         id="g5008">
        <path
           d="m 21,32 a 1,1 0 0 0 1,-1 v -5 h 0.465 l 3.7,5.555 a 1.0001245,1.0001245 0 1 0 1.664,-1.11 L 24.81,25.916 A 4,4 0 0 0 24,18 h -3 a 1,1 0 0 0 -1,1 v 12 a 1,1 0 0 0 1,1 z m 1,-12 h 2 a 2,2 0 0 1 0,4 h -2 z"
           id="path5002" />
        <path
           d="m 32,32 a 1,1 0 0 0 1,-1 V 19 a 1,1 0 0 0 -2,0 v 12 a 1,1 0 0 0 1,1 z"
           id="path5004" />
        <path
           d="m 37,32 a 1,1 0 0 0 1,-1 v -5 h 2 a 4,4 0 0 0 0,-8 h -3 a 1,1 0 0 0 -1,1 v 12 a 1,1 0 0 0 1,1 z m 1,-12 h 2 a 2,2 0 0 1 0,4 h -2 z"
           id="path5006" />
      </g>
      <path
         d="m 21,38 h 22 a 1,1 0 0 0 0,-2 H 21 a 1,1 0 0 0 0,2 z"
         fill="#6d6e71"
         id="path5010" />
      <path
         d="M 40,40 H 24 a 1,1 0 0 0 0,2 h 16 a 1,1 0 0 0 0,-2 z"
         fill="#6d6e71"
         id="path5012" />
    </g>
    <g
       transform="matrix(0.15459936,0,0,0.15459936,76.43751,1.0701191)"
       id="g18004">
      <g
         id="g17933">
	<path
   style="fill:#2980ba"
   d="M 0,234.813 V 393.71 c 0,21.01 26.836,40.077 70.621,54.201 28.798,8.86 58.347,15.065 88.276,18.538 32.218,3.924 64.647,5.87 97.103,5.826 32.456,0.044 64.885,-1.902 97.103,-5.826 29.929,-3.473 59.478,-9.678 88.276,-18.538 C 485.164,433.787 512,414.719 512,393.709 V 234.813 Z"
   id="path17901" />

	<g
   id="g17909">
		<path
   style="fill:#285680"
   d="m 256,315.232 v 157.044 c -32.456,0.043 -64.885,-1.903 -97.103,-5.827 v -157.22 c 32.206,4.075 64.64,6.08 97.103,6.003 z"
   id="path17903" />

		<path
   style="fill:#285680"
   d="m 441.379,290.25 v 157.661 c -28.798,8.86 -58.347,15.065 -88.276,18.538 v -157.22 c 29.953,-3.561 59.507,-9.915 88.276,-18.979 z"
   id="path17905" />

		<path
   style="fill:#285680"
   d="M 70.621,290.25 V 447.911 C 26.836,433.787 0,414.719 0,393.709 V 234.813 c 0,21.539 26.836,41.048 70.621,55.437 z"
   id="path17907" />

	</g>

	<g
   id="g17915">
		<path
   style="fill:#7f8c8d"
   d="m 300.138,92.689 h -97.103 c -4.875,0 -8.828,-3.952 -8.828,-8.828 0,-4.875 3.952,-8.828 8.828,-8.828 h 97.103 c 4.875,0 8.828,3.952 8.828,8.828 0,4.875 -3.953,8.828 -8.828,8.828 z"
   id="path17911" />

		<path
   style="fill:#7f8c8d"
   d="m 300.138,127.999 h -97.103 c -4.875,0 -8.828,-3.952 -8.828,-8.828 0,-4.876 3.952,-8.828 8.828,-8.828 h 97.103 c 4.875,0 8.828,3.952 8.828,8.828 0,4.876 -3.953,8.828 -8.828,8.828 z"
   id="path17913" />

	</g>

	<g
   id="g17921">
		<path
   style="fill:#95a5a5"
   d="m 203.034,163.309 c -4.875,0 -8.828,-3.952 -8.828,-8.828 V 48.551 c 0,-4.875 3.952,-8.828 8.828,-8.828 4.876,0 8.828,3.952 8.828,8.828 v 105.931 c 0,4.875 -3.952,8.827 -8.828,8.827 z"
   id="path17917" />

		<path
   style="fill:#95a5a5"
   d="m 300.138,163.309 c -4.875,0 -8.828,-3.952 -8.828,-8.828 V 48.551 c 0,-4.875 3.952,-8.828 8.828,-8.828 4.876,0 8.828,3.952 8.828,8.828 v 105.931 c 0,4.875 -3.953,8.827 -8.828,8.827 z"
   id="path17919" />

	</g>

	<path
   style="fill:#3b97d3"
   d="m 512,234.813 c 0,21.539 -26.836,41.048 -70.621,55.437 -28.769,9.064 -58.323,15.418 -88.276,18.979 -32.206,4.074 -64.641,6.079 -97.103,6.003 -32.463,0.077 -64.897,-1.928 -97.103,-6.003 C 128.944,305.668 99.391,299.314 70.621,290.25 26.836,275.861 0,256.352 0,234.813 c 0,-44.314 114.582,-80.331 256,-80.331 141.418,0 256,36.016 256,80.331 z"
   id="path17923" />

	<ellipse
   style="fill:#90bae1"
   cx="256"
   cy="233.92999"
   rx="203.034"
   ry="44.138"
   id="ellipse17925" />

	<g
   id="g17931">
		<path
   style="fill:#b0d3f0"
   d="m 214.582,229.486 c -0.638,0.341 -4.547,1.927 -14.22,-1.849 -13.791,-5.393 -29.482,-1.65 -39.353,9.388 -3.159,3.71 -2.716,9.277 0.989,12.44 3.706,3.163 9.274,2.727 12.442,-0.975 4.969,-5.351 12.714,-7.101 19.5,-4.405 22.379,8.733 31.802,-0.543 33.465,-2.496 3.054,-3.578 2.766,-8.922 -0.655,-12.151 -3.42,-3.228 -8.772,-3.208 -12.168,0.048 z"
   id="path17927" />

		<path
   style="fill:#b0d3f0"
   d="m 341.177,229.145 c -3.45,-2.937 -8.561,-2.79 -11.836,0.34 -0.638,0.341 -4.547,1.927 -14.22,-1.849 -13.791,-5.392 -29.481,-1.649 -39.353,9.388 -3.159,3.709 -2.716,9.277 0.989,12.44 3.705,3.163 9.274,2.727 12.442,-0.975 4.968,-5.352 12.714,-7.102 19.5,-4.405 22.392,8.733 31.806,-0.543 33.465,-2.496 1.52,-1.781 2.27,-4.093 2.085,-6.427 -0.186,-2.332 -1.291,-4.497 -3.072,-6.016 z"
   id="path17929" />

	</g>

</g>
      <g
         id="g17935">
</g>
      <g
         id="g17937">
</g>
      <g
         id="g17939">
</g>
      <g
         id="g17941">
</g>
      <g
         id="g17943">
</g>
      <g
         id="g17945">
</g>
      <g
         id="g17947">
</g>
      <g
         id="g17949">
</g>
      <g
         id="g17951">
</g>
      <g
         id="g17953">
</g>
      <g
         id="g17955">
</g>
      <g
         id="g17957">
</g>
      <g
         id="g17959">
</g>
      <g
         id="g17961">
</g>
      <g
         id="g17963">
</g>
    </g>
  </g>
</svg>
