<?xml version="1.0" encoding="UTF-8" standalone="no"?>
<svg
   xmlns:dc="http://purl.org/dc/elements/1.1/"
   xmlns:cc="http://creativecommons.org/ns#"
   xmlns:rdf="http://www.w3.org/1999/02/22-rdf-syntax-ns#"
   xmlns:svg="http://www.w3.org/2000/svg"
   xmlns="http://www.w3.org/2000/svg"
   width="600"
   height="300"
   viewBox="0 0 158.75 79.375002"
   version="1.1"
   id="svg8">
  <defs
     id="defs2">
    <rect
       id="rect27647"
       height="49.177593"
       width="46.504898"
       y="14.967094"
       x="124.01306" />
    <rect
       x="33.261906"
       y="1.889881"
       width="32.127975"
       height="25.607887"
       id="rect952" />
    <rect
       x="23.718006"
       y="3.0238094"
       width="21.45015"
       height="20.127232"
       id="rect946" />
  </defs>
  <metadata
     id="metadata5">
    <rdf:RDF>
      <cc:Work
         rdf:about="">
        <dc:format>image/svg+xml</dc:format>
        <dc:type
           rdf:resource="http://purl.org/dc/dcmitype/StillImage" />
        <dc:title></dc:title>
      </cc:Work>
    </rdf:RDF>
  </metadata>
  <g
     id="layer1">
    <g
       transform="matrix(0.12886079,0,0,0.12886079,1.4316676,6.5674613)"
       id="g27439">
      <path
         d="m 81.918,13.387 c -7.393,7.393 -7.393,19.38 0,26.774 l 68.045,68.045 c 0.565,0.565 0.882,1.33 0.882,2.129 v 382.734 c 0,10.456 8.476,18.932 18.932,18.932 10.456,0 18.932,-8.476 18.932,-18.932 V 107.49 c 0,-9.02 -3.583,-17.67 -9.961,-24.048 L 108.693,13.387 c -7.394,-7.394 -19.381,-7.394 -26.775,0 z"
         fill="#da387d"
         id="path27413" />
      <path
         d="m 81.918,40.16 68.045,68.045 c 0.565,0.565 0.882,1.33 0.882,2.129 v 382.734 c 0,10.456 8.476,18.932 18.932,18.932 10.456,0 18.932,-8.476 18.932,-18.932 V 107.49 c 0,-9.02 -3.583,-17.67 -9.961,-24.048 L 108.693,13.387 C 101.299,5.993 74.525,32.767 81.918,40.16 Z"
         fill="#da387d"
         id="path27415" />
      <path
         d="m 81.918,40.16 c 7.393,7.393 19.38,7.393 26.774,0 7.393,-7.393 7.393,-19.38 0,-26.774 -7.393,-7.393 -19.38,-7.393 -26.774,0 -7.393,7.394 -7.393,19.381 0,26.774 z"
         fill="#c10a54"
         id="path27417" />
      <path
         d="m 248.967,512 c 10.456,0 18.932,-8.476 18.932,-18.932 V 18.932 c 0,-10.456 -37.864,-10.456 -37.864,0 v 474.137 c 0,10.455 8.476,18.931 18.932,18.931 z"
         fill="#7ad0df"
         id="path27419" />
      <path
         d="m 230.035,18.932 c 0,10.456 8.476,18.932 18.932,18.932 10.456,0 18.932,-8.476 18.932,-18.932 C 267.899,8.476 259.423,0 248.967,0 238.511,0 230.035,8.476 230.035,18.932 Z"
         fill="#6bbcd5"
         id="path27421" />
      <path
         d="m 407.226,26.521 -80.497,46.475 c -10.831,6.253 -17.503,17.809 -17.503,30.315 v 389.757 c 0,10.456 8.476,18.932 18.932,18.932 10.456,0 18.932,-8.476 18.932,-18.932 V 107.425 c 0,-1.524 0.813,-2.933 2.133,-3.695 l 76.935,-44.418 c 9.055,-5.228 -9.877,-38.019 -18.932,-32.791 z"
         fill="#f4dd45"
         id="path27423" />
      <path
         d="m 407.226,26.521 c -9.055,5.228 -12.157,16.806 -6.93,25.861 5.228,9.055 16.806,12.157 25.861,6.93 9.055,-5.227 12.157,-16.806 6.929,-25.861 -5.227,-9.055 -16.805,-12.158 -25.86,-6.93 z"
         fill="#ecc32e"
         id="path27425" />
      <path
         d="m 152.684,149.412 c -2.066,0 -4.143,-0.097 -6.231,-0.293 -4.248,-0.398 -7.37,-4.165 -6.971,-8.413 0.399,-4.248 4.164,-7.373 8.414,-6.971 15.582,1.458 30.531,-4.308 41.017,-15.825 2.874,-3.157 7.76,-3.383 10.915,-0.512 3.155,2.873 3.384,7.76 0.512,10.914 -12.38,13.597 -29.482,21.1 -47.656,21.1 z m 27.302,-37.065 14.865,-14.865 c 3.018,-3.018 3.018,-7.909 0,-10.928 -3.017,-3.016 -7.909,-3.016 -10.927,0 l -14.866,14.866 c -4.375,4.375 -10.192,6.785 -16.379,6.785 h -5.53 c -4.267,0 -7.726,3.459 -7.726,7.726 0,4.267 3.459,7.726 7.726,7.726 h 5.53 c 10.316,0.001 20.014,-4.016 27.307,-11.31 z"
         fill="#dd5790"
         id="path27427" />
      <path
         d="m 248.967,163.567 c -15.741,0 -28.547,-12.806 -28.547,-28.547 0,-4.268 3.459,-7.726 7.726,-7.726 4.267,0 7.726,3.459 7.726,7.726 0,7.22 5.874,13.095 13.094,13.095 7.22,0 13.094,-5.874 13.094,-13.095 0,-4.268 3.459,-7.726 7.726,-7.726 4.267,0 7.726,3.459 7.726,7.726 0.002,15.742 -12.804,28.547 -28.545,28.547 z"
         fill="#93d8e4"
         id="path27429" />
      <path
         d="m 248.967,137.634 c -15.741,0 -28.547,-12.806 -28.547,-28.547 0,-4.268 3.459,-7.726 7.726,-7.726 4.267,0 7.726,3.459 7.726,7.726 0,7.22 5.874,13.095 13.094,13.095 7.22,0 13.094,-5.874 13.094,-13.095 0,-4.268 3.459,-7.726 7.726,-7.726 4.267,0 7.726,3.459 7.726,7.726 0.002,15.741 -12.804,28.547 -28.545,28.547 z"
         fill="#93d8e4"
         id="path27431" />
      <g
         fill="#f6e266"
         id="g27437">
        <path
           d="m 351.815,119.183 h -5.364 c -11.923,0 -23.131,-4.643 -31.561,-13.072 L 302.867,94.088 c -3.017,-3.018 -3.017,-7.909 0,-10.928 3.018,-3.016 7.909,-3.016 10.928,0 l 12.023,12.023 c 5.511,5.512 12.839,8.547 20.634,8.547 h 5.364 c 4.268,0 7.726,3.459 7.726,7.726 -10e-4,4.268 -3.46,7.727 -7.727,7.727 z"
           id="path27433" />
        <path
           d="m 346.376,144.942 c -17.818,0 -34.587,-6.54 -47.739,-18.734 -3.129,-2.901 -3.314,-7.79 -0.412,-10.92 2.9,-3.129 7.789,-3.313 10.92,-0.412 11.384,10.555 26.266,15.683 41.887,14.427 4.258,-0.347 7.978,2.831 8.318,7.085 0.341,4.254 -2.831,7.978 -7.085,8.318 -1.973,0.157 -3.938,0.236 -5.889,0.236 z"
           id="path27435" />
      </g>
    </g>
    <g
       transform="matrix(0.28069047,0,0,0.28069047,57.208084,3.3606567)"
       id="g27643">
      <path
         d="m 86.035,242.019 c -0.004,-0.022 -0.009,-0.043 -0.013,-0.065 -0.049,-0.248 -0.089,-0.501 -0.12,-0.757 -0.006,-0.046 -0.012,-0.092 -0.018,-0.138 -0.025,-0.236 -0.041,-0.476 -0.051,-0.719 -0.003,-0.062 -0.008,-0.123 -0.01,-0.185 -0.007,-0.297 -0.004,-0.598 0.013,-0.906 0,0 -14.944,-47.135 -13.938,-82.3 -13.723,5.844 -28.047,21.043 -21.64,43.338 -2.32,-0.401 -4.596,-0.274 -6.717,0.467 -9.359,3.273 -12.152,17.18 -6.236,31.063 5.916,13.883 18.298,22.484 27.657,19.211 0.785,-0.274 1.521,-0.626 2.211,-1.046 1.035,-0.63 2.104,-1.203 3.248,-1.605 l 15.815,-5.549 c -0.079,-0.264 -0.145,-0.534 -0.201,-0.809 z"
         fill="#7d3d1a"
         id="path27536" />
      <path
         d="m 212.46,200.753 c -2.12,-0.741 -4.396,-0.868 -6.717,-0.467 6.39,-22.238 -7.912,-37.417 -21.639,-43.293 0.992,35.16 -13.94,82.255 -13.94,82.255 0.017,0.308 0.02,0.609 0.013,0.906 -0.002,0.063 -0.007,0.124 -0.01,0.186 -0.01,0.242 -0.026,0.482 -0.051,0.717 -0.005,0.047 -0.012,0.094 -0.018,0.141 -0.031,0.256 -0.071,0.508 -0.119,0.756 -0.004,0.022 -0.009,0.043 -0.013,0.065 -0.056,0.275 -0.123,0.545 -0.2,0.81 l 15.815,5.549 c 1.144,0.401 2.212,0.975 3.248,1.605 0.69,0.42 1.426,0.771 2.211,1.046 9.359,3.273 21.742,-5.328 27.657,-19.211 5.915,-13.883 3.122,-27.792 -6.237,-31.065 z"
         fill="#7d3d1a"
         id="path27538" />
      <path
         d="m 216.114,208.331 c -6.912,-3.052 -16.877,4.35 -22.258,16.534 -0.961,2.176 -1.711,4.358 -2.254,6.49 0,0 -3.53,12.086 1.783,20.233 8.991,1.267 19.877,-7.02 25.31,-19.771 2.243,-5.264 3.231,-10.53 3.087,-15.221 -0.809,-3.956 -2.717,-6.962 -5.668,-8.265 z"
         fill="#dd7f57"
         id="path27540" />
      <path
         d="m 39.883,208.331 c 6.912,-3.052 16.877,4.35 22.258,16.534 0.961,2.176 1.711,4.358 2.254,6.49 0,0 3.53,12.086 -1.783,20.233 -8.991,1.267 -19.877,-7.02 -25.31,-19.771 -2.243,-5.264 -3.231,-10.53 -3.087,-15.221 0.81,-3.956 2.717,-6.962 5.668,-8.265 z"
         fill="#dd7f57"
         id="path27542" />
      <g
         fill="#7d3d1a"
         id="g27552">
        <path
           d="m 176.216,39.99 c 5.134,-1.971 10.198,-5.594 12.756,-8.913 4.841,-6.281 2.213,-13.402 -4.068,-18.243 -6.281,-4.841 -13.836,-5.569 -18.677,0.712 -1.999,2.594 -3.781,6.719 -4.755,11.006 6.444,4.357 11.234,9.809 14.744,15.438 z"
           id="path27544" />
        <path
           d="M 79.78,39.988 C 83.291,34.357 88.078,28.897 94.525,24.54 93.551,20.257 91.77,16.138 89.773,13.547 84.932,7.266 77.377,7.994 71.096,12.835 c -6.281,4.841 -8.909,11.962 -4.068,18.243 2.558,3.317 7.62,6.939 12.752,8.91 z"
           id="path27546" />
        <path
           d="m 191.768,89.174 c 0,0 -6.048,-16.229 -6.935,-24.659 -1.246,-11.834 -9.044,-36.752 -35.181,-45.873 -0.476,-0.166 -0.645,-0.749 -0.324,-1.138 2.561,-3.11 2.69,-6.823 2.57,-8.62 -0.03,-0.446 -0.55,-0.665 -0.891,-0.376 -3.086,2.618 -6.789,3.252 -8.401,3.406 -0.381,0.036 -0.677,-0.327 -0.565,-0.693 1.364,-4.489 -0.719,-7.343 -1.949,-8.561 -0.309,-0.306 -0.832,-0.154 -0.915,0.273 -0.467,2.377 -2.798,8.337 -14.443,7.782 -11.523,-0.549 -18.341,4.692 -21.647,8.325 -0.792,0.87 -1.718,1.608 -2.772,2.13 -21.33,10.568 -28,32.475 -29.144,43.344 -0.887,8.43 -6.935,24.659 -6.935,24.659 l 5.394,-2.312 c -1.541,16.183 12.33,25.43 12.33,25.43 l 1.541,-4.624 C 98.712,131.466 128.5,130.5 128.5,130.5 c 0,0 29.1,1.921 44.307,-21.917 l 1.236,3.709 c 0,0 13.871,-9.247 12.33,-25.43 z"
           id="path27548" />
        <path
           d="M 182.639,142.945 C 179.662,128.06 175.056,118.087 170.748,111.522 155.125,132.241 128.5,130.5 128.5,130.5 c 0,0 -27.069,0.861 -42.777,-19.682 -4.44,6.548 -9.276,16.698 -12.361,32.126 -6.986,34.929 12.475,96.304 12.475,96.304 -0.998,17.963 39.42,17.963 39.42,5.489 0,-4.657 -3.735,-7.956 -6.848,-9.896 -2.638,-1.645 -4.268,-4.505 -4.469,-7.607 -0.724,-11.18 -2.607,-37.288 -5.648,-59.339 -2.19,-15.876 4.027,-23.043 10.087,-26.278 5.98,-3.193 13.266,-3.193 19.245,0 6.06,3.235 12.277,10.402 10.087,26.278 -3.042,22.052 -4.924,48.16 -5.648,59.339 -0.201,3.103 -1.83,5.963 -4.469,7.607 -3.113,1.94 -6.848,5.239 -6.848,9.896 0,12.475 40.418,12.475 39.42,-5.489 -0.002,0 19.458,-61.375 12.473,-96.303 z"
           id="path27550" />
      </g>
      <path
         d="m 137.593,234.841 c 2.638,-1.645 4.268,-4.505 4.469,-7.607 0.724,-11.18 2.607,-37.288 5.649,-59.339 2.19,-15.876 -4.027,-23.043 -10.087,-26.278 -5.98,-3.193 -13.266,-3.193 -19.245,0 -6.06,3.235 -12.277,10.402 -10.087,26.278 3.042,22.052 4.924,48.16 5.649,59.339 0.201,3.103 1.83,5.963 4.469,7.607 1.562,0.974 3.281,2.291 4.606,3.949 1.634,0.291 3.296,0.459 4.987,0.459 1.691,0 3.352,-0.167 4.987,-0.459 1.322,-1.659 3.04,-2.975 4.603,-3.949 z"
         fill="#dd7f57"
         id="path27554" />
      <path
         d="m 175.385,38.692 c 2.13,-1.276 3.999,-2.837 5.134,-4.31 3.264,-4.235 1.492,-9.036 -2.743,-12.3 -4.235,-3.264 -9.329,-3.755 -12.593,0.48 -0.676,0.877 -1.31,2.023 -1.864,3.302 5.051,3.764 9.007,8.211 12.066,12.828 z"
         fill="#dd7f57"
         id="path27556" />
      <path
         d="m 80.616,38.692 c 3.06,-4.619 7.008,-9.071 12.061,-12.837 -0.553,-1.276 -1.186,-2.419 -1.86,-3.293 -3.264,-4.235 -8.358,-3.744 -12.593,-0.48 -4.235,3.264 -6.007,8.065 -2.743,12.3 1.135,1.473 3.004,3.034 5.135,4.31 z"
         fill="#dd7f57"
         id="path27558" />
      <path
         d="m 128.203,65.557 h -0.406 c -10.459,0.596 -22.329,24.001 -22.329,38.486 0,13.881 20.338,13.809 22.532,13.76 2.194,0.048 22.532,0.121 22.532,-13.76 0,-14.485 -11.87,-37.89 -22.329,-38.486 z"
         fill="#dd7f57"
         id="path27560" />
      <path
         d="m 133.777,84.567 c 0,2.815 -2.962,6.797 -5.777,6.797 -2.815,0 -5.777,-3.981 -5.777,-6.797 0,-2.816 2.962,-3.032 5.777,-3.032 2.815,0 5.777,0.217 5.777,3.032 z"
         fill="#52565b"
         id="path27562" />
      <path
         d="m 196.432,206.323 c -0.806,0 -1.597,-0.389 -2.079,-1.109 -0.769,-1.147 -0.461,-2.7 0.686,-3.468 5.48,-3.67 10.378,-3.947 10.584,-3.957 1.361,-0.065 2.552,0.997 2.618,2.376 0.066,1.375 -0.989,2.543 -2.362,2.618 -0.094,0.006 -3.827,0.284 -8.057,3.117 -0.428,0.286 -0.912,0.423 -1.39,0.423 z"
         id="path27564" />
      <path
         d="m 191.604,233.855 c -0.205,0 -0.412,-0.025 -0.62,-0.078 -1.338,-0.341 -2.146,-1.702 -1.805,-3.04 0.59,-2.311 1.394,-4.626 2.39,-6.882 6.029,-13.652 17.253,-21.478 25.555,-17.811 3.58,1.581 6.104,5.15 7.108,10.051 0.277,1.353 -0.595,2.674 -1.947,2.951 -1.345,0.273 -2.675,-0.594 -2.951,-1.947 -0.474,-2.314 -1.593,-5.316 -4.229,-6.48 -5.544,-2.451 -14.228,4.537 -18.961,15.256 -0.885,2.003 -1.598,4.055 -2.118,6.098 -0.29,1.13 -1.306,1.882 -2.422,1.882 z"
         id="path27566" />
      <path
         d="m 59.567,206.323 c -0.478,0 -0.961,-0.137 -1.389,-0.423 -4.27,-2.859 -8.006,-3.115 -8.043,-3.117 -1.379,-0.067 -2.443,-1.239 -2.376,-2.618 0.067,-1.379 1.235,-2.439 2.618,-2.376 0.206,0.01 5.104,0.287 10.583,3.957 1.147,0.768 1.455,2.321 0.686,3.468 -0.481,0.72 -1.272,1.109 -2.079,1.109 z"
         id="path27568" />
      <path
         d="m 64.396,233.856 c -1.116,0 -2.132,-0.752 -2.42,-1.883 -0.521,-2.042 -1.233,-4.094 -2.119,-6.098 -4.733,-10.719 -13.418,-17.709 -18.961,-15.257 -2.637,1.165 -3.755,4.167 -4.229,6.48 -0.277,1.353 -1.596,2.227 -2.951,1.948 -1.353,-0.277 -2.225,-1.598 -1.948,-2.951 1.003,-4.9 3.528,-8.47 7.107,-10.051 8.303,-3.663 19.526,4.159 25.555,17.811 0.997,2.257 1.801,4.573 2.39,6.884 0.341,1.338 -0.467,2.699 -1.805,3.04 -0.207,0.052 -0.415,0.077 -0.619,0.077 z"
         id="path27570" />
      <path
         d="m 195.292,254.236 c -1.734,0 -3.438,-0.275 -5.078,-0.849 -0.932,-0.326 -1.835,-0.752 -2.685,-1.269 -1.095,-0.667 -1.951,-1.092 -2.777,-1.382 l -15.814,-5.549 c -1.253,-0.439 -1.943,-1.782 -1.572,-3.057 0.059,-0.202 0.109,-0.407 0.152,-0.616 0.045,-0.232 0.075,-0.424 0.1,-0.62 l 2.496,0.192 -2.482,-0.295 c 0.02,-0.183 0.03,-0.367 0.038,-0.552 0.001,-0.017 0.006,-0.108 0.007,-0.125 0.007,-0.25 0.006,-0.485 -0.008,-0.725 -0.018,-0.304 0.021,-0.608 0.113,-0.898 0.147,-0.467 14.792,-47.106 13.824,-81.429 -0.024,-0.852 0.388,-1.658 1.093,-2.138 0.706,-0.479 1.606,-0.567 2.39,-0.231 15.289,6.544 28.115,22.17 23.894,42.881 1.49,0.064 2.929,0.337 4.304,0.817 3.988,1.395 7.102,4.408 9.003,8.714 3.076,6.967 2.594,16.571 -1.292,25.689 -5.526,12.968 -16.079,21.442 -25.706,21.442 z m -22.676,-13.056 13.792,4.839 c 1.515,0.531 2.848,1.298 3.719,1.828 0.55,0.334 1.135,0.61 1.737,0.821 7.982,2.794 19.223,-5.372 24.532,-17.832 3.353,-7.869 3.845,-15.985 1.317,-21.71 -1.328,-3.008 -3.43,-5.087 -6.079,-6.014 -1.662,-0.581 -3.502,-0.703 -5.466,-0.363 -0.853,0.146 -1.713,-0.154 -2.287,-0.794 -0.574,-0.64 -0.779,-1.532 -0.541,-2.359 3.515,-12.231 1.021,-29.201 -16.691,-38.618 -0.083,17.465 -3.621,37.062 -6.703,50.873 -3.215,14.4 -6.572,25.481 -7.269,27.734 0.004,0.211 0.003,0.42 -0.002,0.628 l -0.009,0.204 c -0.011,0.269 -0.026,0.519 -0.05,0.763 z"
         id="path27572" />
      <path
         d="m 60.708,254.236 c -9.628,0 -20.179,-8.473 -25.703,-21.44 -3.885,-9.119 -4.368,-18.722 -1.292,-25.689 1.901,-4.306 5.014,-7.319 9.002,-8.714 1.375,-0.48 2.812,-0.753 4.302,-0.817 -4.245,-20.778 8.592,-36.408 23.9,-42.928 0.784,-0.333 1.684,-0.246 2.388,0.235 0.704,0.48 1.115,1.285 1.091,2.137 -0.982,34.328 13.674,81.005 13.823,81.473 0.091,0.289 0.129,0.591 0.113,0.894 -0.013,0.241 -0.015,0.478 -0.009,0.71 0,0.013 0.007,0.113 0.007,0.126 0.008,0.205 0.021,0.391 0.04,0.573 l 0.014,0.11 c 0.022,0.185 0.053,0.377 0.09,0.566 l -2.439,0.547 2.449,-0.5 c 0.042,0.208 0.092,0.411 0.15,0.61 0.372,1.275 -0.319,2.619 -1.572,3.059 l -15.814,5.549 c -0.825,0.29 -1.682,0.716 -2.776,1.381 -0.848,0.516 -1.751,0.943 -2.685,1.27 -1.64,0.573 -3.345,0.848 -5.079,0.848 z M 47.714,202.562 c -1.179,0 -2.299,0.184 -3.348,0.551 -2.649,0.926 -4.751,3.006 -6.079,6.014 -2.528,5.725 -2.035,13.841 1.317,21.71 5.308,12.46 16.543,20.625 24.532,17.832 0.604,-0.211 1.188,-0.487 1.737,-0.821 0.872,-0.53 2.206,-1.296 3.719,-1.828 l 13.792,-4.839 c -0.023,-0.253 -0.039,-0.496 -0.049,-0.74 l -0.011,-0.228 c -0.004,-0.208 -0.005,-0.417 -0.001,-0.628 -0.696,-2.253 -4.057,-13.343 -7.273,-27.755 -3.082,-13.812 -6.618,-33.405 -6.698,-50.867 -12.444,6.836 -21.829,20.754 -16.691,38.633 0.238,0.827 0.033,1.719 -0.542,2.359 -0.575,0.641 -1.435,0.94 -2.287,0.794 -0.725,-0.124 -1.431,-0.187 -2.118,-0.187 z"
         id="path27574" />
      <path
         d="m 130.257,133.045 c -0.902,0 -1.521,-0.027 -1.798,-0.043 -2.293,0.053 -28.204,0.174 -44.142,-19.887 -0.252,0.724 -0.823,1.293 -1.55,1.542 -0.736,0.252 -1.55,0.148 -2.198,-0.285 -0.567,-0.378 -12.855,-8.75 -13.535,-23.679 l -1.817,0.778 c -0.921,0.395 -1.985,0.202 -2.709,-0.488 -0.724,-0.69 -0.967,-1.746 -0.618,-2.683 0.06,-0.159 5.948,-16.031 6.792,-24.048 1.547,-14.699 10.468,-35.388 30.52,-45.323 0.727,-0.36 1.411,-0.889 2.034,-1.573 3.344,-3.674 10.858,-9.751 23.614,-9.139 9.605,0.45 11.5,-3.88 11.871,-5.766 0.217,-1.101 1.016,-1.989 2.085,-2.318 1.076,-0.33 2.24,-0.045 3.041,0.747 1.124,1.113 3.332,3.853 3.127,8.035 1.369,-0.402 2.985,-1.101 4.415,-2.314 0.882,-0.746 2.09,-0.933 3.152,-0.484 1.062,0.449 1.771,1.444 1.85,2.597 0.125,1.874 0.008,5.171 -1.766,8.368 22.843,9.049 32.976,30.856 34.693,47.17 0.845,8.022 6.732,23.889 6.792,24.048 0.35,0.938 0.106,1.993 -0.618,2.683 -0.725,0.69 -1.788,0.883 -2.709,0.488 l -1.817,-0.779 c -0.679,14.929 -12.968,23.301 -13.535,23.679 -0.648,0.433 -1.46,0.538 -2.198,0.285 -0.443,-0.152 -0.829,-0.424 -1.12,-0.777 -13.952,17.733 -35.324,19.166 -41.856,19.166 z M 128.499,128 c 0.056,0 0.111,0.002 0.166,0.005 0.275,0.014 27.833,1.495 42.036,-20.767 0.519,-0.813 1.466,-1.255 2.414,-1.136 0.957,0.118 1.76,0.776 2.065,1.69 l 0.094,0.283 c 3.625,-3.365 9.601,-10.587 8.611,-20.976 -0.084,-0.879 0.302,-1.736 1.015,-2.257 0.713,-0.521 1.647,-0.626 2.458,-0.278 l 0.158,0.068 c -1.891,-5.593 -4.58,-14.257 -5.17,-19.856 -0.358,-3.409 -4.349,-33.595 -33.519,-43.774 -0.999,-0.35 -1.763,-1.163 -2.046,-2.177 -0.283,-1.01 -0.053,-2.098 0.614,-2.91 0.844,-1.023 1.351,-2.141 1.647,-3.205 -2.441,1.155 -4.767,1.556 -6.201,1.692 -1.019,0.096 -1.998,-0.317 -2.641,-1.102 -0.643,-0.787 -0.85,-1.836 -0.554,-2.807 0.355,-1.17 0.404,-2.178 0.266,-3.038 -2.029,2.98 -6.305,6.186 -15.301,5.756 -10.177,-0.484 -16.317,3.817 -19.68,7.511 -1.044,1.146 -2.226,2.05 -3.512,2.687 -18.23,9.035 -26.351,27.931 -27.765,41.368 -0.59,5.599 -3.279,14.262 -5.17,19.855 l 0.157,-0.067 c 0.812,-0.349 1.746,-0.242 2.458,0.278 0.713,0.521 1.099,1.378 1.015,2.256 -0.989,10.388 4.985,17.609 8.612,20.976 l 0.399,-1.197 c 0.305,-0.914 1.107,-1.572 2.063,-1.69 0.962,-0.117 1.896,0.323 2.415,1.134 14.242,22.277 42.538,21.686 42.818,21.679 C 128.447,128 128.473,128 128.499,128 Z"
         id="path27576" />
      <path
         d="m 147.995,255.999 c -5.286,0 -10.428,-1.008 -14.167,-3.075 -3.601,-1.991 -5.584,-4.898 -5.584,-8.187 0,-4.589 2.775,-8.745 8.026,-12.018 1.912,-1.192 3.145,-3.303 3.296,-5.647 0.677,-10.446 2.582,-37.156 5.667,-59.52 1.623,-11.767 -1.334,-19.751 -8.788,-23.731 -5.209,-2.781 -11.681,-2.781 -16.891,0 -7.454,3.979 -10.411,11.964 -8.788,23.731 3.085,22.363 4.991,49.073 5.667,59.519 0.152,2.345 1.384,4.456 3.296,5.647 5.251,3.274 8.026,7.43 8.026,12.018 0,3.288 -1.983,6.195 -5.584,8.187 -8.278,4.578 -23.439,3.962 -31.807,-1.292 -4.729,-2.969 -7.157,-7.126 -7.044,-12.047 -1.852,-5.938 -19.217,-63.104 -12.412,-97.13 2.682,-13.409 6.969,-24.524 12.744,-33.039 0.451,-0.665 1.194,-1.073 1.998,-1.096 0.816,-0.028 1.569,0.342 2.057,0.98 14.712,19.241 40.447,18.703 40.715,18.701 0.079,-0.001 0.161,0 0.24,0.004 0.252,0.014 25.494,1.368 40.089,-17.989 0.49,-0.649 1.266,-1.029 2.078,-0.993 0.812,0.026 1.562,0.447 2.008,1.127 5.528,8.424 9.65,19.292 12.252,32.304 2.963,14.813 1.745,35.752 -3.619,62.237 -3.607,17.814 -7.982,32.27 -8.792,34.89 0.114,4.922 -2.313,9.081 -7.044,12.05 -4.588,2.882 -11.22,4.369 -17.639,4.369 z M 128,136.702 c 3.709,0 7.419,0.903 10.801,2.708 6.527,3.485 13.801,11.315 11.386,28.825 -3.062,22.201 -4.958,48.768 -5.63,59.16 -0.257,3.949 -2.365,7.525 -5.642,9.567 -2.587,1.613 -5.671,4.271 -5.671,7.775 0,1.427 1.011,2.709 3.004,3.811 5.997,3.316 19.257,3.541 26.729,-1.151 3.293,-2.068 4.872,-4.763 4.691,-8.01 -0.017,-0.302 0.021,-0.605 0.113,-0.894 0.192,-0.608 19.184,-61.167 12.406,-95.058 -2.18,-10.897 -5.446,-20.164 -9.727,-27.605 -15.972,18.157 -39.833,17.291 -42.002,17.172 -2.187,0.043 -26.42,0.154 -42.473,-17.937 -4.499,7.559 -7.916,17.083 -10.172,28.369 -6.781,33.905 12.213,94.45 12.406,95.058 0.091,0.289 0.13,0.592 0.113,0.894 -0.18,3.248 1.398,5.942 4.691,8.01 7.474,4.691 20.733,4.466 26.729,1.151 1.993,-1.102 3.003,-2.384 3.003,-3.811 0,-3.503 -3.084,-6.162 -5.671,-7.775 -3.276,-2.042 -5.385,-5.619 -5.641,-9.567 -0.673,-10.392 -2.568,-36.958 -5.63,-59.159 -2.415,-17.511 4.859,-25.341 11.387,-28.826 3.381,-1.804 7.091,-2.707 10.8,-2.707 z"
         id="path27578" />
      <path
         d="m 96.166,73.624 c -1.377,0 -2.496,-1.114 -2.5,-2.492 -0.007,-2.109 0.808,-4.094 2.294,-5.589 1.486,-1.496 3.466,-2.324 5.575,-2.33 h 0.026 c 4.34,0 7.879,3.524 7.893,7.868 0.004,1.381 -1.111,2.504 -2.492,2.508 -0.003,0 -0.006,0 -0.008,0 -1.377,0 -2.496,-1.114 -2.5,-2.492 -0.005,-1.596 -1.317,-2.924 -2.903,-2.885 -0.773,0.002 -1.499,0.306 -2.044,0.854 -0.545,0.548 -0.843,1.276 -0.841,2.049 0.004,1.381 -1.111,2.504 -2.492,2.508 -0.003,10e-4 -0.006,10e-4 -0.008,10e-4 z"
         id="path27580" />
      <path
         d="m 149.046,73.624 c -1.377,0 -2.495,-1.114 -2.5,-2.492 -0.007,-2.109 0.808,-4.094 2.294,-5.59 1.486,-1.496 3.467,-2.323 5.575,-2.33 2.116,-0.036 4.094,0.808 5.589,2.294 1.495,1.486 2.323,3.466 2.33,5.574 0.005,1.381 -1.111,2.504 -2.492,2.508 -0.002,0 -0.005,0 -0.008,0 -1.377,0 -2.495,-1.114 -2.5,-2.492 -0.003,-0.773 -0.306,-1.499 -0.854,-2.044 -0.546,-0.542 -1.27,-0.841 -2.039,-0.841 -0.003,0 -0.006,0 -0.01,0 -0.773,0.002 -1.499,0.306 -2.044,0.854 -0.545,0.548 -0.844,1.276 -0.841,2.049 0.005,1.381 -1.111,2.504 -2.492,2.508 -0.002,0.002 -0.005,0.002 -0.008,0.002 z"
         id="path27582" />
      <path
         d="m 176.217,42.491 c -0.843,0 -1.654,-0.428 -2.122,-1.178 -3.727,-5.976 -8.444,-10.918 -14.023,-14.689 -0.854,-0.577 -1.266,-1.62 -1.037,-2.625 1.051,-4.629 3,-9.107 5.212,-11.978 2.773,-3.599 6.498,-5.501 10.771,-5.501 h 0.009 c 3.783,0.002 7.727,1.501 11.403,4.335 3.676,2.833 6.13,6.265 7.096,9.923 1.092,4.135 0.202,8.225 -2.573,11.826 -2.93,3.801 -8.362,7.617 -13.84,9.721 -0.294,0.112 -0.597,0.166 -0.896,0.166 z M 164.319,23.496 c 4.976,3.616 9.286,8.102 12.849,13.371 3.942,-1.849 7.805,-4.696 9.823,-7.316 1.818,-2.359 2.391,-4.882 1.7,-7.497 -0.672,-2.545 -2.56,-5.116 -5.314,-7.239 -2.754,-2.123 -5.722,-3.293 -8.354,-3.295 -0.002,0 -0.004,0 -0.006,0 -2.702,0 -4.994,1.195 -6.811,3.553 -1.52,1.973 -2.953,5.101 -3.887,8.423 z"
         id="path27584" />
      <path
         d="m 79.78,42.489 c -0.299,0 -0.603,-0.054 -0.896,-0.167 -5.476,-2.103 -10.907,-5.918 -13.836,-9.719 -2.775,-3.601 -3.665,-7.69 -2.573,-11.825 0.966,-3.658 3.42,-7.09 7.096,-9.923 3.676,-2.833 7.62,-4.333 11.403,-4.335 h 0.009 c 4.273,0 7.998,1.902 10.771,5.5 2.21,2.868 4.157,7.34 5.209,11.965 0.229,1.006 -0.183,2.049 -1.038,2.626 -5.572,3.765 -10.29,8.71 -14.023,14.7 -0.468,0.75 -1.28,1.178 -2.122,1.178 z M 80.982,11.52 c -0.002,0 -0.004,0 -0.006,0 -2.632,0.001 -5.599,1.172 -8.354,3.295 -2.755,2.123 -4.642,4.694 -5.314,7.239 -0.69,2.616 -0.119,5.138 1.699,7.497 2.019,2.62 5.879,5.466 9.82,7.314 3.567,-5.279 7.878,-9.768 12.85,-13.381 -0.934,-3.317 -2.365,-6.44 -3.884,-8.411 -1.816,-2.358 -4.108,-3.553 -6.811,-3.553 z"
         id="path27586" />
      <path
         d="m 120.282,108.465 c -2.226,0 -4.422,-0.745 -6.248,-2.197 -1.081,-0.859 -1.26,-2.432 -0.4,-3.513 0.859,-1.081 2.433,-1.26 3.513,-0.4 1.561,1.241 3.577,1.46 5.39,0.584 1.856,-0.895 2.964,-2.652 2.964,-4.7 v -6.5 c 0,-1.381 1.119,-2.5 2.5,-2.5 1.381,0 2.5,1.119 2.5,2.5 v 6.5 c 0,3.954 -2.219,7.48 -5.792,9.204 -1.42,0.685 -2.931,1.022 -4.427,1.022 z"
         id="path27588" />
      <path
         d="m 135.719,108.465 c -1.498,0 -3.008,-0.337 -4.428,-1.022 -3.572,-1.723 -5.791,-5.25 -5.791,-9.204 v -6.5 c 0,-1.381 1.119,-2.5 2.5,-2.5 1.381,0 2.5,1.119 2.5,2.5 v 6.5 c 0,2.048 1.107,3.805 2.964,4.7 1.813,0.875 3.829,0.656 5.391,-0.584 1.082,-0.86 2.653,-0.68 3.513,0.4 0.859,1.081 0.68,2.653 -0.401,3.513 -1.826,1.452 -4.023,2.197 -6.248,2.197 z"
         id="path27590" />
      <path
         d="m 128,241.748 c -1.75,0 -3.575,-0.167 -5.426,-0.498 -0.597,-0.106 -1.136,-0.426 -1.514,-0.9 -0.961,-1.203 -2.298,-2.343 -3.976,-3.388 -3.276,-2.042 -5.385,-5.619 -5.641,-9.567 -0.673,-10.392 -2.568,-36.958 -5.63,-59.159 -2.415,-17.511 4.859,-25.341 11.387,-28.826 6.761,-3.61 14.836,-3.61 21.601,0 6.527,3.485 13.801,11.315 11.386,28.825 -3.062,22.201 -4.958,48.768 -5.63,59.16 -0.257,3.949 -2.365,7.525 -5.642,9.567 -1.677,1.045 -3.015,2.186 -3.976,3.388 -0.379,0.474 -0.917,0.794 -1.514,0.9 -1.849,0.331 -3.675,0.498 -5.425,0.498 z m 4.986,-2.958 h 0.01 z m -8.666,-2.32 c 2.51,0.37 4.82,0.372 7.359,0 1.228,-1.356 2.768,-2.614 4.591,-3.751 1.912,-1.192 3.145,-3.303 3.296,-5.647 0.677,-10.446 2.582,-37.156 5.667,-59.52 1.623,-11.767 -1.334,-19.751 -8.788,-23.731 -5.209,-2.781 -11.682,-2.781 -16.891,0 -7.454,3.979 -10.411,11.964 -8.788,23.731 3.085,22.363 4.991,49.073 5.667,59.519 0.152,2.344 1.384,4.456 3.296,5.647 1.824,1.137 3.364,2.396 4.591,3.752 z"
         id="path27592" />
      <path
         d="m 175.387,41.192 c -0.812,0 -1.606,-0.396 -2.086,-1.12 -3.171,-4.787 -7.032,-8.893 -11.476,-12.204 -0.93,-0.692 -1.261,-1.934 -0.8,-2.998 0.661,-1.528 1.394,-2.819 2.177,-3.835 3.86,-5.006 10.328,-5.382 16.101,-0.934 5.771,4.448 7.055,10.8 3.197,15.806 -1.327,1.722 -3.397,3.472 -5.831,4.929 -0.401,0.241 -0.845,0.356 -1.282,0.356 z m -8.921,-16.048 c 3.581,2.9 6.786,6.284 9.565,10.098 1.039,-0.791 1.921,-1.625 2.508,-2.386 3.153,-4.091 -0.955,-7.766 -2.289,-8.794 -1.333,-1.028 -5.932,-4.065 -9.088,0.026 -0.23,0.301 -0.465,0.656 -0.696,1.056 z"
         id="path27594" />
      <path
         d="m 80.614,41.193 c -0.438,0 -0.881,-0.115 -1.283,-0.356 -2.434,-1.458 -4.504,-3.208 -5.831,-4.929 -3.858,-5.006 -2.574,-11.358 3.197,-15.806 5.772,-4.448 12.241,-4.072 16.1,0.934 0.783,1.016 1.514,2.303 2.174,3.826 0.461,1.064 0.13,2.305 -0.8,2.998 -4.43,3.302 -8.29,7.411 -11.471,12.213 -0.48,0.724 -1.274,1.12 -2.086,1.12 z m 4.27,-19.183 c -2.218,0 -4.306,1.414 -5.134,2.052 -1.334,1.028 -5.442,4.702 -2.289,8.794 0.587,0.762 1.469,1.595 2.508,2.386 2.785,-3.824 5.988,-7.21 9.56,-10.106 -0.23,-0.397 -0.462,-0.75 -0.692,-1.048 -1.196,-1.551 -2.599,-2.078 -3.953,-2.078 z"
         id="path27596" />
      <path
         d="m 127.364,120.31 c -3.469,0 -14.328,-0.493 -20.33,-6.366 -2.698,-2.64 -4.066,-5.971 -4.066,-9.901 0,-7.395 2.895,-17.228 7.554,-25.66 5.201,-9.413 11.446,-14.998 17.133,-15.322 0.047,-0.002 0.095,-0.004 0.142,-0.004 h 0.406 c 0.047,0 0.095,10e-4 0.142,0.004 5.687,0.324 11.931,5.909 17.132,15.322 4.66,8.433 7.555,18.265 7.555,25.66 0,3.93 -1.368,7.261 -4.065,9.901 -6.44,6.3 -18.47,6.414 -20.967,6.36 -0.169,0.004 -0.383,0.006 -0.636,0.006 z m 0.511,-52.253 c -8.209,0.572 -19.907,21.691 -19.907,35.986 0,2.57 0.838,4.64 2.562,6.327 4.194,4.104 12.933,5.032 17.415,4.934 0.037,-0.001 0.072,-0.001 0.109,0 4.49,0.099 13.221,-0.831 17.415,-4.934 1.725,-1.687 2.562,-3.757 2.562,-6.327 0,-14.295 -11.698,-35.414 -19.907,-35.986 z"
         id="path27598" />
      <path
         d="m 128,93.864 c -4.38,0 -8.277,-5.199 -8.277,-9.297 0,-5.532 6.23,-5.532 8.277,-5.532 2.047,0 8.277,0 8.277,5.532 0,4.098 -3.897,9.297 -8.277,9.297 z m -3.275,-9.436 c 0.003,0.018 -0.002,0.067 -0.002,0.139 0,1.729 2.149,4.297 3.277,4.297 1.129,0 3.277,-2.568 3.277,-4.297 0,-0.134 -0.018,-0.189 -0.018,-0.189 -0.128,-0.079 -0.799,-0.343 -3.26,-0.343 -2.317,0 -3.047,0.234 -3.274,0.393 z"
         id="path27600" />
    </g>
    <text
       transform="matrix(3.3284573,0,0,3.3284573,-285.8749,-31.933238)"
       style="font-style:normal;font-variant:normal;font-weight:bold;font-stretch:normal;font-size:10.5833px;line-height:1.25;font-family:'Arial Rounded MT Bold';-inkscape-font-specification:'Arial Rounded MT Bold, Bold';white-space:pre;shape-inside:url(#rect27647);fill:#000000;fill-opacity:1;stroke:none;"
       id="text27645"
       xml:space="preserve"><tspan
         x="124.01367"
         y="24.504025"><tspan
           style="font-style:normal;font-variant:normal;font-weight:bold;font-stretch:normal;font-family:'Arial Rounded MT Bold';-inkscape-font-specification:'Arial Rounded MT Bold,  Bold'">E</tspan></tspan></text>
  </g>
</svg>
