<?xml version="1.0" encoding="UTF-8" standalone="no"?>
<svg
   xmlns:dc="http://purl.org/dc/elements/1.1/"
   xmlns:cc="http://creativecommons.org/ns#"
   xmlns:rdf="http://www.w3.org/1999/02/22-rdf-syntax-ns#"
   xmlns:svg="http://www.w3.org/2000/svg"
   xmlns="http://www.w3.org/2000/svg"
   width="600"
   height="300"
   viewBox="0 0 158.75 79.375002"
   version="1.1"
   id="svg8">
  <defs
     id="defs2">
    <rect
       x="33.261906"
       y="1.889881"
       width="32.127975"
       height="25.607887"
       id="rect952" />
    <rect
       x="23.718006"
       y="3.0238094"
       width="21.45015"
       height="20.127232"
       id="rect946" />
  </defs>
  <metadata
     id="metadata5">
    <rdf:RDF>
      <cc:Work
         rdf:about="">
        <dc:format>image/svg+xml</dc:format>
        <dc:type
           rdf:resource="http://purl.org/dc/dcmitype/StillImage" />
        <dc:title></dc:title>
      </cc:Work>
    </rdf:RDF>
  </metadata>
  <g
     id="layer1">
    <g
       transform="matrix(0.13317755,0,0,0.13317755,4.8733035,6.2555063)"
       id="g973">
      <g
         id="g949">
        <path
           d="m 458.695,245.177 c -1.716,0 -3.442,-0.577 -4.864,-1.76 -3.232,-2.688 -3.672,-7.488 -0.984,-10.719 l 35.243,-42.365 c 5.602,-6.733 8.686,-15.265 8.686,-24.024 0,-20.712 -16.851,-37.563 -37.563,-37.563 h -82.174 c -35.495,0 -64.373,-28.878 -64.373,-64.373 C 312.666,28.878 341.544,0 377.039,0 h 127.349 c 4.204,0 7.612,3.408 7.612,7.611 0,4.203 -3.408,7.611 -7.612,7.611 H 377.039 c -27.102,0 -49.15,22.049 -49.15,49.15 0,27.101 22.048,49.15 49.15,49.15 h 82.174 c 29.107,0 52.786,23.68 52.786,52.786 0,12.308 -4.335,24.298 -12.207,33.759 l -35.243,42.365 c -1.504,1.811 -3.671,2.745 -5.854,2.745 z"
           fill="#a79ba7"
           id="path947" />
      </g>
      <g
         id="g971">
        <g
           fill="#b5adb6"
           id="g957">
          <path
             d="m 443.146,275.422 -21.524,-21.518 25.592,-25.581 c 5.943,-5.94 15.575,-5.94 21.517,0.001 5.945,5.943 5.945,15.582 -10e-4,21.525 z"
             id="path951" />
          <path
             d="m 144.58,360.47 -21.518,21.524 -25.581,-25.592 c -5.94,-5.943 -5.94,-15.575 0.001,-21.517 5.943,-5.945 15.582,-5.945 21.525,0.001 z"
             id="path953" />
          <path
             d="m 360.85,418.293 h -83.66 v -29.219 c 0,-4.453 3.61,-8.062 8.062,-8.062 h 67.536 c 4.453,0 8.062,3.61 8.062,8.062 z"
             id="path955" />
        </g>
        <path
           d="M 504.041,426.385 C 487.609,369.989 471.178,313.592 454.746,257.196 451.54,246.194 441.08,238.945 429.647,239.779 c -55.182,4.028 -128.3,17.073 -205.461,54.493 -30.006,14.552 -56.046,30.57 -78.297,46.356 -43.914,33.154 -80.637,74.875 -107.946,122.634 l -7.703,13.472 -10.196,15.223 429.354,-15.223 5.866,-12.549 c 6.981,-14.937 21.982,-24.482 38.475,-24.482 6.965,0 12.054,-6.578 10.302,-13.318 z m -85.382,-20.544 -150.457,9.89 C 247.111,417.117 229.24,400.39 229.24,379.26 v -10e-4 c 0,-13.282 7.196,-25.527 18.82,-31.962 17.059,-9.444 36.391,-18.925 57.965,-27.668 32.173,-13.037 62.17,-21.531 88.308,-27.145 8.564,-1.839 17.041,3.434 19.111,11.943 l 19.828,81.518 c 2.366,9.73 -4.619,19.239 -14.613,19.896 z"
           fill="#fee97d"
           id="path959" />
        <path
           d="m 504.041,426.385 c -16.432,-56.397 -32.863,-112.793 -49.295,-169.189 -3.197,-10.973 -13.615,-18.254 -25.013,-17.423 -1.981,0.144 -3.992,0.304 -6.019,0.472 0.212,0.566 0.415,1.139 0.586,1.728 16.432,56.396 32.863,112.793 49.295,169.189 1.75,6.731 -3.324,13.301 -10.277,13.318 -16.163,0.039 -31.076,8.596 -37.92,23.239 -3.933,8.415 -12.382,13.792 -21.671,13.792 H 38.973 c -0.34,0.586 -0.694,1.163 -1.031,1.751 l -7.703,13.472 -10.196,15.223 429.354,-15.223 6.447,-13.792 c 7.097,-14.128 21.757,-23.2 37.92,-23.239 6.952,-0.017 12.026,-6.587 10.277,-13.318 z"
           fill="#fedf30"
           id="path961" />
        <path
           d="M 452.077,512 H 0 c 0,-19.477 15.789,-35.266 35.266,-35.266 h 416.811 c 9.739,0 17.633,7.895 17.633,17.633 0,9.738 -7.894,17.633 -17.633,17.633 z"
           fill="#b5adb6"
           id="path963" />
        <path
           d="m 452.077,476.734 h -30.446 c 9.739,0 17.633,7.894 17.633,17.633 0,9.739 -7.894,17.633 -17.633,17.633 h 30.446 c 9.739,0 17.633,-7.894 17.633,-17.633 0,-9.739 -7.894,-17.633 -17.633,-17.633 z"
           fill="#a79ba7"
           id="path965" />
        <g
           id="g969">
          <path
             d="m 260.871,415.478 c -0.002,0 -0.003,-0.001 -0.004,-0.001 -17.738,-2.392 -31.627,-17.59 -31.627,-36.215 v -10e-4 c 0,-13.283 7.196,-25.527 18.82,-31.962 17.059,-9.445 36.391,-18.925 57.965,-27.668 32.173,-13.037 62.17,-21.531 88.308,-27.145 4.141,-0.89 8.255,-0.104 11.641,1.895 0.004,-10e-4 0.009,-0.002 0.013,-0.003 -12.725,-16.688 -23.272,-18.56 -28.116,-18.677 -2.456,-0.059 -6.297,0.498 -13.984,1.562 -20.917,2.896 -31.695,4.203 -88.308,27.145 -21.574,8.743 -40.905,18.224 -57.965,27.668 -11.624,6.435 -18.82,18.679 -18.82,31.962 1.105,6.483 3.797,16.45 11.017,26.145 17.485,23.481 46.443,25.109 51.06,25.295 z"
             fill="#fedf30"
             id="path967" />
        </g>
      </g>
    </g>
    <g
       transform="matrix(0.16064518,0,0,0.16064518,76.103186,-4.9465773)"
       id="flat">
      <path
         d="m 336,488 h 144 l -3.554,-24.879 a 60,60 0 0 0 -32.564,-45.18 L 296,344 H 216 L 68.118,417.941 a 60,60 0 0 0 -32.564,45.18 L 32,488 h 144"
         fill="#48351b"
         id="path4680" />
      <path
         d="m 424,488 v -32 a 8,8 0 0 1 16,0 v 32 z"
         fill="#332613"
         id="path4682" />
      <path
         d="m 216,344 -64,32 24,48 40,-32 z"
         fill="#5f4623"
         id="path4684" />
      <path
         d="m 208,488 h -32 l -24,-72 56,-24 z"
         fill="#6e5129"
         id="path4686" />
      <path
         d="m 296,344 64,32 -24,48 -40,-32 z"
         fill="#5f4623"
         id="path4688" />
      <path
         d="m 304,488 h 32 l 24,-72 -56,-24 z"
         fill="#6e5129"
         id="path4690" />
      <path
         d="m 296,312 v 19.64 c -0.08,0.06 -0.17,0.11 -0.25,0.17 A 70.9,70.9 0 0 1 216,331.64 V 312 Z"
         fill="#e6af89"
         id="path4692" />
      <path
         d="m 216,312 v 32 l -8,24 48,48 48,-48 -8,-24 v -32 z"
         fill="#fdc9a6"
         id="path4694" />
      <path
         d="m 296,312 v 19.64 c -0.08,0.06 -0.17,0.11 -0.25,0.17 A 70.9,70.9 0 0 1 216,331.64 V 312 Z"
         fill="#e6af89"
         id="path4696" />
      <path
         d="m 304,368 -48,48 -48,-48 v 120 h 96 z"
         fill="#026ca2"
         id="path4698" />
      <path
         d="m 72,488 v -32 a 8,8 0 0 1 16,0 v 32 z"
         fill="#332613"
         id="path4700" />
      <path
         d="m 152,200 v -72.022 a 57.888,57.888 0 0 1 16.955,-40.933 l 14.09,-14.09 A 57.888,57.888 0 0 1 223.978,56 h 44.245 A 57.889,57.889 0 0 1 320,88 44.846,44.846 0 0 1 357.313,107.969 16,16 0 0 1 360,116.844 V 200 Z"
         fill="#55300b"
         id="path4702" />
      <path
         d="M 256,328 A 70.9,70.9 0 0 1 190.173,283.433 198.156,198.156 0 0 1 176,209.837 V 152 l 24,-40.73 H 312 L 336,152 v 57.837 a 198.156,198.156 0 0 1 -14.173,73.6 A 70.9,70.9 0 0 1 256,328 Z"
         fill="#fdc9a6"
         id="path4704" />
      <g
         fill="#55300b"
         id="g4714">
        <path
           d="m 304,184 h -24 a 8,8 0 0 1 0,-16 h 24 a 8,8 0 0 1 0,16 z"
           id="path4706" />
        <circle
           cx="290"
           cy="202"
           r="10"
           id="circle4708" />
        <path
           d="m 232,184 h -24 a 8,8 0 0 1 0,-16 h 24 a 8,8 0 0 1 0,16 z"
           id="path4710" />
        <circle
           cx="222"
           cy="202"
           r="10"
           id="circle4712" />
      </g>
      <path
         d="m 272,280 h -32 a 8,8 0 0 1 0,-16 h 32 a 8,8 0 0 1 0,16 z"
         fill="#e6af89"
         id="path4716" />
      <path
         d="m 264,248 h -16 a 8,8 0 0 1 -8,-8 v -24 a 8,8 0 0 1 16,0 v 16 h 8 a 8,8 0 0 1 0,16 z"
         fill="#e6af89"
         id="path4718" />
      <path
         d="M 176,176 H 164.944 A 20.944,20.944 0 0 0 144,196.944 v 14.112 a 20.944,20.944 0 0 0 2.211,9.366 A 20.944,20.944 0 0 0 164.944,232 H 184 Z"
         fill="#fdc9a6"
         id="path4720" />
      <path
         d="m 336,176 h 11.056 A 20.944,20.944 0 0 1 368,196.944 v 14.112 a 20.944,20.944 0 0 1 -2.211,9.366 A 20.944,20.944 0 0 1 347.056,232 H 328 Z"
         fill="#fdc9a6"
         id="path4722" />
    </g>
  </g>
</svg>
