<?xml version="1.0" encoding="UTF-8" standalone="no"?>
<svg
   xmlns:dc="http://purl.org/dc/elements/1.1/"
   xmlns:cc="http://creativecommons.org/ns#"
   xmlns:rdf="http://www.w3.org/1999/02/22-rdf-syntax-ns#"
   xmlns:svg="http://www.w3.org/2000/svg"
   xmlns="http://www.w3.org/2000/svg"
   width="600"
   height="300"
   viewBox="0 0 158.75 79.375002"
   version="1.1"
   id="svg8">
  <defs
     id="defs2">
    <rect
       id="rect27647"
       height="49.177593"
       width="46.504898"
       y="14.967094"
       x="124.01306" />
    <rect
       x="33.261906"
       y="1.889881"
       width="32.127975"
       height="25.607887"
       id="rect952" />
    <rect
       x="23.718006"
       y="3.0238094"
       width="21.45015"
       height="20.127232"
       id="rect946" />
  </defs>
  <metadata
     id="metadata5">
    <rdf:RDF>
      <cc:Work
         rdf:about="">
        <dc:format>image/svg+xml</dc:format>
        <dc:type
           rdf:resource="http://purl.org/dc/dcmitype/StillImage" />
        <dc:title></dc:title>
      </cc:Work>
    </rdf:RDF>
  </metadata>
  <g
     id="layer1">
    <text
       transform="matrix(2.9622982,0,0,2.9622982,-240.16342,-20.389402)"
       style="font-style:normal;font-variant:normal;font-weight:bold;font-stretch:normal;font-size:10.5833px;line-height:1.25;font-family:'Arial Rounded MT Bold';-inkscape-font-specification:'Arial Rounded MT Bold, Bold';white-space:pre;shape-inside:url(#rect27647);fill:#000000;fill-opacity:1;stroke:none;"
       id="text27645"
       xml:space="preserve"><tspan
         x="124.01367"
         y="24.504025"><tspan
           style="font-style:normal;font-variant:normal;font-weight:bold;font-stretch:normal;font-family:'Arial Rounded MT Bold';-inkscape-font-specification:'Arial Rounded MT Bold,  Bold'">A</tspan></tspan></text>
    <g
       transform="matrix(0.1232044,0,0,0.1232044,2.4771443,7.4349406)"
       id="Flat">
      <path
         d="m 24,136 v 224 a 8,8 0 0 0 8,8 h 448 a 8,8 0 0 0 8,-8 V 280.632 A 24,24 0 0 0 472.427,258.16 L 424,240 376.389,131.174 A 32,32 0 0 0 347.072,112 H 48 a 24,24 0 0 0 -24,24 z"
         fill="#ffb431"
         id="path27688" />
      <path
         d="m 32,328 h 448 a 8,8 0 0 1 8,8 v 32 H 24 v -32 a 8,8 0 0 1 8,-8 z"
         fill="#415e89"
         transform="rotate(180,256,348)"
         id="path27690" />
      <path
         d="m 312,152 v 80 a 8,8 0 0 0 8,8 h 104 l -42,-96 h -62 a 8,8 0 0 0 -8,8 z"
         fill="#4db6e4"
         id="path27692" />
      <path
         d="m 448,296 h 32 a 8,8 0 0 1 8,8 v 16 a 8,8 0 0 1 -8,8 h -32 z"
         fill="#dfdfdd"
         transform="rotate(180,468,312)"
         id="path27694" />
      <path
         d="m 48,136 h 240 v 16 H 48 Z"
         fill="#f9a40f"
         id="path27696" />
      <path
         d="m 48,232 h 240 v 16 H 48 Z"
         fill="#f9a40f"
         id="path27698" />
      <path
         d="m 352,144 h 16 v 96 h -16 z"
         fill="#3ba5d3"
         id="path27700" />
      <circle
         cx="376"
         cy="352"
         fill="#34507b"
         r="48"
         id="circle27702" />
      <circle
         cx="120"
         cy="352"
         fill="#34507b"
         r="48"
         id="circle27704" />
      <circle
         cx="376"
         cy="352"
         fill="#dfdfdd"
         r="16"
         id="circle27706" />
      <circle
         cx="120"
         cy="352"
         fill="#dfdfdd"
         r="16"
         id="circle27708" />
      <path
         d="m 312,264 h 32 v 16 h -32 z"
         fill="#ffc261"
         id="path27710" />
      <path
         d="m 256,264 h 32 v 16 h -32 z"
         fill="#ffc261"
         id="path27712" />
      <path
         d="m 32,296 h 24 v 32 H 32 a 8,8 0 0 1 -8,-8 v -16 a 8,8 0 0 1 8,-8 z"
         fill="#d65246"
         transform="rotate(180,40,312)"
         id="path27714" />
    </g>
    <g
       transform="matrix(0.87966188,0,0,0.87966188,66.048369,8.1404516)"
       id="people-coronavirus-tempurature-thermometer-covid19">
      <path
         d="M 38,3 H 30 A 4,4 0 0 0 26,7 2,2 0 0 0 24,5 H 22 A 4,4 0 0 0 18,9 V 23 H 46 V 11 A 8,8 0 0 0 38,3 Z"
         fill="#414042"
         id="path27813" />
      <path
         d="m 24,5 h -2 a 4,4 0 0 0 -4,4 v 14 h 8 V 7 A 2,2 0 0 0 24,5 Z"
         fill="#58595b"
         id="path27815" />
      <path
         d="M 55.9,50.005 A 10,10 0 0 0 45.95,41 H 39.33 C 38.1,44.53 35.28,47 32,47 28.72,47 25.905,44.53 24.67,41 H 18.612 A 10,10 0 0 0 8.723,49.517 L 7,61 h 50 z"
         fill="#006df0"
         id="path27817" />
      <path
         d="m 20,61 h -2 v -6 a 1,1 0 0 1 1,-1 1,1 0 0 1 1,1 z"
         fill="#005ece"
         id="path27819" />
      <path
         d="m 46,61 h -2 v -6 a 1,1 0 0 1 1,-1 1,1 0 0 1 1,1 z"
         fill="#005ece"
         id="path27821" />
      <path
         d="M 55.9,50.005 A 10,10 0 0 0 45.95,41 h -2 a 10,10 0 0 1 9.95,9.005 L 55,61 h 2 z"
         fill="#005ece"
         id="path27823" />
      <path
         d="m 15,19 c 0,-1.105 -2,-4 -2,-4 0,0 -2,2.895 -2,4 a 2,2 0 0 0 4,0 z"
         fill="#57a4ff"
         id="path27825" />
      <path
         d="m 37,14 c 0,-1.105 -2,-4 -2,-4 0,0 -2,2.895 -2,4 a 2,2 0 0 0 4,0 z"
         fill="#9bc9ff"
         id="path27827" />
      <path
         d="m 14,38 a 3,3 0 0 0 3,-3 c 0,-1.657 -3,-5 -3,-5 0,0 -3,3.343 -3,5 a 3,3 0 0 0 3,3 z"
         fill="#57a4ff"
         id="path27829" />
      <path
         d="m 42,21 h 3 a 2,2 0 0 1 2,2 v 3 a 2,2 0 0 1 -2,2 h -3 z"
         fill="#ffac96"
         id="path27831" />
      <path
         d="m 17,21 h 3 a 2,2 0 0 1 2,2 v 3 a 2,2 0 0 1 -2,2 h -3 z"
         fill="#ffac96"
         transform="rotate(180,19.5,24.5)"
         id="path27833" />
      <path
         d="m 32,47 c 3.28,0 6.095,-2.47 7.33,-6 H 39 c -0.027,0 -0.052,-0.007 -0.078,-0.008 A 2,2 0 0 1 37,39 v -3.21 a 10.936,10.936 0 0 1 -10,0 V 39 a 2,2 0 0 1 -1.922,1.992 C 25.052,40.992 25.027,41 25,41 h -0.33 c 1.235,3.53 4.05,6 7.33,6 z"
         fill="#ffac96"
         id="path27835" />
      <path
         d="m 37,37.79 v -2 a 10.936,10.936 0 0 1 -10,0 v 2 a 10.936,10.936 0 0 0 10,0 z"
         fill="#ff9478"
         id="path27837" />
      <path
         d="M 61,46 A 7,7 0 1 1 51,39.68 V 6 a 3,3 0 0 1 6,0 V 39.68 A 6.97,6.97 0 0 1 61,46 Z"
         fill="#ff9811"
         id="path27839" />
      <path
         d="M 57,39.68 V 6 A 2.973,2.973 0 0 0 53,3.184 2.963,2.963 0 0 1 55,6 V 39.68 A 6.992,6.992 0 0 1 53,52.921 6.993,6.993 0 0 0 57,39.68 Z"
         fill="#ee8700"
         id="path27841" />
      <circle
         cx="54"
         cy="46"
         fill="#d80027"
         r="2"
         id="circle27843" />
      <path
         d="m 25,13 h 14 a 4,4 0 0 1 4,4 v 9 A 11,11 0 0 1 32,37 11,11 0 0 1 21,26 v -9 a 4,4 0 0 1 4,-4 z"
         fill="#ffbcab"
         id="path27845" />
      <path
         d="m 33,14 a 2,2 0 0 0 4,0 c 0,-1.105 -2,-4 -2,-4 0,0 -2,2.9 -2,4 z"
         fill="#2488ff"
         id="path27847" />
      <path
         d="m 34.294,32.708 a 1,1 0 1 0 1.412,-1.416 l -0.171,-0.17 a 5,5 0 0 0 -7.069,0 l -0.172,0.171 a 1,1 0 1 0 1.412,1.416 l 0.173,-0.172 a 3.069,3.069 0 0 1 4.243,0 z"
         fill="#6d6e71"
         id="path27849" />
      <path
         d="M 30.212,27.615 A 1,1 0 0 0 31,28 h 2 a 1,1 0 0 0 0,-2 h -0.719 l 0.689,-2.757 a 1,1 0 0 0 -1.94,-0.486 l -1,4 a 1,1 0 0 0 0.182,0.858 z"
         fill="#6d6e71"
         id="path27851" />
      <path
         d="m 30.71,19.71 -0.24,0.24 A 7.523,7.523 0 0 1 29,21.07 V 22 a 1,1 0 0 1 -2,0 V 21.84 A 7.312,7.312 0 0 1 25.51,22 H 25 a 1,1 0 0 1 0,-2 h 0.51 a 4.976,4.976 0 0 0 3.54,-1.46 l 0.24,-0.25 a 1.0040916,1.0040916 0 0 1 1.42,1.42 z"
         fill="#6d6e71"
         id="path27853" />
      <path
         d="m 40,21 a 1,1 0 0 1 -1,1 H 38.49 A 7.312,7.312 0 0 1 37,21.84 V 22 a 1,1 0 0 1 -2,0 v -0.93 a 7.176,7.176 0 0 1 -1.46,-1.12 l -0.25,-0.24 a 1.0040916,1.0040916 0 0 1 1.42,-1.42 l 0.24,0.25 A 4.976,4.976 0 0 0 38.49,20 H 39 a 1,1 0 0 1 1,1 z"
         fill="#6d6e71"
         id="path27855" />
      <g
         fill="#aa6100"
         id="g27873">
        <path
           d="m 54,8 h 3 v 2 h -3 z"
           id="path27857" />
        <path
           d="m 54,12 h 3 v 2 h -3 z"
           id="path27859" />
        <path
           d="m 54,16 h 3 v 2 h -3 z"
           id="path27861" />
        <path
           d="m 54,20 h 3 v 2 h -3 z"
           id="path27863" />
        <path
           d="m 54,24 h 3 v 2 h -3 z"
           id="path27865" />
        <path
           d="m 54,28 h 3 v 2 h -3 z"
           id="path27867" />
        <path
           d="m 54,32 h 3 v 2 h -3 z"
           id="path27869" />
        <path
           d="m 54,36 h 3 v 2 h -3 z"
           id="path27871" />
      </g>
      <path
         d="m 53,16 h 2 v 30 h -2 z"
         fill="#d80027"
         id="path27875" />
    </g>
  </g>
</svg>
