<?xml version="1.0" encoding="UTF-8" standalone="no"?>
<svg
   xmlns:dc="http://purl.org/dc/elements/1.1/"
   xmlns:cc="http://creativecommons.org/ns#"
   xmlns:rdf="http://www.w3.org/1999/02/22-rdf-syntax-ns#"
   xmlns:svg="http://www.w3.org/2000/svg"
   xmlns="http://www.w3.org/2000/svg"
   width="600"
   height="300"
   viewBox="0 0 158.75 79.375002"
   version="1.1"
   id="svg8">
  <defs
     id="defs2">
    <rect
       x="33.261906"
       y="1.889881"
       width="32.127975"
       height="25.607887"
       id="rect952" />
    <rect
       x="23.718006"
       y="3.0238094"
       width="21.45015"
       height="20.127232"
       id="rect946" />
  </defs>
  <metadata
     id="metadata5">
    <rdf:RDF>
      <cc:Work
         rdf:about="">
        <dc:format>image/svg+xml</dc:format>
        <dc:type
           rdf:resource="http://purl.org/dc/dcmitype/StillImage" />
        <dc:title></dc:title>
      </cc:Work>
    </rdf:RDF>
  </metadata>
  <g
     id="layer1">
    <circle
       r="30.735994"
       cy="40.357697"
       cx="39.823158"
       id="path4756"
       style="fill:#000000;stroke-width:3.54644;stroke-linecap:round;stroke-linejoin:round" />
    <g
       transform="matrix(0.13762743,0,0,0.13762743,83.219424,5.5282974)"
       id="g4909">
      <g
         id="g4891">
        <path
           d="m 186.523,458.302 c -7.738,9.838 -13.112,21.322 -15.71,33.566 l -1.006,4.742 c -0.143,0.676 -1.052,0.805 -1.378,0.196 l -5.4,-10.08 c -6.214,-11.6 -8.404,-24.882 -6.315,-37.78 l 5.203,-39.809 41.039,17.398 z"
           fill="#f3f0f3"
           id="path4838" />
        <g
           id="XMLID_767_">
          <g
             id="g4842">
            <path
               d="m 492.423,22.243 c 3.92,-0.06 7,3.32 6.59,7.22 l -3.05,28.73 c -3.99,37.57 -60.39,87.68 -60.39,87.68 l -87.73,43.8 -43.32,-41.12 61.62,-106.85 5.42,-6.65 c 9.88,-12.1 25.14,-18.49 40.69,-17.01 l 48.8,4.63 z"
               fill="#7a6d79"
               id="path4840" />
          </g>
        </g>
        <g
           id="XMLID_768_">
          <g
             id="g4847">
            <path
               d="m 492.423,22.243 -18.43,21.35 c -18.97,21.98 -42.74,39.31 -69.47,50.66 l -88.15,33.74 49.77,-86.29 5.42,-6.65 c 9.88,-12.1 25.14,-18.49 40.69,-17.01 l 48.8,4.63 z"
               fill="#918291"
               id="path4845" />
          </g>
        </g>
        <g
           id="XMLID_761_">
          <g
             id="g4852">
            <path
               d="m 140.403,41.703 72.18,81.44 -34.66,66.53 -106.95,-43.8 c -33.67,-17.12 -56.4,-50.11 -60.39,-87.68 l -3.05,-28.73 c -0.41,-3.9 2.67,-7.28 6.59,-7.22 l 31.37,0.43 48.8,-4.63 c 15.55,-1.48 30.81,4.91 40.69,17.01 z"
               fill="#7a6d79"
               id="path4850" />
          </g>
        </g>
        <g
           id="XMLID_765_">
          <g
             id="g4857">
            <path
               d="m 140.403,41.703 72.18,81.44 -3.18,6.1 -107.38,-34.99 c -26.73,-11.35 -50.5,-28.68 -69.47,-50.66 l -18.43,-21.35 31.37,0.43 48.8,-4.63 c 15.55,-1.48 30.81,4.91 40.69,17.01 z"
               fill="#918291"
               id="path4855" />
          </g>
        </g>
        <path
           d="m 452.483,173.993 -61.71,-102.6 c -2.595,-4.315 -5.434,-8.431 -8.471,-12.358 L 343.6,40.939 257.077,30.557 140.038,72.913 84.153,184.583 57.022,318.771 l 48.769,69.315 29.539,32.753 23.943,13.144 h 196.601 l 25.978,-18.9 40.4,-36.57 c 57.641,-52.2 70.311,-137.88 30.231,-204.52 z"
           fill="#a79ba7"
           id="path4860" />
        <path
           d="m 147.393,422.393 c -57.64,-52.2 -70.31,-137.88 -30.23,-204.52 l 61.71,-102.6 c 23.15,-38.5 64.79,-62.04 109.71,-62.04 h 55.58 c 13.129,0 25.982,2.009 38.171,5.817 C 358.269,27.92 320.961,9.353 281.063,9.353 h -55.58 c -44.92,0 -86.56,23.54 -109.71,62.04 l -61.71,102.6 c -40.08,66.64 -27.41,152.32 30.23,204.52 l 40.17,36.36 34.81,19.11 h 0.924 z"
           fill="#918291"
           id="path4862" />
        <g
           id="g4887">
          <g
             fill="#918291"
             id="g4870">
            <path
               d="m 192.59,457.702 10.58,10.788 c 27.512,28.053 72.694,28.053 100.206,0 l 10.58,-10.788 36.645,-41.959 -97.327,-25.801 -86.501,28.102 z"
               id="path4864" />
            <path
               d="m 131.993,337.583 v -0.01 l -14.02,-86.8 c -4.04,-25.07 -15.88,-48.22 -33.82,-66.19 l -22.76,-22.78 -7.33,12.19 c -40.08,66.64 -27.41,152.32 30.23,204.52 l 40.17,36.36 c 0,0 22.722,20.02 22.722,19.11 0,-0.91 33.619,-55.864 33.619,-55.864 z"
               id="path4866" />
            <path
               d="m 452.483,173.993 -7.33,-12.19 -22.76,22.78 c -17.94,17.97 -29.78,41.12 -33.82,66.19 l -14.02,86.8 v 0.01 l -36.794,25.75 26.075,68.233 17.119,-15.824 0.9,-0.66 40.4,-36.57 c 57.64,-52.199 70.31,-137.879 30.23,-204.519 z"
               id="path4868" />
          </g>
          <path
             d="m 320.022,458.302 c 7.738,9.838 13.112,21.322 15.71,33.566 l 0.42,1.982 c 0.343,1.616 2.516,1.926 3.296,0.469 l 4.067,-7.592 c 6.214,-11.6 8.405,-24.882 6.315,-37.78 L 346.893,413.338 297.597,423 Z"
             fill="#f3f0f3"
             id="path4872" />
          <path
             d="M 147.393,422.393 C 92.5,372.681 78.395,292.605 111.793,227.526 105.771,211.493 96.383,196.833 84.153,184.583 l -22.76,-22.78 -7.33,12.19 c -40.08,66.64 -27.41,152.32 30.23,204.52 l 40.17,36.36 c 0,0 22.722,20.02 22.722,19.11 0,-0.207 1.749,-3.226 4.444,-7.755 z"
             fill="#7a6d79"
             id="path4874" />
          <g
             id="g4878">
            <path
               d="m 381.833,353.503 c 3.63,10.34 5.53,21.28 5.53,32.39 0,10.82 -2.32,20.88 -6.41,29.85 -15.71,34.38 -57.56,52.64 -95.25,35.33 l -4.64,-2.13 -27.79,-12.77 -27.79,12.77 -4.64,2.13 c -9.88,4.54 -20.04,6.63 -29.95,6.63 -28,0 -53.93,-16.73 -65.44,-42.29 -4.01,-8.88 -6.27,-18.83 -6.27,-29.52 0,-17.03 4.46,-33.66 12.81,-48.31 h 242.56 c 2.91,5.09 5.34,10.42 7.28,15.92 z"
               fill="#a79ba7"
               id="path4876" />
          </g>
          <g
             id="XMLID_764_">
            <g
               fill="#7a6d79"
               id="g4884">
              <path
                 d="m 334.912,164.971 -35.827,43.182 c 5.06,9.862 15.322,16.616 27.169,16.616 16.859,0 30.525,-13.667 30.525,-30.525 0,-13.851 -9.227,-25.539 -21.867,-29.273 z"
                 id="path4880" />
              <path
                 d="m 173.236,166.089 c -13.064,3.064 -22.795,14.783 -22.795,28.781 0,16.332 13.239,29.571 29.57,29.571 10.789,0 20.225,-5.781 25.389,-14.411 z"
                 id="path4882" />
            </g>
          </g>
        </g>
        <path
           d="m 242.552,389.661 -38.759,-21.729 c -6.919,-3.879 -11.203,-11.192 -11.203,-19.124 0,-12.108 9.816,-21.924 21.924,-21.924 h 77.518 c 12.108,0 21.924,9.816 21.924,21.924 0,7.932 -4.284,15.245 -11.203,19.124 l -38.759,21.729 c -6.66,3.734 -14.783,3.734 -21.442,0 z"
           fill="#7a6d79"
           id="path4889" />
      </g>
      <g
         id="g4907">
        <path
           d="m 162.945,354.328 c -4.142,0 -7.5,3.357 -7.5,7.5 v 3.011 c 0,4.143 3.358,7.5 7.5,7.5 4.142,0 7.5,-3.357 7.5,-7.5 v -3.011 c 0,-4.143 -3.358,-7.5 -7.5,-7.5 z"
           id="path4893" />
        <path
           d="m 196.88,414.842 c 4.142,0 7.5,-3.357 7.5,-7.5 v -3.011 c 0,-4.143 -3.358,-7.5 -7.5,-7.5 -4.142,0 -7.5,3.357 -7.5,7.5 v 3.011 c 0,4.143 3.358,7.5 7.5,7.5 z"
           id="path4895" />
        <path
           d="m 156.104,395.327 c -4.142,0 -7.5,3.357 -7.5,7.5 v 3.011 c 0,4.143 3.358,7.5 7.5,7.5 4.142,0 7.5,-3.357 7.5,-7.5 v -3.011 c 0,-4.143 -3.358,-7.5 -7.5,-7.5 z"
           id="path4897" />
        <path
           d="m 343.6,372.339 c 4.142,0 7.5,-3.357 7.5,-7.5 v -3.011 c 0,-4.143 -3.358,-7.5 -7.5,-7.5 -4.142,0 -7.5,3.357 -7.5,7.5 v 3.011 c 0,4.142 3.358,7.5 7.5,7.5 z"
           id="path4899" />
        <path
           d="m 309.665,396.832 c -4.142,0 -7.5,3.357 -7.5,7.5 v 3.011 c 0,4.143 3.358,7.5 7.5,7.5 4.142,0 7.5,-3.357 7.5,-7.5 v -3.011 c 0,-4.143 -3.358,-7.5 -7.5,-7.5 z"
           id="path4901" />
        <path
           d="m 342.942,402.827 v 3.011 c 0,4.143 3.358,7.5 7.5,7.5 4.142,0 7.5,-3.357 7.5,-7.5 v -3.011 c 0,-4.143 -3.358,-7.5 -7.5,-7.5 -4.142,0 -7.5,3.357 -7.5,7.5 z"
           id="path4903" />
        <path
           d="m 502.88,19.314 c -2.586,-2.834 -6.222,-4.491 -10.043,-4.557 -0.132,-0.007 -0.263,-0.013 -0.394,-0.013 -0.042,0 -0.083,-0.005 -0.126,-0.004 l -30.958,0.43 -48.394,-4.593 C 394.888,8.862 377.234,16.24 365.753,30.315 l -0.631,0.774 C 359.66,26.766 353.866,22.85 347.776,19.406 327.464,7.92 304.395,1.848 281.062,1.848 h -55.578 c -23.333,0 -46.403,6.071 -66.713,17.558 -6.09,3.444 -11.884,7.36 -17.346,11.683 l -0.631,-0.774 C 129.312,16.24 111.667,8.862 93.581,10.577 l -4.355,0.413 c -4.124,0.392 -7.149,4.052 -6.758,8.175 0.391,4.123 4.053,7.149 8.174,6.759 l 4.356,-0.413 c 13.083,-1.25 25.861,4.098 34.17,14.285 l 1.017,1.247 c -7.994,7.908 -15.018,16.798 -20.844,26.485 L 99.023,84.685 C 75.856,73.844 54.937,58.047 38.232,38.692 l -7.528,-8.722 14.682,0.204 c 0.271,0.008 0.542,-0.007 0.812,-0.032 l 12.481,-1.185 c 4.124,-0.392 7.149,-4.052 6.758,-8.176 -0.391,-4.123 -4.042,-7.131 -8.175,-6.758 L 45.187,15.17 14.229,14.74 c -0.043,-10e-4 -0.086,0.005 -0.13,0.004 -0.132,0 -0.263,0.007 -0.395,0.014 -3.804,0.073 -7.455,1.724 -10.039,4.556 -2.703,2.963 -4.01,6.95 -3.587,10.939 l 3.05,28.732 c 3.988,37.573 25.25,70.548 57.409,89.69 l -12.902,21.452 c -20.277,33.715 -28.276,73.717 -22.522,112.638 5.753,38.92 24.984,74.897 54.149,101.304 l 40.165,36.365 c 0.074,0.067 0.153,0.125 0.229,0.189 6.258,12.851 15.991,23.952 28.488,31.964 0.179,0.115 0.362,0.221 0.542,0.334 -1.056,12.861 1.624,25.944 7.732,37.345 l 5.403,10.087 c 1.445,2.691 4.271,4.343 7.271,4.343 0.383,0 0.771,-0.027 1.157,-0.083 3.411,-0.487 6.182,-3.08 6.895,-6.447 l 1.006,-4.742 c 2.085,-9.833 6.222,-19.255 12.027,-27.471 l 7.638,7.787 c 14.728,15.019 34.423,23.289 55.458,23.289 21.035,0 40.73,-8.271 55.458,-23.288 l 7.638,-7.788 c 5.804,8.216 9.941,17.638 12.027,27.471 l 1.005,4.739 c 0.713,3.37 3.484,5.963 6.896,6.45 0.387,0.056 0.773,0.083 1.157,0.083 3,-0.001 5.826,-1.652 7.274,-4.35 l 5.399,-10.079 c 6.108,-11.401 8.789,-24.484 7.733,-37.344 0.18,-0.113 0.362,-0.221 0.541,-0.335 12.488,-8.006 22.215,-19.095 28.473,-31.934 0.004,-0.003 0.008,-0.006 0.012,-0.01 l 40.397,-36.575 c 21.5,-19.468 37.758,-44.259 47.016,-71.691 1.324,-3.925 -0.784,-8.181 -4.708,-9.505 -3.922,-1.327 -8.18,0.784 -9.504,4.708 -8.44,25.013 -23.265,47.616 -42.871,65.369 l -22.712,20.563 c 0.239,-2.516 0.362,-5.058 0.362,-7.62 0,-17.351 -4.375,-34.438 -12.503,-49.625 l 13.609,-84.302 c 3.819,-23.658 14.79,-45.125 31.726,-62.079 l 15.975,-15.991 2.383,3.962 c 17.835,29.656 25.297,64.896 21.01,99.23 -0.513,4.109 2.403,7.857 6.513,8.371 4.108,0.511 7.858,-2.403 8.372,-6.513 4.701,-37.652 -3.482,-76.299 -23.041,-108.819 l -12.905,-21.458 c 32.159,-19.142 53.424,-52.112 57.412,-89.685 l 3.05,-28.732 c 0.423,-3.987 -0.884,-7.974 -3.587,-10.938 z M 377.377,39.796 c 8.31,-10.188 21.085,-15.533 34.171,-14.285 l 48.799,4.631 c 0.27,0.026 0.544,0.036 0.812,0.032 l 14.682,-0.204 -7.528,8.722 C 451.608,58.046 430.689,73.844 407.522,84.685 L 397.203,67.528 C 391.377,57.841 384.353,48.95 376.359,41.043 Z M 18.044,57.402 15.727,35.575 26.876,48.492 c 17.739,20.553 39.87,37.394 64.38,49.105 L 68.267,135.822 C 40.133,119.096 21.532,90.26 18.044,57.402 Z m 149.084,420.357 c -2.203,-5.58 -3.43,-11.522 -3.637,-17.511 3.452,1.28 6.973,2.309 10.538,3.089 -2.717,4.593 -5.039,9.422 -6.901,14.422 z m 130.893,-14.52 c -11.884,12.117 -27.775,18.791 -44.748,18.791 -16.973,0 -32.864,-6.674 -44.749,-18.792 l -0.072,-0.073 c 5.275,-1.208 10.475,-2.961 15.519,-5.278 l 29.302,-13.459 29.302,13.459 c 5.044,2.317 10.245,4.068 15.521,5.276 z M 246.219,383.119 207.46,361.39 c -4.546,-2.549 -7.371,-7.37 -7.371,-12.582 0,-7.953 6.471,-14.424 14.424,-14.424 h 77.518 c 7.953,0 14.424,6.471 14.424,14.424 0,5.212 -2.824,10.033 -7.37,12.582 l -38.759,21.729 c -4.351,2.439 -9.756,2.439 -14.107,0 z m 93.198,94.64 c -1.863,-5.002 -4.185,-9.833 -6.903,-14.426 3.566,-0.781 7.088,-1.81 10.541,-3.09 -0.208,5.991 -1.434,11.935 -3.638,17.516 z m 77.669,-298.472 c -19.176,19.197 -31.598,43.503 -35.922,70.29 l -11.063,68.53 -59.366,-73.842 c -4.58,-5.697 -6.59,-12.771 -6.078,-19.686 5.84,3.908 12.746,6.045 20.028,6.045 19.912,0 36.112,-16.199 36.112,-36.111 0,-11.248 -5.307,-21.748 -13.979,-28.506 1.746,-1.566 4.004,-2.453 6.386,-2.453 h 18.044 c 4.142,0 7.5,-3.357 7.5,-7.5 0,-4.143 -3.358,-7.5 -7.5,-7.5 h -18.044 c -7.31,0 -14.189,3.219 -18.874,8.831 l -34.787,41.681 c -13.102,15.699 -13.312,38.661 -0.5,54.598 l 60.959,75.824 c 12.809,15.933 19.863,35.965 19.863,56.407 0,21.988 -11.051,42.199 -29.561,54.066 -18.51,11.867 -41.489,13.473 -61.47,4.295 l -28.062,-12.89 v -32.395 c 2.383,-0.622 4.701,-1.542 6.888,-2.768 l 38.76,-21.729 c 9.273,-5.199 15.035,-15.034 15.035,-25.666 0,-16.225 -13.2,-29.424 -29.424,-29.424 h -77.518 c -16.224,0 -29.424,13.199 -29.424,29.424 0,10.632 5.761,20.467 15.035,25.666 l 38.759,21.729 c 2.187,1.226 4.505,2.146 6.888,2.768 v 32.395 l -28.063,12.89 c -19.98,9.179 -42.96,7.572 -61.47,-4.295 -18.51,-11.867 -29.561,-32.078 -29.561,-54.066 0,-20.442 7.054,-40.475 19.863,-56.407 l 60.959,-75.824 c 12.812,-15.937 12.602,-38.898 -0.5,-54.598 l -34.787,-41.681 c -4.684,-5.612 -11.563,-8.831 -18.873,-8.831 h -18.044 c -4.142,0 -7.5,3.357 -7.5,7.5 0,4.143 3.358,7.5 7.5,7.5 h 18.044 c 2.608,0 5.068,1.062 6.868,2.917 -8.332,6.77 -13.413,17.044 -13.413,28.042 0,19.912 16.2,36.111 36.112,36.111 6.866,0 13.395,-1.904 19.014,-5.396 0.342,6.707 -1.674,13.518 -6.111,19.036 l -59.366,73.843 -7.066,-43.772 c -0.661,-4.089 -4.51,-6.876 -8.6,-6.209 -4.089,0.66 -6.869,4.511 -6.209,8.6 l 9.612,59.544 c -8.128,15.186 -12.503,32.274 -12.503,49.625 0,2.562 0.122,5.104 0.362,7.62 L 89.327,372.952 C 34.49,323.302 22.361,241.254 60.487,177.86 l 2.383,-3.962 15.975,15.992 c 15.175,15.19 25.688,34.32 30.4,55.32 0.783,3.488 3.879,5.859 7.311,5.859 0.544,0 1.096,-0.06 1.649,-0.184 4.042,-0.907 6.583,-4.919 5.675,-8.961 C 118.545,218.15 106.641,196.49 89.456,179.287 L 70.84,160.649 122.196,75.259 c 9.372,-15.583 22.099,-28.606 36.922,-38.377 L 194.1,66.005 c 19.131,15.927 30.884,39.317 32.244,64.174 l 2.868,52.407 c 0.219,3.996 3.528,7.09 7.482,7.09 0.138,0 0.277,-0.004 0.416,-0.011 4.136,-0.227 7.306,-3.763 7.079,-7.899 l -2.868,-52.407 C 239.734,100.355 226.02,73.062 203.696,54.478 L 173.04,28.956 c 16.149,-7.828 34.06,-12.107 52.442,-12.107 h 55.578 c 18.632,0 36.776,4.404 53.095,12.435 l -30.262,25.194 c -22.324,18.585 -36.037,45.878 -37.624,74.881 l -2.868,52.407 c -0.227,4.137 2.943,7.673 7.079,7.899 0.14,0.007 0.278,0.011 0.416,0.011 3.955,0 7.264,-3.094 7.482,-7.09 l 2.868,-52.407 c 1.36,-24.856 13.112,-48.246 32.244,-64.174 l 34.513,-28.733 c 14.574,9.727 27.094,22.608 36.344,37.987 l 51.356,85.39 z m -106.913,30.554 c 0.292,-0.39 0.573,-0.787 0.888,-1.165 l 26.049,-31.212 c 5.373,3.931 8.687,10.255 8.687,17.048 0,11.641 -9.471,21.111 -21.112,21.111 -5.49,0.001 -10.618,-2.075 -14.512,-5.782 z M 196.8,210.403 c -3.811,3.351 -8.688,5.22 -13.893,5.22 -11.641,0 -21.112,-9.471 -21.112,-21.111 0,-6.518 3.053,-12.605 8.047,-16.561 l 25.642,30.725 c 0.468,0.56 0.899,1.141 1.316,1.727 z M 488.501,57.402 c -3.488,32.858 -22.089,61.694 -50.223,78.421 L 415.287,97.595 c 24.511,-11.71 46.643,-28.55 64.382,-49.103 l 11.149,-12.917 z"
           id="path4905" />
      </g>
    </g>
  </g>
</svg>
