<?xml version="1.0" encoding="UTF-8" standalone="no"?>
<svg
   xmlns:dc="http://purl.org/dc/elements/1.1/"
   xmlns:cc="http://creativecommons.org/ns#"
   xmlns:rdf="http://www.w3.org/1999/02/22-rdf-syntax-ns#"
   xmlns:svg="http://www.w3.org/2000/svg"
   xmlns="http://www.w3.org/2000/svg"
   width="500"
   height="250"
   viewBox="0 0 132.29166 66.145835"
   version="1.1"
   id="svg8">
  <defs
     id="defs2">
    <rect
       id="rect17555"
       height="33.899739"
       width="45.47526"
       y="14.469401"
       x="64.905598" />
    <rect
       id="rect16657"
       height="39.6875"
       width="52.916666"
       y="16.536458"
       x="16.123047" />
    <rect
       id="rect14952"
       height="41.217972"
       width="28.355626"
       y="11.693042"
       x="56.1266" />
    <rect
       id="rect12397"
       height="46.715494"
       width="47.955729"
       y="8.6816405"
       x="71.933593" />
    <rect
       id="rect10750"
       height="32.448191"
       width="43.55658"
       y="16.95491"
       x="54.080318" />
    <rect
       id="rect10116"
       height="31.278887"
       width="27.917137"
       y="16.808747"
       x="101.14481" />
    <rect
       id="rect9439"
       height="25.14004"
       width="57.003578"
       y="26.309344"
       x="5.2618688" />
    <rect
       id="rect8476"
       height="26.60167"
       width="35.663777"
       y="22.216779"
       x="51.449384" />
    <rect
       id="rect8111"
       height="60.358072"
       width="46.715494"
       y="-7.4414062"
       x="111.20768" />
    <rect
       id="rect5692"
       height="31.419271"
       width="28.318685"
       y="19.223633"
       x="111.62109" />
    <rect
       id="rect4959"
       height="36.793619"
       width="38.447265"
       y="12.815755"
       x="87.436523" />
    <rect
       id="rect3591"
       height="32.246093"
       width="36.586914"
       y="17.569987"
       x="2.6871745" />
    <rect
       x="33.261906"
       y="1.889881"
       width="32.127975"
       height="25.607887"
       id="rect952" />
    <rect
       x="23.718006"
       y="3.0238094"
       width="21.45015"
       height="20.127232"
       id="rect946" />
    <rect
       id="rect952-5"
       height="25.607887"
       width="32.127975"
       y="1.889881"
       x="33.261906" />
    <rect
       id="rect1246"
       height="25.607887"
       width="32.127975"
       y="1.889881"
       x="33.261906" />
    <rect
       id="rect2592"
       height="20.127232"
       width="21.45015"
       y="3.0238094"
       x="23.718006" />
    <rect
       x="23.718006"
       y="3.0238094"
       width="21.45015"
       height="20.127232"
       id="rect2600" />
    <rect
       id="rect2608"
       height="20.127232"
       width="21.45015"
       y="3.0238094"
       x="23.718006" />
    <rect
       x="2.6871746"
       y="17.569986"
       width="36.586914"
       height="32.246094"
       id="rect3591-5" />
    <rect
       x="2.6871746"
       y="17.569986"
       width="36.586914"
       height="32.246094"
       id="rect4205" />
    <rect
       x="111.20768"
       y="-7.4414062"
       width="46.715494"
       height="60.358072"
       id="rect8139" />
    <rect
       x="51.449384"
       y="22.216779"
       width="35.663777"
       height="26.60167"
       id="rect8484" />
    <rect
       x="16.123047"
       y="16.536458"
       width="52.916666"
       height="39.6875"
       id="rect16854" />
    <rect
       x="16.123047"
       y="16.536458"
       width="52.916666"
       height="39.6875"
       id="rect16860" />
    <rect
       x="64.905598"
       y="14.469401"
       width="45.47526"
       height="33.899739"
       id="rect17563" />
    <rect
       x="64.905598"
       y="14.469401"
       width="45.47526"
       height="33.899739"
       id="rect20027" />
    <rect
       id="rect28320"
       height="33.899739"
       width="45.47526"
       y="14.469401"
       x="64.905598" />
  </defs>
  <metadata
     id="metadata5">
    <rdf:RDF>
      <cc:Work
         rdf:about="">
        <dc:format>image/svg+xml</dc:format>
        <dc:type
           rdf:resource="http://purl.org/dc/dcmitype/StillImage" />
        <dc:title></dc:title>
      </cc:Work>
    </rdf:RDF>
  </metadata>
  <g
     transform="matrix(0.26458333,0,0,0.26458333,71.999739,33.965621)"
     id="g14585">
</g>
  <g
     transform="matrix(0.26458333,0,0,0.26458333,71.999739,33.965621)"
     id="g14587">
</g>
  <g
     transform="matrix(0.26458333,0,0,0.26458333,71.999739,33.965621)"
     id="g14589">
</g>
  <g
     transform="matrix(0.26458333,0,0,0.26458333,71.999739,33.965621)"
     id="g14591">
</g>
  <g
     transform="matrix(0.26458333,0,0,0.26458333,71.999739,33.965621)"
     id="g14593">
</g>
  <g
     transform="matrix(0.26458333,0,0,0.26458333,71.999739,33.965621)"
     id="g14595">
</g>
  <g
     transform="matrix(0.26458333,0,0,0.26458333,71.999739,33.965621)"
     id="g14597">
</g>
  <g
     transform="matrix(0.26458333,0,0,0.26458333,71.999739,33.965621)"
     id="g14599">
</g>
  <g
     transform="matrix(0.26458333,0,0,0.26458333,71.999739,33.965621)"
     id="g14601">
</g>
  <g
     transform="matrix(0.26458333,0,0,0.26458333,71.999739,33.965621)"
     id="g14603">
</g>
  <g
     transform="matrix(0.26458333,0,0,0.26458333,71.999739,33.965621)"
     id="g14605">
</g>
  <g
     transform="matrix(0.26458333,0,0,0.26458333,71.999739,33.965621)"
     id="g14607">
</g>
  <g
     transform="matrix(0.26458333,0,0,0.26458333,71.999739,33.965621)"
     id="g14609">
</g>
  <g
     transform="matrix(0.26458333,0,0,0.26458333,71.999739,33.965621)"
     id="g14611">
</g>
  <g
     transform="matrix(0.26458333,0,0,0.26458333,71.999739,33.965621)"
     id="g14613">
</g>
  <text
     xml:space="preserve"
     id="text20025"
     style="font-style:normal;font-variant:normal;font-weight:bold;font-stretch:normal;font-size:10.5833px;line-height:1.25;font-family:sans-serif;-inkscape-font-specification:'sans-serif Bold';white-space:pre;shape-inside:url(#rect20027);fill:#000000;fill-opacity:1;stroke:none;"
     transform="matrix(4.1138746,0,0,4.1138746,-245.22708,-49.307908)"><tspan
       x="64.90625"
       y="24.124215"><tspan
         style="font-style:normal;font-variant:normal;font-weight:bold;font-stretch:normal;font-family:sans-serif;-inkscape-font-specification:'sans-serif Bold'">7</tspan></tspan></text>
  <g
     transform="matrix(0.1030072,0,0,0.1030072,73.673089,6.3406214)"
     id="g31316">
    <path
       style="fill:#4caf50"
       d="m 443.336,164.68 -160,-160 c -6.24,-6.24 -16.384,-6.24 -22.624,0 l -160,160 c -4.608,4.608 -5.984,11.456 -3.488,17.44 2.464,5.984 8.32,9.888 14.784,9.888 h 80 v 119.36 c 0,36.992 -11.2,72.672 -32.352,103.2 -21.12,30.464 -50.592,53.44 -85.28,66.464 -7.232,2.72 -11.488,10.208 -10.112,17.824 1.376,7.616 8,13.152 15.744,13.152 h 90.88 c 110.016,0 181.12,-83.648 181.12,-213.12 v -106.88 h 80 c 6.464,0 12.32,-3.904 14.784,-9.888 2.464,-5.984 1.088,-12.832 -3.456,-17.44 z"
       id="path31261" />
    <g
       id="g31263">
</g>
    <g
       id="g31265">
</g>
    <g
       id="g31267">
</g>
    <g
       id="g31269">
</g>
    <g
       id="g31271">
</g>
    <g
       id="g31273">
</g>
    <g
       id="g31275">
</g>
    <g
       id="g31277">
</g>
    <g
       id="g31279">
</g>
    <g
       id="g31281">
</g>
    <g
       id="g31283">
</g>
    <g
       id="g31285">
</g>
    <g
       id="g31287">
</g>
    <g
       id="g31289">
</g>
    <g
       id="g31291">
</g>
  </g>
</svg>
