<?xml version="1.0" encoding="UTF-8" standalone="no"?>
<svg
   xmlns:dc="http://purl.org/dc/elements/1.1/"
   xmlns:cc="http://creativecommons.org/ns#"
   xmlns:rdf="http://www.w3.org/1999/02/22-rdf-syntax-ns#"
   xmlns:svg="http://www.w3.org/2000/svg"
   xmlns="http://www.w3.org/2000/svg"
   width="600"
   height="300"
   viewBox="0 0 158.75 79.375002"
   version="1.1"
   id="svg8">
  <defs
     id="defs2">
    <rect
       x="33.261906"
       y="1.889881"
       width="32.127975"
       height="25.607887"
       id="rect952" />
    <rect
       x="23.718006"
       y="3.0238094"
       width="21.45015"
       height="20.127232"
       id="rect946" />
  </defs>
  <metadata
     id="metadata5">
    <rdf:RDF>
      <cc:Work
         rdf:about="">
        <dc:format>image/svg+xml</dc:format>
        <dc:type
           rdf:resource="http://purl.org/dc/dcmitype/StillImage" />
        <dc:title></dc:title>
      </cc:Work>
    </rdf:RDF>
  </metadata>
  <g
     id="layer1">
    <g
       transform="matrix(0.13352532,0,0,0.13352532,4.1933224,4.3411606)"
       id="g27073">
      <path
         d="m 62.203125,130.67969 c -16.898437,-11.58594 -39.839844,-8.41797 -52.964844,7.3125 -13.128906,15.73437 -12.132812,38.87109 2.292969,53.42187 l 41.316406,41.39844 z m 0,0"
         fill="#a5a5a4"
         id="path27038" />
      <path
         d="m 511.87891,406.10156 c -9.16016,18.1836 -21.78516,34.40625 -37.16407,47.75391 -44.04687,38.84375 -111.22656,58.17578 -187.9375,58.17578 -86.15625,0 -161.45703,-29.83594 -202.062496,-74.32813 C 75.992188,428.28516 68.703125,417.63672 63.085938,406.10156 56.417969,392.33594 52.921875,377.25391 52.847656,361.96094 V 189.55859 c 0,-101.957028 80.593754,-187.937496 182.550784,-189.52734 14.78906,-0.273438 29.55078,1.269531 43.96484,4.589844 84.375,19.21875 144.23828,94.25 144.24219,180.789066 v 143.89062 c -0.23047,17.16797 4.0625,34.09375 12.44531,49.08203 11.65234,20.03516 36.45703,36.8086 75.82813,27.71875 z m 0,0"
         fill="#d1d4d1"
         id="path27040" />
      <path
         d="m 474.71484,453.85547 c -44.04687,38.84375 -111.22656,58.17578 -187.9375,58.17578 -86.15625,0 -161.45703,-29.83594 -202.062496,-74.32813 V 179.40625 C 83.933594,90.871094 155.07422,18.46875 243.60938,17.6875 c 10.76953,-0.01563 21.51171,1.109375 32.04296,3.351562 C 306.18359,27.4375 334.13672,42.734375 355.98437,65 c 29.90235,30.566406 46.60938,71.64844 46.52344,114.40625 v 197.65234 c 0,0 0,54.9961 72.20703,76.79688 z m 0,0"
         fill="#e6e7e8"
         id="path27042" />
      <path
         d="m 417.98828,256.97656 65.54688,-65.54687 c 7.44921,-7.44922 11.63671,-17.55469 11.63671,-28.08985 0,-10.53515 -4.1875,-20.63672 -11.63671,-28.08984 -7.44922,-7.44922 -17.55469,-11.63281 -28.08985,-11.63281 -10.53515,0 -20.64062,4.18359 -28.08984,11.63281 l -65.54297,65.54687 z m 0,0"
         fill="#d1d4d1"
         id="path27044" />
      <path
         d="m 403.30078,244.72266 65.53516,-65.54297 c 7.44922,-7.45313 11.63672,-17.55469 11.63672,-28.08985 0,-10.53515 -4.1875,-20.64062 -11.63672,-28.08984 -15.51172,-15.50781 -40.65625,-15.50781 -56.16797,0 l -65.54688,65.54297 z m 0,0"
         fill="#e6e7e8"
         id="path27046" />
      <g
         fill="#3d324c"
         id="g27054">
        <path
           d="m 108.85547,141.27344 -18.308595,49.69922 39.238285,-4.36329 2.18359,19.625 56.67187,-26.16406 z m 0,0"
           id="path27048" />
        <path
           d="m 300.35547,141.27344 18.30469,49.69922 -39.23829,-4.36329 -2.17968,19.625 -56.67188,-26.16406 z m 0,0"
           id="path27050" />
        <path
           d="m 238.22656,320.99219 -35.3125,44.13672 -35.30859,-44.13672 -35.3125,44.13672 C 70.5,338.64844 96.984375,241.54297 96.984375,241.54297 l 35.308595,44.14062 35.3125,-44.14062 35.30859,44.14062 35.3125,-44.14062 35.3086,44.14062 35.3125,-44.14062 c 0,0 26.48046,97.10547 -35.3125,123.58594 z m 0,0"
           id="path27052" />
      </g>
    </g>
    <g
       transform="matrix(0.16922518,0,0,0.16922518,73.042898,-6.2326322)"
       id="g27193">
      <circle
         cx="248"
         cy="424"
         fill="#333333"
         r="64"
         id="circle27139" />
      <circle
         cx="248"
         cy="424"
         fill="#dff1fc"
         r="32"
         id="circle27141" />
      <path
         d="m 247.993,432 a 8,8 0 0 1 -6.547,-12.589 l 56,-80 a 8.0002912,8.0002912 0 1 1 13.108,9.176 l -56,80 A 7.99,7.99 0 0 1 247.993,432 Z"
         fill="#dae3e8"
         id="path27143" />
      <path
         d="m 199.505,319.283 c -0.175,-6.27 -11.271,-15.665 -16.188,-20.3 -22.723,-21.407 -23.347,-44.723 -22.543,-76.1 0.154,-6.006 6.7,-9.98 12.708,-9.81 6.008,0.17 11.369,4.211 14.675,9.228 3.306,5.017 4.9,10.939 6.391,16.759 2.341,9.148 4.551,18.329 6.761,27.51 l 10.491,43.584 c 0.776,3.226 1.558,6.553 1.045,9.831 -0.513,3.278 -2.647,6.533 -5.868,7.328 -3.221,0.795 -7.377,-4.713 -7.472,-8.03 z"
         fill="#212021"
         id="path27145" />
      <path
         d="m 205.8,285.247 -26.126,10.084 c 1.148,1.225 2.354,2.444 3.64,3.656 4.917,4.631 16.013,14.026 16.188,20.3 0.093,3.317 4.248,8.824 7.47,8.03 3.222,-0.794 5.356,-4.05 5.868,-7.328 0.512,-3.278 -0.269,-6.605 -1.045,-9.831 Q 208.8,297.7 205.8,285.247 Z"
         fill="#dff1fc"
         id="path27147" />
      <path
         d="m 25,223 c 8,16 33.042,35.641 40,40 17.259,10.811 27.637,15.7 48,16 20.363,0.3 43.195,-0.178 60.558,-10.821 7.831,-4.8 15.49,-10.435 20.254,-18.287 4.764,-7.852 6.068,-18.376 1.138,-26.125 -5.676,-8.92 -17.921,-11.666 -28.249,-9.4 -10.328,2.266 -19.272,8.469 -28.1,14.283 -8.828,5.814 -18.256,11.516 -28.78,12.53 A 24.652,24.652 0 0 0 81.435,233.687 C 76.026,220.5 63.269,210.77 49.02,210.946 c 5.734,-10.331 11.579,-21.269 17.313,-31.6 -8.89,-10.079 -18.551,-22 -27.441,-32.075 -6.025,2.984 -10.886,8.637 -11.517,15.331 a 20.218,20.218 0 0 0 7.781,17.676 C 26.679,194.6 21.412,206.748 25,223 Z"
         fill="#f98800"
         id="path27149" />
      <path
         d="m 194.95,223.767 a 19.193,19.193 0 0 0 -3.485,-4.052 48.733,48.733 0 0 1 -16.279,22.4 c -9.988,7.8 -22.354,12.065 -34.847,14.188 -37.392,6.356 -74.416,-6.153 -100.995,-33.212 -1.116,-15.958 3.53,-31.685 10.712,-45.979 a 33.6,33.6 0 0 1 -18.622,-23.953 17.524,17.524 0 0 0 -4.059,9.447 20.218,20.218 0 0 0 7.781,17.676 C 26.679,194.6 21.412,206.748 25,223 c 8,16 33.042,35.641 40,40 17.259,10.811 27.637,15.7 48,16 20.363,0.3 43.195,-0.178 60.558,-10.821 7.831,-4.8 15.49,-10.435 20.254,-18.287 4.764,-7.852 6.068,-18.376 1.138,-26.125 z"
         fill="#c16806"
         id="path27151" />
      <path
         d="m 66.333,179.347 c -8.89,-10.079 -18.551,-22 -27.441,-32.075 -6.025,2.984 -10.886,8.637 -11.517,15.331 a 20.218,20.218 0 0 0 7.781,17.676 115.837,115.837 0 0 0 -7.143,13.728 L 51.8,205.9 c 4.837,-8.8 9.724,-17.889 14.533,-26.553 z"
         fill="#333333"
         id="path27153" />
      <circle
         cx="201"
         cy="143"
         fill="#fad6c6"
         r="72"
         id="circle27155" />
      <circle
         cx="224"
         cy="168"
         fill="#f78663"
         r="16"
         id="circle27157" />
      <path
         d="m 206.088,136.253 a 149.658,149.658 0 0 1 64.129,-13.064 72.016,72.016 0 1 0 -24.017,75.843 c -13.493,-2.886 -25.915,-8.128 -38.232,-15.23 -1.005,-15.582 -0.879,-31.968 -1.88,-47.549 z"
         fill="#eaaa94"
         id="path27159" />
      <path
         d="m 281,111 c -31.693,0.784 -65.017,11.148 -94.794,22.03 2.036,9.258 4.723,20.351 6.759,29.61 22.377,6.018 45.091,15.432 66.811,23.507 6.309,-4.722 11.61,-9.085 17.919,-13.807 4.678,4.087 9.566,6.541 14.243,10.628 -2,16.027 -12.321,30.443 -26.3,38.537 C 221.279,205.4 160.147,193.084 113,191 l 16,-16 c 0,0 -9.744,-21.58 -16,-32 a 43.639,43.639 0 0 0 -8,0 c 0,0 4.1,-13.853 5.382,-17.738 a 101.9,101.9 0 0 1 11.667,-24.023 100.388,100.388 0 0 1 39.6,-35.117 c 23.8,-11.549 52.219,-12.765 77.124,-4.05 19.956,6.981 40.146,26.59 42.227,48.928 z"
         fill="#fcc200"
         id="path27161" />
      <g
         fill="#f98800"
         id="g27167">
        <path
           d="m 129,175 -16,16 c 47.147,2.084 108.28,14.4 152.64,30.5 a 54.581,54.581 0 0 0 7.567,-5.295 373.494,373.494 0 0 0 -145.561,-44.17 C 128.5,173.88 129,175 129,175 Z"
           id="path27163" />
        <path
           d="m 250.711,67.755 a 64.227,64.227 0 0 0 -11.935,-5.683 c -24.9,-8.715 -53.322,-7.5 -77.124,4.05 a 100.388,100.388 0 0 0 -39.6,35.117 101.9,101.9 0 0 0 -11.667,24.023 C 109.1,129.147 105,143 105,143 c 0,0 0.291,-0.039 0.857,-0.079 C 138.324,96.708 194.3,67.96 250.711,67.755 Z"
           id="path27165" />
      </g>
      <path
         d="m 233,95 c 0,0 -15.2,-18.545 -24,-24 0,0 80.6,6.093 118.853,12.675 -4.206,-0.724 -12.39,2.961 -16.526,4.016 q -8.873,2.263 -17.689,4.744 -17.946,5.049 -35.626,10.985 C 235.244,111.066 208.078,124.589 186,134 c 1.962,-2.517 47,-39 47,-39 z"
         fill="#dff1fc"
         id="path27169" />
      <g
         fill="#333333"
         id="g27177">
        <path
           d="m 167.839,262.035 c 5.147,4.165 12.349,4.333 18.97,4.308 l 21.854,-0.083 c 6.26,-0.024 12.629,-0.373 17.953,-3.665 5.324,-3.292 8.7,-10.744 5,-15.791 -3.622,-4.937 -9.856,-6.517 -15.92,-5.674 -8.609,1.2 -16.636,0.465 -25.244,1.661 1.949,-6.5 2.224,-9.469 0.966,-16.142 -1.258,-6.673 -6.864,-13.056 -13.647,-12.731 -18.485,0.887 -21.464,38.782 -9.932,48.117 z"
           id="path27171" />
        <path
           d="m 194.3,160.538 -73.63,11.611 -7.282,-21.972 a 306.043,306.043 0 0 1 75.132,-20.6 z"
           id="path27173" />
        <circle
           cx="424"
           cy="296"
           r="64"
           id="circle27175" />
      </g>
      <circle
         cx="424"
         cy="296"
         fill="#dff1fc"
         r="32"
         id="circle27179" />
      <path
         d="m 320,240 c 0,0 -15.238,-8.09 -16,-8 -0.025,0 -23.982,7.982 -24,8 -8,8 0,24 0,32 0,8 0,16 -8,24 -10.231,10.231 -20.255,7.853 -33.99,12.4 C 211.62,317.141 176,336 160,360 c 24,-16 33.072,-11.011 56,-16 2,3.451 8,16 8,16 8,0 42,-7 50,-23 5.072,-10.145 6,-17 6,-17 l 32,-32 h 16 c 0,-8 -8,-48 -8,-48 z"
         fill="#fcc200"
         id="path27181" />
      <path
         d="m 328,248 c 15.277,-22.407 36.886,-39.445 64,-40 -30.408,-10.262 -65.763,0.86 -88,24 z"
         fill="#f98800"
         id="path27183" />
      <path
         d="m 312,288 16,40 -16,16 -38,-7 6,-25 z"
         fill="#333333"
         id="path27185" />
      <path
         d="m 423.993,304 a 7.975,7.975 0 0 1 -3.758,-0.943 L 302,240 h -57.2 l -5.741,10.765 a 8.0002941,8.0002941 0 0 1 -14.118,-7.53 l 8,-15 A 8,8 0 0 1 240,224 h 64 a 8,8 0 0 1 3.765,0.941 l 120,64 A 8,8 0 0 1 423.993,304 Z"
         fill="#dae3e8"
         id="path27187" />
      <path
         d="m 240,152 a 8,8 0 0 1 -8,-8 v -8 a 8,8 0 0 1 16,0 v 8 a 8,8 0 0 1 -8,8 z"
         fill="#683b11"
         id="path27189" />
      <path
         d="m 231.617,246.8 c -3.622,-4.937 -9.856,-6.517 -15.921,-5.674 a 134.594,134.594 0 0 1 -14.68,0.893 q -0.57,12.135 -1.141,24.27 l 8.788,-0.033 c 6.26,-0.024 12.629,-0.373 17.954,-3.665 5.325,-3.292 8.702,-10.74 5,-15.791 z"
         fill="#dff1fc"
         id="path27191" />
    </g>
  </g>
</svg>
