<?xml version="1.0" encoding="UTF-8" standalone="no"?>
<svg
   xmlns:dc="http://purl.org/dc/elements/1.1/"
   xmlns:cc="http://creativecommons.org/ns#"
   xmlns:rdf="http://www.w3.org/1999/02/22-rdf-syntax-ns#"
   xmlns:svg="http://www.w3.org/2000/svg"
   xmlns="http://www.w3.org/2000/svg"
   width="600"
   height="300"
   viewBox="0 0 158.75 79.375002"
   version="1.1"
   id="svg8">
  <defs
     id="defs2">
    <rect
       id="rect27647"
       height="49.177593"
       width="46.504898"
       y="14.967094"
       x="124.01306" />
    <rect
       x="33.261906"
       y="1.889881"
       width="32.127975"
       height="25.607887"
       id="rect952" />
    <rect
       x="23.718006"
       y="3.0238094"
       width="21.45015"
       height="20.127232"
       id="rect946" />
  </defs>
  <metadata
     id="metadata5">
    <rdf:RDF>
      <cc:Work
         rdf:about="">
        <dc:format>image/svg+xml</dc:format>
        <dc:type
           rdf:resource="http://purl.org/dc/dcmitype/StillImage" />
        <dc:title></dc:title>
      </cc:Work>
    </rdf:RDF>
  </metadata>
  <g
     id="layer1">
    <circle
       r="21.916101"
       cy="41.159508"
       cx="33.141422"
       id="path28214"
       style="fill:#a7a8a8;fill-opacity:1;stroke-width:4.96501;stroke-linecap:round;stroke-linejoin:round" />
    <g
       transform="matrix(0.16096059,0,0,0.16096059,69.108665,-1.917169)"
       id="g28301">
      <g
         id="g28283">
        <path
           d="M 464.198,314.905 H 47.802 C 25.544,314.905 7.5,296.861 7.5,274.603 v -40.599 c 0,-22.258 18.044,-40.302 40.302,-40.302 h 416.396 c 22.258,0 40.302,18.044 40.302,40.302 v 40.599 c 0,22.258 -18.044,40.302 -40.302,40.302 z"
           fill="#dfdde2"
           id="path28263" />
        <path
           d="m 311.301,477.117 c -36.867,1.252 -73.734,1.252 -110.602,0 -80.642,-2.738 -145.457,-67.618 -148.29,-148.256 -1.706,-48.574 -1.706,-97.148 0,-145.722 2.833,-80.639 67.649,-145.518 148.29,-148.256 36.867,-1.252 73.734,-1.252 110.602,0 80.642,2.738 145.457,67.618 148.29,148.256 1.706,48.574 1.706,97.148 0,145.722 -2.833,80.638 -67.648,145.518 -148.29,148.256 z"
           fill="#665e66"
           id="path28265" />
        <path
           d="m 298.434,477.12 c 2.15,0.07 4.29,0.14 6.44,0.2 -34.73,1.05 -69.45,0.98 -104.17,-0.2 -80.65,-2.74 -145.46,-67.62 -148.3,-148.26 -1.7,-48.57 -1.7,-97.15 0,-145.72 2.84,-80.64 67.65,-145.52 148.3,-148.26 34.72,-1.18 69.44,-1.25 104.17,-0.2 -2.15,0.06 -4.29,0.13 -6.44,0.2 -80.64,2.74 -145.46,67.62 -148.29,148.26 -1.7,48.57 -1.7,97.15 0,145.72 2.83,80.64 67.65,145.52 148.29,148.26 z"
           fill="#454045"
           id="path28267" />
        <path
           d="m 420.58,217.14 c 0,49.25 -39.93,89.18 -89.18,89.18 -31.73,0 -59.59,-16.57 -75.4,-41.54 -15.81,24.97 -43.67,41.54 -75.4,41.54 -11,0 -21.53,-1.99 -31.26,-5.64 -33.83,-12.66 -57.92,-45.29 -57.92,-83.54 0,-42.73 30.06,-78.44 70.18,-87.15 6.12,-1.33 12.48,-2.03 19,-2.03 31.73,0 59.59,16.57 75.4,41.54 15.81,-24.97 43.67,-41.54 75.4,-41.54 49.25,0 89.18,39.93 89.18,89.18 z"
           fill="#f9f6f9"
           id="path28269" />
        <path
           d="m 150.14,183.14 c -1.37,39.18 -1.64,78.36 -0.8,117.54 -33.83,-12.66 -57.92,-45.29 -57.92,-83.54 0,-42.73 30.06,-78.44 70.18,-87.15 -6.78,16.47 -10.8,34.39 -11.46,53.15 z"
           fill="#dfdde2"
           id="path28271" />
        <path
           d="m 339.872,258.316 c -3.61,-21.892 -22.66,-38.646 -45.558,-38.646 -15.935,0 -30.011,8.114 -38.314,20.426 -8.304,-12.312 -22.379,-20.426 -38.314,-20.426 -22.898,0 -41.948,16.755 -45.558,38.646 -25.873,15.545 -43.186,43.88 -43.186,76.261 v 17.659 c 0,49.103 39.805,88.908 88.908,88.908 h 76.302 c 49.102,0 88.908,-39.805 88.908,-88.908 v -17.659 c -10e-4,-32.381 -17.315,-60.716 -43.188,-76.261 z"
           fill="#f9f6f9"
           id="path28273" />
        <path
           d="m 208.329,410.134 c -4.538,-16.742 9.09,-42.816 32.964,-42.816 0,0 -47.479,1.301 -30.876,-30.876 0,0 -11.29,-11.618 -10.035,-27.744 2.918,-21.266 9.337,-39.159 17.77,-50.378 1.27,-17.05 6.76,-30.98 14.01,-36.32 -4.55,-1.51 -9.42,-2.33 -14.47,-2.33 -22.9,0 -41.95,16.75 -45.56,38.65 -25.87,15.54 -43.19,43.88 -43.19,76.26 v 17.66 c 0,49.1 39.81,88.9 88.91,88.9 h 20.93 c -12.18,0 -23.093,-12.025 -30.453,-31.006 z"
           fill="#dfdde2"
           id="path28275" />
        <g
           fill="#454045"
           id="g28281">
          <circle
             cx="217.686"
             cy="265.85199"
             r="20.181999"
             id="circle28277" />
          <circle
             cx="294.314"
             cy="265.85199"
             r="20.181999"
             id="circle28279" />
        </g>
      </g>
      <g
         id="g28299">
        <path
           d="m 428.08,217.14 c 0,-53.31 -43.37,-96.68 -96.68,-96.68 -29.664,0 -57.132,13.335 -75.4,36.146 -18.269,-22.811 -45.736,-36.146 -75.4,-36.146 -53.31,0 -96.68,43.371 -96.68,96.68 0,33.131 16.917,63.742 44.571,81.45 -4.576,11.306 -7.05,23.51 -7.05,35.99 v 17.66 c 0,20.144 6.147,39.435 17.778,55.787 2.4,3.375 7.082,4.167 10.458,1.765 3.376,-2.401 4.166,-7.083 1.765,-10.459 -8.726,-12.269 -13.784,-26.506 -14.8,-41.469 78.215,-21.632 160.487,-21.634 238.702,-0.004 -2.899,42.27 -38.196,75.781 -81.193,75.781 H 217.85 c -17.636,0 -34.422,-5.55 -48.545,-16.049 -3.323,-2.471 -8.022,-1.78 -10.493,1.544 -2.472,3.324 -1.78,8.022 1.544,10.494 16.729,12.437 36.61,19.011 57.494,19.011 h 76.301 c 53.16,0 96.409,-43.245 96.409,-96.4 v -17.66 c 0,-12.479 -2.475,-24.684 -7.05,-35.99 27.654,-17.709 44.57,-48.32 44.57,-81.451 z M 136.44,342.371 v -7.791 c 0,-28.855 14.785,-54.959 39.551,-69.831 1.887,-1.133 3.181,-3.038 3.539,-5.21 3.092,-18.756 19.141,-32.37 38.16,-32.37 12.871,0 24.867,6.4 32.09,17.121 1.394,2.069 3.725,3.31 6.22,3.31 2.495,0 4.826,-1.241 6.22,-3.31 7.223,-10.72 19.219,-17.121 32.09,-17.121 19.02,0 35.068,13.613 38.16,32.37 0.358,2.172 1.652,4.077 3.539,5.21 24.766,14.871 39.551,40.976 39.551,69.831 v 7.791 c -78.437,-20.98 -160.683,-20.98 -239.12,0 z m 240.331,-57.306 c -7.47,-12.472 -17.725,-23.295 -30.176,-31.386 -5.601,-24.251 -27.061,-41.509 -52.285,-41.509 -14.556,0 -28.3,5.889 -38.31,16.107 -10.01,-10.218 -23.754,-16.107 -38.31,-16.107 -25.225,0 -46.685,17.258 -52.285,41.509 -12.451,8.092 -22.706,18.914 -30.176,31.386 C 112.667,269.98 98.92,244.586 98.92,217.14 c 0,-45.039 36.642,-81.68 81.68,-81.68 28.16,0 53.978,14.225 69.063,38.052 1.375,2.172 3.767,3.488 6.337,3.488 2.57,0 4.962,-1.316 6.337,-3.488 15.086,-23.827 40.903,-38.052 69.063,-38.052 45.038,0 81.68,36.642 81.68,81.68 0,27.446 -13.747,52.84 -36.309,67.925 z"
           id="path28285" />
        <ellipse
           cx="159.354"
           cy="202.14"
           rx="22.725"
           ry="33.962002"
           id="ellipse28287" />
        <ellipse
           cx="354.642"
           cy="202.14"
           rx="22.725"
           ry="33.962002"
           id="ellipse28289" />
        <path
           d="m 467.19,186.303 c -0.038,-1.14 -0.065,-2.285 -0.105,-3.425 -1.224,-35.068 -13.497,-68.051 -35.492,-95.38 -2.598,-3.228 -7.318,-3.738 -10.545,-1.141 -3.228,2.597 -3.737,7.318 -1.141,10.545 19.946,24.785 31.077,54.696 32.188,86.501 1.695,48.171 1.695,97.021 0,145.193 -1.303,37.106 -16.493,72.018 -42.774,98.303 -26.288,26.292 -61.189,41.465 -98.274,42.725 -36.525,1.238 -73.565,1.238 -110.091,0 C 163.87,468.364 128.969,453.19 102.681,426.899 76.4,400.614 61.209,365.703 59.907,328.596 58.212,280.425 58.212,231.575 59.907,183.403 61.21,146.297 76.4,111.385 102.681,85.1 128.969,58.808 163.87,43.635 200.955,42.375 c 36.525,-1.238 73.566,-1.238 110.092,0 33.168,1.124 65.283,13.71 90.431,35.439 3.134,2.709 7.87,2.363 10.578,-0.771 2.708,-3.134 2.363,-7.871 -0.771,-10.579 -27.73,-23.962 -63.148,-37.842 -99.729,-39.081 -36.863,-1.25 -74.245,-1.25 -111.108,0 -40.899,1.39 -79.387,18.121 -108.373,47.11 -28.974,28.979 -45.722,67.469 -47.157,108.382 -0.04,1.14 -0.067,2.286 -0.105,3.427 C 19.842,187.853 0,208.648 0,234 v 40.6 c 0,25.321 19.787,46.097 44.705,47.699 0.073,2.274 0.13,4.553 0.21,6.824 1.436,40.913 18.184,79.404 47.157,108.382 28.986,28.99 67.474,45.721 108.374,47.11 18.432,0.625 36.991,0.938 55.553,0.938 18.562,0 37.124,-0.313 55.556,-0.938 40.899,-1.39 79.387,-18.121 108.373,-47.11 28.974,-28.979 45.722,-67.469 47.157,-108.382 0.08,-2.271 0.137,-4.551 0.21,-6.824 C 492.213,320.697 512,299.922 512,274.6 V 234 c 0,-25.352 -19.842,-46.147 -44.81,-47.697 z M 15,274.6 V 234 c 0,-16.92 12.879,-30.886 29.348,-32.617 -0.922,35.185 -0.939,70.633 -0.074,105.835 C 27.84,305.452 15,291.5 15,274.6 Z m 482,0 c 0,16.899 -12.84,30.852 -29.273,32.618 0.864,-35.202 0.847,-70.65 -0.075,-105.835 C 484.121,203.114 497,217.08 497,234 Z"
           id="path28291" />
        <path
           d="m 217.686,238.169 c -15.265,0 -27.683,12.418 -27.683,27.683 0,15.265 12.418,27.683 27.683,27.683 15.265,0 27.683,-12.418 27.683,-27.683 0,-15.265 -12.419,-27.683 -27.683,-27.683 z m 0,40.365 c -6.993,0 -12.683,-5.689 -12.683,-12.683 0,-6.994 5.689,-12.683 12.683,-12.683 6.994,0 12.683,5.689 12.683,12.683 0,6.994 -5.69,12.683 -12.683,12.683 z"
           id="path28293" />
        <path
           d="m 294.314,238.169 c -15.265,0 -27.683,12.418 -27.683,27.683 0,15.265 12.418,27.683 27.683,27.683 15.265,0 27.683,-12.418 27.683,-27.683 0,-15.265 -12.418,-27.683 -27.683,-27.683 z m 0,40.365 c -6.993,0 -12.683,-5.689 -12.683,-12.683 0,-6.994 5.689,-12.683 12.683,-12.683 6.994,0 12.683,5.689 12.683,12.683 0,6.994 -5.689,12.683 -12.683,12.683 z"
           id="path28295" />
        <path
           d="m 204.012,377.609 c 34.496,-4.037 69.48,-4.037 103.977,0 0.297,0.035 0.59,0.052 0.882,0.051 3.752,0 6.992,-2.811 7.439,-6.629 0.481,-4.114 -2.463,-7.839 -6.577,-8.321 -35.654,-4.173 -71.811,-4.173 -107.465,0 -4.114,0.481 -7.059,4.207 -6.577,8.321 0.482,4.115 4.203,7.059 8.321,6.578 z"
           id="path28297" />
      </g>
    </g>
  </g>
</svg>
