<?xml version="1.0" encoding="UTF-8" standalone="no"?>
<svg
   xmlns:dc="http://purl.org/dc/elements/1.1/"
   xmlns:cc="http://creativecommons.org/ns#"
   xmlns:rdf="http://www.w3.org/1999/02/22-rdf-syntax-ns#"
   xmlns:svg="http://www.w3.org/2000/svg"
   xmlns="http://www.w3.org/2000/svg"
   width="600"
   height="300"
   viewBox="0 0 158.75 79.375002"
   version="1.1"
   id="svg8">
  <defs
     id="defs2">
    <rect
       x="33.261906"
       y="1.889881"
       width="32.127975"
       height="25.607887"
       id="rect952" />
    <rect
       x="23.718006"
       y="3.0238094"
       width="21.45015"
       height="20.127232"
       id="rect946" />
  </defs>
  <metadata
     id="metadata5">
    <rdf:RDF>
      <cc:Work
         rdf:about="">
        <dc:format>image/svg+xml</dc:format>
        <dc:type
           rdf:resource="http://purl.org/dc/dcmitype/StillImage" />
        <dc:title></dc:title>
      </cc:Work>
    </rdf:RDF>
  </metadata>
  <g
     id="layer1">
    <g
       transform="matrix(0.14138927,0,0,0.14138927,8.170949,3.6418518)"
       id="g27300">
      <path
         d="m 315.251,254.456 -19.186,-9.744 80.246,-80.356 7.516,-75.107 -23.189,-54.113 c -1.742,-4.055 0.141,-8.758 4.203,-10.501 4.032,-1.75 8.766,0.133 10.501,4.203 l 24.002,56.004 c 0.531,1.242 0.742,2.602 0.609,3.946 l -8.001,80.006 c -0.188,1.836 -1,3.555 -2.305,4.86 L 340.4,222.9 l 63.826,-14.26 68.521,-60.903 15.439,-69.482 c 0.961,-4.313 5.243,-6.977 9.548,-6.079 4.313,0.961 7.032,5.235 6.079,9.548 l -16.001,72.005 c -0.367,1.641 -1.242,3.125 -2.5,4.243 l -72.005,64.005 c -1.016,0.906 -2.242,1.531 -3.571,1.828 l -66.747,14.907 98.398,17.415 c 1.774,0.313 3.391,1.211 4.586,2.563 l 64.005,72.005 c 1.305,1.461 2.024,3.352 2.024,5.313 v 72.005 c 0,4.422 -3.578,8.001 -8.001,8.001 -4.422,0 -8.001,-3.578 -8.001,-8.001 v -68.966 l -60.137,-67.653 -92.841,-16.426 101.709,74.587 c 2.055,1.508 3.266,3.907 3.266,6.454 v 80.006 c 0,1.242 -0.289,2.469 -0.844,3.578 l -32.002,64.005 c -1.406,2.805 -4.227,4.422 -7.165,4.422 -1.203,0 -2.422,-0.273 -3.571,-0.844 -3.953,-1.977 -5.555,-6.782 -3.578,-10.735 l 31.159,-62.317 v -74.06 z"
         fill="#5d5360"
         id="path27260" />
      <path
         d="m 378.334,162.34 c 3.125,-3.125 8.188,-3.125 11.313,0 3.125,3.125 3.125,8.188 0,11.313 l -49.25,49.25 65.853,-14.709 c 4.297,-0.945 8.587,1.75 9.548,6.063 0.969,4.313 -1.75,8.587 -6.063,9.548 l -66.747,14.907 98.398,17.415 c 4.352,0.766 7.258,4.922 6.485,9.266 -0.688,3.883 -4.055,6.61 -7.868,6.61 -0.461,0 -0.93,-0.039 -1.399,-0.125 l -95.584,-16.911 101.71,74.587 c 3.563,2.617 4.328,7.626 1.719,11.188 -1.57,2.133 -4,3.266 -6.461,3.266 -1.641,0 -3.297,-0.5 -4.727,-1.547 l -120.009,-88.006 -19.229,-9.816 z"
         fill="#4b3f4e"
         id="path27262" />
      <path
         d="m 196.749,254.456 19.186,-9.744 -80.246,-80.356 -7.516,-75.107 23.189,-54.113 c 1.742,-4.055 -0.141,-8.758 -4.203,-10.501 -4.032,-1.75 -8.766,0.133 -10.501,4.203 l -24.002,56.004 c -0.531,1.242 -0.742,2.602 -0.609,3.946 l 8.001,80.006 c 0.188,1.836 1,3.555 2.305,4.86 L 171.6,222.9 107.774,208.64 39.253,147.737 23.814,78.255 c -0.961,-4.313 -5.243,-6.977 -9.548,-6.079 -4.313,0.961 -7.032,5.235 -6.079,9.548 l 16.001,72.005 c 0.367,1.641 1.242,3.125 2.5,4.243 l 72.005,64.005 c 1.016,0.906 2.242,1.531 3.571,1.828 l 66.747,14.907 -98.398,17.415 c -1.774,0.313 -3.391,1.211 -4.586,2.563 L 2.024,330.696 C 0.719,332.157 0,334.048 0,336.009 v 72.005 c 0,4.422 3.578,8.001 8.001,8.001 4.423,0 8.001,-3.578 8.001,-8.001 V 339.048 L 76.139,271.395 168.98,254.969 67.271,329.555 c -2.055,1.508 -3.266,3.907 -3.266,6.454 v 80.006 c 0,1.242 0.289,2.469 0.844,3.578 l 32.002,64.005 c 1.406,2.805 4.227,4.422 7.165,4.422 1.203,0 2.422,-0.273 3.571,-0.844 3.953,-1.977 5.555,-6.782 3.578,-10.735 L 80.006,414.124 v -74.06 z"
         fill="#5d5360"
         id="path27264" />
      <g
         fill="#4b3f4e"
         id="g27272">
        <path
           d="m 133.666,162.34 c -3.125,-3.125 -8.188,-3.125 -11.313,0 -3.125,3.125 -3.125,8.188 0,11.313 l 49.25,49.25 -65.853,-14.709 c -4.297,-0.945 -8.587,1.75 -9.548,6.063 -0.969,4.313 1.75,8.587 6.063,9.548 l 66.747,14.907 -98.398,17.415 c -4.352,0.766 -7.258,4.922 -6.485,9.266 0.688,3.883 4.055,6.61 7.868,6.61 0.461,0 0.93,-0.039 1.399,-0.125 L 168.98,254.967 67.27,329.554 c -3.563,2.617 -4.328,7.626 -1.719,11.188 1.57,2.133 4,3.266 6.461,3.266 1.641,0 3.297,-0.5 4.727,-1.547 l 120.009,-88.006 19.229,-9.816 z"
           id="path27266" />
        <path
           d="m 236.017,167.996 c -4.422,0 -8.001,-3.578 -8.001,-8.001 v -24.002 c 0,-4.422 3.578,-8.001 8.001,-8.001 4.423,0 8.001,3.578 8.001,8.001 v 24.002 c 0,4.423 -3.578,8.001 -8.001,8.001 z"
           id="path27268" />
        <path
           d="m 276.02,167.996 c -4.422,0 -8.001,-3.578 -8.001,-8.001 v -24.002 c 0,-4.422 3.578,-8.001 8.001,-8.001 4.422,0 8.001,3.578 8.001,8.001 v 24.002 c 0,4.423 -3.579,8.001 -8.001,8.001 z"
           id="path27270" />
      </g>
      <path
         d="m 312.023,207.999 c 0,7.094 -1.319,13.881 -3.726,20.127 0,0 -28.443,35.877 -52.279,35.877 -30.93,0 -52.852,-25.074 -52.852,-56.004 0,-19.304 6.615,-36.327 21.476,-46.397 8.951,-6.065 19.75,-9.608 31.376,-9.608 30.931,0.001 56.005,25.075 56.005,56.005 z"
         fill="#5d5360"
         id="path27274" />
      <path
         d="m 256.019,216 c -6.987,0 -13.797,0.677 -20.423,1.894 -8.557,1.572 -16.853,-3.542 -18.93,-11.991 -1.022,-4.158 -1.573,-8.5 -1.573,-12.982 0,-11.611 3.499,-22.374 9.55,-31.318 -14.881,10.067 -24.628,27.078 -24.628,46.397 0,10.01 2.675,19.373 7.285,27.497 0.045,0.08 0.084,0.161 0.129,0.24 1.276,2.223 2.711,4.336 4.268,6.356 0.23,0.299 0.461,0.593 0.696,0.887 0.376,0.468 0.723,0.961 1.113,1.417 0.011,-0.05 0.032,-0.098 0.043,-0.147 10.256,12.034 25.413,19.754 42.469,19.754 23.84,0 44.194,-14.886 52.275,-35.878 C 292.486,220.459 274.767,216 256.019,216 Z"
         fill="#4b3f4e"
         id="path27276" />
      <path
         d="m 360.026,336.009 c 0,21.566 -6.564,41.599 -17.803,58.21 -18.696,27.633 -50.329,40.448 -86.205,40.448 -57.442,0 -95.019,-41.216 -95.019,-98.658 0,-35.878 9.177,-67.513 36.813,-86.208 16.61,-11.237 36.641,-17.799 58.205,-17.799 57.444,-0.001 104.009,46.565 104.009,104.007 z"
         fill="#6f6571"
         id="path27278" />
      <path
         d="m 284.021,412.014 c -57.442,0 -104.008,-46.566 -104.008,-104.008 0,-21.564 6.563,-41.596 17.8,-58.206 -27.636,18.696 -45.802,50.331 -45.802,86.208 0,57.442 46.566,104.008 104.008,104.008 35.878,0 67.509,-18.161 86.205,-45.797 -16.611,11.237 -36.639,17.795 -58.203,17.795 z"
         fill="#5d5360"
         id="path27280" />
    </g>
    <g
       transform="matrix(0.16188254,0,0,0.16188254,79.344098,-3.6743524)"
       id="flat">
      <path
         d="m 336,488 h 144 l -3.554,-24.879 a 60,60 0 0 0 -32.564,-45.18 L 296,344 H 216 L 68.118,417.941 a 60,60 0 0 0 -32.564,45.18 L 32,488 h 144"
         fill="#48351b"
         id="path27302" />
      <path
         d="m 424,488 v -32 a 8,8 0 0 1 16,0 v 32 z"
         fill="#332613"
         id="path27304" />
      <path
         d="m 216,344 -64,32 24,48 40,-32 z"
         fill="#5f4623"
         id="path27306" />
      <path
         d="m 208,488 h -32 l -24,-72 56,-24 z"
         fill="#6e5129"
         id="path27308" />
      <path
         d="m 296,344 64,32 -24,48 -40,-32 z"
         fill="#5f4623"
         id="path27310" />
      <path
         d="m 304,488 h 32 l 24,-72 -56,-24 z"
         fill="#6e5129"
         id="path27312" />
      <path
         d="m 296,312 v 19.64 c -0.08,0.06 -0.17,0.11 -0.25,0.17 A 70.9,70.9 0 0 1 216,331.64 V 312 Z"
         fill="#e6af89"
         id="path27314" />
      <path
         d="m 216,312 v 32 l -8,24 48,48 48,-48 -8,-24 v -32 z"
         fill="#fdc9a6"
         id="path27316" />
      <path
         d="m 296,312 v 19.64 c -0.08,0.06 -0.17,0.11 -0.25,0.17 A 70.9,70.9 0 0 1 216,331.64 V 312 Z"
         fill="#e6af89"
         id="path27318" />
      <path
         d="m 304,368 -48,48 -48,-48 v 120 h 96 z"
         fill="#026ca2"
         id="path27320" />
      <path
         d="m 72,488 v -32 a 8,8 0 0 1 16,0 v 32 z"
         fill="#332613"
         id="path27322" />
      <path
         d="m 152,200 v -72.022 a 57.888,57.888 0 0 1 16.955,-40.933 l 14.09,-14.09 A 57.888,57.888 0 0 1 223.978,56 h 44.245 A 57.889,57.889 0 0 1 320,88 44.846,44.846 0 0 1 357.313,107.969 16,16 0 0 1 360,116.844 V 200 Z"
         fill="#55300b"
         id="path27324" />
      <path
         d="M 256,328 A 70.9,70.9 0 0 1 190.173,283.433 198.156,198.156 0 0 1 176,209.837 V 152 l 24,-40.73 H 312 L 336,152 v 57.837 a 198.156,198.156 0 0 1 -14.173,73.6 A 70.9,70.9 0 0 1 256,328 Z"
         fill="#fdc9a6"
         id="path27326" />
      <g
         fill="#55300b"
         id="g27336">
        <path
           d="m 304,184 h -24 a 8,8 0 0 1 0,-16 h 24 a 8,8 0 0 1 0,16 z"
           id="path27328" />
        <circle
           cx="290"
           cy="202"
           r="10"
           id="circle27330" />
        <path
           d="m 232,184 h -24 a 8,8 0 0 1 0,-16 h 24 a 8,8 0 0 1 0,16 z"
           id="path27332" />
        <circle
           cx="222"
           cy="202"
           r="10"
           id="circle27334" />
      </g>
      <path
         d="m 272,280 h -32 a 8,8 0 0 1 0,-16 h 32 a 8,8 0 0 1 0,16 z"
         fill="#e6af89"
         id="path27338" />
      <path
         d="m 264,248 h -16 a 8,8 0 0 1 -8,-8 v -24 a 8,8 0 0 1 16,0 v 16 h 8 a 8,8 0 0 1 0,16 z"
         fill="#e6af89"
         id="path27340" />
      <path
         d="M 176,176 H 164.944 A 20.944,20.944 0 0 0 144,196.944 v 14.112 a 20.944,20.944 0 0 0 2.211,9.366 A 20.944,20.944 0 0 0 164.944,232 H 184 Z"
         fill="#fdc9a6"
         id="path27342" />
      <path
         d="m 336,176 h 11.056 A 20.944,20.944 0 0 1 368,196.944 v 14.112 a 20.944,20.944 0 0 1 -2.211,9.366 A 20.944,20.944 0 0 1 347.056,232 H 328 Z"
         fill="#fdc9a6"
         id="path27344" />
    </g>
  </g>
</svg>
