<?xml version="1.0" encoding="UTF-8" standalone="no"?>
<svg
   xmlns:dc="http://purl.org/dc/elements/1.1/"
   xmlns:cc="http://creativecommons.org/ns#"
   xmlns:rdf="http://www.w3.org/1999/02/22-rdf-syntax-ns#"
   xmlns:svg="http://www.w3.org/2000/svg"
   xmlns="http://www.w3.org/2000/svg"
   width="600"
   height="300"
   viewBox="0 0 158.75 79.375002"
   version="1.1"
   id="svg8">
  <defs
     id="defs2">
    <rect
       id="rect27647"
       height="49.177593"
       width="46.504898"
       y="14.967094"
       x="124.01306" />
    <rect
       x="33.261906"
       y="1.889881"
       width="32.127975"
       height="25.607887"
       id="rect952" />
    <rect
       x="23.718006"
       y="3.0238094"
       width="21.45015"
       height="20.127232"
       id="rect946" />
  </defs>
  <metadata
     id="metadata5">
    <rdf:RDF>
      <cc:Work
         rdf:about="">
        <dc:format>image/svg+xml</dc:format>
        <dc:type
           rdf:resource="http://purl.org/dc/dcmitype/StillImage" />
        <dc:title></dc:title>
      </cc:Work>
    </rdf:RDF>
  </metadata>
  <g
     id="layer1">
    <g
       transform="matrix(0.14628497,0,0,0.14628497,4.7775569,4.8646775)"
       id="g28439">
      <path
         style="fill:#d15241"
         d="m 317.562,167.475 c -13.799,9.086 -27.826,24.357 -39.55,49.516 -1.773,3.804 -3.141,7.778 -4.396,11.783 -9.083,28.982 -62.875,167.712 -263.539,181.218 -4.737,0.319 -8.755,3.648 -9.807,8.278 v 0 c -1.301,5.725 2.247,11.451 7.97,12.759 44.953,10.272 217.647,36.35 312.818,-61.572 31.68,-32.596 127.575,-113.786 95.292,-176.1 -18.712,-36.113 -64.819,-48.249 -98.788,-25.882 z"
         id="path28375" />
      <path
         style="fill:#31978c"
         d="m 414.414,173.658 c -1.259,0 -2.515,-0.497 -3.449,-1.482 -1.809,-1.904 -1.73,-4.914 0.174,-6.725 36.636,-34.788 52.272,-64.713 46.471,-88.952 -7.037,-29.4 -44.181,-40.784 -44.555,-40.895 -2.517,-0.748 -3.95,-3.395 -3.2,-5.913 0.748,-2.522 3.407,-3.948 5.917,-3.2 1.744,0.516 42.788,13.121 51.088,47.792 6.651,27.779 -9.895,60.774 -49.172,98.07 -0.919,0.873 -2.096,1.305 -3.274,1.305 z"
         id="path28377" />
      <path
         style="fill:#44c4a1"
         d="m 399.773,156.797 -40.025,-0.331 c -3.109,-0.026 -4.118,4.167 -1.338,5.559 l 23.136,4.386 5.142,20.775 24.477,5.965 7.246,27.013 c 1.42,2.334 4.978,1.632 5.405,-1.066 l 4.528,-28.562 c 1.692,-10.675 -2.656,-21.411 -11.3,-27.899 v 0 c -4.984,-3.742 -11.037,-5.789 -17.271,-5.84 z"
         id="path28379" />
      <path
         style="fill:#e56353"
         d="m 118.307,423.417 c -3.101,0 -5.79,-2.305 -6.186,-5.463 -0.43,-3.421 1.994,-6.543 5.415,-6.976 104.296,-13.134 125.506,-44.561 125.707,-44.872 1.832,-2.872 5.659,-3.787 8.564,-1.994 2.902,1.787 3.86,5.53 2.119,8.457 -0.887,1.494 -23.006,36.72 -134.829,50.799 -0.266,0.031 -0.528,0.049 -0.79,0.049 z"
         id="path28381" />
      <g
         id="g28383">
</g>
      <g
         id="g28385">
</g>
      <g
         id="g28387">
</g>
      <g
         id="g28389">
</g>
      <g
         id="g28391">
</g>
      <g
         id="g28393">
</g>
      <g
         id="g28395">
</g>
      <g
         id="g28397">
</g>
      <g
         id="g28399">
</g>
      <g
         id="g28401">
</g>
      <g
         id="g28403">
</g>
      <g
         id="g28405">
</g>
      <g
         id="g28407">
</g>
      <g
         id="g28409">
</g>
      <g
         id="g28411">
</g>
    </g>
    <g
       transform="matrix(0.14242801,0,0,0.14242801,80.956955,4.3248304)"
       id="g28538">
      <g
         id="g28506">
        <g
           id="g28504">
          <g
             id="g28502">
            <path
               d="m 135.341,204.606 c 0.748,-0.748 1.743,-1.16 2.802,-1.16 1.105,0 2.128,0.443 2.88,1.247 4.774,5.109 9.234,10.611 13.256,16.353 1.125,1.605 2.961,2.564 4.912,2.564 1.579,0 3.065,-0.617 4.186,-1.738 l 9.846,-9.845 c 0.748,-0.749 1.744,-1.161 2.804,-1.161 1.104,0 2.124,0.442 2.873,1.245 8.448,9.054 15.71,19.164 21.586,30.047 1.033,1.913 3.032,3.102 5.217,3.102 1.587,0 3.08,-0.62 4.205,-1.746 l 4.65,-4.65 c 0.75,-0.749 1.746,-1.162 2.807,-1.162 1.104,0 2.121,0.442 2.866,1.246 18.207,19.629 30.235,44.584 34.784,72.167 h 1.973 c 4.549,-27.583 16.577,-52.538 34.784,-72.167 0.745,-0.803 1.763,-1.246 2.866,-1.246 1.061,0 2.057,0.413 2.807,1.162 l 4.65,4.65 c 1.125,1.125 2.618,1.746 4.205,1.746 2.185,0 4.184,-1.188 5.217,-3.102 5.876,-10.883 13.138,-20.993 21.586,-30.047 0.749,-0.803 1.77,-1.245 2.873,-1.245 1.06,0 2.056,0.412 2.804,1.161 l 9.846,9.845 c 1.12,1.121 2.606,1.738 4.186,1.738 1.951,0 3.788,-0.959 4.912,-2.564 4.021,-5.742 8.481,-11.244 13.256,-16.353 0.752,-0.804 1.774,-1.247 2.88,-1.247 1.059,0 2.054,0.412 2.802,1.16 l 0.544,0.544 c 2.791,-10.032 4.454,-20.441 4.856,-31.126 0.105,-2.793 -2.157,-5.107 -4.952,-5.107 h -6.576 c -3.3,0 -5.69,-3.173 -4.745,-6.335 3.511,-11.749 5.584,-24.061 6.024,-36.762 0.097,-2.793 -2.159,-5.109 -4.954,-5.109 h -13.924 c -3.093,0 -5.4,-2.799 -4.864,-5.844 1.209,-6.866 1.961,-13.902 2.204,-21.076 0.095,-2.795 -2.158,-5.113 -4.955,-5.113 h -16.993 c -2.451,0 -4.517,-1.797 -4.888,-4.22 -5.899,-38.537 -31.696,-69.97 -65.817,-81.983 -1.046,-0.368 -2.194,-0.368 -3.239,0 -34.121,12.013 -59.918,43.446 -65.817,81.983 -0.371,2.423 -2.437,4.22 -4.888,4.22 h -16.993 c -2.797,0 -5.05,2.318 -4.955,5.113 0.243,7.174 0.995,14.21 2.204,21.076 0.536,3.046 -1.771,5.844 -4.864,5.844 h -13.924 c -2.795,0 -5.051,2.315 -4.954,5.109 0.44,12.7 2.514,25.013 6.024,36.762 0.945,3.162 -1.445,6.335 -4.745,6.335 h -6.576 c -2.795,0 -5.057,2.315 -4.952,5.107 0.402,10.685 2.065,21.094 4.856,31.126 z"
               fill="#02905d"
               id="path28494" />
            <g
               id="g28498">
              <path
                 d="m 135.341,204.606 c 0.748,-0.748 1.743,-1.16 2.802,-1.16 1.105,0 2.128,0.443 2.88,1.247 4.774,5.109 9.234,10.611 13.256,16.353 1.125,1.605 2.961,2.564 4.912,2.564 1.579,0 3.065,-0.617 4.186,-1.738 l 9.846,-9.845 c 0.748,-0.749 1.744,-1.161 2.804,-1.161 1.104,0 2.124,0.442 2.873,1.245 0.507,0.543 0.995,1.102 1.493,1.652 -4.431,-12.641 -7.044,-25.962 -7.562,-39.74 -0.105,-2.793 2.157,-5.107 4.952,-5.107 h 6.576 c 3.3,0 5.69,-3.173 4.745,-6.335 -3.511,-11.749 -5.584,-24.061 -6.024,-36.762 -0.097,-2.793 2.159,-5.109 4.954,-5.109 h 13.924 c 3.093,0 5.4,-2.799 4.864,-5.844 -1.209,-6.866 -1.961,-13.902 -2.204,-21.076 -0.095,-2.795 2.158,-5.113 4.955,-5.113 h 16.993 c 2.451,0 4.517,-1.797 4.888,-4.22 4.69,-30.638 21.965,-56.774 45.993,-72.243 -6.194,-3.988 -12.831,-7.278 -19.824,-9.74 -1.046,-0.368 -2.194,-0.368 -3.239,0 -34.121,12.013 -59.918,43.446 -65.817,81.983 -0.371,2.423 -2.437,4.22 -4.888,4.22 h -16.993 c -2.797,0 -5.05,2.318 -4.955,5.113 0.243,7.174 0.995,14.21 2.204,21.076 0.536,3.045 -1.771,5.844 -4.864,5.844 h -13.924 c -2.795,0 -5.051,2.315 -4.954,5.109 0.44,12.7 2.514,25.013 6.024,36.762 0.945,3.162 -1.445,6.335 -4.745,6.335 h -6.576 c -2.795,0 -5.057,2.314 -4.952,5.107 0.402,10.685 2.065,21.094 4.856,31.126 z"
                 fill="#017b4e"
                 id="path28496" />
            </g>
            <path
               d="m 248.5,218.956 v 66.892 c 2.889,8.104 5.077,16.554 6.514,25.267 h 1.973 c 1.437,-8.714 3.625,-17.163 6.514,-25.267 V 170.529 c 23.574,-3.622 41.686,-24.043 41.686,-48.615 0,-4.142 -3.357,-7.5 -7.5,-7.5 -4.143,0 -7.5,3.358 -7.5,7.5 0,16.273 -11.433,29.918 -26.686,33.347 V 63.774 c 0,-4.142 -3.357,-7.5 -7.5,-7.5 -4.143,0 -7.5,3.358 -7.5,7.5 v 48.513 c -11.772,-3.286 -20.437,-14.099 -20.437,-26.905 0,-4.142 -3.357,-7.5 -7.5,-7.5 -4.143,0 -7.5,3.358 -7.5,7.5 0,21.116 15.327,38.707 35.437,42.267 v 76.21 c -24.379,-3.32 -43.141,-22.566 -43.141,-45.742 0,-4.142 -3.357,-7.5 -7.5,-7.5 -4.143,0 -7.5,3.358 -7.5,7.5 -0.001,31.405 25.466,57.354 58.14,60.839 z"
               fill="#026841"
               id="path28500" />
          </g>
        </g>
      </g>
      <g
         id="g28536">
        <g
           id="g28518">
          <g
             id="g28516">
            <g
               id="g28514">
              <path
                 d="m 256.53,314.395 c -4.017,-28.341 -15.79,-54.804 -35.568,-76.127 -1.901,-2.049 -5.137,-2.086 -7.113,-0.11 l -4.65,4.65 c -2.334,2.334 -6.267,1.78 -7.835,-1.124 -5.825,-10.79 -13.065,-20.963 -21.735,-30.254 -1.907,-2.044 -5.139,-2.086 -7.115,-0.109 l -9.845,9.846 c -2.187,2.187 -5.798,1.839 -7.572,-0.694 -4,-5.71 -8.443,-11.217 -13.344,-16.462 -1.909,-2.043 -5.142,-2.089 -7.119,-0.112 l -12.016,12.016 c -1.733,1.733 -4.465,1.923 -6.44,0.472 -31.421,-23.078 -71.889,-27.064 -104.511,-11.431 -1,0.479 -1.812,1.291 -2.291,2.291 -15.633,32.622 -11.648,73.09 11.431,104.511 1.451,1.975 1.26,4.707 -0.472,6.44 L 8.319,330.213 c -1.977,1.977 -1.932,5.21 0.112,7.119 5.245,4.901 10.752,9.345 16.462,13.344 2.533,1.774 2.88,5.385 0.694,7.572 l -9.846,9.846 c -1.976,1.976 -1.934,5.209 0.109,7.115 9.292,8.669 19.464,15.909 30.254,21.735 2.904,1.568 3.458,5.501 1.124,7.835 l -4.65,4.65 c -1.976,1.976 -1.939,5.212 0.11,7.113 49.012,45.46 125.175,48.647 188.894,12.501 0.783,-0.444 1.437,-1.097 1.881,-1.881 12.207,-21.52 19.922,-44.458 23.043,-67.291 -2.107,-15.423 -2.092,-30.734 0.024,-45.476 z"
                 fill="#09a76d"
                 id="path28508" />
              <g
                 id="g28512">
                <path
                   d="m 219.598,425.784 c -52.173,14.188 -106.47,4.37 -144.458,-30.865 -2.049,-1.901 -2.086,-5.137 -0.11,-7.113 l 4.65,-4.65 c 2.334,-2.334 1.78,-6.267 -1.124,-7.835 -10.79,-5.825 -20.963,-13.065 -30.254,-21.735 -2.043,-1.907 -2.086,-5.139 -0.109,-7.115 l 9.846,-9.846 c 2.187,-2.187 1.839,-5.797 -0.694,-7.572 -5.71,-4 -11.217,-8.443 -16.462,-13.344 -2.043,-1.909 -2.089,-5.142 -0.112,-7.119 l 1.36,-1.36 c -0.278,-0.265 -0.561,-0.522 -0.833,-0.794 -2.929,-2.929 -2.929,-7.678 10e-4,-10.606 2.929,-2.929 7.678,-2.929 10.606,0 0.272,0.272 0.553,0.532 0.833,0.794 l 0.048,-0.048 c 1.733,-1.733 1.923,-4.465 0.472,-6.44 -20.483,-27.887 -25.912,-62.897 -15.948,-93.227 -8.862,1.465 -17.497,4.145 -25.643,8.049 -1,0.479 -1.811,1.291 -2.29,2.291 -15.633,32.622 -11.648,73.09 11.431,104.511 1.451,1.975 1.26,4.707 -0.472,6.44 L 8.319,330.213 c -1.977,1.977 -1.931,5.21 0.112,7.119 5.245,4.901 10.752,9.345 16.462,13.344 2.533,1.774 2.88,5.385 0.694,7.572 l -9.846,9.846 c -1.976,1.976 -1.934,5.209 0.109,7.115 9.292,8.669 19.464,15.909 30.254,21.735 2.904,1.568 3.458,5.501 1.124,7.835 l -4.65,4.65 c -1.976,1.976 -1.939,5.212 0.11,7.113 47.573,44.125 120.724,48.42 183.248,15.581 z"
                   fill="#02905d"
                   id="path28510" />
              </g>
            </g>
          </g>
        </g>
        <g
           id="g28534">
          <g
             id="g28532">
            <g
               id="g28530">
              <g
                 id="g28522">
                <path
                   d="m 310.635,241.684 c 5.825,-10.79 13.065,-20.963 21.735,-30.254 1.907,-2.044 5.139,-2.086 7.115,-0.109 l 9.846,9.846 c 2.187,2.187 5.798,1.839 7.572,-0.694 4,-5.71 8.443,-11.217 13.344,-16.462 1.909,-2.043 5.142,-2.089 7.119,-0.112 l 12.016,12.016 c 1.733,1.733 4.465,1.923 6.44,0.472 31.421,-23.078 71.889,-27.064 104.511,-11.431 1,0.479 1.811,1.291 2.29,2.29 15.633,32.622 11.648,73.09 -11.431,104.511 -1.451,1.975 -1.261,4.707 0.472,6.44 l 12.016,12.016 c 1.977,1.977 1.932,5.21 -0.112,7.119 -5.245,4.901 -10.752,9.345 -16.462,13.344 -2.533,1.774 -2.88,5.385 -0.694,7.572 l 9.846,9.846 c 1.976,1.976 1.934,5.209 -0.109,7.115 -9.292,8.669 -19.464,15.909 -30.254,21.735 -2.904,1.568 -3.458,5.501 -1.124,7.835 l 4.65,4.65 c 1.976,1.976 1.939,5.212 -0.11,7.113 -49.012,45.46 -125.175,48.647 -188.894,12.501 -0.784,-0.444 -1.436,-1.097 -1.881,-1.881 -36.146,-63.719 -32.959,-139.882 12.501,-188.894 1.901,-2.049 5.137,-2.086 7.113,-0.11 l 4.65,4.65 c 2.334,2.334 6.268,1.78 7.835,-1.124 z"
                   fill="#02905d"
                   id="path28520" />
              </g>
              <g
                 id="g28526">
                <path
                   d="m 301.855,280.516 c 1.901,-2.049 5.136,-2.086 7.113,-0.11 l 4.65,4.65 c 2.334,2.334 6.267,1.78 7.835,-1.124 5.825,-10.79 13.065,-20.963 21.735,-30.254 1.907,-2.044 5.139,-2.086 7.115,-0.109 l 9.846,9.846 c 2.187,2.187 5.797,1.839 7.572,-0.694 4,-5.71 8.443,-11.217 13.344,-16.462 1.909,-2.043 5.142,-2.089 7.119,-0.112 l 12.016,12.016 c 1.733,1.733 4.465,1.923 6.44,0.472 31.421,-23.078 71.889,-27.064 104.511,-11.431 0.295,0.142 0.568,0.32 0.826,0.516 -0.197,-14.014 -3.295,-27.833 -9.353,-40.473 -0.479,-1 -1.291,-1.811 -2.29,-2.29 -32.622,-15.633 -73.09,-11.648 -104.511,11.431 -1.975,1.451 -4.707,1.261 -6.44,-0.472 L 377.367,203.9 c -1.977,-1.977 -5.21,-1.932 -7.119,0.112 -4.901,5.245 -9.345,10.752 -13.344,16.462 -1.774,2.533 -5.385,2.88 -7.572,0.694 l -9.846,-9.846 c -1.977,-1.976 -5.209,-1.934 -7.115,0.109 -8.669,9.292 -15.909,19.464 -21.735,30.254 -1.568,2.904 -5.502,3.458 -7.835,1.124 l -4.65,-4.65 c -1.976,-1.976 -5.212,-1.939 -7.113,0.11 -39.38,42.456 -47.031,105.285 -24.88,162.751 -5.785,-44.402 5.836,-88.31 35.697,-120.504 z"
                   fill="#017b4e"
                   id="path28524" />
              </g>
              <path
                 d="m 470.702,295.829 c -2.928,-2.93 -7.677,-2.929 -10.606,0 -6.463,6.463 -15.048,10.023 -24.173,10.023 -6.573,0 -12.861,-1.856 -18.283,-5.306 l 34.447,-34.447 c 2.929,-2.929 2.929,-7.678 0,-10.606 -2.93,-2.929 -7.678,-2.929 -10.607,0 l -64.698,64.698 c -3.449,-5.422 -5.306,-11.71 -5.306,-18.283 0,-9.125 3.56,-17.709 10.023,-24.173 2.929,-2.929 2.929,-7.677 0,-10.606 -2.929,-2.929 -7.678,-2.929 -10.606,0 -9.297,9.296 -14.417,21.648 -14.417,34.779 0,10.599 3.34,20.688 9.514,29.074 l -49.209,49.209 c -18.295,-23.046 -18.286,-55.134 1.11,-74.531 2.929,-2.929 2.929,-7.678 0,-10.606 -2.93,-2.929 -7.678,-2.929 -10.607,0 -25.218,25.219 -25.24,66.807 -1.177,95.812 L 256,440.972 205.893,390.865 c 24.062,-29.005 24.041,-70.593 -1.177,-95.812 -2.929,-2.929 -7.677,-2.93 -10.607,0 -2.929,2.929 -2.929,7.678 0,10.606 19.397,19.397 19.405,51.485 1.11,74.531 L 146.01,330.981 c 6.175,-8.386 9.514,-18.475 9.514,-29.074 0,-13.131 -5.12,-25.483 -14.417,-34.779 -2.928,-2.929 -7.677,-2.929 -10.606,0 -2.929,2.929 -2.929,7.678 0,10.606 6.464,6.463 10.023,15.048 10.023,24.173 0,6.573 -1.856,12.862 -5.306,18.283 L 70.52,255.493 c -2.93,-2.929 -7.678,-2.929 -10.607,0 -2.929,2.929 -2.929,7.678 0,10.606 l 34.447,34.447 c -5.422,3.449 -11.71,5.306 -18.283,5.306 -9.125,0 -17.71,-3.56 -24.173,-10.023 -2.929,-2.929 -7.678,-2.929 -10.606,0 -2.93,2.929 -2.93,7.677 -0.001,10.606 9.296,9.296 21.648,14.417 34.78,14.417 10.598,0 20.688,-3.34 29.074,-9.515 l 53.817,53.817 c -19.587,14.891 -46.462,14.549 -62.85,-1.84 -2.93,-2.929 -7.678,-2.929 -10.607,0 -2.929,2.929 -2.929,7.678 0,10.606 11.401,11.4 26.526,17.041 42.012,17.041 14.681,0 29.68,-5.083 42.125,-15.128 l 78.853,78.853 v 47.616 c 0,4.142 3.357,7.5 7.5,7.5 4.143,0 7.5,-3.358 7.5,-7.5 v -47.616 l 78.853,-78.853 c 12.445,10.046 27.442,15.128 42.125,15.128 15.483,0 30.612,-5.642 42.012,-17.041 2.929,-2.929 2.929,-7.678 0,-10.606 -2.93,-2.929 -7.678,-2.929 -10.607,0 -16.387,16.388 -43.263,16.73 -62.85,1.84 l 28.46,-28.46 c 0.002,-0.002 0.005,-0.004 0.007,-0.006 0.002,-0.002 0.004,-0.005 0.006,-0.007 l 25.344,-25.344 c 8.386,6.175 18.475,9.515 29.074,9.515 13.132,0 25.484,-5.12 34.78,-14.417 2.927,-2.929 2.927,-7.677 -0.003,-10.606 z"
                 fill="#017b4e"
                 id="path28528" />
            </g>
          </g>
        </g>
      </g>
    </g>
  </g>
</svg>
