<?xml version="1.0" encoding="UTF-8" standalone="no"?>
<svg
   xmlns:dc="http://purl.org/dc/elements/1.1/"
   xmlns:cc="http://creativecommons.org/ns#"
   xmlns:rdf="http://www.w3.org/1999/02/22-rdf-syntax-ns#"
   xmlns:svg="http://www.w3.org/2000/svg"
   xmlns="http://www.w3.org/2000/svg"
   width="500"
   height="250"
   viewBox="0 0 132.29166 66.145835"
   version="1.1"
   id="svg8">
  <defs
     id="defs2">
    <rect
       id="rect16657"
       height="39.6875"
       width="52.916666"
       y="16.536458"
       x="16.123047" />
    <rect
       id="rect14952"
       height="41.217972"
       width="28.355626"
       y="11.693042"
       x="56.1266" />
    <rect
       id="rect12397"
       height="46.715494"
       width="47.955729"
       y="8.6816405"
       x="71.933593" />
    <rect
       id="rect10750"
       height="32.448191"
       width="43.55658"
       y="16.95491"
       x="54.080318" />
    <rect
       id="rect10116"
       height="31.278887"
       width="27.917137"
       y="16.808747"
       x="101.14481" />
    <rect
       id="rect9439"
       height="25.14004"
       width="57.003578"
       y="26.309344"
       x="5.2618688" />
    <rect
       id="rect8476"
       height="26.60167"
       width="35.663777"
       y="22.216779"
       x="51.449384" />
    <rect
       id="rect8111"
       height="60.358072"
       width="46.715494"
       y="-7.4414062"
       x="111.20768" />
    <rect
       id="rect5692"
       height="31.419271"
       width="28.318685"
       y="19.223633"
       x="111.62109" />
    <rect
       id="rect4959"
       height="36.793619"
       width="38.447265"
       y="12.815755"
       x="87.436523" />
    <rect
       id="rect3591"
       height="32.246093"
       width="36.586914"
       y="17.569987"
       x="2.6871745" />
    <rect
       x="33.261906"
       y="1.889881"
       width="32.127975"
       height="25.607887"
       id="rect952" />
    <rect
       x="23.718006"
       y="3.0238094"
       width="21.45015"
       height="20.127232"
       id="rect946" />
    <rect
       id="rect952-5"
       height="25.607887"
       width="32.127975"
       y="1.889881"
       x="33.261906" />
    <rect
       id="rect1246"
       height="25.607887"
       width="32.127975"
       y="1.889881"
       x="33.261906" />
    <rect
       id="rect2592"
       height="20.127232"
       width="21.45015"
       y="3.0238094"
       x="23.718006" />
    <rect
       x="23.718006"
       y="3.0238094"
       width="21.45015"
       height="20.127232"
       id="rect2600" />
    <rect
       id="rect2608"
       height="20.127232"
       width="21.45015"
       y="3.0238094"
       x="23.718006" />
    <rect
       x="2.6871746"
       y="17.569986"
       width="36.586914"
       height="32.246094"
       id="rect3591-5" />
    <rect
       x="2.6871746"
       y="17.569986"
       width="36.586914"
       height="32.246094"
       id="rect4205" />
    <rect
       x="111.20768"
       y="-7.4414062"
       width="46.715494"
       height="60.358072"
       id="rect8139" />
    <rect
       x="51.449384"
       y="22.216779"
       width="35.663777"
       height="26.60167"
       id="rect8484" />
    <rect
       x="16.123047"
       y="16.536458"
       width="52.916666"
       height="39.6875"
       id="rect16854" />
    <rect
       x="16.123047"
       y="16.536458"
       width="52.916666"
       height="39.6875"
       id="rect16860" />
  </defs>
  <metadata
     id="metadata5">
    <rdf:RDF>
      <cc:Work
         rdf:about="">
        <dc:format>image/svg+xml</dc:format>
        <dc:type
           rdf:resource="http://purl.org/dc/dcmitype/StillImage" />
        <dc:title></dc:title>
      </cc:Work>
    </rdf:RDF>
  </metadata>
  <g
     transform="matrix(0.26458333,0,0,0.26458333,71.999739,33.965621)"
     id="g14585">
</g>
  <g
     transform="matrix(0.26458333,0,0,0.26458333,71.999739,33.965621)"
     id="g14587">
</g>
  <g
     transform="matrix(0.26458333,0,0,0.26458333,71.999739,33.965621)"
     id="g14589">
</g>
  <g
     transform="matrix(0.26458333,0,0,0.26458333,71.999739,33.965621)"
     id="g14591">
</g>
  <g
     transform="matrix(0.26458333,0,0,0.26458333,71.999739,33.965621)"
     id="g14593">
</g>
  <g
     transform="matrix(0.26458333,0,0,0.26458333,71.999739,33.965621)"
     id="g14595">
</g>
  <g
     transform="matrix(0.26458333,0,0,0.26458333,71.999739,33.965621)"
     id="g14597">
</g>
  <g
     transform="matrix(0.26458333,0,0,0.26458333,71.999739,33.965621)"
     id="g14599">
</g>
  <g
     transform="matrix(0.26458333,0,0,0.26458333,71.999739,33.965621)"
     id="g14601">
</g>
  <g
     transform="matrix(0.26458333,0,0,0.26458333,71.999739,33.965621)"
     id="g14603">
</g>
  <g
     transform="matrix(0.26458333,0,0,0.26458333,71.999739,33.965621)"
     id="g14605">
</g>
  <g
     transform="matrix(0.26458333,0,0,0.26458333,71.999739,33.965621)"
     id="g14607">
</g>
  <g
     transform="matrix(0.26458333,0,0,0.26458333,71.999739,33.965621)"
     id="g14609">
</g>
  <g
     transform="matrix(0.26458333,0,0,0.26458333,71.999739,33.965621)"
     id="g14611">
</g>
  <g
     transform="matrix(0.26458333,0,0,0.26458333,71.999739,33.965621)"
     id="g14613">
</g>
  <text
     xml:space="preserve"
     id="text16858"
     style="font-style:normal;font-variant:normal;font-weight:bold;font-stretch:normal;font-size:10.5833px;line-height:1.25;font-family:sans-serif;-inkscape-font-specification:'sans-serif Bold';white-space:pre;shape-inside:url(#rect16860);fill:#000000;fill-opacity:1;stroke:none;"
     transform="matrix(2.1130036,0,0,2.1130036,-25.759707,-14.465759)"><tspan
       x="16.123047"
       y="26.192574"><tspan
         style="font-style:normal;font-variant:normal;font-weight:bold;font-stretch:normal;font-family:sans-serif;-inkscape-font-specification:'sans-serif Bold'">POP</tspan></tspan></text>
  <g
     transform="matrix(0.04738847,0,0,0.04738847,87.295371,6.2649351)"
     id="g16976">
    <path
       style="fill:#cfd8dc"
       d="M 178.229,376.467 135.562,333.8 c -2.182,-2.236 -5.25,-3.378 -8.363,-3.115 -3.092,0.223 -5.935,1.78 -7.787,4.267 l -117.269,160 c -3.535,4.713 -2.58,11.399 2.133,14.933 3.793,2.844 9.007,2.844 12.8,0 l 160,-117.333 c 4.752,-3.481 5.783,-10.156 2.302,-14.908 -0.323,-0.44 -0.678,-0.855 -1.064,-1.241 z"
       id="path16909" />
    <path
       style="fill:#d32f2f"
       d="M 316.895,301.8 210.229,195.134 c -17.945,-13.971 -40.303,-21.048 -63.019,-19.947 -29.736,-1.04 -58.626,10.003 -80.085,30.613 -17.323,17.323 -15.531,44.096 5.333,79.595 19.704,30.896 42.975,59.365 69.333,84.821 42.432,42.411 96,86.485 135.04,86.485 11.003,0.279 21.632,-3.998 29.376,-11.819 44.416,-44.394 33.344,-120.404 10.688,-143.082 z"
       id="path16911" />
    <path
       style="fill:#f44336"
       d="M 402.229,216.467 295.562,109.8 c -4.165,-4.164 -10.917,-4.164 -15.083,0 l -85.333,85.333 c -13.952,13.952 -12.8,44.8 32,89.749 29.248,29.248 52.565,39.893 69.12,39.893 7.662,0.271 15.105,-2.577 20.629,-7.893 l 85.333,-85.333 c 4.165,-4.165 4.165,-10.917 10e-4,-15.082 z"
       id="path16913" />
    <path
       style="fill:#d32f2f"
       d="m 511.199,187.944 c -1.649,-3.989 -5.54,-6.591 -9.856,-6.592 -23.125,0 -73.899,-25.003 -109.781,-60.885 C 355.68,84.585 330.677,33.832 330.677,10.686 330.687,4.795 325.92,0.011 320.029,0 c -2.84,-0.005 -5.565,1.123 -7.571,3.134 -43.563,43.584 -57.173,117.909 10.667,185.749 25.809,28.681 62.137,45.683 100.693,47.125 32.07,-0.368 62.675,-13.486 85.056,-36.459 3.047,-3.043 3.964,-7.621 2.325,-11.605 z"
       id="path16915" />
    <path
       style="fill:#f44336"
       d="M 444.895,67.134 C 399.711,21.971 358.858,0.019 320.01,0.019 c -5.891,0 -10.667,4.776 -10.667,10.667 0,31.851 30.123,87.872 67.115,124.885 36.992,37.013 93.056,67.115 124.885,67.115 5.891,0 10.667,-4.776 10.667,-10.667 0,-38.869 -21.952,-79.723 -67.115,-124.885 z"
       id="path16917" />
    <g
       id="g16919">
</g>
    <g
       id="g16921">
</g>
    <g
       id="g16923">
</g>
    <g
       id="g16925">
</g>
    <g
       id="g16927">
</g>
    <g
       id="g16929">
</g>
    <g
       id="g16931">
</g>
    <g
       id="g16933">
</g>
    <g
       id="g16935">
</g>
    <g
       id="g16937">
</g>
    <g
       id="g16939">
</g>
    <g
       id="g16941">
</g>
    <g
       id="g16943">
</g>
    <g
       id="g16945">
</g>
    <g
       id="g16947">
</g>
  </g>
  <g
     id="g17018"
     transform="matrix(0.04738847,0,0,0.04738847,87.295371,32.103151)">
    <path
       id="path16978"
       d="M 178.229,376.467 135.562,333.8 c -2.182,-2.236 -5.25,-3.378 -8.363,-3.115 -3.092,0.223 -5.935,1.78 -7.787,4.267 l -117.269,160 c -3.535,4.713 -2.58,11.399 2.133,14.933 3.793,2.844 9.007,2.844 12.8,0 l 160,-117.333 c 4.752,-3.481 5.783,-10.156 2.302,-14.908 -0.323,-0.44 -0.678,-0.855 -1.064,-1.241 z"
       style="fill:#cfd8dc" />
    <path
       id="path16980"
       d="M 316.895,301.8 210.229,195.134 c -17.945,-13.971 -40.303,-21.048 -63.019,-19.947 -29.736,-1.04 -58.626,10.003 -80.085,30.613 -17.323,17.323 -15.531,44.096 5.333,79.595 19.704,30.896 42.975,59.365 69.333,84.821 42.432,42.411 96,86.485 135.04,86.485 11.003,0.279 21.632,-3.998 29.376,-11.819 44.416,-44.394 33.344,-120.404 10.688,-143.082 z"
       style="fill:#4f47cf;fill-opacity:1" />
    <path
       id="path16982"
       d="M 402.229,216.467 295.562,109.8 c -4.165,-4.164 -10.917,-4.164 -15.083,0 l -85.333,85.333 c -13.952,13.952 -12.8,44.8 32,89.749 29.248,29.248 52.565,39.893 69.12,39.893 7.662,0.271 15.105,-2.577 20.629,-7.893 l 85.333,-85.333 c 4.165,-4.165 4.165,-10.917 10e-4,-15.082 z"
       style="fill:#8d5fdf;fill-opacity:1" />
    <path
       id="path16984"
       d="m 511.199,187.944 c -1.649,-3.989 -5.54,-6.591 -9.856,-6.592 -23.125,0 -73.899,-25.003 -109.781,-60.885 C 355.68,84.585 330.677,33.832 330.677,10.686 330.687,4.795 325.92,0.011 320.029,0 c -2.84,-0.005 -5.565,1.123 -7.571,3.134 -43.563,43.584 -57.173,117.909 10.667,185.749 25.809,28.681 62.137,45.683 100.693,47.125 32.07,-0.368 62.675,-13.486 85.056,-36.459 3.047,-3.043 3.964,-7.621 2.325,-11.605 z"
       style="fill:#4f47cf;fill-opacity:1" />
    <path
       id="path16986"
       d="M 444.895,67.134 C 399.711,21.971 358.858,0.019 320.01,0.019 c -5.891,0 -10.667,4.776 -10.667,10.667 0,31.851 30.123,87.872 67.115,124.885 36.992,37.013 93.056,67.115 124.885,67.115 5.891,0 10.667,-4.776 10.667,-10.667 0,-38.869 -21.952,-79.723 -67.115,-124.885 z"
       style="fill:#8d5fdf;fill-opacity:1" />
    <g
       id="g16988">
</g>
    <g
       id="g16990">
</g>
    <g
       id="g16992">
</g>
    <g
       id="g16994">
</g>
    <g
       id="g16996">
</g>
    <g
       id="g16998">
</g>
    <g
       id="g17000">
</g>
    <g
       id="g17002">
</g>
    <g
       id="g17004">
</g>
    <g
       id="g17006">
</g>
    <g
       id="g17008">
</g>
    <g
       id="g17010">
</g>
    <g
       id="g17012">
</g>
    <g
       id="g17014">
</g>
    <g
       id="g17016">
</g>
  </g>
</svg>
