<?xml version="1.0" encoding="UTF-8" standalone="no"?>
<svg
   xmlns:dc="http://purl.org/dc/elements/1.1/"
   xmlns:cc="http://creativecommons.org/ns#"
   xmlns:rdf="http://www.w3.org/1999/02/22-rdf-syntax-ns#"
   xmlns:svg="http://www.w3.org/2000/svg"
   xmlns="http://www.w3.org/2000/svg"
   width="500"
   height="250"
   viewBox="0 0 132.29166 66.145835"
   version="1.1"
   id="svg8">
  <defs
     id="defs2">
    <rect
       id="rect17555"
       height="33.899739"
       width="45.47526"
       y="14.469401"
       x="64.905598" />
    <rect
       id="rect16657"
       height="39.6875"
       width="52.916666"
       y="16.536458"
       x="16.123047" />
    <rect
       id="rect14952"
       height="41.217972"
       width="28.355626"
       y="11.693042"
       x="56.1266" />
    <rect
       id="rect12397"
       height="46.715494"
       width="47.955729"
       y="8.6816405"
       x="71.933593" />
    <rect
       id="rect10750"
       height="32.448191"
       width="43.55658"
       y="16.95491"
       x="54.080318" />
    <rect
       id="rect10116"
       height="31.278887"
       width="27.917137"
       y="16.808747"
       x="101.14481" />
    <rect
       id="rect9439"
       height="25.14004"
       width="57.003578"
       y="26.309344"
       x="5.2618688" />
    <rect
       id="rect8476"
       height="26.60167"
       width="35.663777"
       y="22.216779"
       x="51.449384" />
    <rect
       id="rect8111"
       height="60.358072"
       width="46.715494"
       y="-7.4414062"
       x="111.20768" />
    <rect
       id="rect5692"
       height="31.419271"
       width="28.318685"
       y="19.223633"
       x="111.62109" />
    <rect
       id="rect4959"
       height="36.793619"
       width="38.447265"
       y="12.815755"
       x="87.436523" />
    <rect
       id="rect3591"
       height="32.246093"
       width="36.586914"
       y="17.569987"
       x="2.6871745" />
    <rect
       x="33.261906"
       y="1.889881"
       width="32.127975"
       height="25.607887"
       id="rect952" />
    <rect
       x="23.718006"
       y="3.0238094"
       width="21.45015"
       height="20.127232"
       id="rect946" />
    <rect
       id="rect952-5"
       height="25.607887"
       width="32.127975"
       y="1.889881"
       x="33.261906" />
    <rect
       id="rect1246"
       height="25.607887"
       width="32.127975"
       y="1.889881"
       x="33.261906" />
    <rect
       id="rect2592"
       height="20.127232"
       width="21.45015"
       y="3.0238094"
       x="23.718006" />
    <rect
       x="23.718006"
       y="3.0238094"
       width="21.45015"
       height="20.127232"
       id="rect2600" />
    <rect
       id="rect2608"
       height="20.127232"
       width="21.45015"
       y="3.0238094"
       x="23.718006" />
    <rect
       x="2.6871746"
       y="17.569986"
       width="36.586914"
       height="32.246094"
       id="rect3591-5" />
    <rect
       x="2.6871746"
       y="17.569986"
       width="36.586914"
       height="32.246094"
       id="rect4205" />
    <rect
       x="111.20768"
       y="-7.4414062"
       width="46.715494"
       height="60.358072"
       id="rect8139" />
    <rect
       x="51.449384"
       y="22.216779"
       width="35.663777"
       height="26.60167"
       id="rect8484" />
    <rect
       x="16.123047"
       y="16.536458"
       width="52.916666"
       height="39.6875"
       id="rect16854" />
    <rect
       x="16.123047"
       y="16.536458"
       width="52.916666"
       height="39.6875"
       id="rect16860" />
    <rect
       x="64.905598"
       y="14.469401"
       width="45.47526"
       height="33.899739"
       id="rect17563" />
    <rect
       x="64.905598"
       y="14.469401"
       width="45.47526"
       height="33.899739"
       id="rect20027" />
  </defs>
  <metadata
     id="metadata5">
    <rdf:RDF>
      <cc:Work
         rdf:about="">
        <dc:format>image/svg+xml</dc:format>
        <dc:type
           rdf:resource="http://purl.org/dc/dcmitype/StillImage" />
        <dc:title></dc:title>
      </cc:Work>
    </rdf:RDF>
  </metadata>
  <g
     transform="matrix(0.26458333,0,0,0.26458333,71.999739,33.965621)"
     id="g14585">
</g>
  <g
     transform="matrix(0.26458333,0,0,0.26458333,71.999739,33.965621)"
     id="g14587">
</g>
  <g
     transform="matrix(0.26458333,0,0,0.26458333,71.999739,33.965621)"
     id="g14589">
</g>
  <g
     transform="matrix(0.26458333,0,0,0.26458333,71.999739,33.965621)"
     id="g14591">
</g>
  <g
     transform="matrix(0.26458333,0,0,0.26458333,71.999739,33.965621)"
     id="g14593">
</g>
  <g
     transform="matrix(0.26458333,0,0,0.26458333,71.999739,33.965621)"
     id="g14595">
</g>
  <g
     transform="matrix(0.26458333,0,0,0.26458333,71.999739,33.965621)"
     id="g14597">
</g>
  <g
     transform="matrix(0.26458333,0,0,0.26458333,71.999739,33.965621)"
     id="g14599">
</g>
  <g
     transform="matrix(0.26458333,0,0,0.26458333,71.999739,33.965621)"
     id="g14601">
</g>
  <g
     transform="matrix(0.26458333,0,0,0.26458333,71.999739,33.965621)"
     id="g14603">
</g>
  <g
     transform="matrix(0.26458333,0,0,0.26458333,71.999739,33.965621)"
     id="g14605">
</g>
  <g
     transform="matrix(0.26458333,0,0,0.26458333,71.999739,33.965621)"
     id="g14607">
</g>
  <g
     transform="matrix(0.26458333,0,0,0.26458333,71.999739,33.965621)"
     id="g14609">
</g>
  <g
     transform="matrix(0.26458333,0,0,0.26458333,71.999739,33.965621)"
     id="g14611">
</g>
  <g
     transform="matrix(0.26458333,0,0,0.26458333,71.999739,33.965621)"
     id="g14613">
</g>
  <text
     xml:space="preserve"
     id="text20025"
     style="font-style:normal;font-variant:normal;font-weight:bold;font-stretch:normal;font-size:10.5833px;line-height:1.25;font-family:sans-serif;-inkscape-font-specification:'sans-serif Bold';white-space:pre;shape-inside:url(#rect20027);fill:#000000;fill-opacity:1;stroke:none;"
     transform="matrix(1.5508106,0,0,1.5508106,-89.063785,1.4876492)"><tspan
       x="64.90625"
       y="24.124215"><tspan
         style="font-style:normal;font-variant:normal;font-weight:bold;font-stretch:normal;font-family:sans-serif;-inkscape-font-specification:'sans-serif Bold'">SAM</tspan></tspan></text>
  <g
     transform="matrix(0.10429881,0,0,0.10429881,65.693181,5.3351099)"
     id="Flat">
    <path
       d="m 240,376 v 46 l -40,50 -72,-64 H 104 L 48,368 78.25,346.75 86.08,330.51 100.67,300.22 136,312 l 8,48 30.55,17.45 L 192,360 l 3,-4.75 z"
       fill="#f4ceaf"
       id="path27756" />
    <path
       d="m 116.73125,378.17917 a 4.85731,4.85731 0 0 1 -6.43724,-0.95792 62.16824,62.16824 0 0 1 -14.22393,-36.90143 40.688,40.688 0 0 1 -9.99,-9.81 L 90.17243,322.01367 104,336 l 14.541,36.35244 a 4.84171,4.84171 0 0 1 -1.80975,5.82673 z"
       fill="#f2c194"
       id="path27758" />
    <path
       d="M 496,304 V 496 H 232 V 384 l -72.16992,-41.35986 41.81006,-58.54 A 48.014,48.014 0 0 1 240.7,264 h 31.24 A 24.06472,24.06472 0 0 0 296,239.93994 v -62.25 L 376,176 v 64 A 23.98552,23.98552 0 0 0 392.32007,262.73 23.51785,23.51785 0 0 0 400,264 h 36.12012 a 48.00341,48.00341 0 0 1 33.93994,14.06006 z"
       fill="#8acce7"
       id="path27760" />
    <circle
       cx="320"
       cy="112"
       fill="#2f4054"
       r="88"
       id="circle27762" />
    <path
       d="M 392.32007,262.73 392,264 a 42.243,42.243 0 0 1 -40.99,32 H 320.99 A 42.243,42.243 0 0 1 280,264 l -0.32007,-1.28027 A 24.03019,24.03019 0 0 0 294.60986,247.98 23.78436,23.78436 0 0 0 296,239.94 V 137.69 L 376,136 v 104 a 23.98552,23.98552 0 0 0 16.32007,22.73 z"
       fill="#f4ceaf"
       id="path27764" />
    <path
       d="m 352,128 a 16,16 0 0 1 16,-16 16,16 0 0 1 16,16 v 32 a 16,16 0 0 1 -16,16 16,16 0 0 1 -16,-16 z"
       fill="#f2c194"
       id="path27766" />
    <path
       d="m 352,232 h -56 a 64,64 0 0 1 -64,-64 v -56 l 0.40206,-0.40206 A 135.19581,135.19581 0 0 1 327.99994,72 H 328 l 1.37261,1.37261 A 77.25476,77.25476 0 0 1 352,128 Z"
       fill="#f4ceaf"
       id="path27768" />
    <path
       d="m 352,232 v 16 h -56 c -0.46,0 -0.92993,0 -1.39014,-0.02 A 23.78436,23.78436 0 0 0 296,239.94 V 232 Z"
       fill="#f4ceaf"
       id="path27770" />
    <path
       d="m 264,120 h -16 a 8,8 0 0 1 0,-16 h 16 a 8,8 0 0 1 0,16 z"
       fill="#2f4054"
       id="path27772" />
    <path
       d="m 320,120 h -16 a 8,8 0 0 1 0,-16 h 16 a 8,8 0 0 1 0,16 z"
       fill="#2f4054"
       id="path27774" />
    <path
       d="m 272.001,160.002 a 8.00445,8.00445 0 0 1 -7.59082,-10.53222 l 8,-24 a 8.0005,8.0005 0 0 1 15.17968,5.06054 l -8,24 A 8.00486,8.00486 0 0 1 272.001,160.002 Z"
       fill="#f2c194"
       id="path27776" />
    <circle
       cx="256"
       cy="136"
       fill="#2f4054"
       r="8"
       id="circle27778" />
    <circle
       cx="312"
       cy="136"
       fill="#2f4054"
       r="8"
       id="circle27780" />
    <path
       d="m 288,216 h -8 a 8,8 0 0 1 0,-16 h 8 a 8,8 0 0 0 0,-16 h -16 a 8,8 0 0 1 0,-16 h 16 a 24,24 0 0 1 0,48 z"
       fill="#f2c194"
       id="path27782" />
    <path
       d="m 352,240 a 8,8 0 0 1 -8,8 h -48 c -0.46,0 -0.92993,0 -1.39014,-0.02 A 23.78436,23.78436 0 0 0 296,239.94 V 232 h 48 a 8,8 0 0 1 8,8 z"
       fill="#f2c194"
       id="path27784" />
    <path
       d="m 232,352 h 16 v 144 h -16 z"
       fill="#379ec3"
       id="path27786" />
    <path
       d="M 207.94,378.11 200,392 174.55,377.45 186.27,365.73 Z"
       fill="#f2c194"
       id="path27788" />
    <path
       d="M 144,272 127.57,300.75 97.89,352.7 48,440 24,424 96,248 Z"
       fill="#396795"
       id="path27790" />
    <path
       d="m 184,224 a 47.99674,47.99674 0 1 1 -48,-48 47.918,47.918 0 0 1 48,48 z"
       fill="#2f4054"
       id="path27792" />
    <path
       d="m 183.55005,230.6001 a 47.69435,47.69435 0 0 1 -12.39014,26.06006 L 89.99,210.28 a 47.97649,47.97649 0 0 1 16.18994,-23.88989 z"
       fill="#c4d4e0"
       id="path27794" />
    <path
       d="m 424,352 h 16 v 144 h -16 z"
       fill="#379ec3"
       id="path27796" />
    <path
       d="M 440,496 439.914,384 496,351.809 V 496 Z"
       fill="#f4ceaf"
       id="path27798" />
    <path
       d="M 123.52,307.83984 97.89014,352.7002 A 62.24087,62.24087 0 0 1 96.07007,340.31982 41.21577,41.21577 0 0 1 80.40991,293.46973 Z"
       fill="#26507a"
       id="path27800" />
    <path
       d="m 168,32 h -64 a 8.00039,8.00039 0 0 0 -8,8 V 81.37622 A 23.99787,23.99787 0 1 0 112,104 V 48 h 48 V 81.37622 A 23.99787,23.99787 0 1 0 176,104 V 40 a 8.00039,8.00039 0 0 0 -8,-8 z m -80,80 a 8,8 0 1 1 8,-8 8.00917,8.00917 0 0 1 -8,8 z m 64,0 a 8,8 0 1 1 8,-8 8.00917,8.00917 0 0 1 -8,8 z"
       fill="#349966"
       id="path27802" />
    <path
       d="m 104.84009,334.31006 -7.65015,15.2998 -18.03,36.08008 a 16.00172,16.00172 0 0 1 -21.47,7.1499 l -19.37988,-9.67968 a 16.002,16.002 0 0 1 -7.15015,-21.47022 l 25.68018,-51.37988 a 16.00172,16.00172 0 0 1 21.47,-7.1499 l 0.12988,0.0596 19.25,9.62011 a 16.002,16.002 0 0 1 7.15012,21.47022 z"
       fill="#f4ceaf"
       id="path27804" />
    <path
       d="m 104.84009,334.31006 -7.65015,15.2998 a 62.21148,62.21148 0 0 1 -1.11987,-9.29 41.22876,41.22876 0 0 1 -17.63013,-37.10009 l 19.25,9.62011 a 16.002,16.002 0 0 1 7.15015,21.47018 z"
       fill="#f2c194"
       id="path27806" />
    <path
       d="m 144,360 -8,-48 -48,-16 a 33.12167,33.12167 0 0 0 13.04938,38.03289 L 104,336 v 1.37261 A 54.62737,54.62737 0 0 0 120,376 Z"
       fill="#f4ceaf"
       id="path27808" />
  </g>
</svg>
