<?xml version="1.0" encoding="UTF-8" standalone="no"?>
<svg
   xmlns:dc="http://purl.org/dc/elements/1.1/"
   xmlns:cc="http://creativecommons.org/ns#"
   xmlns:rdf="http://www.w3.org/1999/02/22-rdf-syntax-ns#"
   xmlns:svg="http://www.w3.org/2000/svg"
   xmlns="http://www.w3.org/2000/svg"
   width="500"
   height="250"
   viewBox="0 0 132.29166 66.145835"
   version="1.1"
   id="svg8">
  <defs
     id="defs2">
    <rect
       id="rect17555"
       height="33.899739"
       width="45.47526"
       y="14.469401"
       x="64.905598" />
    <rect
       id="rect16657"
       height="39.6875"
       width="52.916666"
       y="16.536458"
       x="16.123047" />
    <rect
       id="rect14952"
       height="41.217972"
       width="28.355626"
       y="11.693042"
       x="56.1266" />
    <rect
       id="rect12397"
       height="46.715494"
       width="47.955729"
       y="8.6816405"
       x="71.933593" />
    <rect
       id="rect10750"
       height="32.448191"
       width="43.55658"
       y="16.95491"
       x="54.080318" />
    <rect
       id="rect10116"
       height="31.278887"
       width="27.917137"
       y="16.808747"
       x="101.14481" />
    <rect
       id="rect9439"
       height="25.14004"
       width="57.003578"
       y="26.309344"
       x="5.2618688" />
    <rect
       id="rect8476"
       height="26.60167"
       width="35.663777"
       y="22.216779"
       x="51.449384" />
    <rect
       id="rect8111"
       height="60.358072"
       width="46.715494"
       y="-7.4414062"
       x="111.20768" />
    <rect
       id="rect5692"
       height="31.419271"
       width="28.318685"
       y="19.223633"
       x="111.62109" />
    <rect
       id="rect4959"
       height="36.793619"
       width="38.447265"
       y="12.815755"
       x="87.436523" />
    <rect
       id="rect3591"
       height="32.246093"
       width="36.586914"
       y="17.569987"
       x="2.6871745" />
    <rect
       x="33.261906"
       y="1.889881"
       width="32.127975"
       height="25.607887"
       id="rect952" />
    <rect
       x="23.718006"
       y="3.0238094"
       width="21.45015"
       height="20.127232"
       id="rect946" />
    <rect
       id="rect952-5"
       height="25.607887"
       width="32.127975"
       y="1.889881"
       x="33.261906" />
    <rect
       id="rect1246"
       height="25.607887"
       width="32.127975"
       y="1.889881"
       x="33.261906" />
    <rect
       id="rect2592"
       height="20.127232"
       width="21.45015"
       y="3.0238094"
       x="23.718006" />
    <rect
       x="23.718006"
       y="3.0238094"
       width="21.45015"
       height="20.127232"
       id="rect2600" />
    <rect
       id="rect2608"
       height="20.127232"
       width="21.45015"
       y="3.0238094"
       x="23.718006" />
    <rect
       x="2.6871746"
       y="17.569986"
       width="36.586914"
       height="32.246094"
       id="rect3591-5" />
    <rect
       x="2.6871746"
       y="17.569986"
       width="36.586914"
       height="32.246094"
       id="rect4205" />
    <rect
       x="111.20768"
       y="-7.4414062"
       width="46.715494"
       height="60.358072"
       id="rect8139" />
    <rect
       x="51.449384"
       y="22.216779"
       width="35.663777"
       height="26.60167"
       id="rect8484" />
    <rect
       x="16.123047"
       y="16.536458"
       width="52.916666"
       height="39.6875"
       id="rect16854" />
    <rect
       x="16.123047"
       y="16.536458"
       width="52.916666"
       height="39.6875"
       id="rect16860" />
    <rect
       x="64.905598"
       y="14.469401"
       width="45.47526"
       height="33.899739"
       id="rect17563" />
    <rect
       x="64.905598"
       y="14.469401"
       width="45.47526"
       height="33.899739"
       id="rect20027" />
    <rect
       id="rect28320"
       height="33.899739"
       width="45.47526"
       y="14.469401"
       x="64.905598" />
  </defs>
  <metadata
     id="metadata5">
    <rdf:RDF>
      <cc:Work
         rdf:about="">
        <dc:format>image/svg+xml</dc:format>
        <dc:type
           rdf:resource="http://purl.org/dc/dcmitype/StillImage" />
        <dc:title></dc:title>
      </cc:Work>
    </rdf:RDF>
  </metadata>
  <g
     transform="matrix(0.26458333,0,0,0.26458333,71.999739,33.965621)"
     id="g14585">
</g>
  <g
     transform="matrix(0.26458333,0,0,0.26458333,71.999739,33.965621)"
     id="g14587">
</g>
  <g
     transform="matrix(0.26458333,0,0,0.26458333,71.999739,33.965621)"
     id="g14589">
</g>
  <g
     transform="matrix(0.26458333,0,0,0.26458333,71.999739,33.965621)"
     id="g14591">
</g>
  <g
     transform="matrix(0.26458333,0,0,0.26458333,71.999739,33.965621)"
     id="g14593">
</g>
  <g
     transform="matrix(0.26458333,0,0,0.26458333,71.999739,33.965621)"
     id="g14595">
</g>
  <g
     transform="matrix(0.26458333,0,0,0.26458333,71.999739,33.965621)"
     id="g14597">
</g>
  <g
     transform="matrix(0.26458333,0,0,0.26458333,71.999739,33.965621)"
     id="g14599">
</g>
  <g
     transform="matrix(0.26458333,0,0,0.26458333,71.999739,33.965621)"
     id="g14601">
</g>
  <g
     transform="matrix(0.26458333,0,0,0.26458333,71.999739,33.965621)"
     id="g14603">
</g>
  <g
     transform="matrix(0.26458333,0,0,0.26458333,71.999739,33.965621)"
     id="g14605">
</g>
  <g
     transform="matrix(0.26458333,0,0,0.26458333,71.999739,33.965621)"
     id="g14607">
</g>
  <g
     transform="matrix(0.26458333,0,0,0.26458333,71.999739,33.965621)"
     id="g14609">
</g>
  <g
     transform="matrix(0.26458333,0,0,0.26458333,71.999739,33.965621)"
     id="g14611">
</g>
  <g
     transform="matrix(0.26458333,0,0,0.26458333,71.999739,33.965621)"
     id="g14613">
</g>
  <text
     xml:space="preserve"
     id="text20025"
     style="font-style:normal;font-variant:normal;font-weight:bold;font-stretch:normal;font-size:10.5833px;line-height:1.25;font-family:sans-serif;-inkscape-font-specification:'sans-serif Bold';white-space:pre;shape-inside:url(#rect20027);fill:#000000;fill-opacity:1;stroke:none;"
     transform="matrix(3.2400797,0,0,3.2400797,-133.14295,-32.613183)"><tspan
       x="64.90625"
       y="24.124215"><tspan
         style="font-style:normal;font-variant:normal;font-weight:bold;font-stretch:normal;font-family:sans-serif;-inkscape-font-specification:'sans-serif Bold'">ta</tspan></tspan></text>
  <g
     transform="matrix(0.10186309,0,0,0.10186309,6.6381628,7.9789801)"
     id="g31155">
    <path
       style="fill:#ffa600"
       d="m 334.018,454.513 h -39.153 v -43.362 c 0,-2.418 -3.378,-4.378 -7.545,-4.378 h -62.64 c -4.167,0 -7.545,1.961 -7.545,4.378 v 43.362 h -31.021 c -0.109,0 -0.217,0.002 -0.325,0.007 -0.108,-0.004 -0.216,-0.007 -0.325,-0.007 h -7.482 c -21.355,0 -38.729,17.374 -38.729,38.729 v 11.214 c 0,4.167 3.378,7.545 7.545,7.545 h 218.404 c 4.167,0 7.545,-3.378 7.545,-7.545 v -11.214 c 0,-21.356 -17.373,-38.729 -38.729,-38.729 z"
       id="path31055" />
    <path
       style="fill:#ff902c"
       d="m 287.321,406.773 h -23.137 c 4.167,0 7.545,1.961 7.545,4.379 v 45.918 h 23.137 v -45.918 c -10e-4,-2.419 -3.379,-4.379 -7.545,-4.379 z"
       id="path31057" />
    <path
       style="fill:#ffa600"
       d="M 334.018,454.513 H 186.114 c -0.109,0 -0.217,0.002 -0.325,0.007 -0.108,-0.004 -0.216,-0.007 -0.325,-0.007 h -7.482 c -21.355,0 -38.729,17.374 -38.729,38.729 v 11.214 c 0,4.167 3.378,7.545 7.545,7.545 h 218.404 c 4.167,0 7.545,-3.378 7.545,-7.545 v -11.214 c 0,-21.356 -17.373,-38.729 -38.729,-38.729 z"
       id="path31059" />
    <path
       style="fill:#ff902c"
       d="m 334.018,454.513 h -23.137 c 21.355,0 38.729,17.374 38.729,38.729 v 11.214 c 0,4.167 -3.378,7.545 -7.545,7.545 h 23.137 c 4.167,0 7.545,-3.378 7.545,-7.545 v -11.214 c 0,-21.356 -17.373,-38.729 -38.729,-38.729 z"
       id="path31061" />
    <path
       style="fill:#d2d2d2"
       d="m 256,0 c -25.594,0 -52.427,5.382 -77.599,15.562 -28.242,11.422 -52.746,28.028 -72.835,49.359 -37.373,37.854 -56.319,85.571 -56.319,141.833 0,19.09 2.612,37.58 7.478,55.141 0.054,0.322 0.122,0.644 0.22,0.964 0.034,0.113 0.09,0.212 0.129,0.323 24.618,86.666 104.477,150.326 198.926,150.326 114.004,0 206.753,-92.749 206.753,-206.753 C 462.753,92.751 370.004,0 256,0 Z M 431.776,130.389 401.595,144.87 C 377.46,88.301 321.286,48.549 256,48.549 c -19.367,0 -37.93,3.505 -55.095,9.903 l -15.881,-29.28 c 23.109,-9.21 47.627,-14.083 70.976,-14.083 78.555,0 146.211,47.509 175.776,115.3 z M 306.313,198.96 c 1.298,2.705 3.996,4.282 6.807,4.282 1.094,0 2.206,-0.239 3.258,-0.744 L 393.1,165.683 c 3.906,13.016 6.016,26.8 6.016,41.07 0,60.917 -38.26,113.056 -92.009,133.675 l -30.196,-82.376 c -1.434,-3.914 -5.771,-5.921 -9.68,-4.487 -3.912,1.434 -5.921,5.768 -4.487,9.68 l 29.998,81.835 c -11.73,3.118 -24.044,4.789 -36.742,4.789 -63.323,0 -117.164,-41.343 -135.971,-98.45 l 89.926,-27.556 c 3.984,-1.22 6.224,-5.44 5.004,-9.424 -1.221,-3.984 -5.44,-6.224 -9.424,-5.004 l -89.457,27.413 c -2.086,-9.707 -3.194,-19.774 -3.194,-30.096 0,-56.785 33.244,-105.95 81.292,-129.06 l 46.232,85.233 c 1.367,2.519 3.96,3.948 6.639,3.948 1.215,0 2.447,-0.294 3.59,-0.914 3.663,-1.987 5.021,-6.567 3.035,-10.229 L 208.18,71.863 c 14.961,-5.319 31.056,-8.227 47.819,-8.227 59.303,0 110.294,36.258 131.977,87.768 l -78.126,37.489 c -3.756,1.804 -5.34,6.31 -3.537,10.067 z M 116.364,75.461 c 0.043,-0.043 0.086,-0.088 0.128,-0.133 15.481,-16.453 33.838,-29.871 54.687,-40.031 l 15.797,29.123 c -52.745,25.683 -89.181,79.831 -89.181,142.334 0,11.858 1.321,23.412 3.806,34.532 l -32.073,9.828 C 66.14,236.871 64.335,222.02 64.335,206.754 64.336,154.573 81.84,110.4 116.364,75.461 Z m -42.76,190.185 31.996,-9.805 c 20.703,63.277 80.294,109.118 150.4,109.118 14.521,0 28.587,-1.977 41.955,-5.657 l 11.549,31.507 c -16.988,4.946 -34.94,7.609 -53.504,7.609 -85.146,0 -157.488,-55.814 -182.396,-132.772 z m 250.213,120.367 -11.516,-31.417 c 59.517,-22.741 101.904,-80.431 101.904,-147.843 0,-16.607 -2.579,-32.622 -7.345,-47.673 l 30.415,-14.594 c 6.728,19.532 10.39,40.479 10.39,62.267 -0.001,81.817 -51.538,151.812 -123.848,179.26 z"
       id="path31063" />
    <path
       style="fill:#b6e4ea"
       d="m 454.758,201.638 c -1.428,-1.548 -3.439,-2.429 -5.545,-2.429 H 256.738 c -2.106,0 -4.116,0.881 -5.545,2.429 -1.428,1.548 -2.145,3.623 -1.975,5.722 2.024,25.095 13.752,48.369 33.023,65.536 19.292,17.185 44.412,26.65 70.733,26.65 26.322,0 51.443,-9.465 70.735,-26.65 19.271,-17.166 30.998,-40.442 33.023,-65.536 0.171,-2.1 -0.545,-4.175 -1.974,-5.722 z"
       id="path31065" />
    <path
       style="fill:#6fc8f1"
       d="m 453.888,200.844 c -4.87,18.64 -15.246,35.614 -30.177,48.915 -19.292,17.185 -44.412,26.65 -70.735,26.65 -26.322,0 -51.443,-9.465 -70.733,-26.65 -14.931,-13.301 -25.307,-30.276 -30.178,-48.915 -0.307,0.242 -0.602,0.502 -0.87,0.794 -1.428,1.548 -2.145,3.623 -1.975,5.722 2.024,25.095 13.752,48.369 33.023,65.536 19.292,17.185 44.412,26.65 70.733,26.65 26.322,0 51.443,-9.465 70.735,-26.65 19.271,-17.166 30.998,-40.442 33.023,-65.536 0.169,-2.099 -0.546,-4.175 -1.975,-5.722 -0.269,-0.292 -0.564,-0.551 -0.871,-0.794 z"
       id="path31067" />
    <path
       style="fill:#b6e4ea"
       d="m 263.704,402.929 c 1.526,-1.453 2.375,-3.477 2.342,-5.582 l -2.997,-192.451 c -0.033,-2.106 -0.945,-4.102 -2.515,-5.507 -1.57,-1.404 -3.656,-2.088 -5.752,-1.886 -25.06,2.414 -48.149,14.504 -65.014,34.04 -16.883,19.556 -25.955,44.822 -25.546,71.14 0.409,26.319 10.265,51.29 27.748,70.311 17.465,19.001 40.92,30.365 66.043,31.998 2.102,0.138 4.165,-0.61 5.691,-2.063 z"
       id="path31069" />
    <path
       style="fill:#6fc8f1"
       d="m 212.09,372.995 c -17.484,-19.022 -27.338,-43.992 -27.748,-70.311 -0.409,-26.318 8.662,-51.583 25.546,-71.14 13.698,-15.869 31.503,-26.822 51.135,-31.67 -0.156,-0.167 -0.316,-0.33 -0.487,-0.483 -1.57,-1.404 -3.656,-2.088 -5.752,-1.886 -25.06,2.414 -48.149,14.504 -65.014,34.039 -16.883,19.556 -25.955,44.822 -25.546,71.14 0.409,26.319 10.265,51.29 27.748,70.311 17.465,19.001 40.92,30.365 66.043,31.998 2.097,0.137 4.155,-0.609 5.678,-2.054 -19.581,-4.301 -37.536,-14.639 -51.603,-29.944 z"
       id="path31071" />
    <path
       style="fill:#b6e4ea"
       d="m 59.462,215.032 c 1.476,1.503 3.513,2.321 5.618,2.255 l 192.382,-5.993 c 2.105,-0.065 4.087,-1.008 5.466,-2.6 1.379,-1.592 2.031,-3.688 1.796,-5.781 -2.805,-25.02 -15.252,-47.918 -35.048,-64.477 -19.817,-16.577 -45.22,-25.254 -71.529,-24.434 -26.309,0.82 -51.123,11.061 -69.87,28.839 -18.728,17.759 -29.725,41.387 -30.967,66.533 -0.103,2.104 0.676,4.156 2.152,5.658 z"
       id="path31073" />
    <path
       style="fill:#6fc8f1"
       d="m 59.738,215.285 c 4.35,-18.582 14.164,-35.675 28.538,-49.306 18.748,-17.778 43.561,-28.019 69.87,-28.839 26.309,-0.82 51.712,7.857 71.529,24.434 15.459,12.93 26.41,29.737 31.814,48.392 0.525,-0.36 1.013,-0.781 1.438,-1.272 1.379,-1.592 2.031,-3.688 1.796,-5.781 -2.805,-25.02 -15.252,-47.918 -35.048,-64.476 -19.817,-16.577 -45.22,-25.254 -71.529,-24.435 -26.309,0.82 -51.123,11.062 -69.87,28.839 -18.728,17.758 -29.724,41.387 -30.966,66.533 -0.104,2.104 0.677,4.156 2.153,5.657 0.086,0.091 0.183,0.169 0.275,0.254 z"
       id="path31075" />
    <path
       style="fill:#b6e4ea"
       d="m 244.156,7.89 c -1.48,1.499 -2.265,3.549 -2.168,5.652 l 8.988,192.265 c 0.099,2.104 1.072,4.071 2.685,5.425 1.614,1.355 3.719,1.973 5.808,1.706 24.973,-3.194 47.674,-15.995 63.922,-36.048 16.266,-20.073 24.547,-45.608 23.318,-71.901 C 345.48,78.696 334.853,54.044 316.785,35.575 298.737,17.127 274.94,6.498 249.779,5.648 247.675,5.579 245.636,6.391 244.156,7.89 Z"
       id="path31077" />
    <path
       style="fill:#6fc8f1"
       d="M 346.71,104.99 C 345.481,78.697 334.854,54.045 316.786,35.577 298.739,17.129 274.942,6.5 249.78,5.65 c -2.094,-0.07 -4.123,0.734 -5.6,2.219 18.541,4.093 35.684,13.615 49.47,27.708 18.068,18.468 28.694,43.12 29.924,69.413 1.229,26.293 -7.052,51.829 -23.318,71.901 -12.735,15.717 -29.446,26.953 -48.097,32.627 0.408,0.638 0.911,1.218 1.503,1.715 1.614,1.355 3.719,1.973 5.808,1.706 24.973,-3.194 47.674,-15.995 63.922,-36.048 16.267,-20.073 24.548,-45.608 23.318,-71.901 z"
       id="path31079" />
    <path
       style="fill:#f7f5f5"
       d="m 259.462,151.785 c -31.125,0 -56.446,25.321 -56.446,56.446 0,31.125 25.321,56.446 56.446,56.446 31.125,0 56.446,-25.321 56.446,-56.446 0,-31.125 -25.321,-56.446 -56.446,-56.446 z"
       id="path31081" />
    <circle
       style="fill:#6fc8f1"
       cx="259.461"
       cy="208.229"
       r="40.799"
       id="circle31083" />
    <path
       style="fill:#606673"
       d="m 262.314,187.31 c -13.282,-1.327 -24.401,9.793 -23.073,23.074 0.983,9.833 8.936,17.785 18.768,18.768 13.282,1.328 24.402,-9.793 23.074,-23.075 -0.983,-9.834 -8.936,-17.786 -18.769,-18.767 z"
       id="path31085" />
    <g
       id="g31087">
</g>
    <g
       id="g31089">
</g>
    <g
       id="g31091">
</g>
    <g
       id="g31093">
</g>
    <g
       id="g31095">
</g>
    <g
       id="g31097">
</g>
    <g
       id="g31099">
</g>
    <g
       id="g31101">
</g>
    <g
       id="g31103">
</g>
    <g
       id="g31105">
</g>
    <g
       id="g31107">
</g>
    <g
       id="g31109">
</g>
    <g
       id="g31111">
</g>
    <g
       id="g31113">
</g>
    <g
       id="g31115">
</g>
  </g>
</svg>
