<?xml version="1.0" encoding="UTF-8" standalone="no"?>
<svg
   xmlns:dc="http://purl.org/dc/elements/1.1/"
   xmlns:cc="http://creativecommons.org/ns#"
   xmlns:rdf="http://www.w3.org/1999/02/22-rdf-syntax-ns#"
   xmlns:svg="http://www.w3.org/2000/svg"
   xmlns="http://www.w3.org/2000/svg"
   width="500"
   height="250"
   viewBox="0 0 132.29166 66.145835"
   version="1.1"
   id="svg8">
  <defs
     id="defs2">
    <rect
       id="rect10116"
       height="31.278887"
       width="27.917137"
       y="16.808747"
       x="101.14481" />
    <rect
       id="rect9439"
       height="25.14004"
       width="57.003578"
       y="26.309344"
       x="5.2618688" />
    <rect
       id="rect8476"
       height="26.60167"
       width="35.663777"
       y="22.216779"
       x="51.449384" />
    <rect
       id="rect8111"
       height="60.358072"
       width="46.715494"
       y="-7.4414062"
       x="111.20768" />
    <rect
       id="rect5692"
       height="31.419271"
       width="28.318685"
       y="19.223633"
       x="111.62109" />
    <rect
       id="rect4959"
       height="36.793619"
       width="38.447265"
       y="12.815755"
       x="87.436523" />
    <rect
       id="rect3591"
       height="32.246093"
       width="36.586914"
       y="17.569987"
       x="2.6871745" />
    <rect
       x="33.261906"
       y="1.889881"
       width="32.127975"
       height="25.607887"
       id="rect952" />
    <rect
       x="23.718006"
       y="3.0238094"
       width="21.45015"
       height="20.127232"
       id="rect946" />
    <rect
       id="rect952-5"
       height="25.607887"
       width="32.127975"
       y="1.889881"
       x="33.261906" />
    <rect
       id="rect1246"
       height="25.607887"
       width="32.127975"
       y="1.889881"
       x="33.261906" />
    <rect
       id="rect2592"
       height="20.127232"
       width="21.45015"
       y="3.0238094"
       x="23.718006" />
    <rect
       x="23.718006"
       y="3.0238094"
       width="21.45015"
       height="20.127232"
       id="rect2600" />
    <rect
       id="rect2608"
       height="20.127232"
       width="21.45015"
       y="3.0238094"
       x="23.718006" />
    <rect
       x="2.6871746"
       y="17.569986"
       width="36.586914"
       height="32.246094"
       id="rect3591-5" />
    <rect
       x="2.6871746"
       y="17.569986"
       width="36.586914"
       height="32.246094"
       id="rect4205" />
    <rect
       x="111.20768"
       y="-7.4414062"
       width="46.715494"
       height="60.358072"
       id="rect8139" />
    <rect
       x="51.449384"
       y="22.216779"
       width="35.663777"
       height="26.60167"
       id="rect8484" />
  </defs>
  <metadata
     id="metadata5">
    <rdf:RDF>
      <cc:Work
         rdf:about="">
        <dc:format>image/svg+xml</dc:format>
        <dc:type
           rdf:resource="http://purl.org/dc/dcmitype/StillImage" />
        <dc:title></dc:title>
      </cc:Work>
    </rdf:RDF>
  </metadata>
  <g
     transform="matrix(0.06658097,0,0,0.06658097,12.227691,15.444847)"
     id="g10006">
    <path
       style="fill:#fcd2be"
       d="m 177.641,310.486 v 96.983 c 0,44.446 -36.046,80.491 -80.504,80.491 -11.908,0 -23.203,-2.587 -33.369,-7.222 v -0.013 C 39.17,469.508 21.205,446.267 17.402,418.506 c -3.573,-1.255 -6.927,-3.303 -9.795,-6.171 -10.141,-10.128 -10.141,-26.57 0,-36.699 10.128,-10.155 26.582,-10.155 36.724,0 l 6.761,-38.76 4.61,-26.391 h 121.939 z"
       id="path9864" />
    <path
       style="fill:#fab998"
       d="M 63.767,480.726 C 39.169,469.509 21.204,446.268 17.401,418.507 c -3.573,-1.255 -6.927,-3.303 -9.795,-6.171 -10.141,-10.128 -10.141,-26.57 0,-36.699 10.128,-10.155 26.582,-10.155 36.724,0 l 6.761,-38.76 21.192,4.302 c -8.912,15.405 -46.546,71.631 -8.516,139.547 z"
       id="path9866" />
    <path
       style="fill:#f9ce55"
       d="m 215.275,271.239 c 0,38.632 -31.32,69.94 -69.94,69.94 H 72.283 v 6.492 c 0,15.442 -12.523,27.953 -27.966,27.953 -7.478,-7.478 -18.4,-9.437 -27.671,-5.878 v -28.568 c 0,-38.62 31.32,-69.94 69.94,-69.94 h 128.689 z"
       id="path9868" />
    <path
       style="fill:#e2a11e"
       d="M 143.669,271.239 H 86.586 c -38.62,0 -69.94,31.32 -69.94,69.94 v 28.568 c 9.271,-3.559 20.193,-1.6 27.671,5.878 15.442,0 27.966,-12.51 27.966,-27.953 v -6.492 h 1.445 c 0.001,-38.62 31.321,-69.941 69.941,-69.941 z"
       id="path9870" />
    <g
       id="g9876">
	<path
   style="fill:#50515b"
   d="m 108.939,396.588 c -4.379,0 -7.928,-3.55 -7.928,-7.928 v -13.314 c 0,-4.379 3.55,-7.928 7.928,-7.928 4.378,0 7.928,3.55 7.928,7.928 v 13.314 c 0,4.378 -3.549,7.928 -7.928,7.928 z"
   id="path9872" />

	<path
   style="fill:#50515b"
   d="m 143.554,396.588 c -4.379,0 -7.928,-3.55 -7.928,-7.928 v -13.314 c 0,-4.379 3.55,-7.928 7.928,-7.928 4.378,0 7.928,3.55 7.928,7.928 v 13.314 c 0.001,4.378 -3.549,7.928 -7.928,7.928 z"
   id="path9874" />

</g>
    <path
       style="fill:#ffffff"
       d="m 112.605,456.727 c -0.143,0 -0.285,-0.003 -0.429,-0.012 -17.848,-0.952 -31.477,-8.797 -39.412,-22.684 -2.172,-3.802 -0.852,-8.645 2.95,-10.818 3.801,-2.173 8.645,-0.852 10.818,2.95 5.202,9.105 14.116,14.057 26.49,14.717 4.372,0.234 7.729,3.967 7.494,8.34 -0.226,4.23 -3.726,7.507 -7.911,7.507 z"
       id="path9878" />
    <path
       style="fill:#3facc9"
       d="M 262.202,58.331 H 63.618 c -12.591,0 -22.799,10.208 -22.799,22.799 v 100.277 c 0,12.591 10.208,22.799 22.799,22.799 h 111.976 v 41.226 l 36.769,-41.226 h 49.839 c 12.591,0 22.799,-10.208 22.799,-22.799 V 81.13 c 0,-12.591 -10.207,-22.799 -22.799,-22.799 z"
       id="path9880" />
    <path
       style="fill:#00c7a9"
       d="m 265.063,7.591 h 198.584 c 12.591,0 22.799,10.208 22.799,22.799 v 100.277 c 0,12.591 -10.208,22.799 -22.799,22.799 H 351.67 v 41.226 l -36.769,-41.226 h -49.839 c -12.591,0 -22.799,-10.208 -22.799,-22.799 V 30.391 c 0.001,-12.592 10.209,-22.8 22.8,-22.8 z"
       id="path9882" />
    <g
       id="g9894">
	<path
   style="fill:#393a42"
   d="m 445.22,55.688 h -89.393 c -4.38,0 -7.928,-3.55 -7.928,-7.928 0,-4.378 3.549,-7.928 7.928,-7.928 h 89.393 c 4.38,0 7.928,3.55 7.928,7.928 0,4.378 -3.548,7.928 -7.928,7.928 z"
   id="path9884" />

	<path
   style="fill:#393a42"
   d="M 329.398,55.688 H 283.49 c -4.38,0 -7.928,-3.55 -7.928,-7.928 0,-4.378 3.549,-7.928 7.928,-7.928 h 45.909 c 4.38,0 7.928,3.55 7.928,7.928 0,4.378 -3.55,7.928 -7.929,7.928 z"
   id="path9886" />

	<path
   style="fill:#393a42"
   d="m 445.22,88.194 h -27.554 c -4.38,0 -7.928,-3.55 -7.928,-7.928 0,-4.378 3.549,-7.928 7.928,-7.928 h 27.554 c 4.38,0 7.928,3.55 7.928,7.928 0,4.378 -3.548,7.928 -7.928,7.928 z"
   id="path9888" />

	<path
   style="fill:#393a42"
   d="M 391.237,88.194 H 283.49 c -4.38,0 -7.928,-3.55 -7.928,-7.928 0,-4.378 3.549,-7.928 7.928,-7.928 h 107.747 c 4.38,0 7.928,3.55 7.928,7.928 0,4.378 -3.55,7.928 -7.928,7.928 z"
   id="path9890" />

	<path
   style="fill:#393a42"
   d="M 395.994,120.698 H 283.49 c -4.38,0 -7.928,-3.55 -7.928,-7.928 0,-4.379 3.549,-7.928 7.928,-7.928 h 112.504 c 4.38,0 7.928,3.55 7.928,7.928 0,4.378 -3.55,7.928 -7.928,7.928 z"
   id="path9892" />

</g>
    <g
       id="g9906">
	<path
   style="fill:#50515b"
   d="m 125.384,103.257 h -45.91 c -4.379,0 -7.928,-3.55 -7.928,-7.928 0,-4.378 3.55,-7.928 7.928,-7.928 h 45.909 c 4.379,0 7.928,3.55 7.928,7.928 0,4.378 -3.549,7.928 -7.927,7.928 z"
   id="path9896" />

	<path
   style="fill:#50515b"
   d="m 203.078,103.257 h -45.909 c -4.379,0 -7.928,-3.55 -7.928,-7.928 0,-4.378 3.55,-7.928 7.928,-7.928 h 45.909 c 4.379,0 7.928,3.55 7.928,7.928 0,4.378 -3.55,7.928 -7.928,7.928 z"
   id="path9898" />

	<path
   style="fill:#50515b"
   d="M 218.406,135.761 H 79.474 c -4.379,0 -7.928,-3.55 -7.928,-7.928 0,-4.379 3.55,-7.928 7.928,-7.928 h 138.932 c 4.379,0 7.928,3.55 7.928,7.928 0,4.378 -3.549,7.928 -7.928,7.928 z"
   id="path9900" />

	<path
   style="fill:#50515b"
   d="m 191.978,168.266 h -63.422 c -4.379,0 -7.928,-3.55 -7.928,-7.928 0,-4.378 3.55,-7.928 7.928,-7.928 h 63.422 c 4.379,0 7.928,3.55 7.928,7.928 0,4.378 -3.549,7.928 -7.928,7.928 z"
   id="path9902" />

	<path
   style="fill:#50515b"
   d="M 102.127,168.266 H 79.474 c -4.379,0 -7.928,-3.55 -7.928,-7.928 0,-4.378 3.55,-7.928 7.928,-7.928 h 22.652 c 4.379,0 7.928,3.55 7.928,7.928 0,4.378 -3.548,7.928 -7.927,7.928 z"
   id="path9904" />

</g>
    <path
       style="fill:#6b4b3d"
       d="m 477.638,504.408 c 0,0 -0.137,-0.053 -0.402,-0.169 -4.25,-1.913 -41.217,-19.842 -41.217,-66.662 L 314.186,317.224 c -5.708,-21.121 -3.954,-58.226 48.49,-62.497 3.266,-0.275 6.734,-0.412 10.402,-0.412 62.592,0 124.011,5.032 137.003,97.16 8.69,61.64 -13.901,121.526 -32.443,152.933 z"
       id="path9908" />
    <path
       style="fill:#5b3d2d"
       d="m 477.638,504.408 c 0,0 -0.137,-0.053 -0.402,-0.169 0.011,-0.021 0.011,-0.042 0.011,-0.063 21.142,-179.71 -60.256,-249.449 -114.571,-249.449 3.266,-0.275 6.734,-0.412 10.402,-0.412 62.592,0 124.011,5.032 137.003,97.16 8.69,61.64 -13.901,121.526 -32.443,152.933 z"
       id="path9910" />
    <path
       style="fill:#b37854"
       d="m 471.011,384.389 c -2.646,2.646 -5.74,4.535 -9.035,5.693 -4.158,30.353 -26.656,54.848 -55.958,61.958 -5.633,1.382 -11.527,2.103 -17.586,2.103 -41.006,0 -74.252,-33.246 -74.252,-74.24 v -62.678 c 0,0 32.916,1.181 45.908,-11.81 18.861,24.483 43.368,27.896 59.619,26.833 0,-0.012 0,-0.012 0,-0.012 10.405,-0.685 17.432,-3.201 17.432,-3.201 v 21.507 l 0.012,-0.012 c 6.898,-6.898 16.972,-8.704 25.522,-5.421 3.035,1.158 5.882,2.976 8.339,5.433 9.353,9.341 9.353,24.505 -10e-4,33.847 z"
       id="path9912" />
    <path
       style="fill:#946032"
       d="m 471.011,384.389 c -2.646,2.646 -5.74,4.535 -9.035,5.693 -4.158,30.353 -26.656,54.848 -55.958,61.958 38.561,-21.153 14.02,-118.482 13.689,-119.794 0,-0.012 0,-0.012 0,-0.012 10.405,-0.685 17.432,-3.201 17.432,-3.201 v 21.507 l 0.012,-0.012 c 6.898,-6.898 16.972,-8.704 25.522,-5.421 3.035,1.158 5.882,2.976 8.339,5.433 9.353,9.343 9.353,24.507 -10e-4,33.849 z"
       id="path9914" />
    <g
       id="g9920">
	<path
   style="fill:#50515b"
   d="m 377.553,370.48 c -4.38,0 -7.928,-3.55 -7.928,-7.928 v -12.281 c 0,-4.379 3.549,-7.928 7.928,-7.928 4.379,0 7.928,3.55 7.928,7.928 v 12.281 c 0.001,4.379 -3.549,7.928 -7.928,7.928 z"
   id="path9916" />

	<path
   style="fill:#50515b"
   d="m 345.625,370.48 c -4.38,0 -7.928,-3.55 -7.928,-7.928 v -12.281 c 0,-4.379 3.549,-7.928 7.928,-7.928 4.38,0 7.928,3.55 7.928,7.928 v 12.281 c 0,4.379 -3.548,7.928 -7.928,7.928 z"
   id="path9918" />

</g>
    <path
       style="fill:#ffffff"
       d="m 374.17,425.95 c -4.185,0 -7.684,-3.277 -7.909,-7.506 -0.234,-4.372 3.122,-8.106 7.494,-8.34 11.192,-0.597 19.243,-5.06 23.931,-13.265 2.172,-3.801 7.016,-5.122 10.816,-2.95 3.802,2.172 5.123,7.015 2.95,10.818 -7.427,12.998 -20.171,20.341 -36.851,21.231 -0.144,0.007 -0.288,0.012 -0.431,0.012 z"
       id="path9922" />
    <g
       id="g9924">
</g>
    <g
       id="g9926">
</g>
    <g
       id="g9928">
</g>
    <g
       id="g9930">
</g>
    <g
       id="g9932">
</g>
    <g
       id="g9934">
</g>
    <g
       id="g9936">
</g>
    <g
       id="g9938">
</g>
    <g
       id="g9940">
</g>
    <g
       id="g9942">
</g>
    <g
       id="g9944">
</g>
    <g
       id="g9946">
</g>
    <g
       id="g9948">
</g>
    <g
       id="g9950">
</g>
    <g
       id="g9952">
</g>
  </g>
  <g
     transform="matrix(0.05375841,0,0,0.05375841,61.087489,19.854655)"
     id="g10098">
    <g
       id="g10090">
      <path
         d="m 148.375,478.215 -10.332,-10.293 18.501,-18.432 c 0.034,0.034 0.062,0.072 0.096,0.106 l 10.465,10.426 c 2.931,2.92 6.76,4.378 10.588,4.378 3.86,0 7.72,-1.483 10.656,-4.445 5.849,-5.9 5.819,-15.435 -0.066,-21.298 L 150.831,401.344 356.757,196.72 315.834,155.95 4.432,466.729 c -5.91,5.889 -5.909,15.476 10e-4,21.364 l 19.603,19.53 c 5.863,5.841 15.33,5.837 21.188,-0.01 l 44.489,-45.377 37.484,37.344 c 2.931,2.92 6.759,4.378 10.588,4.378 3.86,0 7.72,-1.483 10.656,-4.444 5.849,-5.901 5.819,-15.436 -0.066,-21.299 z"
         fill="#f4da90"
         id="path10086" />
      <path
         d="m 148.375,478.215 -10.332,-10.293 18.501,-18.432 c 0.034,0.034 0.062,0.072 0.096,0.106 l 10.465,10.426 c 2.931,2.92 6.76,4.378 10.588,4.378 3.86,0 7.72,-1.483 10.656,-4.445 5.849,-5.9 5.819,-15.435 -0.066,-21.298 L 150.831,401.344 356.757,196.72 335.692,175.734 14.31,497.933 l 9.726,9.689 c 5.863,5.841 15.33,5.837 21.188,-0.01 l 44.489,-45.377 37.484,37.344 c 2.931,2.92 6.759,4.378 10.588,4.378 3.86,0 7.72,-1.483 10.656,-4.444 5.849,-5.9 5.819,-15.435 -0.066,-21.298 z"
         fill="#e7aa60"
         id="path10088" />
    </g>
    <g
       id="g10096">
      <path
         d="m 459.602,238.277 c 13.917,-13.865 21.581,-32.305 21.58,-51.926 0,-16.478 -5.424,-32.112 -15.4,-44.914 8.973,-3.566 17.384,-8.941 24.638,-16.167 C 504.336,111.404 512,92.964 512,73.344 c 0,-19.62 -7.664,-38.061 -21.58,-51.926 -28.666,-28.558 -75.307,-28.558 -103.972,0 -7.185,7.158 -12.688,15.543 -16.345,24.673 -28.818,-22.341 -70.612,-20.345 -97.086,6.03 -13.917,13.865 -21.581,32.305 -21.58,51.926 0,19.62 7.664,38.06 21.58,51.925 14.332,14.279 33.159,21.419 51.986,21.419 3.241,0 6.48,-0.238 9.698,-0.662 -0.416,3.166 -0.651,6.375 -0.651,9.623 0,19.62 7.664,38.061 21.581,51.926 14.333,14.279 33.159,21.418 51.986,21.418 18.825,-0.001 37.652,-7.14 51.985,-21.419 z M 438.434,30.091 c 11.156,0 22.315,4.232 30.808,12.693 8.198,8.169 12.714,19.022 12.714,30.56 0,11.538 -4.515,22.392 -12.714,30.56 -16.988,16.923 -44.628,16.923 -61.617,0 -8.198,-8.168 -12.714,-19.022 -12.714,-30.56 0,-11.539 4.515,-22.392 12.714,-30.56 8.495,-8.463 19.65,-12.693 30.809,-12.693 z M 294.195,134.607 c -8.199,-8.168 -12.714,-19.021 -12.714,-30.56 0,-11.539 4.515,-22.392 12.714,-30.56 8.495,-8.463 19.65,-12.694 30.808,-12.694 11.156,0 22.315,4.232 30.808,12.693 8.199,8.169 12.714,19.022 12.714,30.561 0,11.539 -4.515,22.392 -12.714,30.56 -16.988,16.924 -44.628,16.924 -61.616,0 z m 82.613,82.305 c -8.199,-8.169 -12.714,-19.022 -12.714,-30.561 0.001,-11.538 4.516,-22.392 12.714,-30.56 8.494,-8.462 19.651,-12.693 30.808,-12.693 11.157,0 22.314,4.231 30.808,12.693 8.199,8.168 12.714,19.021 12.714,30.56 0,11.539 -4.515,22.392 -12.714,30.561 -16.988,16.923 -44.628,16.923 -61.616,0 z"
         fill="#e7aa60"
         id="path10092" />
      <path
         d="m 459.602,238.277 c 13.917,-13.865 21.581,-32.305 21.58,-51.926 0,-16.478 -5.424,-32.112 -15.4,-44.914 8.973,-3.566 17.384,-8.941 24.638,-16.167 C 504.336,111.404 512,92.964 512,73.344 c 0,-19.62 -7.664,-38.061 -21.58,-51.926 -0.135,-0.135 -0.277,-0.258 -0.413,-0.391 l -21.247,21.3 c 0.159,0.154 0.324,0.299 0.482,0.456 8.198,8.169 12.714,19.022 12.714,30.56 0,11.538 -4.515,22.392 -12.714,30.56 -16.988,16.923 -44.628,16.923 -61.617,0 -0.048,-0.048 -0.092,-0.098 -0.14,-0.146 L 334.7,176.728 c -0.416,3.166 -0.651,6.375 -0.651,9.623 0,19.62 7.664,38.061 21.581,51.926 14.333,14.279 33.159,21.418 51.986,21.418 18.826,0 37.653,-7.139 51.986,-21.418 z m -82.794,-21.365 c -8.199,-8.169 -12.714,-19.022 -12.714,-30.561 0.001,-11.538 4.516,-22.392 12.714,-30.56 8.494,-8.462 19.651,-12.693 30.808,-12.693 11.157,0 22.314,4.231 30.808,12.693 8.199,8.168 12.714,19.021 12.714,30.56 0,11.539 -4.515,22.392 -12.714,30.561 -16.988,16.923 -44.628,16.923 -61.616,0 z"
         fill="#e48d3c"
         id="path10094" />
    </g>
  </g>
  <text
     transform="matrix(2.0801183,0,0,2.0801183,-106.31505,-13.230546)"
     style="font-style:normal;font-variant:normal;font-weight:bold;font-stretch:normal;font-size:10.5833px;line-height:1.25;font-family:sans-serif;-inkscape-font-specification:'sans-serif Bold';white-space:pre;shape-inside:url(#rect10116);fill:#000000;fill-opacity:1;stroke:none;"
     id="text10114"
     xml:space="preserve"><tspan
       x="101.14453"
       y="26.464059"><tspan
         style="font-style:normal;font-variant:normal;font-weight:bold;font-stretch:normal;font-family:sans-serif;-inkscape-font-specification:'sans-serif Bold'">O</tspan></tspan></text>
</svg>
