<?xml version="1.0" encoding="UTF-8" standalone="no"?>
<svg
   xmlns:dc="http://purl.org/dc/elements/1.1/"
   xmlns:cc="http://creativecommons.org/ns#"
   xmlns:rdf="http://www.w3.org/1999/02/22-rdf-syntax-ns#"
   xmlns:svg="http://www.w3.org/2000/svg"
   xmlns="http://www.w3.org/2000/svg"
   width="500"
   height="250"
   viewBox="0 0 132.29166 66.145835"
   version="1.1"
   id="svg8">
  <defs
     id="defs2">
    <rect
       id="rect12397"
       height="46.715494"
       width="47.955729"
       y="8.6816405"
       x="71.933593" />
    <rect
       id="rect10750"
       height="32.448191"
       width="43.55658"
       y="16.95491"
       x="54.080318" />
    <rect
       id="rect10116"
       height="31.278887"
       width="27.917137"
       y="16.808747"
       x="101.14481" />
    <rect
       id="rect9439"
       height="25.14004"
       width="57.003578"
       y="26.309344"
       x="5.2618688" />
    <rect
       id="rect8476"
       height="26.60167"
       width="35.663777"
       y="22.216779"
       x="51.449384" />
    <rect
       id="rect8111"
       height="60.358072"
       width="46.715494"
       y="-7.4414062"
       x="111.20768" />
    <rect
       id="rect5692"
       height="31.419271"
       width="28.318685"
       y="19.223633"
       x="111.62109" />
    <rect
       id="rect4959"
       height="36.793619"
       width="38.447265"
       y="12.815755"
       x="87.436523" />
    <rect
       id="rect3591"
       height="32.246093"
       width="36.586914"
       y="17.569987"
       x="2.6871745" />
    <rect
       x="33.261906"
       y="1.889881"
       width="32.127975"
       height="25.607887"
       id="rect952" />
    <rect
       x="23.718006"
       y="3.0238094"
       width="21.45015"
       height="20.127232"
       id="rect946" />
    <rect
       id="rect952-5"
       height="25.607887"
       width="32.127975"
       y="1.889881"
       x="33.261906" />
    <rect
       id="rect1246"
       height="25.607887"
       width="32.127975"
       y="1.889881"
       x="33.261906" />
    <rect
       id="rect2592"
       height="20.127232"
       width="21.45015"
       y="3.0238094"
       x="23.718006" />
    <rect
       x="23.718006"
       y="3.0238094"
       width="21.45015"
       height="20.127232"
       id="rect2600" />
    <rect
       id="rect2608"
       height="20.127232"
       width="21.45015"
       y="3.0238094"
       x="23.718006" />
    <rect
       x="2.6871746"
       y="17.569986"
       width="36.586914"
       height="32.246094"
       id="rect3591-5" />
    <rect
       x="2.6871746"
       y="17.569986"
       width="36.586914"
       height="32.246094"
       id="rect4205" />
    <rect
       x="111.20768"
       y="-7.4414062"
       width="46.715494"
       height="60.358072"
       id="rect8139" />
    <rect
       x="51.449384"
       y="22.216779"
       width="35.663777"
       height="26.60167"
       id="rect8484" />
  </defs>
  <metadata
     id="metadata5">
    <rdf:RDF>
      <cc:Work
         rdf:about="">
        <dc:format>image/svg+xml</dc:format>
        <dc:type
           rdf:resource="http://purl.org/dc/dcmitype/StillImage" />
        <dc:title></dc:title>
      </cc:Work>
    </rdf:RDF>
  </metadata>
  <text
     transform="matrix(2.4564416,0,0,2.4564416,-88.833804,-2.2710265)"
     style="font-style:normal;font-variant:normal;font-weight:bold;font-stretch:normal;font-size:10.5833px;line-height:1.25;font-family:sans-serif;-inkscape-font-specification:'sans-serif Bold';white-space:pre;shape-inside:url(#rect12397);fill:#000000;fill-opacity:1;stroke:none;"
     id="text12395"
     xml:space="preserve"><tspan
       x="71.933594"
       y="18.337106"><tspan
         style="font-style:normal;font-variant:normal;font-weight:bold;font-stretch:normal;font-family:sans-serif;-inkscape-font-specification:'sans-serif Bold'">A</tspan></tspan></text>
  <g
     transform="matrix(0.08694612,0,0,0.08694612,17.495961,10.605087)"
     id="g12540">
    <g
       id="g12532">
      <path
         d="m 148.375,478.215 -10.332,-10.293 18.501,-18.432 c 0.034,0.034 0.062,0.072 0.096,0.106 l 10.465,10.426 c 2.931,2.92 6.76,4.378 10.588,4.378 3.86,0 7.72,-1.483 10.656,-4.445 5.849,-5.9 5.819,-15.435 -0.066,-21.298 L 150.831,401.344 356.757,196.72 315.834,155.95 4.432,466.729 c -5.91,5.889 -5.909,15.476 10e-4,21.364 l 19.603,19.53 c 5.863,5.841 15.33,5.837 21.188,-0.01 l 44.489,-45.377 37.484,37.344 c 2.931,2.92 6.759,4.378 10.588,4.378 3.86,0 7.72,-1.483 10.656,-4.444 5.849,-5.901 5.819,-15.436 -0.066,-21.299 z"
         fill="#f4da90"
         id="path12528" />
      <path
         d="m 148.375,478.215 -10.332,-10.293 18.501,-18.432 c 0.034,0.034 0.062,0.072 0.096,0.106 l 10.465,10.426 c 2.931,2.92 6.76,4.378 10.588,4.378 3.86,0 7.72,-1.483 10.656,-4.445 5.849,-5.9 5.819,-15.435 -0.066,-21.298 L 150.831,401.344 356.757,196.72 335.692,175.734 14.31,497.933 l 9.726,9.689 c 5.863,5.841 15.33,5.837 21.188,-0.01 l 44.489,-45.377 37.484,37.344 c 2.931,2.92 6.759,4.378 10.588,4.378 3.86,0 7.72,-1.483 10.656,-4.444 5.849,-5.9 5.819,-15.435 -0.066,-21.298 z"
         fill="#e7aa60"
         id="path12530" />
    </g>
    <g
       id="g12538">
      <path
         d="m 459.602,238.277 c 13.917,-13.865 21.581,-32.305 21.58,-51.926 0,-16.478 -5.424,-32.112 -15.4,-44.914 8.973,-3.566 17.384,-8.941 24.638,-16.167 C 504.336,111.404 512,92.964 512,73.344 c 0,-19.62 -7.664,-38.061 -21.58,-51.926 -28.666,-28.558 -75.307,-28.558 -103.972,0 -7.185,7.158 -12.688,15.543 -16.345,24.673 -28.818,-22.341 -70.612,-20.345 -97.086,6.03 -13.917,13.865 -21.581,32.305 -21.58,51.926 0,19.62 7.664,38.06 21.58,51.925 14.332,14.279 33.159,21.419 51.986,21.419 3.241,0 6.48,-0.238 9.698,-0.662 -0.416,3.166 -0.651,6.375 -0.651,9.623 0,19.62 7.664,38.061 21.581,51.926 14.333,14.279 33.159,21.418 51.986,21.418 18.825,-0.001 37.652,-7.14 51.985,-21.419 z M 438.434,30.091 c 11.156,0 22.315,4.232 30.808,12.693 8.198,8.169 12.714,19.022 12.714,30.56 0,11.538 -4.515,22.392 -12.714,30.56 -16.988,16.923 -44.628,16.923 -61.617,0 -8.198,-8.168 -12.714,-19.022 -12.714,-30.56 0,-11.539 4.515,-22.392 12.714,-30.56 8.495,-8.463 19.65,-12.693 30.809,-12.693 z M 294.195,134.607 c -8.199,-8.168 -12.714,-19.021 -12.714,-30.56 0,-11.539 4.515,-22.392 12.714,-30.56 8.495,-8.463 19.65,-12.694 30.808,-12.694 11.156,0 22.315,4.232 30.808,12.693 8.199,8.169 12.714,19.022 12.714,30.561 0,11.539 -4.515,22.392 -12.714,30.56 -16.988,16.924 -44.628,16.924 -61.616,0 z m 82.613,82.305 c -8.199,-8.169 -12.714,-19.022 -12.714,-30.561 0.001,-11.538 4.516,-22.392 12.714,-30.56 8.494,-8.462 19.651,-12.693 30.808,-12.693 11.157,0 22.314,4.231 30.808,12.693 8.199,8.168 12.714,19.021 12.714,30.56 0,11.539 -4.515,22.392 -12.714,30.561 -16.988,16.923 -44.628,16.923 -61.616,0 z"
         fill="#e7aa60"
         id="path12534" />
      <path
         d="m 459.602,238.277 c 13.917,-13.865 21.581,-32.305 21.58,-51.926 0,-16.478 -5.424,-32.112 -15.4,-44.914 8.973,-3.566 17.384,-8.941 24.638,-16.167 C 504.336,111.404 512,92.964 512,73.344 c 0,-19.62 -7.664,-38.061 -21.58,-51.926 -0.135,-0.135 -0.277,-0.258 -0.413,-0.391 l -21.247,21.3 c 0.159,0.154 0.324,0.299 0.482,0.456 8.198,8.169 12.714,19.022 12.714,30.56 0,11.538 -4.515,22.392 -12.714,30.56 -16.988,16.923 -44.628,16.923 -61.617,0 -0.048,-0.048 -0.092,-0.098 -0.14,-0.146 L 334.7,176.728 c -0.416,3.166 -0.651,6.375 -0.651,9.623 0,19.62 7.664,38.061 21.581,51.926 14.333,14.279 33.159,21.418 51.986,21.418 18.826,0 37.653,-7.139 51.986,-21.418 z m -82.794,-21.365 c -8.199,-8.169 -12.714,-19.022 -12.714,-30.561 0.001,-11.538 4.516,-22.392 12.714,-30.56 8.494,-8.462 19.651,-12.693 30.808,-12.693 11.157,0 22.314,4.231 30.808,12.693 8.199,8.168 12.714,19.021 12.714,30.56 0,11.539 -4.515,22.392 -12.714,30.561 -16.988,16.923 -44.628,16.923 -61.616,0 z"
         fill="#e48d3c"
         id="path12536" />
    </g>
  </g>
</svg>
