<?xml version="1.0" encoding="UTF-8" standalone="no"?>
<svg
   xmlns:dc="http://purl.org/dc/elements/1.1/"
   xmlns:cc="http://creativecommons.org/ns#"
   xmlns:rdf="http://www.w3.org/1999/02/22-rdf-syntax-ns#"
   xmlns:svg="http://www.w3.org/2000/svg"
   xmlns="http://www.w3.org/2000/svg"
   width="500"
   height="250"
   viewBox="0 0 132.29166 66.145835"
   version="1.1"
   id="svg8">
  <defs
     id="defs2">
    <rect
       id="rect8476"
       height="26.60167"
       width="35.663777"
       y="22.216779"
       x="51.449384" />
    <rect
       id="rect8111"
       height="60.358072"
       width="46.715494"
       y="-7.4414062"
       x="111.20768" />
    <rect
       id="rect5692"
       height="31.419271"
       width="28.318685"
       y="19.223633"
       x="111.62109" />
    <rect
       id="rect4959"
       height="36.793619"
       width="38.447265"
       y="12.815755"
       x="87.436523" />
    <rect
       id="rect3591"
       height="32.246093"
       width="36.586914"
       y="17.569987"
       x="2.6871745" />
    <rect
       x="33.261906"
       y="1.889881"
       width="32.127975"
       height="25.607887"
       id="rect952" />
    <rect
       x="23.718006"
       y="3.0238094"
       width="21.45015"
       height="20.127232"
       id="rect946" />
    <rect
       id="rect952-5"
       height="25.607887"
       width="32.127975"
       y="1.889881"
       x="33.261906" />
    <rect
       id="rect1246"
       height="25.607887"
       width="32.127975"
       y="1.889881"
       x="33.261906" />
    <rect
       id="rect2592"
       height="20.127232"
       width="21.45015"
       y="3.0238094"
       x="23.718006" />
    <rect
       x="23.718006"
       y="3.0238094"
       width="21.45015"
       height="20.127232"
       id="rect2600" />
    <rect
       id="rect2608"
       height="20.127232"
       width="21.45015"
       y="3.0238094"
       x="23.718006" />
    <rect
       x="2.6871746"
       y="17.569986"
       width="36.586914"
       height="32.246094"
       id="rect3591-5" />
    <rect
       x="2.6871746"
       y="17.569986"
       width="36.586914"
       height="32.246094"
       id="rect4205" />
    <rect
       x="111.20768"
       y="-7.4414062"
       width="46.715494"
       height="60.358072"
       id="rect8139" />
    <rect
       x="51.449384"
       y="22.216779"
       width="35.663777"
       height="26.60167"
       id="rect8484" />
  </defs>
  <metadata
     id="metadata5">
    <rdf:RDF>
      <cc:Work
         rdf:about="">
        <dc:format>image/svg+xml</dc:format>
        <dc:type
           rdf:resource="http://purl.org/dc/dcmitype/StillImage" />
        <dc:title></dc:title>
      </cc:Work>
    </rdf:RDF>
  </metadata>
  <g
     transform="matrix(0.07317243,0,0,0.07317243,8.0363743,15.287198)"
     id="g8472">
    <g
       id="g8432">
      <path
         d="m 277.799,367.92 h -63.4 l -31.21,-16.11 h -0.01 l -38.53,-29.11 c -0.06,-0.04 -0.11,-0.08 -0.16,-0.13 -7.6,-5.88 -9.08,-16.8 -3.27,-24.48 3.45,-4.58 8.71,-6.98 14.03,-6.98 3.69,0 7.42,1.15 10.59,3.55 l 17.35,13.12 z"
         fill="#ffe5c2"
         id="path8389" />
      <path
         d="m 223.824,354.092 c 0,0 -69.86,-45.3 -69.91,-45.35 -4.967,-3.843 -7.298,-9.858 -6.711,-15.695 -2.276,1.168 -4.34,2.861 -5.984,5.043 -5.81,7.68 -4.33,18.6 3.27,24.48 0.05,0.05 0.1,0.09 0.16,0.13 l 38.53,29.11 h 0.01 l 31.21,16.11 h 63.4 l -21.754,-13.828 z"
         fill="#fed2a4"
         id="path8391" />
      <path
         d="M 251.126,349.132 V 115.485 66.727 h -67.934 v 48.758 236.326 29.005 h 67.934 z"
         fill="#a6e7f0"
         id="path8393" />
      <g
         id="g8422">
        <g
           id="XMLID_510_">
          <g
             id="g8401">
            <path
               d="M 263.47,56.573 H 175.483 L 159.289,75.45 v 21.7 c 0,10.13 8.2,18.34 18.33,18.34 h 74.99 c 10.13,0 18.34,-8.21 18.34,-18.34 v -21.7 z"
               fill="#e1d3ce"
               id="path8395" />
            <path
               d="m 202.155,95.47 c -10.13,0 -18.33,-8.21 -18.33,-18.34 V 56.573 h -8.342 L 159.289,75.45 v 21.7 c 0,10.13 8.2,18.34 18.33,18.34 h 74.99 c 10.13,0 18.34,-8.21 18.34,-18.34 v -1.68 z"
               fill="#cdbfba"
               id="path8397" />
            <path
               d="M 270.949,25.43 V 75.45 H 159.289 V 53.023 c 0,-3.426 -2.777,-6.203 -6.203,-6.203 H 55.401 c -2.713,0 -4.912,-2.199 -4.912,-4.912 V 4.912 C 50.489,2.199 52.688,0 55.401,0 h 190.118 c 14.045,0 25.43,11.385 25.43,25.43 z"
               fill="#f3eae6"
               id="path8399" />
          </g>
        </g>
        <path
           d="M 183.825,75.45 V 46.42 c 0,-10.836 -8.784,-19.62 -19.62,-19.62 H 50.489 v 15.108 c 0,2.713 2.199,4.912 4.912,4.912 h 97.685 c 3.426,0 6.203,2.777 6.203,6.203 V 75.45 Z"
           fill="#efe2dd"
           id="path8404" />
        <g
           id="g8408">
          <path
             d="m 222.04,208.23 c -4.142,0 -7.5,-3.357 -7.5,-7.5 v -50.375 c 0,-4.143 3.358,-7.5 7.5,-7.5 4.142,0 7.5,3.357 7.5,7.5 v 50.375 c 0,4.143 -3.358,7.5 -7.5,7.5 z"
             fill="#6bd9e7"
             id="path8406" />
        </g>
        <g
           id="g8412">
          <path
             d="m 211.644,314.477 c -4.142,0 -7.5,-3.357 -7.5,-7.5 v -15.87 c 0,-4.143 3.358,-7.5 7.5,-7.5 4.142,0 7.5,3.357 7.5,7.5 v 15.87 c 0,4.143 -3.358,7.5 -7.5,7.5 z"
             fill="#6bd9e7"
             id="path8410" />
        </g>
        <g
           fill="#a6e7f0"
           id="g8420">
          <path
             d="m 335.869,189.832 c -8.109,2.577 -25.834,-2.923 -36.084,-6.596 -4.03,-1.444 -5.579,-6.317 -3.122,-9.823 6.248,-8.917 17.545,-23.641 25.654,-26.219 11.774,-3.742 24.353,2.769 28.095,14.543 3.743,11.774 -2.769,24.353 -14.543,28.095 z"
             id="path8414" />
          <path
             d="m 323.944,264.597 c -5.753,-0.346 -15.618,-8.14 -21.202,-12.959 -2.195,-1.895 -1.987,-5.352 0.419,-6.97 6.121,-4.115 16.849,-10.67 22.602,-10.324 8.354,0.502 14.719,7.682 14.217,16.036 -0.503,8.354 -7.682,14.719 -16.036,14.217 z"
             id="path8416" />
          <path
             d="m 109.603,208.788 c 6.875,2.954 22.862,-0.333 32.149,-2.666 3.651,-0.917 5.426,-5.049 3.578,-8.329 -4.7,-8.343 -13.32,-22.202 -20.195,-25.156 -9.983,-4.289 -21.553,0.326 -25.842,10.309 -4.289,9.983 0.327,21.552 10.31,25.842 z"
             id="path8418" />
        </g>
      </g>
      <path
         d="m 91.772,337.98 -25.94,-19.64 c -9.25,-7 -22.18,-6.43 -30.77,1.37 -5.26,4.78 -7.91,11.31 -7.91,17.86 0,6.2 2.38,12.42 7.17,17.15 l 101.95,100.74 c 7.37,7.28 17.3,11.36 27.66,11.36 h 169.25 l 34.447,28.726 c 1.983,1.654 4.83,1.767 6.938,0.276 l 93.58,-66.178 c 2.884,-2.04 2.937,-6.3 0.105,-8.411 l -53.015,-39.516 c -12.892,-9.609 -28.231,-15.38 -44.261,-16.645 -21.097,-1.666 -51.342,-2.527 -75.681,2.829 h -16.984 -63.4 l -69.75,-45.22 c -0.06,-0.04 -0.11,-0.08 -0.16,-0.13 l -25.93,-19.59 c -9.78,-7.4 -23.71,-5.46 -31.11,4.33 -3.03,4 -4.49,8.7 -4.49,13.37 10e-4,6.519 2.861,12.969 8.301,17.319"
         fill="#ffe5c2"
         id="path8424" />
      <path
         d="m 87.885,307.4 c -2.975,3.977 -4.414,8.632 -4.414,13.26 0,5.852 2.311,11.643 6.716,15.914 0.458,0.426 0.917,0.852 1.415,1.248 l 71.824,57.156 c 6.173,4.913 15.164,0.894 15.887,-6.702 z"
         fill="#fed2a4"
         id="path8426" />
      <g
         id="g8430">
        <path
           d="m 368.008,450.484 c -6.344,-4.751 -14.056,-7.319 -21.982,-7.319 H 184.894 c -10.61,0 -20.78,-4.172 -28.329,-11.617 L 52.151,328.524 c -4.051,-3.994 -6.41,-9.058 -7.113,-14.261 -3.789,0.931 -7.398,2.802 -10.45,5.574 -5.26,4.78 -7.91,11.31 -7.91,17.86 0,6.2 2.38,12.42 7.17,17.15 l 101.95,100.74 c 7.37,7.28 17.3,11.36 27.66,11.36 h 169.25 l 34.447,28.726 c 1.983,1.654 4.83,1.767 7.123,0.446 L 402.455,476.1 Z"
           fill="#fed2a4"
           id="path8428" />
      </g>
    </g>
    <g
       id="XMLID_853_">
      <path
         d="m 428.723,391.766 -16.95,-12.788 c -24.429,-18.431 -54.198,-28.402 -84.8,-28.402 h -55.185 -80.346 c -15.501,0 -28.067,12.566 -28.067,28.067 0,15.501 12.566,28.067 28.067,28.067 h 74.26 126.507 l 26.65,6.173 c 12.532,2.902 20.133,-13.369 9.864,-21.117 z"
         fill="#ffe5c2"
         id="path8434" />
    </g>
    <path
       d="m 310.411,406.71 c 0,-7.721 -6.259,-13.98 -13.98,-13.98 h -5.698 -73.646 c -15.411,0 -28.409,-12.163 -28.676,-27.572 -0.092,-5.321 1.305,-10.307 3.79,-14.58 h -0.759 c -15.501,0 -28.067,12.566 -28.067,28.067 0,15.501 12.566,28.066 28.066,28.066 h 74.26 44.71 z"
       fill="#fed2a4"
       id="path8437" />
  </g>
  <text
     transform="matrix(2.5196433,0,0,2.5196433,-73.537677,-36.741429)"
     style="font-style:normal;font-variant:normal;font-weight:bold;font-stretch:normal;font-size:10.5833px;line-height:1.25;font-family:sans-serif;-inkscape-font-specification:'sans-serif Bold';white-space:pre;shape-inside:url(#rect8476);fill:#000000;fill-opacity:1;stroke:none;"
     id="text8474"
     xml:space="preserve"><tspan
       x="51.449219"
       y="31.872262"><tspan
         style="font-style:normal;font-variant:normal;font-weight:bold;font-stretch:normal;font-family:sans-serif;-inkscape-font-specification:'sans-serif Bold'">N</tspan></tspan></text>
  <text
     xml:space="preserve"
     id="text8482"
     style="font-style:normal;font-variant:normal;font-weight:bold;font-stretch:normal;font-size:10.5833px;line-height:1.25;font-family:sans-serif;-inkscape-font-specification:'sans-serif Bold';white-space:pre;shape-inside:url(#rect8484);fill:#000000;fill-opacity:1;stroke:none;"
     transform="matrix(2.1718765,0,0,2.1718765,-16.985875,-26.996198)"><tspan
       x="51.449219"
       y="31.872262"><tspan
         style="font-style:normal;font-variant:normal;font-weight:bold;font-stretch:normal;font-family:sans-serif;-inkscape-font-specification:'sans-serif Bold'">10</tspan></tspan></text>
</svg>
