<?xml version="1.0" encoding="UTF-8" standalone="no"?>
<svg
   xmlns:dc="http://purl.org/dc/elements/1.1/"
   xmlns:cc="http://creativecommons.org/ns#"
   xmlns:rdf="http://www.w3.org/1999/02/22-rdf-syntax-ns#"
   xmlns:svg="http://www.w3.org/2000/svg"
   xmlns="http://www.w3.org/2000/svg"
   width="500"
   height="250"
   viewBox="0 0 132.29166 66.145835"
   version="1.1"
   id="svg8">
  <defs
     id="defs2">
    <rect
       id="rect17555"
       height="33.899739"
       width="45.47526"
       y="14.469401"
       x="64.905598" />
    <rect
       id="rect16657"
       height="39.6875"
       width="52.916666"
       y="16.536458"
       x="16.123047" />
    <rect
       id="rect14952"
       height="41.217972"
       width="28.355626"
       y="11.693042"
       x="56.1266" />
    <rect
       id="rect12397"
       height="46.715494"
       width="47.955729"
       y="8.6816405"
       x="71.933593" />
    <rect
       id="rect10750"
       height="32.448191"
       width="43.55658"
       y="16.95491"
       x="54.080318" />
    <rect
       id="rect10116"
       height="31.278887"
       width="27.917137"
       y="16.808747"
       x="101.14481" />
    <rect
       id="rect9439"
       height="25.14004"
       width="57.003578"
       y="26.309344"
       x="5.2618688" />
    <rect
       id="rect8476"
       height="26.60167"
       width="35.663777"
       y="22.216779"
       x="51.449384" />
    <rect
       id="rect8111"
       height="60.358072"
       width="46.715494"
       y="-7.4414062"
       x="111.20768" />
    <rect
       id="rect5692"
       height="31.419271"
       width="28.318685"
       y="19.223633"
       x="111.62109" />
    <rect
       id="rect4959"
       height="36.793619"
       width="38.447265"
       y="12.815755"
       x="87.436523" />
    <rect
       id="rect3591"
       height="32.246093"
       width="36.586914"
       y="17.569987"
       x="2.6871745" />
    <rect
       x="33.261906"
       y="1.889881"
       width="32.127975"
       height="25.607887"
       id="rect952" />
    <rect
       x="23.718006"
       y="3.0238094"
       width="21.45015"
       height="20.127232"
       id="rect946" />
    <rect
       id="rect952-5"
       height="25.607887"
       width="32.127975"
       y="1.889881"
       x="33.261906" />
    <rect
       id="rect1246"
       height="25.607887"
       width="32.127975"
       y="1.889881"
       x="33.261906" />
    <rect
       id="rect2592"
       height="20.127232"
       width="21.45015"
       y="3.0238094"
       x="23.718006" />
    <rect
       x="23.718006"
       y="3.0238094"
       width="21.45015"
       height="20.127232"
       id="rect2600" />
    <rect
       id="rect2608"
       height="20.127232"
       width="21.45015"
       y="3.0238094"
       x="23.718006" />
    <rect
       x="2.6871746"
       y="17.569986"
       width="36.586914"
       height="32.246094"
       id="rect3591-5" />
    <rect
       x="2.6871746"
       y="17.569986"
       width="36.586914"
       height="32.246094"
       id="rect4205" />
    <rect
       x="111.20768"
       y="-7.4414062"
       width="46.715494"
       height="60.358072"
       id="rect8139" />
    <rect
       x="51.449384"
       y="22.216779"
       width="35.663777"
       height="26.60167"
       id="rect8484" />
    <rect
       x="16.123047"
       y="16.536458"
       width="52.916666"
       height="39.6875"
       id="rect16854" />
    <rect
       x="16.123047"
       y="16.536458"
       width="52.916666"
       height="39.6875"
       id="rect16860" />
    <rect
       x="64.905598"
       y="14.469401"
       width="45.47526"
       height="33.899739"
       id="rect17563" />
  </defs>
  <metadata
     id="metadata5">
    <rdf:RDF>
      <cc:Work
         rdf:about="">
        <dc:format>image/svg+xml</dc:format>
        <dc:type
           rdf:resource="http://purl.org/dc/dcmitype/StillImage" />
        <dc:title></dc:title>
      </cc:Work>
    </rdf:RDF>
  </metadata>
  <g
     transform="matrix(0.26458333,0,0,0.26458333,71.999739,33.965621)"
     id="g14585">
</g>
  <g
     transform="matrix(0.26458333,0,0,0.26458333,71.999739,33.965621)"
     id="g14587">
</g>
  <g
     transform="matrix(0.26458333,0,0,0.26458333,71.999739,33.965621)"
     id="g14589">
</g>
  <g
     transform="matrix(0.26458333,0,0,0.26458333,71.999739,33.965621)"
     id="g14591">
</g>
  <g
     transform="matrix(0.26458333,0,0,0.26458333,71.999739,33.965621)"
     id="g14593">
</g>
  <g
     transform="matrix(0.26458333,0,0,0.26458333,71.999739,33.965621)"
     id="g14595">
</g>
  <g
     transform="matrix(0.26458333,0,0,0.26458333,71.999739,33.965621)"
     id="g14597">
</g>
  <g
     transform="matrix(0.26458333,0,0,0.26458333,71.999739,33.965621)"
     id="g14599">
</g>
  <g
     transform="matrix(0.26458333,0,0,0.26458333,71.999739,33.965621)"
     id="g14601">
</g>
  <g
     transform="matrix(0.26458333,0,0,0.26458333,71.999739,33.965621)"
     id="g14603">
</g>
  <g
     transform="matrix(0.26458333,0,0,0.26458333,71.999739,33.965621)"
     id="g14605">
</g>
  <g
     transform="matrix(0.26458333,0,0,0.26458333,71.999739,33.965621)"
     id="g14607">
</g>
  <g
     transform="matrix(0.26458333,0,0,0.26458333,71.999739,33.965621)"
     id="g14609">
</g>
  <g
     transform="matrix(0.26458333,0,0,0.26458333,71.999739,33.965621)"
     id="g14611">
</g>
  <g
     transform="matrix(0.26458333,0,0,0.26458333,71.999739,33.965621)"
     id="g14613">
</g>
  <text
     transform="matrix(3.5719387,0,0,3.5719387,-214.21542,-37.867519)"
     style="font-style:normal;font-variant:normal;font-weight:bold;font-stretch:normal;font-size:10.5833px;line-height:1.25;font-family:sans-serif;-inkscape-font-specification:'sans-serif Bold';white-space:pre;shape-inside:url(#rect17555);fill:#000000;fill-opacity:1;stroke:none;"
     id="text17553"
     xml:space="preserve"><tspan
       x="64.90625"
       y="24.124215"><tspan
         style="font-style:normal;font-variant:normal;font-weight:bold;font-stretch:normal;font-family:sans-serif;-inkscape-font-specification:'sans-serif Bold'">H</tspan></tspan></text>
  <g
     transform="matrix(0.08758915,0,0,0.08758915,67.028932,10.721551)"
     id="g19895">
    <path
       style="fill:#333e40"
       d="m 10.287,296.922 c -4.184,0.803 -4.184,6.792 0,7.594 l 61.58,19.324 v -46.252 z"
       id="path19783" />
    <ellipse
       transform="matrix(-0.2905,0.9569,-0.9569,-0.2905,441.0732,-112.9538)"
       style="fill:#d9d9d9"
       cx="262.41299"
       cy="107.047"
       rx="63.019001"
       ry="58.333"
       id="ellipse19785" />
    <ellipse
       transform="matrix(-0.2905,-0.9569,0.9569,-0.2905,74.9755,304.0946)"
       style="fill:#f0f0f0"
       cx="150.228"
       cy="124.251"
       rx="71.998001"
       ry="66.644997"
       id="ellipse19787" />
    <path
       style="fill:#ffce1c"
       d="m 200.556,338.209 v -90.316 l 39.623,-77.497 -8.589,-31.292 c -28.833,5.395 -55.464,14.858 -78.691,27.486 l -40.922,28.655 -23.297,73.042 v 69.34 l 28.551,65.844 35.666,31.38 c 23.227,12.628 49.858,22.091 78.691,27.486 l 14.416,-34.393 z"
       id="path19789" />
    <path
       style="fill:#faa330"
       d="m 243.365,434.24 c -3.962,-0.579 -7.892,-1.218 -11.777,-1.947 -28.833,-5.395 -55.464,-14.858 -78.691,-27.486 -20.34,-11.065 -38.066,-24.57 -52.396,-39.918 l 16.73,38.58 35.666,31.38 c 1.452,0.789 2.916,1.566 4.394,2.33 4.434,2.293 8.985,4.472 13.645,6.533 12.548,5.548 26.011,10.242 39.458,13.827 6.914,1.844 13.985,3.446 21.193,4.795 z"
       id="path19791" />
    <g
       id="g19797">
	<path
   style="fill:#3b484a"
   d="m 111.047,300.715 c 0,49.989 15.501,96.281 41.852,134.135 -55.866,-30.389 -92.081,-79.152 -92.081,-134.135 0,-54.972 36.216,-103.745 92.081,-134.125 -26.351,37.854 -41.852,84.146 -41.852,134.125 z"
   id="path19793" />

	<path
   style="fill:#3b484a"
   d="m 481.303,377.929 c -24.231,36.899 -65.771,65.67 -118.101,79.856 -23.187,6.289 -48.492,9.715 -75.345,9.715 -19.419,0 -38.275,-1.789 -56.268,-5.163 -39.772,-41.752 -64.284,-98.763 -64.284,-161.62 0,-62.848 24.512,-119.86 64.284,-161.61 17.992,-3.376 36.849,-5.163 56.268,-5.163 61.2,0 114.344,17.781 152.72,46.704 11.312,8.529 21.348,18.012 29.917,28.3 z"
   id="path19795" />

</g>
    <path
       style="fill:#333e40"
       d="m 363.202,427.742 c -23.187,6.289 -48.492,9.715 -75.345,9.715 -19.419,0 -38.275,-1.789 -56.268,-5.163 -9.83,-1.84 -19.397,-4.163 -28.668,-6.912 8.328,13.303 17.936,25.688 28.668,36.954 2.249,0.422 4.511,0.819 6.788,1.191 41.329,6.755 84.345,5.237 124.826,-5.742 42.58,-11.548 83.474,-34.455 110.835,-69.698 2.571,-3.312 4.994,-6.699 7.266,-10.158 l -1.755,-27.445 c -24.455,35.649 -65.253,63.409 -116.347,77.258 z"
       id="path19799" />
    <path
       style="fill:#ffce1c"
       d="m 504.846,300.716 c 0.213,27.376 -8.505,54.44 -23.543,77.214 -58.508,88.606 -196.812,83.161 -245.525,-16.315 -9.242,-18.867 -14.225,-39.41 -14.225,-60.899 0,-29.807 9.593,-57.794 26.833,-82.015 33.543,-47.146 101.515,-54.098 142.905,-13.672 0.653,0.643 1.306,1.286 1.949,1.949 0.653,-0.663 1.306,-1.306 1.949,-1.949 0.13,-0.13 0.261,-0.251 0.392,-0.382 21.388,-20.634 55.886,-18.525 74.913,4.3 21.476,25.76 34.089,57.956 34.352,91.769 z"
       id="path19801" />
    <path
       style="fill:#faa330"
       d="m 504.77,297.258 c -0.117,-3.621 -0.382,-7.238 -0.782,-10.838 -2.527,21.89 -10.541,43.078 -22.685,61.467 -24.231,36.899 -65.771,65.671 -118.101,79.856 -12.392,3.361 -25.395,5.895 -38.911,7.535 56.467,15.593 121.465,-3.517 157.011,-57.349 13.669,-20.702 22.078,-44.975 23.368,-69.795 0.186,-3.56 0.217,-7.219 0.1,-10.876 z"
       id="path19803" />
    <path
       style="fill:#333e40"
       d="m 61.731,285.694 c -0.172,1.417 -0.316,2.84 -0.44,4.268 -0.043,0.496 -0.076,0.993 -0.113,1.49 -1.118,14.917 0.483,29.965 4.665,44.325 8.368,28.73 26.616,53.633 49.1,73.026 11.252,9.704 23.99,18.45 37.956,26.047 -9.827,-14.116 -18.143,-29.407 -24.71,-45.625 C 91.139,362.292 66.637,326.069 61.731,285.694 Z"
       id="path19805" />
    <circle
       style="fill:#ffce1c"
       cx="387.32501"
       cy="78.802002"
       r="17.687"
       id="circle19807" />
    <path
       style="fill:#faa330"
       d="m 404.275,73.817 c -1.944,6.534 -7.588,11.633 -14.786,12.522 -8.723,1.077 -16.727,-4.403 -19.118,-12.573 -0.674,2.266 -0.91,4.702 -0.603,7.198 1.197,9.695 10.025,16.584 19.72,15.389 9.695,-1.197 16.584,-10.025 15.389,-19.721 -0.12,-0.972 -0.336,-1.906 -0.602,-2.815 z"
       id="path19809" />
    <circle
       style="fill:#ffce1c"
       cx="448.871"
       cy="91.399002"
       r="17.687"
       id="circle19811" />
    <path
       style="fill:#faa330"
       d="m 465.819,86.421 c -1.944,6.534 -7.588,11.633 -14.786,12.522 -8.723,1.077 -16.727,-4.403 -19.118,-12.573 -0.674,2.266 -0.91,4.702 -0.603,7.198 1.197,9.695 10.025,16.584 19.72,15.389 9.695,-1.197 16.584,-10.025 15.389,-19.721 -0.119,-0.971 -0.336,-1.904 -0.602,-2.815 z"
       id="path19813" />
    <path
       d="m 322.876,290.245 c -4.148,0 -7.511,3.363 -7.511,7.511 v 12.818 c 0,4.148 3.363,7.511 7.511,7.511 4.148,0 7.511,-3.363 7.511,-7.511 v -12.818 c 0,-4.149 -3.363,-7.511 -7.511,-7.511 z"
       id="path19815" />
    <path
       d="m 464.529,290.245 c -4.148,0 -7.511,3.363 -7.511,7.511 v 12.818 c 0,4.148 3.363,7.511 7.511,7.511 4.148,0 7.511,-3.363 7.511,-7.511 v -12.818 c 0,-4.149 -3.363,-7.511 -7.511,-7.511 z"
       id="path19817" />
    <path
       d="m 416.127,304.026 c -3.123,-2.73 -7.868,-2.411 -10.598,0.712 -2.87,3.284 -7.18,5.166 -11.827,5.166 -4.647,0 -8.956,-1.883 -11.826,-5.166 -2.73,-3.123 -7.475,-3.442 -10.598,-0.712 -3.123,2.73 -3.442,7.474 -0.712,10.598 5.722,6.547 14.155,10.301 23.136,10.301 8.981,0 17.413,-3.755 23.137,-10.301 2.73,-3.122 2.411,-7.868 -0.712,-10.598 z"
       id="path19819" />
    <path
       d="m 476.618,204.753 c -9.12,-11.252 -19.638,-21.392 -31.16,-30.079 -5.066,-3.818 -10.356,-7.423 -15.843,-10.814 1.318,-12.007 4.657,-30.496 13.111,-48.095 2.075,0.555 4.244,0.864 6.479,0.864 14.917,0 26.861,-13.472 25.031,-28.286 -1.556,-12.607 -12.297,-22.114 -24.986,-22.114 -14.913,0 -26.856,13.489 -25.03,28.286 0.617,5.006 2.7,9.507 5.76,13.134 -8.502,17.094 -12.555,34.937 -14.481,48.198 -14.126,-7.36 -29.344,-13.41 -45.385,-18.067 1.944,-10.102 5.295,-22.562 11.074,-34.619 2.073,0.554 4.241,0.863 6.474,0.863 7.727,0 15.133,-3.607 19.887,-9.699 4.141,-5.306 5.966,-11.908 5.142,-18.587 -1.555,-12.607 -12.296,-22.114 -24.985,-22.114 -14.918,0 -26.86,13.471 -25.031,28.286 0.618,5.01 2.704,9.514 5.769,13.143 -6.729,13.554 -10.642,27.557 -12.896,38.935 -9.945,-2.301 -20.156,-4.088 -30.577,-5.34 0.276,-0.808 0.551,-1.617 0.797,-2.431 5.441,-17.922 4.078,-36.767 -3.835,-53.064 C 313.924,56.66 300.187,44.746 283.254,39.606 252.81,30.365 220.712,46.277 205.837,73.54 191.318,56.039 170.179,45.198 147.739,45.198 c -6.854,0 -13.665,1.012 -20.243,3.009 -39.123,11.876 -60.593,55.666 -47.859,97.616 5.252,17.302 15.545,32.018 29.419,42.375 -11.193,9.831 -20.945,20.558 -28.934,31.946 -11.932,17.01 -19.982,35.541 -23.834,54.605 L 8.711,289.684 C 3.555,290.913 0,295.388 0,300.745 c 0,5.358 3.556,9.833 8.712,11.061 l 47.574,14.929 c 3.85,19.066 11.902,37.598 23.834,54.608 16.545,23.586 40.595,44.378 69.552,60.131 24.438,13.287 51.654,22.797 80.893,28.269 18.719,3.511 38.117,5.292 57.653,5.292 26.893,0 52.904,-3.357 77.311,-9.976 53.237,-14.43 96.679,-43.863 122.343,-82.879 0.02,-0.03 0.04,-0.058 0.071,-0.104 36.773,-55.708 30.127,-126.18 -11.325,-177.323 z M 441.204,85.168 c 1.672,-2.143 4.079,-3.507 6.778,-3.839 0.422,-0.052 0.848,-0.078 1.268,-0.078 5.117,0 9.45,3.84 10.078,8.933 0.687,5.57 -3.285,10.659 -8.854,11.347 -0.422,0.052 -0.849,0.078 -1.269,0.078 -5.117,0 -9.449,-3.839 -10.077,-8.933 -0.333,-2.7 0.405,-5.365 2.076,-7.508 z M 386.437,68.727 c 5.5,-0.72 10.67,3.369 11.346,8.849 0.739,5.992 -4.092,11.425 -10.122,11.425 -5.117,0 -9.449,-3.84 -10.078,-8.933 -0.683,-5.524 3.473,-10.636 8.854,-11.341 z m 88.924,305.066 c -24.78,37.185 -67.217,59.259 -111.799,59.259 -51.061,0 -98.187,-28.787 -120.679,-74.717 -21.469,-43.844 -16.169,-95.704 11.983,-135.256 30.198,-42.429 93.979,-49.612 131.519,-12.672 2.124,2.09 4.003,4.092 7.215,4.105 3.211,0.012 5.419,-2.374 7.556,-4.436 8.672,-8.367 20.591,-12.737 32.614,-12.058 12.161,0.687 23.463,6.343 31.317,15.763 20.786,24.936 32.366,55.84 32.609,87.019 0.201,25.916 -8.009,51.497 -22.335,72.993 z M 215.594,88.166 c 8.283,-21.471 28.297,-36.213 49.674,-36.213 4.609,0 9.192,0.682 13.621,2.026 12.883,3.91 23.37,13.05 29.531,25.735 6.256,12.882 7.312,27.847 2.974,42.139 -0.544,1.792 -1.178,3.571 -1.898,5.325 -0.868,-0.059 -8.937,-0.474 -12.105,-0.578 -10.443,-0.306 -20.893,-0.096 -31.316,0.624 -4.899,0.34 -14.911,1.393 -15.032,1.408 4.434,-13.24 12.546,-31.997 25.769,-44.929 2.965,-2.9 3.018,-7.656 0.118,-10.621 -2.9,-2.965 -7.656,-3.017 -10.621,-0.118 -8.024,7.848 -22.476,25.607 -31.753,58.069 -3.186,0.554 -6.365,1.153 -9.532,1.807 0.432,-6.419 0.085,-12.914 -0.962,-19.258 -1.462,-8.848 -4.33,-17.462 -8.468,-25.416 z m -94.468,90.183 C 108.248,169.861 98.703,156.928 94.008,141.46 83.68,107.435 100.659,72.049 131.856,62.58 c 27.465,-8.337 56.083,6.681 69.566,30.989 7.128,12.852 10.101,28.049 8.178,42.633 -0.011,0.089 -0.021,0.177 -0.033,0.266 -10.027,2.639 -19.914,5.824 -29.585,9.564 -5.542,-17.218 -16.087,-42.267 -34.189,-59.973 -2.965,-2.9 -7.72,-2.847 -10.621,0.118 -2.9,2.965 -2.848,7.721 0.118,10.621 16.33,15.971 25.864,39.379 30.79,55.069 -9.025,4.096 -17.809,8.691 -26.279,13.839 -3.709,2.255 -18.361,12.85 -18.675,12.643 z m -67.112,131.93 -30.383,-9.534 30.383,-9.538 c -0.078,1.072 -0.124,2.144 -0.175,3.217 -0.256,5.275 -0.209,10.585 0.175,15.855 z m 38.454,62.402 C 81.411,356.956 73.434,339.218 70.259,319.936 c -0.01,-0.079 -0.01,-0.158 -0.023,-0.237 -2.057,-12.532 -2.057,-25.384 0,-37.915 0.013,-0.081 0.013,-0.161 0.024,-0.241 4.747,-35.614 29.046,-66.929 56.549,-88.602 0.836,-0.659 3.427,-2.64 3.536,-2.722 -0.058,0.115 -1.936,3.872 -2.787,5.649 -15.551,32.45 -23.659,68.707 -23.659,104.873 0,38.155 8.921,76.196 26.281,110.194 0.059,0.115 0.112,0.232 0.171,0.346 -14.395,-10.833 -27.497,-23.828 -37.883,-38.6 z m 65.961,56.447 c -0.689,-1.005 -1.372,-2.014 -2.044,-3.03 -6.284,-9.503 -11.855,-19.483 -16.633,-29.826 -13.801,-29.871 -20.833,-62.641 -20.833,-95.531 0,-41.831 11.606,-83.494 33.518,-119.152 1.322,-2.15 5.741,-8.857 5.985,-9.214 0.173,-0.092 0.346,-0.185 0.521,-0.277 16.247,-8.627 33.506,-15.331 51.23,-20.227 0.367,-0.101 0.735,-0.198 1.102,-0.297 -3.773,4.817 -7.352,9.783 -10.747,14.874 -26.31,39.458 -40.373,86.901 -40.373,134.295 0,50.076 15.599,99.789 44.699,140.584 0.722,1.011 5.34,7.214 6.439,8.617 -18.781,-5.105 -36.485,-12.072 -52.864,-20.816 z m 203.167,21.433 c -23.125,6.272 -47.814,9.452 -73.379,9.452 -17.769,0 -35.406,-1.544 -52.466,-4.592 -16.741,-17.947 -30.539,-38.639 -40.611,-61.023 -13.965,-31.029 -20.692,-65.117 -19.901,-99.119 0.908,-39.021 12.017,-77.933 32.058,-111.444 8.097,-13.539 17.676,-26.207 28.432,-37.744 0.768,-0.137 1.536,-0.273 2.306,-0.405 24.729,-4.213 50.039,-5.284 75.036,-3.171 44.837,3.776 85.948,17.766 118.186,40.407 -13.898,0 -27.11,4.841 -37.617,13.709 -18.449,-16.508 -42.101,-25.549 -67.089,-25.549 -33.267,0 -64.641,16.182 -83.925,43.285 -18.465,25.942 -28.225,55.809 -28.225,86.371 0,22.226 5.219,44.255 14.99,64.202 24.998,51.031 77.432,83.132 134.169,83.132 1.434,0 6.584,-0.138 7.131,-0.164 -2.994,0.938 -6.025,1.821 -9.095,2.653 z"
       id="path19821" />
    <g
       id="g19823">
</g>
    <g
       id="g19825">
</g>
    <g
       id="g19827">
</g>
    <g
       id="g19829">
</g>
    <g
       id="g19831">
</g>
    <g
       id="g19833">
</g>
    <g
       id="g19835">
</g>
    <g
       id="g19837">
</g>
    <g
       id="g19839">
</g>
    <g
       id="g19841">
</g>
    <g
       id="g19843">
</g>
    <g
       id="g19845">
</g>
    <g
       id="g19847">
</g>
    <g
       id="g19849">
</g>
    <g
       id="g19851">
</g>
  </g>
</svg>
