<?xml version="1.0" encoding="UTF-8" standalone="no"?>
<svg
   xmlns:dc="http://purl.org/dc/elements/1.1/"
   xmlns:cc="http://creativecommons.org/ns#"
   xmlns:rdf="http://www.w3.org/1999/02/22-rdf-syntax-ns#"
   xmlns:svg="http://www.w3.org/2000/svg"
   xmlns="http://www.w3.org/2000/svg"
   width="500"
   height="250"
   viewBox="0 0 132.29166 66.145835"
   version="1.1"
   id="svg8">
  <defs
     id="defs2">
    <rect
       id="rect17555"
       height="33.899739"
       width="45.47526"
       y="14.469401"
       x="64.905598" />
    <rect
       id="rect16657"
       height="39.6875"
       width="52.916666"
       y="16.536458"
       x="16.123047" />
    <rect
       id="rect14952"
       height="41.217972"
       width="28.355626"
       y="11.693042"
       x="56.1266" />
    <rect
       id="rect12397"
       height="46.715494"
       width="47.955729"
       y="8.6816405"
       x="71.933593" />
    <rect
       id="rect10750"
       height="32.448191"
       width="43.55658"
       y="16.95491"
       x="54.080318" />
    <rect
       id="rect10116"
       height="31.278887"
       width="27.917137"
       y="16.808747"
       x="101.14481" />
    <rect
       id="rect9439"
       height="25.14004"
       width="57.003578"
       y="26.309344"
       x="5.2618688" />
    <rect
       id="rect8476"
       height="26.60167"
       width="35.663777"
       y="22.216779"
       x="51.449384" />
    <rect
       id="rect8111"
       height="60.358072"
       width="46.715494"
       y="-7.4414062"
       x="111.20768" />
    <rect
       id="rect5692"
       height="31.419271"
       width="28.318685"
       y="19.223633"
       x="111.62109" />
    <rect
       id="rect4959"
       height="36.793619"
       width="38.447265"
       y="12.815755"
       x="87.436523" />
    <rect
       id="rect3591"
       height="32.246093"
       width="36.586914"
       y="17.569987"
       x="2.6871745" />
    <rect
       x="33.261906"
       y="1.889881"
       width="32.127975"
       height="25.607887"
       id="rect952" />
    <rect
       x="23.718006"
       y="3.0238094"
       width="21.45015"
       height="20.127232"
       id="rect946" />
    <rect
       id="rect952-5"
       height="25.607887"
       width="32.127975"
       y="1.889881"
       x="33.261906" />
    <rect
       id="rect1246"
       height="25.607887"
       width="32.127975"
       y="1.889881"
       x="33.261906" />
    <rect
       id="rect2592"
       height="20.127232"
       width="21.45015"
       y="3.0238094"
       x="23.718006" />
    <rect
       x="23.718006"
       y="3.0238094"
       width="21.45015"
       height="20.127232"
       id="rect2600" />
    <rect
       id="rect2608"
       height="20.127232"
       width="21.45015"
       y="3.0238094"
       x="23.718006" />
    <rect
       x="2.6871746"
       y="17.569986"
       width="36.586914"
       height="32.246094"
       id="rect3591-5" />
    <rect
       x="2.6871746"
       y="17.569986"
       width="36.586914"
       height="32.246094"
       id="rect4205" />
    <rect
       x="111.20768"
       y="-7.4414062"
       width="46.715494"
       height="60.358072"
       id="rect8139" />
    <rect
       x="51.449384"
       y="22.216779"
       width="35.663777"
       height="26.60167"
       id="rect8484" />
    <rect
       x="16.123047"
       y="16.536458"
       width="52.916666"
       height="39.6875"
       id="rect16854" />
    <rect
       x="16.123047"
       y="16.536458"
       width="52.916666"
       height="39.6875"
       id="rect16860" />
    <rect
       x="64.905598"
       y="14.469401"
       width="45.47526"
       height="33.899739"
       id="rect17563" />
    <rect
       x="64.905598"
       y="14.469401"
       width="45.47526"
       height="33.899739"
       id="rect20027" />
    <rect
       id="rect28320"
       height="33.899739"
       width="45.47526"
       y="14.469401"
       x="64.905598" />
  </defs>
  <metadata
     id="metadata5">
    <rdf:RDF>
      <cc:Work
         rdf:about="">
        <dc:format>image/svg+xml</dc:format>
        <dc:type
           rdf:resource="http://purl.org/dc/dcmitype/StillImage" />
        <dc:title></dc:title>
      </cc:Work>
    </rdf:RDF>
  </metadata>
  <g
     transform="matrix(0.26458333,0,0,0.26458333,71.999739,33.965621)"
     id="g14585">
</g>
  <g
     transform="matrix(0.26458333,0,0,0.26458333,71.999739,33.965621)"
     id="g14587">
</g>
  <g
     transform="matrix(0.26458333,0,0,0.26458333,71.999739,33.965621)"
     id="g14589">
</g>
  <g
     transform="matrix(0.26458333,0,0,0.26458333,71.999739,33.965621)"
     id="g14591">
</g>
  <g
     transform="matrix(0.26458333,0,0,0.26458333,71.999739,33.965621)"
     id="g14593">
</g>
  <g
     transform="matrix(0.26458333,0,0,0.26458333,71.999739,33.965621)"
     id="g14595">
</g>
  <g
     transform="matrix(0.26458333,0,0,0.26458333,71.999739,33.965621)"
     id="g14597">
</g>
  <g
     transform="matrix(0.26458333,0,0,0.26458333,71.999739,33.965621)"
     id="g14599">
</g>
  <g
     transform="matrix(0.26458333,0,0,0.26458333,71.999739,33.965621)"
     id="g14601">
</g>
  <g
     transform="matrix(0.26458333,0,0,0.26458333,71.999739,33.965621)"
     id="g14603">
</g>
  <g
     transform="matrix(0.26458333,0,0,0.26458333,71.999739,33.965621)"
     id="g14605">
</g>
  <g
     transform="matrix(0.26458333,0,0,0.26458333,71.999739,33.965621)"
     id="g14607">
</g>
  <g
     transform="matrix(0.26458333,0,0,0.26458333,71.999739,33.965621)"
     id="g14609">
</g>
  <g
     transform="matrix(0.26458333,0,0,0.26458333,71.999739,33.965621)"
     id="g14611">
</g>
  <g
     transform="matrix(0.26458333,0,0,0.26458333,71.999739,33.965621)"
     id="g14613">
</g>
  <g
     transform="matrix(0.09149756,0,0,0.09149756,7.0273028,9.6614354)"
     id="g34102">
    <g
       id="g34084">
      <path
         d="m 391.359,87.432 -55.853,94.565 v 295.578 l -25.547,19.146 h 109.91 c 13.974,0 25.303,-11.328 25.303,-25.303 V 181.997 Z"
         fill="#a6aaed"
         id="path34062" />
      <path
         d="m 391.321,87.496 0.038,-0.064 h -0.038 V 54.506 c 0,-13.486 -10.933,-24.419 -24.419,-24.419 H 163.394 c -13.487,0 -24.42,10.933 -24.42,24.419 v 32.925 h -2.36 l -63.596,94.565 v 289.421 c 0,13.975 11.329,25.303 25.303,25.303 h 211.637 c 13.974,0 25.303,-11.329 25.303,-25.303 v -289.42 z"
         fill="#ffffff"
         id="path34064" />
      <path
         d="m 72.463,460.257 c 0,0 28.195,-48.105 75.592,-48.105 47.397,0 74.365,24.516 107.87,24.516 33.505,0 75.73,-55.392 75.73,-55.392 V 264.45 c 0,0 -42.225,52.465 -75.73,52.465 -19.129,0 -36.399,-10.386 -56.513,-19.301 v 17.972 c 0,7.258 -5.884,13.142 -13.142,13.142 -7.258,0 -13.142,-5.884 -13.142,-13.142 v -27.313 c -7.064,-1.751 -14.566,-2.924 -22.645,-3.176 v 46.663 c 0,7.258 -5.884,13.142 -13.142,13.142 -7.258,0 -13.142,-5.884 -13.142,-13.142 V 288.741 C 91.086,299.56 72.463,330.413 72.463,330.413"
         fill="#96b4eb"
         id="path34066" />
      <path
         d="m 396.979,55.369 c 0,-13.963 -11.319,-25.282 -25.283,-25.282 h -66.278 c 13.963,0 25.282,11.319 25.282,25.282 v 42.754 l -45.884,83.266 v 235.837 c 0,12.003 -9.149,21.732 -20.436,21.732 H 93.455 c -11.287,0 -20.436,-9.73 -20.436,-21.732 v 54.191 c 0,13.975 11.329,25.303 25.303,25.303 h 211.636 c 13.975,0 25.303,-11.329 25.303,-25.303 v -289.42 l 41.288,-69.601 z"
         fill="#e1bdfc"
         id="path34068" />
      <path
         d="m 284.816,306.988 v 110.238 c 0,3.846 -0.948,7.451 -2.596,10.585 25.881,-15.643 49.433,-46.536 49.433,-46.536 V 264.45 c 10e-4,0 -21.998,27.33 -46.837,42.538 z"
         fill="#8286ea"
         id="path34070" />
      <path
         d="m 241.195,137.264 c 0,16.143 -22.469,29.229 -50.186,29.229 -27.717,0 -50.186,-13.086 -50.186,-29.229 l 0.005,-28.577 100.418,0.227 z"
         fill="#a6aaed"
         id="path34072" />
      <ellipse
         cx="191.009"
         cy="108.586"
         fill="#c1e5ef"
         rx="50.186001"
         ry="29.229"
         id="ellipse34074" />
    </g>
    <g
       fill="#3c122c"
       id="g34100">
      <path
         d="m 269.405,391.371 c -3.342,0 -6.052,-2.71 -6.052,-6.052 v -12.865 c 0,-3.342 2.71,-6.052 6.052,-6.052 3.342,0 6.052,2.71 6.052,6.052 v 12.865 c 0,3.343 -2.71,6.052 -6.052,6.052 z"
         id="path34086" />
      <path
         d="m 293.124,363.928 c -3.342,0 -6.052,-2.71 -6.052,-6.052 V 345.01 c 0,-3.342 2.71,-6.052 6.052,-6.052 3.342,0 6.052,2.71 6.052,6.052 v 12.866 c 0,3.342 -2.71,6.052 -6.052,6.052 z"
         id="path34088" />
      <path
         d="M 453.937,177.008 401.408,84.696 V 54.506 C 401.408,35.479 385.928,20 366.902,20 H 163.394 c -19.027,0 -34.505,15.479 -34.505,34.506 v 26.457 c -0.225,0.269 -0.445,0.544 -0.643,0.839 L 64.65,176.367 c -1.119,1.664 -1.717,3.624 -1.717,5.629 v 289.421 c 0,19.514 15.876,35.39 35.39,35.39 h 109.91 101.726 109.91 c 19.513,0 35.389,-15.876 35.389,-35.39 v -289.42 c -10e-4,-1.749 -0.456,-3.468 -1.321,-4.989 z m -62.759,-69.5 39.797,69.937 H 349.69 Z M 163.394,40.174 h 203.508 c 7.903,0 14.333,6.43 14.333,14.333 V 77.346 H 217.528 c -7.859,-2.582 -16.866,-4.04 -26.519,-4.04 -9.653,0 -18.659,1.458 -26.519,4.04 h -15.428 v -22.84 c -0.001,-7.903 6.429,-14.332 14.332,-14.332 z m 71.749,68.412 c 0,11.193 -17.734,23.177 -44.134,23.177 -26.4,0 -44.134,-11.984 -44.134,-23.177 0,-11.193 17.734,-23.177 44.134,-23.177 26.399,0 44.134,11.984 44.134,23.177 z m -88.267,22.098 c 10.22,8.08 26.047,13.183 44.133,13.183 18.093,0 33.926,-5.108 44.146,-13.193 l -0.012,6.579 v 0.011 c 0,11.193 -17.734,23.177 -44.134,23.177 -26.4,0 -44.134,-11.984 -44.134,-23.176 z m -12.091,-22.456 c -0.002,0.12 -0.014,0.238 -0.014,0.358 0,0.042 0.005,0.084 0.005,0.126 l -0.005,28.552 c 0,19.784 24.702,35.281 56.238,35.281 31.535,0 56.238,-15.497 56.238,-35.281 l 0.051,-28.34 c 0.001,-0.307 -0.029,-0.606 -0.073,-0.901 -0.088,-3.679 -1.029,-7.205 -2.712,-10.505 h 129.134 l -47.061,79.332 c -0.114,0.192 -0.2,0.396 -0.3,0.594 H 88.235 Z m -51.68,217.776 c 6.463,-8.077 18.471,-20.756 35.041,-28.391 v 34.147 c 0,10.584 8.61,19.194 19.194,19.194 10.583,0 19.193,-8.611 19.193,-19.194 v -40.222 c 3.504,0.332 7.001,0.854 10.542,1.573 v 22.475 c 0,10.584 8.61,19.194 19.193,19.194 10.584,0 19.194,-8.61 19.194,-19.194 v -8.541 c 1.049,0.492 2.089,0.982 3.121,1.468 15.777,7.432 30.68,14.453 47.34,14.453 25.288,0 53.867,-25.913 69.251,-42.099 v 98.875 c -12.677,15.979 -45.346,50.874 -69.251,50.874 -14.228,0 -27.238,-4.773 -42.303,-10.301 -18.16,-6.663 -38.742,-14.215 -65.566,-14.215 -29.176,0 -51.287,16.497 -64.949,30.757 z m 242.07,-63.212 c -12.762,15.187 -45.366,48.071 -69.251,48.071 -13.953,0 -27.034,-6.163 -42.182,-13.299 -3.833,-1.806 -7.797,-3.673 -11.879,-5.482 -1.871,-0.829 -4.035,-0.656 -5.753,0.46 -1.716,1.116 -2.751,3.025 -2.751,5.073 v 17.972 c 0,3.909 -3.181,7.09 -7.09,7.09 -3.908,0 -7.089,-3.181 -7.089,-7.09 v -27.313 c 0,-2.782 -1.896,-5.205 -4.596,-5.874 -8.094,-2.006 -15.916,-3.102 -23.913,-3.351 -1.659,-0.056 -3.225,0.564 -4.4,1.704 -1.176,1.14 -1.84,2.708 -1.84,4.346 v 46.662 c 0,3.91 -3.181,7.09 -7.089,7.09 -3.91,0 -7.09,-3.181 -7.09,-7.09 v -43.019 c 0,-1.939 -0.929,-3.761 -2.499,-4.899 -1.57,-1.139 -3.59,-1.456 -5.432,-0.853 -16.775,5.481 -29.954,15.635 -39.214,24.847 V 189.549 h 242.07 v 73.243 z M 208.232,486.635 H 98.322 c -8.39,0 -15.217,-6.826 -15.217,-15.217 v -15.891 c 9.889,-12.909 32.839,-37.323 64.949,-37.323 24.674,0 43.342,6.85 61.397,13.474 15.477,5.678 30.094,11.042 46.473,11.042 25.304,0 53.838,-27.246 69.251,-44.342 v 73.04 c 0,8.391 -6.826,15.217 -15.217,15.217 z m 211.636,0 h -77.964 c 2.206,-4.612 3.444,-9.772 3.444,-15.217 V 189.549 h 89.736 v 281.869 c 0,8.39 -6.825,15.217 -15.216,15.217 z"
         id="path34090" />
    </g>
  </g>
  <g
     transform="matrix(0.10656825,0,0,0.10656825,65.859414,8.2806239)"
     id="g34321">
    <path
       style="fill:#f29f5c"
       d="m 418.258,249.103 -13.006,-105.653 -24.372,3 0.01,-0.017 -47.25,-26.591 c -5.04,-2.836 -10.824,-4.07 -16.583,-3.538 l -74.606,6.9 c -9.171,0.848 -17.366,6.081 -21.993,14.045 l -52.584,90.508 c -3.883,6.683 -0.835,15.254 6.396,17.985 l 2.151,0.812 c 4.138,1.563 8.391,2.468 12.642,2.822 l -6.663,5.803 -13.33,11.614 -37.913,32.34 c -6.749,5.879 -7.45,16.109 -1.571,22.858 l 3.846,4.405 c 7.55,8.658 20.691,9.557 29.365,2.005 l 14.49,16.62 c 4.711,5.41 11.613,7.803 18.244,6.987 3.985,-0.49 7.873,-2.142 11.12,-4.982 l 14.474,16.621 c 4.728,5.424 11.629,7.801 18.26,6.985 3.985,-0.491 7.874,-2.127 11.122,-4.966 l 7.866,6.798 c 7.552,8.673 20.708,9.57 29.382,2.018 l 10.693,-9.329 89.896,-70.012 0.097,-0.089 35.468,-0.035 z"
       id="path34209" />
    <path
       style="fill:#d37d42"
       d="m 379.731,267.833 -0.097,0.089 -89.896,70.012 -10.693,9.329 c -8.673,7.552 -21.83,6.655 -29.382,-2.018 l -7.866,-6.798 c -3.248,2.839 -7.138,4.476 -11.122,4.966 -6.631,0.816 -13.531,-1.561 -18.26,-6.985 l -14.474,-16.621 c -3.248,2.839 -7.136,4.491 -11.12,4.982 -6.631,0.816 -13.533,-1.576 -18.244,-6.987 l -14.49,-16.62 c -7.426,6.466 -18.118,6.718 -25.781,1.227 -3.93,5.926 -3.616,13.958 1.283,19.582 l 3.846,4.405 c 7.55,8.658 20.691,9.557 29.365,2.005 l 14.49,16.62 c 4.711,5.41 11.613,7.803 18.244,6.987 3.985,-0.49 7.872,-2.142 11.12,-4.982 l 14.474,16.622 c 4.728,5.424 11.629,7.801 18.26,6.985 3.985,-0.491 7.874,-2.127 11.122,-4.966 l 7.866,6.798 c 7.552,8.673 20.708,9.57 29.382,2.018 l 10.693,-9.329 89.896,-70.012 0.097,-0.089 35.468,-0.035 -3.924,-31.876 z"
       id="path34211" />
    <path
       style="fill:#f9c295"
       d="m 396.101,313.533 -48.165,-41.53 -13.394,-11.54 -9.584,-8.254 -41.207,-35.52 4.759,-40.51 c 1.61,-13.701 -7.015,-26.528 -20.311,-30.207 l -89.825,-24.855 c -9.504,-2.63 -19.549,1.78 -24.045,10.557 l -11.296,22.05 -48.488,-3.291 -12.42,105.724 -5.398,45.945 47.198,3.139 0.098,0.089 98.602,84.993 10.745,9.27 c 8.715,7.504 21.866,6.534 29.37,-2.181 l 14.38,-16.686 c 3.263,2.821 7.162,4.436 11.15,4.905 6.635,0.78 13.523,-1.636 18.221,-7.086 l 14.382,-16.701 c 3.263,2.821 7.16,4.452 11.148,4.92 6.635,0.78 13.524,-1.651 18.205,-7.088 l 14.397,-16.7 c 8.715,7.504 21.851,6.532 29.353,-2.168 l 3.822,-4.427 c 5.842,-6.78 5.084,-17.006 -1.697,-22.848 z"
       id="path34213" />
    <g
       id="g34221">
	<path
   style="fill:#e59f6a"
   d="m 396.101,313.533 -14.671,-12.65 c 4.768,6.323 4.67,15.318 -0.711,21.564 l -4.057,4.699 c -7.964,9.235 -21.908,10.267 -31.16,2.301 l -15.284,17.728 c -4.969,5.771 -12.282,8.351 -19.326,7.524 -4.233,-0.497 -8.37,-2.228 -11.834,-5.223 l -15.268,17.73 c -4.987,5.785 -12.298,8.349 -19.342,7.522 -4.233,-0.497 -8.372,-2.212 -11.836,-5.207 l -15.266,17.714 c -2.876,3.341 -6.539,5.592 -10.474,6.752 l 6.499,5.607 c 8.715,7.504 21.866,6.534 29.37,-2.181 l 14.38,-16.686 c 3.263,2.821 7.162,4.436 11.15,4.905 6.635,0.779 13.523,-1.636 18.221,-7.086 l 14.382,-16.701 c 3.263,2.821 7.16,4.452 11.148,4.92 6.635,0.78 13.524,-1.651 18.205,-7.088 l 14.397,-16.7 c 8.715,7.504 21.851,6.532 29.353,-2.168 l 3.822,-4.427 c 5.841,-6.781 5.083,-17.007 -1.698,-22.849 z"
   id="path34215" />

	<path
   style="fill:#e59f6a"
   d="M 369.5,337.416 343.108,314.66 c -3.135,-2.704 -7.872,-2.354 -10.578,0.783 -2.705,3.137 -2.354,7.873 0.783,10.578 l 26.345,22.716 4.966,-5.76 c 1.982,1.707 4.199,2.952 6.52,3.791 1.713,-3.049 1.106,-6.981 -1.644,-9.352 z"
   id="path34217" />

	<path
   style="fill:#e59f6a"
   d="m 327.303,365.627 c 1.807,-3.065 1.228,-7.074 -1.562,-9.48 l -23.708,-20.441 c -3.137,-2.704 -7.872,-2.354 -10.578,0.783 -2.705,3.137 -2.354,7.873 0.783,10.578 l 23.708,20.441 c 0.01,0.008 0.02,0.015 0.03,0.023 l 4.898,-5.688 c 1.953,1.689 4.137,2.942 6.429,3.784 z"
   id="path34219" />

</g>
    <g
       id="g34233">
	<path
   style="fill:#f29f5c"
   d="m 126.385,305.135 -5.713,7.544 c -6.221,8.215 -4.605,19.918 3.61,26.14 v 0 c 8.215,6.221 19.918,4.605 26.14,-3.61 l 5.713,-7.544 c 6.221,-8.215 4.605,-19.918 -3.61,-26.14 v 0 c -8.215,-6.221 -19.919,-4.605 -26.14,3.61 z"
   id="path34223" />

	<path
   style="fill:#f29f5c"
   d="m 161.181,321.002 -10.759,14.207 c -6.221,8.215 -4.605,19.918 3.61,26.14 v 0 c 8.215,6.221 19.918,4.605 26.14,-3.61 l 10.759,-14.207 c 6.221,-8.215 4.605,-19.918 -3.61,-26.14 v 0 c -8.216,-6.221 -19.919,-4.605 -26.14,3.61 z"
   id="path34225" />

	<path
   style="fill:#f29f5c"
   d="m 194.834,338.377 -14.663,19.362 c -6.221,8.215 -4.605,19.918 3.61,26.14 v 0 c 8.215,6.221 19.918,4.605 26.14,-3.61 l 14.663,-19.362 c 6.221,-8.215 4.605,-19.918 -3.61,-26.14 v 0 c -8.215,-6.222 -19.918,-4.605 -26.14,3.61 z"
   id="path34227" />

	<path
   style="fill:#f29f5c"
   d="m 225.435,359.783 -15.514,20.485 c -6.221,8.215 -4.605,19.918 3.61,26.14 v 0 c 8.215,6.221 19.918,4.605 26.14,-3.61 l 15.514,-20.485 c 6.221,-8.215 4.605,-19.918 -3.61,-26.14 v 0 c -8.216,-6.221 -19.919,-4.605 -26.14,3.61 z"
   id="path34229" />

	<path
   style="fill:#f29f5c"
   d="m 380.89,146.433 -47.25,-26.591 c -5.04,-2.836 -10.824,-4.07 -16.583,-3.538 l -74.606,6.9 c -9.171,0.848 -17.366,6.081 -21.993,14.045 l -52.584,90.508 c -3.883,6.684 -0.835,15.254 6.396,17.985 l 2.151,0.812 c 19.275,7.28 41.043,1.085 53.596,-15.252 l 20.147,-26.22 c 0,0 48.429,56.073 101.749,-9.41"
   id="path34231" />

</g>
    <path
       style="fill:#5c9cee"
       d="M 511.945,309.145 487.232,108.394 c -0.243,-1.974 -1.26,-3.771 -2.828,-4.995 -1.568,-1.224 -3.557,-1.774 -5.532,-1.532 l -57.788,7.114 c -15.009,1.848 -25.716,15.562 -23.868,30.57 l 19.844,161.2 c 1.708,13.877 13.559,24.076 27.2,24.076 1.112,0 2.239,-0.068 3.37,-0.207 l 57.788,-7.114 c 4.11,-0.507 7.033,-4.25 6.527,-8.361 z"
       id="path34235" />
    <path
       style="fill:#3580d3"
       d="m 511.945,309.145 -2.713,-22.036 c -1.23,1.805 -3.194,3.095 -5.532,3.383 l -60.577,7.457 c -1.186,0.146 -2.367,0.217 -3.533,0.217 -10.2,0 -19.441,-5.442 -24.553,-13.84 l 2.022,16.424 c 1.708,13.877 13.559,24.076 27.2,24.076 1.112,0 2.239,-0.068 3.37,-0.207 l 57.788,-7.114 c 4.111,-0.506 7.034,-4.249 6.528,-8.36 z"
       id="path34237" />
    <path
       style="fill:#ed5575"
       d="M 90.918,108.98 33.13,101.866 c -1.977,-0.243 -3.964,0.308 -5.532,1.532 -1.568,1.224 -2.585,3.021 -2.828,4.995 L 0.057,309.145 c -0.506,4.111 2.417,7.854 6.527,8.36 l 57.788,7.114 c 1.132,0.139 2.257,0.207 3.37,0.207 13.64,0 25.492,-10.2 27.2,-24.076 l 19.844,-161.2 c 1.848,-15.008 -8.859,-28.722 -23.868,-30.57 z"
       id="path34239" />
    <path
       style="fill:#cc3a60"
       d="M 0.057,309.145 2.77,287.109 c 1.23,1.805 3.194,3.095 5.532,3.383 l 60.577,7.457 c 1.186,0.146 2.367,0.217 3.533,0.217 10.2,0 19.441,-5.442 24.553,-13.84 l -2.022,16.424 c -1.708,13.877 -13.559,24.076 -27.2,24.076 -1.112,0 -2.239,-0.068 -3.37,-0.207 L 6.585,317.505 c -4.112,-0.506 -7.034,-4.249 -6.528,-8.36 z"
       id="path34241" />
    <g
       id="g34247">
	<circle
   style="fill:#ebeef2"
   cx="464"
   cy="277.00101"
   r="14.498"
   id="circle34243" />

	<circle
   style="fill:#ebeef2"
   cx="47.189999"
   cy="277.00101"
   r="14.498"
   id="circle34245" />

</g>
    <g
       id="g34249">
</g>
    <g
       id="g34251">
</g>
    <g
       id="g34253">
</g>
    <g
       id="g34255">
</g>
    <g
       id="g34257">
</g>
    <g
       id="g34259">
</g>
    <g
       id="g34261">
</g>
    <g
       id="g34263">
</g>
    <g
       id="g34265">
</g>
    <g
       id="g34267">
</g>
    <g
       id="g34269">
</g>
    <g
       id="g34271">
</g>
    <g
       id="g34273">
</g>
    <g
       id="g34275">
</g>
    <g
       id="g34277">
</g>
  </g>
</svg>
