<?xml version="1.0" encoding="UTF-8" standalone="no"?>
<svg
   xmlns:dc="http://purl.org/dc/elements/1.1/"
   xmlns:cc="http://creativecommons.org/ns#"
   xmlns:rdf="http://www.w3.org/1999/02/22-rdf-syntax-ns#"
   xmlns:svg="http://www.w3.org/2000/svg"
   xmlns="http://www.w3.org/2000/svg"
   width="500"
   height="250"
   viewBox="0 0 132.29166 66.145835"
   version="1.1"
   id="svg8">
  <defs
     id="defs2">
    <rect
       id="rect3591"
       height="32.246093"
       width="36.586914"
       y="17.569987"
       x="2.6871745" />
    <rect
       x="33.261906"
       y="1.889881"
       width="32.127975"
       height="25.607887"
       id="rect952" />
    <rect
       x="23.718006"
       y="3.0238094"
       width="21.45015"
       height="20.127232"
       id="rect946" />
    <rect
       id="rect952-5"
       height="25.607887"
       width="32.127975"
       y="1.889881"
       x="33.261906" />
    <rect
       id="rect1246"
       height="25.607887"
       width="32.127975"
       y="1.889881"
       x="33.261906" />
    <rect
       id="rect2592"
       height="20.127232"
       width="21.45015"
       y="3.0238094"
       x="23.718006" />
    <rect
       x="23.718006"
       y="3.0238094"
       width="21.45015"
       height="20.127232"
       id="rect2600" />
    <rect
       id="rect2608"
       height="20.127232"
       width="21.45015"
       y="3.0238094"
       x="23.718006" />
    <rect
       x="2.6871746"
       y="17.569986"
       width="36.586914"
       height="32.246094"
       id="rect3591-5" />
    <rect
       x="2.6871746"
       y="17.569986"
       width="36.586914"
       height="32.246094"
       id="rect4205" />
  </defs>
  <metadata
     id="metadata5">
    <rdf:RDF>
      <cc:Work
         rdf:about="">
        <dc:format>image/svg+xml</dc:format>
        <dc:type
           rdf:resource="http://purl.org/dc/dcmitype/StillImage" />
        <dc:title></dc:title>
      </cc:Work>
    </rdf:RDF>
  </metadata>
  <g
     id="g3849"
     transform="matrix(0.52695301,0,0,0.52695301,9.6916388,62.424875)">
    <path
       id="path3845"
       d="m 60.616729,-60.990905 v 18.708867"
       style="fill:none;stroke:#000000;stroke-width:3.96875;stroke-linecap:round;stroke-linejoin:miter;stroke-miterlimit:4;stroke-dasharray:none;stroke-opacity:1" />
    <path
       style="fill:none;stroke:#000000;stroke-width:3.96875;stroke-linecap:round;stroke-linejoin:miter;stroke-miterlimit:4;stroke-dasharray:none;stroke-opacity:1"
       d="M 69.971162,-51.636471 H 51.262295"
       id="path3847" />
  </g>
  <text
     xml:space="preserve"
     id="text3589"
     style="font-style:normal;font-variant:normal;font-weight:bold;font-stretch:normal;font-size:10.5833px;line-height:1.25;font-family:sans-serif;-inkscape-font-specification:'sans-serif Bold';white-space:pre;shape-inside:url(#rect3591-5);fill:#000000;fill-opacity:1;stroke:none;"
     transform="matrix(2.2206353,0,0,2.2206353,-3.1566817,-16.591518)"><tspan
       x="2.6875"
       y="27.225778"><tspan>W</tspan></tspan></text>
  <g
     id="g4432"
     transform="matrix(0.27543763,0,0,0.27543763,51.293033,2.8917401)">
    <path
       id="path4420"
       fill="#af8054"
       d="M 128.017,87.214 C 123.023,80.568 96.665,75.5 64.881,75.5 c -32,0 -58.51,5.139 -63.245,11.852 L 0.881,86.526 V 89.5 c 0,7.735 28.654,14.006 64,14.006 35.346,0 64,-6.271 64,-14.006 v -2.98 z" />
    <ellipse
       id="ellipse4422"
       ry="14.006"
       rx="64"
       fill="#bd8d5a"
       cy="86.523003"
       cx="64.880997" />
    <path
       id="path4424"
       fill="#bd8d5a"
       d="m 104.122,83.084 a 225.611,225.611 0 0 1 -78.481,0 l 8.854,-51.7 A 8.17,8.17 0 0 1 45.111,24.9 l 14,4.6 a 18.5,18.5 0 0 0 11.539,0 l 14,-4.6 a 8.17,8.17 0 0 1 10.616,6.48 z" />
    <path
       id="path4426"
       fill="#b28256"
       d="m 104.12,83.083 a 226.156,226.156 0 0 1 -43.64,3.4 228.207,228.207 0 0 0 34.83,-3.4 l -8.85,-51.7 A 8.158,8.158 0 0 0 82.5,25.6 l 2.15,-0.7 a 8.171,8.171 0 0 1 10.62,6.48 z" />
    <path
       id="path4428"
       fill="#e1b378"
       d="m 104.121,83.083 a 225.315,225.315 0 0 1 -78.48,0 l 2.17,-13.639 a 225.036,225.036 0 0 0 74.14,0 z" />
    <path
       id="path4430"
       fill="#d0aa79"
       d="m 104.12,83.083 a 226.156,226.156 0 0 1 -43.64,3.4 228.207,228.207 0 0 0 34.83,-3.4 L 93.34,70.7 q 4.3,-0.54 8.61,-1.261 z" />
  </g>
  <g
     transform="matrix(0.27543763,0,0,0.27543763,51.78176,26.350631)"
     id="icon">
    <path
       d="M 128.017,87.214 C 123.023,80.568 96.665,75.5 64.881,75.5 c -32,0 -58.51,5.139 -63.245,11.852 L 0.881,86.526 V 89.5 c 0,7.735 28.654,14.006 64,14.006 35.346,0 64,-6.271 64,-14.006 v -2.98 z"
       fill="#af8054"
       id="path4392" />
    <ellipse
       cx="64.880997"
       cy="86.523003"
       fill="#bd8d5a"
       rx="64"
       ry="14.006"
       id="ellipse4394" />
    <path
       d="m 104.122,83.084 a 225.611,225.611 0 0 1 -78.481,0 l 8.854,-51.7 A 8.17,8.17 0 0 1 45.111,24.9 l 14,4.6 a 18.5,18.5 0 0 0 11.539,0 l 14,-4.6 a 8.17,8.17 0 0 1 10.616,6.48 z"
       fill="#bd8d5a"
       id="path4396" />
    <path
       d="m 104.12,83.083 a 226.156,226.156 0 0 1 -43.64,3.4 228.207,228.207 0 0 0 34.83,-3.4 l -8.85,-51.7 A 8.158,8.158 0 0 0 82.5,25.6 l 2.15,-0.7 a 8.171,8.171 0 0 1 10.62,6.48 z"
       fill="#b28256"
       id="path4398" />
    <path
       d="m 104.121,83.083 a 225.315,225.315 0 0 1 -78.48,0 l 2.17,-13.639 a 225.036,225.036 0 0 0 74.14,0 z"
       fill="#e1b378"
       id="path4400" />
    <path
       d="m 104.12,83.083 a 226.156,226.156 0 0 1 -43.64,3.4 228.207,228.207 0 0 0 34.83,-3.4 L 93.34,70.7 q 4.3,-0.54 8.61,-1.261 z"
       fill="#d0aa79"
       id="path4402" />
  </g>
  <g
     transform="matrix(0.52695301,0,0,0.52695301,65.964402,62.424875)"
     id="g4438">
    <path
       style="fill:none;stroke:#000000;stroke-width:3.96875;stroke-linecap:round;stroke-linejoin:miter;stroke-miterlimit:4;stroke-dasharray:none;stroke-opacity:1"
       d="m 60.616729,-60.990905 v 18.708867"
       id="path4434" />
    <path
       id="path4436"
       d="M 69.971162,-51.636471 H 51.262295"
       style="fill:none;stroke:#000000;stroke-width:3.96875;stroke-linecap:round;stroke-linejoin:miter;stroke-miterlimit:4;stroke-dasharray:none;stroke-opacity:1" />
  </g>
  <g
     transform="matrix(0.06246509,0,0,0.06246509,101.59701,16.747835)"
     id="g4534">
    <path
       style="fill:#4caf50"
       d="m 443.336,164.68 -160,-160 c -6.24,-6.24 -16.384,-6.24 -22.624,0 l -160,160 c -4.608,4.608 -5.984,11.456 -3.488,17.44 2.464,5.984 8.32,9.888 14.784,9.888 h 80 v 119.36 c 0,36.992 -11.2,72.672 -32.352,103.2 -21.12,30.464 -50.592,53.44 -85.28,66.464 -7.232,2.72 -11.488,10.208 -10.112,17.824 1.376,7.616 8,13.152 15.744,13.152 h 90.88 c 110.016,0 181.12,-83.648 181.12,-213.12 v -106.88 h 80 c 6.464,0 12.32,-3.904 14.784,-9.888 2.464,-5.984 1.088,-12.832 -3.456,-17.44 z"
       id="path4479" />
    <g
       id="g4481">
</g>
    <g
       id="g4483">
</g>
    <g
       id="g4485">
</g>
    <g
       id="g4487">
</g>
    <g
       id="g4489">
</g>
    <g
       id="g4491">
</g>
    <g
       id="g4493">
</g>
    <g
       id="g4495">
</g>
    <g
       id="g4497">
</g>
    <g
       id="g4499">
</g>
    <g
       id="g4501">
</g>
    <g
       id="g4503">
</g>
    <g
       id="g4505">
</g>
    <g
       id="g4507">
</g>
    <g
       id="g4509">
</g>
  </g>
</svg>
