<?xml version="1.0" encoding="UTF-8" standalone="no"?>
<svg
   xmlns:dc="http://purl.org/dc/elements/1.1/"
   xmlns:cc="http://creativecommons.org/ns#"
   xmlns:rdf="http://www.w3.org/1999/02/22-rdf-syntax-ns#"
   xmlns:svg="http://www.w3.org/2000/svg"
   xmlns="http://www.w3.org/2000/svg"
   width="500"
   height="250"
   viewBox="0 0 132.29166 66.145835"
   version="1.1"
   id="svg8">
  <defs
     id="defs2">
    <rect
       id="rect14952"
       height="41.217972"
       width="28.355626"
       y="11.693042"
       x="56.1266" />
    <rect
       id="rect12397"
       height="46.715494"
       width="47.955729"
       y="8.6816405"
       x="71.933593" />
    <rect
       id="rect10750"
       height="32.448191"
       width="43.55658"
       y="16.95491"
       x="54.080318" />
    <rect
       id="rect10116"
       height="31.278887"
       width="27.917137"
       y="16.808747"
       x="101.14481" />
    <rect
       id="rect9439"
       height="25.14004"
       width="57.003578"
       y="26.309344"
       x="5.2618688" />
    <rect
       id="rect8476"
       height="26.60167"
       width="35.663777"
       y="22.216779"
       x="51.449384" />
    <rect
       id="rect8111"
       height="60.358072"
       width="46.715494"
       y="-7.4414062"
       x="111.20768" />
    <rect
       id="rect5692"
       height="31.419271"
       width="28.318685"
       y="19.223633"
       x="111.62109" />
    <rect
       id="rect4959"
       height="36.793619"
       width="38.447265"
       y="12.815755"
       x="87.436523" />
    <rect
       id="rect3591"
       height="32.246093"
       width="36.586914"
       y="17.569987"
       x="2.6871745" />
    <rect
       x="33.261906"
       y="1.889881"
       width="32.127975"
       height="25.607887"
       id="rect952" />
    <rect
       x="23.718006"
       y="3.0238094"
       width="21.45015"
       height="20.127232"
       id="rect946" />
    <rect
       id="rect952-5"
       height="25.607887"
       width="32.127975"
       y="1.889881"
       x="33.261906" />
    <rect
       id="rect1246"
       height="25.607887"
       width="32.127975"
       y="1.889881"
       x="33.261906" />
    <rect
       id="rect2592"
       height="20.127232"
       width="21.45015"
       y="3.0238094"
       x="23.718006" />
    <rect
       x="23.718006"
       y="3.0238094"
       width="21.45015"
       height="20.127232"
       id="rect2600" />
    <rect
       id="rect2608"
       height="20.127232"
       width="21.45015"
       y="3.0238094"
       x="23.718006" />
    <rect
       x="2.6871746"
       y="17.569986"
       width="36.586914"
       height="32.246094"
       id="rect3591-5" />
    <rect
       x="2.6871746"
       y="17.569986"
       width="36.586914"
       height="32.246094"
       id="rect4205" />
    <rect
       x="111.20768"
       y="-7.4414062"
       width="46.715494"
       height="60.358072"
       id="rect8139" />
    <rect
       x="51.449384"
       y="22.216779"
       width="35.663777"
       height="26.60167"
       id="rect8484" />
  </defs>
  <metadata
     id="metadata5">
    <rdf:RDF>
      <cc:Work
         rdf:about="">
        <dc:format>image/svg+xml</dc:format>
        <dc:type
           rdf:resource="http://purl.org/dc/dcmitype/StillImage" />
        <dc:title></dc:title>
      </cc:Work>
    </rdf:RDF>
  </metadata>
  <g
     transform="matrix(0.26458333,0,0,0.26458333,71.999739,33.965621)"
     id="g14585">
</g>
  <g
     transform="matrix(0.26458333,0,0,0.26458333,71.999739,33.965621)"
     id="g14587">
</g>
  <g
     transform="matrix(0.26458333,0,0,0.26458333,71.999739,33.965621)"
     id="g14589">
</g>
  <g
     transform="matrix(0.26458333,0,0,0.26458333,71.999739,33.965621)"
     id="g14591">
</g>
  <g
     transform="matrix(0.26458333,0,0,0.26458333,71.999739,33.965621)"
     id="g14593">
</g>
  <g
     transform="matrix(0.26458333,0,0,0.26458333,71.999739,33.965621)"
     id="g14595">
</g>
  <g
     transform="matrix(0.26458333,0,0,0.26458333,71.999739,33.965621)"
     id="g14597">
</g>
  <g
     transform="matrix(0.26458333,0,0,0.26458333,71.999739,33.965621)"
     id="g14599">
</g>
  <g
     transform="matrix(0.26458333,0,0,0.26458333,71.999739,33.965621)"
     id="g14601">
</g>
  <g
     transform="matrix(0.26458333,0,0,0.26458333,71.999739,33.965621)"
     id="g14603">
</g>
  <g
     transform="matrix(0.26458333,0,0,0.26458333,71.999739,33.965621)"
     id="g14605">
</g>
  <g
     transform="matrix(0.26458333,0,0,0.26458333,71.999739,33.965621)"
     id="g14607">
</g>
  <g
     transform="matrix(0.26458333,0,0,0.26458333,71.999739,33.965621)"
     id="g14609">
</g>
  <g
     transform="matrix(0.26458333,0,0,0.26458333,71.999739,33.965621)"
     id="g14611">
</g>
  <g
     transform="matrix(0.26458333,0,0,0.26458333,71.999739,33.965621)"
     id="g14613">
</g>
  <g
     transform="matrix(0.06462473,0,0,0.06462473,33.29019,15.688033)"
     id="flat-7">
    <path
       d="m 296,344 147.882,73.941 a 60,60 0 0 1 32.564,45.18 L 480,488 H 32 l 3.554,-24.879 a 60,60 0 0 1 32.564,-45.18 L 216,344 Z"
       fill="#026ca2"
       id="path16454" />
    <path
       d="m 216,344 h 80 v 144 h -80 z"
       fill="#cbcbcb"
       id="path16456" />
    <path
       d="m 216,312 v 32 l -8,24 v 8 h 96 v -8 l -8,-24 v -32 z"
       fill="#fdc9a6"
       id="path16458" />
    <path
       d="m 296,312 v 19.64 c -0.08,0.06 -0.17,0.11 -0.25,0.17 A 70.9,70.9 0 0 1 216,331.64 V 312 Z"
       fill="#fdc9a6"
       id="path16460" />
    <path
       d="m 296,312 v 19.64 c -0.08,0.06 -0.17,0.11 -0.25,0.17 A 70.9,70.9 0 0 1 216,331.64 V 312 Z"
       fill="#e6af89"
       id="path16462" />
    <path
       d="m 72,488 v -32 a 8,8 0 0 1 16,0 v 32 z"
       fill="#015078"
       id="path16464" />
    <path
       d="m 424,488 v -32 a 8,8 0 0 1 16,0 v 32 z"
       fill="#015078"
       id="path16466" />
    <path
       d="M 230.857,388.571 240,416 h 32 L 281.143,388.571 256,376 Z"
       fill="#0296e5"
       id="path16468" />
    <path
       d="m 240,416 -8,72 h 48 l -8,-72 z"
       fill="#026ca2"
       id="path16470" />
    <path
       d="m 360.925,171.923 3.421,-13.6 A 91.909,91.909 0 0 0 344.781,75.838 84.136,84.136 0 0 0 258.348,44.3 c -5.306,1.236 -10.592,2.465 -15.636,3.637 A 76.04,76.04 0 0 0 191.9,88 h -2.124 a 43.754,43.754 0 0 0 -35,17.5 43.754,43.754 0 0 0 -8.311,32.44 l 5.435,38.06 2.913,24 H 352 l 6.585,-20.007 q 1.315,-3.993 2.34,-8.07 z"
       fill="#55300b"
       id="path16472" />
    <path
       d="M 256,328 A 70.9,70.9 0 0 1 190.173,283.433 198.156,198.156 0 0 1 176,209.837 V 152 l 24,-40.73 A 136.076,136.076 0 0 0 297.087,152 H 336 v 57.837 a 198.156,198.156 0 0 1 -14.173,73.6 A 70.9,70.9 0 0 1 256,328 Z"
       fill="#fdc9a6"
       id="path16474" />
    <g
       fill="#55300b"
       id="g16484">
      <path
         d="m 304,184 h -24 a 8,8 0 0 1 0,-16 h 24 a 8,8 0 0 1 0,16 z"
         id="path16476" />
      <circle
         cx="290"
         cy="202"
         r="10"
         id="circle16478" />
      <path
         d="m 232,184 h -24 a 8,8 0 0 1 0,-16 h 24 a 8,8 0 0 1 0,16 z"
         id="path16480" />
      <circle
         cx="222"
         cy="202"
         r="10"
         id="circle16482" />
    </g>
    <path
       d="m 272,280 h -32 a 8,8 0 0 1 0,-16 h 32 a 8,8 0 0 1 0,16 z"
       fill="#e6af89"
       id="path16486" />
    <path
       d="m 264,248 h -16 a 8,8 0 0 1 -8,-8 v -24 a 8,8 0 0 1 16,0 v 16 h 8 a 8,8 0 0 1 0,16 z"
       fill="#e6af89"
       id="path16488" />
    <path
       d="M 176,176 H 164.944 A 20.944,20.944 0 0 0 144,196.944 v 14.112 a 20.944,20.944 0 0 0 2.211,9.366 A 20.944,20.944 0 0 0 164.944,232 H 179 Z"
       fill="#fdc9a6"
       id="path16490" />
    <path
       d="m 336,176 h 11.056 A 20.944,20.944 0 0 1 368,196.944 v 14.112 a 20.944,20.944 0 0 1 -2.211,9.366 A 20.944,20.944 0 0 1 347.056,232 H 333 Z"
       fill="#fdc9a6"
       id="path16492" />
    <path
       d="m 216,344 40,32 -48,24 v -32 z"
       fill="#ebebeb"
       id="path16494" />
    <path
       d="m 296,344 -40,32 48,24 v -32 z"
       fill="#ebebeb"
       id="path16496" />
    <path
       d="m 216,488 h -40 l -24,-72 64,-72 z"
       fill="#0296e5"
       id="path16498" />
    <path
       d="m 296,488 h 40 l 24,-72 -64,-72 z"
       fill="#0296e5"
       id="path16500" />
  </g>
  <g
     transform="matrix(0.06553337,0,0,0.06553337,6.4559086,15.477229)"
     id="flat">
    <path
       d="m 336,488 h 144 l -3.554,-24.879 a 60,60 0 0 0 -32.564,-45.18 L 296,344 H 216 L 68.118,417.941 a 60,60 0 0 0 -32.564,45.18 L 32,488 h 144"
       fill="#48351b"
       id="path15009" />
    <path
       d="m 424,488 v -32 a 8,8 0 0 1 16,0 v 32 z"
       fill="#332613"
       id="path15011" />
    <path
       d="m 216,344 -64,32 24,48 40,-32 z"
       fill="#5f4623"
       id="path15013" />
    <path
       d="m 208,488 h -32 l -24,-72 56,-24 z"
       fill="#6e5129"
       id="path15015" />
    <path
       d="m 296,344 64,32 -24,48 -40,-32 z"
       fill="#5f4623"
       id="path15017" />
    <path
       d="m 304,488 h 32 l 24,-72 -56,-24 z"
       fill="#6e5129"
       id="path15019" />
    <path
       d="m 296,312 v 19.64 c -0.08,0.06 -0.17,0.11 -0.25,0.17 A 70.9,70.9 0 0 1 216,331.64 V 312 Z"
       fill="#e6af89"
       id="path15021" />
    <path
       d="m 216,312 v 32 l -8,24 48,48 48,-48 -8,-24 v -32 z"
       fill="#fdc9a6"
       id="path15023" />
    <path
       d="m 296,312 v 19.64 c -0.08,0.06 -0.17,0.11 -0.25,0.17 A 70.9,70.9 0 0 1 216,331.64 V 312 Z"
       fill="#e6af89"
       id="path15025" />
    <path
       d="m 304,368 -48,48 -48,-48 v 120 h 96 z"
       fill="#026ca2"
       id="path15027" />
    <path
       d="m 72,488 v -32 a 8,8 0 0 1 16,0 v 32 z"
       fill="#332613"
       id="path15029" />
    <path
       d="m 152,200 v -72.022 a 57.888,57.888 0 0 1 16.955,-40.933 l 14.09,-14.09 A 57.888,57.888 0 0 1 223.978,56 h 44.245 A 57.889,57.889 0 0 1 320,88 44.846,44.846 0 0 1 357.313,107.969 16,16 0 0 1 360,116.844 V 200 Z"
       fill="#55300b"
       id="path15031" />
    <path
       d="M 256,328 A 70.9,70.9 0 0 1 190.173,283.433 198.156,198.156 0 0 1 176,209.837 V 152 l 24,-40.73 H 312 L 336,152 v 57.837 a 198.156,198.156 0 0 1 -14.173,73.6 A 70.9,70.9 0 0 1 256,328 Z"
       fill="#fdc9a6"
       id="path15033" />
    <g
       fill="#55300b"
       id="g15043">
      <path
         d="m 304,184 h -24 a 8,8 0 0 1 0,-16 h 24 a 8,8 0 0 1 0,16 z"
         id="path15035" />
      <circle
         cx="290"
         cy="202"
         r="10"
         id="circle15037" />
      <path
         d="m 232,184 h -24 a 8,8 0 0 1 0,-16 h 24 a 8,8 0 0 1 0,16 z"
         id="path15039" />
      <circle
         cx="222"
         cy="202"
         r="10"
         id="circle15041" />
    </g>
    <path
       d="m 272,280 h -32 a 8,8 0 0 1 0,-16 h 32 a 8,8 0 0 1 0,16 z"
       fill="#e6af89"
       id="path15045" />
    <path
       d="m 264,248 h -16 a 8,8 0 0 1 -8,-8 v -24 a 8,8 0 0 1 16,0 v 16 h 8 a 8,8 0 0 1 0,16 z"
       fill="#e6af89"
       id="path15047" />
    <path
       d="M 176,176 H 164.944 A 20.944,20.944 0 0 0 144,196.944 v 14.112 a 20.944,20.944 0 0 0 2.211,9.366 A 20.944,20.944 0 0 0 164.944,232 H 184 Z"
       fill="#fdc9a6"
       id="path15049" />
    <path
       d="m 336,176 h 11.056 A 20.944,20.944 0 0 1 368,196.944 v 14.112 a 20.944,20.944 0 0 1 -2.211,9.366 A 20.944,20.944 0 0 1 347.056,232 H 328 Z"
       fill="#fdc9a6"
       id="path15051" />
  </g>
  <g
     transform="matrix(0.06691483,0,0,0.06691483,83.106906,14.410285)"
     id="g16625">
    <g
       id="g16621">
      <g
         id="g16615">
        <g
           id="g16609">
          <path
             d="m 512,287.704 c 0,-5.523 -4.477,-10 -10,-10 H 304.751 c -14.592,0 -28.855,-4.399 -40.984,-12.641 L 151.906,189.056 c -7.912,-5.376 -18.308,-5.634 -26.355,-0.463 -19.657,12.632 -21.884,40.766 -4.641,56.441 l 39.217,35.649 H 79.497 L 115.495,489.55 H 502 c 5.523,0 10,-4.477 10,-10 z"
             fill="#fed2a4"
             id="path16585" />
          <g
             id="g16589">
            <path
               d="m 502,277.704 h -30 c 5.523,0 10,4.477 10,10 V 479.55 c 0,5.523 -4.477,10 -10,10 h 30 c 5.523,0 10,-4.477 10,-10 V 287.704 c 0,-5.523 -4.477,-10 -10,-10 z"
               fill="#ffbd86"
               id="path16587" />
          </g>
          <path
             d="M 89.851,335.714 H 34.797 C 19.721,335.714 7.5,323.493 7.5,308.417 v -0.436 c 0,-15.076 12.221,-27.297 27.297,-27.297 h 55.054 c 15.076,0 27.297,12.221 27.297,27.297 v 0.436 c 0.001,15.076 -12.221,27.297 -27.297,27.297 z"
             fill="#fed2a4"
             id="path16591" />
          <path
             d="M 107.85,390.745 H 52.797 C 37.721,390.745 25.5,378.524 25.5,363.448 v -0.436 c 0,-15.076 12.221,-27.297 27.297,-27.297 h 55.054 c 15.076,0 27.297,12.221 27.297,27.297 v 0.436 c 0,15.075 -12.222,27.297 -27.298,27.297 z"
             fill="#fed2a4"
             id="path16593" />
          <path
             d="m 107.85,335.714 h -3.283 c 0.379,1.812 0.58,3.689 0.58,5.613 v 0.436 c 0,15.076 -12.221,27.297 -27.297,27.297 H 26.08 c 2.589,12.383 13.565,21.684 26.717,21.684 h 55.054 c 15.076,0 27.297,-12.221 27.297,-27.297 v -0.436 c 0,-15.075 -12.222,-27.297 -27.298,-27.297 z"
             fill="#ffbd86"
             id="path16595" />
          <path
             d="m 89.561,280.684 h -3.283 c 0.379,1.812 0.58,3.689 0.58,5.613 v 0.436 c 0,15.076 -12.221,27.297 -27.297,27.297 H 7.79 c 2.589,12.383 13.565,21.684 26.717,21.684 h 55.054 c 15.076,0 27.297,-12.221 27.297,-27.297 v -0.436 c 0,-15.076 -12.221,-27.297 -27.297,-27.297 z"
             fill="#ffbd86"
             id="path16597" />
          <path
             d="M 117.468,445.776 H 70.796 c -15.076,0 -27.297,-12.221 -27.297,-27.297 v -0.436 c 0,-15.076 12.221,-27.297 27.297,-27.297 h 46.673 c 15.076,0 27.297,12.221 27.297,27.297 v 0.436 c 0,15.075 -12.222,27.297 -27.298,27.297 z"
             fill="#fed2a4"
             id="path16599" />
          <path
             d="M 144.065,500.806 H 88.579 c -14.957,0 -27.081,-12.319 -27.081,-27.515 0,-15.196 12.125,-27.515 27.081,-27.515 h 55.486 c 14.957,0 27.081,12.319 27.081,27.515 0,15.196 -12.125,27.515 -27.081,27.515 z"
             fill="#fed2a4"
             id="path16601" />
          <g
             fill="#ffbd86"
             id="g16607">
            <path
               d="m 144.065,445.775 h -3.11 c 0.122,1.059 0.191,2.134 0.191,3.226 0,15.196 -12.125,27.515 -27.081,27.515 H 61.689 c 1.573,13.675 13.008,24.289 26.89,24.289 h 55.486 c 14.957,0 27.081,-12.319 27.081,-27.515 0,-15.196 -12.125,-27.515 -27.081,-27.515 z"
               id="path16603" />
            <path
               d="m 135.189,397.287 c -0.119,-0.102 -0.234,-0.208 -0.355,-0.307 -0.004,-0.003 -0.009,-0.007 -0.013,-0.01 -4.717,-3.889 -10.762,-6.225 -17.353,-6.225 h -2.91 c 0.122,1.059 0.191,2.134 0.191,3.226 0,15.196 -12.125,27.515 -27.081,27.515 H 43.667 c 1.498,13.66 13.07,24.289 27.129,24.289 h 46.673 c 6.591,0 12.636,-2.336 17.353,-6.225 0.004,-0.003 0.009,-0.007 0.013,-0.01 0.121,-0.1 0.236,-0.206 0.355,-0.307 5.847,-5.047 9.561,-12.567 9.561,-20.973 -0.002,-8.406 -3.716,-15.926 -9.562,-20.973 z"
               id="path16605" />
          </g>
        </g>
        <path
           d="M 428.219,504.5 H 386.781 C 372.266,504.5 360.5,492.734 360.5,478.219 V 289.035 c 0,-14.515 11.766,-26.281 26.281,-26.281 h 41.438 c 14.515,0 26.281,11.766 26.281,26.281 v 189.184 c 0,14.515 -11.766,26.281 -26.281,26.281 z"
           fill="#fd4755"
           id="path16611" />
        <path
           d="m 428.219,262.754 h -6.26 c 1.627,3.418 2.541,7.243 2.541,11.281 V 428.04 c 0,33.943 -27.516,61.459 -61.459,61.459 4.222,8.869 13.264,15 23.74,15 h 41.438 c 14.515,0 26.281,-11.766 26.281,-26.281 V 289.035 c 0,-14.514 -11.766,-26.281 -26.281,-26.281 z"
           fill="#fb2b3a"
           id="path16613" />
      </g>
      <circle
         cx="136"
         cy="62.507"
         fill="#fed402"
         r="55.007"
         id="circle16617" />
      <path
         d="m 144.4,8.138 c 10.241,9.99 16.608,23.933 16.608,39.37 0,30.38 -24.628,55.007 -55.008,55.007 -2.856,0 -5.661,-0.218 -8.4,-0.638 9.914,9.671 23.457,15.638 38.4,15.638 30.38,0 55.008,-24.627 55.008,-55.007 0,-27.524 -20.216,-50.326 -46.608,-54.37 z"
         fill="#fac600"
         id="path16619" />
    </g>
    <path
       d="m 78.025,136.865 c 1.693,0 3.396,-0.57 4.797,-1.738 l 0.035,-0.029 c 3.182,-2.651 3.595,-7.366 0.943,-10.549 -2.651,-3.181 -7.399,-3.598 -10.581,-0.945 -3.182,2.651 -3.612,7.381 -0.96,10.563 1.484,1.779 3.617,2.698 5.766,2.698 z m -23.238,19.282 c 1.319,0.938 2.837,1.39 4.342,1.39 2.345,0 4.654,-1.097 6.117,-3.152 0.019,-0.026 0.09,-0.129 0.109,-0.155 2.347,-3.391 1.491,-8.001 -1.884,-10.37 -3.375,-2.371 -8.057,-1.53 -10.446,1.828 -2.402,3.375 -1.613,8.058 1.762,10.459 z M 136,125.015 c 34.467,0 62.507,-28.04 62.507,-62.507 C 198.507,28.041 170.467,0 136,0 101.533,0 73.493,28.041 73.493,62.508 c 0,34.467 28.04,62.507 62.507,62.507 z M 136,15 c 26.196,0 47.507,21.312 47.507,47.508 0,26.195 -21.312,47.507 -47.507,47.507 -26.195,0 -47.507,-21.312 -47.507,-47.507 C 88.493,36.312 109.804,15 136,15 Z M 51.996,264.372 c 1.057,0 2.131,-0.225 3.153,-0.699 3.757,-1.744 5.389,-6.204 3.645,-9.961 -0.031,-0.065 -0.082,-0.172 -0.115,-0.237 -1.851,-3.703 -6.354,-5.202 -10.06,-3.353 -3.687,1.843 -5.191,6.315 -3.381,10.01 1.289,2.672 3.965,4.24 6.758,4.24 z m -11.4,-54.493 c 4.081,0.221 7.65,-2.927 7.893,-7.067 l 0.001,-0.021 c 0.258,-4.134 -2.883,-7.694 -7.018,-7.953 -4.119,-0.256 -7.695,2.884 -7.953,7.018 -0.002,0.035 -0.01,0.163 -0.011,0.198 -0.199,4.12 2.968,7.602 7.088,7.825 z M 504.5,482.05 h -42.723 c 0.712,-6.731 0.727,-190.175 0,-196.85 H 504.5 c 4.142,0 7.5,-3.357 7.5,-7.5 0,-4.143 -3.358,-7.5 -7.5,-7.5 h -48.252 c -6.073,-9.009 -16.37,-14.946 -28.029,-14.946 h -41.438 c -11.659,0 -21.956,5.937 -28.029,14.946 H 304.75 c -13.127,0 -25.841,-3.923 -36.765,-11.345 L 215.14,222.952 c -3.426,-2.325 -8.091,-1.438 -10.418,1.989 -2.328,3.426 -1.438,8.091 1.989,10.419 l 52.845,35.903 c 13.421,9.117 29.049,13.937 45.194,13.937 h 48.474 C 352.793,288.694 353,474.394 353,478.219 353,496.846 368.154,512 386.781,512 h 41.438 c 11.66,0 21.958,-5.939 28.031,-14.95 h 48.25 c 4.142,0 7.5,-3.357 7.5,-7.5 0,-4.143 -3.358,-7.5 -7.5,-7.5 z M 447,478.219 C 447,488.575 438.575,497 428.219,497 H 386.781 C 376.425,497 368,488.575 368,478.219 V 289.035 c 0,-10.356 8.425,-18.781 18.781,-18.781 h 41.438 c 10.356,0 18.781,8.425 18.781,18.781 z M 50.485,228.953 c -0.01,-0.053 -0.039,-0.197 -0.05,-0.249 -0.85,-4.055 -4.833,-6.68 -8.886,-5.834 -4.054,0.851 -6.658,4.793 -5.808,8.847 0.676,3.604 3.825,6.119 7.363,6.119 0.458,0 0.923,-0.042 1.391,-0.13 4.071,-0.763 6.753,-4.682 5.99,-8.753 z M 331.258,482.05 H 177.55 c 5.468,-21.213 -10.13,-42.601 -31.531,-43.715 3.931,-5.635 6.246,-12.479 6.246,-19.856 v -0.437 c 0,-13.469 -7.697,-25.166 -18.919,-30.947 5.766,-6.212 9.301,-14.523 9.301,-23.647 v -0.436 c 0,-15.856 -10.665,-29.26 -25.195,-33.44 4.508,-5.867 7.196,-13.201 7.196,-21.155 v -0.436 c 0,-7.353 -2.299,-14.177 -6.207,-19.802 h 34.31 c 0.832,11.344 4.989,31.821 23.222,45.393 13.123,9.768 27.191,11.418 36.872,10.973 4.138,-0.19 7.338,-3.698 7.148,-7.836 -0.19,-4.138 -3.699,-7.334 -7.836,-7.148 -5.79,0.265 -17.02,-0.423 -27.229,-8.021 -18.696,-13.915 -17.407,-38.966 -17.321,-40.332 0.045,-1.825 -0.332,-4.153 -2.434,-6.077 l -39.221,-35.65 c -6.437,-5.849 -9.754,-14.234 -9.102,-23.006 0.649,-8.731 5.138,-16.49 12.315,-21.288 5.639,-3.768 12.911,-3.737 18.528,0.077 l 37.247,25.307 c 3.427,2.33 8.091,1.438 10.418,-1.988 2.328,-3.426 1.438,-8.091 -1.989,-10.418 l -37.247,-25.308 c -10.697,-7.265 -24.548,-7.321 -35.292,-0.141 -11.042,7.381 -17.946,19.28 -18.939,32.646 -0.997,13.407 4.096,26.245 13.972,35.219 l 24.863,22.6 C 139.124,273.117 37.822,273.185 34.795,273.185 15.61,273.184 0,288.794 0,307.981 v 0.436 c 0,15.857 10.665,29.26 25.195,33.439 -4.508,5.867 -7.196,13.202 -7.196,21.156 v 0.436 c 0,15.857 10.665,29.26 25.195,33.44 -4.508,5.867 -7.196,13.201 -7.196,21.155 v 0.437 c 0,15.863 10.674,29.271 25.214,33.444 -4.517,5.917 -7.214,13.328 -7.214,21.369 0,19.308 15.513,35.016 34.581,35.016 h 55.486 c 10.019,0 19.051,-4.341 25.373,-11.257 h 161.82 c 4.142,0 7.5,-3.357 7.5,-7.5 0,-4.143 -3.358,-7.502 -7.5,-7.502 z M 15,308.417 v -0.436 c 0,-10.917 8.881,-19.798 19.797,-19.798 h 55.054 c 10.917,0 19.797,8.881 19.797,19.798 v 0.436 c 0,10.916 -8.881,19.797 -19.797,19.797 H 34.797 C 23.881,328.214 15,319.333 15,308.417 Z m 17.999,55.03 v -0.436 c 0,-10.917 8.881,-19.798 19.797,-19.798 h 55.054 c 10.917,0 19.797,8.881 19.797,19.798 v 0.436 c 0,10.917 -8.881,19.798 -19.797,19.798 H 52.796 c -10.916,0 -19.797,-8.881 -19.797,-19.798 z m 17.999,55.032 v -0.437 c 0,-10.916 8.881,-19.797 19.798,-19.797 h 46.672 c 10.917,0 19.797,8.881 19.797,19.797 v 0.437 c 0,10.916 -8.881,19.797 -19.797,19.797 H 70.796 C 59.879,438.275 50.998,429.395 50.998,418.479 Z m 93.067,74.828 H 88.579 c -10.797,0 -19.581,-8.979 -19.581,-20.016 0,-11.037 8.784,-20.016 19.581,-20.016 h 55.486 c 10.797,0 19.581,8.979 19.581,20.016 0,11.037 -8.784,20.016 -19.581,20.016 z M 44.033,182.069 c 0.786,0.263 1.584,0.387 2.37,0.387 3.107,0 6.007,-1.948 7.083,-5.032 l 0.022,-0.063 c 1.375,-3.907 -0.692,-8.149 -4.599,-9.524 -3.907,-1.376 -8.204,0.718 -9.578,4.625 -0.014,0.039 -0.03,0.087 -0.043,0.126 -1.31,3.929 0.815,8.172 4.745,9.481 z"
       id="path16623" />
  </g>
</svg>
