<?xml version="1.0" encoding="UTF-8" standalone="no"?>
<svg
   xmlns:dc="http://purl.org/dc/elements/1.1/"
   xmlns:cc="http://creativecommons.org/ns#"
   xmlns:rdf="http://www.w3.org/1999/02/22-rdf-syntax-ns#"
   xmlns:svg="http://www.w3.org/2000/svg"
   xmlns="http://www.w3.org/2000/svg"
   width="500"
   height="250"
   viewBox="0 0 132.29166 66.145835"
   version="1.1"
   id="svg8">
  <defs
     id="defs2">
    <rect
       id="rect5692"
       height="31.419271"
       width="28.318685"
       y="19.223633"
       x="111.62109" />
    <rect
       id="rect4959"
       height="36.793619"
       width="38.447265"
       y="12.815755"
       x="87.436523" />
    <rect
       id="rect3591"
       height="32.246093"
       width="36.586914"
       y="17.569987"
       x="2.6871745" />
    <rect
       x="33.261906"
       y="1.889881"
       width="32.127975"
       height="25.607887"
       id="rect952" />
    <rect
       x="23.718006"
       y="3.0238094"
       width="21.45015"
       height="20.127232"
       id="rect946" />
    <rect
       id="rect952-5"
       height="25.607887"
       width="32.127975"
       y="1.889881"
       x="33.261906" />
    <rect
       id="rect1246"
       height="25.607887"
       width="32.127975"
       y="1.889881"
       x="33.261906" />
    <rect
       id="rect2592"
       height="20.127232"
       width="21.45015"
       y="3.0238094"
       x="23.718006" />
    <rect
       x="23.718006"
       y="3.0238094"
       width="21.45015"
       height="20.127232"
       id="rect2600" />
    <rect
       id="rect2608"
       height="20.127232"
       width="21.45015"
       y="3.0238094"
       x="23.718006" />
    <rect
       x="2.6871746"
       y="17.569986"
       width="36.586914"
       height="32.246094"
       id="rect3591-5" />
    <rect
       x="2.6871746"
       y="17.569986"
       width="36.586914"
       height="32.246094"
       id="rect4205" />
  </defs>
  <metadata
     id="metadata5">
    <rdf:RDF>
      <cc:Work
         rdf:about="">
        <dc:format>image/svg+xml</dc:format>
        <dc:type
           rdf:resource="http://purl.org/dc/dcmitype/StillImage" />
        <dc:title></dc:title>
      </cc:Work>
    </rdf:RDF>
  </metadata>
  <g
     transform="matrix(0.52695301,0,0,0.52695301,12.325832,60.378593)"
     id="g4438">
    <path
       style="fill:none;stroke:#000000;stroke-width:3.96875;stroke-linecap:round;stroke-linejoin:miter;stroke-miterlimit:4;stroke-dasharray:none;stroke-opacity:1"
       d="m 60.616729,-60.990905 v 18.708867"
       id="path4434" />
    <path
       id="path4436"
       d="M 69.971162,-51.636471 H 51.262295"
       style="fill:none;stroke:#000000;stroke-width:3.96875;stroke-linecap:round;stroke-linejoin:miter;stroke-miterlimit:4;stroke-dasharray:none;stroke-opacity:1" />
  </g>
  <g
     transform="matrix(0.05944806,0,0,0.05944806,2.6321265,18.955325)"
     id="g5531">
    <path
       style="fill:#427a2d"
       d="m 511.949,256 c 0,13.602 -1.066,26.952 -3.113,39.979 C 489.646,418.34 383.758,511.942 256.007,511.942 128.256,511.942 22.367,418.341 3.177,295.979 1.129,282.953 0.064,269.602 0.064,256 c 0,-34.119 6.675,-66.691 18.804,-96.464 4.753,-11.679 10.353,-22.941 16.715,-33.69 5.965,-10.081 12.599,-19.713 19.849,-28.843 5.255,-6.623 10.833,-12.985 16.715,-19.044 9.068,-9.371 18.846,-18.041 29.251,-25.939 10.53,-8.002 21.708,-15.2 33.429,-21.51 4.785,-2.58 9.663,-5.014 14.625,-7.281 10.76,-4.941 21.927,-9.151 33.429,-12.567 10.52,-3.134 21.332,-5.61 32.385,-7.375 5.516,-0.888 11.084,-1.588 16.715,-2.11 7.908,-0.742 15.921,-1.118 24.027,-1.118 1.4,0 2.789,0.01 4.179,0.042 16.077,0.251 31.789,1.985 47.01,5.077 5.286,1.076 10.509,2.309 15.67,3.709 11.481,3.092 22.648,6.968 33.429,11.575 3.521,1.494 7.01,3.071 10.447,4.732 5.693,2.727 11.261,5.673 16.715,8.807 11.763,6.769 22.941,14.448 33.429,22.941 5.787,4.68 11.366,9.6 16.715,14.761 5.464,5.265 10.687,10.77 15.67,16.495 12.933,14.876 24.174,31.277 33.429,48.88 18.676,35.527 29.248,75.997 29.248,118.922 z"
       id="path5359" />
    <path
       style="fill:#69af54"
       d="m 508.836,295.979 c -4.398,28.091 -13.382,54.657 -26.137,78.935 -9.256,17.603 -20.496,33.993 -33.429,48.88 -4.983,5.735 -10.206,11.241 -15.67,16.506 -5.349,5.161 -10.927,10.091 -16.715,14.772 -10.488,8.483 -21.666,16.161 -33.429,22.93 -5.453,3.134 -11.021,6.08 -16.715,8.807 -3.437,1.661 -6.916,3.238 -10.447,4.732 -10.781,4.596 -21.938,8.483 -33.429,11.575 -5.161,1.4 -10.384,2.633 -15.67,3.709 -15.221,3.092 -30.932,4.826 -47.01,5.077 -1.389,0.031 -2.779,0.042 -4.179,0.042 -8.107,0 -16.119,-0.376 -24.027,-1.107 -5.631,-0.533 -11.199,-1.233 -16.715,-2.121 -11.053,-1.765 -21.854,-4.241 -32.385,-7.375 -11.502,-3.416 -22.659,-7.626 -33.429,-12.567 -4.962,-2.277 -9.841,-4.701 -14.625,-7.281 -11.721,-6.31 -22.899,-13.508 -33.429,-21.51 C 90.991,452.085 81.213,443.404 72.145,434.044 66.264,427.975 60.685,421.613 55.43,414.989 48.18,405.869 41.546,396.227 35.581,386.156 29.219,375.396 23.62,364.134 18.866,352.445 11.576,334.548 6.259,315.63 3.177,295.98 Z"
       id="path5361" />
    <g
       id="g5383">
	<path
   style="fill:#4c8e37"
   d="m 482.698,137.076 v 237.839 c -9.256,17.603 -20.496,33.993 -33.429,48.88 V 88.196 c 12.933,14.876 24.174,31.277 33.429,48.88 z"
   id="path5363" />

	<path
   style="fill:#4c8e37"
   d="m 356.294,20.46 v 471.08 c -10.781,4.596 -21.938,8.483 -33.429,11.575 V 8.885 c 11.481,3.092 22.648,6.968 33.429,11.575 z"
   id="path5365" />

	<path
   style="fill:#4c8e37"
   d="m 134.826,30.51 v 450.981 c -11.721,-6.31 -22.899,-13.508 -33.429,-21.51 V 52.019 c 10.529,-8.002 21.707,-15.2 33.429,-21.509 z"
   id="path5367" />

	<path
   style="fill:#4c8e37"
   d="m 182.88,10.661 v 490.678 c -11.502,-3.416 -22.659,-7.626 -33.429,-12.567 V 23.228 c 10.76,-4.941 21.927,-9.151 33.429,-12.567 z"
   id="path5369" />

	<path
   style="fill:#4c8e37"
   d="M 433.599,71.701 V 440.3 c -5.349,5.161 -10.927,10.091 -16.715,14.772 V 56.94 c 5.788,4.68 11.367,9.6 16.715,14.761 z"
   id="path5371" />

	<path
   style="fill:#4c8e37"
   d="M 35.582,125.846 V 386.155 C 29.22,375.395 23.621,364.133 18.867,352.444 V 159.536 c 4.754,-11.679 10.353,-22.941 16.715,-33.69 z"
   id="path5373" />

	<path
   style="fill:#4c8e37"
   d="M 72.146,77.958 V 434.042 C 66.265,427.973 60.686,421.611 55.431,414.987 V 97.002 C 60.686,90.379 66.264,84.017 72.146,77.958 Z"
   id="path5375" />

	<path
   style="fill:#4c8e37"
   d="m 383.455,33.999 v 444.003 c -5.453,3.134 -11.021,6.08 -16.715,8.807 V 25.192 c 5.694,2.727 11.262,5.673 16.715,8.807 z"
   id="path5377" />

	<path
   style="fill:#4c8e37"
   d="m 231.979,1.175 v 509.66 c -5.631,-0.533 -11.199,-1.233 -16.715,-2.121 V 3.286 c 5.516,-0.888 11.084,-1.588 16.715,-2.111 z"
   id="path5379" />

	<path
   style="fill:#4c8e37"
   d="m 307.195,5.177 v 501.647 c -15.221,3.092 -30.932,4.826 -47.01,5.077 V 0.099 c 16.077,0.251 31.789,1.985 47.01,5.078 z"
   id="path5381" />

</g>
    <g
       id="g5389">
	<path
   style="fill:#998888"
   d="m 457.686,413.598 c -46.853,59.87 -119.771,98.345 -201.683,98.345 -81.912,0 -154.83,-38.475 -201.683,-98.345 7.198,-27.997 20.925,-53.696 39.603,-75.174 31.925,-36.72 78.329,-61.144 131.398,-63.829 20.455,-1.034 40.909,-1.034 61.364,0 53.069,2.685 99.473,27.109 131.398,63.829 18.678,21.478 32.405,47.177 39.603,75.174 z"
   id="path5385" />

	<path
   style="fill:#998888"
   d="m 511.953,97.968 c -2.809,-17.506 -17.732,-30.716 -27.137,-37.455 -2.653,-1.901 -1.703,-6.054 1.514,-6.616 l 5.624,-0.983 c 3.28,-0.574 4.168,-4.847 1.402,-6.7 C 467.081,28.606 418.005,31.68 418.005,31.68 c -47.629,0 -126.091,39.172 -124.964,87.056 1.061,45.094 77.82,81.871 122.914,82.934 47.885,1.127 87.057,-37.353 87.057,-84.982 0,-3.634 -0.233,-7.214 -0.679,-10.728 -0.342,-2.691 2.235,-4.814 4.809,-3.956 v 0 c 2.605,0.866 5.246,-1.325 4.811,-4.036 z"
   id="path5387" />

</g>
    <circle
       style="fill:#665b5b"
       cx="411.94199"
       cy="122.748"
       r="48.566002"
       id="circle5391" />
    <path
       style="fill:#807272"
       d="M 0.047,97.968 C 2.856,80.462 17.779,67.252 27.184,60.513 29.837,58.612 28.887,54.459 25.67,53.897 l -5.624,-0.983 c -3.28,-0.574 -4.168,-4.847 -1.402,-6.7 26.276,-17.609 75.351,-14.535 75.351,-14.535 47.629,0 126.091,39.172 124.964,87.056 -1.061,45.094 -77.82,81.871 -122.914,82.934 -47.885,1.127 -87.057,-37.353 -87.057,-84.982 0,-3.634 0.233,-7.214 0.679,-10.728 0.342,-2.691 -2.235,-4.814 -4.809,-3.956 v 0 c -2.604,0.867 -5.245,-1.324 -4.811,-4.035 z"
       id="path5393" />
    <circle
       style="fill:#665b5b"
       cx="100.058"
       cy="122.748"
       r="48.566002"
       id="circle5395" />
    <path
       style="fill:#807272"
       d="m 418.083,338.424 c -31.925,-36.72 -78.329,-61.144 -131.398,-63.829 -11.272,-0.575 -22.544,-0.815 -33.805,-0.752 0.209,-0.01 0.407,-0.01 0.616,-0.021 -0.742,0.01 -1.494,0.021 -2.236,0.021 -1.327,0.01 -2.653,0.021 -3.98,0.042 -1.264,0.021 -2.528,0.052 -3.792,0.073 -1.191,0.021 -2.382,0.042 -3.573,0.073 -1.316,0.042 -2.643,0.084 -3.959,0.125 -1.118,0.042 -2.246,0.073 -3.364,0.115 -2.424,0.094 -4.847,0.199 -7.271,0.324 -84.137,4.252 -151.497,63.15 -171.001,139.003 18.449,23.578 40.951,43.834 66.441,59.734 -0.721,-13.863 -0.397,-27.506 0.867,-40.752 3.37,-35.24 34.516,-60.928 69.484,-58.52 1.888,0.13 3.617,1.113 4.685,2.673 l 14.283,20.879 c 2.91,4.255 9.248,4.066 11.901,-0.354 l 6.431,-10.717 c 2.455,-4.091 8.43,-3.95 10.689,0.252 l 16.027,29.812 c 3.045,5.663 11.456,4.654 13.074,-1.569 l 7.117,-27.373 c 1.196,-4.601 6.938,-6.162 10.299,-2.801 l 6.398,6.398 c 3.264,3.264 8.727,2.577 11.083,-1.392 l 7.276,-12.26 c 0.993,-1.674 2.72,-2.769 4.656,-2.97 16.03,-1.653 32.062,-3.972 48.093,-6.973 21.289,-3.981 40.313,-14.407 54.959,-29.241 z"
       id="path5397" />
    <path
       style="fill:#998888"
       d="m 284.948,48.898 c -19.298,-0.976 -38.597,-0.976 -57.895,0 C 121.817,54.22 44.378,150.147 63.092,253.841 c 1.003,5.557 2.172,11.113 3.507,16.67 9.609,39.995 41.851,70.783 82.282,78.351 71.414,13.366 142.827,13.366 214.242,0 40.431,-7.568 72.673,-38.356 82.282,-78.351 1.335,-5.557 2.504,-11.113 3.507,-16.67 C 467.623,150.147 390.183,54.22 284.948,48.898 Z"
       id="path5399" />
    <path
       style="fill:#665b5b"
       d="m 296.748,291.452 c 0,-29.04 -18.243,-92.627 -40.747,-92.627 -22.504,0 -40.747,63.588 -40.747,92.627 0,29.039 18.243,52.581 40.747,52.581 22.504,0 40.747,-23.542 40.747,-52.581 z"
       id="path5401" />
    <path
       style="fill:#4d4445"
       d="m 308.582,275.784 c 0,-29.04 -23.542,-92.627 -52.581,-92.627 -29.039,0 -52.581,63.588 -52.581,92.627 0,29.039 23.541,52.581 52.581,52.581 29.04,0 52.581,-23.542 52.581,-52.581 z"
       id="path5403" />
    <path
       style="fill:#332d2d"
       d="m 255.998,328.362 c -29.042,0 -52.578,-23.536 -52.578,-52.578 0,-28.916 23.338,-92.077 52.202,-92.62 -15.983,0.982 -28.874,63.808 -28.874,92.62 0,29.042 13.1,52.578 29.25,52.578 z"
       id="path5405" />
    <g
       id="g5413">
	<path
   style="fill:#807272"
   d="m 256,358.892 c -35.707,0 -71.413,-3.343 -107.12,-10.029 -40.428,-7.563 -72.677,-38.35 -82.278,-78.35 -1.337,-5.558 -2.507,-11.115 -3.51,-16.673 -18.71,-103.693 58.721,-199.614 163.96,-204.942 8.859,-0.439 17.717,-0.689 26.587,-0.721 -5.526,0.052 -11.053,0.303 -16.568,0.721 -68.812,5.328 -119.447,101.249 -107.214,204.942 0.658,5.558 1.421,11.115 2.298,16.673 6.278,40 27.36,70.786 53.8,78.35 23.349,6.686 46.697,10.029 70.045,10.029 z"
   id="path5407" />

	<path
   style="fill:#807272"
   d="m 339.053,256.282 c -13.825,0 -25.072,-11.247 -25.072,-25.072 0,-11.317 7.626,-21.27 18.546,-24.208 2.137,-0.574 4.331,-0.864 6.526,-0.864 13.825,0 25.072,11.247 25.072,25.072 0,2.194 -0.29,4.388 -0.864,6.522 -2.937,10.924 -12.891,18.55 -24.208,18.55 z"
   id="path5409" />

	<path
   style="fill:#807272"
   d="m 172.947,256.282 c -13.825,0 -25.072,-11.247 -25.072,-25.072 0,-11.317 7.626,-21.27 18.546,-24.208 2.137,-0.574 4.331,-0.864 6.526,-0.864 13.825,0 25.072,11.247 25.072,25.072 0,2.194 -0.29,4.388 -0.864,6.522 -2.937,10.924 -12.892,18.55 -24.208,18.55 z"
   id="path5411" />

</g>
    <g
       id="g5419">
	<path
   style="fill:#0f0f0e"
   d="m 352.634,225.987 c 0,1.222 -0.167,2.413 -0.47,3.541 -1.557,5.787 -6.832,10.039 -13.111,10.039 -7.501,0 -13.581,-6.08 -13.581,-13.581 0,-6.278 4.252,-11.554 10.039,-13.111 1.128,-0.303 2.319,-0.47 3.541,-0.47 7.502,0.001 13.582,6.081 13.582,13.582 z"
   id="path5415" />

	<circle
   style="fill:#0f0f0e"
   cx="172.944"
   cy="225.98199"
   r="13.581"
   id="circle5417" />

</g>
    <g
       id="g5425">
	<path
   style="fill:#e6e6e6"
   d="m 352.634,225.987 c 0,1.222 -0.167,2.413 -0.47,3.541 -1.598,0.742 -3.395,1.16 -5.276,1.16 -6.926,0 -12.536,-5.61 -12.536,-12.536 0,-1.88 0.418,-3.677 1.16,-5.276 1.128,-0.303 2.319,-0.47 3.541,-0.47 7.501,0 13.581,6.08 13.581,13.581 z"
   id="path5421" />

	<path
   style="fill:#e6e6e6"
   d="m 186.528,225.987 c 0,1.222 -0.167,2.413 -0.47,3.541 -1.598,0.742 -3.395,1.16 -5.276,1.16 -6.926,0 -12.536,-5.61 -12.536,-12.536 0,-1.88 0.418,-3.677 1.16,-5.276 1.128,-0.303 2.319,-0.47 3.541,-0.47 7.501,0 13.581,6.08 13.581,13.581 z"
   id="path5423" />

</g>
    <g
       id="g5431">
	<path
   style="fill:#998888"
   d="m 99.576,379.954 c 2.833,-4.354 9.69,-2.906 10.323,2.25 1.17,9.537 -8.213,22.907 -19.564,27.232 -11.779,4.488 1.859,-18.137 9.241,-29.482 z"
   id="path5427" />

	<path
   style="fill:#998888"
   d="m 102.973,413.325 c 1.874,-4.845 8.883,-4.842 10.566,0.072 3.112,9.09 -3.312,24.11 -13.526,30.682 -10.602,6.821 -1.924,-18.131 2.96,-30.754 z"
   id="path5429" />

</g>
    <g
       id="g5437">
	<ellipse
   style="fill:#332d2d"
   cx="276.03201"
   cy="281.871"
   rx="6.79"
   ry="14.103"
   id="ellipse5433" />

	<ellipse
   style="fill:#332d2d"
   cx="235.96899"
   cy="281.871"
   rx="6.79"
   ry="14.103"
   id="ellipse5435" />

</g>
    <g
       id="g5439">
</g>
    <g
       id="g5441">
</g>
    <g
       id="g5443">
</g>
    <g
       id="g5445">
</g>
    <g
       id="g5447">
</g>
    <g
       id="g5449">
</g>
    <g
       id="g5451">
</g>
    <g
       id="g5453">
</g>
    <g
       id="g5455">
</g>
    <g
       id="g5457">
</g>
    <g
       id="g5459">
</g>
    <g
       id="g5461">
</g>
    <g
       id="g5463">
</g>
    <g
       id="g5465">
</g>
    <g
       id="g5467">
</g>
  </g>
  <g
     transform="matrix(0.06179849,0,0,0.06179849,52.982813,16.395877)"
     id="g5682">
    <path
       style="fill:#ffc107"
       d="m 432.384,143.616 c -4.165,-4.164 -10.917,-4.164 -15.083,0 l -60.352,60.352 c -4.164,4.165 -4.164,10.917 0,15.083 21.187,20.463 54.951,19.876 75.413,-1.311 19.962,-20.668 19.962,-53.435 0,-74.102 z"
       id="path5594" />
    <path
       style="fill:#607d8b"
       d="m 42.667,277.334 c -5.891,0.003 -10.669,-4.771 -10.672,-10.662 -0.002,-4.338 2.623,-8.245 6.64,-9.882 l 234.667,-96 c 5.455,-2.233 11.687,0.38 13.92,5.835 2.233,5.455 -0.38,11.687 -5.835,13.92 l -234.667,96 c -1.287,0.524 -2.664,0.792 -4.053,0.789 z"
       id="path5596" />
    <path
       style="fill:#546e7a"
       d="m 391.552,56.448 -32,-32 C 343.938,8.745 322.689,-0.059 300.544,0 h -3.755 c -46.082,0.024 -83.432,37.374 -83.456,83.456 v 3.755 c -0.053,22.138 8.75,43.377 24.448,58.987 l 32,32 c 4.165,4.164 10.917,4.164 15.083,0 L 391.531,71.531 c 4.17,-4.159 4.179,-10.911 0.021,-15.083 z"
       id="path5598" />
    <path
       style="fill:#607d8b"
       d="m 160,469.334 c -3.279,0.006 -6.379,-1.497 -8.405,-4.075 L 34.261,315.926 c -3.635,-4.636 -2.823,-11.341 1.813,-14.976 4.636,-3.635 11.341,-2.823 14.976,1.813 l 117.333,149.333 c 3.629,4.641 2.809,11.344 -1.832,14.973 -1.87,1.464 -4.176,2.26 -6.551,2.265 z"
       id="path5600" />
    <path
       style="fill:#455a64"
       d="M 487.467,86.848 483.798,83.2 C 446.111,46.643 386.088,47.003 348.843,84.011 l -51.413,51.413 c -36.996,37.25 -37.357,97.263 -0.811,134.955 l 3.584,3.669 c 1.7,2.457 4.671,3.706 7.616,3.2 2.831,0.005 5.548,-1.115 7.552,-3.115 L 487.552,101.952 c 4.189,-4.143 4.226,-10.896 0.083,-15.085 -0.028,-0.028 -0.055,-0.056 -0.083,-0.083 z"
       id="path5602" />
    <g
       id="g5610">
	<path
   style="fill:#ffc107"
   d="M 501.333,192 H 480 c -5.891,0 -10.667,-4.776 -10.667,-10.667 0,-5.891 4.776,-10.667 10.667,-10.667 h 21.333 c 5.891,0 10.667,4.776 10.667,10.667 0,5.891 -4.775,10.667 -10.667,10.667 z"
   id="path5604" />

	<path
   style="fill:#ffc107"
   d="M 394.667,298.667 C 388.776,298.667 384,293.891 384,288 v -21.333 c 0,-5.891 4.776,-10.667 10.667,-10.667 5.891,0 10.667,4.776 10.667,10.667 V 288 c -10e-4,5.891 -4.776,10.667 -10.667,10.667 z"
   id="path5606" />

	<path
   style="fill:#ffc107"
   d="m 480,277.334 c -2.831,0.005 -5.548,-1.115 -7.552,-3.115 l -21.333,-21.333 c -4.093,-4.237 -3.975,-10.99 0.262,-15.083 4.134,-3.993 10.687,-3.993 14.821,0 l 21.333,21.333 c 4.159,4.172 4.148,10.926 -0.024,15.085 -1.993,1.988 -4.692,3.106 -7.507,3.113 z"
   id="path5608" />

</g>
    <g
       id="g5616">
	<path
   style="fill:#455a64"
   d="M 266.667,448 H 96 c -29.455,0 -53.333,23.878 -53.333,53.333 0,5.891 4.776,10.667 10.667,10.667 h 256 c 5.891,0 10.667,-4.776 10.667,-10.667 C 320,471.878 296.122,448 266.667,448 Z"
   id="path5612" />

	<circle
   style="fill:#455a64"
   cx="32"
   cy="288"
   r="32"
   id="circle5614" />

</g>
    <g
       id="g5618">
</g>
    <g
       id="g5620">
</g>
    <g
       id="g5622">
</g>
    <g
       id="g5624">
</g>
    <g
       id="g5626">
</g>
    <g
       id="g5628">
</g>
    <g
       id="g5630">
</g>
    <g
       id="g5632">
</g>
    <g
       id="g5634">
</g>
    <g
       id="g5636">
</g>
    <g
       id="g5638">
</g>
    <g
       id="g5640">
</g>
    <g
       id="g5642">
</g>
    <g
       id="g5644">
</g>
    <g
       id="g5646">
</g>
  </g>
  <g
     id="g5688"
     transform="matrix(0.52695301,0,0,0.52695301,61.315089,60.378593)">
    <path
       id="path5684"
       d="m 60.616729,-60.990905 v 18.708867"
       style="fill:none;stroke:#000000;stroke-width:3.96875;stroke-linecap:round;stroke-linejoin:miter;stroke-miterlimit:4;stroke-dasharray:none;stroke-opacity:1" />
    <path
       style="fill:none;stroke:#000000;stroke-width:3.96875;stroke-linecap:round;stroke-linejoin:miter;stroke-miterlimit:4;stroke-dasharray:none;stroke-opacity:1"
       d="M 69.971162,-51.636471 H 51.262295"
       id="path5686" />
  </g>
  <text
     transform="matrix(1.6045085,0,0,1.6045085,-75.445771,-6.9210209)"
     style="font-style:normal;font-variant:normal;font-weight:bold;font-stretch:normal;font-size:10.5833px;line-height:1.25;font-family:sans-serif;-inkscape-font-specification:'sans-serif Bold';white-space:pre;shape-inside:url(#rect5692);fill:#000000;fill-opacity:1;stroke:none;"
     id="text5690"
     xml:space="preserve"><tspan
       x="111.62109"
       y="28.878121"><tspan
         style="font-style:normal;font-variant:normal;font-weight:bold;font-stretch:normal;font-family:sans-serif;-inkscape-font-specification:'sans-serif Bold'">OR</tspan></tspan></text>
</svg>
