<?xml version="1.0" encoding="UTF-8" standalone="no"?>
<svg
   xmlns:dc="http://purl.org/dc/elements/1.1/"
   xmlns:cc="http://creativecommons.org/ns#"
   xmlns:rdf="http://www.w3.org/1999/02/22-rdf-syntax-ns#"
   xmlns:svg="http://www.w3.org/2000/svg"
   xmlns="http://www.w3.org/2000/svg"
   width="500"
   height="250"
   viewBox="0 0 132.29166 66.145835"
   version="1.1"
   id="svg8">
  <defs
     id="defs2">
    <rect
       id="rect17555"
       height="33.899739"
       width="45.47526"
       y="14.469401"
       x="64.905598" />
    <rect
       id="rect16657"
       height="39.6875"
       width="52.916666"
       y="16.536458"
       x="16.123047" />
    <rect
       id="rect14952"
       height="41.217972"
       width="28.355626"
       y="11.693042"
       x="56.1266" />
    <rect
       id="rect12397"
       height="46.715494"
       width="47.955729"
       y="8.6816405"
       x="71.933593" />
    <rect
       id="rect10750"
       height="32.448191"
       width="43.55658"
       y="16.95491"
       x="54.080318" />
    <rect
       id="rect10116"
       height="31.278887"
       width="27.917137"
       y="16.808747"
       x="101.14481" />
    <rect
       id="rect9439"
       height="25.14004"
       width="57.003578"
       y="26.309344"
       x="5.2618688" />
    <rect
       id="rect8476"
       height="26.60167"
       width="35.663777"
       y="22.216779"
       x="51.449384" />
    <rect
       id="rect8111"
       height="60.358072"
       width="46.715494"
       y="-7.4414062"
       x="111.20768" />
    <rect
       id="rect5692"
       height="31.419271"
       width="28.318685"
       y="19.223633"
       x="111.62109" />
    <rect
       id="rect4959"
       height="36.793619"
       width="38.447265"
       y="12.815755"
       x="87.436523" />
    <rect
       id="rect3591"
       height="32.246093"
       width="36.586914"
       y="17.569987"
       x="2.6871745" />
    <rect
       x="33.261906"
       y="1.889881"
       width="32.127975"
       height="25.607887"
       id="rect952" />
    <rect
       x="23.718006"
       y="3.0238094"
       width="21.45015"
       height="20.127232"
       id="rect946" />
    <rect
       id="rect952-5"
       height="25.607887"
       width="32.127975"
       y="1.889881"
       x="33.261906" />
    <rect
       id="rect1246"
       height="25.607887"
       width="32.127975"
       y="1.889881"
       x="33.261906" />
    <rect
       id="rect2592"
       height="20.127232"
       width="21.45015"
       y="3.0238094"
       x="23.718006" />
    <rect
       x="23.718006"
       y="3.0238094"
       width="21.45015"
       height="20.127232"
       id="rect2600" />
    <rect
       id="rect2608"
       height="20.127232"
       width="21.45015"
       y="3.0238094"
       x="23.718006" />
    <rect
       x="2.6871746"
       y="17.569986"
       width="36.586914"
       height="32.246094"
       id="rect3591-5" />
    <rect
       x="2.6871746"
       y="17.569986"
       width="36.586914"
       height="32.246094"
       id="rect4205" />
    <rect
       x="111.20768"
       y="-7.4414062"
       width="46.715494"
       height="60.358072"
       id="rect8139" />
    <rect
       x="51.449384"
       y="22.216779"
       width="35.663777"
       height="26.60167"
       id="rect8484" />
    <rect
       x="16.123047"
       y="16.536458"
       width="52.916666"
       height="39.6875"
       id="rect16854" />
    <rect
       x="16.123047"
       y="16.536458"
       width="52.916666"
       height="39.6875"
       id="rect16860" />
    <rect
       x="64.905598"
       y="14.469401"
       width="45.47526"
       height="33.899739"
       id="rect17563" />
    <rect
       x="64.905598"
       y="14.469401"
       width="45.47526"
       height="33.899739"
       id="rect20027" />
  </defs>
  <metadata
     id="metadata5">
    <rdf:RDF>
      <cc:Work
         rdf:about="">
        <dc:format>image/svg+xml</dc:format>
        <dc:type
           rdf:resource="http://purl.org/dc/dcmitype/StillImage" />
        <dc:title></dc:title>
      </cc:Work>
    </rdf:RDF>
  </metadata>
  <g
     transform="matrix(0.26458333,0,0,0.26458333,71.999739,33.965621)"
     id="g14585">
</g>
  <g
     transform="matrix(0.26458333,0,0,0.26458333,71.999739,33.965621)"
     id="g14587">
</g>
  <g
     transform="matrix(0.26458333,0,0,0.26458333,71.999739,33.965621)"
     id="g14589">
</g>
  <g
     transform="matrix(0.26458333,0,0,0.26458333,71.999739,33.965621)"
     id="g14591">
</g>
  <g
     transform="matrix(0.26458333,0,0,0.26458333,71.999739,33.965621)"
     id="g14593">
</g>
  <g
     transform="matrix(0.26458333,0,0,0.26458333,71.999739,33.965621)"
     id="g14595">
</g>
  <g
     transform="matrix(0.26458333,0,0,0.26458333,71.999739,33.965621)"
     id="g14597">
</g>
  <g
     transform="matrix(0.26458333,0,0,0.26458333,71.999739,33.965621)"
     id="g14599">
</g>
  <g
     transform="matrix(0.26458333,0,0,0.26458333,71.999739,33.965621)"
     id="g14601">
</g>
  <g
     transform="matrix(0.26458333,0,0,0.26458333,71.999739,33.965621)"
     id="g14603">
</g>
  <g
     transform="matrix(0.26458333,0,0,0.26458333,71.999739,33.965621)"
     id="g14605">
</g>
  <g
     transform="matrix(0.26458333,0,0,0.26458333,71.999739,33.965621)"
     id="g14607">
</g>
  <g
     transform="matrix(0.26458333,0,0,0.26458333,71.999739,33.965621)"
     id="g14609">
</g>
  <g
     transform="matrix(0.26458333,0,0,0.26458333,71.999739,33.965621)"
     id="g14611">
</g>
  <g
     transform="matrix(0.26458333,0,0,0.26458333,71.999739,33.965621)"
     id="g14613">
</g>
  <text
     xml:space="preserve"
     id="text20025"
     style="font-style:normal;font-variant:normal;font-weight:bold;font-stretch:normal;font-size:10.5833px;line-height:1.25;font-family:sans-serif;-inkscape-font-specification:'sans-serif Bold';white-space:pre;shape-inside:url(#rect20027);fill:#000000;fill-opacity:1;stroke:none;"
     transform="matrix(3.1089244,0,0,3.1089244,-114.59163,-29.475225)"><tspan
       x="64.90625"
       y="24.124215"><tspan
         style="font-style:normal;font-variant:normal;font-weight:bold;font-stretch:normal;font-family:sans-serif;-inkscape-font-specification:'sans-serif Bold'">Y</tspan></tspan></text>
  <g
     transform="matrix(0.10014876,0,0,0.10014876,10.608138,7.6673593)"
     id="g20701">
    <g
       id="g20595">
      <path
         clip-rule="evenodd"
         d="m 497.732,102.732 c 19.024,-19.751 19.024,-52.067 0,-71.789 -17.302,-17.94 -45.225,-13.44 -63.694,3.214 -3.414,3.068 -4.61,4.616 -5.544,4.587 -0.905,0.029 -2.101,-1.519 -5.515,-4.587 -18.469,-16.654 -46.421,-21.154 -63.694,-3.214 -19.053,19.722 -19.053,52.037 0,71.789 l 7.703,7.655 56.633,56.216 c 2.451,1.928 3.647,2.98 4.873,3.009 1.225,-0.029 2.451,-1.081 4.873,-3.009 L 490,110.387 Z"
         fill="#fd4755"
         fill-rule="evenodd"
         id="path20593" />
    </g>
    <g
       id="g20599">
      <path
         clip-rule="evenodd"
         d="M 84.084,157.107 65.031,138.437 H 47.379 c -6.244,0 -11.35,5.142 -11.35,11.395 v 11.249 c 0,14.405 16.164,29.335 30.374,29.16 z"
         fill="#ffbc85"
         fill-rule="evenodd"
         id="path20597" />
    </g>
    <g
       id="g20603">
      <path
         clip-rule="evenodd"
         d="m 311.989,161.081 v -11.249 c 0,-6.253 -5.135,-11.395 -11.379,-11.395 h -17.886 l -22.496,28.721 c -3.443,2.747 22.029,18.495 21.124,23.082 13.86,-0.73 30.637,-15.222 30.637,-29.159 z"
         fill="#ffbc85"
         fill-rule="evenodd"
         id="path20601" />
    </g>
    <g
       id="g20607">
      <path
         clip-rule="evenodd"
         d="m 187.256,346.937 50.302,-44.382 c -14.239,-3.886 -18.002,-22.293 -20.92,-28.225 -14.268,-11.278 -62.644,-17.94 -85.286,0 -2.918,5.96 -6.682,24.339 -20.92,28.225 l 50.302,44.382 c 5.135,3.857 9.191,5.756 13.247,5.727 h 0.029 c 4.055,0.029 8.081,-1.87 13.246,-5.727 z"
         fill="#fed1a3"
         fill-rule="evenodd"
         id="path20605" />
    </g>
    <g
       id="g20611">
      <path
         clip-rule="evenodd"
         d="m 237.557,302.555 c -14.239,-3.886 -18.002,-22.293 -20.92,-28.225 -12.459,7.012 -28.127,12.622 -42.657,12.622 -14.56,0 -29.994,-5.61 -42.628,-12.622 -1.867,3.828 -4.085,12.768 -9.22,19.722 19.724,10.781 58.063,18.495 79.042,8.327 7.032,-3.389 8.199,0.906 8.199,0.906 1.867,4.967 4.085,7.655 8.491,12.476 l 0.088,0.088 z"
         fill="#ffbc85"
         fill-rule="evenodd"
         id="path20609" />
    </g>
    <g
       id="g20615">
      <path
         clip-rule="evenodd"
         d="M 339.297,485.371 H 8.664 C 2.534,485.371 0,483.938 0,478.886 v -0.062 c 0,-0.814 0.051,-1.753 0.196,-2.804 l 12.115,-93.845 c 7.582,-59.021 57.65,-68.546 98.096,-79.588 0.021,0 0.021,-0.031 0.021,-0.031 l 50.305,34.062 c 5.058,3.804 9.066,5.732 13.063,5.732 h 0.185 c 4.08,0.062 8.108,-1.866 13.279,-5.732 l 50.294,-34.062 v 0.031 c 40.477,11.041 90.514,20.567 98.127,79.588 l 12.105,93.845 c 0.968,7.392 -1.309,9.351 -8.489,9.351 z"
         fill="#f8f2f0"
         fill-rule="evenodd"
         id="path20613" />
    </g>
    <g
       id="g20619">
      <path
         clip-rule="evenodd"
         d="m 335.681,382.174 c -7.615,-59.021 -57.655,-68.546 -98.124,-79.59 v -0.029 l -19.607,13.294 c 39.594,33.513 64.278,80.846 64.278,133.322 0,12.388 -1.371,24.485 -3.997,36.201 h 61.068 c 7.178,0 9.453,-1.958 8.491,-9.35 z"
         fill="#eee1dc"
         fill-rule="evenodd"
         id="path20617" />
    </g>
    <g
       id="g20623">
      <path
         clip-rule="evenodd"
         d="m 216.637,274.33 c 32.737,-18.232 58.647,-52.709 64.715,-84.09 0.905,-4.587 1.371,-9.116 1.371,-13.499 v -37.925 h -19.782 c -42.453,0 -51.294,-52.359 -103.142,-52.359 H 125.34 c -39.71,0 -9.483,60.335 -55.174,60.335 h -5.135 v 29.949 c 0,4.383 0.467,8.912 1.371,13.499 6.098,31.38 32.183,65.858 64.949,84.09 4.989,2.776 10.154,5.172 15.406,7.129 9.862,3.652 18.557,5.493 27.223,5.493 8.695,0 17.39,-1.841 27.252,-5.493 5.252,-1.958 10.416,-4.353 15.405,-7.129 z"
         fill="#ffe5c1"
         fill-rule="evenodd"
         id="path20621" />
    </g>
    <g
       id="g20627">
      <path
         clip-rule="evenodd"
         d="m 282.724,97.298 c 0,-80.087 -128.585,-120.028 -168.908,-67.611 -52.665,4.646 -48.785,74.827 -48.785,84.09 v 24.66 18.67 h 5.135 c 45.692,0 15.464,-60.335 55.174,-60.335 h 34.46 c 51.848,0 60.689,52.359 103.142,52.359 h 19.782 v -10.694 z"
         fill="#6d80aa"
         fill-rule="evenodd"
         id="path20625" />
    </g>
    <g
       id="g20631">
      <path
         clip-rule="evenodd"
         d="m 282.724,97.298 c 0,-59.079 -69.967,-96.303 -122.866,-90.751 46.071,7.538 93.047,41.285 93.047,89.699 v 41.168 0.351 10.314 c 3.151,0.672 6.477,1.052 10.037,1.052 h 19.782 v -10.314 -0.38 z"
         fill="#49679b"
         fill-rule="evenodd"
         id="path20629" />
    </g>
    <g
       id="g20635">
      <path
         clip-rule="evenodd"
         d="m 193.149,284.118 c 2.626,-0.73 5.31,-1.636 8.082,-2.659 3.122,-1.169 6.215,-2.484 9.278,-3.944 0.029,-0.029 0.058,-0.029 0.088,-0.058 -5.602,2.716 -11.495,4.996 -17.448,6.661 z m 17.594,-6.72 c 0.029,-0.029 0.058,-0.029 0.088,-0.058 -0.029,0.029 -0.058,0.029 -0.088,0.058 z m 0,0 c 1.459,-0.73 2.947,-1.461 4.377,-2.25 -1.43,0.76 -2.83,1.49 -4.289,2.191 -0.029,0.03 -0.058,0.03 -0.088,0.059 z m 0.088,-0.059 c 1.459,-0.701 2.889,-1.432 4.289,-2.191 -0.117,0.058 -0.233,0.117 -0.35,0.205 -1.313,0.672 -2.626,1.344 -3.939,1.986 z m 5.806,-3.009 c 32.737,-18.232 58.647,-52.709 64.715,-84.09 0.905,-4.587 1.371,-9.116 1.371,-13.499 V 149.13 h -19.782 c -3.56,0 -6.886,-0.38 -10.037,-1.052 v 27.611 c 0,4.383 -0.467,8.912 -1.342,13.499 -6.069,31.38 -31.978,65.858 -64.715,84.09 -5.019,2.776 -10.154,5.172 -15.435,7.129 -5.106,1.899 -9.92,3.331 -14.589,4.237 5.777,1.461 11.583,2.308 17.156,2.308 6.244,0 12.721,-1.052 19.14,-2.834 h 0.029 c 5.923,-1.636 11.788,-3.915 17.361,-6.603 0.029,-0.029 0.058,-0.029 0.088,-0.058 0.058,-0.029 0.088,-0.029 0.146,-0.058 0.029,-0.029 0.058,-0.029 0.088,-0.058 1.459,-0.701 2.889,-1.432 4.289,-2.191 l 0.35,-0.175 c 0,-0.029 0.029,-0.029 0.058,-0.029 l 0.175,-0.117 c 0.175,-0.088 0.35,-0.175 0.525,-0.292 0.146,-0.058 0.263,-0.146 0.379,-0.205 h 0.03 z"
         fill="#fed1a3"
         fill-rule="evenodd"
         id="path20633" />
    </g>
    <g
       id="g20639">
      <path
         d="m 173.995,245.985 c -9.219,0 -17.883,-3.601 -24.395,-10.141 -3.012,-3.024 -3.004,-7.92 0.019,-10.934 3.021,-3.016 7.914,-3.007 10.927,0.019 3.592,3.606 8.368,5.593 13.449,5.593 5.081,0 9.857,-1.986 13.448,-5.593 3.012,-3.026 7.904,-3.033 10.927,-0.019 3.023,3.014 3.031,7.91 0.019,10.934 -6.512,6.539 -15.175,10.141 -24.394,10.141 z"
         fill="#6d80aa"
         id="path20637" />
    </g>
    <g
       id="g20643">
      <path
         d="m 139.87,185.117 c -1.936,0 -3.874,-0.724 -5.374,-2.178 -3.351,-3.248 -8.802,-3.248 -12.153,0 -3.066,2.971 -7.956,2.891 -10.925,-0.175 -2.969,-3.068 -2.891,-7.963 0.175,-10.933 9.279,-8.992 24.376,-8.992 33.655,0 3.065,2.971 3.143,7.866 0.175,10.933 -1.517,1.565 -3.534,2.353 -5.553,2.353 z"
         fill="#6d80aa"
         id="path20641" />
    </g>
    <g
       id="g20647">
      <path
         d="m 231.02,185.117 c -1.936,0 -3.874,-0.724 -5.374,-2.178 -3.359,-3.256 -8.823,-3.256 -12.182,0 -3.066,2.971 -7.957,2.891 -10.925,-0.175 -2.969,-3.068 -2.891,-7.963 0.175,-10.933 9.287,-9 24.397,-9 33.684,0 3.065,2.971 3.143,7.866 0.175,10.933 -1.517,1.565 -3.533,2.353 -5.553,2.353 z"
         fill="#6d80aa"
         id="path20645" />
    </g>
    <g
       id="g20651">
      <path
         d="m 84.837,430.794 v 54.577 H 69.384 v -54.577 c 0,-4.268 3.461,-7.732 7.727,-7.732 4.265,0 7.726,3.464 7.726,7.732 z"
         fill="#eee1dc"
         id="path20649" />
    </g>
    <g
       id="g20655">
      <path
         clip-rule="evenodd"
         d="M 511.562,73.689 V 59.957 C 510.161,49.322 505.551,39.066 497.732,30.943 485.098,17.824 466.775,16.685 450.64,23.522 c 2.217,1.49 4.347,3.243 6.331,5.318 19.024,19.722 19.024,52.037 0,71.789 l -7.732,7.655 -42.191,41.87 16.573,16.45 c 2.451,1.928 3.647,2.98 4.873,3.009 1.225,-0.029 2.451,-1.081 4.873,-3.009 L 490,110.387 l 7.732,-7.655 c 7.82,-8.122 12.43,-18.407 13.83,-29.043 z"
         fill="#e41e2b"
         fill-rule="evenodd"
         id="path20653" />
    </g>
    <g
       id="g20659">
      <path
         clip-rule="evenodd"
         d="M 260.987,506 H 363.05 467.826 c 3.472,0 6.331,-2.863 6.331,-6.34 v -20.803 c 0,-36.581 -24.83,-46.837 -50.273,-53.995 H 304.928 c -25.414,7.158 -50.273,17.414 -50.273,53.995 v 20.803 c 0,3.477 2.86,6.34 6.332,6.34 z"
         fill="#22a6fe"
         fill-rule="evenodd"
         id="path20657" />
    </g>
    <g
       id="g20663">
      <path
         clip-rule="evenodd"
         d="m 399.434,439.237 c 25.443,7.158 51.498,14.375 51.498,50.956 V 506 h 16.894 c 3.472,0 6.331,-2.863 6.331,-6.34 v -20.803 c 0,-36.581 -24.83,-46.837 -50.273,-53.995 z"
         fill="#0182fc"
         fill-rule="evenodd"
         id="path20661" />
    </g>
    <g
       id="g20667">
      <path
         clip-rule="evenodd"
         d="m 304.928,424.861 48.814,28.692 c 8.286,5.376 13.042,5.376 21.329,0 l 48.814,-28.692 c -4.522,-1.256 -9.074,-2.454 -13.509,-3.652 -10.329,-2.805 -13.072,-16.158 -15.172,-20.453 h -61.593 c -2.101,4.295 -4.843,17.648 -15.172,20.453 -4.437,1.198 -8.959,2.396 -13.511,3.652 z"
         fill="#fed1a3"
         fill-rule="evenodd"
         id="path20665" />
    </g>
    <g
       id="g20671">
      <path
         clip-rule="evenodd"
         d="m 364.421,217.384 c -39.302,0.643 -78.604,30.27 -78.604,88.735 110.728,22.907 68.946,21.212 157.179,0 -10e-4,-58.465 -39.302,-88.092 -78.575,-88.735 z"
         fill="#6d80aa"
         fill-rule="evenodd"
         id="path20669" />
    </g>
    <g
       id="g20675">
      <path
         clip-rule="evenodd"
         d="m 285.817,330.166 c 0,24.952 20.658,55.485 47.793,70.591 3.618,1.987 7.323,3.711 11.117,5.142 14.239,5.259 25.122,5.259 39.36,0 3.793,-1.432 7.528,-3.156 11.117,-5.142 27.135,-15.106 47.793,-45.639 47.793,-70.591 v -24.047 c -31.803,-2.221 -27.077,-26.559 -49.018,-20.891 -16.981,4.383 -23.254,6.574 -29.557,6.574 -6.332,0 -12.605,-2.191 -29.586,-6.574 -21.941,-5.668 -17.215,18.67 -49.018,20.891 v 24.047 z"
         fill="#ffe5c1"
         fill-rule="evenodd"
         id="path20673" />
    </g>
    <g
       id="g20679">
      <path
         clip-rule="evenodd"
         d="m 333.609,400.757 c 3.618,1.987 7.323,3.711 11.117,5.142 14.239,5.259 25.122,5.259 39.36,0 3.793,-1.432 7.528,-3.156 11.117,-5.142 27.135,-15.106 47.793,-45.639 47.793,-70.591 v -24.047 c -13.159,-0.935 -20.074,-5.639 -25.209,-10.431 v 16.83 7.246 c 0,24.923 -20.658,55.456 -47.793,70.562 -3.589,1.987 -7.294,3.711 -11.117,5.142 -10.65,3.944 -19.432,4.938 -29.177,2.98 1.313,0.789 2.596,1.549 3.909,2.309 z"
         fill="#fed1a3"
         fill-rule="evenodd"
         id="path20677" />
    </g>
    <g
       id="g20683">
      <path
         clip-rule="evenodd"
         d="m 380.352,219.254 c 21.62,13.849 37.435,39.328 37.435,76.434 5.135,4.792 12.05,9.496 25.209,10.431 -10e-4,-50.518 -29.324,-79.502 -62.644,-86.865 z"
         fill="#49679b"
         fill-rule="evenodd"
         id="path20681" />
    </g>
    <g
       id="g20687">
      <path
         clip-rule="evenodd"
         d="m 370.11,429.595 c 9.191,-3.477 14.297,-4.178 16.252,-1.344 2.743,4.003 7.411,8.912 13.071,10.986 l 5.164,-3.039 19.286,-11.337 c -4.522,-1.256 -9.074,-2.454 -13.509,-3.652 -10.329,-2.805 -13.072,-16.158 -15.172,-20.453 -3.589,1.987 -7.324,3.711 -11.117,5.142 -14.239,5.259 -25.122,5.259 -39.36,0 -3.793,-1.432 -7.499,-3.156 -11.117,-5.142 -1.605,3.302 -3.589,11.892 -9.074,17.005 -2.187,2.046 29.733,18.554 45.576,11.834 z"
         fill="#ffbc85"
         fill-rule="evenodd"
         id="path20685" />
    </g>
    <g
       id="g20691">
      <path
         d="m 333.201,341.054 c -4.267,0 -7.727,-3.461 -7.727,-7.732 v -6.808 c 0,-4.271 3.459,-7.732 7.727,-7.732 4.267,0 7.727,3.461 7.727,7.732 v 6.808 c 0,4.27 -3.46,7.732 -7.727,7.732 z"
         fill="#6d80aa"
         id="path20689" />
    </g>
    <g
       id="g20695">
      <path
         d="m 393.598,341.054 c -4.267,0 -7.727,-3.461 -7.727,-7.732 v -6.808 c 0,-4.271 3.459,-7.732 7.727,-7.732 4.267,0 7.727,3.461 7.727,7.732 v 6.808 c 0,4.27 -3.46,7.732 -7.727,7.732 z"
         fill="#6d80aa"
         id="path20693" />
    </g>
    <g
       id="g20699">
      <path
         d="m 364.96,379.015 c -6.117,0 -11.86,-2.389 -16.172,-6.727 -3.009,-3.028 -2.996,-7.924 0.03,-10.935 3.025,-3.01 7.918,-2.996 10.927,0.03 1.39,1.398 3.242,2.169 5.215,2.169 1.974,0 3.826,-0.77 5.215,-2.169 3.009,-3.026 7.902,-3.04 10.927,-0.03 3.026,3.011 3.039,7.907 0.03,10.935 -4.311,4.338 -10.054,6.727 -16.172,6.727 z"
         fill="#6d80aa"
         id="path20697" />
    </g>
  </g>
</svg>
