<?xml version="1.0" encoding="UTF-8" standalone="no"?>
<svg
   xmlns:dc="http://purl.org/dc/elements/1.1/"
   xmlns:cc="http://creativecommons.org/ns#"
   xmlns:rdf="http://www.w3.org/1999/02/22-rdf-syntax-ns#"
   xmlns:svg="http://www.w3.org/2000/svg"
   xmlns="http://www.w3.org/2000/svg"
   width="500"
   height="250"
   viewBox="0 0 132.29166 66.145835"
   version="1.1"
   id="svg8">
  <defs
     id="defs2">
    <rect
       id="rect3591"
       height="32.246093"
       width="36.586914"
       y="17.569987"
       x="2.6871745" />
    <rect
       x="33.261906"
       y="1.889881"
       width="32.127975"
       height="25.607887"
       id="rect952" />
    <rect
       x="23.718006"
       y="3.0238094"
       width="21.45015"
       height="20.127232"
       id="rect946" />
    <rect
       id="rect952-5"
       height="25.607887"
       width="32.127975"
       y="1.889881"
       x="33.261906" />
    <rect
       id="rect1246"
       height="25.607887"
       width="32.127975"
       y="1.889881"
       x="33.261906" />
    <rect
       id="rect2592"
       height="20.127232"
       width="21.45015"
       y="3.0238094"
       x="23.718006" />
    <rect
       x="23.718006"
       y="3.0238094"
       width="21.45015"
       height="20.127232"
       id="rect2600" />
    <rect
       id="rect2608"
       height="20.127232"
       width="21.45015"
       y="3.0238094"
       x="23.718006" />
    <rect
       x="2.6871746"
       y="17.569986"
       width="36.586914"
       height="32.246094"
       id="rect3591-5" />
    <rect
       x="2.6871746"
       y="17.569986"
       width="36.586914"
       height="32.246094"
       id="rect4205" />
  </defs>
  <metadata
     id="metadata5">
    <rdf:RDF>
      <cc:Work
         rdf:about="">
        <dc:format>image/svg+xml</dc:format>
        <dc:type
           rdf:resource="http://purl.org/dc/dcmitype/StillImage" />
        <dc:title></dc:title>
      </cc:Work>
    </rdf:RDF>
  </metadata>
  <g
     transform="matrix(0.52695301,0,0,0.52695301,36.147146,61.547897)"
     id="g4438">
    <path
       style="fill:none;stroke:#000000;stroke-width:3.96875;stroke-linecap:round;stroke-linejoin:miter;stroke-miterlimit:4;stroke-dasharray:none;stroke-opacity:1"
       d="m 60.616729,-60.990905 v 18.708867"
       id="path4434" />
    <path
       id="path4436"
       d="M 69.971162,-51.636471 H 51.262295"
       style="fill:none;stroke:#000000;stroke-width:3.96875;stroke-linecap:round;stroke-linejoin:miter;stroke-miterlimit:4;stroke-dasharray:none;stroke-opacity:1" />
  </g>
  <g
     transform="matrix(0.07815362,0,0,0.07815362,11.029495,13.546166)"
     id="g4645">
    <path
       d="m 497,103.39 v 189.47 l -32.223,-60.785 c -3.44,-7.62 -14.15,-7.91 -18,-0.49 L 393.77,320.69 361.705,286.831 c -4.55,-5.13 -12.79,-4.27 -16.18,1.69 l -21.642,32.169 -0.766,-175.105 c 0,-6.69 4.44,-12.58 10.88,-14.42 L 336,129.499 477.88,88.96 c 9.58,-2.73 19.12,4.46 19.12,14.43 z"
       fill="#bde4ff"
       id="path4595" />
    <path
       d="m 497,292.86 v 100.75 c 0,1.869 -0.335,3.641 -0.944,5.268 0,0 -11.049,8.606 -18.833,6.388 L 366.606,372.692 444.797,217.99 c 3.317,-6.393 15.894,-4.161 15.894,-4.161 0.717,0.773 1.332,1.687 1.808,2.742 z"
       fill="#afefa5"
       id="path4597" />
    <path
       d="m 393.77,314.48 -9.802,36.084 -21.448,24.516 -24.991,-13.415 c -6.44,-1.84 -10.88,-7.73 -10.88,-14.42 L 322,320.69 345.09,279.9 c 3.39,-5.96 11.63,-6.82 16.18,-1.69 z"
       fill="#afefa5"
       id="path4599" />
    <path
       d="M 336,129.499 V 295.96 l -7,22.944 -7,1.786 V 144.81 c 0,-6.69 4.44,-12.58 10.88,-14.42 z"
       fill="#99dbff"
       id="path4601" />
    <path
       d="m 496.056,398.878 c -2.65,7.02 -10.416,11.372 -18.176,9.162 l -102.279,-29.223 -5.718,-5.317 -7.363,1.58 6.53,-12.66 z"
       fill="#8ce1a4"
       id="path4603" />
    <path
       d="m 369.05,362.42 1.961,10.293 -8.491,2.367 -29.64,-8.47 C 326.44,364.77 322,358.88 322,352.19 v -31.5 l 14,-24.73 v 42.65 c 0,8.48 5.62,15.94 13.78,18.27 z"
       fill="#8ce1a4"
       id="path4605" />
    <path
       d="m 399.5,186.75 c 0,4.236 -0.675,8.24 -1.876,11.791 0,0 -1.326,2.039 -1.826,3.097 -3.252,6.875 -8.176,10.287 -14.298,10.287 -9.941,0 -16.596,-10.54 -16.596,-25.176 0,-8.502 2.006,-15.571 6.234,-20.42 2.011,-2.307 6.238,-5.381 6.238,-5.381 1.324,-0.457 2.705,-0.699 4.124,-0.699 9.941,0.001 18,11.865 18,26.501 z"
       fill="#ffe07d"
       id="path4607" />
    <path
       d="m 397.624,198.541 c -2.94,8.72 -9.064,14.709 -16.124,14.709 -9.94,0 -18,-11.86 -18,-26.5 0,-12.55 5.926,-23.071 13.876,-25.801 -1.2,3.55 -1.876,7.561 -1.876,11.801 0,14.64 8.06,26.5 18,26.5 1.42,0 2.804,-0.239 4.124,-0.709 z"
       fill="#ffd064"
       id="path4609" />
    <g
       fill="#e8e8e8"
       id="g4619">
      <path
         d="m 248.5,133.5 c -8.284,0 -15,-6.716 -15,-15 v -40 c 0,-8.284 6.716,-15 15,-15 8.284,0 15,6.716 15,15 v 40 c 0,8.284 -6.716,15 -15,15 z"
         id="path4611" />
      <path
         d="m 248.5,233.5 c -8.284,0 -15,-6.716 -15,-15 v -40 c 0,-8.284 6.716,-15 15,-15 8.284,0 15,6.716 15,15 v 40 c 0,8.284 -6.716,15 -15,15 z"
         id="path4613" />
      <path
         d="m 248.5,333.5 c -8.284,0 -15,-6.716 -15,-15 v -40 c 0,-8.284 6.716,-15 15,-15 8.284,0 15,6.716 15,15 v 40 c 0,8.284 -6.716,15 -15,15 z"
         id="path4615" />
      <path
         d="m 248.5,433.5 c -8.284,0 -15,-6.716 -15,-15 v -40 c 0,-8.284 6.716,-15 15,-15 8.284,0 15,6.716 15,15 v 40 c 0,8.284 -6.716,15 -15,15 z"
         id="path4617" />
    </g>
    <path
       d="M 175,144.81 V 320.44 L 150.78,288.5 c -3.39,-5.96 -11.63,-6.82 -16.18,-1.69 l -31.05,41.277 -48.816,-96.481 c -3.85,-7.42 -14.56,-7.13 -18,0.49 L 4.053,293.05 1.585,106.479 c 0,-8.101 12.213,-18.055 12.213,-18.055 1.731,-0.139 3.526,0.025 5.322,0.536 l 145,41.43 c 6.44,1.84 10.88,7.73 10.88,14.42 z"
       fill="#bde4ff"
       id="path4621" />
    <path
       d="m 175,320.44 v 28.52 l -1.543,3.178 c 0,6.69 -4.028,12.032 -10.468,13.872 l -28.617,8.587 -29.647,-57.68 8.675,-13.437 22.329,-25.271 c 4.55,-5.13 12.79,-4.27 16.18,1.69 z"
       fill="#afefa5"
       id="path4623" />
    <path
       d="m 148.33,371.12 -13.73,3.92 -20.632,-20.263 -10.541,-40.007 9.974,-11.289 z"
       fill="#8ce1a4"
       id="path4625" />
    <path
       d="m 133.5,186.75 c 0,4.236 -0.675,8.24 -1.876,11.791 0,0 -1.326,2.039 -1.826,3.097 -3.252,6.875 -8.176,10.287 -14.298,10.287 -9.941,0 -16.596,-10.54 -16.596,-25.176 0,-8.502 2.006,-15.571 6.234,-20.42 2.011,-2.307 6.238,-5.381 6.238,-5.381 1.324,-0.457 2.705,-0.699 4.124,-0.699 9.941,0.001 18,11.865 18,26.501 z"
       fill="#ffe07d"
       id="path4627" />
    <path
       d="m 131.624,198.541 c -2.94,8.72 -9.064,14.709 -16.124,14.709 -9.94,0 -18,-11.86 -18,-26.5 0,-12.55 5.926,-23.071 13.876,-25.801 -1.2,3.55 -1.876,7.561 -1.876,11.801 0,14.64 8.06,26.5 18,26.5 1.42,0 2.804,-0.239 4.124,-0.709 z"
       fill="#ffd064"
       id="path4629" />
    <path
       d="M 134.6,375.04 24.705,400.738 c -9.58,2.73 -19.12,-4.46 -19.12,-14.43 L 0,293.05 34.5,216.57 c 3.44,-7.62 14.15,-7.91 18,-0.49 z"
       fill="#afefa5"
       id="path4631" />
    <path
       d="m 175,348.96 v 3.23 c 0,6.69 -4.44,12.58 -10.88,14.42 l -15.79,4.509 -15.193,1.073 -5.057,-9.842 z"
       fill="#8ce1a4"
       id="path4633" />
    <path
       d="m 148.33,371.12 -13.73,3.92 -8.66,-3.114 2.14,-9.576 13.7,-3.91 z"
       fill="#80d696"
       id="path4635" />
    <path
       d="M 14,88.409 V 262.015 L 8.138,286.99 0,293.05 V 103.39 C 0,95.22 6.41,88.909 14,88.409 Z"
       fill="#99dbff"
       id="path4637" />
    <path
       d="m 134.6,375.04 -115.48,33 C 9.54,410.77 0,403.58 0,393.61 V 293.05 l 14,-31.035 v 114.331 c 0,9.3 8.9,16.015 17.842,13.462 L 128.05,362.35 Z"
       fill="#8ce1a4"
       id="path4639" />
    <path
       d="m 460.692,213.829 -51.923,100.654 -33.169,64.337 -4.589,-6.107 -8.491,2.367 31.25,-60.6 50.73,-98.4 c 3.32,-6.39 11.723,-7.064 16.192,-2.251 z"
       fill="#8ce1a4"
       id="path4641" />
    <path
       d="m 382.12,366.18 -6.52,12.64 -13.08,-3.74 6.53,-12.66 z"
       fill="#80d696"
       id="path4643" />
  </g>
  <g
     transform="matrix(0.07747196,0,0,0.07747196,82.160145,13.643389)"
     id="g4741">
    <path
       d="m 472.287,60.644 v 107.277 l -6.35,5.116 h -88.188 l -6.139,-5.116 V 122.376 H 305.856 V 60.644 c 0,-3.956 3.207,-7.163 7.163,-7.163 h 152.106 c 3.955,0 7.162,3.207 7.162,7.163 z"
       fill="#f07281"
       id="path4715" />
    <path
       d="m 377.75,167.918 -13.264,5.116 H 189.553 l -11.351,-5.116 v -43.493 c 0,-3.956 3.207,-7.163 7.163,-7.163 H 377.75 Z"
       fill="#fee97d"
       id="path4717" />
    <path
       d="m 357.018,60.848 v -7.367 h -44 c -3.956,0 -7.163,3.207 -7.163,7.163 v 56.616 h 64.731 c 3.956,0 7.163,3.207 7.163,7.163 v 43.498 h 30.697 v -55.644 c 0,-14.202 -11.513,-25.714 -25.714,-25.714 C 368.531,86.562 357.018,75.05 357.018,60.848 Z"
       fill="#eb5569"
       id="path4719" />
    <path
       d="M 453.485,352.102 H 178.201 L 129.296,167.917 h 362.226 c 13.437,0 23.228,12.73 19.78,25.717 l -38.037,143.255 c -2.382,8.969 -10.5,15.213 -19.78,15.213 z"
       fill="#8ac9fe"
       id="path4721" />
    <path
       d="m 249.317,407.525 c -25.431,0 -46.046,20.616 -46.046,46.046 0,25.431 20.616,46.046 46.046,46.046 25.431,0 46.046,-20.616 46.046,-46.046 0,-25.431 -20.615,-46.046 -46.046,-46.046 z m 0,61.395 c -8.463,0 -15.349,-6.885 -15.349,-15.349 0,-8.464 6.885,-15.349 15.349,-15.349 8.464,0 15.349,6.885 15.349,15.349 0,8.464 -6.886,15.349 -15.349,15.349 z"
       fill="#a79ba7"
       id="path4723" />
    <path
       d="m 393.099,407.525 c -25.431,0 -46.046,20.616 -46.046,46.046 0,25.431 20.616,46.046 46.046,46.046 25.431,0 46.046,-20.616 46.046,-46.046 0,-25.431 -20.615,-46.046 -46.046,-46.046 z m 0,61.395 c -8.463,0 -15.349,-6.885 -15.349,-15.349 0,-8.464 6.885,-15.349 15.349,-15.349 8.464,0 15.349,6.885 15.349,15.349 0,8.464 -6.886,15.349 -15.349,15.349 z"
       fill="#a79ba7"
       id="path4725" />
    <path
       d="m 249.833,117.26 v 50.661 h -71.627 v -43.498 c 0,-3.956 3.207,-7.163 7.163,-7.163 z"
       fill="#fee45a"
       id="path4727" />
    <g
       id="g4731">
      <path
         d="m 416.955,83.499 c -4.238,0 -7.674,-3.435 -7.674,-7.674 V 47.941 c 0,-11.144 -9.066,-20.209 -20.209,-20.209 -11.143,0 -20.209,9.065 -20.209,20.209 v 27.884 c 0,4.239 -3.436,7.674 -7.674,7.674 -4.238,0 -7.674,-3.435 -7.674,-7.674 V 47.941 c 0,-19.607 15.951,-35.558 35.558,-35.558 19.607,0 35.558,15.951 35.558,35.558 v 27.884 c -0.002,4.238 -3.438,7.674 -7.676,7.674 z"
         fill="#918291"
         id="path4729" />
    </g>
    <g
       id="g4735">
      <path
         d="m 305.856,146.259 c -4.238,0 -7.674,-3.435 -7.674,-7.674 v -27.884 c 0,-11.144 -9.066,-20.209 -20.209,-20.209 -11.143,0 -20.209,9.065 -20.209,20.209 v 27.884 c 0,4.239 -3.436,7.674 -7.674,7.674 -4.238,0 -7.674,-3.435 -7.674,-7.674 v -27.884 c 0,-19.607 15.951,-35.558 35.558,-35.558 19.607,0 35.558,15.951 35.558,35.558 v 27.884 c -0.002,4.238 -3.438,7.674 -7.676,7.674 z"
         fill="#918291"
         id="path4733" />
    </g>
    <path
       d="M 491.524,167.921 H 142.79 c -3.268,0 -6.122,-2.212 -6.937,-5.378 L 124.814,119.647 C 121.269,105.852 108.948,96.17 94.748,95.949 c -4.043,-0.063 -7.664,2.755 -8.119,6.773 -0.526,4.641 3.089,8.572 7.623,8.572 7.4,0 13.854,5.005 15.696,12.173 l 70.411,263.21 c 4.461,16.8 19.694,28.522 37.086,28.522 h 232.488 c 4.202,0 7.867,-3.239 7.992,-7.439 0.13,-4.346 -3.354,-7.909 -7.671,-7.909 H 217.698 c -10.508,0 -19.944,-6.958 -22.514,-17.147 -0.021,-0.085 -0.045,-0.168 -0.069,-0.251 l -6.217,-21.165 c -1.347,-4.587 2.091,-9.181 6.872,-9.181 h 45.907 l -10.19,-38.376 H 433.81 c 4.238,0 7.674,-3.435 7.674,-7.674 0,-4.239 -3.436,-7.674 -7.674,-7.674 H 227.412 l -8.15,-30.693 h 226.779 c 4.238,0 7.674,-3.435 7.674,-7.674 0,-4.239 -3.436,-7.674 -7.674,-7.674 H 215.186 l -4.021,-15.145 c -1.419,-5.344 -1.335,-10.657 -0.062,-15.557 h 247.16 c 4.238,0 7.674,-3.435 7.674,-7.674 0,-4.239 -3.436,-7.674 -7.674,-7.674 h -237.72 c 5.351,-4.733 12.398,-7.67 20.291,-7.67 h 269.149 l 1.32,-4.983 c 3.449,-12.989 -6.344,-25.718 -19.779,-25.718 z"
       fill="#60b7ff"
       id="path4737" />
    <path
       d="M 79.927,118.969 H 15.349 C 6.872,118.969 0,112.097 0,103.62 0,95.143 6.872,88.271 15.349,88.271 h 64.579 c 8.432,0 15.285,6.802 15.348,15.234 0.063,8.522 -6.827,15.464 -15.349,15.464 z"
       fill="#f07281"
       id="path4739" />
  </g>
</svg>
