<?xml version="1.0" encoding="UTF-8" standalone="no"?>
<svg
   xmlns:dc="http://purl.org/dc/elements/1.1/"
   xmlns:cc="http://creativecommons.org/ns#"
   xmlns:rdf="http://www.w3.org/1999/02/22-rdf-syntax-ns#"
   xmlns:svg="http://www.w3.org/2000/svg"
   xmlns="http://www.w3.org/2000/svg"
   width="500"
   height="250"
   viewBox="0 0 132.29166 66.145835"
   version="1.1"
   id="svg8">
  <defs
     id="defs2">
    <rect
       x="33.261906"
       y="1.889881"
       width="32.127975"
       height="25.607887"
       id="rect952" />
    <rect
       x="23.718006"
       y="3.0238094"
       width="21.45015"
       height="20.127232"
       id="rect946" />
    <rect
       id="rect952-5"
       height="25.607887"
       width="32.127975"
       y="1.889881"
       x="33.261906" />
    <rect
       id="rect1246"
       height="25.607887"
       width="32.127975"
       y="1.889881"
       x="33.261906" />
  </defs>
  <metadata
     id="metadata5">
    <rdf:RDF>
      <cc:Work
         rdf:about="">
        <dc:format>image/svg+xml</dc:format>
        <dc:type
           rdf:resource="http://purl.org/dc/dcmitype/StillImage" />
        <dc:title></dc:title>
      </cc:Work>
    </rdf:RDF>
  </metadata>
  <text
     transform="matrix(2.7577845,0,0,2.7577845,-16.974279,4.6302081)"
     style="font-style:normal;font-variant:normal;font-weight:bold;font-stretch:normal;font-size:10.5833px;line-height:1.25;font-family:sans-serif;-inkscape-font-specification:'sans-serif Bold';white-space:pre;shape-inside:url(#rect946);fill:#000000;fill-opacity:1;stroke:none;"
     id="text944"
     xml:space="preserve"><tspan
       x="23.71875"
       y="12.678903"><tspan
         style="font-style:normal;font-variant:normal;font-weight:bold;font-stretch:normal;font-family:sans-serif;-inkscape-font-specification:'sans-serif Bold'">+</tspan></tspan></text>
  <g
     transform="matrix(0.06994592,0,0,0.06994592,4.5303131,14.774669)"
     id="g1527">
    <path
       style="fill:#e24b4b"
       d="M 512,256 C 512,397.44 397.28,512 256,512 114.56,512 0,397.44 0,256 0,114.72 114.56,0 256,0 397.28,0 512,114.72 512,256 Z"
       id="path1448" />
    <path
       style="fill:#d03f3f"
       d="m 512,256 c 0,141.44 -114.72,256 -256,256 -80.64,0 -152.64,-37.28 -199.36,-95.52 43.84,35.2 99.36,56.16 160,56.16 141.28,0 256,-114.56 256,-256 0,-60.64 -20.96,-116.16 -56.32,-160 C 474.72,103.52 512,175.36 512,256 Z"
       id="path1450" />
    <g
       id="g1458">
	<path
   style="fill:#3e4347"
   d="m 368.256,278.304 c 17.488,-14.816 19.728,-40.912 4.912,-58.4 -5.696,-6.848 -13.168,-11.248 -20.976,-13.104 11.376,-6.4 24.288,-8.496 37.152,-7.568 6.576,0.464 12.352,-4.464 12.752,-11.168 0.464,-6.56 -4.464,-12.352 -11.168,-12.752 -47.248,-3.52 -85.568,27.84 -91.44,59.392 -6.224,39.264 38.128,69.552 68.768,43.6 z"
   id="path1452" />

	<path
   style="fill:#3e4347"
   d="m 143.744,278.304 c -17.488,-14.816 -19.728,-40.912 -4.912,-58.4 5.696,-6.848 13.168,-11.248 20.976,-13.104 -11.376,-6.4 -24.288,-8.496 -37.152,-7.568 -6.576,0.464 -12.352,-4.464 -12.752,-11.168 -0.464,-6.56 4.464,-12.352 11.168,-12.752 47.248,-3.52 85.568,27.84 91.44,59.392 6.224,39.264 -38.128,69.552 -68.768,43.6 z"
   id="path1454" />

	<path
   style="fill:#3e4347"
   d="m 336.768,407.84 c -53.76,-18.72 -107.68,-18.72 -161.6,0 -13.92,4.96 -26.4,-10.88 -17.28,-22.56 19.52,-25.44 56.16,-42.56 98.08,-42.56 42.08,0 78.56,17.12 98.24,42.56 8.96,11.68 -3.52,27.52 -17.44,22.56 z"
   id="path1456" />

</g>
    <g
       id="g1464">
	<path
   style="fill:#5a5f63"
   d="m 365.008,241.696 c -3.152,2 -8.016,-0.096 -10.976,-4.656 -2.832,-4.592 -2.688,-9.888 0.464,-11.872 3.28,-2.032 8.144,0.048 10.976,4.656 2.96,4.544 2.688,9.872 -0.464,11.872 z"
   id="path1460" />

	<path
   style="fill:#5a5f63"
   d="m 195.584,240.544 c -3.456,1.392 -7.856,-1.504 -9.936,-6.496 -1.936,-5.008 -0.848,-10.16 2.608,-11.552 3.584,-1.408 8,1.488 9.936,6.496 2.08,4.976 0.848,10.16 -2.608,11.552 z"
   id="path1462" />

</g>
    <g
       id="g1466">
</g>
    <g
       id="g1468">
</g>
    <g
       id="g1470">
</g>
    <g
       id="g1472">
</g>
    <g
       id="g1474">
</g>
    <g
       id="g1476">
</g>
    <g
       id="g1478">
</g>
    <g
       id="g1480">
</g>
    <g
       id="g1482">
</g>
    <g
       id="g1484">
</g>
    <g
       id="g1486">
</g>
    <g
       id="g1488">
</g>
    <g
       id="g1490">
</g>
    <g
       id="g1492">
</g>
    <g
       id="g1494">
</g>
  </g>
  <g
     transform="matrix(0.09256898,0,0,0.09256898,81.695789,9.498478)"
     id="g1678">
    <path
       style="fill:#ebaf4b"
       d="m 297.275,468.428 h -54.324 l 26.899,-54.667 c 2.07,-4.211 0.336,-9.302 -3.875,-11.376 -4.215,-2.079 -9.302,-0.336 -11.376,3.875 l -30.591,62.168 h -45.692 c -4.692,0 -8.497,3.805 -8.497,8.497 0,4.692 3.805,8.497 8.497,8.497 h 118.959 c 4.692,0 8.497,-3.805 8.497,-8.497 0,-4.692 -3.804,-8.497 -8.497,-8.497 z"
       id="path1590" />
    <g
       id="g1596">
	<path
   style="fill:#ffc850"
   d="M 297.275,468.428 H 276.94 l 26.899,-54.667 c 2.07,-4.211 0.336,-9.302 -3.875,-11.376 -4.228,-2.079 -9.302,-0.336 -11.376,3.875 l -30.591,62.168 h -45.692 c -4.692,0 -8.497,3.805 -8.497,8.497 0,4.692 3.805,8.497 8.497,8.497 h 84.971 c 4.692,0 8.497,-3.805 8.497,-8.497 -0.001,-4.692 -3.805,-8.497 -8.498,-8.497 z"
   id="path1592" />

	<path
   style="fill:#ffc850"
   d="m 3.454,187.233 41.324,32.693 6.083,-67.252 -45.289,19.041 c -6.38,2.682 -7.546,11.224 -2.118,15.518 z"
   id="path1594" />

</g>
    <path
       style="fill:#00c3ff"
       d="M 427.121,268.216 C 357.463,261.666 307.189,175.279 277.095,123.235 256.974,88.438 230.007,66.942 190.085,59.152 l 25.052,-32.571 c 0,0 -155.779,-2.833 -180.161,161.444 -16.329,144.451 100.885,237.918 236.808,237.918 110.277,0 205.906,-65.686 239.61,-156.472 2.86,-7.704 -4.918,-15.036 -12.509,-11.888 -15.941,6.609 -40.915,13.534 -71.764,10.633 z"
       id="path1598" />
    <g
       id="g1604">
	<path
   style="fill:#00aaf0"
   d="M 337.636,413.197 C 201.713,413.197 84.499,319.73 100.828,175.279 114.495,83.199 169.439,43.634 215.098,26.632 l 0.039,-0.051 c 0,0 -155.779,-2.833 -180.161,161.444 -16.329,144.451 100.885,237.918 236.808,237.918 29.708,0 58.351,-4.771 85.009,-13.512 -6.338,0.441 -12.709,0.766 -19.157,0.766 z"
   id="path1600" />

	<path
   style="fill:#00aaf0"
   d="m 299.464,155.591 c -14.095,-18.374 -39.291,-24.058 -59.637,-13 l -0.284,0.155 c -114.983,62.606 8.56,278.381 197.875,112.142 7.025,-6.169 2.676,-17.796 -6.673,-17.798 -30.201,-0.005 -79.003,-13.351 -131.281,-81.499 z"
   id="path1602" />

</g>
    <path
       style="fill:#0096dc"
       d="M 411.462,235.301 C 351.94,291.215 204.89,323.45 195.825,205.042 c -9.78,80.44 96.68,177.234 241.747,49.709 7.041,-6.189 2.472,-17.679 -6.902,-17.69 -5.763,-0.006 -12.201,-0.498 -19.208,-1.76 z"
       id="path1606" />
    <path
       style="fill:#4b3f4e"
       d="m 110.34,188.025 v 0 c -14.078,0 -25.491,-11.413 -25.491,-25.491 v -8.497 c 0,-14.078 11.413,-25.491 25.491,-25.491 v 0 c 14.078,0 25.491,11.413 25.491,25.491 v 8.497 c 0,14.078 -11.413,25.491 -25.491,25.491 z"
       id="path1608" />
    <path
       style="fill:#5d5360"
       d="m 110.34,128.546 v 29.74 c 0,7.039 5.706,12.746 12.746,12.746 7.04,0 12.746,-5.706 12.746,-12.746 v -4.249 c -0.001,-14.079 -11.414,-25.491 -25.492,-25.491 z"
       id="path1610" />
    <circle
       style="fill:#ffffff"
       cx="110.34"
       cy="145.53999"
       r="8.4969997"
       id="circle1612" />
    <g
       id="g1614">
</g>
    <g
       id="g1616">
</g>
    <g
       id="g1618">
</g>
    <g
       id="g1620">
</g>
    <g
       id="g1622">
</g>
    <g
       id="g1624">
</g>
    <g
       id="g1626">
</g>
    <g
       id="g1628">
</g>
    <g
       id="g1630">
</g>
    <g
       id="g1632">
</g>
    <g
       id="g1634">
</g>
    <g
       id="g1636">
</g>
    <g
       id="g1638">
</g>
    <g
       id="g1640">
</g>
    <g
       id="g1642">
</g>
  </g>
</svg>
