<?xml version="1.0" encoding="UTF-8" standalone="no"?>
<svg
   xmlns:dc="http://purl.org/dc/elements/1.1/"
   xmlns:cc="http://creativecommons.org/ns#"
   xmlns:rdf="http://www.w3.org/1999/02/22-rdf-syntax-ns#"
   xmlns:svg="http://www.w3.org/2000/svg"
   xmlns="http://www.w3.org/2000/svg"
   width="500"
   height="250"
   viewBox="0 0 132.29166 66.145835"
   version="1.1"
   id="svg8">
  <defs
     id="defs2">
    <rect
       id="rect16657"
       height="39.6875"
       width="52.916666"
       y="16.536458"
       x="16.123047" />
    <rect
       id="rect14952"
       height="41.217972"
       width="28.355626"
       y="11.693042"
       x="56.1266" />
    <rect
       id="rect12397"
       height="46.715494"
       width="47.955729"
       y="8.6816405"
       x="71.933593" />
    <rect
       id="rect10750"
       height="32.448191"
       width="43.55658"
       y="16.95491"
       x="54.080318" />
    <rect
       id="rect10116"
       height="31.278887"
       width="27.917137"
       y="16.808747"
       x="101.14481" />
    <rect
       id="rect9439"
       height="25.14004"
       width="57.003578"
       y="26.309344"
       x="5.2618688" />
    <rect
       id="rect8476"
       height="26.60167"
       width="35.663777"
       y="22.216779"
       x="51.449384" />
    <rect
       id="rect8111"
       height="60.358072"
       width="46.715494"
       y="-7.4414062"
       x="111.20768" />
    <rect
       id="rect5692"
       height="31.419271"
       width="28.318685"
       y="19.223633"
       x="111.62109" />
    <rect
       id="rect4959"
       height="36.793619"
       width="38.447265"
       y="12.815755"
       x="87.436523" />
    <rect
       id="rect3591"
       height="32.246093"
       width="36.586914"
       y="17.569987"
       x="2.6871745" />
    <rect
       x="33.261906"
       y="1.889881"
       width="32.127975"
       height="25.607887"
       id="rect952" />
    <rect
       x="23.718006"
       y="3.0238094"
       width="21.45015"
       height="20.127232"
       id="rect946" />
    <rect
       id="rect952-5"
       height="25.607887"
       width="32.127975"
       y="1.889881"
       x="33.261906" />
    <rect
       id="rect1246"
       height="25.607887"
       width="32.127975"
       y="1.889881"
       x="33.261906" />
    <rect
       id="rect2592"
       height="20.127232"
       width="21.45015"
       y="3.0238094"
       x="23.718006" />
    <rect
       x="23.718006"
       y="3.0238094"
       width="21.45015"
       height="20.127232"
       id="rect2600" />
    <rect
       id="rect2608"
       height="20.127232"
       width="21.45015"
       y="3.0238094"
       x="23.718006" />
    <rect
       x="2.6871746"
       y="17.569986"
       width="36.586914"
       height="32.246094"
       id="rect3591-5" />
    <rect
       x="2.6871746"
       y="17.569986"
       width="36.586914"
       height="32.246094"
       id="rect4205" />
    <rect
       x="111.20768"
       y="-7.4414062"
       width="46.715494"
       height="60.358072"
       id="rect8139" />
    <rect
       x="51.449384"
       y="22.216779"
       width="35.663777"
       height="26.60167"
       id="rect8484" />
    <rect
       x="16.123047"
       y="16.536458"
       width="52.916666"
       height="39.6875"
       id="rect16854" />
    <rect
       x="16.123047"
       y="16.536458"
       width="52.916666"
       height="39.6875"
       id="rect16860" />
  </defs>
  <metadata
     id="metadata5">
    <rdf:RDF>
      <cc:Work
         rdf:about="">
        <dc:format>image/svg+xml</dc:format>
        <dc:type
           rdf:resource="http://purl.org/dc/dcmitype/StillImage" />
        <dc:title></dc:title>
      </cc:Work>
    </rdf:RDF>
  </metadata>
  <g
     transform="matrix(0.26458333,0,0,0.26458333,71.999739,33.965621)"
     id="g14585">
</g>
  <g
     transform="matrix(0.26458333,0,0,0.26458333,71.999739,33.965621)"
     id="g14587">
</g>
  <g
     transform="matrix(0.26458333,0,0,0.26458333,71.999739,33.965621)"
     id="g14589">
</g>
  <g
     transform="matrix(0.26458333,0,0,0.26458333,71.999739,33.965621)"
     id="g14591">
</g>
  <g
     transform="matrix(0.26458333,0,0,0.26458333,71.999739,33.965621)"
     id="g14593">
</g>
  <g
     transform="matrix(0.26458333,0,0,0.26458333,71.999739,33.965621)"
     id="g14595">
</g>
  <g
     transform="matrix(0.26458333,0,0,0.26458333,71.999739,33.965621)"
     id="g14597">
</g>
  <g
     transform="matrix(0.26458333,0,0,0.26458333,71.999739,33.965621)"
     id="g14599">
</g>
  <g
     transform="matrix(0.26458333,0,0,0.26458333,71.999739,33.965621)"
     id="g14601">
</g>
  <g
     transform="matrix(0.26458333,0,0,0.26458333,71.999739,33.965621)"
     id="g14603">
</g>
  <g
     transform="matrix(0.26458333,0,0,0.26458333,71.999739,33.965621)"
     id="g14605">
</g>
  <g
     transform="matrix(0.26458333,0,0,0.26458333,71.999739,33.965621)"
     id="g14607">
</g>
  <g
     transform="matrix(0.26458333,0,0,0.26458333,71.999739,33.965621)"
     id="g14609">
</g>
  <g
     transform="matrix(0.26458333,0,0,0.26458333,71.999739,33.965621)"
     id="g14611">
</g>
  <g
     transform="matrix(0.26458333,0,0,0.26458333,71.999739,33.965621)"
     id="g14613">
</g>
  <g
     transform="matrix(0.06901791,0,0,0.06901791,81.088085,15.327399)"
     id="g17109">
    <g
       id="g17091">
      <path
         d="m 391.359,87.432 -55.853,94.565 v 295.578 l -25.547,19.146 h 109.91 c 13.974,0 25.303,-11.328 25.303,-25.303 V 181.997 Z"
         fill="#a6aaed"
         id="path17069" />
      <path
         d="m 391.321,87.496 0.038,-0.064 h -0.038 V 54.506 c 0,-13.486 -10.933,-24.419 -24.419,-24.419 H 163.394 c -13.487,0 -24.42,10.933 -24.42,24.419 v 32.925 h -2.36 l -63.596,94.565 v 289.421 c 0,13.975 11.329,25.303 25.303,25.303 h 211.637 c 13.974,0 25.303,-11.329 25.303,-25.303 v -289.42 z"
         fill="#ffffff"
         id="path17071" />
      <path
         d="m 72.463,460.257 c 0,0 28.195,-48.105 75.592,-48.105 47.397,0 74.365,24.516 107.87,24.516 33.505,0 75.73,-55.392 75.73,-55.392 V 264.45 c 0,0 -42.225,52.465 -75.73,52.465 -19.129,0 -36.399,-10.386 -56.513,-19.301 v 17.972 c 0,7.258 -5.884,13.142 -13.142,13.142 -7.258,0 -13.142,-5.884 -13.142,-13.142 v -27.313 c -7.064,-1.751 -14.566,-2.924 -22.645,-3.176 v 46.663 c 0,7.258 -5.884,13.142 -13.142,13.142 -7.258,0 -13.142,-5.884 -13.142,-13.142 V 288.741 C 91.086,299.56 72.463,330.413 72.463,330.413"
         fill="#96b4eb"
         id="path17073" />
      <path
         d="m 396.979,55.369 c 0,-13.963 -11.319,-25.282 -25.283,-25.282 h -66.278 c 13.963,0 25.282,11.319 25.282,25.282 v 42.754 l -45.884,83.266 v 235.837 c 0,12.003 -9.149,21.732 -20.436,21.732 H 93.455 c -11.287,0 -20.436,-9.73 -20.436,-21.732 v 54.191 c 0,13.975 11.329,25.303 25.303,25.303 h 211.636 c 13.975,0 25.303,-11.329 25.303,-25.303 v -289.42 l 41.288,-69.601 z"
         fill="#e1bdfc"
         id="path17075" />
      <path
         d="m 284.816,306.988 v 110.238 c 0,3.846 -0.948,7.451 -2.596,10.585 25.881,-15.643 49.433,-46.536 49.433,-46.536 V 264.45 c 10e-4,0 -21.998,27.33 -46.837,42.538 z"
         fill="#8286ea"
         id="path17077" />
      <path
         d="m 241.195,137.264 c 0,16.143 -22.469,29.229 -50.186,29.229 -27.717,0 -50.186,-13.086 -50.186,-29.229 l 0.005,-28.577 100.418,0.227 z"
         fill="#a6aaed"
         id="path17079" />
      <ellipse
         cx="191.009"
         cy="108.586"
         fill="#c1e5ef"
         rx="50.186001"
         ry="29.229"
         id="ellipse17081" />
    </g>
    <g
       fill="#3c122c"
       id="g17107">
      <path
         d="m 269.405,391.371 c -3.342,0 -6.052,-2.71 -6.052,-6.052 v -12.865 c 0,-3.342 2.71,-6.052 6.052,-6.052 3.342,0 6.052,2.71 6.052,6.052 v 12.865 c 0,3.343 -2.71,6.052 -6.052,6.052 z"
         id="path17093" />
      <path
         d="m 293.124,363.928 c -3.342,0 -6.052,-2.71 -6.052,-6.052 V 345.01 c 0,-3.342 2.71,-6.052 6.052,-6.052 3.342,0 6.052,2.71 6.052,6.052 v 12.866 c 0,3.342 -2.71,6.052 -6.052,6.052 z"
         id="path17095" />
      <path
         d="M 453.937,177.008 401.408,84.696 V 54.506 C 401.408,35.479 385.928,20 366.902,20 H 163.394 c -19.027,0 -34.505,15.479 -34.505,34.506 v 26.457 c -0.225,0.269 -0.445,0.544 -0.643,0.839 L 64.65,176.367 c -1.119,1.664 -1.717,3.624 -1.717,5.629 v 289.421 c 0,19.514 15.876,35.39 35.39,35.39 h 109.91 101.726 109.91 c 19.513,0 35.389,-15.876 35.389,-35.39 v -289.42 c -10e-4,-1.749 -0.456,-3.468 -1.321,-4.989 z m -62.759,-69.5 39.797,69.937 H 349.69 Z M 163.394,40.174 h 203.508 c 7.903,0 14.333,6.43 14.333,14.333 V 77.346 H 217.528 c -7.859,-2.582 -16.866,-4.04 -26.519,-4.04 -9.653,0 -18.659,1.458 -26.519,4.04 h -15.428 v -22.84 c -0.001,-7.903 6.429,-14.332 14.332,-14.332 z m 71.749,68.412 c 0,11.193 -17.734,23.177 -44.134,23.177 -26.4,0 -44.134,-11.984 -44.134,-23.177 0,-11.193 17.734,-23.177 44.134,-23.177 26.399,0 44.134,11.984 44.134,23.177 z m -88.267,22.098 c 10.22,8.08 26.047,13.183 44.133,13.183 18.093,0 33.926,-5.108 44.146,-13.193 l -0.012,6.579 v 0.011 c 0,11.193 -17.734,23.177 -44.134,23.177 -26.4,0 -44.134,-11.984 -44.134,-23.176 z m -12.091,-22.456 c -0.002,0.12 -0.014,0.238 -0.014,0.358 0,0.042 0.005,0.084 0.005,0.126 l -0.005,28.552 c 0,19.784 24.702,35.281 56.238,35.281 31.535,0 56.238,-15.497 56.238,-35.281 l 0.051,-28.34 c 0.001,-0.307 -0.029,-0.606 -0.073,-0.901 -0.088,-3.679 -1.029,-7.205 -2.712,-10.505 h 129.134 l -47.061,79.332 c -0.114,0.192 -0.2,0.396 -0.3,0.594 H 88.235 Z m -51.68,217.776 c 6.463,-8.077 18.471,-20.756 35.041,-28.391 v 34.147 c 0,10.584 8.61,19.194 19.194,19.194 10.583,0 19.193,-8.611 19.193,-19.194 v -40.222 c 3.504,0.332 7.001,0.854 10.542,1.573 v 22.475 c 0,10.584 8.61,19.194 19.193,19.194 10.584,0 19.194,-8.61 19.194,-19.194 v -8.541 c 1.049,0.492 2.089,0.982 3.121,1.468 15.777,7.432 30.68,14.453 47.34,14.453 25.288,0 53.867,-25.913 69.251,-42.099 v 98.875 c -12.677,15.979 -45.346,50.874 -69.251,50.874 -14.228,0 -27.238,-4.773 -42.303,-10.301 -18.16,-6.663 -38.742,-14.215 -65.566,-14.215 -29.176,0 -51.287,16.497 -64.949,30.757 z m 242.07,-63.212 c -12.762,15.187 -45.366,48.071 -69.251,48.071 -13.953,0 -27.034,-6.163 -42.182,-13.299 -3.833,-1.806 -7.797,-3.673 -11.879,-5.482 -1.871,-0.829 -4.035,-0.656 -5.753,0.46 -1.716,1.116 -2.751,3.025 -2.751,5.073 v 17.972 c 0,3.909 -3.181,7.09 -7.09,7.09 -3.908,0 -7.089,-3.181 -7.089,-7.09 v -27.313 c 0,-2.782 -1.896,-5.205 -4.596,-5.874 -8.094,-2.006 -15.916,-3.102 -23.913,-3.351 -1.659,-0.056 -3.225,0.564 -4.4,1.704 -1.176,1.14 -1.84,2.708 -1.84,4.346 v 46.662 c 0,3.91 -3.181,7.09 -7.089,7.09 -3.91,0 -7.09,-3.181 -7.09,-7.09 v -43.019 c 0,-1.939 -0.929,-3.761 -2.499,-4.899 -1.57,-1.139 -3.59,-1.456 -5.432,-0.853 -16.775,5.481 -29.954,15.635 -39.214,24.847 V 189.549 h 242.07 v 73.243 z M 208.232,486.635 H 98.322 c -8.39,0 -15.217,-6.826 -15.217,-15.217 v -15.891 c 9.889,-12.909 32.839,-37.323 64.949,-37.323 24.674,0 43.342,6.85 61.397,13.474 15.477,5.678 30.094,11.042 46.473,11.042 25.304,0 53.838,-27.246 69.251,-44.342 v 73.04 c 0,8.391 -6.826,15.217 -15.217,15.217 z m 211.636,0 h -77.964 c 2.206,-4.612 3.444,-9.772 3.444,-15.217 V 189.549 h 89.736 v 281.869 c 0,8.39 -6.825,15.217 -15.216,15.217 z"
         id="path17097" />
    </g>
  </g>
  <g
     transform="matrix(0.08549778,0,0,0.08549778,13.015235,11.556299)"
     id="Flat">
    <path
       d="M 376,104 407.71574,72.28426 A 28.28425,28.28425 0 0 1 427.71574,64 28.28425,28.28425 0 0 1 456,92.28424 v 11.14727 A 136.56841,136.56841 0 0 1 416,200 v 48 l 32,-32 a 136.56841,136.56841 0 0 0 40,-96.56845 V 88 A 56,56 0 0 0 432,32 h -20.28428 a 28.28425,28.28425 0 0 0 -20,8.28426 L 368,64 Z"
       fill="#a0eaff"
       id="path17315" />
    <path
       d="M 442.89014,367.71 400.26,468.47 A 31.99181,31.99181 0 0 1 370.79,488 H 245.21 A 31.99181,31.99181 0 0 1 215.74,468.47 L 173.10986,367.71 a 196.3399,196.3399 0 0 1 8.78028,-171.16 199.74692,199.74692 0 0 0 14.48,-159.44 L 192,24 h 200 v 44.69 a 199.43514,199.43514 0 0 0 6.71,51.31 q 2.14527,8.09994 4.98,16 a 199.26462,199.26462 0 0 0 13.04,28.96 l 3.66016,6.65 13.71972,24.94 a 196.37445,196.37445 0 0 1 8.78026,171.16 z"
       fill="#65dcff"
       id="path17317" />
    <path
       d="M 403.68994,136 H 280 v -16 h 118.71 q 2.14523,8.09994 4.97994,16 z"
       fill="#57c1ff"
       id="path17319" />
    <path
       d="m 304,24 -21.1499,47.59 a 15.87305,15.87305 0 0 1 -14.17017,9.48 L 256,24 Z"
       fill="#57c1ff"
       id="path17321" />
    <path
       d="M 268.67993,81.07 A 15.74051,15.74051 0 0 1 255.6001,74.91 L 216,24 h 40 z"
       fill="#a0eaff"
       id="path17323" />
    <path
       d="M 442.89014,367.71 400.26,468.47 A 31.99181,31.99181 0 0 1 370.79,488 H 245.21 A 31.99181,31.99181 0 0 1 215.74,468.47 L 173.10986,367.71 A 196.32255,196.32255 0 0 1 160.92993,255.07 L 196,220 a 62.23836,62.23836 0 0 1 88,0 62.22637,62.22637 0 0 0 88,0 l 48.39014,-48.39 13.71972,24.94 a 196.37445,196.37445 0 0 1 8.78028,171.16 z"
       fill="#e6e6e6"
       id="path17325" />
    <path
       d="m 248,120 h 16 v 16 h -16 z"
       fill="#57c1ff"
       id="path17327" />
    <path
       d="M 464,360.00005 V 360 a 158.53306,158.53306 0 0 0 -26.62558,-87.93832 v -8e-5 a 25.6888,25.6888 0 0 0 -42.74874,0 v 8e-5 A 158.53306,158.53306 0 0 0 368,360 v 10e-5 a 48,48 0 0 0 48,48 h 10e-5 A 48,48 0 0 0 464,360.00005 Z"
       fill="#fff1d8"
       id="path17329" />
    <path
       d="m 432,416 v 40 l 16.47,3.29 A 29.29651,29.29651 0 0 1 472,488 H 360 a 29.28594,29.28594 0 0 1 23.53,-28.71 L 400,456 V 416 A 49.75225,49.75225 0 0 1 360,367.21 V 344 h 112 v 23.21 A 49.75072,49.75072 0 0 1 432,416 Z"
       fill="#dc9265"
       id="path17331" />
    <path
       d="m 432,416 v 40 l 16.47,3.29 A 29.29651,29.29651 0 0 1 472,488 h -88 l 60.56006,-6.84009 A 7.20312,7.20312 0 0 0 449.43994,469.53 c -0.03,-0.03 -0.0498,-0.0601 -0.0801,-0.0901 A 29.20918,29.20918 0 0 0 432.47,459.29 L 416,456 v -40 a 49.75072,49.75072 0 0 0 40,-48.79 V 344 h 16 v 23.21 A 49.75072,49.75072 0 0 1 432,416 Z"
       fill="#ad693d"
       id="path17333" />
    <path
       d="m 328,456 a 32.00409,32.00409 0 0 1 -32,32 H 56 a 31.87085,31.87085 0 0 1 -21.16992,-8 c -0.5,-0.43994 -0.99,-0.9 -1.46,-1.37 A 31.89975,31.89975 0 0 1 24,456 Z"
       fill="#dc9265"
       id="path17335" />
    <path
       d="M 329.14014,376 A 112.77983,112.77983 0 0 1 296,456 H 48 V 296 h 248 a 112.77963,112.77963 0 0 1 33.14014,80 z"
       fill="#f2e368"
       id="path17337" />
    <g
       fill="#eacf4d"
       id="g17359">
      <circle
         cx="152"
         cy="408"
         r="16"
         id="circle17339" />
      <circle
         cx="96"
         cy="368"
         r="16"
         id="circle17341" />
      <circle
         cx="168"
         cy="344"
         r="16"
         id="circle17343" />
      <circle
         cx="288"
         cy="360"
         r="8"
         id="circle17345" />
      <circle
         cx="232"
         cy="328"
         r="8"
         id="circle17347" />
      <circle
         cx="120"
         cy="328"
         r="8"
         id="circle17349" />
      <circle
         cx="88"
         cy="424"
         r="8"
         id="circle17351" />
      <circle
         cx="192"
         cy="384"
         r="8"
         id="circle17353" />
      <circle
         cx="248"
         cy="400"
         r="24"
         id="circle17355" />
      <path
         d="M 329.14014,376 A 112.77983,112.77983 0 0 1 296,456 H 48 v -20.57007 h 180.42993 c 43.15015,0 79.07007,-34.1499 80.1001,-77.28992 0.02,-0.9 0.03,-1.81 0.03,-2.71008 A 112.90016,112.90016 0 0 0 291.72,296 H 296 a 112.77963,112.77963 0 0 1 33.14014,80 z"
         id="path17357" />
    </g>
    <path
       d="m 328,456 a 32.00409,32.00409 0 0 1 -32,32 H 56 A 31.87085,31.87085 0 0 1 34.83008,480 H 272 a 32.012,32.012 0 0 0 30.99,-24 z"
       fill="#ad693d"
       id="path17361" />
  </g>
</svg>
