<?xml version="1.0" encoding="UTF-8" standalone="no"?>
<svg
   xmlns:dc="http://purl.org/dc/elements/1.1/"
   xmlns:cc="http://creativecommons.org/ns#"
   xmlns:rdf="http://www.w3.org/1999/02/22-rdf-syntax-ns#"
   xmlns:svg="http://www.w3.org/2000/svg"
   xmlns="http://www.w3.org/2000/svg"
   width="500"
   height="250"
   viewBox="0 0 132.29166 66.145835"
   version="1.1"
   id="svg8">
  <defs
     id="defs2">
    <rect
       id="rect4959"
       height="36.793619"
       width="38.447265"
       y="12.815755"
       x="87.436523" />
    <rect
       id="rect3591"
       height="32.246093"
       width="36.586914"
       y="17.569987"
       x="2.6871745" />
    <rect
       x="33.261906"
       y="1.889881"
       width="32.127975"
       height="25.607887"
       id="rect952" />
    <rect
       x="23.718006"
       y="3.0238094"
       width="21.45015"
       height="20.127232"
       id="rect946" />
    <rect
       id="rect952-5"
       height="25.607887"
       width="32.127975"
       y="1.889881"
       x="33.261906" />
    <rect
       id="rect1246"
       height="25.607887"
       width="32.127975"
       y="1.889881"
       x="33.261906" />
    <rect
       id="rect2592"
       height="20.127232"
       width="21.45015"
       y="3.0238094"
       x="23.718006" />
    <rect
       x="23.718006"
       y="3.0238094"
       width="21.45015"
       height="20.127232"
       id="rect2600" />
    <rect
       id="rect2608"
       height="20.127232"
       width="21.45015"
       y="3.0238094"
       x="23.718006" />
    <rect
       x="2.6871746"
       y="17.569986"
       width="36.586914"
       height="32.246094"
       id="rect3591-5" />
    <rect
       x="2.6871746"
       y="17.569986"
       width="36.586914"
       height="32.246094"
       id="rect4205" />
  </defs>
  <metadata
     id="metadata5">
    <rdf:RDF>
      <cc:Work
         rdf:about="">
        <dc:format>image/svg+xml</dc:format>
        <dc:type
           rdf:resource="http://purl.org/dc/dcmitype/StillImage" />
        <dc:title></dc:title>
      </cc:Work>
    </rdf:RDF>
  </metadata>
  <g
     transform="matrix(0.52695301,0,0,0.52695301,35.270168,60.378593)"
     id="g4438">
    <path
       style="fill:none;stroke:#000000;stroke-width:3.96875;stroke-linecap:round;stroke-linejoin:miter;stroke-miterlimit:4;stroke-dasharray:none;stroke-opacity:1"
       d="m 60.616729,-60.990905 v 18.708867"
       id="path4434" />
    <path
       id="path4436"
       d="M 69.971162,-51.636471 H 51.262295"
       style="fill:none;stroke:#000000;stroke-width:3.96875;stroke-linecap:round;stroke-linejoin:miter;stroke-miterlimit:4;stroke-dasharray:none;stroke-opacity:1" />
  </g>
  <g
     transform="matrix(0.08408758,0,0,0.08408758,7.3695581,9.1602106)"
     id="g5124">
    <g
       id="g5098">
      <path
         clip-rule="evenodd"
         d="m 59.835,217.286 c 67.661,-111.438 324.523,-111.351 392.271,-0.029 5.548,27.042 12.615,24.005 12.615,42.987 l 36.415,-11.389 C 465.159,49.02 46.781,48.815 10.833,248.855 l 29.786,18.077 c 2.688,1.634 1.666,-35.804 19.216,-49.646 z"
         fill="#e0dfe1"
         fill-rule="evenodd"
         id="path5096" />
    </g>
    <g
       id="g5102">
      <path
         clip-rule="evenodd"
         d="m 0,256.739 v 38.635 c 0,4.351 3.533,7.885 7.885,7.885 H 36.036 L 63.357,279.694 35.861,248.854 H 10.834 7.885 C 3.533,248.855 0,252.388 0,256.739 Z"
         fill="#7e707d"
         fill-rule="evenodd"
         id="path5100" />
    </g>
    <g
       id="g5106">
      <path
         clip-rule="evenodd"
         d="M 59.835,217.286 C 43.482,224.003 35.86,230.164 35.86,247.482 v 1.373 28.181 19.683 c 0,2.19 0.058,4.38 0.175,6.541 3.358,67.108 57.995,110.474 119.32,109.832 49.03,-0.496 62.872,-12.032 78.262,-31.189 5.753,-7.155 14.075,-10.717 22.369,-10.688 8.323,-0.029 16.616,3.534 22.369,10.688 15.389,19.157 29.26,30.692 78.262,31.189 61.324,0.642 115.991,-42.724 119.349,-109.832 0.088,-2.161 0.146,-4.351 0.146,-6.541 v -19.683 -28.181 -1.373 c 0,-17.347 -7.622,-23.479 -24.004,-30.225 h -0.029 c -7.008,-2.891 -15.623,-5.899 -25.931,-9.929 -87.781,-29.028 -252.54,-29.028 -340.321,0 -8.617,3.358 -17.436,6.425 -25.992,9.958 z"
         fill="#a1d4ff"
         fill-rule="evenodd"
         id="path5104" />
    </g>
    <g
       id="g5110">
      <path
         clip-rule="evenodd"
         d="m 66.785,247.891 v 48.827 c 0,50.346 38.722,86.002 88.249,85.477 13.813,-0.146 35.13,-0.555 46.198,-10.455 3.037,-2.716 5.753,-6.016 8.293,-9.199 11.36,-14.105 28.355,-22.253 46.46,-22.253 18.105,0 35.13,8.148 46.461,22.253 2.541,3.183 5.286,6.483 8.323,9.199 11.068,9.9 32.385,10.309 46.168,10.455 49.527,0.526 88.278,-35.131 88.278,-85.477 v -48.827 c -7.008,-3.65 -23.07,-9.053 -29.406,-11.448 -81.737,-26.721 -237.909,-26.721 -319.617,0 -6.337,2.395 -22.428,7.798 -29.407,11.448 z"
         fill="#eff6ff"
         fill-rule="evenodd"
         id="path5108" />
    </g>
    <g
       id="g5114">
      <path
         clip-rule="evenodd"
         d="m 476.111,248.855 -9.954,27.202 c 0,0 9.895,25.041 9.808,27.202 h 28.151 c 4.322,0 7.885,-3.534 7.885,-7.885 v -38.635 c 0,-4.351 -3.563,-7.885 -7.885,-7.885 h -2.979 -25.026 z"
         fill="#7e707d"
         fill-rule="evenodd"
         id="path5112" />
    </g>
    <g
       id="g5118">
      <path
         clip-rule="evenodd"
         d="m 66.785,296.718 c 0,50.346 38.722,86.002 88.249,85.477 13.813,-0.146 35.13,-0.555 46.198,-10.455 3.037,-2.716 5.753,-6.016 8.293,-9.199 11.36,-14.105 28.355,-22.253 46.46,-22.253 18.105,0 35.13,8.148 46.461,22.253 2.541,3.183 5.286,6.483 8.323,9.199 11.068,9.9 32.385,10.309 46.168,10.455 49.527,0.526 88.278,-35.131 88.278,-85.477 v -36.766 -12.061 c -7.008,-3.65 -23.07,-9.053 -29.406,-11.448 2.336,52.711 7.914,109.715 -58.871,109.014 -55.017,-0.584 -38.78,-41.906 -100.952,-41.906 -62.172,0 -45.935,41.322 -100.952,41.906 -49.527,0.526 -88.249,-35.131 -88.249,-85.506 z"
         fill="#d9eeff"
         fill-rule="evenodd"
         id="path5116" />
    </g>
    <g
       id="g5122">
      <path
         clip-rule="evenodd"
         d="m 445.215,296.718 c 0,49.032 -36.736,84.133 -84.423,85.448 -9.929,10.542 -21.201,20.179 -33.641,28.765 8.177,1.314 17.813,2.044 29.465,2.161 61.324,0.642 115.991,-42.724 119.349,-109.832 0.088,-2.161 0.146,-4.351 0.146,-6.541 v -19.683 -20.354 -7.826 -1.373 c 0,-17.347 -7.622,-23.479 -24.004,-30.225 h -0.029 c -7.008,-2.891 -15.623,-5.899 -25.931,-9.929 -10.6,-3.504 -22.34,-6.6 -34.897,-9.257 5.548,11.126 9.841,22.778 12.732,34.839 4.088,1.11 8.031,2.307 11.827,3.534 6.337,2.395 22.398,7.797 29.406,11.448 v 12.061 z"
         fill="#86beec"
         fill-rule="evenodd"
         id="path5120" />
    </g>
  </g>
  <g
     transform="matrix(0.08711646,0,0,0.08711646,80.888116,9.7583567)"
     id="g5217">
    <path
       d="m 212.751,252.292 28.43,134.202 h 29.638 l 28.43,-134.202 z"
       fill="#ddebfd"
       id="path5187" />
    <path
       d="m 397.182,222.222 -10.15,-35.174 -9.167,8.816 c -7.338,7.057 -18.02,9.428 -27.633,6.074 -14.862,-5.186 -31.379,-9.182 -49.055,-11.724 -14.383,-2.061 -29.535,-3.166 -45.178,-3.166 -15.643,0 -30.795,1.105 -45.178,3.166 -17.676,2.541 -34.193,6.537 -49.055,11.724 -9.613,3.355 -20.294,0.984 -27.633,-6.074 l -9.167,-8.816 -10.15,35.174 v 30.709 l 105.606,14.496 h 71.152 L 397.18,252.931 v -30.709 z"
       fill="#766d78"
       id="path5189" />
    <path
       d="m 316.75,225.706 -3.58,24.844 c -0.769,5.337 -2.617,10.286 -5.292,14.641 -6.81,11.075 -19.035,18.305 -32.746,18.305 h -38.264 c -13.711,0 -25.936,-7.23 -32.746,-18.305 -2.675,-4.355 -4.523,-9.304 -5.292,-14.641 l -3.58,-24.844 c -1.563,-10.886 1.797,-21.21 8.282,-28.889 3.575,-4.234 8.695,-6.852 14.197,-7.512 12.299,-1.475 25.112,-2.257 38.271,-2.257 13.16,0 25.972,0.782 38.271,2.257 5.502,0.66 10.621,3.279 14.197,7.512 6.485,7.679 9.845,18.003 8.282,28.889 z"
       fill="#a29aa5"
       id="path5191" />
    <path
       d="m 310.812,244.48 c -7.195,11.701 -20.111,19.34 -34.598,19.34 h -40.428 c -14.486,0 -27.403,-7.639 -34.598,-19.34 -2.316,-3.77 -4.032,-7.966 -5.028,-12.459 l 2.67,18.528 c 0.769,5.337 2.617,10.286 5.292,14.641 6.81,11.075 19.035,18.305 32.746,18.305 h 38.264 c 13.711,0 25.936,-7.23 32.746,-18.305 2.675,-4.355 4.523,-9.304 5.292,-14.641 l 2.67,-18.528 c -0.996,4.493 -2.713,8.69 -5.028,12.459 z"
       fill="#8c818f"
       id="path5193" />
    <circle
       cx="256"
       cy="233.065"
       fill="#bed9fd"
       r="16.052999"
       id="circle5195" />
    <path
       d="m 256,54.497 c -93.823,0 -169.881,76.058 -169.881,169.881 0,93.823 76.058,169.88 169.881,169.88 93.823,0 169.881,-76.058 169.881,-169.88 C 425.881,130.556 349.823,54.497 256,54.497 Z m 0,303.35 c -73.713,0 -133.469,-59.756 -133.469,-133.47 0,-73.714 59.756,-133.469 133.469,-133.469 73.713,0 133.469,59.756 133.469,133.47 0,73.714 -59.756,133.469 -133.469,133.469 z"
       fill="#8c818f"
       id="path5197" />
    <path
       d="m 256,370.576 c -89.841,0 -163.382,-69.743 -169.463,-158.039 -0.27,3.913 -0.418,7.86 -0.418,11.841 0,93.823 76.058,169.881 169.881,169.881 93.823,0 169.881,-76.059 169.881,-169.881 0,-3.982 -0.148,-7.928 -0.418,-11.841 C 419.382,300.833 345.841,370.576 256,370.576 Z"
       fill="#766d78"
       id="path5199" />
    <path
       d="M 67.977,255.03 41.183,200.881 c -11.1,-22.432 -2.493,-49.627 19.492,-61.588 l 4.253,-2.314 19.628,-18.145 c 9.262,-8.562 24.219,-5.3 29.074,6.342 l 18.425,43.071 c 0.425,0.993 1.81,1.056 2.322,0.104 l 10.538,-19.567 c 1.413,-2.627 4.684,-3.617 7.317,-2.215 l 6.725,3.582 c 11.161,5.945 16.072,19.329 11.404,31.082 L 107.513,339.493 49.55,319.588 Z"
       fill="#ffcdbe"
       id="path5201" />
    <path
       d="m 60.675,139.294 4.253,-2.314 1.293,-1.195 c -8.31,13.28 -9.71,30.404 -2.288,45.405 l 25.607,51.751 c 0.763,1.543 0.923,3.315 0.446,4.97 L 64.237,324.633 49.549,319.589 67.976,255.032 41.182,200.883 C 30.083,178.449 38.69,151.255 60.675,139.294 Z"
       fill="#ebae9d"
       id="path5203" />
    <path
       d="M 47.325,290.86 0.288,426.354 c -0.938,2.702 0.492,5.653 3.194,6.591 l 69.911,24.27 c 2.702,0.938 5.653,-0.492 6.591,-3.194 l 47.037,-135.494 c 0.983,-2.833 -0.516,-5.927 -3.349,-6.91 L 54.234,287.512 c -2.832,-0.984 -5.926,0.515 -6.909,3.348 z"
       fill="#df646e"
       id="path5205" />
    <path
       d="m 47.325,290.86 c 0.983,-2.833 4.077,-4.332 6.91,-3.349 l 22.495,7.809 c -2.638,-0.916 -5.574,0.638 -6.558,3.471 L 21.436,439.178 3.482,432.945 C 0.78,432.007 -0.65,429.056 0.288,426.354 Z"
       fill="#dc4955"
       id="path5207" />
    <path
       d="m 444.023,255.03 26.794,-54.149 c 11.1,-22.432 2.493,-49.627 -19.492,-61.588 l -4.253,-2.314 -19.628,-18.145 c -9.262,-8.562 -24.219,-5.3 -29.074,6.342 l -18.425,43.071 c -0.425,0.993 -1.81,1.056 -2.322,0.104 l -10.538,-19.567 c -1.413,-2.627 -4.684,-3.617 -7.317,-2.215 l -6.725,3.582 c -11.161,5.945 -16.072,19.329 -11.404,31.082 l 62.848,158.26 57.964,-19.907 z"
       fill="#ffcdbe"
       id="path5209" />
    <path
       d="m 451.325,139.294 -4.253,-2.314 -1.293,-1.195 c 8.31,13.28 9.71,30.404 2.288,45.405 l -25.607,51.751 c -0.763,1.543 -0.923,3.315 -0.446,4.97 l 25.749,86.722 14.688,-5.044 -18.427,-64.557 26.794,-54.149 c 11.099,-22.434 2.492,-49.628 -19.493,-61.589 z"
       fill="#ebae9d"
       id="path5211" />
    <path
       d="m 464.675,290.86 47.037,135.494 c 0.938,2.702 -0.492,5.653 -3.194,6.591 l -69.911,24.27 c -2.702,0.938 -5.653,-0.492 -6.591,-3.194 L 384.979,318.527 c -0.983,-2.833 0.516,-5.927 3.349,-6.91 l 69.438,-24.105 c 2.832,-0.984 5.926,0.515 6.909,3.348 z"
       fill="#df646e"
       id="path5213" />
    <path
       d="m 464.675,290.86 c -0.983,-2.833 -4.077,-4.332 -6.91,-3.349 l -22.495,7.809 c 2.638,-0.916 5.574,0.638 6.558,3.471 l 48.735,140.387 17.954,-6.233 c 2.702,-0.938 4.132,-3.889 3.194,-6.591 z"
       fill="#dc4955"
       id="path5215" />
  </g>
</svg>
