<?xml version="1.0" encoding="UTF-8" standalone="no"?>
<svg
   xmlns:dc="http://purl.org/dc/elements/1.1/"
   xmlns:cc="http://creativecommons.org/ns#"
   xmlns:rdf="http://www.w3.org/1999/02/22-rdf-syntax-ns#"
   xmlns:svg="http://www.w3.org/2000/svg"
   xmlns="http://www.w3.org/2000/svg"
   width="500"
   height="250"
   viewBox="0 0 132.29166 66.145835"
   version="1.1"
   id="svg8">
  <defs
     id="defs2">
    <rect
       id="rect10750"
       height="32.448191"
       width="43.55658"
       y="16.95491"
       x="54.080318" />
    <rect
       id="rect10116"
       height="31.278887"
       width="27.917137"
       y="16.808747"
       x="101.14481" />
    <rect
       id="rect9439"
       height="25.14004"
       width="57.003578"
       y="26.309344"
       x="5.2618688" />
    <rect
       id="rect8476"
       height="26.60167"
       width="35.663777"
       y="22.216779"
       x="51.449384" />
    <rect
       id="rect8111"
       height="60.358072"
       width="46.715494"
       y="-7.4414062"
       x="111.20768" />
    <rect
       id="rect5692"
       height="31.419271"
       width="28.318685"
       y="19.223633"
       x="111.62109" />
    <rect
       id="rect4959"
       height="36.793619"
       width="38.447265"
       y="12.815755"
       x="87.436523" />
    <rect
       id="rect3591"
       height="32.246093"
       width="36.586914"
       y="17.569987"
       x="2.6871745" />
    <rect
       x="33.261906"
       y="1.889881"
       width="32.127975"
       height="25.607887"
       id="rect952" />
    <rect
       x="23.718006"
       y="3.0238094"
       width="21.45015"
       height="20.127232"
       id="rect946" />
    <rect
       id="rect952-5"
       height="25.607887"
       width="32.127975"
       y="1.889881"
       x="33.261906" />
    <rect
       id="rect1246"
       height="25.607887"
       width="32.127975"
       y="1.889881"
       x="33.261906" />
    <rect
       id="rect2592"
       height="20.127232"
       width="21.45015"
       y="3.0238094"
       x="23.718006" />
    <rect
       x="23.718006"
       y="3.0238094"
       width="21.45015"
       height="20.127232"
       id="rect2600" />
    <rect
       id="rect2608"
       height="20.127232"
       width="21.45015"
       y="3.0238094"
       x="23.718006" />
    <rect
       x="2.6871746"
       y="17.569986"
       width="36.586914"
       height="32.246094"
       id="rect3591-5" />
    <rect
       x="2.6871746"
       y="17.569986"
       width="36.586914"
       height="32.246094"
       id="rect4205" />
    <rect
       x="111.20768"
       y="-7.4414062"
       width="46.715494"
       height="60.358072"
       id="rect8139" />
    <rect
       x="51.449384"
       y="22.216779"
       width="35.663777"
       height="26.60167"
       id="rect8484" />
  </defs>
  <metadata
     id="metadata5">
    <rdf:RDF>
      <cc:Work
         rdf:about="">
        <dc:format>image/svg+xml</dc:format>
        <dc:type
           rdf:resource="http://purl.org/dc/dcmitype/StillImage" />
        <dc:title></dc:title>
      </cc:Work>
    </rdf:RDF>
  </metadata>
  <g
     transform="matrix(0.07579876,0,0,0.07579876,6.9479014,13.490875)"
     id="g10594">
    <path
       d="m 230.644,73.204 c 0.822,4.054 -1.814,7.994 -5.896,8.815 -4.054,0.794 -7.994,-1.842 -8.816,-5.896 0,-0.028 -3.855,-16.667 -20.069,-14.117 -12.728,2.041 -21.94,2.353 -29.877,0.17 -8.476,-2.296 -14.882,-7.143 -21.543,-15.307 -2.608,-3.203 -2.126,-7.909 1.077,-10.517 3.203,-2.608 7.909,-2.126 10.517,1.077 4.649,5.698 8.788,8.958 13.861,10.347 5.613,1.53 12.955,1.163 23.613,-0.511 30.585,-4.846 37.105,25.854 37.133,25.939 z M 115.586,331.638 c 3.685,-1.843 8.164,-0.369 10.035,3.345 1.842,3.685 0.34,8.165 -3.345,10.006 l -17.291,8.646 9.779,69.392 c 0.284,2.098 -0.312,4.195 -1.644,5.812 l -37.871,45.779 c -2.636,3.175 -7.37,3.628 -10.545,0.992 -3.175,-2.636 -3.628,-7.37 -0.992,-10.545 L 99.485,421.836 89.422,350.375 c -0.425,-3.089 1.134,-6.236 4.082,-7.682 z M 140.474,180.24 c 2.154,3.543 1.02,8.135 -2.495,10.29 -3.515,2.155 -8.135,1.049 -10.29,-2.495 L 104.02,149.116 c -1.672,-2.778 -1.361,-6.208 0.567,-8.589 l 9.779,-13.521 -31.945,-32.855 c -2.863,-2.976 -2.806,-7.71 0.17,-10.573 2.948,-2.891 7.682,-2.834 10.573,0.142 l 36.284,37.36 c 2.495,2.523 2.863,6.576 0.708,9.553 l -10.771,14.939 z m -23.046,40.025 c 4.025,0.935 6.548,4.96 5.613,8.985 -0.964,4.025 -4.989,6.548 -9.014,5.613 L 94.411,230.271 62.55,279.509 c -1.219,1.871 -3.203,3.118 -5.443,3.373 l -48.812,5.471 c -4.11,0.454 -7.795,-2.522 -8.249,-6.633 -0.454,-4.11 2.494,-7.795 6.604,-8.249 l 45.298,-5.074 32.513,-50.258 c 1.587,-2.863 4.904,-4.422 8.249,-3.657 z m 272.211,124.724 c -3.685,-1.842 -5.187,-6.321 -3.345,-10.006 1.843,-3.713 6.35,-5.188 10.035,-3.345 l 22.082,11.055 c 2.863,1.418 4.507,4.507 4.082,7.682 l -10.063,71.461 35.773,43.229 c 2.636,3.175 2.183,7.909 -0.992,10.545 -3.203,2.636 -7.909,2.183 -10.545,-0.992 l -37.871,-45.779 c -1.304,-1.56 -1.956,-3.629 -1.644,-5.812 l 9.779,-69.392 z m -5.442,-156.954 c -2.126,3.543 -6.747,4.649 -10.261,2.495 -3.543,-2.154 -4.649,-6.747 -2.495,-10.29 l 21.09,-34.668 -10.771,-14.939 c -2.098,-2.92 -1.815,-6.973 0.708,-9.553 l 36.283,-37.36 c 2.892,-2.977 7.625,-3.033 10.573,-0.142 2.977,2.863 3.033,7.597 0.142,10.573 l -31.918,32.854 9.78,13.521 c 1.928,2.381 2.239,5.811 0.567,8.589 z m 13.691,46.828 c -4.054,0.936 -8.079,-1.587 -9.014,-5.613 -0.935,-4.025 1.587,-8.05 5.613,-8.985 l 24.718,-5.783 c 3.316,-0.765 6.662,0.794 8.249,3.657 l 32.513,50.258 45.354,5.074 c 4.11,0.454 7.086,4.167 6.633,8.277 -0.453,4.11 -4.167,7.058 -8.277,6.604 l -48.784,-5.471 c -2.24,-0.255 -4.28,-1.446 -5.528,-3.373 L 417.504,230.27 Z M 295.983,76.123 c -0.822,4.054 -4.762,6.69 -8.816,5.896 -4.082,-0.822 -6.718,-4.762 -5.896,-8.815 0,-0.085 6.548,-30.784 37.105,-25.937 10.658,1.673 18.028,2.041 23.641,0.511 5.074,-1.389 9.213,-4.649 13.862,-10.347 2.608,-3.203 7.313,-3.685 10.516,-1.077 3.204,2.608 3.686,7.313 1.078,10.517 -6.69,8.164 -13.068,13.011 -21.543,15.307 -7.937,2.183 -17.149,1.871 -29.877,-0.17 -16.215,-2.552 -20.07,14.087 -20.07,14.115 z"
       fill="#463d43"
       id="path10570" />
    <g
       clip-rule="evenodd"
       fill-rule="evenodd"
       id="g10592">
      <path
         d="m 255.958,446.158 c -81.27,-0.879 -146.892,-75.912 -146.892,-168.321 0,-38.494 11.226,-74.041 30.501,-102.274 14.372,-21.09 27.014,-19.786 44.901,-19.786 h 71.49 71.49 c 17.887,0 30.529,-1.304 44.901,19.786 19.275,28.233 30.501,63.78 30.501,102.274 -0.001,92.409 -65.652,167.442 -146.892,168.321 z"
         fill="#fc636e"
         id="path10572" />
      <path
         d="m 255.958,446.158 c -4.224,-0.057 -8.391,-0.312 -12.501,-0.737 75.374,-7.965 134.391,-79.965 134.391,-167.585 0,-38.494 -11.225,-74.041 -30.5,-102.274 -12.019,-17.66 -22.848,-19.616 -36.539,-19.786 h 16.639 c 17.887,0 30.529,-1.304 44.901,19.786 19.275,28.233 30.501,63.78 30.501,102.274 -0.001,92.41 -65.652,167.443 -146.892,168.322 z"
         fill="#da4a54"
         id="path10574" />
      <path
         d="m 255.958,446.158 c -2.523,-0.028 -5.018,-0.142 -7.512,-0.312 V 159.604 h 7.512 7.483 v 286.243 c -2.466,0.169 -4.96,0.282 -7.483,0.311 z"
         fill="#d94650"
         id="path10576" />
      <path
         d="m 305.706,87.49 c 29.934,13.55 50.031,39.544 50.031,72.114 H 156.178 c 0,-32.57 20.098,-58.564 50.032,-72.114 4.706,-12.5 25.2,-21.883 49.748,-21.883 24.548,0 45.014,9.382 49.748,21.883 z"
         fill="#463d43"
         id="path10578" />
      <path
         d="m 255.958,256.718 c 17.915,0 32.541,-14.627 32.541,-32.541 0,-17.943 -14.626,-32.57 -32.541,-32.57 -17.943,0 -32.542,14.626 -32.542,32.57 0,17.914 14.598,32.541 32.542,32.541 z"
         fill="#463d43"
         id="path10580" />
      <path
         d="m 339.013,315.027 c 17.915,0 32.542,-14.626 32.542,-32.541 0,-17.943 -14.626,-32.542 -32.542,-32.542 -17.943,0 -32.542,14.598 -32.542,32.542 0,17.914 14.598,32.541 32.542,32.541 z"
         fill="#463d43"
         id="path10582" />
      <path
         d="m 172.902,315.027 c 17.915,0 32.542,-14.626 32.542,-32.541 0,-17.943 -14.627,-32.542 -32.542,-32.542 -17.915,0 -32.541,14.598 -32.541,32.542 0,17.914 14.626,32.541 32.541,32.541 z"
         fill="#463d43"
         id="path10584" />
      <path
         d="m 330.934,351.055 c -7.824,-7.852 -22.961,-5.471 -33.761,5.329 -10.8,10.8 -13.181,25.938 -5.329,33.761 7.823,7.852 22.932,5.442 33.732,-5.357 10.801,-10.8 13.21,-25.909 5.358,-33.733 z"
         fill="#463d43"
         id="path10586" />
      <path
         d="m 180.981,351.055 c 7.824,-7.852 22.933,-5.471 33.732,5.329 10.8,10.8 13.21,25.938 5.357,33.761 -7.824,7.852 -22.96,5.442 -33.761,-5.357 -10.799,-10.8 -13.179,-25.909 -5.328,-33.733 z"
         fill="#463d43"
         id="path10588" />
      <path
         d="m 280.704,87.49 c 28.743,13.011 48.415,37.503 49.946,68.287 0.057,1.247 0.085,2.551 0.085,3.827 h 25.001 c 0,-32.57 -20.098,-58.564 -50.031,-72.114 -1.587,-4.224 -4.989,-8.078 -9.723,-11.367 -3.771,-2.579 -8.391,-4.819 -13.635,-6.52 -7.71,-2.523 -16.725,-3.997 -26.391,-3.997 -4.309,0 -8.504,0.312 -12.501,0.85 18.767,2.552 33.365,10.744 37.249,21.034 z"
         fill="#40363d"
         id="path10590" />
    </g>
  </g>
  <g
     transform="matrix(0.06568253,0,0,0.06568253,93.338317,14.610357)"
     id="g10722">
    <g
       id="g10692">
      <path
         d="m 410.672,400 h -62.008 c -7.588,0 -13.738,-6.151 -13.738,-13.739 0,-7.588 6.151,-13.738 13.738,-13.738 h 62.008 c 40.722,0 73.851,-33.13 73.851,-73.851 0,-12.587 -10.24,-22.827 -22.827,-22.827 H 348.664 c -7.588,0 -13.738,-6.151 -13.738,-13.739 0,-7.588 6.151,-13.739 13.738,-13.739 h 113.032 c 27.738,0 50.304,22.566 50.304,50.304 C 512,354.544 466.544,400 410.672,400 Z"
         fill="#ebebeb"
         id="path10690" />
    </g>
    <path
       d="M 461.696,248.367 H 421.31 c 19.714,0 36.806,11.405 45.05,27.958 10.357,2.159 18.163,11.358 18.163,22.346 0,26.257 -13.785,49.34 -34.486,62.439 C 431.472,384.772 402.624,400 370.286,400 h 40.386 C 466.544,400 512,354.544 512,298.671 c 0,-27.737 -22.566,-50.304 -50.304,-50.304 z"
       fill="#e2e2e2"
       id="path10694" />
    <path
       d="m 242.901,453.773 c -108.036,0 -195.616,-87.58 -195.616,-195.615 v -46.235 c 0,-6.547 5.308,-11.855 11.855,-11.855 h 367.521 c 6.547,0 11.855,5.308 11.855,11.855 v 46.235 c 0,108.035 -87.58,195.615 -195.615,195.615 z"
       fill="#ebebeb"
       id="path10696" />
    <path
       d="M 452.958,494.826 H 32.843 C 14.704,494.826 0,480.122 0,461.984 c 0,-4.535 3.676,-8.211 8.211,-8.211 H 477.59 c 4.535,0 8.211,3.676 8.211,8.211 0,18.138 -14.705,32.842 -32.843,32.842 z"
       fill="#bfbfbf"
       id="path10698" />
    <g
       id="g10702">
      <path
         d="m 232.724,171.859 c -4.215,0 -7.633,-3.417 -7.633,-7.633 0,-26.29 20.353,-27.555 20.353,-46.469 0,-18.961 -20.353,-20.156 -20.353,-46.476 0,-26.292 20.353,-27.558 20.353,-46.476 0,-4.215 3.417,-7.633 7.633,-7.633 4.215,0 7.632,3.417 7.632,7.633 0,26.274 -20.353,27.578 -20.353,46.476 0,18.958 20.353,20.159 20.353,46.476 0,26.29 -20.353,27.553 -20.353,46.469 0,4.216 -3.417,7.633 -7.632,7.633 z"
         fill="#b2caec"
         id="path10700" />
    </g>
    <g
       id="g10706">
      <path
         d="m 290.418,171.859 c -4.215,0 -7.633,-3.417 -7.633,-7.633 0,-26.29 20.353,-27.555 20.353,-46.469 0,-18.961 -20.353,-20.156 -20.353,-46.476 0,-26.292 20.353,-27.558 20.353,-46.476 0,-4.215 3.417,-7.633 7.633,-7.633 4.216,0 7.633,3.417 7.633,7.633 0,26.274 -20.353,27.578 -20.353,46.476 0,18.958 20.353,20.159 20.353,46.476 0,26.29 -20.353,27.553 -20.353,46.469 0,4.216 -3.417,7.633 -7.633,7.633 z"
         fill="#b2caec"
         id="path10704" />
    </g>
    <g
       id="g10710">
      <path
         d="m 175.029,171.859 c -4.215,0 -7.633,-3.417 -7.633,-7.633 0,-26.29 20.353,-27.555 20.353,-46.469 0,-18.961 -20.353,-20.156 -20.353,-46.476 0,-26.292 20.353,-27.558 20.353,-46.476 0,-4.215 3.417,-7.633 7.633,-7.633 4.216,0 7.633,3.417 7.633,7.633 0,26.274 -20.353,27.578 -20.353,46.476 0,18.958 20.353,20.159 20.353,46.476 0,26.29 -20.353,27.553 -20.353,46.469 0,4.216 -3.417,7.633 -7.633,7.633 z"
         fill="#b2caec"
         id="path10708" />
    </g>
    <path
       d="m 150.79,252.531 -29.004,29.277 c -2.077,2.096 -3.242,4.928 -3.242,7.878 v 64.595 c 0,6.182 5.012,11.194 11.194,11.194 h 58.007 c 6.182,0 11.194,-5.012 11.194,-11.194 v -64.595 c 0,-2.951 -1.165,-5.782 -3.242,-7.878 l -29.004,-29.277 c -4.378,-4.422 -11.523,-4.422 -15.903,0 z"
       fill="#57be92"
       id="path10712" />
    <g
       id="g10716">
      <path
         d="m 158.743,292.89 c -4.215,0 -7.633,-3.417 -7.633,-7.633 v -85.191 c 0,-4.215 3.417,-7.633 7.633,-7.633 4.215,0 7.632,3.417 7.632,7.633 v 85.191 c 0,4.216 -3.417,7.633 -7.632,7.633 z"
         fill="#444444"
         id="path10714" />
    </g>
    <path
       d="m 426.661,200.067 h -40.386 c 6.547,0 11.855,5.307 11.855,11.855 v 46.235 c 0,101.217 -76.875,184.477 -175.423,194.583 6.639,0.681 13.375,1.032 20.193,1.032 108.035,0 195.615,-87.58 195.615,-195.615 v -46.235 c 0.001,-6.548 -5.307,-11.855 -11.854,-11.855 z"
       fill="#e2e2e2"
       id="path10718" />
    <path
       d="m 477.59,453.773 h -40.386 c 4.535,0 8.211,3.676 8.211,8.211 0,18.139 -14.704,32.843 -32.843,32.843 h 40.386 c 18.139,0 32.843,-14.704 32.843,-32.843 0,-4.535 -3.676,-8.211 -8.211,-8.211 z"
       fill="#acacac"
       id="path10720" />
  </g>
  <text
     transform="matrix(2.7475898,0,0,2.7475898,-93.264903,-30.134056)"
     style="font-style:normal;font-variant:normal;font-weight:bold;font-stretch:normal;font-size:10.5833px;line-height:1.25;font-family:sans-serif;-inkscape-font-specification:'sans-serif Bold';white-space:pre;shape-inside:url(#rect10750);fill:#000000;fill-opacity:1;stroke:none;"
     id="text10748"
     xml:space="preserve"><tspan
       x="54.080078"
       y="26.610543"><tspan
         style="font-style:normal;font-variant:normal;font-weight:bold;font-stretch:normal;font-family:sans-serif;-inkscape-font-specification:'sans-serif Bold'">A</tspan></tspan></text>
</svg>
