<?xml version="1.0" encoding="UTF-8" standalone="no"?>
<svg
   xmlns:dc="http://purl.org/dc/elements/1.1/"
   xmlns:cc="http://creativecommons.org/ns#"
   xmlns:rdf="http://www.w3.org/1999/02/22-rdf-syntax-ns#"
   xmlns:svg="http://www.w3.org/2000/svg"
   xmlns="http://www.w3.org/2000/svg"
   width="500"
   height="250"
   viewBox="0 0 132.29166 66.145835"
   version="1.1"
   id="svg8">
  <defs
     id="defs2">
    <rect
       id="rect16657"
       height="39.6875"
       width="52.916666"
       y="16.536458"
       x="16.123047" />
    <rect
       id="rect14952"
       height="41.217972"
       width="28.355626"
       y="11.693042"
       x="56.1266" />
    <rect
       id="rect12397"
       height="46.715494"
       width="47.955729"
       y="8.6816405"
       x="71.933593" />
    <rect
       id="rect10750"
       height="32.448191"
       width="43.55658"
       y="16.95491"
       x="54.080318" />
    <rect
       id="rect10116"
       height="31.278887"
       width="27.917137"
       y="16.808747"
       x="101.14481" />
    <rect
       id="rect9439"
       height="25.14004"
       width="57.003578"
       y="26.309344"
       x="5.2618688" />
    <rect
       id="rect8476"
       height="26.60167"
       width="35.663777"
       y="22.216779"
       x="51.449384" />
    <rect
       id="rect8111"
       height="60.358072"
       width="46.715494"
       y="-7.4414062"
       x="111.20768" />
    <rect
       id="rect5692"
       height="31.419271"
       width="28.318685"
       y="19.223633"
       x="111.62109" />
    <rect
       id="rect4959"
       height="36.793619"
       width="38.447265"
       y="12.815755"
       x="87.436523" />
    <rect
       id="rect3591"
       height="32.246093"
       width="36.586914"
       y="17.569987"
       x="2.6871745" />
    <rect
       x="33.261906"
       y="1.889881"
       width="32.127975"
       height="25.607887"
       id="rect952" />
    <rect
       x="23.718006"
       y="3.0238094"
       width="21.45015"
       height="20.127232"
       id="rect946" />
    <rect
       id="rect952-5"
       height="25.607887"
       width="32.127975"
       y="1.889881"
       x="33.261906" />
    <rect
       id="rect1246"
       height="25.607887"
       width="32.127975"
       y="1.889881"
       x="33.261906" />
    <rect
       id="rect2592"
       height="20.127232"
       width="21.45015"
       y="3.0238094"
       x="23.718006" />
    <rect
       x="23.718006"
       y="3.0238094"
       width="21.45015"
       height="20.127232"
       id="rect2600" />
    <rect
       id="rect2608"
       height="20.127232"
       width="21.45015"
       y="3.0238094"
       x="23.718006" />
    <rect
       x="2.6871746"
       y="17.569986"
       width="36.586914"
       height="32.246094"
       id="rect3591-5" />
    <rect
       x="2.6871746"
       y="17.569986"
       width="36.586914"
       height="32.246094"
       id="rect4205" />
    <rect
       x="111.20768"
       y="-7.4414062"
       width="46.715494"
       height="60.358072"
       id="rect8139" />
    <rect
       x="51.449384"
       y="22.216779"
       width="35.663777"
       height="26.60167"
       id="rect8484" />
    <rect
       x="16.123047"
       y="16.536458"
       width="52.916666"
       height="39.6875"
       id="rect16854" />
    <rect
       x="16.123047"
       y="16.536458"
       width="52.916666"
       height="39.6875"
       id="rect16860" />
  </defs>
  <metadata
     id="metadata5">
    <rdf:RDF>
      <cc:Work
         rdf:about="">
        <dc:format>image/svg+xml</dc:format>
        <dc:type
           rdf:resource="http://purl.org/dc/dcmitype/StillImage" />
        <dc:title></dc:title>
      </cc:Work>
    </rdf:RDF>
  </metadata>
  <g
     transform="matrix(0.26458333,0,0,0.26458333,71.999739,33.965621)"
     id="g14585">
</g>
  <g
     transform="matrix(0.26458333,0,0,0.26458333,71.999739,33.965621)"
     id="g14587">
</g>
  <g
     transform="matrix(0.26458333,0,0,0.26458333,71.999739,33.965621)"
     id="g14589">
</g>
  <g
     transform="matrix(0.26458333,0,0,0.26458333,71.999739,33.965621)"
     id="g14591">
</g>
  <g
     transform="matrix(0.26458333,0,0,0.26458333,71.999739,33.965621)"
     id="g14593">
</g>
  <g
     transform="matrix(0.26458333,0,0,0.26458333,71.999739,33.965621)"
     id="g14595">
</g>
  <g
     transform="matrix(0.26458333,0,0,0.26458333,71.999739,33.965621)"
     id="g14597">
</g>
  <g
     transform="matrix(0.26458333,0,0,0.26458333,71.999739,33.965621)"
     id="g14599">
</g>
  <g
     transform="matrix(0.26458333,0,0,0.26458333,71.999739,33.965621)"
     id="g14601">
</g>
  <g
     transform="matrix(0.26458333,0,0,0.26458333,71.999739,33.965621)"
     id="g14603">
</g>
  <g
     transform="matrix(0.26458333,0,0,0.26458333,71.999739,33.965621)"
     id="g14605">
</g>
  <g
     transform="matrix(0.26458333,0,0,0.26458333,71.999739,33.965621)"
     id="g14607">
</g>
  <g
     transform="matrix(0.26458333,0,0,0.26458333,71.999739,33.965621)"
     id="g14609">
</g>
  <g
     transform="matrix(0.26458333,0,0,0.26458333,71.999739,33.965621)"
     id="g14611">
</g>
  <g
     transform="matrix(0.26458333,0,0,0.26458333,71.999739,33.965621)"
     id="g14613">
</g>
  <text
     transform="matrix(2.4740621,0,0,2.4740621,19.914185,-22.740418)"
     style="font-style:normal;font-variant:normal;font-weight:bold;font-stretch:normal;font-size:10.5833px;line-height:1.25;font-family:sans-serif;-inkscape-font-specification:'sans-serif Bold';white-space:pre;shape-inside:url(#rect16657);fill:#000000;fill-opacity:1;stroke:none;"
     id="text16655"
     xml:space="preserve"><tspan
       x="16.123047"
       y="26.192574"><tspan
         style="font-style:normal;font-variant:normal;font-weight:bold;font-stretch:normal;font-family:sans-serif;-inkscape-font-specification:'sans-serif Bold'">R</tspan></tspan></text>
  <g
     transform="matrix(0.06952971,0,0,0.06952971,6.5242094,15.901969)"
     id="g16848">
    <path
       d="m 52.863281,193.06641 c 0,0 -17.128906,-13.86719 -17.234375,-13.94922 0.984375,-31.08985 17.984375,-53.47656 18.191406,-53.7461 2.574219,-3.3125 1.980469,-8.08593 -1.332031,-10.66796 -3.3125,-2.58204 -8.09375,-1.9961 -10.683593,1.32031 -0.855469,1.09765 -20.320313,26.47656 -21.390626,62.78125 l -17.136718,11.8789 c -3.457032,2.39453 -4.316406,7.13672 -1.921875,10.58985 1.398437,2.01953 5.472656,5.64843 10.59375,1.92187 l 15.757812,-10.92578 c 3.902344,3.13672 10.175781,7.81641 15.539063,12.59375 4.304687,3.83594 9.113281,0.86328 10.707031,-1.08984 2.65625,-3.25782 2.167969,-8.05078 -1.089844,-10.70703 z m 0,0"
       fill="#ff929f"
       id="path16783" />
    <path
       d="m 266.90625,282.97266 c 0,0 72.26172,-47.22657 63.40625,-153.48438 C 322.08203,30.730469 183.26953,-57.632812 44.375,49.058594 19.546875,68.132812 15.746094,104.10547 21.046875,128.44531 c 4.617187,21.20703 30.296875,29.7461 46.636719,15.46485 37.480466,-32.76172 97.664066,-72.230472 145.968746,-42.46485 90.57032,55.8125 -61.91406,168.24219 -61.91406,168.24219 z m 0,0"
       fill="#7fb762"
       id="path16785" />
    <path
       d="m 151.73828,269.6875 115.17188,13.28516 c 0,0 47.9375,-31.33594 60.9375,-100.37891 -24.64454,5.80469 -59.6836,10.80078 -99.51172,6.80859 -25.45703,42.57813 -76.59766,80.28516 -76.59766,80.28516 z m 0,0"
       fill="#6b9e4c"
       id="path16787" />
    <path
       d="m 89.300781,300.21484 c 0,0 -44.394531,-41.92578 0,-83.85546 34.812499,-32.87891 138.113279,29.59765 225.667969,17.26562 87.55469,-12.33203 113.23828,48.67578 75.22266,91.25391 -3.69922,1.23437 -300.890629,-24.66407 -300.890629,-24.66407 z m 0,0"
       fill="#8dc971"
       id="path16789" />
    <path
       d="m 151.73828,249.04297 c 0.0352,-31.16406 77.91016,-20.81641 77.92578,-20.81641 -60.84375,-12.28906 -116.58203,-34.32422 -140.363279,-11.86328 -44.394531,41.92578 0,83.85547 0,83.85547 0,0 112.749999,9.82422 200.222659,17.08203 -64.84766,-34.32812 -137.81641,-41.08203 -137.78516,-68.25781 z m 0,0"
       fill="#7fb762"
       id="path16791" />
    <path
       d="m 82.277344,387.67578 c 0,0 -65.785156,-7.76562 -42.496094,-73.65625 24.535156,-69.40625 133.48047,-21.46094 225.07812,-20.17578 91.60157,1.28906 193.58985,-36.82422 173.75782,79.02734 -4.72266,-3.13672 -356.339846,14.80469 -356.339846,14.80469 z m 0,0"
       fill="#9ad880"
       id="path16793" />
    <path
       d="m 149.94141,332.09766 c -10.09766,-35.35157 29.58203,-47.71875 29.60156,-47.72657 -64.61719,-10.10156 -122.671876,-18.70312 -139.76172,29.64844 -23.292969,65.89063 42.496094,73.65625 42.496094,73.65625 0,0 60.828126,-3.10156 132.218746,-6.50391 -30.21484,-26.01171 -57.11328,-23.01953 -64.55468,-49.07421 z m 0,0"
       fill="#8dc971"
       id="path16795" />
    <path
       d="m 86.058594,340.40234 c 25.085936,0 45.417966,-20.33203 45.417966,-45.41797 0,-6.19531 -1.24609,-12.10937 -3.49609,-17.49218 -39.410158,-3.375 -71.464845,0.96093 -85.546876,30.13281 5.480468,18.92578 22.933594,32.77734 43.625,32.77734 z m 0,0"
       fill="#ffcd00"
       id="path16797" />
    <path
       d="m 265.35937,348.69922 c 0,17.07422 -13.83593,30.91015 -30.90625,30.91015 -17.07421,0 -30.91015,-13.83593 -30.91015,-30.91015 0,-17.07031 13.83594,-30.90625 30.91015,-30.90625 17.07032,0 30.90625,13.83594 30.90625,30.90625 z m 0,0"
       fill="#ffde55"
       id="path16799" />
    <path
       d="m 485.67578,290.01562 c -10.58594,18.58594 -23.39062,32.73047 -36.57812,43.49219 -27.28516,22.27344 -61.69922,33.94922 -96.92188,33.94922 H 55.265625 c -26.316406,0 -47.652344,21.33594 -47.652344,47.65625 0,26.32031 21.335938,47.65625 47.652344,47.65625 H 369.58203 c 127.91016,0 144.76953,-100.67578 142.17969,-166.26953 -0.55078,-14.05078 -19.125,-18.70313 -26.08594,-6.48438 z m 0,0"
       fill="#b2e59c"
       id="path16801" />
    <path
       d="m 97.3125,415.11328 c 0,-26.32031 21.33594,-47.65625 47.65625,-47.65625 H 55.265625 c -26.316406,0 -47.652344,21.33594 -47.652344,47.65625 0,26.32031 21.335938,47.65625 47.652344,47.65625 h 89.703125 c -26.32031,0 -47.65625,-21.33594 -47.65625,-47.65625 z m 0,0"
       fill="#9ad880"
       id="path16803" />
    <path
       d="m 81.21875,79.171875 c -11.070312,3.359375 -17.875,13.230469 -15.199219,22.046875 2.675781,8.81641 13.820313,13.23828 24.890625,9.875 11.070314,-3.35937 17.878904,-13.230469 15.199224,-22.046875 -2.67579,-8.816406 -13.820318,-13.238281 -24.89063,-9.875 z m 0,0"
       fill="#ffffff"
       id="path16805" />
    <path
       d="m 69.285156,91.066406 c -4.023437,1.222656 -8.273437,-1.050781 -9.496094,-5.070312 L 56.121094,73.90625 c -1.222656,-4.023438 1.046875,-8.273438 5.070312,-9.496094 4.023438,-1.222656 8.273438,1.050782 9.496094,5.070313 l 3.667969,12.09375 c 1.222656,4.019531 -1.046875,8.273437 -5.070313,9.492187 z m 0,0"
       fill="#57565c"
       id="path16807" />
    <path
       d="m 198.67578,418.42578 c -25.48047,0 -46.41016,19.46875 -48.73437,44.34375 h 97.46875 c -2.32813,-24.875 -23.25391,-44.34375 -48.73438,-44.34375 z m 0,0"
       fill="#ffe98d"
       id="path16809" />
    <path
       d="m 349.50781,430.21094 c 23.53125,0 42.60938,-19.07813 42.60938,-42.60938 0,-8.72265 -2.625,-16.82812 -7.1211,-23.58203 -10.72656,2.28125 -21.73437,3.4375 -32.82031,3.4375 h -40.22266 c -3.22656,6 -5.05859,12.85547 -5.05859,20.14453 0,23.53125 19.07813,42.60938 42.61328,42.60938 z m 0,0"
       fill="#ffe98d"
       id="path16811" />
    <path
       d="m 325.44922,276.51953 c 22.7539,0 41.36719,-17.67187 42.91406,-40.03125 -14.03125,-4.48828 -31.83203,-5.89844 -53.39453,-2.85937 -10.65234,1.5 -21.53906,1.89062 -32.50781,1.48437 0.85156,23.01172 19.76562,41.40625 42.98828,41.40625 z m 0,0"
       fill="#ffcd00"
       id="path16813" />
    <g
       fill="#ffb000"
       id="g16819">
      <path
         d="m 163.82812,36.5 c 10.81641,19.246094 35.1875,26.078125 54.4336,15.261719 14.22656,-7.996094 21.66015,-23.40625 20.20312,-38.675781 C 215.65234,3.648438 189.73437,-1.023438 162.03516,0.941406 157.21484,12.023438 157.45312,25.15625 163.82812,36.5 Z m 0,0"
         id="path16815" />
      <path
         d="m 269.77734,159.31641 c 11.11719,-13.54688 9.14453,-33.53907 -4.40234,-44.65625 -10.96484,-9 -26.15234,-9.42188 -37.4375,-2.07422 16.71094,16.89062 17.36719,37.16406 9.85547,57.44922 11.45703,2.76171 24.0039,-0.9961 31.98437,-10.71875 z m 0,0"
         id="path16817" />
    </g>
  </g>
  <text
     xml:space="preserve"
     id="text16858"
     style="font-style:normal;font-variant:normal;font-weight:bold;font-stretch:normal;font-size:10.5833px;line-height:1.25;font-family:sans-serif;-inkscape-font-specification:'sans-serif Bold';white-space:pre;shape-inside:url(#rect16860);fill:#000000;fill-opacity:1;stroke:none;"
     transform="matrix(2.4740621,0,0,2.4740621,60.255178,-22.740418)"><tspan
       x="16.123047"
       y="26.192574"><tspan
         style="font-style:normal;font-variant:normal;font-weight:bold;font-stretch:normal;font-family:sans-serif;-inkscape-font-specification:'sans-serif Bold'">S</tspan></tspan></text>
</svg>
