<?xml version="1.0" encoding="UTF-8" standalone="no"?>
<svg
   xmlns:dc="http://purl.org/dc/elements/1.1/"
   xmlns:cc="http://creativecommons.org/ns#"
   xmlns:rdf="http://www.w3.org/1999/02/22-rdf-syntax-ns#"
   xmlns:svg="http://www.w3.org/2000/svg"
   xmlns="http://www.w3.org/2000/svg"
   width="500"
   height="250"
   viewBox="0 0 132.29166 66.145835"
   version="1.1"
   id="svg8">
  <defs
     id="defs2">
    <rect
       id="rect12397"
       height="46.715494"
       width="47.955729"
       y="8.6816405"
       x="71.933593" />
    <rect
       id="rect10750"
       height="32.448191"
       width="43.55658"
       y="16.95491"
       x="54.080318" />
    <rect
       id="rect10116"
       height="31.278887"
       width="27.917137"
       y="16.808747"
       x="101.14481" />
    <rect
       id="rect9439"
       height="25.14004"
       width="57.003578"
       y="26.309344"
       x="5.2618688" />
    <rect
       id="rect8476"
       height="26.60167"
       width="35.663777"
       y="22.216779"
       x="51.449384" />
    <rect
       id="rect8111"
       height="60.358072"
       width="46.715494"
       y="-7.4414062"
       x="111.20768" />
    <rect
       id="rect5692"
       height="31.419271"
       width="28.318685"
       y="19.223633"
       x="111.62109" />
    <rect
       id="rect4959"
       height="36.793619"
       width="38.447265"
       y="12.815755"
       x="87.436523" />
    <rect
       id="rect3591"
       height="32.246093"
       width="36.586914"
       y="17.569987"
       x="2.6871745" />
    <rect
       x="33.261906"
       y="1.889881"
       width="32.127975"
       height="25.607887"
       id="rect952" />
    <rect
       x="23.718006"
       y="3.0238094"
       width="21.45015"
       height="20.127232"
       id="rect946" />
    <rect
       id="rect952-5"
       height="25.607887"
       width="32.127975"
       y="1.889881"
       x="33.261906" />
    <rect
       id="rect1246"
       height="25.607887"
       width="32.127975"
       y="1.889881"
       x="33.261906" />
    <rect
       id="rect2592"
       height="20.127232"
       width="21.45015"
       y="3.0238094"
       x="23.718006" />
    <rect
       x="23.718006"
       y="3.0238094"
       width="21.45015"
       height="20.127232"
       id="rect2600" />
    <rect
       id="rect2608"
       height="20.127232"
       width="21.45015"
       y="3.0238094"
       x="23.718006" />
    <rect
       x="2.6871746"
       y="17.569986"
       width="36.586914"
       height="32.246094"
       id="rect3591-5" />
    <rect
       x="2.6871746"
       y="17.569986"
       width="36.586914"
       height="32.246094"
       id="rect4205" />
    <rect
       x="111.20768"
       y="-7.4414062"
       width="46.715494"
       height="60.358072"
       id="rect8139" />
    <rect
       x="51.449384"
       y="22.216779"
       width="35.663777"
       height="26.60167"
       id="rect8484" />
  </defs>
  <metadata
     id="metadata5">
    <rdf:RDF>
      <cc:Work
         rdf:about="">
        <dc:format>image/svg+xml</dc:format>
        <dc:type
           rdf:resource="http://purl.org/dc/dcmitype/StillImage" />
        <dc:title></dc:title>
      </cc:Work>
    </rdf:RDF>
  </metadata>
  <g
     transform="matrix(0.07744866,0,0,0.07744866,11.628805,14.122139)"
     id="g13950">
    <g
       fill="#9e9797"
       id="g13866">
      <circle
         cx="313.43301"
         cy="69.537003"
         r="69.537003"
         id="circle13862" />
      <circle
         cx="112.547"
         cy="69.537003"
         r="69.537003"
         id="circle13864" />
    </g>
    <g
       id="g13948">
      <g
         id="g13870">
        <path
           d="m 327.136,444.967 h -22.277 c -8.534,0 -15.453,-6.919 -15.453,-15.453 0,-8.534 6.919,-15.453 15.453,-15.453 h 22.277 c 26.328,0 47.747,-21.419 47.747,-47.748 v -30.96 c 0,-43.37 35.284,-78.653 78.654,-78.653 8.534,0 15.453,6.918 15.453,15.453 0,8.535 -6.918,15.453 -15.453,15.453 -26.329,0 -47.749,21.42 -47.749,47.748 v 30.96 c 10e-4,43.37 -35.283,78.653 -78.652,78.653 z"
           fill="#766e6e"
           id="path13868" />
      </g>
      <g
         fill="#766e6e"
         id="g13876">
        <path
           d="M 335.819,512 H 284.46 c -10.057,0 -18.209,-8.153 -18.209,-18.209 0,-10.057 8.153,-18.209 18.209,-18.209 h 29.364 c 16.131,0 29.207,13.076 29.207,29.207 0,3.982 -3.229,7.211 -7.212,7.211 z"
           id="path13872" />
        <path
           d="m 90.16,512 h 51.359 c 10.057,0 18.209,-8.153 18.209,-18.209 0,-10.057 -8.153,-18.209 -18.209,-18.209 h -29.364 c -16.131,0 -29.207,13.076 -29.207,29.207 0.001,3.982 3.23,7.211 7.212,7.211 z"
           id="path13874" />
      </g>
      <path
         d="M 225.714,512 H 200.266 C 131.838,512 80.71,449.461 94.699,382.871 105.868,329.702 126.493,278.942 155.602,232.978 h 114.774 c 29.11,45.964 49.734,96.725 60.903,149.893 C 345.269,449.461 294.142,512 225.714,512 Z"
         fill="#9e9797"
         id="path13878" />
      <path
         d="m 311.37,394.369 c 8.694,-9.764 13.265,-20.47 15.536,-30.279 -4.029,-15.812 -8.915,-31.376 -14.609,-46.636 -2.25,0.444 -8.204,1.929 -13.387,7.206 -5.648,5.751 -6.835,12.397 -7.133,14.602 0.543,3.078 2.717,19.026 -7.74,30.769 -4.987,5.601 -11.114,8.32 -15.374,9.615 -9.67,2.938 -15.127,13.159 -12.189,22.829 2.399,7.897 9.655,12.984 17.503,12.984 1.762,0 3.553,-0.257 5.326,-0.795 12.554,-3.815 23.642,-10.833 32.067,-20.295 z"
         fill="#766e6e"
         id="path13880" />
      <path
         d="m 114.605,394.369 c -8.694,-9.764 -13.265,-20.47 -15.536,-30.279 4.029,-15.812 8.915,-31.376 14.609,-46.636 2.25,0.444 8.204,1.929 13.387,7.206 5.648,5.751 6.835,12.397 7.133,14.602 -0.543,3.078 -2.717,19.026 7.74,30.769 4.987,5.601 11.114,8.32 15.374,9.615 9.67,2.938 15.127,13.159 12.189,22.829 -2.399,7.897 -9.655,12.984 -17.503,12.984 -1.762,0 -3.553,-0.257 -5.326,-0.795 -12.554,-3.815 -23.642,-10.833 -32.067,-20.295 z"
         fill="#766e6e"
         id="path13882" />
      <g
         id="g13896">
        <g
           fill="#766e6e"
           id="g13890">
          <path
             d="m 130.647,85.663 c -17.259,17.796 -25.696,37.482 -29.887,52.396 3.833,0.655 7.767,1.015 11.787,1.015 38.404,0 69.537,-31.133 69.537,-69.537 0,-5.237 -0.598,-10.331 -1.695,-15.237 -25.396,8.25 -42.417,23.81 -49.742,31.363 z"
             id="path13884" />
          <path
             d="m 245.7,53.823 c -1.168,5.052 -1.805,10.307 -1.805,15.714 0,38.404 31.133,69.537 69.537,69.537 4.296,0 8.494,-0.41 12.574,-1.156 C 318.974,109.697 303.162,90.89 301.229,88.652 284.034,68.744 262.971,58.792 245.7,53.823 Z"
             id="path13886" />
          <path
             d="M 270.377,232.977 H 155.603 c -3.031,4.785 -5.947,9.634 -8.792,14.52 11.916,21.132 29.53,40.088 45.348,54.58 20.963,19.205 53.043,19.592 74.399,0.825 9.062,-7.964 18.611,-17.427 27.272,-28.142 -7.073,-14.299 -14.885,-28.253 -23.453,-41.783 z"
             id="path13888" />
        </g>
        <path
           d="m 212.99,73.363 c -35.887,0.508 -59.409,21.659 -67.729,30.239 -22.785,23.495 -26.883,50.998 -27.834,59.841 0,0 -0.001,0 -0.001,10e-4 -0.003,0.057 -0.158,2.863 -0.158,5.522 0,58.346 70.578,113.196 90.527,127.535 3.144,2.26 7.345,2.37 10.599,0.272 20.227,-13.038 90.319,-62.902 90.319,-127.807 0,-2.831 -0.149,-5.381 -0.176,-5.812 C 306.523,130.92 287.514,108.311 285.57,106.061 257.417,73.466 216.658,73.311 212.99,73.363 Z"
           fill="#9e9797"
           id="path13892" />
        <path
           d="m 212.99,260.054 c -11.26,0 -20.388,9.117 -20.388,20.363 0,1.716 0.236,3.373 0.636,4.965 5.975,4.821 11.046,8.594 14.554,11.116 3.155,2.268 7.367,2.361 10.633,0.254 3.386,-2.184 8.159,-5.394 13.761,-9.526 0.759,-2.132 1.193,-4.418 1.193,-6.81 -0.001,-11.246 -9.129,-20.362 -20.389,-20.362 z"
           fill="#e1d3ce"
           id="path13894" />
      </g>
      <ellipse
         cx="212.99001"
         cy="395.79401"
         fill="#efe2dd"
         rx="53.387001"
         ry="66.453003"
         id="ellipse13898" />
      <path
         d="m 265.066,381.182 c -7.362,4.102 -11.141,12.901 -8.591,21.293 1.376,4.528 4.353,8.126 8.118,10.377 1.158,-5.445 1.783,-11.159 1.783,-17.058 0,-5.023 -0.462,-9.909 -1.31,-14.612 z"
         fill="#e1d3ce"
         id="path13900" />
      <path
         d="m 161.386,412.849 c 3.764,-2.251 6.739,-5.848 8.114,-10.374 2.549,-8.39 -1.228,-17.188 -8.587,-21.29 -0.848,4.703 -1.31,9.588 -1.31,14.609 0,5.897 0.625,11.611 1.783,17.055 z"
         fill="#e1d3ce"
         id="path13902" />
      <g
         id="g13906">
        <path
           d="m 312.368,317.46 c 1.483,8.418 4.679,37.728 -16.451,61.456 -8.425,9.462 -19.513,16.479 -32.067,20.294 -1.773,0.538 -3.565,0.795 -5.326,0.795 -7.847,0 -15.103,-5.087 -17.502,-12.984 -2.938,-9.67 2.519,-19.891 12.189,-22.829 4.26,-1.295 10.387,-4.014 15.374,-9.615 10.457,-11.743 8.282,-27.691 7.74,-30.769 z"
           fill="#9e9797"
           id="path13904" />
      </g>
      <g
         id="g13910">
        <path
           d="m 113.686,317.46 c -1.483,8.418 -4.679,37.728 16.451,61.456 8.425,9.462 19.513,16.479 32.067,20.294 1.773,0.538 3.565,0.795 5.326,0.795 7.847,0 15.103,-5.087 17.502,-12.984 2.938,-9.67 -2.519,-19.891 -12.189,-22.829 -4.26,-1.295 -10.387,-4.014 -15.374,-9.615 -10.457,-11.743 -8.282,-27.691 -7.74,-30.769 z"
           fill="#9e9797"
           id="path13908" />
      </g>
      <g
         id="g13920">
        <g
           id="g13914">
          <path
             d="m 191.436,163.127 c -0.951,0 -1.917,-0.177 -2.854,-0.549 -3.529,-1.404 -7.224,-2.105 -11.043,-2.07 -3.633,0.03 -7.186,0.726 -10.562,2.069 -3.963,1.579 -8.458,-0.356 -10.036,-4.321 -1.577,-3.964 0.357,-8.458 4.322,-10.036 5.161,-2.054 10.596,-3.119 16.15,-3.164 0.124,-0.001 0.248,-0.002 0.371,-0.002 5.677,0 11.23,1.064 16.511,3.165 3.965,1.577 5.9,6.071 4.323,10.036 -1.207,3.027 -4.111,4.872 -7.182,4.872 z"
             fill="#766e6e"
             id="path13912" />
        </g>
        <g
           id="g13918">
          <path
             d="m 261.859,163.127 c -0.952,0 -1.918,-0.177 -2.855,-0.55 -3.453,-1.374 -7.086,-2.07 -10.799,-2.07 -0.081,0 -0.163,0 -0.243,0.001 -3.632,0.03 -7.185,0.726 -10.563,2.07 -3.962,1.576 -8.457,-0.358 -10.035,-4.322 -1.577,-3.965 0.358,-8.458 4.323,-10.036 5.163,-2.054 10.596,-3.119 16.149,-3.164 5.829,-0.028 11.489,1.018 16.883,3.164 3.965,1.578 5.899,6.071 4.322,10.036 -1.206,3.027 -4.111,4.871 -7.182,4.871 z"
             fill="#766e6e"
             id="path13916" />
        </g>
      </g>
      <g
         id="g13946">
        <g
           id="g13932">
          <g
             id="g13930">
            <g
               id="g13924">
              <path
                 d="m 259.463,213.989 c -2.378,0 -4.724,-1.094 -6.237,-3.159 -2.523,-3.442 -1.778,-8.277 1.664,-10.799 9.167,-6.719 19.376,-11.417 30.343,-13.963 17.737,-4.118 33.097,-1.501 42.859,1.419 4.088,1.223 6.41,5.528 5.188,9.616 -1.223,4.088 -5.525,6.411 -9.617,5.189 -7.971,-2.384 -20.506,-4.521 -34.936,-1.171 -8.919,2.071 -17.23,5.898 -24.703,11.375 -1.376,1.007 -2.976,1.493 -4.561,1.493 z"
                 fill="#766e6e"
                 id="path13922" />
            </g>
            <g
               id="g13928">
              <path
                 d="m 321.042,260.348 c -1.475,0 -2.966,-0.422 -4.284,-1.302 -8.847,-5.908 -18.568,-10.096 -28.895,-12.446 -9.064,-2.064 -18.367,-2.648 -27.654,-1.742 -4.256,0.417 -8.027,-2.691 -8.442,-6.938 -0.414,-4.247 2.691,-8.026 6.939,-8.442 10.936,-1.069 21.902,-0.378 32.588,2.054 12.171,2.771 23.627,7.704 34.046,14.663 3.549,2.37 4.504,7.167 2.135,10.716 -1.49,2.231 -3.939,3.437 -6.433,3.437 z"
                 fill="#766e6e"
                 id="path13926" />
            </g>
          </g>
        </g>
        <g
           id="g13944">
          <g
             id="g13942">
            <g
               id="g13936">
              <path
                 d="m 166.516,213.989 c -1.52,0 -3.055,-0.447 -4.398,-1.379 -7.684,-5.333 -16.116,-9.215 -25.06,-11.538 -15.811,-4.107 -29.792,-2.376 -38.734,-0.202 -4.154,1.012 -8.326,-1.537 -9.334,-5.682 -1.008,-4.146 1.536,-8.325 5.682,-9.333 15.295,-3.72 31.296,-3.629 46.272,0.26 10.712,2.783 20.801,7.426 29.986,13.8 3.505,2.433 4.375,7.247 1.942,10.753 -1.502,2.162 -3.909,3.321 -6.356,3.321 z"
                 fill="#766e6e"
                 id="path13934" />
            </g>
            <g
               id="g13940">
              <path
                 d="m 104.938,260.348 c -2.495,0 -4.943,-1.206 -6.433,-3.436 -2.369,-3.549 -1.414,-8.347 2.135,-10.716 10.42,-6.959 21.875,-11.893 34.046,-14.663 10.683,-2.433 21.648,-3.124 32.588,-2.054 4.247,0.415 7.353,4.195 6.939,8.442 -0.415,4.246 -4.194,7.361 -8.442,6.938 -9.287,-0.906 -18.59,-0.322 -27.654,1.742 -10.327,2.351 -20.048,6.538 -28.895,12.446 -1.319,0.88 -2.81,1.301 -4.284,1.301 z"
                 fill="#766e6e"
                 id="path13938" />
            </g>
          </g>
        </g>
      </g>
    </g>
  </g>
  <g
     transform="matrix(0.85504887,0,0,0.85504887,65.035895,5.515196)"
     id="flat">
    <path
       d="m 3,43 a 8,8 0 0 0 8,8 h 42 a 8,8 0 0 0 8,-8 z"
       fill="#3e8051"
       id="path14059" />
    <path
       d="M 56,37 H 8 l 2,-4 h 44 z"
       fill="#98b398"
       id="path14061" />
    <path
       d="M 27,23 H 47 V 33 H 27 Z"
       fill="#3e8051"
       id="path14063" />
    <path
       d="m 23,25 h 4 v 8 h -4 z"
       fill="#296038"
       id="path14065" />
    <path
       d="m 3,25 h 20 v 4 H 3 Z"
       fill="#98b398"
       id="path14067" />
    <path
       d="m 51,28 -4,1 v -6 l 4,1 z"
       fill="#296038"
       id="path14069" />
    <path
       d="m 35,19 h 10 v 4 H 35 Z"
       fill="#296038"
       id="path14071" />
    <path
       d="m 37,14 h 2 v 5 h -2 z"
       fill="#7d8d9c"
       id="path14073" />
    <path
       d="m 31,23 h 4 v 6 h -4 z"
       fill="#b4ccb4"
       id="path14075" />
    <path
       d="m 35,23 h 4 v 6 h -4 z"
       fill="#98b398"
       id="path14077" />
    <path
       d="m 42,26 h 2 v 2 h -2 z"
       fill="#b4ccb4"
       id="path14079" />
    <path
       d="m 42,30 h 2 v 3 h -2 z"
       fill="#b4ccb4"
       id="path14081" />
    <path
       d="m 41,12 h 2 v 7 h -2 z"
       fill="#7d8d9c"
       id="path14083" />
    <path
       d="m 8,37 h 48 a 5,5 0 0 1 5,5 v 1 H 3 v -1 a 5,5 0 0 1 5,-5 z"
       fill="#296038"
       id="path14085" />
    <path
       d="m 25,49 a 6,6 0 0 0 6,-6 H 19 a 6,6 0 0 0 6,6 z"
       fill="#394d5c"
       id="path14087" />
    <path
       d="m 13,49 a 6,6 0 0 0 6,-6 H 7 a 6,6 0 0 0 6,6 z"
       fill="#143441"
       id="path14089" />
    <path
       d="m 51,49 a 6,6 0 0 0 6,-6 H 45 a 6,6 0 0 0 6,6 z"
       fill="#394d5c"
       id="path14091" />
    <path
       d="m 39,49 a 6,6 0 0 0 6,-6 H 33 a 6,6 0 0 0 6,6 z"
       fill="#143441"
       id="path14093" />
    <g
       fill="#98b398"
       id="g14103">
      <path
         d="m 12,43 h 2 v 3 h -2 z"
         id="path14095" />
      <path
         d="m 24,43 h 2 v 3 h -2 z"
         id="path14097" />
      <path
         d="m 38,43 h 2 v 3 h -2 z"
         id="path14099" />
      <path
         d="m 50,43 h 2 v 3 h -2 z"
         id="path14101" />
    </g>
  </g>
</svg>
