<?xml version="1.0" encoding="UTF-8" standalone="no"?>
<svg
   xmlns:dc="http://purl.org/dc/elements/1.1/"
   xmlns:cc="http://creativecommons.org/ns#"
   xmlns:rdf="http://www.w3.org/1999/02/22-rdf-syntax-ns#"
   xmlns:svg="http://www.w3.org/2000/svg"
   xmlns="http://www.w3.org/2000/svg"
   width="500"
   height="250"
   viewBox="0 0 132.29166 66.145835"
   version="1.1"
   id="svg8">
  <defs
     id="defs2">
    <rect
       id="rect17555"
       height="33.899739"
       width="45.47526"
       y="14.469401"
       x="64.905598" />
    <rect
       id="rect16657"
       height="39.6875"
       width="52.916666"
       y="16.536458"
       x="16.123047" />
    <rect
       id="rect14952"
       height="41.217972"
       width="28.355626"
       y="11.693042"
       x="56.1266" />
    <rect
       id="rect12397"
       height="46.715494"
       width="47.955729"
       y="8.6816405"
       x="71.933593" />
    <rect
       id="rect10750"
       height="32.448191"
       width="43.55658"
       y="16.95491"
       x="54.080318" />
    <rect
       id="rect10116"
       height="31.278887"
       width="27.917137"
       y="16.808747"
       x="101.14481" />
    <rect
       id="rect9439"
       height="25.14004"
       width="57.003578"
       y="26.309344"
       x="5.2618688" />
    <rect
       id="rect8476"
       height="26.60167"
       width="35.663777"
       y="22.216779"
       x="51.449384" />
    <rect
       id="rect8111"
       height="60.358072"
       width="46.715494"
       y="-7.4414062"
       x="111.20768" />
    <rect
       id="rect5692"
       height="31.419271"
       width="28.318685"
       y="19.223633"
       x="111.62109" />
    <rect
       id="rect4959"
       height="36.793619"
       width="38.447265"
       y="12.815755"
       x="87.436523" />
    <rect
       id="rect3591"
       height="32.246093"
       width="36.586914"
       y="17.569987"
       x="2.6871745" />
    <rect
       x="33.261906"
       y="1.889881"
       width="32.127975"
       height="25.607887"
       id="rect952" />
    <rect
       x="23.718006"
       y="3.0238094"
       width="21.45015"
       height="20.127232"
       id="rect946" />
    <rect
       id="rect952-5"
       height="25.607887"
       width="32.127975"
       y="1.889881"
       x="33.261906" />
    <rect
       id="rect1246"
       height="25.607887"
       width="32.127975"
       y="1.889881"
       x="33.261906" />
    <rect
       id="rect2592"
       height="20.127232"
       width="21.45015"
       y="3.0238094"
       x="23.718006" />
    <rect
       x="23.718006"
       y="3.0238094"
       width="21.45015"
       height="20.127232"
       id="rect2600" />
    <rect
       id="rect2608"
       height="20.127232"
       width="21.45015"
       y="3.0238094"
       x="23.718006" />
    <rect
       x="2.6871746"
       y="17.569986"
       width="36.586914"
       height="32.246094"
       id="rect3591-5" />
    <rect
       x="2.6871746"
       y="17.569986"
       width="36.586914"
       height="32.246094"
       id="rect4205" />
    <rect
       x="111.20768"
       y="-7.4414062"
       width="46.715494"
       height="60.358072"
       id="rect8139" />
    <rect
       x="51.449384"
       y="22.216779"
       width="35.663777"
       height="26.60167"
       id="rect8484" />
    <rect
       x="16.123047"
       y="16.536458"
       width="52.916666"
       height="39.6875"
       id="rect16854" />
    <rect
       x="16.123047"
       y="16.536458"
       width="52.916666"
       height="39.6875"
       id="rect16860" />
    <rect
       x="64.905598"
       y="14.469401"
       width="45.47526"
       height="33.899739"
       id="rect17563" />
    <rect
       x="64.905598"
       y="14.469401"
       width="45.47526"
       height="33.899739"
       id="rect20027" />
  </defs>
  <metadata
     id="metadata5">
    <rdf:RDF>
      <cc:Work
         rdf:about="">
        <dc:format>image/svg+xml</dc:format>
        <dc:type
           rdf:resource="http://purl.org/dc/dcmitype/StillImage" />
        <dc:title></dc:title>
      </cc:Work>
    </rdf:RDF>
  </metadata>
  <g
     transform="matrix(0.26458333,0,0,0.26458333,71.999739,33.965621)"
     id="g14585">
</g>
  <g
     transform="matrix(0.26458333,0,0,0.26458333,71.999739,33.965621)"
     id="g14587">
</g>
  <g
     transform="matrix(0.26458333,0,0,0.26458333,71.999739,33.965621)"
     id="g14589">
</g>
  <g
     transform="matrix(0.26458333,0,0,0.26458333,71.999739,33.965621)"
     id="g14591">
</g>
  <g
     transform="matrix(0.26458333,0,0,0.26458333,71.999739,33.965621)"
     id="g14593">
</g>
  <g
     transform="matrix(0.26458333,0,0,0.26458333,71.999739,33.965621)"
     id="g14595">
</g>
  <g
     transform="matrix(0.26458333,0,0,0.26458333,71.999739,33.965621)"
     id="g14597">
</g>
  <g
     transform="matrix(0.26458333,0,0,0.26458333,71.999739,33.965621)"
     id="g14599">
</g>
  <g
     transform="matrix(0.26458333,0,0,0.26458333,71.999739,33.965621)"
     id="g14601">
</g>
  <g
     transform="matrix(0.26458333,0,0,0.26458333,71.999739,33.965621)"
     id="g14603">
</g>
  <g
     transform="matrix(0.26458333,0,0,0.26458333,71.999739,33.965621)"
     id="g14605">
</g>
  <g
     transform="matrix(0.26458333,0,0,0.26458333,71.999739,33.965621)"
     id="g14607">
</g>
  <g
     transform="matrix(0.26458333,0,0,0.26458333,71.999739,33.965621)"
     id="g14609">
</g>
  <g
     transform="matrix(0.26458333,0,0,0.26458333,71.999739,33.965621)"
     id="g14611">
</g>
  <g
     transform="matrix(0.26458333,0,0,0.26458333,71.999739,33.965621)"
     id="g14613">
</g>
  <text
     xml:space="preserve"
     id="text20025"
     style="font-style:normal;font-variant:normal;font-weight:bold;font-stretch:normal;font-size:10.5833px;line-height:1.25;font-family:sans-serif;-inkscape-font-specification:'sans-serif Bold';white-space:pre;shape-inside:url(#rect20027);fill:#000000;fill-opacity:1;stroke:none;"
     transform="matrix(2.6790882,0,0,2.6790882,-155.40799,-20.770225)"><tspan
       x="64.90625"
       y="24.124215"><tspan
         style="font-style:normal;font-variant:normal;font-weight:bold;font-stretch:normal;font-family:sans-serif;-inkscape-font-specification:'sans-serif Bold'">A</tspan></tspan></text>
  <g
     transform="matrix(0.08936569,0,0,0.08936569,66.212497,10.814843)"
     id="g28123">
    <g
       id="g28043">
	<g
   id="g28033">
		<path
   style="fill:#f63d53"
   d="m 128.556,106.609 c 35.136,51.079 24.693,69.885 3.254,88.749 -4.352,3.83 -9.156,7.661 -14.125,11.765 -19.875,17.275 15.354,66.565 51.834,109.485 37.787,44.131 81.308,86.417 101.162,69.121 1.989,-1.718 3.928,-3.423 5.832,-5.09 25.06,-21.945 44.157,-37.387 95.353,10.227 15.73,14.982 22.861,27.934 24.373,39.371 C 462.097,388.44 501.999,315.858 501.999,237.856 501.998,112.015 399.984,10 274.144,10 210.65,10 150.037,36.493 106.912,83.094 c 6.977,5.059 14.191,12.674 21.644,23.515 z m 166.069,148.402 v -57.772 c 0,-11.956 9.782,-21.738 21.739,-21.738 11.956,0 21.738,9.782 21.738,21.738 v 57.772 c 0,11.956 -9.782,21.738 -21.739,21.738 -11.956,0 -21.738,-9.782 -21.738,-21.738 z"
   id="path28029" />

		<path
   style="fill:#f63d53"
   d="m 294.625,197.239 v 57.772 c 0,11.956 9.782,21.738 21.738,21.738 11.957,0 21.739,-9.783 21.739,-21.738 v -57.772 c 0,-11.956 -9.782,-21.738 -21.738,-21.738 -11.957,0 -21.739,9.782 -21.739,21.738 z"
   id="path28031" />

	</g>

	<g
   id="g28039">
		<path
   style="fill:#bccbd3"
   d="m 131.81,195.359 c 21.439,-18.865 31.882,-37.671 -3.254,-88.75 C 121.103,95.767 113.889,88.152 106.912,83.093 89.334,70.348 73.252,73.822 58.607,82.786 c 23.256,24.53 58.588,81.15 73.203,112.573 z"
   id="path28035" />

		<path
   style="fill:#bccbd3"
   d="m 371.865,390.866 c -51.195,-47.614 -70.293,-32.173 -95.353,-10.227 30.068,16.042 80.578,56.775 103.738,87.585 10.449,-10.861 17.947,-23.149 15.987,-37.987 -1.51,-11.437 -8.641,-24.389 -24.372,-39.371 z"
   id="path28037" />

	</g>

	<path
   style="fill:#4ad194"
   d="m 380.251,468.224 c -23.16,-30.809 -73.67,-71.543 -103.738,-87.585 -1.904,1.667 -3.843,3.372 -5.832,5.09 -19.854,17.296 -63.375,-24.989 -101.162,-69.121 -36.48,-42.919 -71.709,-92.209 -51.834,-109.485 4.969,-4.104 9.773,-7.935 14.125,-11.764 C 117.195,163.936 81.863,107.316 58.607,82.786 46.101,90.443 34.644,102.105 24.199,111.091 -7.82,137.949 11.383,249.354 111.91,366.547 c 99.233,117.132 207.456,153.622 238.827,127.373 9.241,-7.982 20.481,-16.306 29.514,-25.696 z"
   id="path28041" />

</g>
    <path
       d="M 442.332,69.666 C 397.407,24.741 337.677,0 274.144,0 210.849,0 149.807,25.538 105.335,70.316 98.249,66.601 90.956,64.755 83.396,64.755 c -22.742,0 -41.198,16.693 -57.481,31.421 -2.86,2.587 -5.563,5.031 -8.192,7.294 -9.856,8.297 -15.854,22.284 -17.346,40.453 -2.214,26.964 5.452,62.626 21.584,100.415 18.184,42.595 46.663,87.105 82.319,128.673 C 185.62,469.024 272.641,512 322.798,512 c 14.542,0 26.102,-3.502 34.357,-10.41 l 0.12,-0.102 c 2.778,-2.4 5.743,-4.832 8.883,-7.407 18.482,-15.158 39.431,-32.339 40.362,-57.477 0.015,-0.391 0.018,-0.783 0.023,-1.174 31.518,-21.132 57.735,-49.706 76.031,-82.983 19.248,-35.012 29.423,-74.637 29.423,-114.591 10e-4,-63.534 -24.74,-123.265 -69.665,-168.19 z m -322.015,42.611 c 16.662,24.223 23.368,41.954 20.499,54.205 -1.003,4.283 -3.195,8.161 -6.252,11.932 -15.035,-28.822 -39.829,-67.967 -59.742,-92.259 2.861,-0.896 5.725,-1.398 8.574,-1.398 11.945,0 24.366,9.258 36.921,27.52 z m 233.158,366.339 c -3.217,2.638 -6.257,5.131 -9.207,7.678 -4.5,3.732 -11.922,5.705 -21.47,5.705 -44.068,0 -126.472,-41.281 -203.297,-131.963 C 85.116,319.951 57.748,277.228 40.355,236.486 25.477,201.634 18.358,169.342 20.311,145.561 c 1.032,-12.573 4.695,-22.093 10.313,-26.807 l 0.096,-0.081 c 2.832,-2.437 5.639,-4.976 8.61,-7.663 5.629,-5.091 11.569,-10.462 17.664,-15.011 20.309,23.918 47.971,67.899 62.436,96.748 -1.316,1.088 -2.662,2.191 -4.047,3.325 -1.34,1.097 -2.697,2.208 -4.068,3.34 l -0.191,0.163 c -13.007,11.305 -12.141,30.645 2.575,57.482 9.691,17.673 25.457,39.272 48.223,66.055 44.736,52.247 75.801,76.581 97.763,76.581 6.667,0 12.741,-2.221 17.531,-6.395 0.188,-0.162 0.365,-0.32 0.553,-0.482 26.973,15.864 66.532,47.857 88.994,74.547 -4.226,3.819 -8.778,7.554 -13.288,11.253 z m 33.057,-42.753 c -0.217,5.853 -2.535,11.363 -6.154,16.635 -22.834,-26.478 -59.125,-56.095 -86.566,-73.324 7.424,-5.736 14.373,-9.542 22.175,-9.542 12.348,0 28.385,9.329 49.024,28.516 14.689,14.001 21.931,26.691 21.521,37.715 z m 15.405,-21.572 c -4.451,-9.997 -12.139,-20.158 -23.174,-30.667 l -0.087,-0.081 c -24.876,-23.137 -44.797,-33.912 -62.69,-33.912 -19.268,0 -32.807,11.866 -47.142,24.429 -1.539,1.349 -3.102,2.72 -4.733,4.127 -1.21,1.054 -2.534,1.504 -4.427,1.504 -8.584,0 -30.725,-9.04 -82.546,-69.56 -21.854,-25.712 -36.869,-46.218 -45.901,-62.69 -8.988,-16.392 -11.621,-28.602 -7.061,-32.709 1.305,-1.078 2.599,-2.136 3.875,-3.181 3.532,-2.891 7.015,-5.744 10.324,-8.657 0.071,-0.063 0.145,-0.122 0.214,-0.186 10.157,-8.972 18.63,-18.548 21.701,-31.666 4.342,-18.546 -2.904,-40.166 -23.494,-70.098 -5.017,-7.298 -10.1,-13.463 -15.274,-18.531 C 162.075,42.631 217.114,20 274.144,20 c 120.125,0 217.854,97.729 217.854,217.855 0,70.517 -33.428,135.517 -90.061,176.436 z"
       id="path28045" />
    <path
       d="m 219.782,52.551 c -1.827,-5.212 -7.536,-7.958 -12.745,-6.129 -15.017,5.263 -29.415,12.304 -42.794,20.928 -4.642,2.992 -5.979,9.181 -2.987,13.823 1.912,2.967 5.129,4.584 8.415,4.584 1.854,0 3.732,-0.516 5.408,-1.596 12.059,-7.773 25.038,-14.12 38.573,-18.864 5.212,-1.828 7.957,-7.534 6.13,-12.746 z"
       id="path28047" />
    <path
       d="m 238.222,58.375 c 0.622,0 1.254,-0.059 1.888,-0.18 l 0.609,-0.115 c 5.43,-1.009 9.014,-6.229 8.005,-11.659 -1.01,-5.431 -6.236,-9.012 -11.659,-8.004 l -0.709,0.133 c -5.425,1.037 -8.982,6.275 -7.945,11.699 0.914,4.792 5.107,8.126 9.811,8.126 z"
       id="path28049" />
    <path
       d="m 316.364,165.501 c -17.501,0 -31.738,14.238 -31.738,31.738 v 57.772 c 0,17.5 14.238,31.738 31.739,31.738 17.501,0 31.738,-14.238 31.738,-31.738 v -57.772 c 0,-17.5 -14.239,-31.738 -31.739,-31.738 z m 11.739,89.51 c 0,6.473 -5.266,11.738 -11.738,11.738 h -0.001 c -6.473,0 -11.738,-5.266 -11.738,-11.738 v -57.772 c 0,-6.473 5.267,-11.738 11.739,-11.738 6.473,0 11.738,5.266 11.738,11.738 z"
       id="path28051" />
    <path
       d="m 401.864,216.125 v 0 0 c -8.065,0 -14.627,-6.562 -14.627,-14.627 0,-8.065 6.561,-14.626 14.626,-14.626 5.209,0 10.063,2.802 12.666,7.313 2.761,4.782 8.874,6.422 13.66,3.661 4.783,-2.761 6.423,-8.877 3.662,-13.66 -6.165,-10.68 -17.656,-17.314 -29.988,-17.314 -19.093,0 -34.626,15.533 -34.626,34.626 0,19.093 15.533,34.627 34.626,34.627 0,0 0,0 10e-4,0 v 0 c 8.065,0 14.626,6.561 14.626,14.626 0,8.065 -6.561,14.627 -14.626,14.627 -5.209,0 -10.063,-2.803 -12.668,-7.314 -2.761,-4.782 -8.877,-6.422 -13.66,-3.66 -4.783,2.761 -6.422,8.877 -3.66,13.66 6.166,10.68 17.656,17.314 29.988,17.314 19.093,0 34.626,-15.534 34.626,-34.627 0,-19.093 -15.533,-34.626 -34.626,-34.626 z"
       id="path28053" />
    <path
       d="m 230.864,216.125 v 0 0 c -8.065,0 -14.627,-6.562 -14.627,-14.627 0,-8.065 6.562,-14.626 14.626,-14.626 5.209,0 10.063,2.802 12.666,7.313 2.761,4.782 8.875,6.422 13.66,3.661 4.783,-2.761 6.423,-8.877 3.662,-13.66 -6.165,-10.68 -17.656,-17.314 -29.988,-17.314 -19.093,0 -34.626,15.533 -34.626,34.626 0,19.093 15.533,34.627 34.626,34.627 0,0 0,0 0.001,0 v 0 c 8.064,0 14.626,6.561 14.626,14.626 0,8.065 -6.561,14.627 -14.626,14.627 -5.209,0 -10.063,-2.803 -12.668,-7.314 -2.761,-4.782 -8.877,-6.422 -13.66,-3.66 -4.783,2.761 -6.422,8.877 -3.66,13.66 6.166,10.68 17.656,17.314 29.988,17.314 19.093,0 34.626,-15.534 34.626,-34.627 0,-19.093 -15.533,-34.626 -34.626,-34.626 z"
       id="path28055" />
    <g
       id="g28057">
</g>
    <g
       id="g28059">
</g>
    <g
       id="g28061">
</g>
    <g
       id="g28063">
</g>
    <g
       id="g28065">
</g>
    <g
       id="g28067">
</g>
    <g
       id="g28069">
</g>
    <g
       id="g28071">
</g>
    <g
       id="g28073">
</g>
    <g
       id="g28075">
</g>
    <g
       id="g28077">
</g>
    <g
       id="g28079">
</g>
    <g
       id="g28081">
</g>
    <g
       id="g28083">
</g>
    <g
       id="g28085">
</g>
  </g>
</svg>
