<?xml version="1.0" encoding="UTF-8" standalone="no"?>
<svg
   xmlns:dc="http://purl.org/dc/elements/1.1/"
   xmlns:cc="http://creativecommons.org/ns#"
   xmlns:rdf="http://www.w3.org/1999/02/22-rdf-syntax-ns#"
   xmlns:svg="http://www.w3.org/2000/svg"
   xmlns="http://www.w3.org/2000/svg"
   width="500"
   height="250"
   viewBox="0 0 132.29166 66.145835"
   version="1.1"
   id="svg8">
  <defs
     id="defs2">
    <rect
       id="rect8111"
       height="60.358072"
       width="46.715494"
       y="-7.4414062"
       x="111.20768" />
    <rect
       id="rect5692"
       height="31.419271"
       width="28.318685"
       y="19.223633"
       x="111.62109" />
    <rect
       id="rect4959"
       height="36.793619"
       width="38.447265"
       y="12.815755"
       x="87.436523" />
    <rect
       id="rect3591"
       height="32.246093"
       width="36.586914"
       y="17.569987"
       x="2.6871745" />
    <rect
       x="33.261906"
       y="1.889881"
       width="32.127975"
       height="25.607887"
       id="rect952" />
    <rect
       x="23.718006"
       y="3.0238094"
       width="21.45015"
       height="20.127232"
       id="rect946" />
    <rect
       id="rect952-5"
       height="25.607887"
       width="32.127975"
       y="1.889881"
       x="33.261906" />
    <rect
       id="rect1246"
       height="25.607887"
       width="32.127975"
       y="1.889881"
       x="33.261906" />
    <rect
       id="rect2592"
       height="20.127232"
       width="21.45015"
       y="3.0238094"
       x="23.718006" />
    <rect
       x="23.718006"
       y="3.0238094"
       width="21.45015"
       height="20.127232"
       id="rect2600" />
    <rect
       id="rect2608"
       height="20.127232"
       width="21.45015"
       y="3.0238094"
       x="23.718006" />
    <rect
       x="2.6871746"
       y="17.569986"
       width="36.586914"
       height="32.246094"
       id="rect3591-5" />
    <rect
       x="2.6871746"
       y="17.569986"
       width="36.586914"
       height="32.246094"
       id="rect4205" />
  </defs>
  <metadata
     id="metadata5">
    <rdf:RDF>
      <cc:Work
         rdf:about="">
        <dc:format>image/svg+xml</dc:format>
        <dc:type
           rdf:resource="http://purl.org/dc/dcmitype/StillImage" />
        <dc:title></dc:title>
      </cc:Work>
    </rdf:RDF>
  </metadata>
  <g
     id="g5688"
     transform="matrix(0.52695301,0,0,0.52695301,12.882148,59.793941)">
    <path
       id="path5684"
       d="m 60.616729,-60.990905 v 18.708867"
       style="fill:none;stroke:#000000;stroke-width:3.96875;stroke-linecap:round;stroke-linejoin:miter;stroke-miterlimit:4;stroke-dasharray:none;stroke-opacity:1" />
    <path
       style="fill:none;stroke:#000000;stroke-width:3.96875;stroke-linecap:round;stroke-linejoin:miter;stroke-miterlimit:4;stroke-dasharray:none;stroke-opacity:1"
       d="M 69.971162,-51.636471 H 51.262295"
       id="path5686" />
  </g>
  <g
     transform="matrix(0.06802833,0,0,0.06802833,1.008307,13.684569)"
     id="flat">
    <path
       d="m 296,344 147.882,73.941 a 60,60 0 0 1 32.564,45.18 L 480,488 H 32 l 3.554,-24.879 a 60,60 0 0 1 32.564,-45.18 L 216,344 Z"
       fill="#026ca2"
       id="path7944" />
    <path
       d="m 216,344 h 80 v 144 h -80 z"
       fill="#cbcbcb"
       id="path7946" />
    <path
       d="m 216,312 v 32 l -8,24 v 8 h 96 v -8 l -8,-24 v -32 z"
       fill="#fdc9a6"
       id="path7948" />
    <path
       d="m 296,312 v 19.64 c -0.08,0.06 -0.17,0.11 -0.25,0.17 A 70.9,70.9 0 0 1 216,331.64 V 312 Z"
       fill="#fdc9a6"
       id="path7950" />
    <path
       d="m 296,312 v 19.64 c -0.08,0.06 -0.17,0.11 -0.25,0.17 A 70.9,70.9 0 0 1 216,331.64 V 312 Z"
       fill="#e6af89"
       id="path7952" />
    <path
       d="m 72,488 v -32 a 8,8 0 0 1 16,0 v 32 z"
       fill="#015078"
       id="path7954" />
    <path
       d="m 424,488 v -32 a 8,8 0 0 1 16,0 v 32 z"
       fill="#015078"
       id="path7956" />
    <path
       d="M 230.857,388.571 240,416 h 32 L 281.143,388.571 256,376 Z"
       fill="#0296e5"
       id="path7958" />
    <path
       d="m 240,416 -8,72 h 48 l -8,-72 z"
       fill="#026ca2"
       id="path7960" />
    <path
       d="m 360.925,171.923 3.421,-13.6 A 91.909,91.909 0 0 0 344.781,75.838 84.136,84.136 0 0 0 258.348,44.3 c -5.306,1.236 -10.592,2.465 -15.636,3.637 A 76.04,76.04 0 0 0 191.9,88 h -2.124 a 43.754,43.754 0 0 0 -35,17.5 43.754,43.754 0 0 0 -8.311,32.44 l 5.435,38.06 2.913,24 H 352 l 6.585,-20.007 q 1.315,-3.993 2.34,-8.07 z"
       fill="#55300b"
       id="path7962" />
    <path
       d="M 256,328 A 70.9,70.9 0 0 1 190.173,283.433 198.156,198.156 0 0 1 176,209.837 V 152 l 24,-40.73 A 136.076,136.076 0 0 0 297.087,152 H 336 v 57.837 a 198.156,198.156 0 0 1 -14.173,73.6 A 70.9,70.9 0 0 1 256,328 Z"
       fill="#fdc9a6"
       id="path7964" />
    <g
       fill="#55300b"
       id="g7974">
      <path
         d="m 304,184 h -24 a 8,8 0 0 1 0,-16 h 24 a 8,8 0 0 1 0,16 z"
         id="path7966" />
      <circle
         cx="290"
         cy="202"
         r="10"
         id="circle7968" />
      <path
         d="m 232,184 h -24 a 8,8 0 0 1 0,-16 h 24 a 8,8 0 0 1 0,16 z"
         id="path7970" />
      <circle
         cx="222"
         cy="202"
         r="10"
         id="circle7972" />
    </g>
    <path
       d="m 272,280 h -32 a 8,8 0 0 1 0,-16 h 32 a 8,8 0 0 1 0,16 z"
       fill="#e6af89"
       id="path7976" />
    <path
       d="m 264,248 h -16 a 8,8 0 0 1 -8,-8 v -24 a 8,8 0 0 1 16,0 v 16 h 8 a 8,8 0 0 1 0,16 z"
       fill="#e6af89"
       id="path7978" />
    <path
       d="M 176,176 H 164.944 A 20.944,20.944 0 0 0 144,196.944 v 14.112 a 20.944,20.944 0 0 0 2.211,9.366 A 20.944,20.944 0 0 0 164.944,232 H 179 Z"
       fill="#fdc9a6"
       id="path7980" />
    <path
       d="m 336,176 h 11.056 A 20.944,20.944 0 0 1 368,196.944 v 14.112 a 20.944,20.944 0 0 1 -2.211,9.366 A 20.944,20.944 0 0 1 347.056,232 H 333 Z"
       fill="#fdc9a6"
       id="path7982" />
    <path
       d="m 216,344 40,32 -48,24 v -32 z"
       fill="#ebebeb"
       id="path7984" />
    <path
       d="m 296,344 -40,32 48,24 v -32 z"
       fill="#ebebeb"
       id="path7986" />
    <path
       d="m 216,488 h -40 l -24,-72 64,-72 z"
       fill="#0296e5"
       id="path7988" />
    <path
       d="m 296,488 h 40 l 24,-72 -64,-72 z"
       fill="#0296e5"
       id="path7990" />
  </g>
  <g
     transform="matrix(0.06697265,0,0,0.06697265,54.844912,15.488811)"
     id="g8081">
    <circle
       id="XMLID_66_"
       cx="262.008"
       cy="255.98801"
       fill="#ffea60"
       r="240" />
    <path
       d="m 69.81,216.63 c -19.197,-10.933 -43.621,-4.234 -54.554,14.963 -10.933,19.196 -4.234,43.621 14.963,54.554 8.812,5.018 18.723,6.312 27.927,4.397 l 119.663,68.15 c 17.361,-16.407 40.336,-27.753 66.069,-31.421 L 87.839,238.406 C 84.791,229.513 78.621,221.648 69.81,216.63 Z"
       fill="#99ebfa"
       id="path8059" />
    <circle
       cx="175.008"
       cy="193.98801"
       fill="#efefef"
       r="25"
       id="circle8061" />
    <circle
       cx="349.008"
       cy="193.98801"
       fill="#efefef"
       r="25"
       id="circle8063" />
    <g
       id="g8079">
      <circle
         cx="433.17999"
         cy="424.17599"
         r="10"
         id="circle8065" />
      <path
         d="m 175.01,228.986 c 19.298,0 34.999,-15.702 34.999,-35.002 0,-19.3 -15.701,-35.002 -34.999,-35.002 -19.298,0 -34.999,15.702 -34.999,35.002 0,19.3 15.701,35.002 34.999,35.002 z m 0,-50.002 c 8.271,0 15,6.729 15,15.001 0,8.271 -6.729,15.001 -15,15.001 -8.271,0 -15,-6.729 -15,-15.001 0,-8.272 6.729,-15.001 15,-15.001 z"
         id="path8067" />
      <path
         d="m 314.006,193.984 c 0,19.3 15.701,35.002 34.999,35.002 19.298,0 34.999,-15.702 34.999,-35.002 0,-19.3 -15.701,-35.002 -34.999,-35.002 -19.298,0.001 -34.999,15.703 -34.999,35.002 z m 49.998,0 c 0,8.271 -6.728,15.001 -15,15.001 -8.272,0 -15,-6.729 -15,-15.001 0,-8.271 6.728,-15.001 15,-15.001 8.272,0 15,6.73 15,15.001 z"
         id="path8069" />
      <path
         d="m 192.185,105.94 c 1.118,-5.408 -2.359,-10.7 -7.768,-11.818 -5.409,-1.117 -10.699,2.36 -11.818,7.768 -1.328,6.421 -6.192,12.645 -13.696,17.523 -10.485,6.816 -24.61,9.855 -35.149,7.564 -5.398,-1.175 -10.723,2.25 -11.896,7.647 -1.174,5.397 2.25,10.724 7.646,11.897 3.8,0.826 7.789,1.229 11.872,1.229 12.998,0 26.914,-4.083 38.426,-11.567 12.016,-7.811 19.965,-18.551 22.383,-30.243 z"
         id="path8071" />
      <path
         d="m 400.261,126.977 c -10.535,2.291 -24.662,-0.748 -35.148,-7.563 -7.506,-4.879 -12.37,-11.102 -13.698,-17.524 -1.119,-5.409 -6.419,-8.883 -11.818,-7.768 -5.408,1.119 -8.885,6.41 -7.767,11.819 2.418,11.692 10.368,22.432 22.384,30.243 11.513,7.484 25.426,11.566 38.426,11.566 4.081,0 8.073,-0.402 11.872,-1.229 5.396,-1.173 8.82,-6.5 7.646,-11.897 -1.174,-5.398 -6.503,-8.823 -11.897,-7.647 z"
         id="path8073" />
      <circle
         cx="50.014"
         cy="250.987"
         r="10"
         id="circle8075" />
      <path
         d="M 435.107,75.572 C 388.898,31.231 326.016,6 262.008,6 195.836,6 130.947,33 84.36,80.047 48,116.764 23.937,164.577 15.447,215.275 c -3.412,3.264 -6.42,7.059 -8.873,11.367 -6.609,11.606 -8.304,25.091 -4.771,37.972 2.234,8.146 6.395,15.43 12.084,21.358 6.667,54.271 31.174,105.887 69.643,145.106 C 130.19,478.65 195.4,506 262.007,506 c 25.949,0 51.508,-3.96 76.007,-11.771 23.699,-7.56 46.109,-18.611 66.588,-32.862 2.19,-1.52 3.66,-3.81 4.13,-6.44 0.471,-2.63 -0.109,-5.29 -1.64,-7.48 -1.86,-2.69 -4.94,-4.29 -8.21,-4.29 -2.05,0 -4.021,0.62 -5.7,1.79 -38.619,26.851 -83.967,41.052 -131.176,41.052 -61.419,0 -119.177,-23.931 -162.635,-67.373 -33.009,-33.027 -54.728,-74.328 -63.259,-119.213 6.518,1.887 13.377,2.438 20.17,1.577 l 105.495,60.086 c -7.96,9.357 -14.383,19.816 -19.019,31.126 -2.095,5.111 0.349,10.952 5.459,13.047 1.242,0.509 2.526,0.75 3.79,0.75 3.937,0 7.67,-2.341 9.256,-6.209 15.643,-38.159 56.129,-63.797 100.745,-63.797 44.616,0 85.102,25.638 100.744,63.797 2.097,5.11 7.933,7.557 13.046,5.459 5.11,-2.095 7.555,-7.936 5.46,-13.047 -9.122,-22.251 -25.11,-41.249 -46.236,-54.94 -21.471,-13.915 -46.718,-21.27 -73.013,-21.27 -5.416,0 -10.787,0.317 -16.089,0.939 L 95.872,231.469 C 91.581,221.574 84.197,213.311 74.764,207.938 63.228,201.367 50.158,199.92 38.178,202.846 47.859,161.725 68.759,123.978 99.372,93.349 142.831,49.907 200.589,25.976 262.007,25.976 c 61.418,0 119.176,23.931 162.625,67.373 43.438,43.452 67.358,101.216 67.368,162.638 0,45.742 -13.4,89.924 -38.729,127.786 -1.489,2.22 -2.019,4.88 -1.5,7.5 0.521,2.62 2.03,4.88 4.25,6.37 1.65,1.11 3.57,1.69 5.55,1.69 3.351,0 6.461,-1.66 8.32,-4.44 C 497.44,353.752 512,305.71 512,255.988 512,188.448 483.858,122.351 435.107,75.572 Z M 64.867,225.318 c 6.347,3.615 11.148,9.415 13.518,16.33 0.789,2.304 2.393,4.241 4.51,5.447 l 8.304,4.73 -4.949,8.69 c -2.733,4.799 -1.059,10.906 3.74,13.639 1.562,0.89 3.262,1.313 4.939,1.313 3.476,0 6.855,-1.816 8.698,-5.053 l 4.949,-8.69 17.379,9.898 -4.949,8.69 c -2.733,4.799 -1.058,10.906 3.741,13.639 1.562,0.89 3.262,1.313 4.939,1.313 3.476,0 6.855,-1.816 8.698,-5.053 l 4.949,-8.69 17.379,9.898 -4.949,8.69 c -2.733,4.799 -1.058,10.906 3.741,13.639 1.562,0.89 3.262,1.313 4.939,1.313 3.477,0 6.855,-1.816 8.698,-5.053 l 4.949,-8.69 38.97,22.196 c -14.884,5.168 -28.574,12.901 -40.538,22.945 L 63.101,281.856 c -1.518,-0.865 -3.224,-1.311 -4.949,-1.311 -0.68,0 -1.363,0.069 -2.037,0.209 -7.157,1.489 -14.594,0.318 -20.941,-3.296 -6.963,-3.966 -11.965,-10.406 -14.084,-18.135 -2.12,-7.728 -1.103,-15.819 2.863,-22.783 8.186,-14.373 26.54,-19.408 40.914,-11.222 z"
         id="path8077" />
    </g>
  </g>
  <g
     transform="matrix(0.52695301,0,0,0.52695301,67.740484,58.553707)"
     id="g8107">
    <path
       style="fill:none;stroke:#000000;stroke-width:3.96875;stroke-linecap:round;stroke-linejoin:miter;stroke-miterlimit:4;stroke-dasharray:none;stroke-opacity:1"
       d="m 60.616729,-60.990905 v 18.708867"
       id="path8103" />
    <path
       id="path8105"
       d="M 69.971162,-51.636471 H 51.262295"
       style="fill:none;stroke:#000000;stroke-width:3.96875;stroke-linecap:round;stroke-linejoin:miter;stroke-miterlimit:4;stroke-dasharray:none;stroke-opacity:1" />
  </g>
  <text
     transform="matrix(2.3926543,0,0,2.3926543,-156.85444,35.140748)"
     style="font-style:normal;font-variant:normal;font-weight:bold;font-stretch:normal;font-size:10.5833px;line-height:1.25;font-family:sans-serif;-inkscape-font-specification:'sans-serif Bold';white-space:pre;shape-inside:url(#rect8111);fill:#000000;fill-opacity:1;stroke:none;"
     id="text8109"
     xml:space="preserve"><tspan
       x="111.20703"
       y="2.2140589"><tspan
         style="font-style:normal;font-variant:normal;font-weight:bold;font-stretch:normal;font-family:sans-serif;-inkscape-font-specification:'sans-serif Bold'">O</tspan></tspan></text>
</svg>
