<?xml version="1.0" encoding="UTF-8" standalone="no"?>
<svg
   xmlns:dc="http://purl.org/dc/elements/1.1/"
   xmlns:cc="http://creativecommons.org/ns#"
   xmlns:rdf="http://www.w3.org/1999/02/22-rdf-syntax-ns#"
   xmlns:svg="http://www.w3.org/2000/svg"
   xmlns="http://www.w3.org/2000/svg"
   width="500"
   height="250"
   viewBox="0 0 132.29166 66.145835"
   version="1.1"
   id="svg8">
  <defs
     id="defs2">
    <rect
       id="rect16657"
       height="39.6875"
       width="52.916666"
       y="16.536458"
       x="16.123047" />
    <rect
       id="rect14952"
       height="41.217972"
       width="28.355626"
       y="11.693042"
       x="56.1266" />
    <rect
       id="rect12397"
       height="46.715494"
       width="47.955729"
       y="8.6816405"
       x="71.933593" />
    <rect
       id="rect10750"
       height="32.448191"
       width="43.55658"
       y="16.95491"
       x="54.080318" />
    <rect
       id="rect10116"
       height="31.278887"
       width="27.917137"
       y="16.808747"
       x="101.14481" />
    <rect
       id="rect9439"
       height="25.14004"
       width="57.003578"
       y="26.309344"
       x="5.2618688" />
    <rect
       id="rect8476"
       height="26.60167"
       width="35.663777"
       y="22.216779"
       x="51.449384" />
    <rect
       id="rect8111"
       height="60.358072"
       width="46.715494"
       y="-7.4414062"
       x="111.20768" />
    <rect
       id="rect5692"
       height="31.419271"
       width="28.318685"
       y="19.223633"
       x="111.62109" />
    <rect
       id="rect4959"
       height="36.793619"
       width="38.447265"
       y="12.815755"
       x="87.436523" />
    <rect
       id="rect3591"
       height="32.246093"
       width="36.586914"
       y="17.569987"
       x="2.6871745" />
    <rect
       x="33.261906"
       y="1.889881"
       width="32.127975"
       height="25.607887"
       id="rect952" />
    <rect
       x="23.718006"
       y="3.0238094"
       width="21.45015"
       height="20.127232"
       id="rect946" />
    <rect
       id="rect952-5"
       height="25.607887"
       width="32.127975"
       y="1.889881"
       x="33.261906" />
    <rect
       id="rect1246"
       height="25.607887"
       width="32.127975"
       y="1.889881"
       x="33.261906" />
    <rect
       id="rect2592"
       height="20.127232"
       width="21.45015"
       y="3.0238094"
       x="23.718006" />
    <rect
       x="23.718006"
       y="3.0238094"
       width="21.45015"
       height="20.127232"
       id="rect2600" />
    <rect
       id="rect2608"
       height="20.127232"
       width="21.45015"
       y="3.0238094"
       x="23.718006" />
    <rect
       x="2.6871746"
       y="17.569986"
       width="36.586914"
       height="32.246094"
       id="rect3591-5" />
    <rect
       x="2.6871746"
       y="17.569986"
       width="36.586914"
       height="32.246094"
       id="rect4205" />
    <rect
       x="111.20768"
       y="-7.4414062"
       width="46.715494"
       height="60.358072"
       id="rect8139" />
    <rect
       x="51.449384"
       y="22.216779"
       width="35.663777"
       height="26.60167"
       id="rect8484" />
    <rect
       x="16.123047"
       y="16.536458"
       width="52.916666"
       height="39.6875"
       id="rect16854" />
    <rect
       x="16.123047"
       y="16.536458"
       width="52.916666"
       height="39.6875"
       id="rect16860" />
  </defs>
  <metadata
     id="metadata5">
    <rdf:RDF>
      <cc:Work
         rdf:about="">
        <dc:format>image/svg+xml</dc:format>
        <dc:type
           rdf:resource="http://purl.org/dc/dcmitype/StillImage" />
        <dc:title></dc:title>
      </cc:Work>
    </rdf:RDF>
  </metadata>
  <g
     transform="matrix(0.26458333,0,0,0.26458333,71.999739,33.965621)"
     id="g14585">
</g>
  <g
     transform="matrix(0.26458333,0,0,0.26458333,71.999739,33.965621)"
     id="g14587">
</g>
  <g
     transform="matrix(0.26458333,0,0,0.26458333,71.999739,33.965621)"
     id="g14589">
</g>
  <g
     transform="matrix(0.26458333,0,0,0.26458333,71.999739,33.965621)"
     id="g14591">
</g>
  <g
     transform="matrix(0.26458333,0,0,0.26458333,71.999739,33.965621)"
     id="g14593">
</g>
  <g
     transform="matrix(0.26458333,0,0,0.26458333,71.999739,33.965621)"
     id="g14595">
</g>
  <g
     transform="matrix(0.26458333,0,0,0.26458333,71.999739,33.965621)"
     id="g14597">
</g>
  <g
     transform="matrix(0.26458333,0,0,0.26458333,71.999739,33.965621)"
     id="g14599">
</g>
  <g
     transform="matrix(0.26458333,0,0,0.26458333,71.999739,33.965621)"
     id="g14601">
</g>
  <g
     transform="matrix(0.26458333,0,0,0.26458333,71.999739,33.965621)"
     id="g14603">
</g>
  <g
     transform="matrix(0.26458333,0,0,0.26458333,71.999739,33.965621)"
     id="g14605">
</g>
  <g
     transform="matrix(0.26458333,0,0,0.26458333,71.999739,33.965621)"
     id="g14607">
</g>
  <g
     transform="matrix(0.26458333,0,0,0.26458333,71.999739,33.965621)"
     id="g14609">
</g>
  <g
     transform="matrix(0.26458333,0,0,0.26458333,71.999739,33.965621)"
     id="g14611">
</g>
  <g
     transform="matrix(0.26458333,0,0,0.26458333,71.999739,33.965621)"
     id="g14613">
</g>
  <text
     xml:space="preserve"
     id="text16858"
     style="font-style:normal;font-variant:normal;font-weight:bold;font-stretch:normal;font-size:10.5833px;line-height:1.25;font-family:sans-serif;-inkscape-font-specification:'sans-serif Bold';white-space:pre;shape-inside:url(#rect16860);fill:#000000;fill-opacity:1;stroke:none;"
     transform="matrix(1.8443661,0,0,1.8443661,27.458299,-8.6696851)"><tspan
       x="16.123047"
       y="26.192574"><tspan
         style="font-style:normal;font-variant:normal;font-weight:bold;font-stretch:normal;font-family:sans-serif;-inkscape-font-specification:'sans-serif Bold'">Y</tspan></tspan></text>
  <g
     transform="matrix(0.06901791,0,0,0.06901791,7.7937838,15.327399)"
     id="g17109">
    <g
       id="g17091">
      <path
         d="m 391.359,87.432 -55.853,94.565 v 295.578 l -25.547,19.146 h 109.91 c 13.974,0 25.303,-11.328 25.303,-25.303 V 181.997 Z"
         fill="#a6aaed"
         id="path17069" />
      <path
         d="m 391.321,87.496 0.038,-0.064 h -0.038 V 54.506 c 0,-13.486 -10.933,-24.419 -24.419,-24.419 H 163.394 c -13.487,0 -24.42,10.933 -24.42,24.419 v 32.925 h -2.36 l -63.596,94.565 v 289.421 c 0,13.975 11.329,25.303 25.303,25.303 h 211.637 c 13.974,0 25.303,-11.329 25.303,-25.303 v -289.42 z"
         fill="#ffffff"
         id="path17071" />
      <path
         d="m 72.463,460.257 c 0,0 28.195,-48.105 75.592,-48.105 47.397,0 74.365,24.516 107.87,24.516 33.505,0 75.73,-55.392 75.73,-55.392 V 264.45 c 0,0 -42.225,52.465 -75.73,52.465 -19.129,0 -36.399,-10.386 -56.513,-19.301 v 17.972 c 0,7.258 -5.884,13.142 -13.142,13.142 -7.258,0 -13.142,-5.884 -13.142,-13.142 v -27.313 c -7.064,-1.751 -14.566,-2.924 -22.645,-3.176 v 46.663 c 0,7.258 -5.884,13.142 -13.142,13.142 -7.258,0 -13.142,-5.884 -13.142,-13.142 V 288.741 C 91.086,299.56 72.463,330.413 72.463,330.413"
         fill="#96b4eb"
         id="path17073" />
      <path
         d="m 396.979,55.369 c 0,-13.963 -11.319,-25.282 -25.283,-25.282 h -66.278 c 13.963,0 25.282,11.319 25.282,25.282 v 42.754 l -45.884,83.266 v 235.837 c 0,12.003 -9.149,21.732 -20.436,21.732 H 93.455 c -11.287,0 -20.436,-9.73 -20.436,-21.732 v 54.191 c 0,13.975 11.329,25.303 25.303,25.303 h 211.636 c 13.975,0 25.303,-11.329 25.303,-25.303 v -289.42 l 41.288,-69.601 z"
         fill="#e1bdfc"
         id="path17075" />
      <path
         d="m 284.816,306.988 v 110.238 c 0,3.846 -0.948,7.451 -2.596,10.585 25.881,-15.643 49.433,-46.536 49.433,-46.536 V 264.45 c 10e-4,0 -21.998,27.33 -46.837,42.538 z"
         fill="#8286ea"
         id="path17077" />
      <path
         d="m 241.195,137.264 c 0,16.143 -22.469,29.229 -50.186,29.229 -27.717,0 -50.186,-13.086 -50.186,-29.229 l 0.005,-28.577 100.418,0.227 z"
         fill="#a6aaed"
         id="path17079" />
      <ellipse
         cx="191.009"
         cy="108.586"
         fill="#c1e5ef"
         rx="50.186001"
         ry="29.229"
         id="ellipse17081" />
    </g>
    <g
       fill="#3c122c"
       id="g17107">
      <path
         d="m 269.405,391.371 c -3.342,0 -6.052,-2.71 -6.052,-6.052 v -12.865 c 0,-3.342 2.71,-6.052 6.052,-6.052 3.342,0 6.052,2.71 6.052,6.052 v 12.865 c 0,3.343 -2.71,6.052 -6.052,6.052 z"
         id="path17093" />
      <path
         d="m 293.124,363.928 c -3.342,0 -6.052,-2.71 -6.052,-6.052 V 345.01 c 0,-3.342 2.71,-6.052 6.052,-6.052 3.342,0 6.052,2.71 6.052,6.052 v 12.866 c 0,3.342 -2.71,6.052 -6.052,6.052 z"
         id="path17095" />
      <path
         d="M 453.937,177.008 401.408,84.696 V 54.506 C 401.408,35.479 385.928,20 366.902,20 H 163.394 c -19.027,0 -34.505,15.479 -34.505,34.506 v 26.457 c -0.225,0.269 -0.445,0.544 -0.643,0.839 L 64.65,176.367 c -1.119,1.664 -1.717,3.624 -1.717,5.629 v 289.421 c 0,19.514 15.876,35.39 35.39,35.39 h 109.91 101.726 109.91 c 19.513,0 35.389,-15.876 35.389,-35.39 v -289.42 c -10e-4,-1.749 -0.456,-3.468 -1.321,-4.989 z m -62.759,-69.5 39.797,69.937 H 349.69 Z M 163.394,40.174 h 203.508 c 7.903,0 14.333,6.43 14.333,14.333 V 77.346 H 217.528 c -7.859,-2.582 -16.866,-4.04 -26.519,-4.04 -9.653,0 -18.659,1.458 -26.519,4.04 h -15.428 v -22.84 c -0.001,-7.903 6.429,-14.332 14.332,-14.332 z m 71.749,68.412 c 0,11.193 -17.734,23.177 -44.134,23.177 -26.4,0 -44.134,-11.984 -44.134,-23.177 0,-11.193 17.734,-23.177 44.134,-23.177 26.399,0 44.134,11.984 44.134,23.177 z m -88.267,22.098 c 10.22,8.08 26.047,13.183 44.133,13.183 18.093,0 33.926,-5.108 44.146,-13.193 l -0.012,6.579 v 0.011 c 0,11.193 -17.734,23.177 -44.134,23.177 -26.4,0 -44.134,-11.984 -44.134,-23.176 z m -12.091,-22.456 c -0.002,0.12 -0.014,0.238 -0.014,0.358 0,0.042 0.005,0.084 0.005,0.126 l -0.005,28.552 c 0,19.784 24.702,35.281 56.238,35.281 31.535,0 56.238,-15.497 56.238,-35.281 l 0.051,-28.34 c 0.001,-0.307 -0.029,-0.606 -0.073,-0.901 -0.088,-3.679 -1.029,-7.205 -2.712,-10.505 h 129.134 l -47.061,79.332 c -0.114,0.192 -0.2,0.396 -0.3,0.594 H 88.235 Z m -51.68,217.776 c 6.463,-8.077 18.471,-20.756 35.041,-28.391 v 34.147 c 0,10.584 8.61,19.194 19.194,19.194 10.583,0 19.193,-8.611 19.193,-19.194 v -40.222 c 3.504,0.332 7.001,0.854 10.542,1.573 v 22.475 c 0,10.584 8.61,19.194 19.193,19.194 10.584,0 19.194,-8.61 19.194,-19.194 v -8.541 c 1.049,0.492 2.089,0.982 3.121,1.468 15.777,7.432 30.68,14.453 47.34,14.453 25.288,0 53.867,-25.913 69.251,-42.099 v 98.875 c -12.677,15.979 -45.346,50.874 -69.251,50.874 -14.228,0 -27.238,-4.773 -42.303,-10.301 -18.16,-6.663 -38.742,-14.215 -65.566,-14.215 -29.176,0 -51.287,16.497 -64.949,30.757 z m 242.07,-63.212 c -12.762,15.187 -45.366,48.071 -69.251,48.071 -13.953,0 -27.034,-6.163 -42.182,-13.299 -3.833,-1.806 -7.797,-3.673 -11.879,-5.482 -1.871,-0.829 -4.035,-0.656 -5.753,0.46 -1.716,1.116 -2.751,3.025 -2.751,5.073 v 17.972 c 0,3.909 -3.181,7.09 -7.09,7.09 -3.908,0 -7.089,-3.181 -7.089,-7.09 v -27.313 c 0,-2.782 -1.896,-5.205 -4.596,-5.874 -8.094,-2.006 -15.916,-3.102 -23.913,-3.351 -1.659,-0.056 -3.225,0.564 -4.4,1.704 -1.176,1.14 -1.84,2.708 -1.84,4.346 v 46.662 c 0,3.91 -3.181,7.09 -7.089,7.09 -3.91,0 -7.09,-3.181 -7.09,-7.09 v -43.019 c 0,-1.939 -0.929,-3.761 -2.499,-4.899 -1.57,-1.139 -3.59,-1.456 -5.432,-0.853 -16.775,5.481 -29.954,15.635 -39.214,24.847 V 189.549 h 242.07 v 73.243 z M 208.232,486.635 H 98.322 c -8.39,0 -15.217,-6.826 -15.217,-15.217 v -15.891 c 9.889,-12.909 32.839,-37.323 64.949,-37.323 24.674,0 43.342,6.85 61.397,13.474 15.477,5.678 30.094,11.042 46.473,11.042 25.304,0 53.838,-27.246 69.251,-44.342 v 73.04 c 0,8.391 -6.826,15.217 -15.217,15.217 z m 211.636,0 h -77.964 c 2.206,-4.612 3.444,-9.772 3.444,-15.217 V 189.549 h 89.736 v 281.869 c 0,8.39 -6.825,15.217 -15.216,15.217 z"
         id="path17097" />
    </g>
  </g>
  <g
     transform="matrix(0.07274436,0,0,0.07274436,83.464459,14.410285)"
     id="g17228">
    <path
       d="M 347.286,203.876 C 126.096,128.287 275.24,37.734 350.306,2.023 351.332,1.536 350.983,0 349.847,0 h -53.55 C 287.828,0 279.459,1.96 271.715,5.745 186.676,47.311 15.213,148.44 153.735,233.255 312.586,330.516 142.285,457.522 53.16,512 H 402.638 C 449.374,445.292 546.211,271.856 347.286,203.876 Z"
       fill="#665e68"
       id="path17188" />
    <path
       d="m 53.16,512 h 76.776 C 221.504,448.882 361.65,323.932 212.805,226.811 88.567,145.747 213.679,50.698 302.154,0 h -5.857 C 287.828,0 279.459,1.96 271.715,5.745 186.676,47.311 15.213,148.44 153.735,233.255 312.586,330.516 142.285,457.522 53.16,512 Z"
       fill="#554e56"
       id="path17190" />
    <g
       id="g17194">
      <path
         d="m 217.804,71.339 c -2.519,0 -4.988,-1.229 -6.473,-3.493 -2.342,-3.571 -1.346,-8.364 2.226,-10.706 3.419,-2.242 5.57,-3.471 5.659,-3.522 3.71,-2.115 8.433,-0.82 10.546,2.891 2.113,3.709 0.82,8.428 -2.887,10.543 -0.051,0.029 -1.892,1.087 -4.838,3.019 -1.307,0.858 -2.778,1.267 -4.233,1.268 z"
         fill="#dfebfa"
         id="path17192" />
    </g>
    <g
       fill="#dfebfa"
       id="g17214">
      <path
         d="m 291.42,441.935 c -1.882,0 -3.768,-0.683 -5.257,-2.064 -3.131,-2.904 -3.314,-7.797 -0.409,-10.927 2.814,-3.033 5.559,-6.119 8.16,-9.173 2.77,-3.251 7.65,-3.642 10.9,-0.872 3.251,2.769 3.642,7.649 0.872,10.9 -2.742,3.219 -5.634,6.47 -8.596,9.663 -1.523,1.642 -3.594,2.473 -5.67,2.473 z"
         id="path17196" />
      <path
         d="m 324.191,398.39 c -1.307,0 -2.632,-0.332 -3.846,-1.03 -3.703,-2.128 -4.978,-6.855 -2.85,-10.557 2.045,-3.559 3.931,-7.135 5.603,-10.63 1.843,-3.852 6.46,-5.481 10.312,-3.638 3.853,1.843 5.481,6.46 3.638,10.312 -1.84,3.845 -3.907,7.77 -6.147,11.663 -1.43,2.487 -4.033,3.88 -6.71,3.88 z"
         id="path17198" />
      <path
         d="m 341.594,347.113 c -0.205,0 -0.412,-0.008 -0.62,-0.025 -4.257,-0.338 -7.435,-4.062 -7.097,-8.319 0.166,-2.085 0.249,-4.179 0.249,-6.225 0.001,-1.739 -0.06,-3.49 -0.18,-5.204 -0.299,-4.26 2.913,-7.955 7.172,-8.254 4.25,-0.302 7.955,2.912 8.254,7.172 0.145,2.074 0.219,4.189 0.218,6.288 0,2.45 -0.1,4.956 -0.298,7.445 -0.32,4.049 -3.705,7.122 -7.698,7.122 z"
         id="path17200" />
      <path
         d="m 328.086,295.326 c -2.508,0 -4.969,-1.219 -6.457,-3.468 -2.069,-3.129 -4.429,-6.244 -7.016,-9.259 -2.78,-3.241 -2.407,-8.122 0.834,-10.903 3.241,-2.781 8.122,-2.408 10.903,0.834 3.004,3.501 5.755,7.134 8.178,10.797 2.355,3.562 1.378,8.359 -2.184,10.715 -1.313,0.869 -2.794,1.284 -4.258,1.284 z"
         id="path17202" />
      <path
         d="m 288.565,258.262 c -1.436,0 -2.888,-0.399 -4.183,-1.235 -3.293,-2.124 -6.791,-4.234 -10.396,-6.272 -3.718,-2.101 -5.027,-6.819 -2.926,-10.536 2.101,-3.718 6.819,-5.027 10.536,-2.926 3.865,2.185 7.622,4.452 11.166,6.737 3.589,2.315 4.622,7.1 2.308,10.689 -1.478,2.293 -3.966,3.543 -6.505,3.543 z"
         id="path17204" />
      <path
         d="m 240.155,233.18 c -1.176,0 -2.369,-0.269 -3.49,-0.837 -3.918,-1.986 -7.749,-4.019 -11.385,-6.041 -3.732,-2.076 -5.075,-6.784 -2.999,-10.516 2.076,-3.733 6.783,-5.077 10.516,-2.999 3.464,1.927 7.118,3.865 10.86,5.762 3.809,1.931 5.332,6.584 3.401,10.393 -1.362,2.688 -4.082,4.238 -6.903,4.238 z"
         id="path17206" />
      <path
         d="m 194.337,203.784 c -1.774,0 -3.556,-0.607 -5.012,-1.847 -3.501,-2.984 -6.776,-6.045 -9.733,-9.097 -2.972,-3.067 -2.894,-7.962 0.174,-10.933 3.068,-2.972 7.962,-2.893 10.933,0.174 2.616,2.7 5.529,5.422 8.657,8.088 3.25,2.77 3.64,7.65 0.869,10.9 -1.529,1.792 -3.702,2.715 -5.888,2.715 z"
         id="path17208" />
      <path
         d="m 164.402,159.356 c -3.578,0 -6.79,-2.497 -7.558,-6.138 -0.88,-4.172 -1.326,-8.433 -1.326,-12.664 -0.001,-0.547 0.007,-1.099 0.022,-1.651 0.117,-4.269 3.684,-7.617 7.941,-7.518 4.269,0.117 7.635,3.672 7.518,7.941 -0.011,0.406 -0.017,0.812 -0.016,1.22 0,3.168 0.334,6.355 0.993,9.48 0.881,4.178 -1.791,8.28 -5.97,9.161 -0.539,0.115 -1.076,0.169 -1.604,0.169 z"
         id="path17210" />
      <path
         d="m 177.873,108.162 c -1.572,0 -3.158,-0.478 -4.528,-1.47 -3.459,-2.504 -4.233,-7.339 -1.728,-10.797 2.524,-3.486 5.372,-6.991 8.465,-10.417 2.86,-3.169 7.749,-3.422 10.921,-0.559 3.17,2.861 3.42,7.75 0.559,10.921 -2.722,3.016 -5.218,6.086 -7.419,9.125 -1.512,2.088 -3.874,3.197 -6.27,3.197 z"
         id="path17212" />
    </g>
    <g
       id="g17218">
      <path
         d="m 256.006,474.787 c -2.336,0 -4.644,-1.054 -6.165,-3.059 -2.581,-3.402 -1.916,-8.252 1.486,-10.834 0.014,-0.011 1.714,-1.305 4.569,-3.666 3.291,-2.722 8.166,-2.26 10.886,1.03 2.722,3.291 2.26,8.165 -1.03,10.886 -3.133,2.592 -4.999,4.01 -5.077,4.069 -1.398,1.061 -3.04,1.574 -4.669,1.574 z"
         fill="#dfebfa"
         id="path17216" />
    </g>
    <path
       d="M 364.982,185.337 C 154.193,120.191 275.813,46.007 353.857,7.795 357.504,6.01 356.343,0 352.354,0 h -2.9 C 276.039,34.202 116.639,126.815 342.136,203.876 541.059,271.856 444.223,445.292 397.487,512 h 39.609 c 9.916,0 19.026,-6.013 23.71,-15.659 44.904,-92.457 86.811,-254.559 -95.824,-311.004 z"
       fill="#ffd301"
       id="path17220" />
    <g
       id="g17226">
      <g
         id="g17224">
        <path
           d="M 155.795,233.255 C 53.382,170.549 118.352,98.925 194.623,49.047 109.297,96.896 11.44,175.539 126.147,245.771 260.498,328.032 119.566,431.568 16.89,494.507 9.262,499.184 12.282,512 21.009,512 H 55.22 C 144.346,457.522 314.647,330.516 155.795,233.255 Z"
           fill="#ffc20c"
           id="path17222" />
      </g>
    </g>
  </g>
</svg>
