<?xml version="1.0" encoding="UTF-8" standalone="no"?>
<svg
   xmlns:dc="http://purl.org/dc/elements/1.1/"
   xmlns:cc="http://creativecommons.org/ns#"
   xmlns:rdf="http://www.w3.org/1999/02/22-rdf-syntax-ns#"
   xmlns:svg="http://www.w3.org/2000/svg"
   xmlns="http://www.w3.org/2000/svg"
   width="500"
   height="250"
   viewBox="0 0 132.29166 66.145835"
   version="1.1"
   id="svg8">
  <defs
     id="defs2">
    <rect
       id="rect12397"
       height="46.715494"
       width="47.955729"
       y="8.6816405"
       x="71.933593" />
    <rect
       id="rect10750"
       height="32.448191"
       width="43.55658"
       y="16.95491"
       x="54.080318" />
    <rect
       id="rect10116"
       height="31.278887"
       width="27.917137"
       y="16.808747"
       x="101.14481" />
    <rect
       id="rect9439"
       height="25.14004"
       width="57.003578"
       y="26.309344"
       x="5.2618688" />
    <rect
       id="rect8476"
       height="26.60167"
       width="35.663777"
       y="22.216779"
       x="51.449384" />
    <rect
       id="rect8111"
       height="60.358072"
       width="46.715494"
       y="-7.4414062"
       x="111.20768" />
    <rect
       id="rect5692"
       height="31.419271"
       width="28.318685"
       y="19.223633"
       x="111.62109" />
    <rect
       id="rect4959"
       height="36.793619"
       width="38.447265"
       y="12.815755"
       x="87.436523" />
    <rect
       id="rect3591"
       height="32.246093"
       width="36.586914"
       y="17.569987"
       x="2.6871745" />
    <rect
       x="33.261906"
       y="1.889881"
       width="32.127975"
       height="25.607887"
       id="rect952" />
    <rect
       x="23.718006"
       y="3.0238094"
       width="21.45015"
       height="20.127232"
       id="rect946" />
    <rect
       id="rect952-5"
       height="25.607887"
       width="32.127975"
       y="1.889881"
       x="33.261906" />
    <rect
       id="rect1246"
       height="25.607887"
       width="32.127975"
       y="1.889881"
       x="33.261906" />
    <rect
       id="rect2592"
       height="20.127232"
       width="21.45015"
       y="3.0238094"
       x="23.718006" />
    <rect
       x="23.718006"
       y="3.0238094"
       width="21.45015"
       height="20.127232"
       id="rect2600" />
    <rect
       id="rect2608"
       height="20.127232"
       width="21.45015"
       y="3.0238094"
       x="23.718006" />
    <rect
       x="2.6871746"
       y="17.569986"
       width="36.586914"
       height="32.246094"
       id="rect3591-5" />
    <rect
       x="2.6871746"
       y="17.569986"
       width="36.586914"
       height="32.246094"
       id="rect4205" />
    <rect
       x="111.20768"
       y="-7.4414062"
       width="46.715494"
       height="60.358072"
       id="rect8139" />
    <rect
       x="51.449384"
       y="22.216779"
       width="35.663777"
       height="26.60167"
       id="rect8484" />
  </defs>
  <metadata
     id="metadata5">
    <rdf:RDF>
      <cc:Work
         rdf:about="">
        <dc:format>image/svg+xml</dc:format>
        <dc:type
           rdf:resource="http://purl.org/dc/dcmitype/StillImage" />
        <dc:title></dc:title>
      </cc:Work>
    </rdf:RDF>
  </metadata>
  <text
     transform="matrix(2.4564416,0,0,2.4564416,-119.52804,-2.2710265)"
     style="font-style:normal;font-variant:normal;font-weight:bold;font-stretch:normal;font-size:10.5833px;line-height:1.25;font-family:sans-serif;-inkscape-font-specification:'sans-serif Bold';white-space:pre;shape-inside:url(#rect12397);fill:#000000;fill-opacity:1;stroke:none;"
     id="text12395"
     xml:space="preserve"><tspan
       x="71.933594"
       y="18.337106"><tspan
         style="font-style:normal;font-variant:normal;font-weight:bold;font-stretch:normal;font-family:sans-serif;-inkscape-font-specification:'sans-serif Bold'">E</tspan></tspan></text>
  <g
     transform="matrix(0.07944351,0,0,0.07944351,6.4291447,15.286165)"
     id="g12870">
    <g
       id="g12771">
	<path
   style="fill:#ff4f19"
   d="m 24.746,346.221 c -0.636,-1.286 -1.262,-2.579 -1.876,-3.878 0.613,1.3 1.24,2.592 1.876,3.878 z"
   id="path12683" />

	<path
   style="fill:#ff4f19"
   d="m 22.327,341.18 c -0.588,-1.263 -1.168,-2.53 -1.735,-3.804 0.566,1.275 1.147,2.541 1.735,3.804 z"
   id="path12685" />

	<path
   style="fill:#ff4f19"
   d="m 20.031,336.094 c -0.549,-1.254 -1.093,-2.512 -1.621,-3.777 0.528,1.265 1.072,2.522 1.621,3.777 z"
   id="path12687" />

	<path
   style="fill:#ff4f19"
   d="m 17.864,330.98 c -0.519,-1.265 -1.035,-2.533 -1.533,-3.809 0.498,1.277 1.014,2.544 1.533,3.809 z"
   id="path12689" />

	<path
   style="fill:#ff4f19"
   d="m 303.561,8.525 c 38.557,10.583 73.23,30.554 101.437,57.281 C 395.485,64.659 385.822,64 376,64 251.73,64 149.521,158.448 137.238,279.477 v 0 c -0.003,0.032 -0.006,0.065 -0.009,0.097 -0.001,0.014 -0.002,0.028 -0.004,0.042 31.69,5.489 67.028,8.384 102.775,8.384 41.859,0 82.789,-3.922 118.367,-11.344 14.039,-2.938 27.203,-6.406 39.141,-10.328 4.195,-1.391 8.711,0.906 10.094,5.109 1.375,4.195 -0.906,8.711 -5.109,10.094 -7.778,2.554 -16.087,4.897 -24.746,7.059 -0.101,0.083 -0.148,0.205 -0.254,0.285 l -15.656,11.742 16.289,4.492 c 3.508,0.969 5.922,4.172 5.875,7.805 -0.047,3.641 -2.531,6.789 -6.063,7.664 C 337.57,330.672 289.867,336 240,336 c -3.523,0 -6.633,-2.305 -7.656,-5.68 -1.023,-3.375 0.289,-7.023 3.219,-8.977 2.563,-1.711 2.469,-4.25 2.313,-5.258 -0.156,-1.016 -0.844,-3.469 -3.813,-4.313 l -43.789,-9.68 c -0.065,-0.015 -0.112,-0.062 -0.177,-0.078 -18.638,-1.396 -36.801,-3.486 -53.936,-6.363 -0.095,2.772 -0.16,5.552 -0.16,8.348 0,54.205 18.011,104.173 48.33,144.339 18.574,-8.458 37.683,-17.042 56.006,-16.331 28.82,1.266 43.547,-6.867 43.688,-6.953 3.828,-2.133 8.711,-0.82 10.891,2.984 2.18,3.813 0.914,8.656 -2.883,10.867 -0.734,0.438 -18.305,10.547 -52.367,9.086 -13.441,-0.686 -29.28,6.086 -44.936,13.195 0,0 0.001,0.001 0.002,0.002 -0.001,0.001 -0.002,0.001 -0.004,0.002 5.148,5.928 10.579,11.605 16.276,17.003 -12.859,-1.55 -25.402,-4.12 -37.553,-7.619 -0.001,0 -0.003,10e-4 -0.004,0.002 -0.035,-0.01 -0.07,-0.022 -0.105,-0.032 -2.008,-0.579 -4.005,-1.186 -5.992,-1.816 -1.236,-0.389 -2.461,-0.801 -3.688,-1.208 -0.474,-0.159 -0.949,-0.314 -1.421,-0.475 -5.38,-1.822 -10.685,-3.803 -15.878,-6.005 0.055,0.002 0.115,-0.003 0.171,-0.002 C 97.059,440.104 56.062,403.067 30.136,356.486 71.109,430.151 149.727,480 240,480 372.548,480 480,372.548 480,240 480,129.458 405.259,36.388 303.561,8.525 Z M 272,232 c -0.258,0.016 -0.68,-0.008 -1.023,-0.008 -11.43,0 -18.469,3.594 -26.594,7.742 -8.633,4.406 -18.18,9.281 -32.875,9.281 -3.891,0 -8.133,-0.344 -12.82,-1.125 -4.359,-0.727 -7.305,-4.852 -6.578,-9.203 0.719,-4.359 4.828,-7.352 9.203,-6.578 17.211,2.852 25.813,-1.531 35.797,-6.625 8.938,-4.57 18.742,-9.945 35.023,-9.484 4.414,0.07 7.938,3.711 7.867,8.133 -0.07,4.367 -3.641,7.867 -8,7.867 z m 62.289,-11.055 c -7.18,9.141 -24.672,10.766 -29.859,11.047 -0.149,0.008 -0.289,0.008 -0.438,0.008 -4.219,0 -7.742,-3.297 -7.977,-7.563 -0.242,-4.406 3.133,-8.18 7.539,-8.422 7.672,-0.438 16.492,-2.844 18.156,-4.961 2.727,-3.469 7.75,-4.086 11.234,-1.344 3.47,2.727 4.079,7.759 1.345,11.235 z M 205.68,333.601 c -1.523,1.516 -3.602,2.398 -5.68,2.398 -2.078,0 -4.164,-0.883 -5.68,-2.32 -1.445,-1.523 -2.32,-3.602 -2.32,-5.68 0,-2.078 0.875,-4.164 2.32,-5.68 2.961,-2.961 8.32,-2.961 11.359,0 1.516,1.516 2.32,3.602 2.32,5.68 0,2.078 -0.804,4.157 -2.319,5.602 z m 103.999,40 c -1.523,1.516 -3.602,2.398 -5.68,2.398 -2.078,0 -4.164,-0.883 -5.68,-2.32 -1.445,-1.523 -2.32,-3.602 -2.32,-5.68 0,-2.078 0.875,-4.164 2.32,-5.68 2.961,-2.961 8.32,-2.961 11.359,0 1.516,1.516 2.32,3.602 2.32,5.68 0,2.078 -0.803,4.157 -2.319,5.602 z m 64,-176.099 c -1.523,1.516 -3.602,2.398 -5.68,2.398 -2.078,0 -4.164,-0.883 -5.68,-2.32 -1.445,-1.523 -2.32,-3.602 -2.32,-5.68 0,-2.078 0.875,-4.164 2.32,-5.68 2.961,-2.961 8.32,-2.961 11.359,0 1.516,1.516 2.32,3.602 2.32,5.68 0,2.078 -0.803,4.157 -2.319,5.602 z m 32,32.099 c -1.523,1.516 -3.602,2.398 -5.68,2.398 -2.078,0 -4.164,-0.883 -5.68,-2.32 -1.445,-1.523 -2.32,-3.602 -2.32,-5.68 0,-2.078 0.875,-4.164 2.32,-5.68 2.961,-2.961 8.32,-2.961 11.359,0 1.516,1.516 2.32,3.602 2.32,5.68 0,2.078 -0.803,4.157 -2.319,5.602 z m -35.906,-99.07 c -0.602,0.141 -1.195,0.203 -1.789,0.203 -3.648,0 -6.945,-2.508 -7.789,-6.219 -0.984,-4.305 1.703,-8.594 6.016,-9.578 24.808,-5.672 46.328,-12.667 64.396,-20.713 3.315,4.328 6.492,8.763 9.511,13.315 -19.603,9.038 -43.199,16.792 -70.345,22.992 z"
   id="path12691" />

	<path
   style="fill:#ff4f19"
   d="m 27.283,351.207 c -0.696,-1.327 -1.378,-2.663 -2.05,-4.004 0.672,1.342 1.355,2.677 2.05,4.004 z"
   id="path12693" />

	<path
   style="fill:#ff4f19"
   d="m 29.933,356.127 c -0.771,-1.391 -1.525,-2.791 -2.269,-4.198 0.743,1.407 1.499,2.807 2.269,4.198 z"
   id="path12695" />

	<path
   style="fill:#ff4f19"
   d="m 2.998,277.952 c -0.143,-0.898 -0.281,-1.798 -0.414,-2.7 0.133,0.902 0.271,1.802 0.414,2.7 z"
   id="path12697" />

	<path
   style="fill:#ff4f19"
   d="m 275.665,2.641 c 1.355,0.202 2.703,0.423 4.05,0.648 -1.348,-0.224 -2.696,-0.446 -4.05,-0.648 z"
   id="path12699" />

	<path
   style="fill:#ff4f19"
   d="m 281.394,3.568 c 1.446,0.252 2.885,0.522 4.322,0.8 -1.437,-0.277 -2.876,-0.549 -4.322,-0.8 z"
   id="path12701" />

	<path
   style="fill:#ff4f19"
   d="m 0.435,254.289 c -0.047,-0.793 -0.101,-1.583 -0.14,-2.378 0.039,0.795 0.094,1.585 0.14,2.378 z"
   id="path12703" />

	<path
   style="fill:#ff4f19"
   d="m 0.146,247.974 c -0.022,-0.667 -0.054,-1.332 -0.07,-2.001 0.016,0.668 0.048,1.333 0.07,2.001 z"
   id="path12705" />

	<path
   style="fill:#ff4f19"
   d="m 269.87,1.849 c 1.265,0.157 2.523,0.334 3.782,0.511 -1.259,-0.177 -2.517,-0.354 -3.782,-0.511 z"
   id="path12707" />

	<path
   style="fill:#ff4f19"
   d="m 246.08,0.077 c 0.765,0.019 1.525,0.058 2.288,0.084 -0.763,-0.026 -1.523,-0.065 -2.288,-0.084 z"
   id="path12709" />

	<path
   style="fill:#ff4f19"
   d="m 252.11,0.303 c 0.956,0.048 1.907,0.116 2.86,0.175 -0.953,-0.058 -1.903,-0.127 -2.86,-0.175 z"
   id="path12711" />

	<path
   style="fill:#ff4f19"
   d="m 287.051,4.623 c 1.539,0.306 3.071,0.631 4.599,0.967 -1.529,-0.335 -3.061,-0.661 -4.599,-0.967 z"
   id="path12713" />

	<path
   style="fill:#ff4f19"
   d="m 292.635,5.805 c 1.633,0.366 3.259,0.75 4.879,1.149 -1.62,-0.398 -3.245,-0.784 -4.879,-1.149 z"
   id="path12715" />

	<path
   style="fill:#ff4f19"
   d="m 298.142,7.107 c 1.735,0.432 3.462,0.883 5.182,1.353 -1.72,-0.469 -3.447,-0.921 -5.182,-1.353 z"
   id="path12717" />

	<path
   style="fill:#ff4f19"
   d="m 2.149,272.147 c -0.119,-0.886 -0.236,-1.772 -0.345,-2.66 0.11,0.888 0.227,1.774 0.345,2.66 z"
   id="path12719" />

	<path
   style="fill:#ff4f19"
   d="m 1.438,266.279 c -0.095,-0.869 -0.191,-1.737 -0.276,-2.609 0.085,0.872 0.181,1.74 0.276,2.609 z"
   id="path12721" />

	<path
   style="fill:#ff4f19"
   d="m 0.866,260.34 c -0.071,-0.843 -0.146,-1.684 -0.208,-2.529 0.062,0.845 0.138,1.687 0.208,2.529 z"
   id="path12723" />

	<path
   style="fill:#ff4f19"
   d="m 258.089,0.676 c 1.073,0.08 2.141,0.181 3.21,0.276 -1.069,-0.095 -2.137,-0.196 -3.21,-0.276 z"
   id="path12725" />

	<path
   style="fill:#ff4f19"
   d="m 7.731,300.627 c -0.249,-0.956 -0.482,-1.918 -0.72,-2.879 0.238,0.961 0.471,1.923 0.72,2.879 z"
   id="path12727" />

	<path
   style="fill:#ff4f19"
   d="m 15.854,325.916 c -0.506,-1.318 -1.009,-2.638 -1.492,-3.967 0.483,1.329 0.986,2.648 1.492,3.967 z"
   id="path12729" />

	<path
   style="fill:#ff4f19"
   d="m 9.241,306.163 c -0.29,-1.011 -0.56,-2.031 -0.837,-3.047 0.277,1.017 0.548,2.036 0.837,3.047 z"
   id="path12731" />

	<path
   style="fill:#ff4f19"
   d="m 6.349,295.035 c -0.219,-0.931 -0.424,-1.867 -0.632,-2.802 0.208,0.935 0.414,1.871 0.632,2.802 z"
   id="path12733" />

	<path
   style="fill:#ff4f19"
   d="m 14.108,321.229 c -1.555,-4.322 -2.983,-8.703 -4.293,-13.136 1.31,4.432 2.739,8.814 4.293,13.136 z"
   id="path12735" />

	<path
   style="fill:#ff4f19"
   d="m 5.1,289.396 c -0.192,-0.919 -0.375,-1.842 -0.557,-2.764 0.182,0.923 0.364,1.845 0.557,2.764 z"
   id="path12737" />

	<path
   style="fill:#ff4f19"
   d="m 3.981,283.7 c -0.167,-0.907 -0.327,-1.817 -0.483,-2.728 0.157,0.911 0.317,1.82 0.483,2.728 z"
   id="path12739" />

	<path
   style="fill:#ff4f19"
   d="m 264.01,1.192 c 1.172,0.117 2.338,0.254 3.506,0.387 -1.168,-0.133 -2.334,-0.27 -3.506,-0.387 z"
   id="path12741" />

	<path
   style="fill:#db3f3d"
   d="m 146.532,461.038 c -0.055,-0.001 -0.116,0.004 -0.171,0.002 5.193,2.203 10.499,4.183 15.878,6.005 0.472,0.162 0.948,0.317 1.421,0.475 1.227,0.407 2.452,0.819 3.688,1.208 1.986,0.63 3.983,1.236 5.992,1.816 0.035,0.01 0.07,0.022 0.105,0.032 0.001,0 0.003,-0.001 0.004,-0.002 12.15,3.499 24.694,6.069 37.553,7.619 -5.697,-5.398 -11.128,-11.075 -16.276,-17.003 -1.46,0.663 -2.921,1.326 -4.375,1.989 -5.725,2.606 -11.35,5.158 -16.817,7.36 -0.763,-0.219 -1.527,-0.437 -2.288,-0.663 -2.699,-0.804 -5.369,-1.67 -8.03,-2.559 -1.713,-0.578 -3.439,-1.131 -5.135,-1.747 -1.86,-0.668 -3.681,-1.418 -5.519,-2.133 -2.014,-0.789 -4.034,-1.565 -6.021,-2.406 9.272,0.228 23.412,-6.149 37.177,-12.414 0.22,-0.1 0.441,-0.2 0.662,-0.3 3.32,4.398 6.74,8.715 10.348,12.87 15.656,-7.109 31.495,-13.881 44.936,-13.195 34.063,1.461 51.633,-8.648 52.367,-9.086 3.797,-2.211 5.063,-7.055 2.883,-10.867 -2.18,-3.805 -7.063,-5.117 -10.891,-2.984 -0.141,0.086 -14.867,8.219 -43.688,6.953 -18.323,-0.711 -37.432,7.873 -56.006,16.331 C 154.011,408.173 136,358.205 136,304 c 0,-2.796 0.065,-5.575 0.16,-8.348 17.136,2.878 35.298,4.968 53.936,6.363 0.065,0.016 0.111,0.063 0.177,0.078 l 43.789,9.68 c 2.969,0.844 3.656,3.297 3.813,4.313 0.156,1.008 0.25,3.547 -2.313,5.258 -2.93,1.953 -4.242,5.602 -3.219,8.977 1.023,3.375 4.133,5.679 7.657,5.679 49.867,0 97.57,-5.328 137.937,-15.422 3.531,-0.875 6.016,-4.023 6.063,-7.664 0.047,-3.633 -2.367,-6.836 -5.875,-7.805 l -16.289,-4.492 15.656,-11.742 c 0.106,-0.08 0.153,-0.201 0.254,-0.285 8.658,-2.162 16.968,-4.505 24.746,-7.059 4.203,-1.383 6.484,-5.898 5.109,-10.094 -1.383,-4.203 -5.898,-6.5 -10.094,-5.109 -11.938,3.922 -25.102,7.391 -39.141,10.328 C 322.789,284.078 281.859,288 240,288 c -35.747,0 -71.085,-2.895 -102.775,-8.384 0.001,-0.014 0.002,-0.028 0.004,-0.042 -0.534,5.292 -0.831,10.651 -1.017,16.039 -3.252,-0.546 -6.532,-1.072 -9.705,-1.676 -4.344,-0.828 -7.195,-5.016 -6.367,-9.352 0.82,-4.344 5.008,-7.188 9.352,-6.367 2.503,0.477 5.193,0.816 7.745,1.259 C 149.521,158.448 251.73,64 376,64 c 9.822,0 19.485,0.659 28.998,1.806 C 376.79,39.079 342.118,19.108 303.561,8.525 303.482,8.503 303.403,8.482 303.324,8.461 301.605,7.991 299.877,7.54 298.142,7.108 297.934,7.056 297.724,7.006 297.515,6.955 295.895,6.556 294.269,6.172 292.636,5.806 292.308,5.732 291.978,5.663 291.65,5.591 290.122,5.255 288.59,4.931 287.051,4.624 286.607,4.536 286.161,4.454 285.717,4.368 284.28,4.09 282.841,3.82 281.395,3.568 280.837,3.471 280.275,3.383 279.716,3.29 278.369,3.065 277.02,2.844 275.666,2.642 274.997,2.542 274.324,2.455 273.653,2.36 272.394,2.183 271.136,2.006 269.871,1.849 269.089,1.752 268.301,1.67 267.517,1.58 266.35,1.446 265.184,1.309 264.011,1.193 263.11,1.103 262.204,1.032 261.301,0.952 260.232,0.858 259.164,0.757 258.091,0.676 257.055,0.599 256.012,0.542 254.972,0.478 254.019,0.419 253.068,0.35 252.112,0.303 250.868,0.241 249.618,0.204 248.369,0.161 247.606,0.135 246.846,0.096 246.081,0.077 244.059,0.027 242.033,0 240,0 134.986,0 45.739,67.453 13.186,161.39 c 0.463,-1.356 0.939,-2.706 1.431,-4.048 0.176,0.157 0.398,0.225 0.563,0.4 12.797,13.672 36.086,26.328 67.344,36.594 4.203,1.383 6.484,5.898 5.109,10.094 -1.109,3.375 -4.234,5.508 -7.602,5.508 -0.828,0 -1.664,-0.125 -2.492,-0.398 -29.783,-9.778 -53.172,-21.912 -68.33,-35.342 1.216,-4.272 2.51,-8.51 3.935,-12.688 C 4.635,186.105 0,212.51 0,240 c 0,1.997 0.027,3.987 0.076,5.973 0.016,0.669 0.049,1.334 0.07,2.001 0.043,1.314 0.086,2.628 0.15,3.937 0.039,0.795 0.093,1.585 0.14,2.378 0.069,1.176 0.137,2.351 0.223,3.522 0.062,0.845 0.137,1.686 0.208,2.529 0.094,1.112 0.187,2.223 0.296,3.33 0.085,0.872 0.181,1.74 0.276,2.609 0.117,1.071 0.236,2.141 0.367,3.208 0.109,0.889 0.226,1.775 0.345,2.66 0.139,1.037 0.282,2.072 0.434,3.105 0.133,0.902 0.271,1.802 0.414,2.7 0.16,1.009 0.327,2.015 0.5,3.02 0.157,0.911 0.316,1.821 0.483,2.728 0.18,0.98 0.37,1.956 0.562,2.932 0.182,0.923 0.364,1.845 0.557,2.764 0.198,0.948 0.408,1.893 0.618,2.837 0.208,0.935 0.413,1.871 0.632,2.802 0.213,0.907 0.439,1.81 0.662,2.713 0.237,0.961 0.471,1.923 0.72,2.879 0.217,0.833 0.448,1.66 0.674,2.489 0.277,1.017 0.547,2.036 0.837,3.047 0.185,0.646 0.384,1.286 0.574,1.929 1.31,4.433 2.738,8.815 4.293,13.136 0.086,0.239 0.167,0.481 0.254,0.72 0.483,1.329 0.986,2.649 1.492,3.967 0.16,0.418 0.315,0.839 0.477,1.255 0.498,1.276 1.014,2.544 1.533,3.809 0.183,0.445 0.361,0.892 0.546,1.336 0.528,1.266 1.072,2.523 1.621,3.777 0.187,0.427 0.371,0.856 0.561,1.283 0.567,1.274 1.147,2.541 1.735,3.804 0.181,0.388 0.36,0.776 0.543,1.163 0.614,1.299 1.24,2.592 1.876,3.878 0.162,0.327 0.324,0.655 0.488,0.981 0.671,1.342 1.354,2.677 2.05,4.004 0.126,0.241 0.254,0.481 0.381,0.722 0.744,1.407 1.499,2.808 2.269,4.198 0.067,0.12 0.134,0.239 0.201,0.359 25.923,46.584 66.92,83.62 116.394,104.554 z M 170.32,74.32 c 2.961,-2.961 8.32,-2.961 11.359,0 1.516,1.516 2.32,3.602 2.32,5.68 0,2.078 -0.805,4.156 -2.32,5.602 C 180.156,87.117 178.078,88 176,88 173.922,88 171.836,87.117 170.32,85.68 168.875,84.156 168,82.078 168,80 c 0,-2.078 0.875,-4.164 2.32,-5.68 z m -65.485,31.708 c 6.196,-9.737 17.263,-13.784 24.718,-9.04 7.455,4.744 8.476,16.483 2.28,26.22 -6.196,9.737 -17.262,13.784 -24.718,9.04 -7.456,-4.744 -8.476,-16.483 -2.28,-26.22 z m -49.2,168.79 c -1.982,-9.17 2.103,-17.834 9.124,-19.352 7.021,-1.518 14.32,4.686 16.302,13.856 1.982,9.17 -2.103,17.834 -9.124,19.352 -7.021,1.517 -14.32,-4.687 -16.302,-13.856 z"
   id="path12743" />

	<path
   style="fill:#db3f3d"
   d="m 272.133,216 c -16.281,-0.461 -26.086,4.914 -35.023,9.484 -9.984,5.094 -18.586,9.477 -35.797,6.625 -4.375,-0.773 -8.484,2.219 -9.203,6.578 -0.727,4.352 2.219,8.477 6.578,9.203 4.688,0.781 8.93,1.125 12.82,1.125 14.695,0 24.242,-4.875 32.875,-9.281 8.125,-4.148 15.164,-7.742 26.594,-7.742 0.344,0 0.766,0.023 1.023,0.008 4.359,0 7.93,-3.5 8,-7.867 0.07,-4.422 -3.453,-8.063 -7.867,-8.133 z"
   id="path12745" />

	<path
   style="fill:#db3f3d"
   d="m 332.945,209.711 c -3.484,-2.742 -8.508,-2.125 -11.234,1.344 -1.664,2.117 -10.484,4.523 -18.156,4.961 -4.406,0.242 -7.781,4.016 -7.539,8.422 0.234,4.266 3.758,7.563 7.977,7.563 0.148,0 0.289,0 0.438,-0.008 5.187,-0.281 22.68,-1.906 29.859,-11.047 2.733,-3.477 2.124,-8.509 -1.345,-11.235 z"
   id="path12747" />

	
		<ellipse
   transform="matrix(-0.5369,0.8437,-0.8437,-0.5369,278.5632,76.3195)"
   style="fill:#a03939"
   cx="118.334"
   cy="114.618"
   rx="20.896999"
   ry="16"
   id="ellipse12749" />

	
		<ellipse
   transform="matrix(0.9774,-0.2113,0.2113,0.9774,-55.9416,20.5831)"
   style="fill:#a03939"
   cx="68.348"
   cy="272.069"
   rx="13.006"
   ry="16.987"
   id="ellipse12751" />

	<path
   style="fill:#a03939"
   d="m 176,88 c 2.078,0 4.156,-0.883 5.68,-2.398 1.515,-1.446 2.32,-3.524 2.32,-5.602 0,-2.078 -0.805,-4.164 -2.32,-5.68 -3.039,-2.961 -8.398,-2.961 -11.359,0 C 168.875,75.836 168,77.922 168,80 c 0,2.078 0.875,4.156 2.32,5.68 1.516,1.437 3.602,2.32 5.68,2.32 z"
   id="path12753" />

	<path
   style="fill:#db3f3d"
   d="m 362.32,186.221 c -1.445,1.516 -2.32,3.602 -2.32,5.68 0,2.078 0.875,4.156 2.32,5.68 1.516,1.438 3.602,2.32 5.68,2.32 2.078,0 4.156,-0.883 5.68,-2.398 1.516,-1.445 2.32,-3.523 2.32,-5.602 0,-2.079 -0.805,-4.164 -2.32,-5.68 -3.04,-2.961 -8.399,-2.961 -11.36,0 z"
   id="path12755" />

	<path
   style="fill:#db3f3d"
   d="m 394.32,218.32 c -1.445,1.516 -2.32,3.602 -2.32,5.68 0,2.078 0.875,4.156 2.32,5.68 1.516,1.438 3.602,2.32 5.68,2.32 2.078,0 4.156,-0.883 5.68,-2.398 1.516,-1.445 2.32,-3.523 2.32,-5.602 0,-2.079 -0.805,-4.164 -2.32,-5.68 -3.04,-2.961 -8.399,-2.961 -11.36,0 z"
   id="path12757" />

	<path
   style="fill:#db3f3d"
   d="m 194.32,322.32 c -1.445,1.516 -2.32,3.602 -2.32,5.68 0,2.078 0.875,4.156 2.32,5.68 1.516,1.438 3.602,2.32 5.68,2.32 2.078,0 4.156,-0.883 5.68,-2.398 1.516,-1.445 2.32,-3.523 2.32,-5.602 0,-2.079 -0.805,-4.164 -2.32,-5.68 -3.039,-2.961 -8.399,-2.961 -11.36,0 z"
   id="path12759" />

	<path
   style="fill:#db3f3d"
   d="m 298.32,362.32 c -1.445,1.516 -2.32,3.602 -2.32,5.68 0,2.078 0.875,4.156 2.32,5.68 1.516,1.438 3.602,2.32 5.68,2.32 2.078,0 4.156,-0.883 5.68,-2.398 1.516,-1.445 2.32,-3.523 2.32,-5.602 0,-2.079 -0.805,-4.164 -2.32,-5.68 -3.04,-2.961 -8.399,-2.961 -11.36,0 z"
   id="path12761" />

	<path
   style="fill:#a03939"
   d="m 120.141,284.586 c -0.828,4.336 2.023,8.523 6.367,9.352 3.173,0.604 6.453,1.13 9.705,1.676 0.185,-5.388 0.482,-10.747 1.017,-16.039 0.003,-0.032 0.005,-0.065 0.009,-0.097 v 0 c -2.552,-0.443 -5.243,-0.782 -7.745,-1.259 -4.346,-0.821 -8.533,2.023 -9.353,6.367 z"
   id="path12763" />

	<path
   style="fill:#a03939"
   d="m 77.539,209.539 c 0.828,0.273 1.664,0.398 2.492,0.398 3.367,0 6.492,-2.133 7.602,-5.508 1.375,-4.195 -0.906,-8.711 -5.109,-10.094 -31.258,-10.266 -54.547,-22.922 -67.344,-36.594 -0.164,-0.175 -0.387,-0.243 -0.563,-0.4 -0.492,1.342 -0.968,2.692 -1.431,4.048 -0.014,0.04 -0.028,0.079 -0.042,0.119 -1.425,4.178 -2.719,8.417 -3.935,12.688 15.158,13.431 38.547,25.565 68.33,35.343 z"
   id="path12765" />

	<path
   style="fill:#a03939"
   d="m 184.38,448.317 c -0.22,0.1 -0.442,0.2 -0.662,0.3 -13.765,6.265 -27.904,12.642 -37.177,12.414 1.987,0.841 4.007,1.618 6.021,2.406 1.838,0.714 3.659,1.464 5.519,2.133 1.696,0.616 3.421,1.169 5.135,1.747 2.661,0.889 5.331,1.755 8.03,2.559 0.76,0.227 1.524,0.444 2.288,0.663 5.467,-2.202 11.092,-4.754 16.817,-7.36 1.454,-0.663 2.915,-1.326 4.375,-1.989 0.001,-10e-4 0.002,-10e-4 0.004,-0.002 -10e-4,-10e-4 -10e-4,-10e-4 -10e-4,-10e-4 -3.608,-4.155 -7.029,-8.472 -10.349,-12.87 z"
   id="path12767" />

	<path
   style="fill:#db3f3d"
   d="m 430.607,94.224 c -18.068,8.047 -39.588,15.041 -64.396,20.713 -4.313,0.984 -7,5.273 -6.016,9.578 0.844,3.711 4.141,6.219 7.789,6.219 0.594,0 1.188,-0.063 1.789,-0.203 27.146,-6.2 50.742,-13.954 70.345,-22.992 -3.02,-4.552 -6.196,-8.987 -9.511,-13.315 z"
   id="path12769" />

</g>
    <g
       id="g12773">
</g>
    <g
       id="g12775">
</g>
    <g
       id="g12777">
</g>
    <g
       id="g12779">
</g>
    <g
       id="g12781">
</g>
    <g
       id="g12783">
</g>
    <g
       id="g12785">
</g>
    <g
       id="g12787">
</g>
    <g
       id="g12789">
</g>
    <g
       id="g12791">
</g>
    <g
       id="g12793">
</g>
    <g
       id="g12795">
</g>
    <g
       id="g12797">
</g>
    <g
       id="g12799">
</g>
    <g
       id="g12801">
</g>
  </g>
  <g
     transform="matrix(0.0676061,0,0,0.0676061,89.582037,17.333498)"
     id="g12951">
    <path
       d="m 491,128.984 v 254.034 c 0,12.6 -7.252,24.078 -18.638,29.498 L 270.076,508.819 C 265.628,510.943 260.808,512 256,512 c -4.808,0 -9.617,-1.057 -14.065,-3.181 L 39.639,412.516 C 28.252,407.096 21,395.618 21,383.018 V 128.984 c 0,-6.546 1.952,-12.788 5.441,-18.038 3.206,-4.858 7.731,-8.866 13.204,-11.459 l 202.29,-96.31 c 8.897,-4.237 19.234,-4.237 28.142,0 l 202.29,96.31 c 5.473,2.592 9.987,6.601 13.193,11.459 3.488,5.25 5.44,11.491 5.44,18.038 z"
       fill="#e53935"
       id="path12905" />
    <path
       d="m 485.559,110.946 c -3.206,-4.858 -7.72,-8.866 -13.193,-11.459 L 270.076,3.177 c -8.908,-4.237 -19.244,-4.237 -28.142,0 l -1.39,0.662 200.9,95.648 c 5.473,2.592 9.988,6.601 13.193,11.459 3.489,5.25 5.441,11.491 5.441,18.038 v 254.034 c 0,12.6 -7.252,24.078 -18.638,29.498 l -200.896,95.641 1.39,0.662 c 4.449,2.124 9.258,3.181 14.066,3.181 4.808,0 9.628,-1.057 14.076,-3.181 L 472.362,412.516 C 483.748,407.096 491,395.618 491,383.018 V 128.984 c 0,-6.547 -1.952,-12.788 -5.441,-18.038 z"
       fill="#d32f2f"
       id="path12907" />
    <path
       d="M 256,220.239 V 512 c -4.808,0 -9.617,-1.057 -14.065,-3.181 L 39.639,412.516 C 28.252,407.096 21,395.618 21,383.018 V 128.984 c 0,-6.546 1.952,-12.788 5.441,-18.038 z"
       fill="#f44336"
       id="path12909" />
    <path
       d="m 491,128.984 v 254.041 c 0,12.461 -7.109,23.843 -18.296,29.333 -0.109,0.054 -0.229,0.109 -0.338,0.163 L 270.076,508.82 C 265.628,510.943 260.808,512 256,512 V 220.239 L 485.559,110.946 c 3.489,5.25 5.441,11.491 5.441,18.038 z"
       fill="#d32f2f"
       id="path12911" />
    <path
       d="m 485.559,110.946 -25.994,12.376 c 0.326,1.851 0.513,3.741 0.513,5.662 v 254.041 c 0,12.461 -7.109,23.843 -18.296,29.333 -0.109,0.054 -0.229,0.109 -0.338,0.163 L 256,500.801 V 512 c 4.808,0 9.628,-1.057 14.076,-3.181 l 202.29,-96.299 c 0.109,-0.054 0.229,-0.109 0.338,-0.163 C 483.891,406.867 491,395.485 491,383.024 v -254.04 c 0,-6.547 -1.952,-12.788 -5.441,-18.038 z"
       fill="#c62828"
       id="path12913" />
    <g
       fill="#f1f1f1"
       id="g12929">
      <ellipse
         cx="389.64001"
         cy="306.50699"
         rx="26.736"
         ry="19.708"
         transform="matrix(0.134,-0.991,0.991,0.134,33.735,651.612)"
         id="ellipse12915" />
      <ellipse
         cx="190.492"
         cy="263.25201"
         rx="19.607"
         ry="26.736"
         transform="matrix(0.999,-0.055,0.055,0.999,-14.066,10.775)"
         id="ellipse12917" />
      <ellipse
         cx="78.302002"
         cy="360.19299"
         rx="19.607"
         ry="26.736"
         transform="matrix(0.999,-0.055,0.055,0.999,-19.517,4.803)"
         id="ellipse12919" />
      <ellipse
         cx="161.08299"
         cy="104.225"
         rx="26.736"
         ry="19.607"
         transform="matrix(0.999,-0.055,0.055,0.999,-5.442,8.935)"
         id="ellipse12921" />
      <ellipse
         cx="253.668"
         cy="58.477001"
         rx="26.736"
         ry="19.607"
         transform="matrix(0.999,-0.055,0.055,0.999,-2.81,13.914)"
         id="ellipse12923" />
      <ellipse
         cx="350.60901"
         cy="107.492"
         rx="26.736"
         ry="19.607"
         transform="matrix(0.999,-0.055,0.055,0.999,-5.338,19.27)"
         id="ellipse12925" />
      <ellipse
         cx="260.203"
         cy="149.972"
         rx="26.736"
         ry="19.607"
         transform="matrix(0.999,-0.055,0.055,0.999,-7.788,14.406)"
         id="ellipse12927" />
    </g>
  </g>
</svg>
