<?xml version="1.0" encoding="UTF-8" standalone="no"?>
<svg
   xmlns:dc="http://purl.org/dc/elements/1.1/"
   xmlns:cc="http://creativecommons.org/ns#"
   xmlns:rdf="http://www.w3.org/1999/02/22-rdf-syntax-ns#"
   xmlns:svg="http://www.w3.org/2000/svg"
   xmlns="http://www.w3.org/2000/svg"
   width="500"
   height="250"
   viewBox="0 0 132.29166 66.145835"
   version="1.1"
   id="svg8">
  <defs
     id="defs2">
    <rect
       id="rect12397"
       height="46.715494"
       width="47.955729"
       y="8.6816405"
       x="71.933593" />
    <rect
       id="rect10750"
       height="32.448191"
       width="43.55658"
       y="16.95491"
       x="54.080318" />
    <rect
       id="rect10116"
       height="31.278887"
       width="27.917137"
       y="16.808747"
       x="101.14481" />
    <rect
       id="rect9439"
       height="25.14004"
       width="57.003578"
       y="26.309344"
       x="5.2618688" />
    <rect
       id="rect8476"
       height="26.60167"
       width="35.663777"
       y="22.216779"
       x="51.449384" />
    <rect
       id="rect8111"
       height="60.358072"
       width="46.715494"
       y="-7.4414062"
       x="111.20768" />
    <rect
       id="rect5692"
       height="31.419271"
       width="28.318685"
       y="19.223633"
       x="111.62109" />
    <rect
       id="rect4959"
       height="36.793619"
       width="38.447265"
       y="12.815755"
       x="87.436523" />
    <rect
       id="rect3591"
       height="32.246093"
       width="36.586914"
       y="17.569987"
       x="2.6871745" />
    <rect
       x="33.261906"
       y="1.889881"
       width="32.127975"
       height="25.607887"
       id="rect952" />
    <rect
       x="23.718006"
       y="3.0238094"
       width="21.45015"
       height="20.127232"
       id="rect946" />
    <rect
       id="rect952-5"
       height="25.607887"
       width="32.127975"
       y="1.889881"
       x="33.261906" />
    <rect
       id="rect1246"
       height="25.607887"
       width="32.127975"
       y="1.889881"
       x="33.261906" />
    <rect
       id="rect2592"
       height="20.127232"
       width="21.45015"
       y="3.0238094"
       x="23.718006" />
    <rect
       x="23.718006"
       y="3.0238094"
       width="21.45015"
       height="20.127232"
       id="rect2600" />
    <rect
       id="rect2608"
       height="20.127232"
       width="21.45015"
       y="3.0238094"
       x="23.718006" />
    <rect
       x="2.6871746"
       y="17.569986"
       width="36.586914"
       height="32.246094"
       id="rect3591-5" />
    <rect
       x="2.6871746"
       y="17.569986"
       width="36.586914"
       height="32.246094"
       id="rect4205" />
    <rect
       x="111.20768"
       y="-7.4414062"
       width="46.715494"
       height="60.358072"
       id="rect8139" />
    <rect
       x="51.449384"
       y="22.216779"
       width="35.663777"
       height="26.60167"
       id="rect8484" />
  </defs>
  <metadata
     id="metadata5">
    <rdf:RDF>
      <cc:Work
         rdf:about="">
        <dc:format>image/svg+xml</dc:format>
        <dc:type
           rdf:resource="http://purl.org/dc/dcmitype/StillImage" />
        <dc:title></dc:title>
      </cc:Work>
    </rdf:RDF>
  </metadata>
  <g
     transform="matrix(0.07950217,0,0,0.07950217,12.749156,13.533307)"
     id="g14275">
    <path
       d="m 126.959,512 c -9.771,0 -17.691,-7.921 -17.691,-17.691 v -17.691 h 35.382 v 17.691 c 0,9.77 -7.92,17.691 -17.691,17.691 z"
       fill="#5e54ac"
       id="path14211" />
    <path
       d="m 385.041,512 c 9.771,0 17.691,-7.921 17.691,-17.691 V 476.618 H 367.35 v 17.691 c 0,9.77 7.92,17.691 17.691,17.691 z"
       fill="#5e54ac"
       id="path14213" />
    <path
       d="M 89.496,330.927 V 62.439 C 89.496,27.955 117.451,0 151.935,0 h 208.13 c 34.484,0 62.439,27.955 62.439,62.439 v 268.488 z"
       fill="#e49824"
       id="path14215" />
    <path
       d="m 360.065,0 h -29.138 c 34.484,0 62.439,27.955 62.439,62.439 v 112.708 c 0,5.785 -2.407,11.31 -6.651,15.24 -17.657,16.349 -28.731,39.705 -28.731,65.613 v 74.927 h 64.52 V 62.439 C 422.504,27.955 394.549,0 360.065,0 Z"
       fill="#df8621"
       id="path14217" />
    <path
       d="m 154.016,256 v 74.927 h -64.52 v -160.85 c 37.228,10.839 64.52,45.243 64.52,85.923 z"
       fill="#df8621"
       id="path14219" />
    <path
       d="M 126.959,330.927 H 385.04 V 476.618 H 126.959 Z"
       fill="#eab14d"
       id="path14221" />
    <path
       d="m 360.065,330.927 h 24.976 v 145.691 h -24.976 z"
       fill="#e7a52e"
       id="path14223" />
    <path
       d="M 126.959,379.491 H 385.04 v 48.564 H 126.959 Z"
       fill="#e49824"
       id="path14225" />
    <path
       d="m 360.065,379.49 h 24.976 v 48.564 h -24.976 z"
       fill="#df8621"
       id="path14227" />
    <path
       d="m 126.959,330.927 v -31.22 c 0,-17.242 13.977,-31.22 31.22,-31.22 h 195.642 c 17.242,0 31.22,13.977 31.22,31.22 v 31.22 z"
       fill="#f1cb86"
       id="path14229" />
    <path
       d="m 64.52,193.561 c -34.484,0 -62.439,27.955 -62.439,62.439 0,29.465 20.416,54.147 47.87,60.712 v 118.28 c 0,22.989 18.637,41.626 41.626,41.626 h 35.382 V 256 c 0,-34.484 -27.955,-62.439 -62.439,-62.439 z"
       fill="#eab14d"
       id="path14231" />
    <path
       d="m 64.52,193.561 c -3.548,0 -7.021,0.311 -10.407,0.88 29.528,4.957 52.033,30.622 52.033,61.559 v 220.618 h 20.813 V 256 c 0,-34.484 -27.955,-62.439 -62.439,-62.439 z"
       fill="#e7a52e"
       id="path14233" />
    <circle
       cx="64.519997"
       cy="256"
       fill="#f1cb86"
       r="16.65"
       id="circle14235" />
    <path
       d="m 509.919,256 c 0,-34.484 -27.955,-62.439 -62.439,-62.439 -34.484,0 -62.439,27.955 -62.439,62.439 v 220.618 h 35.382 c 22.989,0 41.626,-18.637 41.626,-41.626 v -118.28 c 27.453,-6.565 47.87,-31.247 47.87,-60.712 z"
       fill="#eab14d"
       id="path14237" />
    <path
       d="m 465.199,196.127 c 14.549,11.432 23.906,29.173 23.906,49.112 0,25.045 -14.75,46.633 -36.033,56.579 -7.3,3.411 -11.836,10.884 -11.836,18.941 v 114.233 c 0,22.989 -18.637,41.626 -41.626,41.626 h 20.813 c 22.989,0 41.626,-18.637 41.626,-41.626 v -118.28 c 27.454,-6.565 47.87,-31.247 47.87,-60.712 0,-28.327 -18.869,-52.233 -44.72,-59.873 z"
       fill="#e7a52e"
       id="path14239" />
    <circle
       cx="447.48001"
       cy="256"
       fill="#f1cb86"
       r="16.65"
       id="circle14241" />
    <g
       fill="#eab14d"
       id="g14269">
      <g
         id="g14249">
        <circle
           cx="256"
           cy="64.519997"
           r="9.3660002"
           id="circle14243" />
        <circle
           cx="301.789"
           cy="64.519997"
           r="9.3660002"
           id="circle14245" />
        <circle
           cx="210.211"
           cy="64.519997"
           r="9.3660002"
           id="circle14247" />
      </g>
      <g
         id="g14257">
        <circle
           cx="256"
           cy="147.772"
           r="9.3660002"
           id="circle14251" />
        <circle
           cx="301.789"
           cy="147.772"
           r="9.3660002"
           id="circle14253" />
        <circle
           cx="210.211"
           cy="147.772"
           r="9.3660002"
           id="circle14255" />
      </g>
      <g
         id="g14267">
        <circle
           cx="278.89401"
           cy="110.309"
           r="9.3660002"
           id="circle14259" />
        <circle
           cx="324.68301"
           cy="110.309"
           r="9.3660002"
           id="circle14261" />
        <circle
           cx="233.106"
           cy="110.309"
           r="9.3660002"
           id="circle14263" />
        <circle
           cx="187.317"
           cy="110.309"
           r="9.3660002"
           id="circle14265" />
      </g>
    </g>
    <path
       d="m 94.617,317.609 c -1.709,-3.91 -6.264,-5.697 -10.174,-3.986 -6.909,3.018 -14.272,4.549 -21.882,4.549 -4.281,0 -8.538,-0.498 -12.658,-1.473 0.016,0.004 0.032,0.009 0.048,0.013 v 15.778 c 4.144,0.752 8.37,1.136 12.61,1.136 9.754,0 19.197,-1.966 28.069,-5.843 3.911,-1.709 5.696,-6.263 3.987,-10.174 z"
       fill="#e7a52e"
       id="path14271" />
    <path
       d="m 417.383,317.609 c 1.709,-3.91 6.264,-5.697 10.174,-3.986 6.909,3.018 14.272,4.549 21.882,4.549 4.281,0 8.538,-0.498 12.658,-1.473 -0.016,0.004 -0.032,0.009 -0.048,0.013 v 15.778 c -4.144,0.752 -8.37,1.136 -12.61,1.136 -9.754,0 -19.197,-1.966 -28.069,-5.843 -3.911,-1.709 -5.696,-6.263 -3.987,-10.174 z"
       fill="#e7a52e"
       id="path14273" />
  </g>
  <g
     transform="matrix(0.11088792,0,0,0.11088792,73.575521,10.609991)"
     id="g14390">
    <path
       d="m 201.81,98.127 c 0,0 -21.289,29.749 -21.917,37.914 -0.628,8.165 37.683,21.354 45.22,23.238 7.537,1.884 27.235,7.223 31.988,11.305 4.753,4.082 1.944,4.54 10.405,0 8.461,-4.54 10.363,-4.396 10.363,-7.537 0,-3.14 -14.604,-8.95 -21.433,-10.128 -6.83,-1.178 -54.626,-54.792 -54.626,-54.792 z"
       fill="#f7be56"
       id="path14358" />
    <path
       d="m 282.097,43.89 c -0.486,3.653 -4.984,1.332 -4.984,1.332 0,0 -2.16,1.17 -1.656,4.481 0.486,3.329 -1.008,2.177 -1.008,2.177 0,0 -0.486,0.828 -0.162,1.494 0.342,0.666 0.342,1.494 -1.62,2.321 -1.961,0.828 -0.036,3.329 -0.036,3.329 0.666,5.327 -7.99,3.167 -11.157,4.661 -3.149,1.494 -6.424,11.247 -6.424,11.247 14.936,21.486 12.597,32.679 6.586,55.029 -6.029,22.35 -13.155,67.608 -13.155,67.608 -13.244,2.411 -23.286,3.077 -30.88,2.681 -25.769,-1.332 -23.43,-14.972 -23.43,-14.972 0,0 4.319,-8.656 3.887,-20.353 -0.432,-11.679 0.432,-57.998 5.633,-75.328 5.2,-17.311 28.342,-27.587 28.342,-27.587 0,0 3.005,-10.131 1.997,-15.62 -0.99,-5.488 -7.144,-17.473 -1.997,-32.769 5.164,-15.314 17.473,-8.494 27.784,-8.656 10.311,-0.162 11.481,6.496 11.481,6.496 6.286,5.904 3.349,9.207 4.422,17.224 0,0 0.42,2.669 0.755,4.029 2.666,10.817 6.126,7.523 5.622,11.176 z"
       fill="#fcd462"
       id="path14360" />
    <path
       d="m 266.488,2.641 c -2.879,-1.92 -21.31,-6.911 -35.516,5.375 -14.206,12.287 -3.072,42.043 1.92,42.619 4.992,0.576 12.094,-8.063 12.67,-14.398 0.576,-6.335 2.88,-6.143 10.175,-6.719 5.599,-0.442 4.413,7.485 3.559,11.194 -0.22,0.955 0.506,1.86 1.486,1.86 0.773,0 1.424,-0.572 1.514,-1.34 0.232,-1.992 0.651,-6.052 0.896,-11.139 0.351,-7.295 2.912,-8.063 1.376,-11.711 -1.536,-3.648 -2.112,-5.183 0,-7.487 2.112,-2.304 7.705,1.12 7.705,1.12 0.602,-4.831 -2.905,-7.455 -5.785,-9.374 z"
       fill="#4d5c7d"
       id="path14362" />
    <path
       d="m 261.637,129.961 c -6.029,22.35 -13.155,67.608 -13.155,67.608 l -30.88,2.681 c -25.769,-1.332 -23.43,-14.972 -23.43,-14.972 0,0 4.319,-8.656 3.887,-20.353 -0.432,-11.679 0.432,-57.998 5.633,-75.328 5.2,-17.311 28.342,-27.587 28.342,-27.587 l 23.016,12.921 c 14.936,21.487 12.597,32.68 6.587,55.03 z"
       fill="#27a2db"
       id="path14364" />
    <path
       d="m 300.452,347.477 -5.74,-68.88 c -0.168,-2.023 -0.787,-3.983 -1.811,-5.736 l -36.021,-61.695 -8.395,-13.591 -27.982,8.395 7.195,39.175 43.972,44.371 c 0,0 -5.596,22.785 7.196,52.366 12.792,29.581 13.191,44.254 13.191,44.254 h 13.591 l 1.755,-15.536 c 10e-4,-0.001 -5.752,-8.733 -6.951,-23.123 z"
       fill="#fcd462"
       id="path14366" />
    <path
       d="m 300.099,343.244 h -20.66 c 12.205,28.646 12.619,42.89 12.619,42.89 h 13.591 l 1.755,-15.535 c 0,0 -5.753,-8.732 -6.952,-23.122 -0.095,-1.146 -0.216,-2.591 -0.353,-4.233 z"
       fill="#3ea69b"
       id="path14368" />
    <path
       d="m 189.12,218.557 c -18.304,31.574 -8.237,66.351 -8.237,66.351 0,0 -26.54,-4.118 -43.013,-2.745 -16.473,1.373 -51.708,5.034 -51.708,5.034 l -3.203,16.931 17.846,-0.457 c 25.11,5.621 71.681,5.87 87.717,5.776 3.45,-0.02 6.584,-1.948 8.182,-5.006 l 30.995,-59.297 c 0,-0.001 -20.276,-58.16 -38.579,-26.587 z"
       fill="#fcd462"
       id="path14370" />
    <path
       d="m 131.933,282.681 c -17.747,1.603 -45.771,4.515 -45.771,4.515 l -3.203,16.931 17.846,-0.458 c 8.744,1.958 19.797,3.393 31.129,4.446 v -25.434 z"
       fill="#44c4a1"
       id="path14372" />
    <path
       d="m 246.622,75.936 c -12.346,-10.371 -31.433,-2.499 -33.194,13.528 -0.023,0.213 -0.045,0.429 -0.066,0.646 -2.045,21.729 1.789,28.887 14.316,30.676 12.526,1.789 26.842,2.556 31.954,-5.368 4.219,-6.539 4.957,-24.391 -13.01,-39.482 z"
       fill="#fcd462"
       id="path14374" />
    <path
       d="m 290.691,156.87 c 0,0 4.556,-0.502 3.721,-3.066 -0.443,-1.361 -2.667,-1.41 -3.631,-1.3 1.08,-0.438 2.235,-1.284 1.758,-2.849 -0.832,-2.735 -4.034,-1.322 -5.471,-1.254 -15.083,2.227 -28.747,0.775 -40.059,-6.774 l 3.209,-43.5 c 0,0 -5.199,12.334 -7.465,22.736 l -20.616,-12.816 c 0,0 -3.072,29.182 -1.843,39.933 1.229,10.751 21.503,11.98 38.09,15.359 16.588,3.379 27.646,3.379 29.489,3.379 0,0 3.458,0.388 4.991,-0.308 2.205,-1.001 2.246,-4.834 -3.128,-4.531 0,0 4.689,0.575 5.257,-0.489 0.68,-1.276 1.462,-5.23 -4.302,-4.52 z"
       fill="#fcd462"
       id="path14376" />
    <path
       d="m 195.167,182.896 c 0,0 -5.453,13.662 -8.71,21.221 -3.257,7.559 -1.184,26.803 -1.184,26.803 l 40.298,17.989 h 7.663 c 0,0 8.29,-11.735 20.428,-17.1 12.138,-5.365 5.625,-27.691 5.625,-27.691 l -9.839,-12.486 c 0.001,-0.001 -34.32,10.445 -54.281,-8.736 z"
       fill="#4d5c7d"
       id="path14378" />
    <path
       d="m 248.496,121.48 1.349,-18.294 0.786,18.294 z"
       fill="#dc8744"
       id="path14380" />
    <path
       d="m 335.108,375.626 c -5.511,3.086 -17.721,-0.89 -23.244,-5.085 -1.446,-1.098 -3.483,-1.013 -4.701,0.333 -2.713,2.996 -8.266,7.275 -18.358,8.291 -2.062,0.208 -3.456,2.212 -3.029,4.24 l 3.447,16.372 c 0,0 2.002,4.688 12.893,3.233 12.376,-1.653 16.1,-8.855 25.76,-11.27 9.66,-2.415 24.138,-13.161 24.138,-19.065 -0.001,-5.905 -10.198,-0.806 -16.906,2.951 z"
       fill="#d5d6db"
       id="path14382" />
    <path
       d="m 352.008,372.68 c 0,5.902 -13.406,17.707 -23.07,20.119 -9.663,2.411 -13.424,9.394 -25.769,11.265 -12.345,1.889 -13.946,-4.283 -13.946,-4.283 l -0.324,-1.512 c 1.314,1.691 4.751,4.175 13.191,2.897 12.345,-1.872 16.106,-8.854 25.751,-11.265 9.357,-2.339 22.224,-13.478 23.052,-19.543 0.701,0.396 1.115,1.134 1.115,2.322 z"
       fill="#4d5c7d"
       id="path14384" />
    <path
       d="m 64.826,320.967 c 1.714,-6.079 13.159,-11.901 20.032,-12.84 1.799,-0.246 3.179,-1.746 3.089,-3.559 -0.2,-4.036 0.701,-10.989 7.118,-18.844 1.311,-1.605 0.88,-4.008 -0.856,-5.14 l -14.014,-9.139 c 0,0 -4.091,-3.226 -11.492,6.831 -7.4,10.056 -5.123,17.646 -10.246,26.185 -5.123,8.539 -7.673,26.375 -3.498,30.549 4.175,4.173 7.78,-6.643 9.867,-14.043 z"
       fill="#d5d6db"
       id="path14386" />
    <path
       d="m 54.958,335.001 c -4.174,-4.174 -3.041,-22.001 2.087,-30.539 5.128,-8.538 2.85,-16.135 10.256,-26.187 7.393,-10.065 12.89,-6.833 12.89,-6.833 l 1.298,0.84 c -2.125,-0.267 -6.311,0.407 -11.376,7.279 -7.406,10.052 -5.128,17.649 -10.243,26.174 -4.963,8.271 -6.184,25.245 -2.481,30.119 -0.776,0.216 -1.591,-0.013 -2.431,-0.853 z"
       fill="#4d5c7d"
       id="path14388" />
  </g>
</svg>
