<?xml version="1.0" encoding="UTF-8" standalone="no"?>
<svg
   xmlns:dc="http://purl.org/dc/elements/1.1/"
   xmlns:cc="http://creativecommons.org/ns#"
   xmlns:rdf="http://www.w3.org/1999/02/22-rdf-syntax-ns#"
   xmlns:svg="http://www.w3.org/2000/svg"
   xmlns="http://www.w3.org/2000/svg"
   width="500"
   height="250"
   viewBox="0 0 132.29166 66.145835"
   version="1.1"
   id="svg8">
  <defs
     id="defs2">
    <rect
       id="rect3591"
       height="32.246093"
       width="36.586914"
       y="17.569987"
       x="2.6871745" />
    <rect
       x="33.261906"
       y="1.889881"
       width="32.127975"
       height="25.607887"
       id="rect952" />
    <rect
       x="23.718006"
       y="3.0238094"
       width="21.45015"
       height="20.127232"
       id="rect946" />
    <rect
       id="rect952-5"
       height="25.607887"
       width="32.127975"
       y="1.889881"
       x="33.261906" />
    <rect
       id="rect1246"
       height="25.607887"
       width="32.127975"
       y="1.889881"
       x="33.261906" />
    <rect
       id="rect2592"
       height="20.127232"
       width="21.45015"
       y="3.0238094"
       x="23.718006" />
    <rect
       x="23.718006"
       y="3.0238094"
       width="21.45015"
       height="20.127232"
       id="rect2600" />
    <rect
       id="rect2608"
       height="20.127232"
       width="21.45015"
       y="3.0238094"
       x="23.718006" />
    <rect
       x="2.6871746"
       y="17.569986"
       width="36.586914"
       height="32.246094"
       id="rect3591-5" />
    <rect
       x="2.6871746"
       y="17.569986"
       width="36.586914"
       height="32.246094"
       id="rect4205" />
  </defs>
  <metadata
     id="metadata5">
    <rdf:RDF>
      <cc:Work
         rdf:about="">
        <dc:format>image/svg+xml</dc:format>
        <dc:type
           rdf:resource="http://purl.org/dc/dcmitype/StillImage" />
        <dc:title></dc:title>
      </cc:Work>
    </rdf:RDF>
  </metadata>
  <g
     transform="matrix(0.52695301,0,0,0.52695301,36.147146,61.547897)"
     id="g4438">
    <path
       style="fill:none;stroke:#000000;stroke-width:3.96875;stroke-linecap:round;stroke-linejoin:miter;stroke-miterlimit:4;stroke-dasharray:none;stroke-opacity:1"
       d="m 60.616729,-60.990905 v 18.708867"
       id="path4434" />
    <path
       id="path4436"
       d="M 69.971162,-51.636471 H 51.262295"
       style="fill:none;stroke:#000000;stroke-width:3.96875;stroke-linecap:round;stroke-linejoin:miter;stroke-miterlimit:4;stroke-dasharray:none;stroke-opacity:1" />
  </g>
  <g
     transform="matrix(0.07445721,0,0,0.07445721,9.6356677,13.090576)"
     id="g4873">
    <path
       style="fill:#ff6536"
       d="m 54.211,249.7 c 0,0 20.228,29.717 62.624,54.871 0,0 -30.705,-259.502 169.358,-304.571 -51.257,188.121 65.2,241.174 107.651,141.786 70.893,94.651 17.066,177.229 17.066,177.229 29.069,4.188 53.487,-27.57 53.487,-27.57 0.218,3.912 0.34,7.851 0.34,11.818 C 464.738,418.545 371.283,512 256,512 140.717,512 47.262,418.545 47.262,303.262 c 0,-18.518 2.424,-36.468 6.949,-53.562 z"
       id="path4809" />
    <path
       style="fill:#ff421d"
       d="m 464.398,291.445 c 0,0 -24.418,31.758 -53.487,27.57 0,0 53.827,-82.578 -17.066,-177.229 C 351.394,241.174 234.937,188.121 286.194,0 275.479,2.414 265.431,5.447 256,9.018 V 512 c 115.283,0 208.738,-93.455 208.738,-208.738 0,-3.967 -0.122,-7.905 -0.34,-11.817 z"
       id="path4811" />
    <path
       style="fill:#fbbf00"
       d="m 164.456,420.456 c 0,50.558 40.986,91.544 91.544,91.544 50.558,0 91.544,-40.986 91.544,-91.544 0,-27.061 -11.741,-51.379 -30.408,-68.138 -35.394,48.085 -85.832,-24.856 -46.524,-78.122 0,0 -106.156,13.303 -106.156,146.26 z"
       id="path4813" />
    <path
       style="fill:#ffa900"
       d="m 347.544,420.456 c 0,-27.061 -11.741,-51.379 -30.408,-68.138 -35.394,48.085 -85.832,-24.856 -46.524,-78.122 0,0 -5.768,0.725 -14.612,3.516 V 512 c 50.558,0 91.544,-40.986 91.544,-91.544 z"
       id="path4815" />
    <g
       id="g4817">
</g>
    <g
       id="g4819">
</g>
    <g
       id="g4821">
</g>
    <g
       id="g4823">
</g>
    <g
       id="g4825">
</g>
    <g
       id="g4827">
</g>
    <g
       id="g4829">
</g>
    <g
       id="g4831">
</g>
    <g
       id="g4833">
</g>
    <g
       id="g4835">
</g>
    <g
       id="g4837">
</g>
    <g
       id="g4839">
</g>
    <g
       id="g4841">
</g>
    <g
       id="g4843">
</g>
    <g
       id="g4845">
</g>
  </g>
  <path
     style="stroke-width:0.0700136"
     d="m 123.27498,27.802647 c -0.23467,-0.725843 -0.87845,-1.241372 -1.64013,-1.310019 l -10.34613,-0.939439 -4.09114,-9.575712 c -0.30166,-0.701776 -0.98867,-1.156044 -1.75198,-1.156044 -0.76332,0 -1.45032,0.454268 -1.75198,1.157684 l -4.091137,9.574072 -10.34778,0.939439 c -0.760303,0.07029 -1.402458,0.584176 -1.63848,1.310019 -0.236022,0.725844 -0.01805,1.521973 0.5571,2.023828 l 7.820452,6.858588 -2.306068,10.158247 c -0.168744,0.746902 0.121156,1.518964 0.740884,1.966942 0.333112,0.240672 0.722836,0.363195 1.11584,0.363195 0.338855,0 0.674974,-0.09135 0.976635,-0.271849 l 8.924534,-5.333881 8.92126,5.333881 c 0.65281,0.392733 1.47575,0.356903 2.09411,-0.09135 0.61999,-0.449342 0.90962,-1.22168 0.74088,-1.966941 l -2.30606,-10.158247 7.82044,-6.857222 c 0.57515,-0.503221 0.79476,-1.297984 0.55875,-2.025194 z m 0,0"
     fill="#ffc107"
     id="path4944" />
</svg>
