<?xml version="1.0" encoding="UTF-8" standalone="no"?>
<svg
   xmlns:dc="http://purl.org/dc/elements/1.1/"
   xmlns:cc="http://creativecommons.org/ns#"
   xmlns:rdf="http://www.w3.org/1999/02/22-rdf-syntax-ns#"
   xmlns:svg="http://www.w3.org/2000/svg"
   xmlns="http://www.w3.org/2000/svg"
   width="500"
   height="250"
   viewBox="0 0 132.29166 66.145835"
   version="1.1"
   id="svg8">
  <defs
     id="defs2">
    <rect
       id="rect17555"
       height="33.899739"
       width="45.47526"
       y="14.469401"
       x="64.905598" />
    <rect
       id="rect16657"
       height="39.6875"
       width="52.916666"
       y="16.536458"
       x="16.123047" />
    <rect
       id="rect14952"
       height="41.217972"
       width="28.355626"
       y="11.693042"
       x="56.1266" />
    <rect
       id="rect12397"
       height="46.715494"
       width="47.955729"
       y="8.6816405"
       x="71.933593" />
    <rect
       id="rect10750"
       height="32.448191"
       width="43.55658"
       y="16.95491"
       x="54.080318" />
    <rect
       id="rect10116"
       height="31.278887"
       width="27.917137"
       y="16.808747"
       x="101.14481" />
    <rect
       id="rect9439"
       height="25.14004"
       width="57.003578"
       y="26.309344"
       x="5.2618688" />
    <rect
       id="rect8476"
       height="26.60167"
       width="35.663777"
       y="22.216779"
       x="51.449384" />
    <rect
       id="rect8111"
       height="60.358072"
       width="46.715494"
       y="-7.4414062"
       x="111.20768" />
    <rect
       id="rect5692"
       height="31.419271"
       width="28.318685"
       y="19.223633"
       x="111.62109" />
    <rect
       id="rect4959"
       height="36.793619"
       width="38.447265"
       y="12.815755"
       x="87.436523" />
    <rect
       id="rect3591"
       height="32.246093"
       width="36.586914"
       y="17.569987"
       x="2.6871745" />
    <rect
       x="33.261906"
       y="1.889881"
       width="32.127975"
       height="25.607887"
       id="rect952" />
    <rect
       x="23.718006"
       y="3.0238094"
       width="21.45015"
       height="20.127232"
       id="rect946" />
    <rect
       id="rect952-5"
       height="25.607887"
       width="32.127975"
       y="1.889881"
       x="33.261906" />
    <rect
       id="rect1246"
       height="25.607887"
       width="32.127975"
       y="1.889881"
       x="33.261906" />
    <rect
       id="rect2592"
       height="20.127232"
       width="21.45015"
       y="3.0238094"
       x="23.718006" />
    <rect
       x="23.718006"
       y="3.0238094"
       width="21.45015"
       height="20.127232"
       id="rect2600" />
    <rect
       id="rect2608"
       height="20.127232"
       width="21.45015"
       y="3.0238094"
       x="23.718006" />
    <rect
       x="2.6871746"
       y="17.569986"
       width="36.586914"
       height="32.246094"
       id="rect3591-5" />
    <rect
       x="2.6871746"
       y="17.569986"
       width="36.586914"
       height="32.246094"
       id="rect4205" />
    <rect
       x="111.20768"
       y="-7.4414062"
       width="46.715494"
       height="60.358072"
       id="rect8139" />
    <rect
       x="51.449384"
       y="22.216779"
       width="35.663777"
       height="26.60167"
       id="rect8484" />
    <rect
       x="16.123047"
       y="16.536458"
       width="52.916666"
       height="39.6875"
       id="rect16854" />
    <rect
       x="16.123047"
       y="16.536458"
       width="52.916666"
       height="39.6875"
       id="rect16860" />
    <rect
       x="64.905598"
       y="14.469401"
       width="45.47526"
       height="33.899739"
       id="rect17563" />
  </defs>
  <metadata
     id="metadata5">
    <rdf:RDF>
      <cc:Work
         rdf:about="">
        <dc:format>image/svg+xml</dc:format>
        <dc:type
           rdf:resource="http://purl.org/dc/dcmitype/StillImage" />
        <dc:title></dc:title>
      </cc:Work>
    </rdf:RDF>
  </metadata>
  <g
     transform="matrix(0.26458333,0,0,0.26458333,71.999739,33.965621)"
     id="g14585">
</g>
  <g
     transform="matrix(0.26458333,0,0,0.26458333,71.999739,33.965621)"
     id="g14587">
</g>
  <g
     transform="matrix(0.26458333,0,0,0.26458333,71.999739,33.965621)"
     id="g14589">
</g>
  <g
     transform="matrix(0.26458333,0,0,0.26458333,71.999739,33.965621)"
     id="g14591">
</g>
  <g
     transform="matrix(0.26458333,0,0,0.26458333,71.999739,33.965621)"
     id="g14593">
</g>
  <g
     transform="matrix(0.26458333,0,0,0.26458333,71.999739,33.965621)"
     id="g14595">
</g>
  <g
     transform="matrix(0.26458333,0,0,0.26458333,71.999739,33.965621)"
     id="g14597">
</g>
  <g
     transform="matrix(0.26458333,0,0,0.26458333,71.999739,33.965621)"
     id="g14599">
</g>
  <g
     transform="matrix(0.26458333,0,0,0.26458333,71.999739,33.965621)"
     id="g14601">
</g>
  <g
     transform="matrix(0.26458333,0,0,0.26458333,71.999739,33.965621)"
     id="g14603">
</g>
  <g
     transform="matrix(0.26458333,0,0,0.26458333,71.999739,33.965621)"
     id="g14605">
</g>
  <g
     transform="matrix(0.26458333,0,0,0.26458333,71.999739,33.965621)"
     id="g14607">
</g>
  <g
     transform="matrix(0.26458333,0,0,0.26458333,71.999739,33.965621)"
     id="g14609">
</g>
  <g
     transform="matrix(0.26458333,0,0,0.26458333,71.999739,33.965621)"
     id="g14611">
</g>
  <g
     transform="matrix(0.26458333,0,0,0.26458333,71.999739,33.965621)"
     id="g14613">
</g>
  <g
     transform="matrix(0.06536772,0,0,0.06536772,14.030429,17.286996)"
     id="g17551">
    <g
       id="g17484">
	<polygon
   style="fill:#cbb292"
   points="132.414,220.69 132.414,260.414 150.069,269.241 167.724,260.414 167.724,238.345 317.793,313.379 326.621,308.966 326.621,481.103 344.276,489.931 361.931,481.103 361.931,291.31 450.207,247.172 450.207,419.31 467.862,428.138 485.517,419.31 485.517,229.517 512,216.276 512,180.966 194.207,22.069 0,119.172 0,154.483 8.828,158.897 8.828,322.207 26.483,331.034 44.138,322.207 44.138,176.552 "
   id="polygon17460" />

	<polygon
   style="fill:#cb8252"
   points="317.793,278.069 317.793,313.379 0,154.483 0,119.172 "
   id="polygon17462" />

	<polygon
   style="fill:#805333"
   points="512,180.966 512,216.276 317.793,313.379 317.793,278.069 "
   id="polygon17464" />

	<polygon
   style="fill:#5e5f62"
   points="485.517,229.517 485.517,419.31 467.862,428.138 467.862,238.345 "
   id="polygon17466" />

	<polygon
   style="fill:#a5a5a4"
   points="467.862,238.345 467.862,428.138 450.207,419.31 450.207,247.172 "
   id="polygon17468" />

	<polygon
   style="fill:#5e5f62"
   points="361.931,291.31 361.931,481.103 344.276,489.931 344.276,300.138 "
   id="polygon17470" />

	<polygon
   style="fill:#a5a5a4"
   points="344.276,300.138 344.276,489.931 326.621,481.103 326.621,308.966 "
   id="polygon17472" />

	<polygon
   style="fill:#5e5f62"
   points="167.724,238.345 167.724,260.414 150.069,269.241 150.069,229.517 "
   id="polygon17474" />

	<g
   id="g17480">
		<polygon
   style="fill:#a5a5a4"
   points="150.069,229.517 150.069,269.241 132.414,260.414 132.414,220.69 "
   id="polygon17476" />

		<polygon
   style="fill:#a5a5a4"
   points="26.483,167.724 26.483,331.034 8.828,322.207 8.828,158.897 "
   id="polygon17478" />

	</g>

	<polygon
   style="fill:#5e5f62"
   points="44.138,176.552 44.138,322.207 26.483,331.034 26.483,167.724 "
   id="polygon17482" />

</g>
    <g
       id="g17486">
</g>
    <g
       id="g17488">
</g>
    <g
       id="g17490">
</g>
    <g
       id="g17492">
</g>
    <g
       id="g17494">
</g>
    <g
       id="g17496">
</g>
    <g
       id="g17498">
</g>
    <g
       id="g17500">
</g>
    <g
       id="g17502">
</g>
    <g
       id="g17504">
</g>
    <g
       id="g17506">
</g>
    <g
       id="g17508">
</g>
    <g
       id="g17510">
</g>
    <g
       id="g17512">
</g>
    <g
       id="g17514">
</g>
  </g>
  <text
     transform="matrix(2.1282776,0,0,2.1282776,-71.446186,-9.1791733)"
     style="font-style:normal;font-variant:normal;font-weight:bold;font-stretch:normal;font-size:10.5833px;line-height:1.25;font-family:sans-serif;-inkscape-font-specification:'sans-serif Bold';white-space:pre;shape-inside:url(#rect17555);fill:#000000;fill-opacity:1;stroke:none;"
     id="text17553"
     xml:space="preserve"><tspan
       x="64.90625"
       y="24.124215"><tspan
         style="font-style:normal;font-variant:normal;font-weight:bold;font-stretch:normal;font-family:sans-serif;-inkscape-font-specification:'sans-serif Bold'">R</tspan></tspan></text>
  <text
     xml:space="preserve"
     id="text17561"
     style="font-style:normal;font-variant:normal;font-weight:bold;font-stretch:normal;font-size:10.5833px;line-height:1.25;font-family:sans-serif;-inkscape-font-specification:'sans-serif Bold';white-space:pre;shape-inside:url(#rect17563);fill:#000000;fill-opacity:1;stroke:none;"
     transform="matrix(2.1282776,0,0,2.1282776,-34.859272,-9.1791733)"><tspan
       x="64.90625"
       y="24.124215"><tspan
         style="font-style:normal;font-variant:normal;font-weight:bold;font-stretch:normal;font-family:sans-serif;-inkscape-font-specification:'sans-serif Bold'">1</tspan></tspan></text>
</svg>
