<?xml version="1.0" encoding="UTF-8" standalone="no"?>
<svg
   xmlns:dc="http://purl.org/dc/elements/1.1/"
   xmlns:cc="http://creativecommons.org/ns#"
   xmlns:rdf="http://www.w3.org/1999/02/22-rdf-syntax-ns#"
   xmlns:svg="http://www.w3.org/2000/svg"
   xmlns="http://www.w3.org/2000/svg"
   width="500"
   height="250"
   viewBox="0 0 132.29166 66.145835"
   version="1.1"
   id="svg8">
  <defs
     id="defs2">
    <rect
       id="rect12397"
       height="46.715494"
       width="47.955729"
       y="8.6816405"
       x="71.933593" />
    <rect
       id="rect10750"
       height="32.448191"
       width="43.55658"
       y="16.95491"
       x="54.080318" />
    <rect
       id="rect10116"
       height="31.278887"
       width="27.917137"
       y="16.808747"
       x="101.14481" />
    <rect
       id="rect9439"
       height="25.14004"
       width="57.003578"
       y="26.309344"
       x="5.2618688" />
    <rect
       id="rect8476"
       height="26.60167"
       width="35.663777"
       y="22.216779"
       x="51.449384" />
    <rect
       id="rect8111"
       height="60.358072"
       width="46.715494"
       y="-7.4414062"
       x="111.20768" />
    <rect
       id="rect5692"
       height="31.419271"
       width="28.318685"
       y="19.223633"
       x="111.62109" />
    <rect
       id="rect4959"
       height="36.793619"
       width="38.447265"
       y="12.815755"
       x="87.436523" />
    <rect
       id="rect3591"
       height="32.246093"
       width="36.586914"
       y="17.569987"
       x="2.6871745" />
    <rect
       x="33.261906"
       y="1.889881"
       width="32.127975"
       height="25.607887"
       id="rect952" />
    <rect
       x="23.718006"
       y="3.0238094"
       width="21.45015"
       height="20.127232"
       id="rect946" />
    <rect
       id="rect952-5"
       height="25.607887"
       width="32.127975"
       y="1.889881"
       x="33.261906" />
    <rect
       id="rect1246"
       height="25.607887"
       width="32.127975"
       y="1.889881"
       x="33.261906" />
    <rect
       id="rect2592"
       height="20.127232"
       width="21.45015"
       y="3.0238094"
       x="23.718006" />
    <rect
       x="23.718006"
       y="3.0238094"
       width="21.45015"
       height="20.127232"
       id="rect2600" />
    <rect
       id="rect2608"
       height="20.127232"
       width="21.45015"
       y="3.0238094"
       x="23.718006" />
    <rect
       x="2.6871746"
       y="17.569986"
       width="36.586914"
       height="32.246094"
       id="rect3591-5" />
    <rect
       x="2.6871746"
       y="17.569986"
       width="36.586914"
       height="32.246094"
       id="rect4205" />
    <rect
       x="111.20768"
       y="-7.4414062"
       width="46.715494"
       height="60.358072"
       id="rect8139" />
    <rect
       x="51.449384"
       y="22.216779"
       width="35.663777"
       height="26.60167"
       id="rect8484" />
  </defs>
  <metadata
     id="metadata5">
    <rdf:RDF>
      <cc:Work
         rdf:about="">
        <dc:format>image/svg+xml</dc:format>
        <dc:type
           rdf:resource="http://purl.org/dc/dcmitype/StillImage" />
        <dc:title></dc:title>
      </cc:Work>
    </rdf:RDF>
  </metadata>
  <g
     transform="matrix(0.07725597,0,0,0.07725597,15.11396,12.847416)"
     id="g12378">
    <g
       clip-rule="evenodd"
       fill="#60a4ff"
       fill-rule="evenodd"
       id="g12368">
      <path
         d="M 502.002,10 H 10 V 90 H 50 V 50 H 170 V 90 H 90 v 152.002 h 40 V 210 h 40 V 342.002 H 342.002 V 270 h -40 v 32.002 H 210 V 210 H 342.002 V 170 C 271.335,170 200.667,170 130,170 V 130 H 282.002 V 90 H 210 V 50 h 252.002 v 80 h -40 V 90 h -80 v 40 h 40 V 382.002 H 130 v -80 H 90 v 120 H 422.002 V 170 h 40 v 152.002 h 40 z"
         id="path12364" />
      <path
         d="M 50,462.002 V 150 H 10 v 352.002 h 492.002 v -120 h -40 v 80 z"
         id="path12366" />
    </g>
    <g
       id="g12376">
      <path
         d="M 502.002,0 H 10 C 4.478,0 0,4.477 0,10 v 80 c 0,5.523 4.478,10 10,10 h 40 c 5.522,0 10,-4.477 10,-10 V 60 H 160 V 80 H 90 c -5.522,0 -10,4.477 -10,10 v 152.002 c 0,5.523 4.478,10 10,10 h 40 c 5.522,0 10,-4.477 10,-10 V 220 h 20 v 122.002 c 0,5.523 4.478,10 10,10 h 172.002 c 5.522,0 10,-4.477 10,-10 V 270 c 0,-5.523 -4.478,-10 -10,-10 h -40 c -5.522,0 -10,4.477 -10,10 v 22.002 H 220 V 220 h 122.002 c 5.522,0 10,-4.477 10,-10 v -40 c 0,-5.523 -4.478,-10 -10,-10 h -41.005 c -5.522,0 -10,4.477 -10,10 0,5.523 4.478,10 10,10 h 31.005 v 20 H 210 c -5.522,0 -10,4.477 -10,10 v 92.002 c 0,5.523 4.478,10 10,10 h 92.002 c 5.522,0 10,-4.477 10,-10 V 280 h 20 v 52.002 H 180 V 210 c 0,-5.523 -4.478,-10 -10,-10 h -40 c -5.522,0 -10,4.477 -10,10 v 22.002 H 100 V 100 h 70 c 5.522,0 10,-4.477 10,-10 V 50 c 0,-5.523 -4.478,-10 -10,-10 H 50 C 44.478,40 40,44.477 40,50 V 80 H 20 V 20 h 472.002 v 292.001 h -20 V 170 c 0,-5.523 -4.478,-10 -10,-10 h -40 c -5.522,0 -10,4.477 -10,10 V 412.002 H 100 v -100 h 20 v 70 c 0,5.523 4.478,10 10,10 h 252.002 c 5.522,0 10,-4.477 10,-10 V 130 c 0,-5.523 -4.478,-10 -10,-10 h -30 v -20 h 60 v 30 c 0,5.523 4.478,10 10,10 h 40 c 5.522,0 10,-4.477 10,-10 V 50 c 0,-5.523 -4.478,-10 -10,-10 H 210 c -5.522,0 -10,4.477 -10,10 v 40 c 0,5.523 4.478,10 10,10 h 62.002 v 20 H 130 c -5.522,0 -10,4.477 -10,10 v 40 c 0,5.523 4.478,10 10,10 h 80.997 c 5.522,0 10,-4.477 10,-10 0,-5.523 -4.478,-10 -10,-10 H 140 v -20 h 142.002 c 5.522,0 10,-4.477 10,-10 V 90 c 0,-5.523 -4.478,-10 -10,-10 H 220 V 60 h 232.002 v 60 h -20 V 90 c 0,-5.523 -4.478,-10 -10,-10 h -80 c -5.522,0 -10,4.477 -10,10 v 40 c 0,5.523 4.478,10 10,10 h 30 V 372.002 H 140 v -70 c 0,-5.523 -4.478,-10 -10,-10 H 90 c -5.522,0 -10,4.477 -10,10 v 120 c 0,5.523 4.478,10 10,10 h 332.002 c 5.522,0 10,-4.477 10,-10 V 180 h 20 v 142.001 c 0,5.523 4.478,10 10,10 h 40 c 5.522,0 10,-4.477 10,-10 V 10 c 0,-5.523 -4.478,-10 -10,-10 z"
         id="path12370" />
      <path
         d="m 502.002,372.002 h -40 c -5.522,0 -10,4.477 -10,10 v 70 H 60 V 150 c 0,-5.523 -4.478,-10 -10,-10 H 10 c -5.522,0 -10,4.477 -10,10 v 352.002 c 0,5.523 4.478,10 10,10 h 492.002 c 5.522,0 10,-4.477 10,-10 v -120 c 0,-5.523 -4.478,-10 -10,-10 z m -10,120 H 20 V 160 h 20 v 302.002 c 0,5.523 4.478,10 10,10 h 412.002 c 5.522,0 10,-4.477 10,-10 v -70 h 20 z"
         id="path12372" />
      <path
         d="m 255.993,160 c -5.522,0 -9.996,4.477 -9.996,10 0,5.523 4.481,10 10.004,10 5.523,0 10,-4.477 10,-10 0,-5.523 -4.478,-10 -10,-10 z"
         id="path12374" />
    </g>
  </g>
  <text
     transform="matrix(2.4564416,0,0,2.4564416,-102.06297,-2.2710265)"
     style="font-style:normal;font-variant:normal;font-weight:bold;font-stretch:normal;font-size:10.5833px;line-height:1.25;font-family:sans-serif;-inkscape-font-specification:'sans-serif Bold';white-space:pre;shape-inside:url(#rect12397);fill:#000000;fill-opacity:1;stroke:none;"
     id="text12395"
     xml:space="preserve"><tspan
       x="71.933594"
       y="18.337106"><tspan
         style="font-style:normal;font-variant:normal;font-weight:bold;font-stretch:normal;font-family:sans-serif;-inkscape-font-specification:'sans-serif Bold'">DA</tspan></tspan></text>
</svg>
