<?xml version="1.0" encoding="UTF-8" standalone="no"?>
<svg
   xmlns:dc="http://purl.org/dc/elements/1.1/"
   xmlns:cc="http://creativecommons.org/ns#"
   xmlns:rdf="http://www.w3.org/1999/02/22-rdf-syntax-ns#"
   xmlns:svg="http://www.w3.org/2000/svg"
   xmlns="http://www.w3.org/2000/svg"
   width="500"
   height="250"
   viewBox="0 0 132.29166 66.145835"
   version="1.1"
   id="svg8">
  <defs
     id="defs2">
    <rect
       id="rect17555"
       height="33.899739"
       width="45.47526"
       y="14.469401"
       x="64.905598" />
    <rect
       id="rect16657"
       height="39.6875"
       width="52.916666"
       y="16.536458"
       x="16.123047" />
    <rect
       id="rect14952"
       height="41.217972"
       width="28.355626"
       y="11.693042"
       x="56.1266" />
    <rect
       id="rect12397"
       height="46.715494"
       width="47.955729"
       y="8.6816405"
       x="71.933593" />
    <rect
       id="rect10750"
       height="32.448191"
       width="43.55658"
       y="16.95491"
       x="54.080318" />
    <rect
       id="rect10116"
       height="31.278887"
       width="27.917137"
       y="16.808747"
       x="101.14481" />
    <rect
       id="rect9439"
       height="25.14004"
       width="57.003578"
       y="26.309344"
       x="5.2618688" />
    <rect
       id="rect8476"
       height="26.60167"
       width="35.663777"
       y="22.216779"
       x="51.449384" />
    <rect
       id="rect8111"
       height="60.358072"
       width="46.715494"
       y="-7.4414062"
       x="111.20768" />
    <rect
       id="rect5692"
       height="31.419271"
       width="28.318685"
       y="19.223633"
       x="111.62109" />
    <rect
       id="rect4959"
       height="36.793619"
       width="38.447265"
       y="12.815755"
       x="87.436523" />
    <rect
       id="rect3591"
       height="32.246093"
       width="36.586914"
       y="17.569987"
       x="2.6871745" />
    <rect
       x="33.261906"
       y="1.889881"
       width="32.127975"
       height="25.607887"
       id="rect952" />
    <rect
       x="23.718006"
       y="3.0238094"
       width="21.45015"
       height="20.127232"
       id="rect946" />
    <rect
       id="rect952-5"
       height="25.607887"
       width="32.127975"
       y="1.889881"
       x="33.261906" />
    <rect
       id="rect1246"
       height="25.607887"
       width="32.127975"
       y="1.889881"
       x="33.261906" />
    <rect
       id="rect2592"
       height="20.127232"
       width="21.45015"
       y="3.0238094"
       x="23.718006" />
    <rect
       x="23.718006"
       y="3.0238094"
       width="21.45015"
       height="20.127232"
       id="rect2600" />
    <rect
       id="rect2608"
       height="20.127232"
       width="21.45015"
       y="3.0238094"
       x="23.718006" />
    <rect
       x="2.6871746"
       y="17.569986"
       width="36.586914"
       height="32.246094"
       id="rect3591-5" />
    <rect
       x="2.6871746"
       y="17.569986"
       width="36.586914"
       height="32.246094"
       id="rect4205" />
    <rect
       x="111.20768"
       y="-7.4414062"
       width="46.715494"
       height="60.358072"
       id="rect8139" />
    <rect
       x="51.449384"
       y="22.216779"
       width="35.663777"
       height="26.60167"
       id="rect8484" />
    <rect
       x="16.123047"
       y="16.536458"
       width="52.916666"
       height="39.6875"
       id="rect16854" />
    <rect
       x="16.123047"
       y="16.536458"
       width="52.916666"
       height="39.6875"
       id="rect16860" />
    <rect
       x="64.905598"
       y="14.469401"
       width="45.47526"
       height="33.899739"
       id="rect17563" />
    <rect
       x="64.905598"
       y="14.469401"
       width="45.47526"
       height="33.899739"
       id="rect20027" />
  </defs>
  <metadata
     id="metadata5">
    <rdf:RDF>
      <cc:Work
         rdf:about="">
        <dc:format>image/svg+xml</dc:format>
        <dc:type
           rdf:resource="http://purl.org/dc/dcmitype/StillImage" />
        <dc:title></dc:title>
      </cc:Work>
    </rdf:RDF>
  </metadata>
  <g
     transform="matrix(0.26458333,0,0,0.26458333,71.999739,33.965621)"
     id="g14585">
</g>
  <g
     transform="matrix(0.26458333,0,0,0.26458333,71.999739,33.965621)"
     id="g14587">
</g>
  <g
     transform="matrix(0.26458333,0,0,0.26458333,71.999739,33.965621)"
     id="g14589">
</g>
  <g
     transform="matrix(0.26458333,0,0,0.26458333,71.999739,33.965621)"
     id="g14591">
</g>
  <g
     transform="matrix(0.26458333,0,0,0.26458333,71.999739,33.965621)"
     id="g14593">
</g>
  <g
     transform="matrix(0.26458333,0,0,0.26458333,71.999739,33.965621)"
     id="g14595">
</g>
  <g
     transform="matrix(0.26458333,0,0,0.26458333,71.999739,33.965621)"
     id="g14597">
</g>
  <g
     transform="matrix(0.26458333,0,0,0.26458333,71.999739,33.965621)"
     id="g14599">
</g>
  <g
     transform="matrix(0.26458333,0,0,0.26458333,71.999739,33.965621)"
     id="g14601">
</g>
  <g
     transform="matrix(0.26458333,0,0,0.26458333,71.999739,33.965621)"
     id="g14603">
</g>
  <g
     transform="matrix(0.26458333,0,0,0.26458333,71.999739,33.965621)"
     id="g14605">
</g>
  <g
     transform="matrix(0.26458333,0,0,0.26458333,71.999739,33.965621)"
     id="g14607">
</g>
  <g
     transform="matrix(0.26458333,0,0,0.26458333,71.999739,33.965621)"
     id="g14609">
</g>
  <g
     transform="matrix(0.26458333,0,0,0.26458333,71.999739,33.965621)"
     id="g14611">
</g>
  <g
     transform="matrix(0.26458333,0,0,0.26458333,71.999739,33.965621)"
     id="g14613">
</g>
  <text
     transform="matrix(2.9395256,0,0,2.9395256,-183.50042,-25.50493)"
     style="font-style:normal;font-variant:normal;font-weight:bold;font-stretch:normal;font-size:10.5833px;line-height:1.25;font-family:sans-serif;-inkscape-font-specification:'sans-serif Bold';white-space:pre;shape-inside:url(#rect17555);fill:#000000;fill-opacity:1;stroke:none;"
     id="text17553"
     xml:space="preserve"><tspan
       x="64.90625"
       y="24.124215"><tspan
         style="font-style:normal;font-variant:normal;font-weight:bold;font-stretch:normal;font-family:sans-serif;-inkscape-font-specification:'sans-serif Bold'">2</tspan></tspan></text>
  <g
     transform="matrix(0.0724116,0,0,0.0724116,46.500261,14.622634)"
     id="g20021">
    <path
       d="M 213.426,427.525 V 381.97 c -4.884,2.235 -10.306,3.491 -16.019,3.491 -5.577,0 -11.034,-1.252 -16.019,-3.545 v 45.609 z"
       fill="#32569d"
       id="path19948" />
    <path
       d="M 414.722,427.525 V 381.92 c -4.106,1.914 -8.597,3.124 -13.333,3.449 -0.893,0.061 -1.795,0.092 -2.684,0.092 -10e-4,0 -10e-4,0 -0.002,0 -5.713,0 -11.135,-1.257 -16.019,-3.492 v 45.556 z"
       fill="#32569d"
       id="path19950" />
    <path
       d="m 351.01,427.525 v -44.123 c -3.682,1.339 -7.607,2.059 -11.628,2.059 h -8.781 c -4.081,0 -7.996,-0.72 -11.628,-2.036 v 44.1 z"
       fill="#32569d"
       id="path19952" />
    <path
       d="m 360.064,346.822 c 0,-3.187 -2.593,-5.779 -5.779,-5.779 h -58.932 v 10.17 c 0,19.386 15.862,35.248 35.248,35.248 h 8.781 c 12.092,0 22.811,-6.172 29.167,-15.52 -5.302,-6.616 -8.485,-15.001 -8.485,-24.119 z"
       fill="#edcab2"
       id="path19954" />
    <path
       d="m 322.853,351.213 v -10.17 h -27.5 v 10.17 c 0,19.386 15.862,35.248 35.248,35.248 h 8.781 c 3.239,0 6.375,-0.452 9.359,-1.28 -14.88,-4.127 -25.888,-17.821 -25.888,-33.968 z"
       fill="#edc9b1"
       id="path19956" />
    <path
       d="m 149.715,427.525 v -45.609 c -4.985,2.293 -10.442,3.545 -16.019,3.545 -5.713,0 -11.135,-1.256 -16.019,-3.491 v 45.555 z"
       fill="#32569d"
       id="path19958" />
    <path
       d="m 487.119,257.173 c 10.758,-11.147 17.381,-26.309 17.381,-43.026 0,-23.97 -13.609,-44.748 -33.516,-55.066 -1.723,-0.893 -2.738,-2.716 -2.58,-4.65 0.132,-1.614 0.202,-3.245 0.202,-4.893 0,-34.244 -27.76,-62.003 -62.003,-62.003 -9.807,0 -19.075,2.288 -27.317,6.345 -2.021,0.995 -4.43,0.492 -5.878,-1.234 C 362.035,79.094 344.977,70.475 325.9,70.475 c -14.067,0 -27.031,4.696 -37.434,12.592 -1.732,1.315 -4.103,1.315 -5.835,0 -10.402,-7.896 -23.366,-12.592 -37.434,-12.592 -15.27,0 -29.245,5.525 -40.048,14.68 14.68,4.44 25.61,17.569 26.723,33.447 0.467,6.655 -0.809,13.304 -3.688,19.227 l -0.699,1.437 h 33.207 c 2.977,0 5.667,1.397 7.384,3.833 1.709,2.426 2.118,5.416 1.122,8.203 -5.492,15.369 -20.154,25.695 -36.483,25.695 -4.076,0 -8.107,-0.639 -11.98,-1.898 l -1.309,-0.426 v 52.996 c 0,44.05 -35.837,79.887 -79.887,79.887 -16.891,0 -32.564,-5.284 -45.483,-14.265 v 53.532 c 0,21.801 17.837,39.639 39.639,39.639 13.017,0 24.618,-6.362 31.856,-16.127 7.238,9.765 18.838,16.127 31.856,16.127 21.801,0 39.639,-17.837 39.639,-39.639 0,-2.639 2.14,-4.779 4.779,-4.779 h 112.46 c 2.64,0 4.779,2.14 4.779,4.779 0,22.713 19.36,41.123 42.393,39.544 20.903,-1.433 36.885,-19.31 36.885,-40.262 v -1.946 c 0,-2.381 1.752,-4.41 4.111,-4.726 27.207,-3.653 48.189,-26.95 48.189,-55.157 0,-7.761 -1.597,-15.146 -4.469,-21.856 -0.764,-1.79 -0.404,-3.848 0.946,-5.247 z"
       fill="#f5e2d4"
       id="path19960" />
    <path
       d="m 124.057,346.822 v -39.78 c -10.935,-2.142 -21.1,-6.499 -30,-12.591 v 52.371 c 0,21.801 17.837,39.639 39.639,39.639 5.299,0 10.356,-1.069 14.986,-2.978 -14.412,-5.949 -24.625,-20.167 -24.625,-36.661 z"
       fill="#edcab2"
       id="path19962" />
    <path
       d="m 275.469,427.525 v -13.5 c 0,-4.142 -3.357,-7.5 -7.5,-7.5 -4.143,0 -7.5,3.358 -7.5,7.5 v 13.5 z"
       fill="#09a76d"
       id="path19964" />
    <path
       d="m 476.469,427.525 v -13.5 c 0,-4.142 -3.357,-7.5 -7.5,-7.5 -4.143,0 -7.5,3.358 -7.5,7.5 v 13.5 z"
       fill="#09a76d"
       id="path19966" />
    <path
       d="m 96.469,427.525 v -13.5 c 0,-4.142 -3.358,-7.5 -7.5,-7.5 -4.142,0 -7.5,3.358 -7.5,7.5 v 13.5 z"
       fill="#09a76d"
       id="path19968" />
    <path
       d="m 260.693,138.266 h -32.718 l -8.549,11.167 v 26.279 c 4.156,1.475 8.628,2.285 13.29,2.285 17.251,0 31.934,-10.994 37.424,-26.358 2.329,-6.517 -2.528,-13.373 -9.447,-13.373 z"
       fill="#303a78"
       id="path19970" />
    <path
       d="M 51.103,138.266 H 18.386 c -6.919,0 -11.776,6.856 -9.447,13.372 5.49,15.364 20.173,26.358 37.424,26.358 4.662,0 9.133,-0.81 13.289,-2.285 v -26.279 z"
       fill="#32569d"
       id="path19972" />
    <path
       d="m 194.176,159.121 c -8.644,0 -16.78,-2.842 -23.528,-8.219 -1.077,-0.858 -2.423,-1.332 -3.79,-1.332 -1.367,0 -2.713,0.473 -3.79,1.332 -6.749,5.377 -14.884,8.219 -23.528,8.219 -8.645,0 -16.78,-2.842 -23.528,-8.219 -1.077,-0.858 -2.423,-1.332 -3.79,-1.332 -1.367,0 -2.713,0.473 -3.791,1.332 -6.748,5.377 -14.884,8.219 -23.528,8.219 -9.78,0 -19.236,-3.844 -26.251,-10.607 v 79.153 c 0,44.488 36.399,80.887 80.888,80.887 44.488,0 80.887,-36.399 80.887,-80.887 v -79.153 c -7.014,6.764 -16.472,10.607 -26.251,10.607 z"
       fill="#32569d"
       id="path19974" />
    <g
       fill="#303a78"
       id="g19984">
      <path
         d="M 81.151,227.668 V 158.93 c -8.419,-0.848 -16.387,-4.521 -22.499,-10.415 v 79.153 c 0,44.488 36.399,80.887 80.888,80.887 3.817,0 7.57,-0.281 11.248,-0.805 -39.211,-5.521 -69.637,-39.412 -69.637,-80.082 z"
         id="path19976" />
      <path
         d="m 105.205,225.836 c -4.142,0 -7.5,-3.358 -7.5,-7.5 v -15.608 c 0,-4.142 3.358,-7.5 7.5,-7.5 4.142,0 7.5,3.358 7.5,7.5 v 15.608 c 0,4.142 -3.358,7.5 -7.5,7.5 z"
         id="path19978" />
      <path
         d="m 173.874,225.836 c -4.142,0 -7.5,-3.358 -7.5,-7.5 v -15.608 c 0,-4.142 3.358,-7.5 7.5,-7.5 4.142,0 7.5,3.358 7.5,7.5 v 15.608 c 0,4.142 -3.358,7.5 -7.5,7.5 z"
         id="path19980" />
      <path
         d="m 168.364,262.191 c -2.929,-2.929 -7.678,-2.929 -10.606,0 -3.097,3.097 -6.793,5.235 -10.718,6.423 v -15.5 l 9.34,-6.786 c 3.351,-2.435 4.094,-7.125 1.659,-10.476 -2.434,-3.351 -7.124,-4.094 -10.476,-1.659 l -8.023,5.829 -8.024,-5.83 c -3.351,-2.436 -8.042,-1.691 -10.476,1.66 -2.434,3.351 -1.691,8.041 1.66,10.476 l 9.34,6.786 v 15.5 c -3.925,-1.188 -7.621,-3.326 -10.718,-6.423 -2.929,-2.929 -7.678,-2.929 -10.606,0 -2.929,2.929 -2.929,7.678 0,10.606 7.947,7.947 18.386,11.92 28.825,11.92 10.438,0 20.877,-3.973 28.824,-11.92 2.928,-2.928 2.928,-7.677 -0.001,-10.606 z"
         id="path19982" />
    </g>
    <path
       d="m 196.264,82.591 c -9.942,-0.521 -19.119,2.705 -26.249,8.391 -1.859,1.482 -4.463,1.474 -6.322,-0.007 -6.627,-5.281 -15.02,-8.438 -24.153,-8.438 -9.132,0 -17.526,3.157 -24.153,8.438 -1.859,1.482 -4.463,1.49 -6.322,0.007 -7.131,-5.686 -16.308,-8.912 -26.251,-8.391 -19.389,1.017 -35.248,16.575 -36.605,35.943 -1.589,22.688 16.346,41.588 38.695,41.588 9.132,0 17.525,-3.157 24.151,-8.437 1.864,-1.485 4.471,-1.485 6.334,0 6.627,5.28 15.02,8.437 24.151,8.437 9.132,0 17.525,-3.157 24.151,-8.437 1.864,-1.485 4.471,-1.485 6.334,0 6.627,5.28 15.02,8.437 24.151,8.437 22.35,0 40.285,-18.9 38.694,-41.589 -1.357,-19.368 -17.217,-34.925 -36.606,-35.942 z"
       fill="#edcab2"
       id="path19986" />
    <path
       d="M 76.208,118.534 C 77.247,103.697 86.803,91.104 99.931,85.563 94.708,83.365 88.905,82.271 82.812,82.591 63.423,83.608 47.564,99.166 46.207,118.534 c -1.589,22.688 16.346,41.588 38.695,41.588 5.321,0 10.388,-1.078 15.004,-3.018 -14.777,-6.202 -24.909,-21.281 -23.698,-38.57 z"
       fill="#edc9b1"
       id="path19988" />
    <path
       d="m 504.5,426.525 h -55.031 v -12.5 c 0,-4.142 -3.357,-7.5 -7.5,-7.5 -4.143,0 -7.5,3.358 -7.5,7.5 v 12.5 h -132 v -12.5 c 0,-4.142 -3.357,-7.5 -7.5,-7.5 -4.143,0 -7.5,3.358 -7.5,7.5 v 12.5 h -39 v -12.5 c 0,-4.142 -3.358,-7.5 -7.5,-7.5 -4.142,0 -7.5,3.358 -7.5,7.5 v 12.5 h -164 v -12.5 c 0,-4.142 -3.358,-7.5 -7.5,-7.5 -4.142,0 -7.5,3.358 -7.5,7.5 v 12.5 h -12 v -12.5 c 0,-4.142 -3.358,-7.5 -7.5,-7.5 -4.142,0 -7.5,3.358 -7.5,7.5 v 12.5 H 7.5 c -4.142,0 -7.5,3.358 -7.5,7.5 0,4.142 3.358,7.5 7.5,7.5 h 497 c 4.143,0 7.5,-3.358 7.5,-7.5 0,-4.142 -3.357,-7.5 -7.5,-7.5 z"
       fill="#8bc727"
       id="path19990" />
  </g>
  <text
     xml:space="preserve"
     id="text20025"
     style="font-style:normal;font-variant:normal;font-weight:bold;font-stretch:normal;font-size:10.5833px;line-height:1.25;font-family:sans-serif;-inkscape-font-specification:'sans-serif Bold';white-space:pre;shape-inside:url(#rect20027);fill:#000000;fill-opacity:1;stroke:none;"
     transform="matrix(2.9395256,0,0,2.9395256,-92.5499,-25.50493)"><tspan
       x="64.90625"
       y="24.124215"><tspan
         style="font-style:normal;font-variant:normal;font-weight:bold;font-stretch:normal;font-family:sans-serif;-inkscape-font-specification:'sans-serif Bold'">A</tspan></tspan></text>
</svg>
