<?xml version="1.0" encoding="UTF-8" standalone="no"?>
<svg
   xmlns:dc="http://purl.org/dc/elements/1.1/"
   xmlns:cc="http://creativecommons.org/ns#"
   xmlns:rdf="http://www.w3.org/1999/02/22-rdf-syntax-ns#"
   xmlns:svg="http://www.w3.org/2000/svg"
   xmlns="http://www.w3.org/2000/svg"
   width="500"
   height="250"
   viewBox="0 0 132.29166 66.145835"
   version="1.1"
   id="svg8">
  <defs
     id="defs2">
    <rect
       id="rect17555"
       height="33.899739"
       width="45.47526"
       y="14.469401"
       x="64.905598" />
    <rect
       id="rect16657"
       height="39.6875"
       width="52.916666"
       y="16.536458"
       x="16.123047" />
    <rect
       id="rect14952"
       height="41.217972"
       width="28.355626"
       y="11.693042"
       x="56.1266" />
    <rect
       id="rect12397"
       height="46.715494"
       width="47.955729"
       y="8.6816405"
       x="71.933593" />
    <rect
       id="rect10750"
       height="32.448191"
       width="43.55658"
       y="16.95491"
       x="54.080318" />
    <rect
       id="rect10116"
       height="31.278887"
       width="27.917137"
       y="16.808747"
       x="101.14481" />
    <rect
       id="rect9439"
       height="25.14004"
       width="57.003578"
       y="26.309344"
       x="5.2618688" />
    <rect
       id="rect8476"
       height="26.60167"
       width="35.663777"
       y="22.216779"
       x="51.449384" />
    <rect
       id="rect8111"
       height="60.358072"
       width="46.715494"
       y="-7.4414062"
       x="111.20768" />
    <rect
       id="rect5692"
       height="31.419271"
       width="28.318685"
       y="19.223633"
       x="111.62109" />
    <rect
       id="rect4959"
       height="36.793619"
       width="38.447265"
       y="12.815755"
       x="87.436523" />
    <rect
       id="rect3591"
       height="32.246093"
       width="36.586914"
       y="17.569987"
       x="2.6871745" />
    <rect
       x="33.261906"
       y="1.889881"
       width="32.127975"
       height="25.607887"
       id="rect952" />
    <rect
       x="23.718006"
       y="3.0238094"
       width="21.45015"
       height="20.127232"
       id="rect946" />
    <rect
       id="rect952-5"
       height="25.607887"
       width="32.127975"
       y="1.889881"
       x="33.261906" />
    <rect
       id="rect1246"
       height="25.607887"
       width="32.127975"
       y="1.889881"
       x="33.261906" />
    <rect
       id="rect2592"
       height="20.127232"
       width="21.45015"
       y="3.0238094"
       x="23.718006" />
    <rect
       x="23.718006"
       y="3.0238094"
       width="21.45015"
       height="20.127232"
       id="rect2600" />
    <rect
       id="rect2608"
       height="20.127232"
       width="21.45015"
       y="3.0238094"
       x="23.718006" />
    <rect
       x="2.6871746"
       y="17.569986"
       width="36.586914"
       height="32.246094"
       id="rect3591-5" />
    <rect
       x="2.6871746"
       y="17.569986"
       width="36.586914"
       height="32.246094"
       id="rect4205" />
    <rect
       x="111.20768"
       y="-7.4414062"
       width="46.715494"
       height="60.358072"
       id="rect8139" />
    <rect
       x="51.449384"
       y="22.216779"
       width="35.663777"
       height="26.60167"
       id="rect8484" />
    <rect
       x="16.123047"
       y="16.536458"
       width="52.916666"
       height="39.6875"
       id="rect16854" />
    <rect
       x="16.123047"
       y="16.536458"
       width="52.916666"
       height="39.6875"
       id="rect16860" />
    <rect
       x="64.905598"
       y="14.469401"
       width="45.47526"
       height="33.899739"
       id="rect17563" />
    <rect
       x="64.905598"
       y="14.469401"
       width="45.47526"
       height="33.899739"
       id="rect20027" />
    <rect
       id="rect28320"
       height="33.899739"
       width="45.47526"
       y="14.469401"
       x="64.905598" />
  </defs>
  <metadata
     id="metadata5">
    <rdf:RDF>
      <cc:Work
         rdf:about="">
        <dc:format>image/svg+xml</dc:format>
        <dc:type
           rdf:resource="http://purl.org/dc/dcmitype/StillImage" />
        <dc:title></dc:title>
      </cc:Work>
    </rdf:RDF>
  </metadata>
  <g
     transform="matrix(0.26458333,0,0,0.26458333,71.999739,33.965621)"
     id="g14585">
</g>
  <g
     transform="matrix(0.26458333,0,0,0.26458333,71.999739,33.965621)"
     id="g14587">
</g>
  <g
     transform="matrix(0.26458333,0,0,0.26458333,71.999739,33.965621)"
     id="g14589">
</g>
  <g
     transform="matrix(0.26458333,0,0,0.26458333,71.999739,33.965621)"
     id="g14591">
</g>
  <g
     transform="matrix(0.26458333,0,0,0.26458333,71.999739,33.965621)"
     id="g14593">
</g>
  <g
     transform="matrix(0.26458333,0,0,0.26458333,71.999739,33.965621)"
     id="g14595">
</g>
  <g
     transform="matrix(0.26458333,0,0,0.26458333,71.999739,33.965621)"
     id="g14597">
</g>
  <g
     transform="matrix(0.26458333,0,0,0.26458333,71.999739,33.965621)"
     id="g14599">
</g>
  <g
     transform="matrix(0.26458333,0,0,0.26458333,71.999739,33.965621)"
     id="g14601">
</g>
  <g
     transform="matrix(0.26458333,0,0,0.26458333,71.999739,33.965621)"
     id="g14603">
</g>
  <g
     transform="matrix(0.26458333,0,0,0.26458333,71.999739,33.965621)"
     id="g14605">
</g>
  <g
     transform="matrix(0.26458333,0,0,0.26458333,71.999739,33.965621)"
     id="g14607">
</g>
  <g
     transform="matrix(0.26458333,0,0,0.26458333,71.999739,33.965621)"
     id="g14609">
</g>
  <g
     transform="matrix(0.26458333,0,0,0.26458333,71.999739,33.965621)"
     id="g14611">
</g>
  <g
     transform="matrix(0.26458333,0,0,0.26458333,71.999739,33.965621)"
     id="g14613">
</g>
  <text
     xml:space="preserve"
     id="text20025"
     style="font-style:normal;font-variant:normal;font-weight:bold;font-stretch:normal;font-size:10.5833px;line-height:1.25;font-family:sans-serif;-inkscape-font-specification:'sans-serif Bold';white-space:pre;shape-inside:url(#rect20027);fill:#000000;fill-opacity:1;stroke:none;"
     transform="matrix(2.2684795,0,0,2.2684795,-92.665558,-14.085616)"><tspan
       x="64.90625"
       y="24.124215"><tspan
         style="font-style:normal;font-variant:normal;font-weight:bold;font-stretch:normal;font-family:sans-serif;-inkscape-font-specification:'sans-serif Bold'">P</tspan></tspan></text>
  <g
     transform="matrix(0.07730446,0,0,0.07730446,4.7635261,13.234696)"
     id="g28523">
    <g
       id="g28519">
      <g
         id="g28441">
        <g
           id="g28439">
          <g
             id="g28437">
            <g
               id="g28435">
              <path
                 d="m 512,242.97 v 255.64 c 0,5.69 -4.61,10.3 -10.3,10.3 H 170.29 c 0,0 46.53,-4.36 34.65,-38.71 -11.88,-34.35 -29.05,-54.51 -9.64,-77.66 19.42,-23.15 -42.56,-27.63 -25.01,-46.3 17.54,-18.67 100.11,-5.36 90.49,-38.55 -9.62,-33.2 75.56,-20.69 82.23,-40.39 4.33,-12.76 -17.13,-25.33 -38.67,-34.63 H 501.7 c 5.69,0 10.3,4.61 10.3,10.3 z"
                 fill="#8dcafc"
                 id="path28427" />
              <path
                 d="M 512,262.668 H 0 v -29.996 h 501.698 c 5.69,0 10.302,4.612 10.302,10.302 z"
                 fill="#64b9fc"
                 id="path28429" />
              <path
                 d="m 371.405,267.304 c -6.676,19.698 -91.854,7.191 -82.232,40.385 9.622,33.194 -72.95,19.883 -90.494,38.551 -17.545,18.668 44.433,23.149 25.014,46.298 -19.409,23.149 -2.236,43.31 9.643,77.658 11.878,34.358 -34.657,38.716 -34.657,38.716 H 10.303 C 4.613,508.912 0.001,504.3 0.001,498.61 V 232.668 h 332.73 c 21.542,9.303 43.001,21.872 38.674,34.636 z"
                 fill="#c4e1ff"
                 id="path28431" />
              <path
                 d="M 371.879,262.668 H 0.001 v -30 h 332.73 c 18.925,8.17 37.778,18.863 39.148,30 z"
                 fill="#b5dbfd"
                 id="path28433" />
            </g>
          </g>
        </g>
      </g>
      <path
         d="m 128.924,508.907 c 0,0 68.18,0.347 68.18,-59.237 0,-53.993 -90.564,-74.176 -90.564,-101.455 0,-49.849 194.283,-21.959 194.283,-115.543 0,0 -44.602,-25.662 -290.49,-26.364 C 4.635,206.292 0,210.912 0,216.611 v 281.997 c 0,5.69 4.612,10.302 10.302,10.302 z"
         fill="#fee7c9"
         id="path28443" />
      <path
         d="m 106.536,348.217 c 0,27.28 90.566,47.462 90.566,101.456 0,59.577 -68.18,59.238 -68.18,59.238 h -15.34 c 19.121,-7.325 39.828,-23.293 39.828,-58.135 0,-58.63 -94.873,-80.543 -94.873,-110.161 0,-52.85 194.073,-25.22 203.2,-118.506 30.484,5.615 39.087,10.56 39.087,10.56 10e-4,93.584 -194.288,65.696 -194.288,115.548 z"
         fill="#ffd496"
         id="path28445" />
      <ellipse
         cx="115.336"
         cy="261.80099"
         fill="#ffd496"
         rx="65.973"
         ry="18.975"
         id="ellipse28447" />
      <g
         id="g28489">
        <g
           id="g28467">
          <g
             id="g28453">
            <path
               d="m 122.896,106.693 c 0,0 41.341,-72.002 122.284,-54.914 2.855,0.603 4.655,3.481 3.938,6.309 -2.412,9.518 -11.057,29.189 -41.582,33.505 l 2.824,7.504 c 0.927,2.462 -0.125,5.227 -2.461,6.437 -11.262,5.838 -44.916,19.585 -85.003,1.159 z"
               fill="#a3e440"
               id="path28449" />
            <path
               d="m 249.118,58.087 c -2.411,9.519 -11.054,29.186 -41.58,33.503 l 2.823,7.51 c 0.927,2.462 -0.124,5.223 -2.462,6.439 -11.26,5.831 -44.918,19.584 -85.003,1.154 0,0 1.092,-1.906 3.276,-5.027 30.113,6.274 54.004,-3.678 63.142,-8.407 2.339,-1.216 3.389,-3.977 2.462,-6.439 l -0.002,-0.005 c -1.437,-3.822 0.815,-7.982 4.771,-8.991 21.302,-5.432 29.63,-19.159 32.875,-28.329 5.069,0.391 10.323,1.144 15.762,2.287 2.854,0.598 4.657,3.482 3.936,6.305 z"
               fill="#99d53b"
               id="path28451" />
          </g>
          <g
             id="g28465">
            <path
               d="m 153.733,119.497 c 0,0 8.466,-82.593 -67.229,-115.971 -2.67,-1.177 -5.811,0.109 -6.88,2.824 -3.598,9.136 -8.062,30.154 14.203,51.478 l -6.674,4.444 c -2.19,1.458 -2.95,4.317 -1.76,6.663 5.737,11.314 25.036,42.121 68.34,50.562 z"
               fill="#bcea73"
               id="path28455" />
            <path
               d="m 153.73,119.499 c -7.387,-1.442 -14.083,-3.534 -20.131,-6.068 -1.216,-23.355 -9.756,-70.24 -56.621,-96.593 0.525,-4.286 1.628,-7.881 2.648,-10.488 1.071,-2.709 4.203,-3.997 6.882,-2.823 75.691,33.379 67.222,115.972 67.222,115.972 z"
               fill="#a3e440"
               id="path28457" />
            <g
               id="g28463">
              <path
                 d="m 144.313,113.975 c 0,0 -57.21,-60.17 -131.809,-24.406 -2.63,1.261 -3.697,4.482 -2.332,7.06 4.596,8.676 17.651,25.744 48.333,22.711 l -0.968,7.96 c -0.319,2.622 1.38,5.055 3.946,5.679 12.355,3.006 48.274,8.363 82.83,-19.004 z"
                 fill="#a3e440"
                 id="path28459" />
              <path
                 d="m 10.175,96.627 c 1.492,2.819 3.879,6.523 7.477,10.139 52.127,-23.53 95.436,-0.612 116.093,14.585 3.516,-2.144 7.049,-4.592 10.565,-7.374 0,0 -57.206,-60.166 -131.806,-24.406 -2.631,1.258 -3.695,4.48 -2.329,7.056 z"
                 fill="#99d53b"
                 id="path28461" />
            </g>
          </g>
        </g>
        <path
           d="m 153.609,115.249 c 0,0 -15.024,35.45 -15.024,139.783 H 83.691 c 0,0 -5.925,-98.393 30.334,-138.784 8.361,-9.314 22.173,-11.361 32.929,-4.96 z"
           fill="#c76d3d"
           id="path28469" />
        <path
           d="m 153.607,115.254 c 0,0 -15.021,35.45 -15.021,139.78 h -19.801 c 0,-92.678 10.941,-135.165 14.876,-147.455 4.554,0.031 9.148,1.247 13.29,3.709 z"
           fill="#aa5e33"
           id="path28471" />
        <g
           fill="#d67f4f"
           id="g28479">
          <path
             d="m 147.153,146.222 c -0.554,0 -1.118,-0.06 -1.681,-0.185 -3.004,-0.666 -29.666,-6.932 -40.681,-21.467 -2.577,-3.401 -1.909,-8.247 1.491,-10.824 3.402,-2.577 8.246,-1.91 10.825,1.491 6.452,8.514 25.085,14.231 31.719,15.716 4.162,0.931 6.786,5.058 5.858,9.221 -0.802,3.599 -3.992,6.048 -7.531,6.048 z"
             id="path28473" />
          <path
             d="m 138.107,170.401 c -10.279,0 -32.742,-1.234 -46.706,-11.193 -3.475,-2.477 -4.283,-7.302 -1.805,-10.777 2.478,-3.473 7.302,-4.283 10.777,-1.804 11.374,8.112 34.323,8.684 42.213,8.217 4.221,-0.253 7.914,2.994 8.17,7.252 0.255,4.257 -2.985,7.915 -7.241,8.173 -0.32,0.02 -2.312,0.132 -5.408,0.132 z"
             id="path28475" />
          <path
             d="m 126.399,203.354 c -12.526,0 -31.415,-2.155 -44.114,-13.497 -3.183,-2.843 -3.458,-7.727 -0.616,-10.909 2.843,-3.183 7.727,-3.458 10.909,-0.616 7.386,6.598 18.794,8.714 27.062,9.328 9.58,0.712 17.357,-0.387 17.434,-0.398 4.21,-0.611 8.139,2.311 8.756,6.531 0.616,4.218 -2.296,8.137 -6.513,8.759 -0.549,0.08 -5.668,0.802 -12.918,0.802 z"
             id="path28477" />
        </g>
        <g
           id="g28487">
          <g
             id="g28485">
            <path
               d="m 137.89,107.973 c 0,0 82.726,-7.05 114.802,69.206 1.131,2.69 -0.208,5.808 -2.941,6.831 -9.196,3.441 -30.288,7.544 -51.227,-15.083 l -4.558,6.597 c -1.495,2.164 -4.367,2.875 -6.692,1.645 -11.214,-5.93 -41.686,-25.754 -49.384,-69.196 z"
               fill="#99d53b"
               id="path28481" />
            <path
               d="m 249.747,184.011 c -3.884,1.453 -9.9,3.029 -17.133,2.658 -21.624,-50.182 -65.357,-63.74 -92.029,-67.201 -1.071,-3.637 -1.988,-7.469 -2.699,-11.497 0,0 82.727,-7.047 114.808,69.21 1.132,2.688 -0.207,5.81 -2.947,6.83 z"
               fill="#8dc637"
               id="path28483" />
          </g>
        </g>
      </g>
      <path
         d="m 109.269,234.387 c -14.395,0 -25.817,-2.654 -26.623,-2.846 -4.151,-0.989 -6.714,-5.155 -5.725,-9.306 0.988,-4.15 5.155,-6.711 9.303,-5.727 0.504,0.118 29.363,6.709 49.798,-2.351 3.9,-1.732 8.465,0.03 10.195,3.931 1.729,3.9 -0.03,8.465 -3.932,10.195 -10.632,4.715 -22.603,6.104 -33.016,6.104 z"
         fill="#d67f4f"
         id="path28491" />
      <g
         fill="#fcc16d"
         id="g28501">
        <path
           d="M 42.882,300.874 H 30.008 c -4.268,0 -7.726,-3.459 -7.726,-7.726 0,-4.267 3.459,-7.726 7.726,-7.726 h 12.874 c 4.268,0 7.726,3.459 7.726,7.726 0.001,4.266 -3.458,7.726 -7.726,7.726 z"
           id="path28493" />
        <path
           d="m 198.704,250.12 h -12.873 c -4.268,0 -7.726,-3.459 -7.726,-7.726 0,-4.267 3.459,-7.726 7.726,-7.726 h 12.873 c 4.268,0 7.726,3.459 7.726,7.726 0,4.267 -3.458,7.726 -7.726,7.726 z"
           id="path28495" />
        <path
           d="M 62.667,331.21 H 49.793 c -4.268,0 -7.726,-3.459 -7.726,-7.726 0,-4.267 3.459,-7.726 7.726,-7.726 h 12.874 c 4.268,0 7.726,3.459 7.726,7.726 0,4.267 -3.458,7.726 -7.726,7.726 z"
           id="path28497" />
        <path
           d="M 42.882,471.951 H 30.008 c -4.268,0 -7.726,-3.459 -7.726,-7.726 0,-4.267 3.459,-7.726 7.726,-7.726 h 12.874 c 4.268,0 7.726,3.459 7.726,7.726 0.001,4.267 -3.458,7.726 -7.726,7.726 z"
           id="path28499" />
      </g>
      <g
         id="g28505">
        <path
           d="m 486.359,357.706 c -8.737,0 -13.581,-3.101 -17.118,-5.365 -2.852,-1.825 -4.572,-2.927 -8.789,-2.927 -4.216,0 -5.938,1.102 -8.79,2.927 -3.537,2.264 -8.381,5.364 -17.119,5.364 -8.739,0 -13.583,-3.101 -17.122,-5.364 -2.852,-1.825 -4.573,-2.927 -8.791,-2.927 -4.217,0 -5.939,1.102 -8.791,2.927 -3.538,2.264 -8.382,5.364 -17.122,5.364 -8.737,0 -13.582,-3.101 -17.119,-5.365 -2.852,-1.825 -4.572,-2.927 -8.789,-2.927 -4.216,0 -5.937,1.102 -8.789,2.927 -3.537,2.264 -8.381,5.365 -17.12,5.365 -8.739,0 -13.583,-3.101 -17.121,-5.364 -2.852,-1.825 -4.573,-2.927 -8.791,-2.927 -4.217,0 -5.939,1.102 -8.791,2.927 -3.538,2.264 -8.382,5.364 -17.122,5.364 -4.268,0 -7.726,-3.459 -7.726,-7.726 0,-4.267 3.459,-7.726 7.726,-7.726 4.218,0 5.94,-1.102 8.792,-2.927 3.538,-2.264 8.382,-5.364 17.121,-5.364 8.739,0 13.583,3.101 17.121,5.364 2.852,1.825 4.573,2.927 8.791,2.927 4.216,0 5.938,-1.102 8.79,-2.927 3.537,-2.264 8.381,-5.364 17.119,-5.364 8.738,0 13.582,3.101 17.119,5.365 2.852,1.825 4.572,2.927 8.789,2.927 4.218,0 5.94,-1.102 8.792,-2.927 3.538,-2.264 8.382,-5.364 17.121,-5.364 8.738,0 13.582,3.1 17.121,5.364 2.852,1.825 4.573,2.927 8.792,2.927 4.216,0 5.937,-1.102 8.789,-2.927 3.537,-2.264 8.381,-5.365 17.12,-5.365 8.739,0 13.582,3.101 17.119,5.365 2.851,1.825 4.572,2.927 8.788,2.927 4.268,0 7.726,3.459 7.726,7.726 0.001,4.266 -3.458,7.726 -7.726,7.726 z"
           fill="#b5dbfd"
           id="path28503" />
      </g>
      <g
         id="g28509">
        <path
           d="m 338.236,414.538 c -8.737,0 -13.582,-3.101 -17.118,-5.365 -2.852,-1.825 -4.572,-2.927 -8.789,-2.927 -4.216,0 -5.938,1.102 -8.79,2.927 -3.537,2.264 -8.381,5.364 -17.119,5.364 -8.739,0 -13.583,-3.101 -17.122,-5.364 -2.852,-1.825 -4.573,-2.927 -8.791,-2.927 -4.217,0 -5.939,1.102 -8.791,2.927 -3.538,2.264 -8.382,5.364 -17.122,5.364 -4.268,0 -7.726,-3.459 -7.726,-7.726 0,-4.267 3.459,-7.726 7.726,-7.726 4.218,0 5.94,-1.102 8.792,-2.927 3.538,-2.264 8.382,-5.364 17.121,-5.364 8.738,0 13.583,3.1 17.121,5.364 2.852,1.825 4.573,2.927 8.792,2.927 4.216,0 5.937,-1.102 8.789,-2.927 3.537,-2.264 8.381,-5.365 17.12,-5.365 8.738,0 13.583,3.101 17.119,5.365 2.851,1.825 4.572,2.927 8.788,2.927 4.268,0 7.726,3.459 7.726,7.726 0,4.268 -3.458,7.727 -7.726,7.727 z"
           fill="#b5dbfd"
           id="path28507" />
      </g>
      <g
         id="g28513">
        <path
           d="m 472.937,451.819 c -8.737,0 -13.581,-3.101 -17.119,-5.365 -2.852,-1.825 -4.572,-2.927 -8.789,-2.927 -4.217,0 -5.937,1.102 -8.789,2.927 -3.537,2.264 -8.381,5.365 -17.12,5.365 -8.739,0 -13.583,-3.101 -17.121,-5.364 -2.852,-1.825 -4.573,-2.927 -8.791,-2.927 -4.218,0 -5.94,1.102 -8.792,2.927 -3.538,2.264 -8.382,5.364 -17.121,5.364 -4.268,0 -7.726,-3.459 -7.726,-7.726 0,-4.267 3.459,-7.726 7.726,-7.726 4.217,0 5.939,-1.102 8.791,-2.927 3.538,-2.264 8.382,-5.364 17.122,-5.364 8.738,0 13.583,3.101 17.121,5.364 2.852,1.825 4.573,2.927 8.791,2.927 4.216,0 5.938,-1.102 8.79,-2.927 3.537,-2.264 8.381,-5.364 17.119,-5.364 8.738,0 13.581,3.101 17.119,5.365 2.852,1.825 4.572,2.927 8.789,2.927 4.268,0 7.726,3.459 7.726,7.726 0,4.266 -3.459,7.725 -7.726,7.725 z"
           fill="#64b9fc"
           id="path28511" />
      </g>
      <g
         id="g28517">
        <path
           d="m 434.539,295.262 c -8.738,0 -13.583,-3.101 -17.119,-5.365 -2.851,-1.825 -4.572,-2.927 -8.788,-2.927 -4.216,0 -5.938,1.102 -8.79,2.927 -3.537,2.264 -8.381,5.364 -17.12,5.364 -8.738,0 -13.583,-3.101 -17.121,-5.364 -2.852,-1.825 -4.573,-2.927 -8.791,-2.927 -4.217,0 -5.939,1.102 -8.791,2.927 -3.538,2.264 -8.382,5.364 -17.122,5.364 -4.268,0 -7.726,-3.459 -7.726,-7.726 0,-4.267 3.459,-7.726 7.726,-7.726 4.218,0 5.94,-1.102 8.792,-2.927 3.538,-2.264 8.382,-5.364 17.121,-5.364 8.738,0 13.584,3.101 17.121,5.364 2.852,1.825 4.573,2.927 8.791,2.927 4.216,0 5.938,-1.102 8.79,-2.927 3.537,-2.264 8.381,-5.364 17.12,-5.364 8.737,0 13.582,3.101 17.118,5.364 2.852,1.825 4.572,2.927 8.789,2.927 4.268,0 7.726,3.459 7.726,7.726 0.001,4.267 -3.458,7.727 -7.726,7.727 z"
           fill="#64b9fc"
           id="path28515" />
      </g>
    </g>
    <path
       d="m 154.871,261.141 c -3.56,-7.129 -22.168,-12.566 -44.601,-12.566 -22.433,0 -41.042,5.437 -44.601,12.566 z"
       fill="#ffd496"
       id="path28521" />
  </g>
  <g
     transform="matrix(0,0.08302211,-0.08302211,0,124.51826,13.9713)"
     id="g30984">
    <path
       style="fill:#4caf50"
       d="m 443.336,164.68 -160,-160 c -6.24,-6.24 -16.384,-6.24 -22.624,0 l -160,160 c -4.608,4.608 -5.984,11.456 -3.488,17.44 2.464,5.984 8.32,9.888 14.784,9.888 h 80 v 119.36 c 0,36.992 -11.2,72.672 -32.352,103.2 -21.12,30.464 -50.592,53.44 -85.28,66.464 -7.232,2.72 -11.488,10.208 -10.112,17.824 1.376,7.616 8,13.152 15.744,13.152 h 90.88 c 110.016,0 181.12,-83.648 181.12,-213.12 v -106.88 h 80 c 6.464,0 12.32,-3.904 14.784,-9.888 2.464,-5.984 1.088,-12.832 -3.456,-17.44 z"
       id="path30929" />
    <g
       id="g30931">
</g>
    <g
       id="g30933">
</g>
    <g
       id="g30935">
</g>
    <g
       id="g30937">
</g>
    <g
       id="g30939">
</g>
    <g
       id="g30941">
</g>
    <g
       id="g30943">
</g>
    <g
       id="g30945">
</g>
    <g
       id="g30947">
</g>
    <g
       id="g30949">
</g>
    <g
       id="g30951">
</g>
    <g
       id="g30953">
</g>
    <g
       id="g30955">
</g>
    <g
       id="g30957">
</g>
    <g
       id="g30959">
</g>
  </g>
</svg>
