<?xml version="1.0" encoding="UTF-8" standalone="no"?>
<svg
   xmlns:dc="http://purl.org/dc/elements/1.1/"
   xmlns:cc="http://creativecommons.org/ns#"
   xmlns:rdf="http://www.w3.org/1999/02/22-rdf-syntax-ns#"
   xmlns:svg="http://www.w3.org/2000/svg"
   xmlns="http://www.w3.org/2000/svg"
   width="500"
   height="250"
   viewBox="0 0 132.29166 66.145835"
   version="1.1"
   id="svg8">
  <defs
     id="defs2">
    <rect
       id="rect5692"
       height="31.419271"
       width="28.318685"
       y="19.223633"
       x="111.62109" />
    <rect
       id="rect4959"
       height="36.793619"
       width="38.447265"
       y="12.815755"
       x="87.436523" />
    <rect
       id="rect3591"
       height="32.246093"
       width="36.586914"
       y="17.569987"
       x="2.6871745" />
    <rect
       x="33.261906"
       y="1.889881"
       width="32.127975"
       height="25.607887"
       id="rect952" />
    <rect
       x="23.718006"
       y="3.0238094"
       width="21.45015"
       height="20.127232"
       id="rect946" />
    <rect
       id="rect952-5"
       height="25.607887"
       width="32.127975"
       y="1.889881"
       x="33.261906" />
    <rect
       id="rect1246"
       height="25.607887"
       width="32.127975"
       y="1.889881"
       x="33.261906" />
    <rect
       id="rect2592"
       height="20.127232"
       width="21.45015"
       y="3.0238094"
       x="23.718006" />
    <rect
       x="23.718006"
       y="3.0238094"
       width="21.45015"
       height="20.127232"
       id="rect2600" />
    <rect
       id="rect2608"
       height="20.127232"
       width="21.45015"
       y="3.0238094"
       x="23.718006" />
    <rect
       x="2.6871746"
       y="17.569986"
       width="36.586914"
       height="32.246094"
       id="rect3591-5" />
    <rect
       x="2.6871746"
       y="17.569986"
       width="36.586914"
       height="32.246094"
       id="rect4205" />
  </defs>
  <metadata
     id="metadata5">
    <rdf:RDF>
      <cc:Work
         rdf:about="">
        <dc:format>image/svg+xml</dc:format>
        <dc:type
           rdf:resource="http://purl.org/dc/dcmitype/StillImage" />
        <dc:title></dc:title>
      </cc:Work>
    </rdf:RDF>
  </metadata>
  <g
     id="g5688"
     transform="matrix(0.52695301,0,0,0.52695301,36.033189,58.553707)">
    <path
       id="path5684"
       d="m 60.616729,-60.990905 v 18.708867"
       style="fill:none;stroke:#000000;stroke-width:3.96875;stroke-linecap:round;stroke-linejoin:miter;stroke-miterlimit:4;stroke-dasharray:none;stroke-opacity:1" />
    <path
       style="fill:none;stroke:#000000;stroke-width:3.96875;stroke-linecap:round;stroke-linejoin:miter;stroke-miterlimit:4;stroke-dasharray:none;stroke-opacity:1"
       d="M 69.971162,-51.636471 H 51.262295"
       id="path5686" />
  </g>
  <g
     transform="matrix(0.07415452,0,0,0.07415452,9.2626169,14.1276)"
     id="g5767">
    <g
       fill-rule="evenodd"
       id="g5732">
      <path
         d="M 256,10 C 120.13672,10 10,120.13672 10,256 c 0,63.95312 24.410156,122.20703 64.417969,165.95312 -0.847657,6.03125 -1.300781,12.17188 -1.300781,18.41407 0,21.95703 21.890624,26.19531 51.757812,23.79297 C 162.83203,488.12109 207.79297,502 256,502 c 48.20703,0 93.16797,-13.87891 131.125,-37.83984 29.86719,2.40234 51.75781,-1.83985 51.75781,-23.79297 0,-6.24219 -0.45312,-12.38281 -1.30078,-18.41406 C 477.58984,378.20313 502,319.95313 502,256 502,120.13672 391.86328,10 256,10 Z m 0,293.07031 c 37.75391,0 76.98437,20.34375 95.48437,50.58985 6.88282,11.2539 10.89844,23.8789 10.89844,37.33203 0,28.16015 -70.92187,2.69922 -106.38281,2.69922 -35.46094,0 -106.38281,25.46093 -106.38281,-2.69922 0,-13.45313 4.01562,-26.07813 10.89843,-37.33203 18.5,-30.24219 57.73047,-50.58985 95.48438,-50.58985 z m 0,0"
         fill="#ff6977"
         id="path5726" />
      <path
         d="m 256,303.07031 c -37.75391,0 -76.98438,20.34375 -95.48438,50.58985 H 351.48437 C 332.98437,323.41797 293.75391,303.07031 256,303.07031 Z m 0,0"
         fill="#f8f8f8"
         id="path5728" />
      <path
         d="M 351.48437,353.66016 H 160.51562 c -6.88281,11.2539 -10.89843,23.8789 -10.89843,37.33203 0,28.16015 70.92187,2.69922 106.38281,2.69922 35.46094,0 106.38281,25.46093 106.38281,-2.69922 0,-13.45313 -4.01562,-26.07813 -10.89844,-37.33203 z m 0,0"
         fill="#f8f8f8"
         id="path5730" />
    </g>
    <path
       d="M 512,256 C 512,187.62109 485.37109,123.33203 437.01953,74.980469 388.66797,26.628906 324.37891,0 256,0 203.96875,0 153.875,15.535156 111.13281,44.921875 c -4.55078,3.132813 -5.70312,9.355469 -2.57422,13.90625 3.12891,4.554687 9.35547,5.703125 13.90625,2.574219 C 161.85547,34.316406 208.03125,20 256,20 c 130.12891,0 236,105.87109 236,236 0,59.08594 -21.94531,115.625 -61.79688,159.20703 -2.01171,2.19922 -2.9375,5.17969 -2.52343,8.13281 0.79687,5.69141 1.20312,11.41797 1.20312,17.02735 0,5.22656 -1.79297,7.48437 -3.14062,8.72656 -3.69922,3.41797 -13.26953,7.07422 -37.8125,5.09766 -2.16016,-0.17578 -4.3125,0.35547 -6.14063,1.51172 C 344.17578,479.44922 300.67969,492 256,492 c -44.67578,0 -88.17188,-12.55078 -125.78906,-36.29687 -1.82813,-1.15625 -3.98047,-1.6836 -6.14063,-1.51172 -24.546872,1.97656 -34.113279,-1.67969 -37.812498,-5.09766 -1.347656,-1.24219 -3.140624,-3.5 -3.140624,-8.72656 0,-5.60938 0.40625,-11.33985 1.203124,-17.02344 0.414063,-2.95312 -0.511718,-5.9375 -2.523437,-8.14062 C 41.945312,371.63281 20,315.08984 20,256 20,208.02734 34.316406,161.85547 61.398438,122.46875 64.527344,117.91797 63.375,111.69531 58.824219,108.56641 54.277344,105.4375 48.050781,106.58594 44.917969,111.13672 15.53125,153.87109 0,203.96484 0,256 c 0,62.55078 22.667969,122.46484 63.9375,169.24609 -0.542969,5.0586 -0.816406,10.12891 -0.816406,15.1211 0,9.68359 3.21875,17.5625 9.574218,23.42578 9.5,8.76953 25.332032,12.15234 49.660158,10.57422 C 162.51562,498.99609 208.65234,512 256,512 c 47.35156,0 93.48828,-13.00391 133.64453,-37.63281 24.33203,1.58203 40.16016,-1.8086 49.66016,-10.57422 6.35547,-5.85938 9.57422,-13.74219 9.57422,-23.42578 0,-4.99219 -0.27344,-10.0625 -0.81641,-15.1211 C 489.33203,378.45703 512,318.54297 512,256 Z m 0,0"
       id="path5734" />
    <path
       d="m 350.65625,206.72656 c -4.78516,-2.76172 -10.89844,-1.12109 -13.66016,3.66016 l -21.21484,36.74219 c -1.84375,3.19531 -1.77734,7.14453 0.16797,10.27734 1.83203,2.94922 5.05078,4.72266 8.49219,4.72266 0.21484,0 0.42968,-0.008 0.64453,-0.0195 l 50.88672,-3.28515 c 5.51172,-0.35156 9.6914,-5.10938 9.33593,-10.62109 -0.35547,-5.51172 -5.1289,-9.6836 -10.625,-9.33594 l -32.23828,2.07812 11.8711,-20.55859 c 2.76172,-4.78125 1.12109,-10.89844 -3.66016,-13.66016 z m 0,0"
       id="path5736" />
    <path
       d="m 126.69531,248.20312 c -0.35547,5.51172 3.82031,10.26954 9.33594,10.625 l 50.88281,3.28125 c 0.21485,0.0117 0.42969,0.0195 0.64453,0.0195 3.44141,0 6.66407,-1.77344 8.4961,-4.72266 1.94531,-3.13281 2.00781,-7.08203 0.16406,-10.27734 l -21.21484,-36.74219 c -2.76172,-4.78125 -8.875,-6.41797 -13.66016,-3.66016 -4.78125,2.76172 -6.42188,8.87891 -3.66016,13.66016 l 11.8711,20.5625 -32.23828,-2.08203 c -5.50391,-0.35157 -10.26563,3.82422 -10.6211,9.33593 z m 0,0"
       id="path5738" />
    <path
       d="m 177.21094,320.55469 c -24.24219,19.01172 -37.59375,44.02734 -37.59375,70.4375 0,6.72656 2.54687,12.42578 7.36328,16.48047 13.12109,11.03906 39.24219,6.51562 69.49219,1.26562 14.30468,-2.48047 29.09375,-5.04297 39.52734,-5.04297 10.43359,0 25.22266,2.5625 39.52734,5.04297 16.57422,2.875 31.91016,5.53516 44.54688,5.53516 10.42187,0 19.01172,-1.8086 24.94531,-6.80078 4.81641,-4.05469 7.35938,-9.75391 7.35938,-16.48047 0,-26.41016 -13.35157,-51.42578 -37.59375,-70.4375 -22.27344,-17.46485 -50.99219,-27.48047 -78.78907,-27.48047 -27.79687,0 -56.51172,10.01562 -78.78515,27.48047 z m 153.70703,23.10547 H 181.08203 C 200.11328,324.80469 229.00781,313.07422 256,313.07422 c 26.99219,0 55.88672,11.73047 74.91797,30.58594 z m 21.32812,48.41015 c -0.0195,0.0234 -2.28906,2.65235 -15.5664,2.10156 -10.7461,-0.45703 -24.46875,-2.83593 -37.73438,-5.13671 -15.83203,-2.7461 -30.78906,-5.33985 -42.94531,-5.33985 -12.15234,0 -27.10938,2.59375 -42.94531,5.33985 -13.26563,2.30078 -26.98438,4.67968 -37.73047,5.13671 -13.27344,0.5625 -15.55078,-2.07421 -15.56641,-2.09765 -0.0352,-0.0664 -0.13672,-0.40235 -0.13672,-1.07813 0,-9.72265 2.41797,-18.91015 6.67188,-27.33593 h 179.41797 c 4.2539,8.42578 6.67187,17.61328 6.67187,27.33593 0,0.67188 -0.10547,1.01172 -0.13672,1.07422 z m 0,0"
       id="path5740" />
    <path
       d="m 196.54687,155.73828 c -2.76171,-4.78516 -8.875,-6.42187 -13.66015,-3.66016 -4.78125,2.76172 -6.42188,8.875 -3.66016,13.66016 l 29.67188,51.39063 c 1.85547,3.20703 5.21484,5.0039 8.67187,5.0039 1.69531,0 3.41406,-0.43359 4.98828,-1.34375 4.78516,-2.76172 6.42188,-8.875 3.66016,-13.66015 z m 0,0"
       id="path5742" />
    <path
       d="m 329.11328,152.07812 c -4.78516,-2.76562 -10.89844,-1.125 -13.66016,3.66016 l -29.67187,51.39063 c -2.76172,4.78515 -1.12109,10.89843 3.66016,13.66015 1.57421,0.91016 3.29296,1.34375 4.99218,1.34375 3.45313,0 6.81641,-1.79687 8.66797,-5.0039 l 29.67188,-51.39063 c 2.76172,-4.78516 1.12109,-10.90234 -3.66016,-13.66016 z m 0,0"
       id="path5744" />
    <path
       d="m 82.046875,92.050781 c 2.5625,0 5.125,-0.976562 7.078125,-2.929687 3.902344,-3.902344 3.902344,-10.234375 0,-14.140625 -3.90625,-3.90625 -10.238281,-3.90625 -14.144531,0 l -0.0039,0.0039 c -3.90625,3.90625 -3.902343,10.234375 0,14.140625 1.953126,1.953125 4.511719,2.925781 7.070313,2.925781 z m 0,0"
       id="path5746" />
  </g>
  <g
     transform="matrix(0.08644636,0,0,0.08644636,81.359307,10.539117)"
     id="g5890">
    <g
       id="g5862">
      <path
         d="m 377.218,214.34 h 0.172 c 14.806,0 26.803,-12.007 26.803,-26.803 0,-14.806 -11.997,-26.814 -26.803,-26.814 -0.193,0 -0.385,0 -0.578,0.01 H 131.374 c -0.193,-0.01 -0.385,-0.01 -0.578,-0.01 -14.806,0 -26.803,12.007 -26.803,26.814 0,14.796 11.997,26.803 26.803,26.803 h 0.172"
         fill="#f1b986"
         id="path5834" />
      <path
         d="m 371.053,90.73 c -77.973,-7.559 -155.946,-7.559 -233.919,0 -6.051,48.481 -7.833,96.961 -5.347,145.442 1.81,35.291 30.05,63.382 65.349,65.049 37.972,1.793 75.943,1.793 113.915,0 35.298,-1.667 63.539,-29.757 65.349,-65.049 2.486,-48.481 0.704,-96.962 -5.347,-145.442 z"
         fill="#f1d0a5"
         id="path5836" />
      <path
         d="m 137.138,90.722 c 38.98,-3.78 77.971,-5.665 116.962,-5.665 -19.74,0 -39.48,1.908 -59.22,5.723 -3.071,48.948 -3.967,97.897 -2.71,146.834 0.826,32.21 12.598,58.475 28.045,64.466 -7.689,-0.209 -15.39,-0.5 -23.078,-0.861 -35.292,-1.663 -63.535,-29.755 -65.35,-65.048 -2.477,-48.482 -0.697,-96.966 5.351,-145.449 z"
         fill="#f1b986"
         id="path5838" />
      <path
         d="m 254.093,262.279 c -13.63,0 -26.214,-7.958 -32.059,-20.275 -1.829,-3.855 -0.187,-8.464 3.668,-10.293 3.856,-1.829 8.463,-0.187 10.293,3.668 3.3,6.954 10.404,11.447 18.099,11.447 7.695,0 14.799,-4.493 18.1,-11.447 1.829,-3.854 6.437,-5.497 10.293,-3.667 3.855,1.83 5.497,6.438 3.667,10.293 -5.847,12.316 -18.431,20.274 -32.061,20.274 z"
         fill="#c32430"
         id="path5840" />
      <g
         fill="#454045"
         id="g5846">
        <ellipse
           cx="197.021"
           cy="193.57401"
           rx="11.16"
           ry="16.612"
           id="ellipse5842" />
        <ellipse
           cx="311.16599"
           cy="193.57401"
           rx="11.16"
           ry="16.612"
           id="ellipse5844" />
      </g>
      <path
         d="m 319.038,131.045 c -44.817,17.313 -108.479,9.679 -140.563,-22.405 0,0 -7.619,52.092 -47.092,52.092 l -17.213,5.789 C 68.197,-13.936 166.254,34.281 166.254,34.281 175.512,16.34 188.996,8.913 203.085,7.121 c 1.24,-0.153 2.481,-0.268 3.729,-0.345 0.1,0 0.199,-0.008 0.299,-0.015 9.924,-0.528 19.97,1.485 28.898,4.357 3.109,1.003 6.087,2.106 8.875,3.247 11.218,4.587 19.388,9.74 21.103,10.843 0.222,0.153 0.337,0.23 0.337,0.23 C 276.418,12.083 286.043,0 296.625,0 c 4.342,0 7.343,1.662 9.357,4.319 7.634,10.008 1.363,34.074 0.858,35.966 l -0.023,0.084 c 0.008,-0.015 0.015,-0.046 0.031,-0.084 l 0.054,-0.138 C 308.256,36.731 323.418,0 350.608,0 c 1.715,0 3.254,0.161 4.625,0.467 20.268,4.479 4.403,39.932 2.657,43.684 l -0.046,0.107 c -0.046,0.092 -0.077,0.161 -0.092,0.191 0.865,-1.103 34.81,-44.197 49.894,-24.426 0.008,0.015 0.008,0.015 0.015,0.023 15.216,20.055 -43.829,93.694 -88.623,110.999 z"
         fill="#f4dd45"
         id="path5848" />
      <g
         fill="#ecc32e"
         id="g5860">
        <path
           d="m 407.646,20.023 h -0.008 c -7.627,-7.619 -34.044,28.347 -49.909,24.449 l 0.115,-0.214 c -0.046,0.092 -0.077,0.161 -0.092,0.191 0.866,-1.102 34.81,-44.196 49.894,-24.426 z"
           id="path5850" />
        <path
           d="m 355.233,0.467 c -11.457,-2.602 -22.077,19.206 -28.078,34.687 -2.902,7.487 -11.89,10.491 -18.715,6.261 l -1.639,-1.016 0.015,-0.031 0.023,-0.084 h 0.008 l 0.054,-0.138 C 308.256,36.731 323.418,0 350.608,0 c 1.715,0 3.255,0.161 4.625,0.467 z"
           id="path5852" />
        <path
           d="m 203.083,7.121 c -32.788,5.781 -45.177,80.952 -24.61,101.519 0,0 -7.619,52.092 -47.092,52.092 l -17.213,5.789 C 68.194,-13.936 166.252,34.281 166.252,34.281 175.509,16.34 188.994,8.913 203.083,7.121 Z"
           id="path5854" />
        <path
           d="m 305.982,4.319 c -11.524,-11.524 -19.204,47.574 -45.147,57.038 -25.942,9.464 -28.37,-2.634 -28.37,-2.634 v -0.008 c 12.772,-4.724 23.553,-19.656 33.852,-33.286 0.008,0.008 0.008,0.008 0.008,0.008 0.314,-0.421 0.628,-0.835 0.942,-1.248 0.39,-0.528 0.796,-1.057 1.194,-1.577 C 277.789,10.429 286.793,0 296.625,0 c 4.342,0 7.343,1.662 9.357,4.319 z"
           id="path5856" />
        <path
           d="m 207.134,6.769 c -0.107,0 -0.214,0 -0.322,0.008 0.1,0 0.199,-0.008 0.299,-0.015 z"
           id="path5858" />
      </g>
    </g>
    <path
       d="m 409.069,243.772 -133.901,29.019 -0.002,10e-4 v -0.003 h -38.333 v 0.002 L 236.831,272.79 102.93,243.771 c -13.656,-2.966 -26.568,7.448 -26.568,21.419 v 161.203 c 0,10.318 7.2,19.244 17.28,21.428 l 143.189,31.031 0.002,-10e-4 v 10e-4 h 38.333 v -10e-4 l 0.002,10e-4 143.189,-31.031 c 10.08,-2.184 17.28,-11.11 17.28,-21.428 V 265.191 c 0,-13.971 -12.912,-24.385 -26.568,-21.419 z"
       fill="#dfeaef"
       id="path5864" />
    <path
       d="M 450.055,281.188 V 455.33 c 0,11.147 -7.778,20.789 -18.667,23.148 L 276.707,512 256.742,499.372 V 302.565 l 19.965,-13.166 144.648,-31.348 c 14.752,-3.205 28.7,8.045 28.7,23.137 z"
       fill="#da4a54"
       id="path5866" />
    <path
       d="M 256.742,302.565 V 499.372 L 235.293,512 80.612,478.478 C 69.723,476.119 61.945,466.476 61.945,455.33 V 281.188 c 0,-15.092 13.949,-26.342 28.701,-23.138 l 144.648,31.348 z"
       fill="#c32430"
       id="path5868" />
    <path
       d="M 235.295,512 V 289.397 h 41.41 V 512"
       fill="#dd636e"
       id="path5870" />
    <path
       d="m 328.93,348.285 c -3.558,0 -6.759,-2.472 -7.543,-6.091 -0.904,-4.17 1.744,-8.284 5.914,-9.188 l 85.556,-18.543 c 4.174,-0.904 8.284,1.744 9.188,5.914 0.904,4.17 -1.744,8.284 -5.914,9.188 l -85.556,18.543 c -0.553,0.12 -1.103,0.177 -1.645,0.177 z"
       fill="#454045"
       id="path5872" />
    <path
       d="m 328.93,376.996 c -3.558,0 -6.759,-2.472 -7.543,-6.091 -0.904,-4.17 1.744,-8.284 5.914,-9.188 l 85.556,-18.543 c 4.174,-0.903 8.284,1.744 9.188,5.914 0.904,4.17 -1.744,8.284 -5.914,9.188 l -85.556,18.543 c -0.553,0.12 -1.103,0.177 -1.645,0.177 z"
       fill="#454045"
       id="path5874" />
    <g
       id="g5888">
      <g
         id="g5880">
        <path
           d="m 57.695,365.329 h -8.101 c -11.963,0 -21.66,-9.698 -21.66,-21.66 v -19.443 c 0,-11.963 9.698,-21.66 21.66,-21.66 h 8.101 c 11.963,0 21.66,9.698 21.66,21.66 v 19.443 c 0,11.963 -9.698,21.66 -21.66,21.66 z"
           fill="#f1d0a5"
           id="path5876" />
        <path
           d="m 61.857,364.921 c -1.339,0.278 -2.74,0.412 -4.162,0.412 h -8.108 c -11.96,0 -21.654,-9.704 -21.654,-21.665 v -19.44 c 0,-11.971 9.694,-21.665 21.654,-21.665 h 8.108 c 1.422,0 2.823,0.134 4.162,0.412 -9.962,1.937 -17.482,10.714 -17.482,21.253 v 19.44 c 0,10.54 7.52,19.317 17.482,21.253 z"
           fill="#f1b986"
           id="path5878" />
      </g>
      <g
         id="g5886">
        <path
           d="m 462.407,365.329 h -8.101 c -11.963,0 -21.66,-9.698 -21.66,-21.66 v -19.443 c 0,-11.963 9.698,-21.66 21.66,-21.66 h 8.101 c 11.963,0 21.66,9.698 21.66,21.66 v 19.443 c 0,11.963 -9.698,21.66 -21.66,21.66 z"
           fill="#f1d0a5"
           id="path5882" />
        <path
           d="m 466.569,364.921 c -1.339,0.278 -2.74,0.412 -4.162,0.412 h -8.108 c -11.96,0 -21.654,-9.704 -21.654,-21.665 v -19.44 c 0,-11.971 9.694,-21.665 21.654,-21.665 h 8.108 c 1.422,0 2.823,0.134 4.162,0.412 -9.962,1.937 -17.482,10.714 -17.482,21.253 v 19.44 c 0,10.54 7.52,19.317 17.482,21.253 z"
           fill="#f1b986"
           id="path5884" />
      </g>
    </g>
  </g>
</svg>
