<?xml version="1.0" encoding="UTF-8" standalone="no"?>
<svg
   xmlns:dc="http://purl.org/dc/elements/1.1/"
   xmlns:cc="http://creativecommons.org/ns#"
   xmlns:rdf="http://www.w3.org/1999/02/22-rdf-syntax-ns#"
   xmlns:svg="http://www.w3.org/2000/svg"
   xmlns="http://www.w3.org/2000/svg"
   width="500"
   height="250"
   viewBox="0 0 132.29166 66.145835"
   version="1.1"
   id="svg8">
  <defs
     id="defs2">
    <rect
       id="rect17555"
       height="33.899739"
       width="45.47526"
       y="14.469401"
       x="64.905598" />
    <rect
       id="rect16657"
       height="39.6875"
       width="52.916666"
       y="16.536458"
       x="16.123047" />
    <rect
       id="rect14952"
       height="41.217972"
       width="28.355626"
       y="11.693042"
       x="56.1266" />
    <rect
       id="rect12397"
       height="46.715494"
       width="47.955729"
       y="8.6816405"
       x="71.933593" />
    <rect
       id="rect10750"
       height="32.448191"
       width="43.55658"
       y="16.95491"
       x="54.080318" />
    <rect
       id="rect10116"
       height="31.278887"
       width="27.917137"
       y="16.808747"
       x="101.14481" />
    <rect
       id="rect9439"
       height="25.14004"
       width="57.003578"
       y="26.309344"
       x="5.2618688" />
    <rect
       id="rect8476"
       height="26.60167"
       width="35.663777"
       y="22.216779"
       x="51.449384" />
    <rect
       id="rect8111"
       height="60.358072"
       width="46.715494"
       y="-7.4414062"
       x="111.20768" />
    <rect
       id="rect5692"
       height="31.419271"
       width="28.318685"
       y="19.223633"
       x="111.62109" />
    <rect
       id="rect4959"
       height="36.793619"
       width="38.447265"
       y="12.815755"
       x="87.436523" />
    <rect
       id="rect3591"
       height="32.246093"
       width="36.586914"
       y="17.569987"
       x="2.6871745" />
    <rect
       x="33.261906"
       y="1.889881"
       width="32.127975"
       height="25.607887"
       id="rect952" />
    <rect
       x="23.718006"
       y="3.0238094"
       width="21.45015"
       height="20.127232"
       id="rect946" />
    <rect
       id="rect952-5"
       height="25.607887"
       width="32.127975"
       y="1.889881"
       x="33.261906" />
    <rect
       id="rect1246"
       height="25.607887"
       width="32.127975"
       y="1.889881"
       x="33.261906" />
    <rect
       id="rect2592"
       height="20.127232"
       width="21.45015"
       y="3.0238094"
       x="23.718006" />
    <rect
       x="23.718006"
       y="3.0238094"
       width="21.45015"
       height="20.127232"
       id="rect2600" />
    <rect
       id="rect2608"
       height="20.127232"
       width="21.45015"
       y="3.0238094"
       x="23.718006" />
    <rect
       x="2.6871746"
       y="17.569986"
       width="36.586914"
       height="32.246094"
       id="rect3591-5" />
    <rect
       x="2.6871746"
       y="17.569986"
       width="36.586914"
       height="32.246094"
       id="rect4205" />
    <rect
       x="111.20768"
       y="-7.4414062"
       width="46.715494"
       height="60.358072"
       id="rect8139" />
    <rect
       x="51.449384"
       y="22.216779"
       width="35.663777"
       height="26.60167"
       id="rect8484" />
    <rect
       x="16.123047"
       y="16.536458"
       width="52.916666"
       height="39.6875"
       id="rect16854" />
    <rect
       x="16.123047"
       y="16.536458"
       width="52.916666"
       height="39.6875"
       id="rect16860" />
    <rect
       x="64.905598"
       y="14.469401"
       width="45.47526"
       height="33.899739"
       id="rect17563" />
    <rect
       x="64.905598"
       y="14.469401"
       width="45.47526"
       height="33.899739"
       id="rect20027" />
  </defs>
  <metadata
     id="metadata5">
    <rdf:RDF>
      <cc:Work
         rdf:about="">
        <dc:format>image/svg+xml</dc:format>
        <dc:type
           rdf:resource="http://purl.org/dc/dcmitype/StillImage" />
        <dc:title></dc:title>
      </cc:Work>
    </rdf:RDF>
  </metadata>
  <g
     transform="matrix(0.26458333,0,0,0.26458333,71.999739,33.965621)"
     id="g14585">
</g>
  <g
     transform="matrix(0.26458333,0,0,0.26458333,71.999739,33.965621)"
     id="g14587">
</g>
  <g
     transform="matrix(0.26458333,0,0,0.26458333,71.999739,33.965621)"
     id="g14589">
</g>
  <g
     transform="matrix(0.26458333,0,0,0.26458333,71.999739,33.965621)"
     id="g14591">
</g>
  <g
     transform="matrix(0.26458333,0,0,0.26458333,71.999739,33.965621)"
     id="g14593">
</g>
  <g
     transform="matrix(0.26458333,0,0,0.26458333,71.999739,33.965621)"
     id="g14595">
</g>
  <g
     transform="matrix(0.26458333,0,0,0.26458333,71.999739,33.965621)"
     id="g14597">
</g>
  <g
     transform="matrix(0.26458333,0,0,0.26458333,71.999739,33.965621)"
     id="g14599">
</g>
  <g
     transform="matrix(0.26458333,0,0,0.26458333,71.999739,33.965621)"
     id="g14601">
</g>
  <g
     transform="matrix(0.26458333,0,0,0.26458333,71.999739,33.965621)"
     id="g14603">
</g>
  <g
     transform="matrix(0.26458333,0,0,0.26458333,71.999739,33.965621)"
     id="g14605">
</g>
  <g
     transform="matrix(0.26458333,0,0,0.26458333,71.999739,33.965621)"
     id="g14607">
</g>
  <g
     transform="matrix(0.26458333,0,0,0.26458333,71.999739,33.965621)"
     id="g14609">
</g>
  <g
     transform="matrix(0.26458333,0,0,0.26458333,71.999739,33.965621)"
     id="g14611">
</g>
  <g
     transform="matrix(0.26458333,0,0,0.26458333,71.999739,33.965621)"
     id="g14613">
</g>
  <text
     xml:space="preserve"
     id="text20025"
     style="font-style:normal;font-variant:normal;font-weight:bold;font-stretch:normal;font-size:10.5833px;line-height:1.25;font-family:sans-serif;-inkscape-font-specification:'sans-serif Bold';white-space:pre;shape-inside:url(#rect20027);fill:#000000;fill-opacity:1;stroke:none;"
     transform="matrix(1.9806468,0,0,1.9806468,-55.776287,-6.3905281)"><tspan
       x="64.90625"
       y="24.124215"><tspan
         style="font-style:normal;font-variant:normal;font-weight:bold;font-stretch:normal;font-family:sans-serif;-inkscape-font-specification:'sans-serif Bold'">OVO</tspan></tspan></text>
  <g
     transform="matrix(0.58343358,0,0,0.58343358,3.808636,-0.03469731)"
     id="g20474">
    <path
       d="m 99.383034,69.990463 c -0.140015,0.75 -0.590393,0.450836 -1.290405,0.751129 -1.410035,0.629883 -2.215592,1.288949 -3.665604,0.739144 -0.762909,-0.283928 -1.483048,-0.370468 -2.173676,-0.798233 -0.794006,-0.491791 -1.541305,-1.0606 -2.231201,-1.697266 -0.850036,-0.770019 -1.619995,-1.639648 -2.320007,-2.55957 -1.75,-2.310547 -3.049988,-4.930172 -4.340027,-7.53027 -0.799988,-1.589843 -1.589966,-3.189941 -2.380005,-4.780273 -0.309998,3.090332 -0.619995,6.19043 -0.929993,9.280273 -0.22998,2.319821 -0.45996,4.700192 0.119995,6.959958 0.309998,1.189941 0.820008,2.310058 1.050049,3.520019 0.389954,2.080078 -0.190002,4.319824 -1.530029,5.959961 0.549988,0.870117 0.130005,2.279785 -0.200012,3.260254 -0.320008,0.97998 -1.109986,1.790039 -2.070008,2.159668 -0.289978,0.109863 -0.599975,0.180176 -0.899963,0.25 -1,0.22998 -2,0.459961 -3,0.689941 -0.730041,0.169922 -1.559998,0.330078 -2.190002,-0.08008 -0.380005,-0.239746 -0.630005,-0.659668 -0.970032,-0.949707 -0.109985,-0.109863 -0.23999,-0.200195 -0.389954,-0.260254 -0.520019,-0.209961 -1.140014,-0.0098 -1.660034,-0.219726 -0.51001,-0.209961 -0.789978,-0.780274 -0.830017,-1.320313 -0.01996,-0.289551 0.02002,-0.57959 0.08002,-0.859863 0.09003,-0.390137 0.450012,-0.649902 0.840027,-0.589844 1.75,0.279785 3.609985,-0.760254 4.589966,-2.279785 0.880005,-1.340332 1.210022,-3.040039 0.880005,-4.620117 -0.190003,-0.930176 -0.589966,-1.800293 -0.98999,-2.660157 -1.450013,-3.129882 -2.909974,-6.279785 -4.919983,-9.08984 -0.26001,-0.370117 -0.580017,-0.75 -1.03003,-0.800293 -0.45996,-0.0498 -1.46997,0.530274 -1.890014,0.71045 -6.269959,2.579586 -15.719971,3.489742 -20.659973,3.779781 -0.450012,5.779785 -0.880005,11.560059 -1.330017,17.339844 -0.06,0.800293 -0.139954,1.660156 -0.589966,2.330078 -0.980042,1.430176 -3.070007,1.350098 -4.780029,1.120117 -1.26001,-0.169922 -2.51001,-0.340332 -3.76001,-0.520019 -1.179993,-0.160157 -2.349978,-0.320313 -3.519961,-0.479981 -0.369995,-0.05029 -0.730041,-0.220215 -0.960022,-0.520019 -0.71997,-0.930176 0.359986,-1.939942 1.359986,-2.189942 0.910034,-0.22998 1.970033,-0.260254 2.570009,-0.97998 0.480041,-0.580078 0.470032,-1.400391 0.419983,-2.150391 -0.299988,-4.149902 -1.549988,-8.219727 -3.599978,-11.839844 -0.589965,-1.060058 -1.260009,-2.069824 -1.98999,-3.040039 -0.280029,0.400391 -0.559997,0.800293 -0.840027,1.200195 -0.08997,-0.419921 -0.179992,-0.839843 -0.259948,-1.260253 -0.430054,0.439941 -0.860047,0.870117 -1.29004,1.310058 -0.20996,-0.580078 -0.409973,-1.160156 -0.619995,-1.72998 -0.02002,-0.08008 -0.04999,-0.149903 -0.07001,-0.219727 l -0.419983,0.389649 c -0.349975,0.340332 -0.710022,0.67041 -1.059997,1.010253 0.02002,-0.220214 0.04999,-0.430175 0.08002,-0.649902 0.04999,-0.42041 0.09997,-0.850098 0.149963,-1.270019 -0.369995,0.109863 -0.73999,0.219726 -1.109985,0.339843 -0.04999,-0.609863 -0.09998,-1.219722 -0.159973,-1.81982 -0.26001,0.299805 -0.53003,0.600098 -0.800049,0.909664 -0.01996,-0.989742 -0.03998,-1.989742 -0.06,-2.979977 l -1.349975,0.670411 0.01001,-3.19043 c -0.08002,0.430176 -0.179992,0.860352 -0.270019,1.290039 -0.479981,-1.599609 -0.969971,-3.199707 -1.460022,-4.799805 -0.109986,0.319825 -0.219971,0.639649 -0.329956,0.950196 -0.350037,-0.900391 -0.690003,-1.800293 -1.040039,-2.71045 -0.08997,0.5 -0.440003,0.939942 -0.909973,1.140137 -0.119996,-1.069824 -0.229981,-2.129883 -0.350037,-3.200195 -0.169983,0.300293 -0.599976,0.42041 -0.769959,0.720215 -0.390014,-2.02002 -0.780029,-4.040039 -1.179992,-6.049805 0.01001,0.409668 0.01996,0.819824 0.01996,1.22998 -0.559997,-1.22998 -1.139953,-2.45996 -1.709961,-3.690429 0.200013,-0.649903 -0.559997,-1.359864 -1.190002,-1.119629 0.419983,-0.580078 0.279968,-1.419922 -0.179993,-1.950195 -0.190002,-1.119629 -0.390014,-2.239747 -0.580017,-3.359864 0.659973,-1.430176 1.320007,-2.870117 1.979981,-4.310058 -0.269959,-1.879883 -0.529969,-3.77002 -0.799988,-5.649903 0.869995,-0.270019 1.450012,-1.240234 1.289978,-2.140136 0.25,0.350097 0.5,0.700195 0.75,1.050293 0.320007,-0.840332 0.650024,-1.69043 0.970032,-2.530274 0.399963,0.379883 0.809997,0.77002 1.210022,1.149903 -0.190003,-0.969727 1.169982,-1.810059 1.949951,-1.199707 0.200012,-0.330079 0.410034,-0.650391 0.619995,-0.979981 0.770019,0.129883 1.540039,0.259766 2.309997,0.389648 0.340027,-0.119628 0.670044,-0.25 1.01001,-0.379882 0.06,0.419922 0.119995,0.840332 0.170044,1.25 0.419983,-0.319825 0.829956,-0.629883 1.25,-0.949707 0.629944,0.579589 1.779968,0.419922 2.219971,-0.310059 1.070007,-0.149902 2.140014,-0.300293 3.210022,-0.450195 -0.170044,0.270019 -0.350037,0.550293 -0.530029,0.819824 1.22998,0.669922 2.460022,1.330078 3.690002,2 0.410036,0.05029 0.78998,0.330078 0.950014,0.709961 -0.410034,0.06006 -0.809999,0.120117 -1.210024,0.17041 2.040041,2.179688 4.929995,3.529785 7.910036,3.709961 -0.650024,0.350098 -1.290039,0.699707 -1.940002,1.049805 0.529968,0.330078 0.919983,0.879882 1.049988,1.490234 2.039978,0.479981 4,3.279785 5.630005,5.259766 0.339965,0.419922 0.669982,0.800293 0.97998,1.109863 0.230042,0.230469 0.400024,-2.219727 0.609985,-1.969727 0.930054,1.069825 1.700013,2.279786 2.26001,3.589844 0.200012,-0.06982 0.410034,-0.139648 0.610047,-0.200195 1.819946,-0.569824 3.699951,-0.889649 5.579956,-1.219727 3.01001,-0.509765 6.020019,-1.030273 9.030029,-1.549804 4.679993,-0.810059 9.76001,-1.550293 13.940002,0.679687 3.570008,1.910156 5.789978,5.669922 7.039978,9.510254 0.400025,1.219727 0.720032,2.459961 1,3.709961 0,0.0098 0.01001,0.02979 0.01001,0.04004 0.190003,0.839844 0.369995,1.699707 0.549988,2.549805 0,0.04004 0.01001,0.06982 0.02002,0.109863 0.359985,1.800293 0.72998,3.610352 1.21997,5.390137 0.220032,0.800293 0.480042,1.600097 0.77002,2.390136 0,0.0098 0,0.02002 0.01001,0.02002 0.799987,2.149902 1.880004,4.199703 3.369995,5.869625 0.609985,0.69043 1.289978,1.320312 2.049987,1.860352 0.03731,0.02687 0.09705,0.05405 0.135132,0.07959 1.421364,0.953484 3.342789,0.983796 4.823143,0.12687 0.349976,-0.19043 0.64,-0.0185 1.040024,-0.03852 0.759948,-0.04981 0.322609,-0.152947 0.192604,0.597053 z"
       fill="#fbd8b0"
       id="path20287" />
    <path
       d="m 74.418922,69.622803 c -1.546661,-4.636444 -3.608894,-8.675671 -5.667526,-11.249798 0,0 -21.55376,7.086269 -24.81773,5.045299 l 0.444447,3.576905 c 0,-0.01424 0.0036,-0.02847 0.0036,-0.04271 9.079525,0.151291 13.808025,-0.586494 21.336834,-3.925338 0.418747,-0.185704 0.757332,-0.611458 1.215973,-0.561631 0.444443,0.04618 0.76445,0.433678 1.027595,0.8 2.00885,2.805202 3.470177,5.955539 4.920822,9.087818 0.398262,0.86042 0.800004,1.731598 0.988457,2.663192 0.327126,1.574997 0.0036,3.274643 -0.874649,4.622208 -0.986458,1.513016 -2.847305,2.556244 -4.590401,2.276733 -0.389625,-0.0625 -0.753685,0.204857 -0.84127,0.589577 -0.06416,0.28212 -0.101738,0.567711 -0.08298,0.856255 0.03558,0.547561 0.323563,1.116485 0.832024,1.322738 0.519096,0.209717 1.137756,0.01059 1.656852,0.220482 0.149353,0.06042 0.277344,0.152954 0.394661,0.255905 0,0 -0.416465,-2.135177 2.335976,-2.8302 1.451668,-0.366562 1.457809,-0.77153 2.403557,-4.380371 0.942268,-3.605377 0.856941,-3.69062 -0.686196,-8.327064 z"
       fill="#f0c189"
       id="path20289" />
    <path
       d="m 36.875915,83.016518 c 0,0 -4.762462,1.626678 -2.958194,4.213356 -0.984894,-0.135239 -1.973345,-0.27031 -2.958239,-0.405381 -0.647133,-0.08889 -1.404423,-0.252426 -1.66753,-0.849823 -0.376909,-0.856765 0.604425,-1.710235 1.511107,-1.937667 0.906639,-0.231247 1.969745,-0.259552 2.567096,-0.981423 0.479988,-0.575866 0.476429,-1.400863 0.423088,-2.14756 -0.394661,-5.358147 -2.360889,-10.591987 -5.589309,-14.88694 -0.280901,0.401734 -0.561804,0.799996 -0.842663,1.201729 -0.08533,-0.419617 -0.174217,-0.839233 -0.25959,-1.255203 -0.430208,0.433853 -0.860415,0.867706 -1.294182,1.304855 -0.20269,-0.579513 -0.408896,-1.155548 -0.611544,-1.731415 4.657757,-1.674652 10.015948,-3.50225 10.015948,-3.50225 0,0 1.536018,11.128791 1.664012,12.792846 0.127995,1.664063 0,8.184876 0,8.184876 z"
       fill="#f0c189"
       id="path20291" />
    <path
       d="m 48.644768,49.053932 c -0.20269,1.00972 -0.405339,2.023087 -0.611546,3.032807 0.03555,1.735237 0.06754,3.466655 0.103127,5.201896 0.01419,0.72517 -0.01068,1.539406 -0.533333,2.040791 -0.476475,0.455208 -1.475605,0.24184 -1.571568,-0.341316 0,0.785759 0,1.56805 -0.0036,2.353813 -0.497783,-0.04618 -0.999084,0.355553 -1.05603,0.853294 -0.860413,-1.07378 -1.717312,-2.147564 -2.57777,-3.221344 -0.376866,0.977776 -1.735066,1.418747 -2.616833,0.846176 -0.483593,1.006249 -0.970657,2.015969 -1.45425,3.022217 -0.206207,-0.305729 -0.408852,-0.611458 -0.615105,-0.917358 -0.266662,1.255203 -0.536888,2.51041 -0.807114,3.765438 -0.355556,-0.462326 -0.711109,-0.927948 -1.066665,-1.390274 -0.50486,1.319099 -1.009762,2.638191 -1.514664,3.957458 -0.206207,-0.522743 -0.415974,-1.048957 -0.622223,-1.575172 -1.169788,0.792885 -2.335973,1.585762 -3.502203,2.382111 -0.597351,-1.055901 -1.262193,-2.072907 -1.991098,-3.043389 -0.280901,0.401734 -0.561804,0.799996 -0.842663,1.201729 -0.08533,-0.419617 -0.174217,-0.839233 -0.25959,-1.255203 -0.430208,0.433853 -0.860414,0.867706 -1.294182,1.304855 -0.20269,-0.579513 -0.408895,-1.155548 -0.611543,-1.731415 -0.02847,-0.07118 -0.05334,-0.145836 -0.07821,-0.216842 l -0.416058,0.394615 c -0.351995,0.334205 -0.70755,0.668403 -1.059545,1.002601 0.02491,-0.216835 0.05338,-0.430206 0.07825,-0.647049 0.04978,-0.423088 0.09952,-0.846351 0.152907,-1.269439 -0.369789,0.113891 -0.73958,0.224136 -1.109371,0.337845 -0.0533,-0.607979 -0.106684,-1.212494 -0.159983,-1.820477 -0.266667,0.305725 -0.533331,0.607983 -0.799997,0.910236 -0.02135,-0.992008 -0.04267,-1.987491 -0.06398,-2.979503 -0.448002,0.223957 -0.896003,0.447914 -1.344007,0.671875 l 0.01068,-3.189228 c -0.08889,0.430206 -0.181335,0.860412 -0.270224,1.290619 -0.487152,-1.599995 -0.977775,-3.196343 -1.464927,-4.796341 -0.110199,0.316494 -0.220398,0.632812 -0.330641,0.949302 -0.344877,-0.903121 -0.693316,-1.806243 -1.041794,-2.709365 -0.08889,0.497741 -0.440885,0.938713 -0.906639,1.134197 -0.117361,-1.066662 -0.234678,-2.133328 -0.351996,-3.199993 -0.170659,0.302257 -0.593791,0.423092 -0.76445,0.725345 -0.394661,-2.019436 -0.785806,-4.039051 -1.180423,-6.055019 0.0071,0.408855 0.01419,0.817707 0.02131,1.226562 -0.56888,-1.230205 -1.141361,-2.456764 -1.710196,-3.687145 0.195529,-0.65052 -0.565363,-1.358154 -1.19826,-1.116317 0.640015,-0.871178 -0.01424,-2.339577 -1.091534,-2.4427 0.127995,-0.988365 0.255989,-1.976906 0.383984,-2.965271 0.643574,-1.40451 1.287105,-2.809021 1.93068,-4.213356 -0.266666,-1.884544 -0.533332,-3.768915 -0.803556,-5.653284 0.87109,-0.270313 1.457764,-1.240971 1.294223,-2.136974 0.248871,0.352081 0.501301,0.700519 0.753774,1.052427 0.320008,-0.846178 0.643532,-1.688885 0.967098,-2.535063 0.401779,0.384028 0.807117,0.768053 1.208895,1.152081 -0.192014,-0.970658 1.173348,-1.809891 1.951991,-1.198262 0.20269,-0.327081 0.408854,-0.654338 0.615103,-0.984891 0.771526,0.131595 1.543138,0.263193 2.314665,0.394617 0.3342,-0.12448 0.672002,-0.25243 1.009761,-0.380383 0.0569,0.415972 0.11376,0.835589 0.167145,1.25156 0.419529,-0.319965 0.835501,-0.636457 1.255076,-0.956421 0.622219,0.582985 1.774255,0.426562 2.215141,-0.305902 1.070223,-0.149305 2.140402,-0.302082 3.214184,-0.451387 -0.177777,0.273609 -0.355555,0.55104 -0.533331,0.824823 1.230247,0.664755 2.460453,1.329685 3.690659,1.994614 0.412454,0.04982 0.78576,0.334199 0.945787,0.71458 -0.401779,0.05695 -0.807116,0.11389 -1.208895,0.170834 2.04088,2.175863 4.93154,3.530546 7.911089,3.708324 -0.647133,0.348436 -1.290665,0.696873 -1.934196,1.048956 0.526214,0.327082 0.913757,0.878122 1.045311,1.489752 2.474647,0.576042 4.760883,1.891487 6.559967,3.687145 0.06046,0.469269 0.106681,0.945656 0.131595,1.418571 0.117317,-0.455032 0.30217,-0.668399 0.526215,-0.711109 0.824867,-0.167015 2.147518,2.019612 2.424862,2.517353 0.160026,0.288021 0.309334,0.579514 0.451561,0.878296 0.575996,1.240795 0.963539,2.570656 1.063106,3.9394 0.135113,1.799129 -0.224003,3.630199 -1.023998,5.248077 z"
       fill="#e7a14e"
       id="path20293" />
    <path
       d="m 32.045338,32.580673 c 0.438308,1.519158 0.876617,3.038319 1.314926,4.557476 0.02537,1.338249 0.05073,2.676499 0.0761,4.014752 -0.0462,-0.09015 -0.0924,-0.180302 -0.138603,-0.270451 0.06127,0.768845 0.122536,1.537689 0.183804,2.306534 -0.217995,-0.179718 -0.435993,-0.359436 -0.653992,-0.539154 -0.0022,1.622188 -0.0044,3.244377 -0.0066,4.866569 -0.509896,0.02976 -0.940276,-0.573814 -0.74598,-1.046177 -0.400459,1.254029 -0.80092,2.508061 -1.201381,3.762093 -0.184353,-0.509476 -0.368706,-1.018955 -0.553059,-1.528431 -0.201466,1.821289 -0.402931,3.642578 -0.604397,5.463867 -0.291523,0.08122 -0.630714,-0.08092 -0.750601,-0.35878 -0.119888,-0.277862 -0.0051,-0.635864 0.253992,-0.792221 -0.741544,1.427284 -1.483087,2.854569 -2.22463,4.281853 0.307556,1.140652 -0.0075,2.429256 -0.8067,3.299301 0.114241,0.323391 -0.09395,0.721977 -0.424631,0.812973 -0.330683,0.091 -0.713485,-0.144958 -0.780781,-0.481266 -0.2359,0.829739 -0.471803,1.659477 -0.707706,2.48922 -0.164894,-2.90176 -0.329786,-5.803517 -0.49468,-8.705277 0.371635,1.008656 -0.258128,2.266415 -1.288378,2.573143 -0.742119,-2.545292 -0.653603,-5.325607 0.248918,-7.818535 0.05534,0.902119 0.110684,1.804242 0.166025,2.706364 0.138335,-1.34267 0.276669,-2.685341 0.415003,-4.028011 0.546623,0.757496 1.093247,1.514991 1.63987,2.272487 0.07438,-2.132351 0.148754,-4.264698 0.223131,-6.397049 0.201328,0.930962 0.402657,1.861923 0.603985,2.792885 0.138552,-1.105041 0.277101,-2.210083 0.415653,-3.315128 0.194252,0.143745 0.388506,0.287487 0.582758,0.431228 -0.106575,-1.328746 -0.21315,-2.657497 -0.319725,-3.986248 0.620134,0.04706 1.199448,0.456475 1.450819,1.02533 -0.08858,-1.832802 -0.177166,-3.665608 -0.265749,-5.498409 0.205887,0.354473 0.411776,0.70895 0.617664,1.063423 -0.221399,-1.559322 -0.442796,-3.118645 -0.664194,-4.677969 0.332917,0.109655 0.665833,0.219313 0.998749,0.328966 -0.52224,-1.060797 -1.044479,-2.121594 -1.566719,-3.182392 0.26005,0.0701 0.520098,0.140196 0.780148,0.210293 -0.766064,-0.20455 -1.199727,-1.197434 -0.829178,-1.898424 0.262388,-0.04722 0.524776,-0.09444 0.787164,-0.141659 0.09519,-0.935574 -0.209619,-1.82334 -0.745187,-2.57876 1.428312,0.521019 4.185735,0.722925 5.210119,1.945566 0.534729,0.638218 0.457214,1.495916 0.185779,2.240042 -0.542264,1.486572 -0.848539,2.18219 -0.381774,3.799976 z"
       fill="#d59247"
       id="path20295" />
    <path
       d="m 23.720396,66.074371 c 0.320007,-0.117355 0.647089,-0.238365 0.981291,-0.355552 -0.351996,0.334205 -0.70755,0.668403 -1.059546,1.002601 0.02491,-0.216835 0.05339,-0.430206 0.07826,-0.647049 z"
       fill="#e7a14e"
       id="path20297" />
    <g
       fill="#d59247"
       id="g20307">
      <path
         d="m 44.696129,40.586025 c 1.07455,2.471436 1.072292,5.258148 1.052234,7.953007 -0.228237,-0.325485 -0.456474,-0.650971 -0.684711,-0.976456 -0.01433,1.032227 -0.02866,2.064453 -0.04299,3.096684 -0.17139,-0.335789 -0.342785,-0.671574 -0.514175,-1.007359 0.03131,1.581036 0.06263,3.162075 0.09394,4.743111 -0.09963,-0.590866 -0.199257,-1.181732 -0.298889,-1.772595 -0.0357,1.615887 -0.07141,3.231778 -0.107109,4.847668 -0.409176,-0.69751 -0.818352,-1.395019 -1.227528,-2.092529 0.403256,0.326862 0.472145,0.991577 0.144493,1.394191 -0.327652,0.402615 -0.992496,0.470208 -1.39447,0.14177 -0.329319,-0.269074 -0.448685,-0.710511 -0.652038,-1.084008 -0.203354,-0.373493 -0.614399,-0.724197 -1.014855,-0.581066 -0.545914,0.195122 -0.453968,0.987732 -0.689487,1.517472 -0.225025,0.506126 -0.860085,0.787269 -1.386055,0.613609 -0.525967,-0.17366 -0.868771,-0.777672 -0.748188,-1.318283 -0.163208,0.67252 -0.326416,1.345039 -0.489624,2.017559 -0.575505,1.524975 -1.151005,3.04995 -1.726509,4.574921 -0.269791,-0.238476 -0.539578,-0.476952 -0.809368,-0.715428 -0.331143,0.757199 -0.662285,1.514397 -0.993424,2.271599 -0.507416,-2.869801 -1.014831,-5.739597 -1.522245,-8.609394 0.110538,0.606247 0.221079,1.212494 0.331617,1.818741 0.78825,-1.927372 1.123104,-4.038483 0.969952,-6.115174 0.452148,1.486458 0.904297,2.972916 1.356445,4.459374 0.07501,-1.956177 0.150013,-3.91235 0.225021,-5.868527 0.257977,0.661648 0.51595,1.323296 0.773926,1.984944 0.03433,-1.52116 0.06867,-3.04232 0.102997,-4.563481 0.49408,1.257733 0.988163,2.515465 1.482246,3.773198 0.119027,-2.980984 0.238053,-5.961968 0.357079,-8.942952 1.087856,0.905545 1.977047,2.048497 2.587273,3.325631 0.336261,-1.449017 -0.318596,-2.932713 -1.048211,-4.229008 -0.729614,-1.296295 -1.57452,-2.611389 -1.658821,-4.09652 0.88609,0.785538 1.772183,1.571076 2.658272,2.35661 -0.80627,-1.723534 -1.612537,-3.447064 -2.418808,-5.170597 0.428387,0.542564 0.856774,1.085128 1.28516,1.627693 -0.34964,-0.442825 -0.417274,-1.225155 -0.795978,-1.725502 -0.371842,-0.49128 -0.88411,-0.813492 -1.289776,-1.256008 3.204513,1.699436 6.606434,4.188957 8.092598,7.607105 z"
         id="path20299" />
      <path
         d="m 12.422928,29.852646 c -0.651012,-0.08202 -1.26864,-0.406475 -1.705594,-0.895977 0.439153,0.713489 0.972212,1.369104 1.581088,1.944601 -0.45713,-0.05915 -1.009618,-0.08007 -1.280502,0.292875 -0.07396,0.101824 -0.116398,0.222559 -0.157856,0.341383 -0.07397,0.212023 -0.147949,0.424048 -0.221923,0.636069 -0.08773,0.251453 -0.182171,0.513443 -0.37715,0.694847 -0.140511,0.130729 -0.3220757,0.208389 -0.472907,0.327068 -0.1508303,0.118675 -0.2754908,0.30756 -0.2283831,0.49361 0.047107,0.186051 0.3417597,0.275879 0.4348879,0.108067 -0.1625671,0.410744 -0.3281498,0.849114 -0.2463322,1.283215 0.027475,0.145774 0.082163,0.284801 0.1365528,0.422813 0.040601,0.103024 0.081202,0.206047 0.1218026,0.309071 0.168542,0.427665 0.337084,0.855335 0.505626,1.283004 0.188264,0.477711 0.423856,1.004548 0.901961,1.191815 0.521728,0.204357 1.131413,-0.109375 1.447101,-0.572304 0.315688,-0.462929 0.407376,-1.037929 0.491086,-1.591961 0.214877,-1.42213 0.429752,-2.844257 0.644627,-4.266384"
         id="path20301" />
      <path
         d="m 16.358986,44.517452 c -0.142771,0.561054 -0.279808,1.181801 -0.01487,1.69656 0.264935,0.514759 1.125098,0.707504 1.398972,0.197449 0.02,0.146545 0.03999,0.293094 0.05999,0.43964 0.25552,-0.126904 0.51104,-0.253807 0.766562,-0.380711 -0.08522,0.63073 0.473051,1.269795 1.109508,1.270077 0.28742,1.810955 0.574839,3.621906 0.862257,5.432857 -0.50971,-0.909957 -1.019422,-1.819915 -1.529133,-2.729873 -0.205555,0.337047 -0.411108,0.674099 -0.616663,1.01115 -0.477153,-0.800869 -0.954309,-1.601742 -1.431463,-2.402611 -0.0064,0.320408 -0.01285,0.640812 -0.01928,0.961216 -0.416027,-1.126278 -0.832056,-2.252552 -1.248083,-3.37883 -1.763533,-0.936657 -2.881133,-2.969158 -2.727363,-4.960067 0.483135,0.72245 2.066386,4.100582 3.38957,2.843143 z"
         id="path20303" />
      <path
         d="m 29.588394,65.430244 c 0.153187,0.130211 0.406593,0.166169 0.547375,0.02264 0.09323,-0.09505 0.124739,-0.25132 0.244509,-0.309456 0.14814,-0.07191 0.309309,0.0536 0.461547,0.116371 0.227847,0.09394 0.510464,0.03432 0.680937,-0.143669 0.170473,-0.177978 0.217869,-0.462906 0.114197,-0.686493 0.303728,0.281479 0.607456,0.56295 0.911186,0.844422 -8.81e-4,-0.222962 0.0015,-0.458527 0.11586,-0.649941 0.114342,-0.191414 0.383328,-0.308998 0.567974,-0.184021 0.142327,0.09633 0.182778,0.292679 0.312641,0.40525 0.198983,0.172478 0.531579,0.06802 0.688199,-0.143676 0.15662,-0.211693 0.185066,-0.488823 0.208114,-0.751145 -0.0021,0.215149 0.259388,0.357697 0.468228,0.305939 0.208839,-0.05176 0.359829,-0.232735 0.467468,-0.419029 0.107635,-0.186299 0.189659,-0.39098 0.334671,-0.549927 -0.674503,0.713959 -1.234207,1.53614 -1.651127,2.425446 -0.110928,0.01059 -0.180305,-0.11982 -0.193684,-0.230446 -0.01338,-0.110627 -0.0087,-0.237282 -0.08942,-0.314118 -0.118381,-0.112694 -0.326706,-0.01816 -0.404793,0.125435 -0.07808,0.143585 -0.07851,0.315727 -0.126659,0.471916 -0.04814,0.156197 -0.183148,0.31395 -0.344414,0.287339 -0.0038,-0.15477 -0.0076,-0.30954 -0.01142,-0.464302 -0.182183,0.133918 -0.256863,0.365791 -0.329621,0.579879 -0.07275,0.214089 -0.169605,0.443634 -0.370498,0.547394 -0.200898,0.103768 -0.516459,-0.02627 -0.495095,-0.251373 -0.110981,0.135719 -0.221964,0.271446 -0.332945,0.407173 -0.213102,-0.390526 -0.426206,-0.781052 -0.639309,-1.171577 -0.15435,0.412307 -0.3087,0.824623 -0.463052,1.23693 -0.226179,-0.291427 -0.441897,-0.603874 -0.688996,-0.875679 -0.01806,0.138955 -0.01077,0.283059 -0.02989,0.421318 -0.325613,-0.203987 -0.926252,-0.619384 -1.046606,-1.007965 0.377621,0.09664 0.914738,0.0066 0.797722,-0.541183 0.06521,0.178841 0.14855,0.370453 0.296898,0.496551 z"
         id="path20305" />
    </g>
    <path
       d="m 24.12731,28.902721 c -0.585511,-0.529296 -1.303711,-0.946777 -2.088684,-1.028808 -1.162415,-0.120117 -2.274292,0.498047 -3.439209,0.59082 -0.94812,0.07568 -2.388855,-0.63916 -3.122254,-0.03369 -0.231689,0.191406 -0.979919,0.903808 -1.138611,1.158691 -0.888,1.428223 -1.465942,2.59668 -1.439392,4.46582 -0.3656,0.927735 -0.146362,1.998047 0.165833,2.911133 0.325989,0.982422 0.744812,1.902344 0.753906,2.883789 0.02722,0.495118 0.0048,1.025391 0.119995,1.565918 0.118103,0.542481 0.399048,1.054688 0.80481,1.424317 0.723205,0.711425 1.836731,0.904297 2.720642,0.562011 0.08783,-0.01025 0.16156,-0.0083 0.253113,-0.02295 0.672851,-0.106445 1.951477,0.120606 1.951477,0.120606 0,0 0.07245,0.01416 0.18341,0.03467 0.851441,0.462402 2.012024,0.393554 2.820618,-0.257324 0.440369,-0.327637 0.770813,-0.809571 0.942139,-1.337891 0.168274,-0.525879 0.198608,-1.055664 0.27478,-1.545898 0.106445,-0.975586 0.614441,-1.84961 1.036377,-2.794922 0.333252,-0.729004 0.612915,-1.572266 0.544251,-2.387207 0.04541,-0.104004 0.09173,-0.208008 0.133789,-0.310547 0.832336,-2.029786 0.150634,-4.527344 -1.47699,-5.998536 z m -11.225586,5.483399 0.02032,0.741699 c -0.03345,-0.245117 -0.03918,-0.492187 -0.02032,-0.741699 z"
       fill="#fbd8b0"
       id="path20309" />
    <path
       d="m 21.994593,31.781385 c 0,0 0.579303,-1.304393 2.794284,0 0,0 -1.499372,1.541556 -2.794284,0 z"
       fill="#304551"
       id="path20311" />
    <path
       d="m 17.200005,32.092937 c 0,0 -1.521068,-1.132352 -2.535113,0.422516 0,0 1.419663,0.997147 2.535113,-0.422516 z"
       fill="#304551"
       id="path20313" />
    <path
       d="m 21.746973,41.609333 c -1.272142,-2.120308 -2.891212,-1.773281 -2.891212,-1.773281 l -0.03858,-2.043217 c 1.349265,-0.655243 1.310721,-1.734733 1.310721,-1.734733 -1.135622,-0.103226 -1.527529,0.291454 -1.649199,0.703689 -0.121637,-0.412235 -0.513544,-0.806915 -1.649133,-0.703689 0,0 -0.03858,1.07949 1.310688,1.734733 l -0.03854,2.043217 c 0,0 -1.619104,-0.347027 -2.891248,1.773281 0,0 2.052655,-1.451599 3.123698,-1.285805 0,0 0.03145,0.0099 0.04659,0.0069 0.01511,0.003 0.04706,-0.0069 0.04706,-0.0069 1.081503,-0.165794 3.319155,1.285805 3.319155,1.285805 z"
       fill="#304551"
       id="path20315" />
    <path
       d="m 99.22216,68.715218 c -0.400024,0.02002 -0.740051,0.270019 -1.090027,0.460449 -1.474243,0.853515 -3.386169,1.05664 -4.80487,0.129394 -0.106446,0.59668 -0.466248,1.135742 -1.073914,1.377442 0.690857,0.428222 1.415589,0.798828 2.178772,1.083008 1.450012,0.549804 3.109986,0.779785 4.52002,0.149902 0.700012,-0.300293 1.339969,-0.870117 1.479979,-1.620117 0.13001,-0.75 -0.450011,-1.629883 -1.20996,-1.580078 z"
       fill="#304551"
       id="path20317" />
    <path
       d="m 48.912163,41.695202 c 0.119995,-0.0498 0.23999,-0.09961 0.369995,-0.129883 -0.09003,0.07031 -0.220032,0.129883 -0.369995,0.129883 z"
       fill="#f0c189"
       id="path20319" />
    <path
       d="m 87.762138,61.475475 c -0.549987,-1.140136 -0.98999,-2.350097 -1.280029,-3.589843 -0.329956,-1.380372 -0.48999,-2.79004 -0.709961,-4.19043 0.359986,1.800293 0.729981,3.610351 1.219971,5.390136 0.220032,0.800294 0.480041,1.600098 0.770019,2.390137 z"
       fill="#f0c189"
       id="path20321" />
    <g
       fill="#d19c6b"
       opacity="0.1"
       id="g20389">
      <path
         d="m 65.310234,41.461803 c -0.89801,0.106446 -1.79602,0.212891 -2.694031,0.318848 l 0.980652,0.180176 c 0.571106,-0.166016 1.142273,-0.33252 1.713379,-0.499024 z"
         id="path20323" />
      <path
         d="m 67.460625,41.669811 c -1.076599,0.135742 -2.153199,0.271973 -3.229859,0.407715 l 1.086731,0.199707 c 0.714356,-0.202148 1.428711,-0.404785 2.143128,-0.607422 z"
         id="path20325" />
      <path
         d="m 62.932549,41.373913 c -0.393128,0.08252 -0.786255,0.165527 -1.179383,0.248047 l 0.366272,0.06738 c 0.271057,-0.10498 0.542114,-0.210449 0.813111,-0.315429 z"
         id="path20327" />
      <path
         d="m 66.5606,41.685924 c -0.888305,0.109864 -1.776611,0.220215 -2.664856,0.330079 l 0.320252,0.05908 C 64.997551,41.9452 65.779045,41.815317 66.5606,41.685922 Z"
         id="path20329" />
      <path
         d="m 51.103874,40.986218 c -0.400085,0.0415 -0.800232,0.08252 -1.200317,0.124023 0.401306,-0.03272 0.801574,-0.06836 1.200317,-0.124023 z"
         id="path20331" />
      <path
         d="m 68.878532,43.286022 c -1.149536,9.77e-4 -2.299072,0.002 -3.448608,0.0029 -0.0095,0.0024 -0.01904,0.0049 -0.02857,0.0073 1.159058,-0.0034 2.318116,-0.0068 3.477173,-0.01025 z"
         id="path20333" />
      <path
         d="m 53.838554,46.283581 c -0.769348,0.0542 -1.538696,0.10791 -2.308044,0.162109 -0.358643,0.05273 -0.717224,0.105957 -1.075867,0.158692 1.127991,-0.106934 2.255921,-0.213868 3.383911,-0.320801 z"
         id="path20335" />
      <path
         d="m 62.129143,41.542858 c -0.137207,0.02441 -0.274414,0.04834 -0.411682,0.07275 l 0.0354,0.0063 c 0.125427,-0.02637 0.250854,-0.05273 0.376282,-0.0791 z"
         id="path20337" />
      <path
         d="m 47.125175,41.170299 c 0.7641,0.04004 1.529297,0.02295 2.293152,-0.02148 0.401307,-0.113769 0.802552,-0.227539 1.203858,-0.341308 -1.16565,0.121093 -2.33136,0.241699 -3.49701,0.362792 z"
         id="path20339" />
      <path
         d="m 49.355888,41.166882 c 0.182557,-0.01904 0.365113,-0.03809 0.547669,-0.05664 -0.161804,0.01318 -0.323181,0.0293 -0.48523,0.03857 -0.02081,0.0063 -0.04163,0.01221 -0.06244,0.01807 z"
         id="path20341" />
      <path
         d="m 63.921379,41.598034 c -0.508728,0.04736 -1.017517,0.09473 -1.526245,0.14209 l 0.02869,0.0054 c 0.499206,-0.04932 0.998352,-0.09814 1.497558,-0.147461 z"
         id="path20343" />
      <path
         d="m 60.238213,41.940807 c 0.504943,-0.106445 1.010009,-0.212402 1.514953,-0.318847 h -3.05e-4 c -0.504883,0.106445 -1.009827,0.212402 -1.514771,0.318847 z"
         id="path20345" />
      <path
         d="m 77.558525,44.844128 c 0.412781,-0.09424 0.81958,-0.213868 1.21405,-0.368164 -0.404663,0.122558 -0.809387,0.245605 -1.21405,0.368164 z"
         id="path20347" />
      <path
         d="m 62.395134,41.740124 -0.275696,-0.05078 c -0.08624,0.03369 -0.172546,0.06689 -0.25885,0.100586 0.178223,-0.0166 0.356323,-0.0332 0.534546,-0.0498 z"
         id="path20349" />
      <path
         d="m 73.249077,45.716198 c 0.728882,-0.07617 1.457702,-0.152832 2.186584,-0.229004 0.707642,-0.214355 1.415222,-0.428711 2.122864,-0.643066 -1.140442,0.260254 -2.332703,0.29541 -3.483948,0.08691 0.101746,-0.07178 0.203492,-0.144043 0.305237,-0.215821 -1.322876,0.118165 -2.645752,0.236329 -3.968628,0.354493 0.457276,-0.134766 0.914551,-0.269532 1.371765,-0.404297 -1.156067,0.120605 -2.312194,0.241211 -3.468322,0.361816 0.718322,-0.145996 1.436645,-0.291504 2.154907,-0.437011 -1.61084,-0.02002 -3.221741,-0.04004 -4.832581,-0.06006 0.61084,-0.147461 1.221619,-0.294434 1.832459,-0.441406 -2.841736,-0.03418 -5.683533,-0.06885 -8.525269,-0.103028 2.16571,-0.08545 4.331482,-0.170898 6.497192,-0.256835 -3.880493,0.09473 -7.760925,0.188964 -11.641418,0.283203 2.650024,-0.487793 5.300049,-0.975586 7.950073,-1.463868 -2.511841,0.03516 -5.023681,0.0708 -7.535522,0.105957 1.860168,-0.303222 3.720398,-0.605957 5.580566,-0.909179 -0.597656,0.134765 -1.195373,0.269531 -1.793091,0.403808 0.488892,-0.04541 0.977844,-0.09082 1.466736,-0.13623 0.749573,-0.132324 1.499207,-0.264649 2.248779,-0.396973 l -7.337219,-1.349121 c -1.069397,0.331543 -2.167541,0.564453 -3.276367,0.719727 0.704529,-0.07275 1.408997,-0.145508 2.113525,-0.218262 -1.500671,0.449219 -3.001403,0.898437 -4.502075,1.347168 1.484558,-0.0078 2.969055,-0.01611 4.453613,-0.02441 -1.347351,0.460937 -2.694702,0.922363 -4.041992,1.383301 0.997559,0.0044 1.995056,0.0093 2.992615,0.01367 -1.459473,0.529297 -2.919006,1.058594 -4.378479,1.588379 1.513916,-9.76e-4 3.027893,-0.002 4.54187,-0.0034 -1.982544,0.5542 -3.965027,1.108887 -5.94751,1.663086 1.838135,-0.173828 3.676331,-0.348144 5.514466,-0.521972 -0.728699,0.121093 -1.457459,0.242187 -2.186219,0.362793 0.622254,-0.04346 1.244507,-0.0874 1.866821,-0.13086 1.139649,-0.167969 2.279297,-0.336426 3.418946,-0.504394 -0.79773,0.06738 -1.595459,0.135254 -2.393189,0.202636 1.496521,-0.145507 2.993042,-0.291503 4.489502,-0.437011 -0.483398,0.09961 -0.966858,0.199219 -1.450317,0.298828 1.023559,-0.105469 2.04718,-0.211426 3.07074,-0.317383 -0.706849,0.09619 -1.413697,0.192383 -2.120606,0.288086 2.770203,-0.02295 5.540344,-0.04639 8.310486,-0.06934 -0.23645,0.02148 -0.472962,0.04297 -0.709473,0.06445 1.519592,0.0088 3.039124,0.01758 4.558655,0.02637 -0.114258,0.05859 -0.228577,0.117188 -0.342835,0.175782 1.518921,-0.171875 3.037781,-0.344239 4.556702,-0.516114 -0.538025,0.106934 -1.07605,0.213867 -1.614014,0.320801 1.284852,-0.135742 2.569703,-0.271973 3.854554,-0.407715 0.01953,-0.0059 0.03912,-0.01172 0.05865,-0.01758 -0.656432,0.0542 -1.312804,0.108887 -1.969237,0.163086 z"
         id="path20351" />
      <path
         d="m 75.218315,45.553112 c 0.168457,-0.01416 0.336975,-0.02783 0.505432,-0.04199 -0.188049,0.02002 -0.376037,0.04004 -0.564087,0.05957 -0.09381,0.02881 -0.187622,0.05713 -0.281433,0.08545 1.169312,-0.159179 2.338562,-0.318359 3.507874,-0.477539 -0.98346,0.102539 -1.96698,0.205567 -2.95044,0.308594 -0.07245,0.02197 -0.144897,0.04395 -0.217346,0.06592 z"
         id="path20353" />
      <path
         d="m 60.238213,41.940807 c -0.05035,0.01074 -0.100647,0.021 -0.151001,0.03174 0.05029,-0.01074 0.100585,-0.021 0.150878,-0.03174 -0.256469,0.02393 -0.512939,0.04785 -0.769409,0.07178 -0.100769,0.01758 -0.201538,0.03516 -0.302307,0.05322 0.885498,-0.0874 1.770996,-0.174316 2.656494,-0.26123 0.01264,-0.0049 0.02515,-0.0098 0.03772,-0.01465 -0.540771,0.05029 -1.081604,0.100586 -1.622375,0.15088 z"
         id="path20355" />
      <path
         d="m 65.429924,43.288952 c 0.04993,-0.0127 0.09991,-0.02539 0.149841,-0.03809 -0.404419,0.01563 -0.808654,0.02148 -1.213379,0.03906 0.354493,-4.89e-4 0.709046,-9.77e-4 1.063538,-9.77e-4 z"
         id="path20357" />
      <path
         d="m 64.230766,42.077526 -0.01477,-0.0024 c -0.03827,0.0059 -0.0766,0.0127 -0.114868,0.01855 0.04321,-0.0054 0.08642,-0.01074 0.129638,-0.01611 z"
         id="path20359" />
      <path
         d="m 67.589348,42.7411 c -0.669861,0.169922 -1.339722,0.339844 -2.009583,0.509766 1.428345,-0.05615 2.855591,-0.113281 4.285523,-0.137695 l -4.547791,-0.835938 c -0.504699,0.143067 -1.00946,0.286133 -1.51416,0.429199 1.261963,0.01172 2.523987,0.02295 3.786011,0.03467 z"
         id="path20361" />
      <path
         d="m 61.562798,41.905163 c 0.351135,-0.0415 0.70227,-0.08301 1.053405,-0.124512 l -0.192382,-0.03516 c -0.200318,0.01953 -0.400635,0.03906 -0.600953,0.05908 -0.08667,0.03369 -0.1734,0.06738 -0.26007,0.100586 z"
         id="path20363" />
      <path
         d="m 63.895744,42.016003 -0.298889,-0.05518 c -0.183166,0.05371 -0.366272,0.106933 -0.549438,0.160156 0.282776,-0.03516 0.565551,-0.06982 0.848327,-0.10498 z"
         id="path20365" />
      <path
         d="m 66.764427,37.896503 c -2.576416,0.07969 -5.152832,0.159371 -7.729244,0.239056 2.570084,0.04252 5.140163,0.08503 7.710247,0.127552 -0.838188,0.218773 -1.676384,0.43755 -2.514572,0.656323 1.677978,-0.06867 3.355965,-0.137345 5.033943,-0.206013 -0.284386,0.07913 -0.568771,0.158256 -0.853157,0.237385 1.020401,0.02774 2.040802,0.05547 3.061203,0.08321 -0.57811,0.0511 -1.156212,0.1022 -1.734314,0.153298 0.561493,-0.01224 1.122986,-0.02448 1.684479,-0.03671 -0.663613,0.204289 -1.327232,0.408577 -1.990852,0.612866 0.744201,-0.05266 1.48841,-0.105309 2.232612,-0.157963 -0.649429,0.189224 -1.298858,0.378445 -1.948288,0.567669 0.663513,-0.0949 1.327026,-0.189804 1.990532,-0.284706 -0.334976,0.167671 -0.66996,0.335342 -1.004944,0.503017 0.928116,-0.08482 1.856232,-0.169628 2.78434,-0.25444 -0.426437,0.128929 -0.852875,0.257858 -1.279312,0.386787 0.848648,0.02241 1.697296,0.04482 2.545944,0.06723 -0.6893,0.300152 -1.378593,0.600304 -2.067886,0.900456 1.777321,0.07596 3.554649,0.151924 5.331978,0.227886 -0.825158,0.169101 -1.650307,0.338203 -2.475464,0.507301 1.345161,0.03354 2.69033,0.06708 4.035492,0.100617 -0.627953,-1.13818 -1.824646,-1.943367 -3.115532,-2.096276 0.428016,-0.100307 0.856025,-0.200615 1.284042,-0.300918 -0.856682,-0.161991 -1.713363,-0.323979 -2.570045,-0.485966 0.08928,-0.129082 0.178558,-0.25816 0.267837,-0.387241 -0.80706,-0.03384 -1.61412,-0.06769 -2.421181,-0.101529 0.146019,-0.233146 0.292046,-0.466289 0.438073,-0.699436 -0.555108,-0.02854 -1.110207,-0.05708 -1.665314,-0.08562 0.2304,-0.05672 0.4608,-0.113438 0.691208,-0.170158 -0.585037,-0.03302 -1.170075,-0.06604 -1.755104,-0.09906 0.04797,-0.09364 0.09595,-0.187287 0.143921,-0.28093 -1.888291,-0.249038 -3.803147,-0.14909 -5.705147,-0.04869 -1.867832,0.09859 -3.735672,0.19719 -5.603508,0.295784"
         id="path20367" />
      <path
         d="m 60.685574,38.713268 c -2.026001,0.124085 -4.05201,0.248139 -6.077992,0.372162 -1.222862,0.264649 -0.956978,0.422364 4.894032,0.178711 -0.861603,0.0625 -1.72321,0.125576 -2.584813,0.188419 1.71003,0.08808 3.42006,0.176163 5.130093,0.264248 -0.232193,0.0071 -0.464382,0.01426 -0.696575,0.02139 0.818088,-0.0054 1.636177,-0.01078 2.454265,-0.01617 -0.354374,0.076 -0.708748,0.152008 -1.063125,0.228012 0.816215,0.02595 1.632427,0.05191 2.448642,0.07786 -0.324035,0.100869 -0.648063,0.201733 -0.972091,0.302601 0.572174,-0.03793 1.14434,-0.07585 1.716514,-0.113781 -0.472854,0.112637 -0.945701,0.225273 -1.418548,0.33791 0.611946,0.03523 1.223884,0.07047 1.835823,0.105701 -0.06904,0.211869 0.141235,0.430653 0.384849,0.492672 0.243614,0.06202 0.504204,0.01099 0.751145,-0.0402 -0.305748,0.150372 -0.164658,0.603016 0.157325,0.725273 0.321991,0.122261 0.692811,0.02582 1.025925,-0.07148 -0.05102,0.151005 -0.102028,0.302006 -0.153046,0.45301 0.685097,0.06532 1.370194,0.130646 2.055291,0.195969 -0.361977,0.225914 -0.723946,0.451828 -1.085915,0.677742 0.863754,0.05275 1.727509,0.105511 2.591255,0.158264 -0.285614,0.08308 -0.571235,0.166157 -0.856849,0.249233 1.638176,0.36652 3.365791,0.429394 5.033622,0.183186 -1.093902,-0.318584 -2.187813,-0.637169 -3.281715,-0.955753 0.234573,-0.02675 0.469147,-0.0535 0.703728,-0.08024 -0.94735,-0.224689 -1.894707,-0.449375 -2.842057,-0.67406 0.09485,-0.118061 0.189698,-0.236122 0.284546,-0.354184 -0.330841,-0.04794 -0.66169,-0.09587 -0.992531,-0.14381 0.01046,-0.111942 0.02091,-0.223884 0.03137,-0.335827 -0.667533,-0.472378 -1.49047,-0.777725 -2.345436,-0.870266 -0.627929,-0.06797 -1.405418,-0.09496 -1.676918,-0.590614 -0.308075,-0.01312 -0.616157,-0.02624 -0.92424,-0.03936 -0.01359,-0.306984 -0.451652,-0.435082 -0.801635,-0.482788 -1.271828,-0.173371 -2.54366,-0.346745 -3.815495,-0.520115 0.476898,-0.06377 0.953793,-0.127537 1.430687,-0.191307 -1.075348,0.02541 -2.1507,0.05081 -3.226051,0.07622"
         id="path20369" />
      <path
         d="m 55.075161,48.099621 c 1.736813,-0.367893 3.473621,-0.735787 5.210434,-1.103684 -3.508297,0.06451 -7.016594,0.129009 -10.524891,0.193512 3.352551,0.765709 6.821182,1.02105 10.249722,0.754528 -1.757695,0.322735 -3.515389,0.64547 -5.273087,0.968205 2.816181,-0.272644 5.632366,-0.545288 8.448548,-0.817936 -0.361077,0.105759 -0.722157,0.211521 -1.083233,0.31728 1.544826,-0.204804 3.089653,-0.409603 4.634483,-0.614403 -1.044075,0.235973 -2.08815,0.471947 -3.132229,0.707924 0.772892,-0.07539 1.54578,-0.150776 2.318668,-0.226162 -0.301841,-0.125767 -0.68666,0.168297 -0.644592,0.49258 1.255684,-0.05477 2.511368,-0.109531 3.767052,-0.164299 -0.391663,0.145878 -0.783333,0.291752 -1.175003,0.43763 1.115631,-0.255989 2.231262,-0.511974 3.346885,-0.767964 -0.672844,0.265404 -1.345688,0.530804 -2.018531,0.796204 1.233215,-0.227249 2.466438,-0.454498 3.699653,-0.681747 -1.112915,0.328945 -2.22583,0.657886 -3.338745,0.986831 1.115479,-0.05332 2.230957,-0.106647 3.346436,-0.159969 -2.431107,0.444981 -4.862221,0.889965 -7.293328,1.334946 0.237946,-0.0755 0.475891,-0.151005 0.713837,-0.226509 -1.761612,0.179615 -3.523224,0.359226 -5.284836,0.538841 0.119423,-0.0355 0.238846,-0.07101 0.358269,-0.106506 -2.072945,-0.259827 -4.204342,-0.04159 -6.181618,0.632938 0.747578,-0.262779 1.495155,-0.525559 2.242733,-0.788338 -1.306373,-0.08725 -2.612747,-0.174507 -3.919121,-0.26176 0.294381,-0.09831 0.588757,-0.196629 0.883137,-0.294945 -1.719181,0.173145 -3.438358,0.34629 -5.157536,0.519432 0.660962,-0.07933 1.321923,-0.158661 1.982884,-0.237995 -0.576351,0.07679 -1.152706,0.153568 -1.729061,0.230354 0.204944,-0.133205 0.409889,-0.266407 0.614834,-0.399612 -0.566063,0.09457 -1.13213,0.189148 -1.698193,0.283718 1.249283,-0.48333 2.49857,-0.966664 3.747852,-1.449993 -0.397613,0.148906 -0.795227,0.297813 -1.192844,0.446716 3.74971,-1.234829 7.859299,1.408001 11.709084,0.533779 -2.54081,-0.791279 -5.244603,-1.055061 -7.890439,-0.769798 -1.153099,0.124325 -2.303699,0.351879 -3.462131,0.295963 -1.158432,-0.05591 -2.362778,-0.440338 -3.108959,-1.328205 0.932239,-0.33329 1.864479,-0.66658 2.796718,-0.99987"
         id="path20371" />
      <path
         d="m 76.245132,47.427551 c 0.691445,-0.136783 1.382889,-0.273571 2.074326,-0.410354 -0.688911,0.160026 -1.377823,0.320053 -2.066727,0.480075 0.37497,0.01732 0.749939,0.03465 1.124909,0.05197 -0.352158,0.402908 -0.704316,0.805817 -1.056473,1.208729 0.96727,-0.176693 1.93454,-0.353386 2.901802,-0.530075 -0.475159,0.257255 -0.950317,0.514507 -1.425476,0.771762 0.216972,0.01416 0.433952,0.02833 0.650925,0.04249 -0.390496,0.126339 -0.780999,0.252678 -1.171502,0.379017 0.319306,0.202267 0.744797,0.03533 1.046227,-0.192726 0.301422,-0.228062 0.576912,-0.524307 0.946228,-0.604759 0.525284,-0.114422 1.025101,0.244183 1.443542,0.581707 0.820008,0.66143 1.646889,1.32967 2.30745,2.150379 0.734443,0.91251 1.246788,2.00251 1.480743,3.150273 -1.406044,-1.362576 -2.812095,-2.725148 -4.218139,-4.087723 0.273948,0.738964 0.547889,1.477932 0.821838,2.216896 -0.716621,-0.466171 -1.433243,-0.932339 -2.149864,-1.39851 -0.139733,0.626331 0.144745,1.325256 0.682159,1.675976 -2.013908,-0.659459 -4.18515,-0.832795 -6.278175,-0.501202 0.233658,-0.04707 0.467315,-0.09414 0.700966,-0.141209 -0.998398,0.09301 -1.996796,0.186017 -2.995201,0.279026 l 4.173202,-0.842124 c -0.143684,-0.04988 -0.287361,-0.09976 -0.431045,-0.14964 0.524192,-0.134624 1.048385,-0.269252 1.57257,-0.403877 -0.690216,-0.0042 -1.380439,-0.0085 -2.070663,-0.01274 0.452949,-0.227966 0.905899,-0.455929 1.358848,-0.683895 -0.61531,-0.05052 -1.230621,-0.101048 -1.845932,-0.15157 0.364609,0.08396 0.74656,0.167866 1.108475,0.07295 0.361908,-0.09491 0.690148,-0.431362 0.640099,-0.802151 -0.04974,-0.368526 -0.450859,-0.60593 -0.822724,-0.604812 -0.371872,0.0011 -0.717697,0.178081 -1.047042,0.350757 0.259773,-0.312916 0.519546,-0.625831 0.779312,-0.938747 -0.271813,-0.07559 -0.543633,-0.151184 -0.815445,-0.226776 1.447845,-0.362526 2.895691,-0.725056 4.343544,-1.087586 -0.189339,-0.05617 -0.37867,-0.112335 -0.568001,-0.168499"
         id="path20373" />
      <path
         d="m 82.710541,48.728706 c -0.0884,-0.09159 -0.176811,-0.183189 -0.265213,-0.274788 0.13002,0.134057 0.260048,0.268109 0.390068,0.402161 -0.238365,-1.293537 -0.844544,-2.517204 -1.729157,-3.4906 0.141396,0.12115 0.282791,0.242301 0.424187,0.363449 -0.199501,-0.478981 -0.399002,-0.957966 -0.598495,-1.436947 0.08494,-0.0011 0.169891,-0.0022 0.254837,-0.0033 0.02076,-0.667705 -0.249985,-1.339401 -0.72799,-1.806065 0.10524,0.102738 0.0144,1.407834 0.04947,1.636342 0.08886,0.579052 0.254021,1.143489 0.487687,1.680648 -0.230134,-0.422275 -0.747727,-0.780239 -1.225197,-0.669944 0.385269,0.670536 1.281051,0.996952 1.748619,1.64175 -0.04031,-0.05814 -0.08164,-0.115536 -0.123985,-0.172199 0.433029,0.71299 0.87635,1.420025 1.31517,2.129516 z"
         id="path20375" />
      <path
         d="m 69.829872,51.617119 c -2.687347,-0.02014 -5.374695,-0.04028 -8.062042,-0.06043 1.679314,0.04684 3.358627,0.09367 5.037941,0.140511 -1.428871,0.246849 -2.857739,0.493698 -4.286606,0.740543 1.31781,0.08847 2.63562,0.176937 3.953438,0.265404 -0.908882,-0.134499 -1.861359,0.04607 -2.657952,0.503887 1.02295,0.028 2.045907,0.05599 3.068856,0.08399 -0.347,0.151047 -0.694008,0.302098 -1.041016,0.453144 0.513443,0.01374 1.026894,0.02747 1.540337,0.0412 -0.859177,0.02935 -1.718354,0.05869 -2.57753,0.08803 0.653457,0.02349 1.306908,0.04698 1.960365,0.07047 -2.398132,0.334629 -4.796272,0.669255 -7.194408,1.003884 0.595489,-0.272919 1.190975,-0.545834 1.786465,-0.818753 -1.877072,0.168129 -3.754143,0.336255 -5.631215,0.504384 1.276589,-0.350087 2.553181,-0.700169 3.829773,-1.050255 -1.43917,0.18024 -2.878341,0.360481 -4.317508,0.540718 0.951584,-0.226437 1.903167,-0.452877 2.854751,-0.679318 -0.644214,0.07633 -1.288429,0.152649 -1.932644,0.228974 0.745655,-0.200325 1.491307,-0.400654 2.236962,-0.600983 -0.98349,0.07924 -1.966976,0.158485 -2.950463,0.237732 0.770768,-0.16346 1.541539,-0.326916 2.31231,-0.490372 -0.45427,-0.243915 -1.030125,-0.24535 -1.4856,-0.0037 -0.580799,0.04699 -1.161594,0.09398 -1.742393,0.140968 2.353016,-0.408268 4.749008,-0.568394 7.135422,-0.476868 -0.55589,0.07386 -1.111783,0.147725 -1.667672,0.221589 0.61475,-0.06117 1.229496,-0.12233 1.844246,-0.183495 -0.08649,0.01195 -0.172977,0.0239 -0.259468,0.03585 0.338799,0.206475 0.790299,0.212322 1.134331,0.0147"
         id="path20377" />
      <path
         d="m 62.398529,57.057938 c 0.940762,0.01123 1.881523,0.02246 2.822289,0.0337 -2.525631,0.39225 -5.051266,0.784503 -7.576897,1.176754 0.916553,-0.0037 1.833103,-0.0074 2.749657,-0.01113 -1.687001,0.214691 -3.374001,0.429382 -5.061001,0.644074 0.806419,0.01903 1.612842,0.03805 2.419262,0.05708 -2.194184,-0.05926 -4.396675,0.198166 -6.518055,0.761822 0.693325,-0.05091 1.38665,-0.101822 2.079975,-0.152733 -1.83968,-0.108029 -3.694081,0.03761 -5.494339,0.431507 3.132992,0.208603 6.295582,-0.0325 9.360741,-0.713631 -2.047398,-0.06073 -4.106324,0.297569 -6.012841,1.046387 3.575733,-0.213051 7.134167,-0.715706 10.629006,-1.501427 -0.814576,-0.105041 -1.665375,0.100639 -2.342011,0.566178 1.405171,-0.29686 2.810341,-0.593724 4.215511,-0.890587 -0.08401,0.120624 -0.168018,0.241245 -0.252029,0.361866 1.358265,0.177066 2.777416,-0.161049 3.909924,-0.931542 -0.269631,0.113179 -0.539261,0.226361 -0.808892,0.339543 0.624871,-0.2449 1.249749,-0.489804 1.874619,-0.734707 -0.858788,0.08347 -1.717568,0.166931 -2.576355,0.250396 0.492836,0.178391 1.0988,-0.04759 1.354469,-0.505134 -0.933914,0.0458 -1.880318,0.138523 -2.814323,0.13174 0.39022,-0.206325 1.988235,-0.702701 0.799591,-0.887558 -0.892601,-0.138816 -1.906533,0.312836 -2.758301,0.527402 z"
         id="path20379" />
      <path
         d="m 50.199741,55.409542 c 1.466729,-0.07158 2.933457,-0.143154 4.400185,-0.214733 0.151756,-0.593204 -0.364731,-1.258602 -0.977039,-1.258728 -0.612309,-1.3e-4 -1.129078,0.665047 -0.977574,1.258316 0.133797,0.523922 0.646725,0.844894 1.116875,1.112019 0.342884,0.194812 0.685768,0.389625 1.028648,0.584438 -0.868907,-0.121052 -1.737815,-0.242107 -2.606723,-0.363159 1.287647,0.01094 2.575294,0.02188 3.862945,0.03282 -0.421985,0.03264 -0.830349,0.219471 -1.130947,0.517425 0.507733,0.0094 1.015465,0.01876 1.523197,0.02814 -2.84811,-0.02794 -5.696216,-0.05588 -8.544323,-0.08382 1.737629,-0.42947 3.475258,-0.858937 5.212887,-1.288407"
         id="path20381" />
      <path
         d="m 74.331604,57.345409 c -1.170677,0.08637 -2.341354,0.172745 -3.512032,0.259117 1.041687,-0.09229 2.083367,-0.184585 3.125054,-0.276878 -1.30864,-8.43e-4 -2.617279,-0.0017 -3.925919,-0.0025 1.066048,-0.256527 2.132095,-0.513058 3.198143,-0.769585 -0.707184,-0.01125 -1.414368,-0.02249 -2.121551,-0.03374 1.114776,-0.259488 2.229545,-0.518971 3.344322,-0.778454 -0.314957,0.05134 -0.629906,0.10268 -0.944855,0.154018 0.758225,-0.136051 1.516449,-0.272102 2.274674,-0.408153 -0.261772,0.132499 -0.523552,0.265003 -0.785332,0.397503 0.689934,0.03468 1.389801,-0.227372 1.887283,-0.706662 -0.71167,0.424397 -1.423339,0.848797 -2.13501,1.273198 0.992615,-0.446911 1.98523,-0.893822 2.977837,-1.340733 -0.314194,0.227806 -0.628387,0.455608 -0.942581,0.683411 0.590889,-0.162316 1.18177,-0.324635 1.772659,-0.48695 -0.462028,0.302227 -0.924057,0.604454 -1.386085,0.906677 0.908836,-0.335823 1.817672,-0.671646 2.726509,-1.007469 -0.757096,0.49432 -1.514191,0.98864 -2.271279,1.482963 0.738556,-0.417774 1.477112,-0.835552 2.215668,-1.253326 -0.518707,0.644783 -1.037415,1.289566 -1.556129,1.934349 0.124404,-0.13015 0.248802,-0.2603 0.373199,-0.390449 -0.05174,1.111991 -0.103477,2.223987 -0.15522,3.335983 0.06244,-0.64135 0.12487,-1.2827 0.187309,-1.92405 -0.288795,0.992974 -0.577583,1.985947 -0.866378,2.97892 -0.05753,-0.591861 -0.115059,-1.183723 -0.172585,-1.775581 -0.03442,0.792374 -0.06884,1.584751 -0.103256,2.377125 -0.07045,-0.949371 -0.1409,-1.898747 -0.211357,-2.848122 -0.213516,1.272118 -0.42704,2.544235 -0.640564,3.816357 -0.360626,-0.860596 -0.721253,-1.721191 -1.081871,-2.581783 -0.03441,0.842708 -0.06882,1.685421 -0.103234,2.528133 -0.326194,-0.744842 -0.652397,-1.489685 -0.978599,-2.234531 -0.03062,0.534874 -0.06123,1.069748 -0.09184,1.604618 -0.678604,-1.148667 -1.3572,-2.297337 -2.035804,-3.446003 0.06492,0.538379 0.129837,1.076759 0.194755,1.615139 -0.367348,-0.662342 -0.734688,-1.324684 -1.102035,-1.98703 1.441368,0.393669 2.882743,0.787338 4.324119,1.181007 -0.413109,-0.860016 -0.82621,-1.720032 -1.239319,-2.580051 0.751847,-0.20456 1.620301,0.160496 2.000199,0.840786 0.138443,-0.09536 0.276886,-0.190716 0.415329,-0.286072"
         id="path20383" />
      <path
         d="m 75.887772,68.634979 c 0.02309,-0.192863 0.0462,-0.385727 0.06929,-0.57859 0.70063,1.142692 1.202896,2.406639 1.477676,3.718551 -0.05939,-1.465522 -0.361274,-2.920929 -0.889656,-4.289169 0.09593,0.319237 0.191849,0.638474 0.287766,0.957718 0.15184,-1.20256 -0.15194,-2.457115 -0.837067,-3.457016 0.283226,0.574799 0.56646,1.14959 0.849693,1.724381 0.09039,-0.685105 0.180779,-1.370209 0.271164,-2.055314 0.03142,1.950699 0.375778,3.896019 1.0159,5.738961 2.36e-4,-0.789261 4.65e-4,-1.578522 7.02e-4,-2.367783 0.302696,1.516449 0.605392,3.032906 0.908088,4.549355 0.586709,-1.507927 0.495636,-3.182587 0.39589,-4.797554 -0.05733,-0.928086 -0.114647,-1.856179 -0.171974,-2.784264 -0.06137,-0.993607 -0.123635,-1.993309 -0.357933,-2.960846 -0.615288,1.114605 -0.839524,2.440193 -0.625077,3.69516 -0.182991,-0.341843 -0.365989,-0.683693 -0.548988,-1.025535 -0.0039,0.685401 -0.0078,1.370811 -0.01168,2.056213 -0.498405,-1.032608 -0.996811,-2.065224 -1.495216,-3.097832 -0.464836,0.665093 -0.67865,1.501313 -0.590111,2.3079 -0.03473,-0.316376 -0.01096,-0.651886 -0.01694,-0.970284 0.0017,0.462258 0.0017,0.92469 0.008,1.386894 0.11007,-0.533371 -0.686492,-0.723899 -0.779777,-0.277191 -0.0483,0.231285 0.447868,0.935532 0.547943,1.172928 0.186539,0.442513 0.350998,0.894348 0.492333,1.353317 z"
         id="path20385" />
      <path
         d="m 76.877251,73.639038 c -0.612107,2.313179 -1.224213,4.626358 -1.836327,6.939537 -0.189331,0.715492 -0.409187,1.47995 -0.982529,1.947983 -0.384178,0.313614 -0.879676,0.451546 -1.308769,0.700195 -0.4291,0.248642 -0.820854,0.694397 -0.742851,1.184151 0.890091,0.01223 1.781456,-0.286102 2.484848,-0.831665 -0.310661,0.198616 -0.621323,0.397232 -0.931984,0.595848 0.657532,-0.07762 1.315071,-0.155235 1.972603,-0.232857 -0.494408,0.301644 -0.988808,0.603295 -1.483216,0.904938 0.720582,-0.238686 1.44117,-0.477371 2.161751,-0.716057 -0.12928,0.08115 -0.258568,0.162293 -0.387848,0.243447 0.209961,-0.208725 0.419915,-0.417458 0.629876,-0.626183 -0.116707,0.148926 -0.233422,0.297852 -0.350129,0.446777 0.553887,-0.638496 1.107781,-1.277 1.661667,-1.915497 -0.423424,0.31427 -0.846855,0.62854 -1.270279,0.94281 0.441964,-0.604095 0.883927,-1.20819 1.325898,-1.812286 -0.297562,0.314201 -0.595116,0.628403 -0.89267,0.942596 0.900436,-0.783416 1.627739,-1.764778 2.11528,-2.854202 -0.07208,0.48687 -0.14415,0.97374 -0.216225,1.460602 0.283699,-0.768333 0.567406,-1.536675 0.851105,-2.305008 -0.201988,0.281792 -0.403976,0.563576 -0.605965,0.845367 0.05188,-0.781074 0.10376,-1.562149 0.15564,-2.343231 -3.74e-4,0.348076 -7.55e-4,0.696152 -0.0011,1.044228 0.08879,-0.691597 0.177589,-1.383202 0.26638,-2.074799 -0.04896,0.364083 -0.09792,0.728165 -0.146889,1.092247 0.189865,-0.912925 0.379723,-1.825859 0.569588,-2.738792 -0.03541,0.278938 -0.07082,0.557869 -0.106224,0.836807 0.0354,-0.418289 0.07079,-0.836586 0.106193,-1.254875 -0.426818,0.383827 -0.726181,0.907074 -0.840759,1.469544 0.03277,-0.421357 0.06554,-0.842713 0.09831,-1.264069 -0.474167,0.847481 -0.948334,1.694961 -1.422493,2.542442 0.115257,-0.571045 0.230514,-1.142097 0.345779,-1.713142 -0.237022,0.911033 -0.474045,1.822075 -0.711067,2.733108 0.0573,-0.177002 0.114593,-0.354004 0.17189,-0.531006 -0.158356,0.869194 -0.316704,1.738389 -0.475059,2.607575 0.05312,-0.332192 0.106246,-0.664391 0.15937,-0.996582 0.0862,1.082161 -0.373291,2.194054 -1.198288,2.899658 0.09682,-0.642013 0.193649,-1.284027 0.290474,-1.92604 -0.225632,0.502784 -0.451271,1.005569 -0.676903,1.508346 0.282295,-1.544433 0.564598,-3.088867 0.846893,-4.633301 0.0035,0.361054 0.0071,0.722107 0.01061,1.083161 0.03345,-0.646889 0.06689,-1.293778 0.100342,-1.940666 -0.06779,0.435882 -0.135567,0.871772 -0.203347,1.307655 0.168427,-0.739304 0.336853,-1.478607 0.50528,-2.217919 0.01098,0.23713 0.02196,0.474267 0.03294,0.711396 0.112923,-0.635384 0.225838,-1.270767 0.33876,-1.906151 -0.0238,0.22374 -0.04761,0.447472 -0.07142,0.671211 -0.02155,-0.334442 -0.0431,-0.668876 -0.06465,-1.003319 -0.145912,0.509186 -0.291832,1.018372 -0.437744,1.527558 -0.0054,-0.751229 -0.01075,-1.502465 -0.01612,-2.253693 -0.103775,0.215798 -0.20755,0.431595 -0.311325,0.647392 -0.02858,-0.222305 -0.05715,-0.44461 -0.08573,-0.666923"
         id="path20387" />
    </g>
    <g
       fill="#d19c6b"
       opacity="0.1"
       id="g20397">
      <path
         d="m 42.468132,73.083382 c 0.691528,-1.292969 0.848999,-2.865235 0.402344,-4.263184 -0.02014,0.135742 -0.04022,0.271485 -0.0603,0.407227 0.03113,-0.402344 0.0622,-0.804688 0.09332,-1.207032 -0.124512,0.202149 -0.249085,0.404297 -0.373596,0.606934 -0.04181,-0.644043 -0.08368,-1.288574 -0.125489,-1.932129 -0.173217,0.244141 -0.346435,0.488281 -0.519653,0.73291 -0.01959,-0.39746 -0.03918,-0.794921 -0.05884,-1.192382 -0.251404,0.409668 -0.502807,0.819336 -0.754211,1.229004 -0.0085,-0.892579 -0.01703,-1.785157 -0.02557,-2.678223 -0.04901,0.384277 -0.230408,0.752929 -0.523193,1.007324 -0.02039,-0.70752 -0.04077,-1.414551 -0.06116,-2.121578 -0.156005,0.485836 -0.312072,0.972164 -0.468078,1.458492 -0.118347,-0.651855 -0.236633,-1.303707 -0.354981,-1.955563 -0.194091,0.450684 -0.388183,0.901852 -0.582275,1.352536 -0.136169,-0.373536 -0.272339,-0.746579 -0.408508,-1.120114 -0.148865,0.405762 -0.29773,0.811032 -0.446595,1.216305 -0.02447,-0.36084 -0.04901,-0.721676 -0.07355,-1.082516 -0.0035,0.408692 -0.007,0.816891 -0.01056,1.225582 0.05762,-0.09277 0.115173,-0.185546 0.17279,-0.27832 0.308411,0.840332 0.616761,1.681152 0.925171,2.521485 0.0141,0.217773 0.0282,0.436035 0.0423,0.653808 l 0.234314,0.43457 c 0.123779,-0.254882 0.247436,-0.509277 0.371216,-0.76416 0.02417,0.529297 0.0484,1.058594 0.07257,1.587891 l 0.02075,0.03857 c 0.02325,-0.375977 0.04657,-0.751953 0.06982,-1.12793 0.06445,0.538575 0.128967,1.077637 0.19342,1.616211 l 0.0907,0.168457 c 0.06537,-0.327636 0.130737,-0.654785 0.196106,-0.982422 0.03815,0.419434 0.07629,0.838868 0.114441,1.258301 0.156555,-0.321777 0.31311,-0.643555 0.469666,-0.964844 0.01422,0.728516 0.02844,1.457032 0.04266,2.186036 0.117371,-0.572266 0.234741,-1.144532 0.352112,-1.716797 0.566101,1.18164 0.874756,2.480468 0.927063,3.78955 0.01331,-0.02393 0.02557,-0.04785 0.03851,-0.07178 -0.0086,0.09375 -0.01721,0.187012 -0.02576,0.280762 7.33e-4,0.04004 0.0072,0.08008 0.0074,0.120605 0.0119,-0.144531 0.02374,-0.289062 0.03564,-0.433593 z"
         id="path20391" />
      <path
         d="m 41.041679,64.320198 c 0.0015,0.155273 0.003,0.311035 0.0045,0.466309 0.01984,-0.155274 0.02338,-0.312012 -0.0045,-0.466309 z"
         id="path20393" />
      <path
         d="m 42.323235,73.352913 -2.01294,-3.735352 c -0.01471,0.07373 -0.02942,0.147461 -0.04413,0.221192 -0.0155,-0.129883 -0.03101,-0.259766 -0.04657,-0.389649 L 39.95635,68.960823 c -0.0037,0.05859 -0.0073,0.117676 -0.01093,0.176758 -0.0033,-0.07178 -0.0065,-0.143555 -0.0098,-0.215332 l -0.443786,-0.823731 c -0.06061,0.125 -0.121277,0.25 -0.181885,0.374512 -0.01752,-0.269531 -0.03497,-0.539551 -0.05243,-0.809082 l -1.287354,-2.38916 c -0.07837,0.611328 -0.156738,1.222656 -0.235107,1.833496 0.107422,0.668457 0.214905,1.336914 0.322388,2.004883 0.01263,-0.286133 0.02527,-0.572266 0.0379,-0.858399 0.344056,0.146485 0.541932,0.570313 0.433167,0.928223 0.04004,-0.173828 0.08014,-0.347168 0.120178,-0.520996 0.182678,0.694824 0.365295,1.38916 0.547913,2.083496 0.285644,0.347656 0.37976,0.843262 0.241394,1.271485 0.08704,-0.355469 0.174133,-0.711426 0.261169,-1.066895 0.155334,0.68457 0.31073,1.369141 0.466064,2.053711 0.01733,-0.294922 0.03467,-0.589844 0.05194,-0.884766 0.326661,1 0.653321,1.999512 0.979981,2.999512 0.06341,-1.070312 0.126831,-2.140625 0.190246,-3.210937 -0.04034,1.0708 0.279847,2.151367 0.896668,3.027343 0.047,-0.513183 0.09399,-1.025879 0.141052,-1.538574 -0.0012,-0.07031 -0.0099,-0.139648 -0.01276,-0.208984 -0.03082,0.05469 -0.05634,0.111816 -0.08911,0.165527 z"
         id="path20395" />
    </g>
    <g
       fill="#d19c6b"
       opacity="0.1"
       id="g20403">
      <path
         d="m 42.381157,58.370007 c 0.0199,0.06445 0.04822,0.125976 0.06946,0.189453 0.03503,0.06494 0.07001,0.129394 0.105041,0.194336 -0.05817,-0.12793 -0.116333,-0.25586 -0.174499,-0.383789 z"
         id="path20399" />
      <path
         d="m 44.301628,61.85194 c -0.824158,-0.96289 -1.451294,-2.089844 -1.851013,-3.29248 -0.258057,-0.476563 -0.516174,-0.953125 -0.774231,-1.430176 -0.162964,0.904297 -0.05945,1.85498 0.294311,2.703125 0.07031,-0.108398 0.140686,-0.216309 0.21106,-0.324707 0.09918,0.907715 0.198425,1.814941 0.297607,2.722168 -0.0099,-0.09375 -0.183899,-0.08887 -0.188659,0.0054 -0.210083,-0.48584 -0.420105,-0.97168 -0.630127,-1.457519 -0.167298,-0.393067 -0.334595,-0.786622 -0.501892,-1.179688 -0.03711,0.11084 -0.07422,0.222168 -0.111329,0.333008 -0.103637,-0.292481 -0.207214,-0.584473 -0.310852,-0.876953 -0.02545,0.468261 -0.05096,0.936523 -0.07642,1.404785 l 0.202515,-0.649414 c 0.0075,0.631348 0.01508,1.262695 0.02258,1.893555 0.128174,-0.101563 0.256409,-0.203125 0.384582,-0.304688 -0.0062,0.666016 -0.01233,1.332031 -0.01849,1.998047 0.09357,-0.09668 0.187073,-0.193848 0.280639,-0.290527 0.04633,0.459961 0.09265,0.919429 0.138916,1.37939 0.17157,-0.0581 0.34314,-0.116699 0.51471,-0.174804 0.09265,0.41748 0.185303,0.834961 0.277954,1.252441 0.162781,-0.106445 0.325623,-0.212891 0.488464,-0.319336 0.04822,0.200195 0.0965,0.400391 0.144715,0.600586 0.0235,-1.305664 0.04706,-2.611324 0.07056,-3.916988 0.194702,0.281738 0.389405,0.562988 0.584107,0.844726 0.02069,-0.186523 0.04138,-0.373047 0.06207,-0.55957 0.172668,0.107422 0.345337,0.214355 0.517944,0.321777 -0.0099,-0.227539 -0.01984,-0.45459 -0.02972,-0.682129 z"
         id="path20401" />
    </g>
    <path
       d="m 38.233669,75.592468 c 0.236943,0.214363 0.671837,0.131432 0.813263,-0.15509 -0.240089,1.011101 -0.480182,2.022209 -0.720272,3.033318 0.50819,0.432441 0.624001,1.256973 0.254597,1.812683 0.231388,-0.01316 0.462776,-0.02631 0.694164,-0.03947 0.101357,0.737594 0.202713,1.475189 0.30407,2.212784 0.165496,-0.07384 0.330997,-0.14769 0.496498,-0.221543 0.022,0.715958 0.044,1.431908 0.066,2.147858 0.154518,-0.105004 0.309032,-0.210007 0.46355,-0.31501 0.08333,0.178985 0.319183,0.268547 0.500317,0.189995 0.181133,-0.07856 0.276924,-0.311951 0.203205,-0.495102 0.09404,0.724304 0.188072,1.448608 0.282108,2.172912 0.190922,-0.86766 0.381848,-1.735321 0.572773,-2.602981 0.05895,0.659385 0.117893,1.318763 0.176838,1.978149 0.04023,-1.465401 0.08047,-2.930801 0.120701,-4.396202 -0.166721,0.623505 -0.333439,1.247009 -0.50016,1.870514 -0.0851,-0.308945 -0.170197,-0.617889 -0.255295,-0.926834 -0.157101,0.415382 -0.314202,0.830757 -0.471302,1.246139 -0.190399,-0.979385 -0.380795,-1.95877 -0.571194,-2.938156 -0.111931,0.549744 -0.223865,1.099488 -0.335796,1.649231 -0.168122,-0.879844 -0.336247,-1.759689 -0.504368,-2.639534 -0.07904,0.18837 -0.158081,0.37674 -0.237122,0.565117 -0.262809,-0.744255 -0.168338,-1.605972 0.249474,-2.275612 0.217792,0.607392 0.435585,1.214783 0.653374,1.822182 0.06712,-0.675575 0.134239,-1.351143 0.201358,-2.026711 0.330975,1.105828 0.661946,2.211663 0.99292,3.317498 0.115342,-0.959366 0.230687,-1.918732 0.346028,-2.878098 0.0071,0.215172 0.01422,0.430344 0.02134,0.645508 -0.187759,-0.735924 -0.375518,-1.471847 -0.563282,-2.207771 -0.257351,0.315521 -0.514701,0.63105 -0.772052,0.946571 -0.124985,-0.204643 -0.249966,-0.409294 -0.374951,-0.613937 -0.04724,-0.605477 -0.09449,-1.210945 -0.141731,-1.816414 -0.07247,0.195335 -0.144936,0.390671 -0.2174,0.586006 -0.09723,-0.165993 -0.194462,-0.331993 -0.291691,-0.497993 -0.497764,-0.0064 -0.920837,-0.529686 -0.822898,-1.017762 -0.126667,0.151184 -0.253331,0.302369 -0.379994,0.45356 0.01609,-0.29763 0.03218,-0.595253 0.04828,-0.892883 -0.02854,-0.779839 -0.05708,-1.559677 -0.08562,-2.339523 -0.0143,0.346634 -0.02859,0.693267 -0.04288,1.039894 -0.159446,-0.752297 -0.246002,-1.595986 -0.51614,-2.307953 -0.109272,1.915809 0.256104,3.995804 0.3433,5.914657 z"
       fill="#d19c6b"
       opacity="0.1"
       id="path20405" />
  </g>
</svg>
