<?xml version="1.0" encoding="UTF-8" standalone="no"?>
<svg
   xmlns:dc="http://purl.org/dc/elements/1.1/"
   xmlns:cc="http://creativecommons.org/ns#"
   xmlns:rdf="http://www.w3.org/1999/02/22-rdf-syntax-ns#"
   xmlns:svg="http://www.w3.org/2000/svg"
   xmlns="http://www.w3.org/2000/svg"
   width="500"
   height="250"
   viewBox="0 0 132.29166 66.145835"
   version="1.1"
   id="svg8">
  <defs
     id="defs2">
    <rect
       x="33.261906"
       y="1.889881"
       width="32.127975"
       height="25.607887"
       id="rect952" />
    <rect
       x="23.718006"
       y="3.0238094"
       width="21.45015"
       height="20.127232"
       id="rect946" />
    <rect
       id="rect952-5"
       height="25.607887"
       width="32.127975"
       y="1.889881"
       x="33.261906" />
    <rect
       id="rect1246"
       height="25.607887"
       width="32.127975"
       y="1.889881"
       x="33.261906" />
  </defs>
  <metadata
     id="metadata5">
    <rdf:RDF>
      <cc:Work
         rdf:about="">
        <dc:format>image/svg+xml</dc:format>
        <dc:type
           rdf:resource="http://purl.org/dc/dcmitype/StillImage" />
        <dc:title></dc:title>
      </cc:Work>
    </rdf:RDF>
  </metadata>
  <text
     transform="matrix(2.7577845,0,0,2.7577845,-12.136566,6.4822914)"
     style="font-style:normal;font-variant:normal;font-weight:bold;font-stretch:normal;font-size:10.5833px;line-height:1.25;font-family:sans-serif;-inkscape-font-specification:'sans-serif Bold';white-space:pre;shape-inside:url(#rect946);fill:#000000;fill-opacity:1;stroke:none;"
     id="text944"
     xml:space="preserve"><tspan
       x="23.71875"
       y="12.678903"><tspan
         style="font-style:normal;font-variant:normal;font-weight:bold;font-stretch:normal;font-family:sans-serif;-inkscape-font-specification:'sans-serif Bold'">+</tspan></tspan></text>
  <path
     style="stroke-width:0.0808539"
     d="m 43.741506,27.919173 c -0.270991,-0.838228 -1.01446,-1.433577 -1.894065,-1.512852 L 29.899388,25.321427 25.174806,14.263082 c -0.348365,-0.810433 -1.141743,-1.335036 -2.02324,-1.335036 -0.881499,0 -1.674877,0.524603 -2.023242,1.336931 l -4.724583,11.05645 -11.9499465,1.084894 c -0.8780225,0.08117 -1.6196037,0.674624 -1.8921702,1.512852 -0.2725655,0.838227 -0.020846,1.757623 0.6433571,2.337181 l 9.0313116,7.92052 -2.6631224,11.731074 c -0.194871,0.862547 0.1399145,1.75415 0.8555964,2.271489 0.384689,0.277936 0.834754,0.41943 1.288609,0.41943 0.391321,0 0.779482,-0.105489 1.127848,-0.313941 l 10.306342,-6.159739 10.302549,6.159739 c 0.753901,0.453541 1.704246,0.412165 2.418354,-0.105489 0.715996,-0.518917 1.050466,-1.410837 0.855597,-2.271489 L 34.06494,38.176874 43.096251,30.257933 c 0.664203,-0.581137 0.917822,-1.498955 0.645255,-2.33876 z m 0,0"
     fill="#ffc107"
     id="path2273" />
  <g
     transform="matrix(0.74890448,0,0,0.74890448,82.516929,13.690951)"
     style="fill:none"
     fill-rule="nonzero"
     id="025---Butterfly-Fish">
    <path
       fill="#e57e25"
       d="M 29.837,38.7 C 27.273781,40.669636 25.839874,43.771391 26,47 c 0.0246,1.718685 -0.316259,3.422983 -1,5 8.94,-4.12 11.26,-9.19 11.84,-11.96 z"
       id="Shape" />
    <path
       fill="#f0c419"
       d="m 59,30 c 0,1 0,2 -3,2 -3,0 -4,0 -9,4 -5,4 -10,4 -18,5 -8,1 -12,5 -16,5 C 9,46 6,45 6,38 6,33.84 7.06,32.16 7.92,31.47 7.1567501,31.825953 6.478294,32.340761 5.93,32.98 5.2496838,33.738864 4.2383859,34.112619 3.2280699,33.978577 2.217754,33.844535 1.3389014,33.220008 0.88,32.31 -0.2932872,29.556441 -0.2932872,26.443559 0.88,23.69 1.2912188,22.864659 2.0515383,22.267779 2.9509095,22.064257 3.8502807,21.860736 4.7935038,22.072116 5.52,22.64 4.67,21.05 4,18.39 4,14 4,2 7,0 15,0 c 14.56,0 22.87,5.29 27.25,10.19 1.076476,1.192033 2.021891,2.496169 2.82,3.89 0.353175,0.618173 0.663892,1.259654 0.93,1.92 2,5 4,10 8,11 4,1 5,0 5,3 z"
       id="path2325" />
    <g
       id="g2333"
       fill="#f29c1f">
      <path
         d="m 16,28 c 0.88,7.93 3.32,12.76 0.46,17.21 C 15.365433,45.684999 14.192258,45.952863 13,46 9,46 6,45 6,38 6,37.53 6.01,37.09 6.04,36.68 6.23,33.56 7.11,32.16 7.86,31.52 7.88,31.5 7.9,31.49 7.92,31.47 7.1567501,31.825953 6.478294,32.340761 5.93,32.98 5.2496838,33.738864 4.2383859,34.112619 3.2280699,33.978577 2.217754,33.844535 1.3389014,33.220008 0.88,32.31 -0.2932872,29.556441 -0.2932872,26.443559 0.88,23.69 1.2912188,22.864659 2.0515383,22.267779 2.9509095,22.064257 3.8502807,21.860736 4.7935038,22.072116 5.52,22.64 5.5,22.61 5.49,22.58 5.47,22.55 4.8575526,21.263165 4.4589918,19.88509 4.29,18.47 4.0862673,16.988882 3.9893505,15.495026 4,14 4,4.4 5.92,1.2 10.79,0.3 13.52,1.87 17.37,4.93 18,10 c 1,8 -3,9 -2,18 z"
         id="path2327" />
      <path
         d="m 29,24 c 0,7.98 0.79,12.81 -1.82,17.29 -1.095158,0.213708 -2.176979,0.490841 -3.24,0.83 C 24.639246,40.155243 24.997735,38.085476 25,36 V 22 C 25,19 24.61,12.22 22,7 20.76901,4.5061013 19.237642,2.1721094 17.44,0.05 c 1.7,0.07 3.32,0.22 4.84,0.43 1.569568,1.2021276 2.842248,2.7485019 3.72,4.52 3,6 3,10 3,19 z"
         id="path2329" />
      <path
         d="m 40,25 c 0,8.92 -0.81,12.68 -2.17,14.87 -1.45,0.26 -2.99,0.45 -4.69,0.65 C 34.75,38.65 36.59,34.43 36,25 35.13,11.1 34.26,8.52 31.43,2.84 c 1.768193,0.6918691 3.468742,1.5454909 5.08,2.55 V 5.4 C 38.850077,11.668239 40.032589,18.309281 40,25 Z"
         id="path2331" />
    </g>
    <path
       fill="#e57e25"
       d="m 11.77,22.8 c 0.0164,0.265334 -0.07353,0.526278 -0.249908,0.725176 -0.176381,0.198899 -0.424701,0.31938 -0.690092,0.334824 -0.03,0 -0.14,0.01 -0.31,0.01 C 8.7516368,23.8679 7.0132024,23.413504 5.47,22.55 4.8575526,21.263165 4.4589918,19.88509 4.29,18.47 c 0.01,0.01 0.01,0.02 0.02,0.03 1.79,3.59 6.35,3.37 6.4,3.36 0.551468,-0.03078 1.024622,0.388808 1.06,0.94 z"
       id="path2335" />
    <path
       fill="#e57e25"
       d="m 11.84,31.8 c -0.0528,0.545131 -0.534284,0.946366 -1.08,0.9 -0.11,0 -2.77,-0.13 -4.52,3.7 -0.049087,0.104718 -0.1168624,0.199604 -0.2,0.28 0.19,-3.12 1.07,-4.52 1.82,-5.16 0.9273124,-0.560803 1.9967732,-0.842057 3.08,-0.81 0.54939,0.05272 0.952196,0.54056 0.9,1.09 z"
       id="path2337" />
    <circle
       r="3"
       fill="#d25627"
       cy="11"
       cx="11"
       id="Oval" />
    <path
       fill="#f29c1f"
       d="m 45.78,22.58 -0.23,5.04 c -0.252049,2.613898 -0.788557,5.192491 -1.6,7.69 -0.135683,0.410108 -0.518035,0.687816 -0.95,0.69 -0.105175,-0.002 -0.209543,-0.01879 -0.31,-0.05 -0.524399,-0.171526 -0.810792,-0.735362 -0.64,-1.26 0.766314,-2.343563 1.269411,-4.765137 1.5,-7.22 l 0.23,-4.93 c -0.032,-4.161897 -0.545411,-8.306117 -1.53,-12.35 1.076476,1.192032 2.021891,2.496169 2.82,3.89 0.445143,2.812046 0.682452,5.653073 0.71,8.5 z"
       id="path2340" />
    <circle
       r="2"
       fill="#3b97d3"
       cy="20"
       cx="54"
       id="circle2342" />
    <circle
       r="3"
       fill="#3b97d3"
       cy="10"
       cx="55"
       id="circle2344" />
    <circle
       r="1"
       fill="#2980ba"
       cy="15"
       cx="50"
       id="circle2346" />
    <circle
       r="3"
       fill="#ecf0f1"
       cy="25"
       cx="43"
       id="circle2348" />
    <circle
       r="2"
       fill="#35495e"
       cy="25"
       cx="44"
       id="circle2350" />
    <circle
       r="1"
       fill="#ecf0f1"
       cy="24"
       cx="43"
       id="circle2352" />
  </g>
</svg>
