<?xml version="1.0" encoding="UTF-8" standalone="no"?>
<svg
   xmlns:dc="http://purl.org/dc/elements/1.1/"
   xmlns:cc="http://creativecommons.org/ns#"
   xmlns:rdf="http://www.w3.org/1999/02/22-rdf-syntax-ns#"
   xmlns:svg="http://www.w3.org/2000/svg"
   xmlns="http://www.w3.org/2000/svg"
   width="500"
   height="250"
   viewBox="0 0 132.29166 66.145835"
   version="1.1"
   id="svg8">
  <defs
     id="defs2">
    <rect
       id="rect14952"
       height="41.217972"
       width="28.355626"
       y="11.693042"
       x="56.1266" />
    <rect
       id="rect12397"
       height="46.715494"
       width="47.955729"
       y="8.6816405"
       x="71.933593" />
    <rect
       id="rect10750"
       height="32.448191"
       width="43.55658"
       y="16.95491"
       x="54.080318" />
    <rect
       id="rect10116"
       height="31.278887"
       width="27.917137"
       y="16.808747"
       x="101.14481" />
    <rect
       id="rect9439"
       height="25.14004"
       width="57.003578"
       y="26.309344"
       x="5.2618688" />
    <rect
       id="rect8476"
       height="26.60167"
       width="35.663777"
       y="22.216779"
       x="51.449384" />
    <rect
       id="rect8111"
       height="60.358072"
       width="46.715494"
       y="-7.4414062"
       x="111.20768" />
    <rect
       id="rect5692"
       height="31.419271"
       width="28.318685"
       y="19.223633"
       x="111.62109" />
    <rect
       id="rect4959"
       height="36.793619"
       width="38.447265"
       y="12.815755"
       x="87.436523" />
    <rect
       id="rect3591"
       height="32.246093"
       width="36.586914"
       y="17.569987"
       x="2.6871745" />
    <rect
       x="33.261906"
       y="1.889881"
       width="32.127975"
       height="25.607887"
       id="rect952" />
    <rect
       x="23.718006"
       y="3.0238094"
       width="21.45015"
       height="20.127232"
       id="rect946" />
    <rect
       id="rect952-5"
       height="25.607887"
       width="32.127975"
       y="1.889881"
       x="33.261906" />
    <rect
       id="rect1246"
       height="25.607887"
       width="32.127975"
       y="1.889881"
       x="33.261906" />
    <rect
       id="rect2592"
       height="20.127232"
       width="21.45015"
       y="3.0238094"
       x="23.718006" />
    <rect
       x="23.718006"
       y="3.0238094"
       width="21.45015"
       height="20.127232"
       id="rect2600" />
    <rect
       id="rect2608"
       height="20.127232"
       width="21.45015"
       y="3.0238094"
       x="23.718006" />
    <rect
       x="2.6871746"
       y="17.569986"
       width="36.586914"
       height="32.246094"
       id="rect3591-5" />
    <rect
       x="2.6871746"
       y="17.569986"
       width="36.586914"
       height="32.246094"
       id="rect4205" />
    <rect
       x="111.20768"
       y="-7.4414062"
       width="46.715494"
       height="60.358072"
       id="rect8139" />
    <rect
       x="51.449384"
       y="22.216779"
       width="35.663777"
       height="26.60167"
       id="rect8484" />
  </defs>
  <metadata
     id="metadata5">
    <rdf:RDF>
      <cc:Work
         rdf:about="">
        <dc:format>image/svg+xml</dc:format>
        <dc:type
           rdf:resource="http://purl.org/dc/dcmitype/StillImage" />
        <dc:title></dc:title>
      </cc:Work>
    </rdf:RDF>
  </metadata>
  <g
     transform="matrix(0.26458333,0,0,0.26458333,71.999739,33.965621)"
     id="g14585">
</g>
  <g
     transform="matrix(0.26458333,0,0,0.26458333,71.999739,33.965621)"
     id="g14587">
</g>
  <g
     transform="matrix(0.26458333,0,0,0.26458333,71.999739,33.965621)"
     id="g14589">
</g>
  <g
     transform="matrix(0.26458333,0,0,0.26458333,71.999739,33.965621)"
     id="g14591">
</g>
  <g
     transform="matrix(0.26458333,0,0,0.26458333,71.999739,33.965621)"
     id="g14593">
</g>
  <g
     transform="matrix(0.26458333,0,0,0.26458333,71.999739,33.965621)"
     id="g14595">
</g>
  <g
     transform="matrix(0.55209735,0,0,0.55209735,89.484754,-33.629208)"
     id="g14772">
    <path
       style="fill:#424242;stroke-width:0.264583"
       d="m 41.276436,152.89172 c 0,0 2.23599,3.53378 2.8575,4.98766 0,0 -3.72401,-0.21034 -4.50136,-0.65907 -0.77602,-0.44715 -0.84137,-4.894 -0.84137,-4.894 z m -50.1483338,-6.55346 c -0.3302,-0.34581 -0.654315,-0.69638 -0.976842,-1.04854 0.450321,-1.4912 1.533261,-3.70523 1.533261,-3.70523 0,0 2.924704,-0.50641 3.389047,-0.46911 0.464344,0.0389 -0.785283,3.44647 -0.785283,3.44647 0,0 -1.865312,1.21549 -3.160183,1.77641 z m 25.9614438,3.09906 c 0,0 1.16708,3.17871 1.05172,4.57147 0,0 -4.13994,-0.80856 -4.63391,-1.59702 -0.49715,-0.78846 0.43471,-3.6912 0.43471,-3.6912 z m 17.73634,0.84138 c 0,0 -0.52652,4.96411 -1.20597,5.28373 -0.67786,0.31935 -2.73605,-4.23492 -2.58498,-4.90352 0.15267,-0.66675 2.48206,-2.17038 2.48206,-2.17038 z"
       id="path14539" />
    <g
       id="g14545"
       transform="matrix(0.26458333,0,0,0.26458333,-27.552275,31.898564)">
	<path
   style="fill:#ff6e00"
   d="m 263.55,378.838 c 0,0 -8.18,19.069 -8.315,29.757 0,0 4.099,5.53 1.614,10.836 -2.485,5.306 1.608,31.005 2.868,33.338 1.254,2.326 5.247,7.214 3.475,8.268 -1.773,1.054 -7.579,-1.731 -7.579,-1.731 0,0 -0.218,3.71 -2.915,3.092 -2.697,-0.612 -3.357,-3.315 -3.357,-3.315 0,0 -6.519,3.109 -6.761,1.778 -0.236,-1.331 5.877,-9.128 5.877,-9.128 0,0 -1.985,-25.046 -2.874,-28.909 -0.883,-3.863 -5.147,-8.669 -4.429,-11.819 0.718,-3.156 2.467,-17.561 2.202,-24.775 -0.271,-7.209 15.854,-12.98 20.194,-7.392 z"
   id="path14541" />

	<path
   style="fill:#ff6e00"
   d="m 143.703,308.807 c 0,0 -14.363,30.487 -16.136,58.425 0,0 -9.081,9.57 -17.396,12.449 0,0 -7.485,-0.76 -9.416,2.12 -1.937,2.874 0.73,9.098 0.477,11.336 -0.253,2.244 -11.607,13.951 -14.01,14.428 -2.409,0.471 -8.586,-0.43 -8.433,1.137 0.153,1.567 4.729,3.887 4.729,3.887 0,0 -2.656,2.715 -2.674,5.012 -0.012,2.291 1.784,2.261 1.784,2.261 0,0 -4.546,9.87 -1.802,11.266 2.744,1.39 7.821,-10.794 9.01,-12.661 1.195,-1.867 15.146,-10.429 17.685,-15.977 2.544,-5.547 4.941,-9.34 7.026,-10.653 2.085,-1.313 30.899,-7.073 39.091,-20.27 8.192,-13.197 13.633,-46.346 5.176,-55.162 -8.456,-8.823 -15.111,-7.598 -15.111,-7.598 z"
   id="path14543" />

</g>
    <path
       style="fill:#ff8d00;stroke-width:0.264583"
       d="m 38.523176,134.80825 c 0.81333,1.81054 1.84335,3.90631 2.37781,4.17883 0.966,0.4908 2.49767,0.56859 2.88714,1.81054 0.38946,1.24195 -1.18428,2.23758 -2.12831,2.8358 -0.9443,0.59981 -6.03779,5.81025 -6.34789,6.28227 -0.3085,0.47043 -0.11535,1.39621 -0.81491,1.50839 -0.69797,0.1106 -0.76968,-1.93834 -0.76968,-1.93834 0,0 -1.13585,0.55457 -1.35863,-0.24315 -0.22278,-0.79613 1.21999,-1.21232 1.21999,-1.21232 0,0 -1.46314,-0.6731 -1.28243,-1.17316 0.1823,-0.50165 2.00845,0.0513 2.00845,0.0513 0,0 4.53258,-4.52623 4.92204,-5.04667 0,0 -3.7846,-3.77851 -5.26653,-4.65878 -0.84772,-0.50324 -2.2561,-1.70762 -3.30782,-2.99006 -4.85828,-1.1467 -7.47898,-3.7629 -9.29269,-4.73207 -0.42545,-0.22595 -1.10623,-0.51117 -1.93199,-0.85857 -0.58261,1.9476 -1.17025,3.86583 -1.48484,4.58549 -0.70591,1.61581 -2.83263,3.83302 -3.78778,4.7633 -0.95514,0.93027 -0.0982,2.20636 0.006,2.6363 0.10584,0.42837 1.90236,6.17485 2.41829,7.17206 0.51568,0.99404 1.73885,2.15186 1.41473,2.68473 -0.3257,0.53446 -2.07698,-0.96758 -2.07698,-0.96758 0,0 -0.27411,0.9054 -0.93027,0.82259 -0.65591,-0.081 -0.78211,-0.71834 -0.78211,-0.71834 0,0 -1.15306,0.61542 -0.99087,-1.57692 0,0 -1.2356,0.5797 -1.63459,0.15901 -0.40032,-0.42068 0.97234,-1.79652 0.64188,-2.81701 -0.3302,-1.0205 -2.09101,-5.7449 -2.5008398,-6.3119 -0.41302,-0.56727 -0.11986,-1.85103 0.8321098,-2.17356 0.95197,-0.32411 2.14074,-3.15991 2.14074,-3.15991 0,0 -3.4575698,-7.94968 -3.7160698,-10.37247 -0.10451,-0.97842 -0.1106,-2.15185 -0.0265,-3.34697 -0.47519,1.45071 -1.02526,2.60059 -1.6719,2.61461 -1.64068,0.0357 -0.4191,-5.08741 -0.4191,-5.08741 0,0 -2.50402,5.64356 -3.69596,4.35795 -1.19354,-1.28534 3.03847,-6.80588 2.58021,-6.57225 -0.45958,0.23363 -4.18518,2.35585 -3.66474,0.3646 0.52202,-1.99284 9.4281598,-6.68444 11.9213298,-6.6548 2.70325,-0.59981 11.73745,3.62267 14.28644,4.00129 2.54741,0.37703 9.28344,-0.72152 9.28344,-0.72152 8.90323,-1.41472 10.59682,12.48225 7.36679,17.75804 -1.86055,3.03874 -3.90948,4.35399 -6.42435,4.74663 z"
       id="path14547" />
    <g
       id="g14553"
       transform="matrix(0.26458333,0,0,0.26458333,-27.552275,31.898564)">
	<path
   style="fill:#ffb100"
   d="m 277.677,250.829 c 3.274,-4.452 10.082,-6.89 15.188,-5.394 5.1,1.508 29.239,4.629 39.02,6.519 9.782,1.89 14.351,7.238 14.351,7.238 0,0 -1.019,10.441 -2.462,10.794 -1.443,0.347 -3.557,-0.819 -3.557,-0.819 0,0 0.654,4.582 -2.379,5.93 -3.027,1.349 -27.213,-0.418 -30.735,2.52 -0.212,0.177 -0.442,0.347 -0.695,0.518 -1.914,7.715 -4.482,19.322 -4.099,24.775 0.601,8.557 1.472,31.995 0.271,34.274 -1.201,2.279 -5.471,-2.526 -5.471,-2.526 0,0 0.53,22.331 -2.155,24.021 -2.679,1.684 -5.659,-4.358 -5.659,-4.358 0,0 -3.681,20.865 -9.77,22.284 -6.089,1.419 -10.376,-10.023 -10.376,-10.023 0.006,0 -5.754,10.689 -9.334,9.611 -3.586,-1.072 -5.483,-19.634 -5.483,-19.634 0,0 -3.08,5.683 -5.883,4.535 -2.803,-1.148 -6.731,-18.639 -2.344,-31.17 0,0 -7.956,3.545 -8.298,1.678 -0.336,-1.861 7.95,-16.948 7.95,-16.948 0,0 -12.832,-3.056 -12.862,-7.402 -0.03,-4.346 16.701,-7.173 21.601,-15.247 4.906,-8.068 15.57,-27.973 20.759,-33.367 0.183,-0.194 0.4,-0.377 0.642,-0.548 -0.004,-2.973 0.532,-5.57 1.78,-7.261 z"
   id="path14549" />

	<path
   style="fill:#ffb100"
   d="m 287.606,252.072 c 0,0 -5.347,-1.561 -9.434,-6.236 -4.075,-4.676 -17.726,-12.002 -26.147,11.501 0,0 9.77,12.39 19.693,9.181 9.923,-3.209 11.23,-8.969 16.389,-9.187 5.159,-0.224 -0.501,-5.259 -0.501,-5.259 z"
   id="path14551" />

</g>
    <path
       style="fill:#ff8d00;stroke-width:0.264583"
       d="m 39.916206,99.695663 c 0,0 1.40547,-2.438402 3.0742,-2.424379 1.79811,0.01402 2.34817,3.131866 4.48733,2.438399 0,0 -2.52889,0.820997 -3.12552,1.466317 -0.59849,0.64664 -3.24882,0.42069 -4.43601,-1.480337 z"
       id="path14555" />
    <g
       id="g14561"
       transform="matrix(0.26458333,0,0,0.26458333,-27.552275,31.898564)">
	<path
   style="fill:#202020"
   d="m 287.73,247.108 c 0,0 2.067,-9.081 -16.33,-14.97 -18.403,-5.889 -23.097,-3.21 -30.051,-8.539 -6.955,-5.335 -12.084,-15.694 -10.871,-19.504 1.207,-3.81 2.049,-6.001 -0.612,-6.266 -2.661,-0.265 -7.061,13.026 -4.281,18.762 2.78,5.742 8.074,12.379 8.074,12.379 0,0 -7.408,-0.347 -11.007,-2.509 -3.592,-2.161 -10.153,-19.657 -11.725,-21.719 -1.572,-2.062 -3.062,14.923 0.077,19.063 0,0 -9.034,-0.683 -14.546,-6.36 -5.512,-5.689 -9.676,-24.74 -6.39,-28.726 3.292,-3.981 9.21,-6.042 8.604,-7.874 -0.601,-1.837 -14.251,-0.188 -16.053,6.207 -1.796,6.401 1.902,21.524 3.351,25.611 0,0 -4.352,-4.888 -6.183,-13.227 -1.831,-8.339 -2.685,-10.577 -5.094,-10.447 -2.414,0.13 -1.879,14.21 6.908,26.424 8.792,12.22 30.511,22.949 46.352,22.143 15.841,-0.806 25.876,-2.986 34.18,-2.096 8.309,0.895 17.231,8.038 17.861,11.242 0.628,3.209 6.576,3.544 7.736,0.406 z"
   id="path14557" />

	<path
   style="fill:#202020"
   d="m 321.639,253.586 c 0,0 11.177,-7.208 14.664,-6.072 3.486,1.137 11.16,9.346 10.188,13.215 -10e-4,0 -15.713,5.035 -24.852,-7.143 z"
   id="path14559" />

</g>
    <path
       style="fill:#ff8d00;stroke-width:0.264583"
       d="m 62.605556,101.14028 c 0,0 -0.72443,-1.642267 -1.24487,-1.875887 -0.52202,-0.23204 -1.40546,0.68077 -1.40546,0.68077 0,0 0.9599,-0.35692 1.21999,-0.16192 0.25876,0.19473 0.73686,1.369477 0.73686,1.369477 0,0 0.3945,0.0109 0.69348,-0.0124 z"
       id="path14563" />
    <g
       id="g14569"
       transform="matrix(0.26458333,0,0,0.26458333,-27.552275,31.898564)">
	<path
   style="fill:#202020"
   d="m 340.218,269.168 c 0,0 -10.418,-3.392 -13.191,-3.003 -2.768,0.389 -5.73,4.44 -5.73,4.44 0,0 3.704,-2.844 7.031,-2.862 3.322,-0.012 11.89,1.425 11.89,1.425 z"
   id="path14565" />

	<path
   style="fill:#202020"
   d="m 298.666,251.147 c 0,0 3.086,3.268 5.6,2.88 2.515,-0.395 3.639,-2.52 3.639,-2.52 0,0 0.406,2.679 -3.239,4.111 -3.645,1.424 -6,-4.471 -6,-4.471 z"
   id="path14567" />

</g>
    <path
       style="fill:#ff8d00;stroke-width:0.264583"
       d="m 45.724876,102.25577 c 0,0 0.0204,0.0905 0.0608,0.254 0.0357,0.16668 0.0966,0.40507 0.1823,0.69955 0.0825,0.29449 0.20267,0.6403 0.36142,1.01442 0.16192,0.37227 0.37703,0.76967 0.67786,1.12183 0.30374,0.3474 0.69956,0.63738 1.17634,0.78211 0.4736,0.15425 1.00806,0.17304 1.54252,0.13256 1.07818,-0.0934 2.15953,-0.40191 3.13505,-0.64188 0,0 -0.20558,0.12461 -0.61701,0.31935 -0.41143,0.19314 -1.02526,0.47201 -1.88066,0.67469 -0.42836,0.0966 -0.92075,0.17753 -1.47399,0.14499 -0.54848,-0.0265 -1.17952,-0.19791 -1.70154,-0.61542 -0.52811,-0.41302 -0.8882,-1.03452 -1.10781,-1.70604 -0.22595,-0.67495 -0.32094,-1.41208 -0.35533,-2.18016 z"
       id="path14571" />
    <g
       id="g14581"
       transform="matrix(0.26458333,0,0,0.26458333,-27.552275,31.898564)">
	<path
   style="fill:#ff6e00"
   d="m 221.597,387.254 c 0,0 -0.23,-0.183 -0.642,-0.536 -0.212,-0.171 -0.465,-0.389 -0.766,-0.642 -0.294,-0.253 -0.589,-0.589 -0.942,-0.942 -1.384,-1.425 -3.062,-3.728 -4.376,-6.655 -1.354,-2.909 -2.326,-6.378 -3.074,-9.84 -0.748,-3.469 -1.307,-6.931 -1.867,-10.07 0,0 0.371,0.665 0.96,1.979 0.577,1.325 1.331,3.316 2.096,5.918 0.801,2.591 1.566,5.801 2.697,9.393 1.149,3.586 2.698,7.626 5.914,11.395 z"
   id="path14573" />

	<path
   style="fill:#ff6e00"
   d="m 250.188,389.415 c 0,0 -0.559,-0.789 -1.484,-2.096 -0.877,-1.325 -2.226,-3.21 -2.962,-5.865 -0.112,-0.324 -0.159,-0.671 -0.206,-1.025 -0.047,-0.353 -0.112,-0.713 -0.13,-1.078 0.006,-0.371 0.018,-0.742 0.029,-1.119 0.006,-0.188 0.006,-0.383 0.024,-0.571 l 0.1,-0.554 c 0.077,-0.365 0.147,-0.736 0.224,-1.107 0.1,-0.365 0.224,-0.718 0.342,-1.078 0.218,-0.73 0.536,-1.384 0.824,-2.073 0.289,-0.654 0.624,-1.307 0.895,-1.943 l 0.43,-0.954 c 0.118,-0.318 0.236,-0.636 0.347,-0.948 0.289,-0.624 0.365,-1.278 0.565,-1.914 0.124,-0.642 0.177,-1.29 0.289,-1.937 0,0 0.165,0.577 0.371,1.773 0.024,0.294 0.012,0.63 0.012,1.001 -0.006,0.371 0.012,0.795 -0.077,1.225 -0.077,0.436 -0.141,0.919 -0.259,1.407 -0.135,0.483 -0.283,1.007 -0.459,1.543 -0.689,2.138 -1.831,4.54 -1.884,7.397 0.006,1.431 0.371,2.992 0.936,4.646 0.565,1.654 1.366,3.391 2.073,5.27 z"
   id="path14575" />

	<path
   style="fill:#ff6e00"
   d="m 176.711,367.596 c 0,0 0.194,-1.272 0.518,-3.404 0.336,-2.126 0.748,-5.106 1.537,-8.51 0.371,-1.702 0.925,-3.498 1.608,-5.312 0.73,-1.802 1.667,-3.604 2.833,-5.253 2.391,-3.292 5.718,-5.765 8.945,-7.179 0,0 -0.618,0.589 -1.82,1.602 -1.119,1.101 -2.856,2.621 -4.576,4.959 -1.708,2.332 -3.392,5.424 -4.699,9.375 -1.378,3.923 -2.521,8.664 -4.346,13.722 z"
   id="path14577" />

	<path
   style="fill:#ff6e00"
   d="m 141.818,326.674 c 0,0 -0.259,0.524 -0.713,1.343 -0.412,0.848 -0.925,2.043 -1.402,3.439 -0.247,0.695 -0.436,1.46 -0.677,2.226 -0.094,0.389 -0.194,0.783 -0.289,1.184 l -0.165,0.595 -0.112,0.612 c -0.082,0.4 -0.171,0.807 -0.271,1.213 -0.059,0.406 -0.118,0.807 -0.194,1.213 l -0.124,0.607 c -0.018,0.2 -0.041,0.4 -0.065,0.595 -0.047,0.4 -0.106,0.795 -0.183,1.195 0,0 -0.188,-0.324 -0.436,-1.019 -0.13,-0.347 -0.294,-0.783 -0.353,-1.307 -0.059,-0.524 -0.194,-1.154 -0.153,-1.843 0.041,-0.683 0.029,-1.478 0.241,-2.291 0.088,-0.412 0.194,-0.842 0.312,-1.284 0.135,-0.43 0.324,-0.872 0.506,-1.331 0.792,-1.779 2.059,-3.752 4.078,-5.147 z"
   id="path14579" />

</g>
  </g>
  <g
     transform="matrix(0.26458333,0,0,0.26458333,71.999739,33.965621)"
     id="g14597">
</g>
  <g
     transform="matrix(0.26458333,0,0,0.26458333,71.999739,33.965621)"
     id="g14599">
</g>
  <g
     transform="matrix(0.26458333,0,0,0.26458333,71.999739,33.965621)"
     id="g14601">
</g>
  <g
     transform="matrix(0.26458333,0,0,0.26458333,71.999739,33.965621)"
     id="g14603">
</g>
  <g
     transform="matrix(0.26458333,0,0,0.26458333,71.999739,33.965621)"
     id="g14605">
</g>
  <g
     transform="matrix(0.26458333,0,0,0.26458333,71.999739,33.965621)"
     id="g14607">
</g>
  <g
     transform="matrix(0.26458333,0,0,0.26458333,71.999739,33.965621)"
     id="g14609">
</g>
  <g
     transform="matrix(0.26458333,0,0,0.26458333,71.999739,33.965621)"
     id="g14611">
</g>
  <g
     transform="matrix(0.26458333,0,0,0.26458333,71.999739,33.965621)"
     id="g14613">
</g>
  <g
     transform="matrix(0.07103208,0,0,0.07103208,7.3944606,15.287099)"
     id="g14934">
    <g
       id="g14926">
      <path
         d="m 148.375,478.215 -10.332,-10.293 18.501,-18.432 c 0.034,0.034 0.062,0.072 0.096,0.106 l 10.465,10.426 c 2.931,2.92 6.76,4.378 10.588,4.378 3.86,0 7.72,-1.483 10.656,-4.445 5.849,-5.9 5.819,-15.435 -0.066,-21.298 L 150.831,401.344 356.757,196.72 315.834,155.95 4.432,466.729 c -5.91,5.889 -5.909,15.476 10e-4,21.364 l 19.603,19.53 c 5.863,5.841 15.33,5.837 21.188,-0.01 l 44.489,-45.377 37.484,37.344 c 2.931,2.92 6.759,4.378 10.588,4.378 3.86,0 7.72,-1.483 10.656,-4.444 5.849,-5.901 5.819,-15.436 -0.066,-21.299 z"
         fill="#f4da90"
         id="path14922" />
      <path
         d="m 148.375,478.215 -10.332,-10.293 18.501,-18.432 c 0.034,0.034 0.062,0.072 0.096,0.106 l 10.465,10.426 c 2.931,2.92 6.76,4.378 10.588,4.378 3.86,0 7.72,-1.483 10.656,-4.445 5.849,-5.9 5.819,-15.435 -0.066,-21.298 L 150.831,401.344 356.757,196.72 335.692,175.734 14.31,497.933 l 9.726,9.689 c 5.863,5.841 15.33,5.837 21.188,-0.01 l 44.489,-45.377 37.484,37.344 c 2.931,2.92 6.759,4.378 10.588,4.378 3.86,0 7.72,-1.483 10.656,-4.444 5.849,-5.9 5.819,-15.435 -0.066,-21.298 z"
         fill="#e7aa60"
         id="path14924" />
    </g>
    <g
       id="g14932">
      <path
         d="m 459.602,238.277 c 13.917,-13.865 21.581,-32.305 21.58,-51.926 0,-16.478 -5.424,-32.112 -15.4,-44.914 8.973,-3.566 17.384,-8.941 24.638,-16.167 C 504.336,111.404 512,92.964 512,73.344 c 0,-19.62 -7.664,-38.061 -21.58,-51.926 -28.666,-28.558 -75.307,-28.558 -103.972,0 -7.185,7.158 -12.688,15.543 -16.345,24.673 -28.818,-22.341 -70.612,-20.345 -97.086,6.03 -13.917,13.865 -21.581,32.305 -21.58,51.926 0,19.62 7.664,38.06 21.58,51.925 14.332,14.279 33.159,21.419 51.986,21.419 3.241,0 6.48,-0.238 9.698,-0.662 -0.416,3.166 -0.651,6.375 -0.651,9.623 0,19.62 7.664,38.061 21.581,51.926 14.333,14.279 33.159,21.418 51.986,21.418 18.825,-0.001 37.652,-7.14 51.985,-21.419 z M 438.434,30.091 c 11.156,0 22.315,4.232 30.808,12.693 8.198,8.169 12.714,19.022 12.714,30.56 0,11.538 -4.515,22.392 -12.714,30.56 -16.988,16.923 -44.628,16.923 -61.617,0 -8.198,-8.168 -12.714,-19.022 -12.714,-30.56 0,-11.539 4.515,-22.392 12.714,-30.56 8.495,-8.463 19.65,-12.693 30.809,-12.693 z M 294.195,134.607 c -8.199,-8.168 -12.714,-19.021 -12.714,-30.56 0,-11.539 4.515,-22.392 12.714,-30.56 8.495,-8.463 19.65,-12.694 30.808,-12.694 11.156,0 22.315,4.232 30.808,12.693 8.199,8.169 12.714,19.022 12.714,30.561 0,11.539 -4.515,22.392 -12.714,30.56 -16.988,16.924 -44.628,16.924 -61.616,0 z m 82.613,82.305 c -8.199,-8.169 -12.714,-19.022 -12.714,-30.561 0.001,-11.538 4.516,-22.392 12.714,-30.56 8.494,-8.462 19.651,-12.693 30.808,-12.693 11.157,0 22.314,4.231 30.808,12.693 8.199,8.168 12.714,19.021 12.714,30.56 0,11.539 -4.515,22.392 -12.714,30.561 -16.988,16.923 -44.628,16.923 -61.616,0 z"
         fill="#e7aa60"
         id="path14928" />
      <path
         d="m 459.602,238.277 c 13.917,-13.865 21.581,-32.305 21.58,-51.926 0,-16.478 -5.424,-32.112 -15.4,-44.914 8.973,-3.566 17.384,-8.941 24.638,-16.167 C 504.336,111.404 512,92.964 512,73.344 c 0,-19.62 -7.664,-38.061 -21.58,-51.926 -0.135,-0.135 -0.277,-0.258 -0.413,-0.391 l -21.247,21.3 c 0.159,0.154 0.324,0.299 0.482,0.456 8.198,8.169 12.714,19.022 12.714,30.56 0,11.538 -4.515,22.392 -12.714,30.56 -16.988,16.923 -44.628,16.923 -61.617,0 -0.048,-0.048 -0.092,-0.098 -0.14,-0.146 L 334.7,176.728 c -0.416,3.166 -0.651,6.375 -0.651,9.623 0,19.62 7.664,38.061 21.581,51.926 14.333,14.279 33.159,21.418 51.986,21.418 18.826,0 37.653,-7.139 51.986,-21.418 z m -82.794,-21.365 c -8.199,-8.169 -12.714,-19.022 -12.714,-30.561 0.001,-11.538 4.516,-22.392 12.714,-30.56 8.494,-8.462 19.651,-12.693 30.808,-12.693 11.157,0 22.314,4.231 30.808,12.693 8.199,8.168 12.714,19.021 12.714,30.56 0,11.539 -4.515,22.392 -12.714,30.561 -16.988,16.923 -44.628,16.923 -61.616,0 z"
         fill="#e48d3c"
         id="path14930" />
    </g>
  </g>
  <text
     transform="matrix(2.367679,0,0,2.367679,-78.398834,-7.2738853)"
     style="font-style:normal;font-variant:normal;font-weight:bold;font-stretch:normal;font-size:10.5833px;line-height:1.25;font-family:sans-serif;-inkscape-font-specification:'sans-serif Bold';white-space:pre;shape-inside:url(#rect14952);fill:#000000;fill-opacity:1;stroke:none;"
     id="text14950"
     xml:space="preserve"><tspan
       x="56.126953"
       y="21.348824"><tspan
         style="font-style:normal;font-variant:normal;font-weight:bold;font-stretch:normal;font-family:sans-serif;-inkscape-font-specification:'sans-serif Bold'">N</tspan></tspan></text>
</svg>
