<?xml version="1.0" encoding="UTF-8" standalone="no"?>
<svg
   xmlns:dc="http://purl.org/dc/elements/1.1/"
   xmlns:cc="http://creativecommons.org/ns#"
   xmlns:rdf="http://www.w3.org/1999/02/22-rdf-syntax-ns#"
   xmlns:svg="http://www.w3.org/2000/svg"
   xmlns="http://www.w3.org/2000/svg"
   width="500"
   height="250"
   viewBox="0 0 132.29166 66.145835"
   version="1.1"
   id="svg8">
  <defs
     id="defs2">
    <rect
       id="rect9439"
       height="25.14004"
       width="57.003578"
       y="26.309344"
       x="5.2618688" />
    <rect
       id="rect8476"
       height="26.60167"
       width="35.663777"
       y="22.216779"
       x="51.449384" />
    <rect
       id="rect8111"
       height="60.358072"
       width="46.715494"
       y="-7.4414062"
       x="111.20768" />
    <rect
       id="rect5692"
       height="31.419271"
       width="28.318685"
       y="19.223633"
       x="111.62109" />
    <rect
       id="rect4959"
       height="36.793619"
       width="38.447265"
       y="12.815755"
       x="87.436523" />
    <rect
       id="rect3591"
       height="32.246093"
       width="36.586914"
       y="17.569987"
       x="2.6871745" />
    <rect
       x="33.261906"
       y="1.889881"
       width="32.127975"
       height="25.607887"
       id="rect952" />
    <rect
       x="23.718006"
       y="3.0238094"
       width="21.45015"
       height="20.127232"
       id="rect946" />
    <rect
       id="rect952-5"
       height="25.607887"
       width="32.127975"
       y="1.889881"
       x="33.261906" />
    <rect
       id="rect1246"
       height="25.607887"
       width="32.127975"
       y="1.889881"
       x="33.261906" />
    <rect
       id="rect2592"
       height="20.127232"
       width="21.45015"
       y="3.0238094"
       x="23.718006" />
    <rect
       x="23.718006"
       y="3.0238094"
       width="21.45015"
       height="20.127232"
       id="rect2600" />
    <rect
       id="rect2608"
       height="20.127232"
       width="21.45015"
       y="3.0238094"
       x="23.718006" />
    <rect
       x="2.6871746"
       y="17.569986"
       width="36.586914"
       height="32.246094"
       id="rect3591-5" />
    <rect
       x="2.6871746"
       y="17.569986"
       width="36.586914"
       height="32.246094"
       id="rect4205" />
    <rect
       x="111.20768"
       y="-7.4414062"
       width="46.715494"
       height="60.358072"
       id="rect8139" />
    <rect
       x="51.449384"
       y="22.216779"
       width="35.663777"
       height="26.60167"
       id="rect8484" />
  </defs>
  <metadata
     id="metadata5">
    <rdf:RDF>
      <cc:Work
         rdf:about="">
        <dc:format>image/svg+xml</dc:format>
        <dc:type
           rdf:resource="http://purl.org/dc/dcmitype/StillImage" />
        <dc:title></dc:title>
      </cc:Work>
    </rdf:RDF>
  </metadata>
  <text
     transform="matrix(1.6838395,0,0,1.6838395,-2.2213527,-20.208753)"
     style="font-style:normal;font-variant:normal;font-weight:bold;font-stretch:normal;font-size:10.5833px;line-height:1.25;font-family:sans-serif;-inkscape-font-specification:'sans-serif Bold';white-space:pre;shape-inside:url(#rect9439);fill:#000000;fill-opacity:1;stroke:none;"
     id="text9437"
     xml:space="preserve"><tspan
       x="5.2617188"
       y="35.964059"><tspan
         style="font-style:normal;font-variant:normal;font-weight:bold;font-stretch:normal;font-family:sans-serif;-inkscape-font-specification:'sans-serif Bold'">AM</tspan></tspan></text>
  <path
     style="stroke-width:0.0584951"
     d="M 79.31596,28.442237 C 79.11991,27.835808 78.58203,27.405092 77.945668,27.34774 l -8.644016,-0.784885 -3.418076,-8.000342 c -0.252031,-0.58632 -0.826014,-0.965853 -1.463747,-0.965853 -0.637733,0 -1.211715,0.379533 -1.463747,0.967225 l -3.418076,7.99897 -8.645386,0.784885 c -0.63522,0.05873 -1.171728,0.488068 -1.368921,1.094497 -0.197193,0.606429 -0.01508,1.271582 0.465447,1.690872 l 6.533851,5.730231 -1.92668,8.487038 c -0.140983,0.624024 0.101224,1.269068 0.618996,1.643346 0.278308,0.201077 0.603916,0.303443 0.932265,0.303443 0.283107,0 0.563929,-0.07632 0.81596,-0.227125 l 7.456291,-4.456365 7.45355,4.456365 c 0.545422,0.328121 1.232966,0.298187 1.749597,-0.07632 0.518001,-0.375418 0.759978,-1.020692 0.618995,-1.643345 l -1.92668,-8.48704 6.533851,-5.729088 c 0.480528,-0.420433 0.66401,-1.084444 0.466818,-1.692015 z m 0,0"
     fill="#ffc107"
     id="path9516" />
  <g
     transform="matrix(0.07846762,0,0,0.07846762,91.323692,18.642516)"
     id="g9682">
    <g
       id="g9616"
       fill="#27a2db">
      <path
         id="path9610"
         d="M 206.234,305.659 C 92.342,305.659 0,314.289 0,324.915 c 0,10.626 92.342,19.257 206.234,19.257 113.892,0 206.234,-8.63 206.234,-19.257 -0.001,-10.626 -92.342,-19.256 -206.234,-19.256" />
      <path
         id="path9612"
         d="m 188.174,332.747 c -64.852,0 -117.184,8.63 -117.184,19.257 0,10.626 52.482,19.257 117.184,19.257 64.702,0 117.184,-8.63 117.184,-19.257 0,-10.627 -52.48,-19.257 -117.184,-19.257" />
      <path
         id="path9614"
         d="M 281.513,338.684 C 261.3,338.455 241.105,339.957 221.15,343.173 201.644,336.988 162.433,332.747 117.135,332.747 52.282,332.747 0,341.377 0,352.003 0,362.629 52.432,371.26 117.134,371.26 h 2.295 c 0,7.384 36.318,13.319 81.066,13.319 44.748,0 81.016,-5.937 81.016,-13.319 0,-2.146 -3.193,-4.191 -8.78,-5.987 h 8.78 c 44.898,0 81.066,-5.937 81.066,-13.319 0,-7.382 -36.268,-13.319 -81.066,-13.319" />
    </g>
    <path
       id="path9618"
       fill="#d5d6db"
       d="M 397.35,317.382 H 80.517 V 27.888 H 397.35 Z" />
    <path
       id="path9620"
       fill="#e1e6e9"
       d="M 374.402,317.382 H 57.57 V 27.888 h 316.832 z" />
    <path
       id="path9622"
       fill="#3a556a"
       d="m 269.839,70.141 c -4.997,5.51 -13.516,5.925 -19.026,0.928 -0.325,-0.294 -0.634,-0.604 -0.928,-0.928 h -76.278 c -5.038,5.51 -13.59,5.893 -19.099,0.855 -0.298,-0.272 -0.583,-0.557 -0.855,-0.855 H 80.668 v 247.24 H 351.255 V 70.141 Z" />
    <path
       id="path9624"
       fill="#27a2db"
       d="M 351.255,317.382 H 80.667 V 126.964 h 270.588 z" />
    <path
       id="path9626"
       fill="#d5d6db"
       d="m 174.105,70.141 h -20.803 l -41.705,86.355 v 160.886 h 41.705 V 142.379 l 1.149,-0.3 z" />
    <path
       id="path9628"
       fill="#e1e6e9"
       d="m 174.105,70.141 -41.655,86.355 v 160.886 h 41.655 z" />
    <path
       id="path9630"
       fill="#d5d6db"
       d="M 80.667,70.141 H 59.864 L 18.158,156.496 V 317.382 H 59.864 V 142.379 l 1.148,-0.3 z" />
    <path
       id="path9632"
       fill="#e1e6e9"
       d="M 80.667,70.141 39.011,156.496 V 317.382 H 80.667 Z" />
    <path
       id="path9634"
       fill="#d5d6db"
       d="m 270.189,70.141 h -20.853 l -41.656,86.355 v 160.886 h 41.656 V 142.379 l 1.147,-0.3 z" />
    <path
       id="path9636"
       fill="#e1e6e9"
       d="m 270.189,70.141 -41.706,86.355 v 160.886 h 41.706 z" />
    <path
       id="path9638"
       fill="#d5d6db"
       d="m 374.402,70.141 h -20.853 l -41.656,86.355 v 160.886 h 41.656 V 142.379 l 1.198,-0.3 z" />
    <path
       id="path9640"
       fill="#e1e6e9"
       d="m 374.402,70.141 -41.656,86.355 v 160.886 h 41.656 z" />
    <path
       id="path9642"
       fill="#27a2db"
       d="m 80.667,126.964 c 0,0 -50.486,8.131 -41.656,196.754 h 72.436 v -154.65 l -30.93,-42.303" />
    <path
       id="path9644"
       fill="#27a2db"
       d="m 175.154,126.964 c 0,0 -50.486,4.439 -41.656,193.262 h 72.735 V 169.267 l -30.93,-42.305" />
    <path
       id="path9646"
       fill="#27a2db"
       d="m 271.086,126.964 c 0,0 -51.383,9.429 -42.603,198.201 l 73.683,-7.782 V 169.269 Z" />
    <path
       id="path9648"
       fill="#29a3db"
       d="m 282.411,142.279 3.292,4.489 c 1.646,-1.297 3.392,-2.545 4.989,-3.742 -2.795,-0.402 -5.61,-0.652 -8.431,-0.749" />
    <path
       id="path9650"
       fill="#29a3db"
       d="m 263.155,174.106 v -0.897 c 1.129,-2.541 1.966,-5.201 2.495,-7.931 0.243,3.145 -0.641,6.276 -2.495,8.828 m 18.158,-31.827 c -4.74,-0.279 -9.437,1.057 -13.319,3.792 -2.141,1.727 -3.85,3.931 -4.989,6.435 l 3.093,-7.931 h -0.599 c -2.145,0 -3.792,2.345 -4.989,4.389 -14.568,31.08 -14.018,66.798 -13.22,101.072 -0.056,-6.638 1.094,-13.23 3.392,-19.456 1.496,26.307 3.01,52.598 4.539,78.871 2.955,-9.873 4.63,-20.082 4.989,-30.381 0.537,10.895 2.671,21.653 6.335,31.928 1.856,-21.919 0.018,-43.992 -5.438,-65.302 -2.307,3.475 -3.633,7.509 -3.842,11.673 -1.075,-19.8 0.029,-39.657 3.292,-59.216 -0.971,12.062 0.927,24.182 5.538,35.371 l 3.991,-3.742 c 0.104,21.684 2.444,43.301 6.984,64.504 l 6.735,-42.305 c -0.579,17.094 2.166,34.139 8.081,50.186 1.596,-29.933 2.943,-61.76 -9.977,-89.098 -3.162,3.839 -5.458,8.313 -6.735,13.12 1.447,-18.358 -1.996,-37.315 1.147,-55.275 -0.784,-5.774 0.135,-11.653 2.643,-16.911 1.718,-2.908 4.009,-5.436 6.735,-7.434 l -3.292,-4.489 h -1.097" />
    <path
       id="path9652"
       fill="#44aedf"
       d="m 276.923,181.59 c 0,2.495 -0.35,4.989 -0.499,7.434 0.391,-2.459 0.558,-4.947 0.499,-7.434" />
    <path
       id="path9654"
       fill="#44aedf"
       d="m 278.17,163.33 c -0.789,2.618 -1.405,5.284 -1.846,7.981 0,3.492 0.549,6.984 0.599,10.476 0.399,-6.086 0.799,-12.173 1.247,-18.258" />
    <path
       id="path9656"
       fill="#58b6e1"
       d="m 180.79,177.051 c 0,2.495 -0.35,4.989 -0.499,7.434 0.42,-2.456 0.587,-4.947 0.499,-7.434" />
    <path
       id="path9658"
       fill="#29a3db"
       d="m 93.738,137.738 c -1.67,-0.015 -3.338,0.101 -4.989,0.35 l 5.488,7.583 c 2.733,-2.689 5.743,-5.08 8.98,-7.134 -3.173,-0.466 -6.372,-0.733 -9.578,-0.799" />
    <path
       id="path9660"
       fill="#29a3db"
       d="m 75.578,169.567 v -0.897 c 1.167,-2.53 2.022,-5.194 2.545,-7.931 0.257,3.154 -0.647,6.293 -2.545,8.828 m 13.271,-31.479 c -3.053,0.426 -5.952,1.608 -8.431,3.442 -2.116,1.752 -3.82,3.949 -4.989,6.435 l 3.342,-7.683 h -0.599 c -2.146,0 -3.792,2.345 -4.989,4.439 -14.368,30.73 -13.819,66.5 -12.971,100.722 -0.073,-6.569 1.059,-13.096 3.342,-19.257 1.496,26.307 3.01,52.582 4.539,78.821 2.897,-9.877 4.491,-20.091 4.739,-30.381 0.455,10.957 2.541,21.785 6.185,32.127 1.866,-22.017 0.028,-44.192 -5.438,-65.601 -2.285,3.486 -3.61,7.513 -3.842,11.673 -1.059,-19.818 0.062,-39.692 3.342,-59.266 -0.941,12.07 0.99,24.191 5.638,35.371 l 3.991,-3.742 c 0.104,21.684 2.444,43.301 6.984,64.504 l 6.785,-42.205 c -0.518,16.992 2.225,33.927 8.081,49.887 1.596,-29.933 2.943,-61.76 -9.977,-89.098 -3.294,3.87 -5.695,8.418 -7.034,13.319 1.446,-18.358 -1.996,-37.265 1.197,-55.225 -0.827,-5.786 0.075,-11.688 2.595,-16.961 0.839,-1.43 1.824,-2.768 2.943,-3.991 l -5.488,-7.583" />
    <path
       id="path9662"
       fill="#44aedf"
       d="m 89.347,177.051 c 0,2.495 -0.35,4.989 -0.499,7.434 0.42,-2.456 0.587,-4.947 0.499,-7.434" />
    <path
       id="path9664"
       fill="#44aedf"
       d="m 90.596,158.841 c -0.774,2.551 -1.375,5.15 -1.796,7.782 0,3.442 0.499,6.984 0.549,10.426 0.398,-6.085 0.847,-12.171 1.247,-18.208" />
    <g
       id="g9680"
       fill="#31a6dc">
      <path
         id="path9666"
         d="m 192.265,130.854 c -1.335,0.119 -2.612,0.602 -3.692,1.397 l -6.685,4.141 v 0.399 l 0.897,-0.399 -0.649,0.35 5.288,7.184 c 1.286,-0.673 2.642,-1.207 4.041,-1.596 -0.699,1.496 -1.347,2.993 -1.946,4.489 l 3.892,5.338 c 3.275,-5.488 6.908,-10.754 10.876,-15.764 -2.61,-1.755 -6.021,-1.755 -8.63,0 0.836,-2.069 -0.166,-4.425 -2.235,-5.259 -0.37,-0.151 -0.76,-0.245 -1.157,-0.28" />
      <path
         id="path9668"
         d="m 189.52,146.619 c -2.852,7.203 -4.536,14.816 -4.989,22.549 2.56,-5.934 5.527,-11.685 8.88,-17.211 z m -29.583,88.549 c -0.116,-4.021 0.355,-8.037 1.397,-11.923 -0.449,3.941 -0.849,7.931 -1.247,11.923 m 22.051,-98.776 c -13.394,7.482 -23.173,20.086 -27.088,34.921 l 10.576,-9.977 c -5.701,6.726 -9.917,14.579 -12.372,23.048 -5.338,18.408 -2.145,38.314 -6.135,57.071 3.16,-7.184 6.235,-14.434 9.23,-21.75 -4.254,27.33 -5.025,55.088 -2.295,82.613 0.996,-16.461 3.146,-32.83 6.435,-48.99 -3.242,17.161 7.034,34.222 7.882,51.783 2.706,-30.665 1.433,-61.553 -3.792,-91.892 2.95,-6.108 6.282,-12.023 9.977,-17.71 -1.278,12.927 -0.504,25.977 2.295,38.663 4.561,23.054 7.578,46.386 9.03,69.842 v -79.82 c -0.583,-13.719 0.523,-27.458 3.292,-40.907 -4.492,1.367 -7.72,5.304 -8.181,9.977 -0.537,-4.903 -1.817,-9.698 -3.792,-14.218 -0.499,-1.197 -1.297,-2.545 -2.593,-2.743 h -0.35 c -0.912,0.093 -1.77,0.477 -2.445,1.097 -4.337,3.257 -7.771,7.567 -9.977,12.522 l 9.08,-22.449 c 3.642,-9.08 8.331,-19.157 16.662,-23.546 z m 0,-0.4 -4.989,3.043 4.989,-2.643 z" />
      <path
         id="path9670"
         d="m 283.458,319.327 -48.94,4.989 c -1.846,0.749 -3.692,1.447 -5.588,2.046 -4.852,1.464 -9.898,2.188 -14.966,2.146 -11.071,-0.377 -22.051,-2.154 -32.676,-5.288 l 4.339,1.197 c -7.284,0 -14.568,0.35 -21.85,0.35 -17.461,0 -34.921,-0.699 -52.332,-2.195 v 1.147 H 84.858 c -2.219,2.138 -2.394,5.633 -0.399,7.981 1.191,0.863 2.58,1.413 4.041,1.596 9.13,-0.399 18.707,-0.599 28.535,-0.599 12.372,0 24.345,0.35 35.519,0.897 11.225,-0.549 23.148,-0.897 35.519,-0.897 28.385,-0.27 56.746,1.749 84.808,6.037 h 8.331 c 12.123,0 23.596,0.449 33.923,1.247 -10e-4,-0.693 -0.103,-1.382 -0.3,-2.046 -0.269,-1.04 -0.884,-1.955 -1.746,-2.593 -0.903,-0.488 -1.918,-0.728 -2.943,-0.699 -3.326,-0.2 -6.651,-0.3 -9.977,-0.3 -8.359,-0.003 -16.703,0.698 -24.944,2.096 -1.046,0.078 -2.097,0.078 -3.143,0 -2.943,0 -5.887,-0.847 -6.335,-3.542 -0.449,-2.693 2.943,-4.989 5.937,-5.987 4.555,-1.101 9.234,-1.605 13.919,-1.496 h 6.585 6.585 c 6.526,0.32 13.035,-0.893 19.007,-3.542 -0.947,-2.395 -4.141,-2.793 -6.685,-2.793 h -28.237" />
      <path
         id="path9672"
         d="m 188.174,332.747 c -12.372,0 -24.295,0.35 -35.519,0.897 l 11.823,0.749 h 11.175 c 10.31,0 20.619,0.482 30.93,1.447 7.533,0.749 14.966,1.696 22.649,1.696 3.692,0.018 7.379,-0.266 11.026,-0.847 0.598,-0.048 1.198,-0.048 1.796,0 1.138,-0.01 2.198,0.577 2.793,1.546 0.539,0.655 0.96,1.397 1.247,2.195 8.331,-0.649 17.461,-1.097 27.088,-1.247 -28.062,-4.288 -56.422,-6.306 -84.808,-6.036" />
      <path
         id="path9674"
         d="m 281.513,338.684 h -8.331 c -9.628,0 -18.757,0.599 -27.088,1.247 1.389,4.828 -0.217,10.02 -4.091,13.22 -4.717,3.394 -10.353,5.273 -16.164,5.388 -5.588,0.499 -11.224,0.599 -16.812,0.599 h -9.977 c -9.901,-0.307 -19.801,0.598 -29.483,2.693 -2.046,0.222 -3.881,1.358 -4.989,3.093 -0.499,1.214 -0.499,2.577 0,3.792 2.145,4.989 8.93,6.285 14.568,6.485 8.231,0.35 16.412,0.499 24.645,0.499 17.361,0 34.672,-0.715 51.932,-2.146 2.748,-0.04 5.447,-0.723 7.882,-1.996 3.792,-2.682 5.727,-7.288 4.989,-11.873 -0.399,-3.642 -1.696,-7.832 0.749,-10.526 0.965,-0.965 2.17,-1.655 3.492,-1.996 1.62,-0.473 3.301,-0.709 4.989,-0.699 3.95,0.179 7.859,0.884 11.623,2.096 3.933,1.32 8.028,2.093 12.172,2.295 1.53,0.018 3.057,-0.167 4.539,-0.549 4.964,-1.145 8.628,-5.353 9.08,-10.426 -10.327,-0.799 -21.8,-1.247 -33.923,-1.247 m -164.38,-5.936 c -9.977,0 -19.406,0 -28.535,0.599 7.87,1.692 15.897,2.545 23.946,2.545 h 4.689 l -52.582,4.241 c -2.978,-0.006 -5.909,0.733 -8.531,2.145 -2.651,1.538 -3.774,4.784 -2.643,7.633 1.877,2.344 4.865,3.505 7.832,3.043 h 0.947 l 31.479,-0.847 100.123,-2.743 c 0.676,-10e-4 1.348,-0.103 1.996,-0.3 2.943,-1.147 2.195,-5.787 0,-7.882 -3.818,-2.636 -8.459,-3.805 -13.07,-3.292 h -0.749 -36.466 c 0.25,-1.946 2.743,-2.593 4.689,-2.743 4.989,-0.35 9.628,-0.599 14.418,-0.799 l -11.823,-0.749 c -11.175,-0.549 -23.148,-0.897 -35.519,-0.897" />
      <path
         id="path9676"
         d="m 92.839,320.974 c -2.181,-0.092 -4.348,0.389 -6.285,1.397 -0.64,0.366 -1.214,0.839 -1.696,1.397 h 26.59 v -1.147 c -4.689,-0.399 -9.379,-0.849 -14.018,-1.347 -1.546,0 -3.143,-0.3 -4.739,-0.3" />
      <path
         id="path9678"
         d="m 262.256,319.228 c -6.332,-0.239 -12.666,0.433 -18.807,1.996 -3.037,0.927 -6.018,2.027 -8.93,3.292 l 48.94,-4.989 h -17.91 -3.292" />
    </g>
  </g>
</svg>
