<?xml version="1.0" encoding="UTF-8" standalone="no"?>
<svg
   xmlns:dc="http://purl.org/dc/elements/1.1/"
   xmlns:cc="http://creativecommons.org/ns#"
   xmlns:rdf="http://www.w3.org/1999/02/22-rdf-syntax-ns#"
   xmlns:svg="http://www.w3.org/2000/svg"
   xmlns="http://www.w3.org/2000/svg"
   width="500"
   height="250"
   viewBox="0 0 132.29166 66.145835"
   version="1.1"
   id="svg8">
  <defs
     id="defs2">
    <rect
       id="rect10116"
       height="31.278887"
       width="27.917137"
       y="16.808747"
       x="101.14481" />
    <rect
       id="rect9439"
       height="25.14004"
       width="57.003578"
       y="26.309344"
       x="5.2618688" />
    <rect
       id="rect8476"
       height="26.60167"
       width="35.663777"
       y="22.216779"
       x="51.449384" />
    <rect
       id="rect8111"
       height="60.358072"
       width="46.715494"
       y="-7.4414062"
       x="111.20768" />
    <rect
       id="rect5692"
       height="31.419271"
       width="28.318685"
       y="19.223633"
       x="111.62109" />
    <rect
       id="rect4959"
       height="36.793619"
       width="38.447265"
       y="12.815755"
       x="87.436523" />
    <rect
       id="rect3591"
       height="32.246093"
       width="36.586914"
       y="17.569987"
       x="2.6871745" />
    <rect
       x="33.261906"
       y="1.889881"
       width="32.127975"
       height="25.607887"
       id="rect952" />
    <rect
       x="23.718006"
       y="3.0238094"
       width="21.45015"
       height="20.127232"
       id="rect946" />
    <rect
       id="rect952-5"
       height="25.607887"
       width="32.127975"
       y="1.889881"
       x="33.261906" />
    <rect
       id="rect1246"
       height="25.607887"
       width="32.127975"
       y="1.889881"
       x="33.261906" />
    <rect
       id="rect2592"
       height="20.127232"
       width="21.45015"
       y="3.0238094"
       x="23.718006" />
    <rect
       x="23.718006"
       y="3.0238094"
       width="21.45015"
       height="20.127232"
       id="rect2600" />
    <rect
       id="rect2608"
       height="20.127232"
       width="21.45015"
       y="3.0238094"
       x="23.718006" />
    <rect
       x="2.6871746"
       y="17.569986"
       width="36.586914"
       height="32.246094"
       id="rect3591-5" />
    <rect
       x="2.6871746"
       y="17.569986"
       width="36.586914"
       height="32.246094"
       id="rect4205" />
    <rect
       x="111.20768"
       y="-7.4414062"
       width="46.715494"
       height="60.358072"
       id="rect8139" />
    <rect
       x="51.449384"
       y="22.216779"
       width="35.663777"
       height="26.60167"
       id="rect8484" />
  </defs>
  <metadata
     id="metadata5">
    <rdf:RDF>
      <cc:Work
         rdf:about="">
        <dc:format>image/svg+xml</dc:format>
        <dc:type
           rdf:resource="http://purl.org/dc/dcmitype/StillImage" />
        <dc:title></dc:title>
      </cc:Work>
    </rdf:RDF>
  </metadata>
  <g
     transform="matrix(0.08165923,0,0,0.08165923,11.214324,12.154252)"
     id="g10372">
    <path
       style="fill:#333e40"
       d="m 10.287,296.922 c -4.184,0.803 -4.184,6.792 0,7.594 l 61.58,19.324 v -46.252 z"
       id="path10260" />
    <ellipse
       transform="matrix(-0.2905,0.9569,-0.9569,-0.2905,441.0732,-112.9538)"
       style="fill:#d9d9d9"
       cx="262.41299"
       cy="107.047"
       rx="63.019001"
       ry="58.333"
       id="ellipse10262" />
    <ellipse
       transform="matrix(-0.2905,-0.9569,0.9569,-0.2905,74.9755,304.0946)"
       style="fill:#f0f0f0"
       cx="150.228"
       cy="124.251"
       rx="71.998001"
       ry="66.644997"
       id="ellipse10264" />
    <path
       style="fill:#ffce1c"
       d="m 200.556,338.209 v -90.316 l 39.623,-77.497 -8.589,-31.292 c -28.833,5.395 -55.464,14.858 -78.691,27.486 l -40.922,28.655 -23.297,73.042 v 69.34 l 28.551,65.844 35.666,31.38 c 23.227,12.628 49.858,22.091 78.691,27.486 l 14.416,-34.393 z"
       id="path10266" />
    <path
       style="fill:#faa330"
       d="m 243.365,434.24 c -3.962,-0.579 -7.892,-1.218 -11.777,-1.947 -28.833,-5.395 -55.464,-14.858 -78.691,-27.486 -20.34,-11.065 -38.066,-24.57 -52.396,-39.918 l 16.73,38.58 35.666,31.38 c 1.452,0.789 2.916,1.566 4.394,2.33 4.434,2.293 8.985,4.472 13.645,6.533 12.548,5.548 26.011,10.242 39.458,13.827 6.914,1.844 13.985,3.446 21.193,4.795 z"
       id="path10268" />
    <g
       id="g10274">
	<path
   style="fill:#3b484a"
   d="m 111.047,300.715 c 0,49.989 15.501,96.281 41.852,134.135 -55.866,-30.389 -92.081,-79.152 -92.081,-134.135 0,-54.972 36.216,-103.745 92.081,-134.125 -26.351,37.854 -41.852,84.146 -41.852,134.125 z"
   id="path10270" />

	<path
   style="fill:#3b484a"
   d="m 481.303,377.929 c -24.231,36.899 -65.771,65.67 -118.101,79.856 -23.187,6.289 -48.492,9.715 -75.345,9.715 -19.419,0 -38.275,-1.789 -56.268,-5.163 -39.772,-41.752 -64.284,-98.763 -64.284,-161.62 0,-62.848 24.512,-119.86 64.284,-161.61 17.992,-3.376 36.849,-5.163 56.268,-5.163 61.2,0 114.344,17.781 152.72,46.704 11.312,8.529 21.348,18.012 29.917,28.3 z"
   id="path10272" />

</g>
    <path
       style="fill:#333e40"
       d="m 363.202,427.742 c -23.187,6.289 -48.492,9.715 -75.345,9.715 -19.419,0 -38.275,-1.789 -56.268,-5.163 -9.83,-1.84 -19.397,-4.163 -28.668,-6.912 8.328,13.303 17.936,25.688 28.668,36.954 2.249,0.422 4.511,0.819 6.788,1.191 41.329,6.755 84.345,5.237 124.826,-5.742 42.58,-11.548 83.474,-34.455 110.835,-69.698 2.571,-3.312 4.994,-6.699 7.266,-10.158 l -1.755,-27.445 c -24.455,35.649 -65.253,63.409 -116.347,77.258 z"
       id="path10276" />
    <path
       style="fill:#ffce1c"
       d="m 504.846,300.716 c 0.213,27.376 -8.505,54.44 -23.543,77.214 -58.508,88.606 -196.812,83.161 -245.525,-16.315 -9.242,-18.867 -14.225,-39.41 -14.225,-60.899 0,-29.807 9.593,-57.794 26.833,-82.015 33.543,-47.146 101.515,-54.098 142.905,-13.672 0.653,0.643 1.306,1.286 1.949,1.949 0.653,-0.663 1.306,-1.306 1.949,-1.949 0.13,-0.13 0.261,-0.251 0.392,-0.382 21.388,-20.634 55.886,-18.525 74.913,4.3 21.476,25.76 34.089,57.956 34.352,91.769 z"
       id="path10278" />
    <path
       style="fill:#faa330"
       d="m 504.77,297.258 c -0.117,-3.621 -0.382,-7.238 -0.782,-10.838 -2.527,21.89 -10.541,43.078 -22.685,61.467 -24.231,36.899 -65.771,65.671 -118.101,79.856 -12.392,3.361 -25.395,5.895 -38.911,7.535 56.467,15.593 121.465,-3.517 157.011,-57.349 13.669,-20.702 22.078,-44.975 23.368,-69.795 0.186,-3.56 0.217,-7.219 0.1,-10.876 z"
       id="path10280" />
    <path
       style="fill:#333e40"
       d="m 61.731,285.694 c -0.172,1.417 -0.316,2.84 -0.44,4.268 -0.043,0.496 -0.076,0.993 -0.113,1.49 -1.118,14.917 0.483,29.965 4.665,44.325 8.368,28.73 26.616,53.633 49.1,73.026 11.252,9.704 23.99,18.45 37.956,26.047 -9.827,-14.116 -18.143,-29.407 -24.71,-45.625 C 91.139,362.292 66.637,326.069 61.731,285.694 Z"
       id="path10282" />
    <circle
       style="fill:#ffce1c"
       cx="387.32501"
       cy="78.802002"
       r="17.687"
       id="circle10284" />
    <path
       style="fill:#faa330"
       d="m 404.275,73.817 c -1.944,6.534 -7.588,11.633 -14.786,12.522 -8.723,1.077 -16.727,-4.403 -19.118,-12.573 -0.674,2.266 -0.91,4.702 -0.603,7.198 1.197,9.695 10.025,16.584 19.72,15.389 9.695,-1.197 16.584,-10.025 15.389,-19.721 -0.12,-0.972 -0.336,-1.906 -0.602,-2.815 z"
       id="path10286" />
    <circle
       style="fill:#ffce1c"
       cx="448.871"
       cy="91.399002"
       r="17.687"
       id="circle10288" />
    <path
       style="fill:#faa330"
       d="m 465.819,86.421 c -1.944,6.534 -7.588,11.633 -14.786,12.522 -8.723,1.077 -16.727,-4.403 -19.118,-12.573 -0.674,2.266 -0.91,4.702 -0.603,7.198 1.197,9.695 10.025,16.584 19.72,15.389 9.695,-1.197 16.584,-10.025 15.389,-19.721 -0.119,-0.971 -0.336,-1.904 -0.602,-2.815 z"
       id="path10290" />
    <path
       d="m 322.876,290.245 c -4.148,0 -7.511,3.363 -7.511,7.511 v 12.818 c 0,4.148 3.363,7.511 7.511,7.511 4.148,0 7.511,-3.363 7.511,-7.511 v -12.818 c 0,-4.149 -3.363,-7.511 -7.511,-7.511 z"
       id="path10292" />
    <path
       d="m 464.529,290.245 c -4.148,0 -7.511,3.363 -7.511,7.511 v 12.818 c 0,4.148 3.363,7.511 7.511,7.511 4.148,0 7.511,-3.363 7.511,-7.511 v -12.818 c 0,-4.149 -3.363,-7.511 -7.511,-7.511 z"
       id="path10294" />
    <path
       d="m 416.127,304.026 c -3.123,-2.73 -7.868,-2.411 -10.598,0.712 -2.87,3.284 -7.18,5.166 -11.827,5.166 -4.647,0 -8.956,-1.883 -11.826,-5.166 -2.73,-3.123 -7.475,-3.442 -10.598,-0.712 -3.123,2.73 -3.442,7.474 -0.712,10.598 5.722,6.547 14.155,10.301 23.136,10.301 8.981,0 17.413,-3.755 23.137,-10.301 2.73,-3.122 2.411,-7.868 -0.712,-10.598 z"
       id="path10296" />
    <path
       d="m 476.618,204.753 c -9.12,-11.252 -19.638,-21.392 -31.16,-30.079 -5.066,-3.818 -10.356,-7.423 -15.843,-10.814 1.318,-12.007 4.657,-30.496 13.111,-48.095 2.075,0.555 4.244,0.864 6.479,0.864 14.917,0 26.861,-13.472 25.031,-28.286 -1.556,-12.607 -12.297,-22.114 -24.986,-22.114 -14.913,0 -26.856,13.489 -25.03,28.286 0.617,5.006 2.7,9.507 5.76,13.134 -8.502,17.094 -12.555,34.937 -14.481,48.198 -14.126,-7.36 -29.344,-13.41 -45.385,-18.067 1.944,-10.102 5.295,-22.562 11.074,-34.619 2.073,0.554 4.241,0.863 6.474,0.863 7.727,0 15.133,-3.607 19.887,-9.699 4.141,-5.306 5.966,-11.908 5.142,-18.587 -1.555,-12.607 -12.296,-22.114 -24.985,-22.114 -14.918,0 -26.86,13.471 -25.031,28.286 0.618,5.01 2.704,9.514 5.769,13.143 -6.729,13.554 -10.642,27.557 -12.896,38.935 -9.945,-2.301 -20.156,-4.088 -30.577,-5.34 0.276,-0.808 0.551,-1.617 0.797,-2.431 5.441,-17.922 4.078,-36.767 -3.835,-53.064 C 313.924,56.66 300.187,44.746 283.254,39.606 252.81,30.365 220.712,46.277 205.837,73.54 191.318,56.039 170.179,45.198 147.739,45.198 c -6.854,0 -13.665,1.012 -20.243,3.009 -39.123,11.876 -60.593,55.666 -47.859,97.616 5.252,17.302 15.545,32.018 29.419,42.375 -11.193,9.831 -20.945,20.558 -28.934,31.946 -11.932,17.01 -19.982,35.541 -23.834,54.605 L 8.711,289.684 C 3.555,290.913 0,295.388 0,300.745 c 0,5.358 3.556,9.833 8.712,11.061 l 47.574,14.929 c 3.85,19.066 11.902,37.598 23.834,54.608 16.545,23.586 40.595,44.378 69.552,60.131 24.438,13.287 51.654,22.797 80.893,28.269 18.719,3.511 38.117,5.292 57.653,5.292 26.893,0 52.904,-3.357 77.311,-9.976 53.237,-14.43 96.679,-43.863 122.343,-82.879 0.02,-0.03 0.04,-0.058 0.071,-0.104 36.773,-55.708 30.127,-126.18 -11.325,-177.323 z M 441.204,85.168 c 1.672,-2.143 4.079,-3.507 6.778,-3.839 0.422,-0.052 0.848,-0.078 1.268,-0.078 5.117,0 9.45,3.84 10.078,8.933 0.687,5.57 -3.285,10.659 -8.854,11.347 -0.422,0.052 -0.849,0.078 -1.269,0.078 -5.117,0 -9.449,-3.839 -10.077,-8.933 -0.333,-2.7 0.405,-5.365 2.076,-7.508 z M 386.437,68.727 c 5.5,-0.72 10.67,3.369 11.346,8.849 0.739,5.992 -4.092,11.425 -10.122,11.425 -5.117,0 -9.449,-3.84 -10.078,-8.933 -0.683,-5.524 3.473,-10.636 8.854,-11.341 z m 88.924,305.066 c -24.78,37.185 -67.217,59.259 -111.799,59.259 -51.061,0 -98.187,-28.787 -120.679,-74.717 -21.469,-43.844 -16.169,-95.704 11.983,-135.256 30.198,-42.429 93.979,-49.612 131.519,-12.672 2.124,2.09 4.003,4.092 7.215,4.105 3.211,0.012 5.419,-2.374 7.556,-4.436 8.672,-8.367 20.591,-12.737 32.614,-12.058 12.161,0.687 23.463,6.343 31.317,15.763 20.786,24.936 32.366,55.84 32.609,87.019 0.201,25.916 -8.009,51.497 -22.335,72.993 z M 215.594,88.166 c 8.283,-21.471 28.297,-36.213 49.674,-36.213 4.609,0 9.192,0.682 13.621,2.026 12.883,3.91 23.37,13.05 29.531,25.735 6.256,12.882 7.312,27.847 2.974,42.139 -0.544,1.792 -1.178,3.571 -1.898,5.325 -0.868,-0.059 -8.937,-0.474 -12.105,-0.578 -10.443,-0.306 -20.893,-0.096 -31.316,0.624 -4.899,0.34 -14.911,1.393 -15.032,1.408 4.434,-13.24 12.546,-31.997 25.769,-44.929 2.965,-2.9 3.018,-7.656 0.118,-10.621 -2.9,-2.965 -7.656,-3.017 -10.621,-0.118 -8.024,7.848 -22.476,25.607 -31.753,58.069 -3.186,0.554 -6.365,1.153 -9.532,1.807 0.432,-6.419 0.085,-12.914 -0.962,-19.258 -1.462,-8.848 -4.33,-17.462 -8.468,-25.416 z m -94.468,90.183 C 108.248,169.861 98.703,156.928 94.008,141.46 83.68,107.435 100.659,72.049 131.856,62.58 c 27.465,-8.337 56.083,6.681 69.566,30.989 7.128,12.852 10.101,28.049 8.178,42.633 -0.011,0.089 -0.021,0.177 -0.033,0.266 -10.027,2.639 -19.914,5.824 -29.585,9.564 -5.542,-17.218 -16.087,-42.267 -34.189,-59.973 -2.965,-2.9 -7.72,-2.847 -10.621,0.118 -2.9,2.965 -2.848,7.721 0.118,10.621 16.33,15.971 25.864,39.379 30.79,55.069 -9.025,4.096 -17.809,8.691 -26.279,13.839 -3.709,2.255 -18.361,12.85 -18.675,12.643 z m -67.112,131.93 -30.383,-9.534 30.383,-9.538 c -0.078,1.072 -0.124,2.144 -0.175,3.217 -0.256,5.275 -0.209,10.585 0.175,15.855 z m 38.454,62.402 C 81.411,356.956 73.434,339.218 70.259,319.936 c -0.01,-0.079 -0.01,-0.158 -0.023,-0.237 -2.057,-12.532 -2.057,-25.384 0,-37.915 0.013,-0.081 0.013,-0.161 0.024,-0.241 4.747,-35.614 29.046,-66.929 56.549,-88.602 0.836,-0.659 3.427,-2.64 3.536,-2.722 -0.058,0.115 -1.936,3.872 -2.787,5.649 -15.551,32.45 -23.659,68.707 -23.659,104.873 0,38.155 8.921,76.196 26.281,110.194 0.059,0.115 0.112,0.232 0.171,0.346 -14.395,-10.833 -27.497,-23.828 -37.883,-38.6 z m 65.961,56.447 c -0.689,-1.005 -1.372,-2.014 -2.044,-3.03 -6.284,-9.503 -11.855,-19.483 -16.633,-29.826 -13.801,-29.871 -20.833,-62.641 -20.833,-95.531 0,-41.831 11.606,-83.494 33.518,-119.152 1.322,-2.15 5.741,-8.857 5.985,-9.214 0.173,-0.092 0.346,-0.185 0.521,-0.277 16.247,-8.627 33.506,-15.331 51.23,-20.227 0.367,-0.101 0.735,-0.198 1.102,-0.297 -3.773,4.817 -7.352,9.783 -10.747,14.874 -26.31,39.458 -40.373,86.901 -40.373,134.295 0,50.076 15.599,99.789 44.699,140.584 0.722,1.011 5.34,7.214 6.439,8.617 -18.781,-5.105 -36.485,-12.072 -52.864,-20.816 z m 203.167,21.433 c -23.125,6.272 -47.814,9.452 -73.379,9.452 -17.769,0 -35.406,-1.544 -52.466,-4.592 -16.741,-17.947 -30.539,-38.639 -40.611,-61.023 -13.965,-31.029 -20.692,-65.117 -19.901,-99.119 0.908,-39.021 12.017,-77.933 32.058,-111.444 8.097,-13.539 17.676,-26.207 28.432,-37.744 0.768,-0.137 1.536,-0.273 2.306,-0.405 24.729,-4.213 50.039,-5.284 75.036,-3.171 44.837,3.776 85.948,17.766 118.186,40.407 -13.898,0 -27.11,4.841 -37.617,13.709 -18.449,-16.508 -42.101,-25.549 -67.089,-25.549 -33.267,0 -64.641,16.182 -83.925,43.285 -18.465,25.942 -28.225,55.809 -28.225,86.371 0,22.226 5.219,44.255 14.99,64.202 24.998,51.031 77.432,83.132 134.169,83.132 1.434,0 6.584,-0.138 7.131,-0.164 -2.994,0.938 -6.025,1.821 -9.095,2.653 z"
       id="path10298" />
    <g
       id="g10300">
</g>
    <g
       id="g10302">
</g>
    <g
       id="g10304">
</g>
    <g
       id="g10306">
</g>
    <g
       id="g10308">
</g>
    <g
       id="g10310">
</g>
    <g
       id="g10312">
</g>
    <g
       id="g10314">
</g>
    <g
       id="g10316">
</g>
    <g
       id="g10318">
</g>
    <g
       id="g10320">
</g>
    <g
       id="g10322">
</g>
    <g
       id="g10324">
</g>
    <g
       id="g10326">
</g>
    <g
       id="g10328">
</g>
  </g>
  <g
     transform="matrix(0.18546798,0,0,0.18546798,74.897186,8.7464879)"
     id="g10535">
    <g
       fill="#eaa250"
       id="g10448">
      <path
         d="m 247.001,131.921 c 6.477,-3.441 6.661,-8.437 6.442,-10.426 -0.055,-0.496 -0.481,-0.864 -0.976,-0.864 h -1.071 c -0.637,0 -1.096,-0.6 -0.948,-1.224 1.493,-6.276 -3.268,-12.336 -5.598,-14.847 -0.515,-0.555 -1.427,-0.343 -1.654,0.382 -3.775,12.075 -14.044,14.422 -21.423,14.436 3.395,4.498 5.833,9.64 7.281,15.094 7.634,2.537 14.307,1.433 17.261,0.684 0.74,-0.188 0.986,-1.117 0.446,-1.661 -0.469,-0.471 -0.345,-1.263 0.24,-1.574 z"
         id="path10440" />
      <path
         d="m 169.515,251.411 c 0.037,-3.478 1.26,-10.405 9.869,-13.757 0.645,-0.251 1.202,-0.682 1.571,-1.272 2.513,-4.015 12.285,-20.475 12.285,-33.653 0,-8.23 -6.351,-12.621 -11.623,-18.222 0,0 -4.048,2.625 -10.88,5.232 3.511,3.616 6.418,7.425 6.418,12.99 0,13.156 -9.738,29.581 -12.272,33.632 -0.378,0.604 -0.948,1.044 -1.609,1.302 -8.587,3.355 -9.808,10.273 -9.845,13.748 -0.012,1.151 0.902,2.089 2.044,2.089 h 16.085 c -1.141,0 -2.055,-0.939 -2.043,-2.089 z"
         id="path10442" />
      <path
         d="m 80.324,253.5 c -0.134,0 -0.265,-0.014 -0.391,-0.04 -0.027,-0.005 -0.05,-0.017 -0.076,-0.024 -0.845,-0.21 -1.475,-0.97 -1.476,-1.887 0,0 0,-0.002 0,-0.003 0,-0.111 0.005,-0.237 0.007,-0.355 0.002,-0.132 0.002,-0.258 0.008,-0.398 0.005,-0.129 0.017,-0.27 0.025,-0.405 0.009,-0.144 0.014,-0.282 0.027,-0.432 0.01,-0.117 0.028,-0.243 0.041,-0.363 0.019,-0.18 0.035,-0.356 0.061,-0.542 0.012,-0.088 0.032,-0.181 0.046,-0.271 0.035,-0.226 0.069,-0.452 0.116,-0.686 0.04,-0.198 0.093,-0.402 0.141,-0.603 0.031,-0.13 0.055,-0.257 0.09,-0.387 0.064,-0.236 0.143,-0.475 0.221,-0.714 0.032,-0.099 0.057,-0.198 0.092,-0.298 0.239,-0.677 0.539,-1.355 0.916,-2.014 0.037,-0.066 0.085,-0.128 0.124,-0.193 0.157,-0.262 0.317,-0.524 0.5,-0.778 0.092,-0.128 0.203,-0.249 0.303,-0.374 0.146,-0.185 0.284,-0.373 0.446,-0.552 0.107,-0.118 0.235,-0.226 0.349,-0.341 0.176,-0.176 0.343,-0.356 0.536,-0.523 0.131,-0.114 0.285,-0.215 0.424,-0.324 0.2,-0.156 0.39,-0.317 0.608,-0.463 0.149,-0.1 0.321,-0.184 0.478,-0.279 0.234,-0.14 0.458,-0.287 0.712,-0.414 0.158,-0.08 0.34,-0.143 0.506,-0.217 0.279,-0.125 0.55,-0.256 0.852,-0.365 0.203,-0.073 0.433,-0.127 0.647,-0.192 0.294,-0.09 0.576,-0.189 0.891,-0.264 0.241,-0.058 0.513,-0.092 0.767,-0.14 0.317,-0.06 0.619,-0.13 0.956,-0.174 0.277,-0.036 0.53,-0.144 0.759,-0.287 0.049,-0.031 0.103,-0.051 0.149,-0.086 0.032,-0.024 0.056,-0.057 0.086,-0.083 0.219,-0.188 0.406,-0.416 0.531,-0.687 2.415,-5.192 12.451,-29.084 4.861,-52.976 0,0 -7.744,-1.745 -15.666,-7.601 l -0.064,1.158 c -0.205,3.711 0.076,7.44 0.901,11.063 5.07,22.277 -3.858,43.498 -6.117,48.355 -0.285,0.613 -0.849,1.054 -1.516,1.141 -9.752,1.269 -10.905,9.298 -10.899,13.068 0.002,1.08 0.872,1.95 1.944,1.95 h 22.839 0.001 z"
         id="path10444" />
      <path
         d="m 133.089,38.642 c -2.715,-5.081 -13.42,1.561 -28.4,-1.159 -4.246,-0.771 -7.822,-0.424 -10.789,0.45 -7.553,-2.758 -15.713,-1.828 -15.713,-1.828 0,0 -27.133,-13.764 -39.288,19.086 0,0 -18.2,20.402 -23.442,19.809 -5.242,-0.593 -11.652,-0.248 -12.711,9.258 -1.059,9.506 1.144,18.312 9.768,17.148 0,0 2.204,8.806 14.326,4.829 12.122,-3.977 12.336,13.16 12.336,13.16 l 3.852,-5.982 c 0,0 3.488,6.812 2.428,16.318 0,0 12.829,-10.314 10.047,-23.463 0,0 5.243,0.593 6.869,5.055 0,0 1.99,-8.331 -2.664,-14.205 0,0 32.964,9.076 44.541,-28.118 0.396,-1.274 0.73,-2.494 1.015,-3.672 16.927,-1.835 30.835,-21.051 27.825,-26.686 z"
         id="path10446" />
    </g>
    <path
       d="m 92.437,63.075 c 17.866,8.744 36.138,-8.373 40.219,-18.785 l -0.338,-0.245 c -3.542,-1.156 -9.404,-1.571 -17.465,2.799 -8.674,4.703 -18.656,5.566 -25.053,5.535 z"
       fill="#f98080"
       id="path10450" />
    <path
       d="m 78.187,36.105 c 0,0 4.677,-0.53 10.226,0.407 12.642,-20.635 28.38,-26.115 41.837,-25.92 1.531,0.022 2.808,-1.161 2.88,-2.702 0.062,-1.324 -0.799,-2.502 -2.063,-2.872 -37.569,-11.003 -58.728,16.948 -65.534,28.228 7.155,0.071 12.654,2.859 12.654,2.859 z"
       fill="#7d3d1a"
       id="path10452" />
    <path
       d="m 230.593,144.557 c -0.482,-10.724 -4.497,-21.087 -11.897,-28.811 -21.521,-22.462 -56.554,-9.698 -86.044,-9.698 -18.301,0 -28.365,-12.905 -33.775,-24.949 -11.866,19.3 -31.519,17.456 -37.432,16.391 0.18,1.251 0.327,2.497 0.446,3.743 1.678,5.019 0.48,10.09 0.48,10.09 -0.001,-0.002 -0.002,-0.004 -0.003,-0.007 0.113,10.123 -0.486,21.255 1.117,36.321 3.217,30.247 32.171,36.728 32.171,36.728 7.589,23.892 -2.446,47.783 -4.861,52.976 -0.285,0.613 -0.849,1.054 -1.516,1.141 -9.752,1.269 -10.905,9.298 -10.899,13.068 0.002,1.08 0.871,1.95 1.944,1.95 h 22.839 c 6.434,0 4.289,-12.963 4.289,-12.963 0,0 -1.072,-3.241 4.289,-12.963 5.362,-9.722 8.579,-36.728 8.579,-36.728 33.243,11.883 61.297,-6.339 61.297,-6.339 5.272,5.601 11.623,9.992 11.623,18.222 0,13.178 -9.771,29.638 -12.285,33.653 -0.369,0.59 -0.926,1.02 -1.571,1.272 -8.609,3.352 -9.833,10.279 -9.869,13.757 -0.012,1.151 0.902,2.089 2.044,2.089 h 25.97 c 3.405,0 2.755,-7.49 2.343,-10.577 -0.118,-0.879 0.028,-1.762 0.424,-2.555 2.066,-4.139 8.823,-17.606 13.318,-25.757 3.85,-6.981 2.724,-18.419 1.783,-24.313 -0.372,-2.332 0.286,-4.731 1.835,-6.504 11.748,-13.438 13.845,-28.459 13.361,-39.237 z"
       fill="#eaa250"
       id="path10454" />
    <path
       d="m 199.874,242.94 c -0.085,-0.642 -0.028,-1.285 0.158,-1.895 -9.132,1.151 -16.069,-2.605 -19.082,-4.66 -0.38,0.592 -0.943,1.026 -1.596,1.281 -8.584,3.357 -9.803,10.274 -9.839,13.748 -0.012,1.15 0.903,2.087 2.044,2.087 h 25.97 c 3.4,-0.001 2.758,-7.464 2.345,-10.561 z"
       fill="#52565b"
       id="path10456" />
    <path
       d="m 107.529,241.076 c -7.413,0.857 -13.352,-1.503 -16.88,-3.501 -0.309,0.484 -0.795,0.831 -1.37,0.906 -9.752,1.269 -10.905,9.298 -10.899,13.068 0.002,1.08 0.872,1.95 1.944,1.95 h 22.839 c 5.644,0.001 4.686,-9.975 4.366,-12.423 z"
       fill="#52565b"
       id="path10458" />
    <path
       d="m 80.324,253.5 c -1.072,0 -1.942,-0.87 -1.944,-1.95 -0.005,-2.76 0.628,-7.793 4.785,-10.795 -3.579,-0.694 -6.514,-1.997 -8.6,-3.179 -0.076,0.12 -0.162,0.23 -0.26,0.33 -0.004,0.005 -0.009,0.009 -0.014,0.013 -0.091,0.091 -0.186,0.175 -0.293,0.247 -0.039,0.027 -0.083,0.047 -0.124,0.071 -0.08,0.046 -0.158,0.094 -0.245,0.128 -0.138,0.056 -0.283,0.097 -0.436,0.117 -0.995,0.13 -1.879,0.345 -2.703,0.604 -0.185,0.058 -0.388,0.104 -0.566,0.168 -2.838,1.025 -4.632,2.779 -5.767,4.711 -0.023,0.038 -0.051,0.075 -0.073,0.114 -0.343,0.601 -0.617,1.219 -0.844,1.836 -0.022,0.06 -0.051,0.119 -0.072,0.179 -0.334,0.946 -0.542,1.885 -0.674,2.764 -0.151,1.008 -0.202,1.938 -0.201,2.693 0.002,1.08 0.872,1.95 1.944,1.95 h 22.839 0.001 -6.753 z"
       fill="#52565b"
       id="path10460" />
    <path
       d="m 169.515,251.411 c 0.028,-2.653 0.758,-7.308 4.917,-10.857 -4.395,-1.016 -7.72,-2.91 -9.566,-4.169 -0.378,0.591 -0.939,1.024 -1.591,1.279 -0.312,0.122 -0.595,0.258 -0.888,0.39 -0.211,0.094 -0.438,0.182 -0.639,0.281 -0.302,0.148 -0.575,0.309 -0.856,0.467 -0.166,0.093 -0.347,0.18 -0.505,0.276 -0.278,0.168 -0.528,0.347 -0.785,0.523 -0.138,0.095 -0.29,0.185 -0.423,0.282 -0.24,0.177 -0.454,0.362 -0.675,0.546 -0.126,0.105 -0.266,0.206 -0.387,0.313 -0.179,0.159 -0.335,0.325 -0.501,0.488 -0.141,0.138 -0.293,0.273 -0.424,0.413 -0.128,0.137 -0.236,0.278 -0.356,0.416 -0.149,0.172 -0.306,0.342 -0.442,0.517 -0.106,0.136 -0.194,0.274 -0.293,0.411 -0.13,0.181 -0.268,0.361 -0.386,0.543 -0.102,0.158 -0.187,0.318 -0.281,0.476 -0.096,0.163 -0.201,0.326 -0.289,0.489 -0.079,0.148 -0.143,0.296 -0.215,0.444 -0.086,0.175 -0.178,0.35 -0.255,0.525 -0.05,0.114 -0.088,0.227 -0.135,0.34 -0.084,0.207 -0.172,0.414 -0.244,0.618 -0.044,0.123 -0.076,0.243 -0.116,0.366 -0.062,0.192 -0.128,0.385 -0.181,0.573 -0.055,0.198 -0.098,0.391 -0.144,0.585 -0.026,0.108 -0.057,0.219 -0.08,0.325 -0.045,0.211 -0.079,0.414 -0.113,0.618 -0.014,0.083 -0.034,0.171 -0.046,0.253 -0.027,0.172 -0.044,0.335 -0.064,0.5 -0.013,0.106 -0.031,0.217 -0.041,0.321 -0.015,0.149 -0.023,0.286 -0.033,0.428 -0.008,0.11 -0.02,0.226 -0.026,0.332 -0.006,0.11 -0.007,0.209 -0.01,0.314 -0.004,0.126 -0.011,0.257 -0.012,0.375 -0.012,1.15 0.902,2.088 2.044,2.088 h 16.085 c -1.142,0 -2.056,-0.939 -2.044,-2.089 z"
       fill="#52565b"
       id="path10462" />
    <path
       d="m 53.836,65.735 c -1.377,0 -2.495,-1.114 -2.5,-2.492 -0.008,-2.19 0.833,-4.252 2.367,-5.808 1.539,-1.561 3.591,-2.423 5.776,-2.43 h 0.027 c 2.175,0 4.221,0.849 5.764,2.393 1.544,1.545 2.397,3.603 2.404,5.792 0.004,1.381 -1.111,2.503 -2.492,2.508 -0.003,0 -0.005,0 -0.008,0 -1.377,0 -2.496,-1.114 -2.5,-2.492 -0.003,-0.861 -0.337,-1.669 -0.942,-2.274 -0.597,-0.598 -1.388,-0.927 -2.227,-0.927 -0.003,0 -0.007,0 -0.011,0 -0.844,0.002 -1.636,0.337 -2.232,0.941 -0.601,0.609 -0.93,1.419 -0.927,2.28 0.005,1.38 -1.11,2.503 -2.491,2.508 -0.002,0.001 -0.005,0.001 -0.008,0.001 z"
       id="path10464" />
    <path
       d="m 181.617,187.007 c -0.665,0 -1.328,-0.264 -1.82,-0.787 -4.517,-4.798 -8.911,-11.127 -7.257,-21.687 0.214,-1.364 1.501,-2.295 2.856,-2.083 1.364,0.213 2.297,1.493 2.083,2.857 -1.244,7.938 1.482,12.731 5.958,17.485 0.946,1.005 0.898,2.588 -0.106,3.534 -0.483,0.456 -1.099,0.681 -1.714,0.681 z"
       id="path10466" />
    <path
       d="m 95.653,186.865 c -1.151,0 -2.188,-0.801 -2.44,-1.973 L 90.531,172.47 c -0.292,-1.35 0.566,-2.68 1.916,-2.971 1.355,-0.291 2.679,0.568 2.971,1.917 l 2.682,12.422 c 0.292,1.35 -0.566,2.68 -1.916,2.971 -0.178,0.038 -0.356,0.056 -0.531,0.056 z"
       id="path10468" />
    <path
       d="m 238.879,138.558 c -3.116,0 -6.745,-0.428 -10.615,-1.714 -0.8,-0.266 -1.412,-0.917 -1.628,-1.731 -1.396,-5.262 -3.704,-10.049 -6.859,-14.229 -0.571,-0.756 -0.665,-1.77 -0.244,-2.619 0.422,-0.849 1.287,-1.386 2.234,-1.388 10.01,-0.019 16.416,-4.286 19.042,-12.682 0.37,-1.185 1.35,-2.091 2.557,-2.364 1.206,-0.271 2.475,0.121 3.315,1.027 2.263,2.438 7.122,8.537 6.491,15.344 1.453,0.297 2.588,1.496 2.756,3.018 0.202,1.838 0.283,7.898 -6.475,12.167 0.136,0.567 0.13,1.168 -0.03,1.748 -0.333,1.202 -1.289,2.138 -2.496,2.444 -1.823,0.463 -4.627,0.979 -8.048,0.979 z m 6.101,-3.306 0.005,0.005 c -0.002,-0.002 -0.004,-0.004 -0.005,-0.005 z m 3.196,-1.124 c -10e-4,0 -0.002,0 -0.002,0.001 0,-0.001 0.001,-0.001 0.002,-0.001 z m -17.086,-1.646 c 5.338,1.5 10.076,1.119 12.897,0.617 -0.023,-0.273 -0.016,-0.55 0.026,-0.825 0.165,-1.088 0.844,-2.045 1.814,-2.561 3.911,-2.079 4.973,-4.695 5.144,-6.607 -0.903,-0.109 -1.725,-0.566 -2.298,-1.292 -0.668,-0.844 -0.909,-1.931 -0.66,-2.981 0.94,-3.953 -1.368,-8.015 -3.36,-10.626 -3.238,7.575 -9.614,12.207 -18.367,13.377 2.044,3.364 3.652,7.012 4.804,10.898 z m 15.911,-0.561 h 0.01 z"
       id="path10470" />
    <path
       d="m 171.56,256 h -16.086 c -1.219,0 -2.363,-0.478 -3.222,-1.345 -0.865,-0.874 -1.335,-2.035 -1.322,-3.27 0.036,-3.497 1.224,-12.061 11.435,-16.051 0.128,-0.05 0.301,-0.142 0.399,-0.299 1.985,-3.174 11.891,-19.65 11.891,-32.306 0,-4.47 -2.185,-7.618 -5.711,-11.248 -0.585,-0.604 -0.829,-1.46 -0.647,-2.282 0.182,-0.821 0.765,-1.496 1.55,-1.795 6.51,-2.485 10.373,-4.97 10.411,-4.995 1.016,-0.658 2.353,-0.495 3.181,0.384 0.937,0.995 1.937,1.978 2.903,2.929 4.621,4.543 9.399,9.242 9.399,17.006 0,13.684 -9.694,30.233 -12.666,34.979 -0.645,1.03 -1.607,1.817 -2.782,2.275 -6.535,2.544 -8.13,7.338 -8.269,11.06 1.159,0.218 2.036,1.235 2.036,2.457 0,1.382 -1.12,2.501 -2.5,2.501 z m -15.619,-5 h 11.082 c 0.123,-3.709 1.577,-11.831 11.454,-15.676 0.114,-0.044 0.271,-0.127 0.358,-0.269 1.988,-3.176 11.904,-19.657 11.904,-32.327 0,-5.669 -3.663,-9.271 -7.904,-13.441 -0.542,-0.532 -1.093,-1.074 -1.644,-1.628 -1.363,0.762 -3.473,1.862 -6.216,3.052 2.635,3.216 4.678,6.997 4.678,12.018 0,13.669 -9.684,30.213 -12.652,34.958 -0.651,1.042 -1.626,1.839 -2.817,2.305 -6.784,2.651 -8.108,7.859 -8.243,11.008 z"
       id="path10472" />
    <path
       d="M 87.077,256 H 64.238 c -2.446,0 -4.439,-1.994 -4.444,-4.446 -0.014,-8.558 4.749,-14.333 12.759,-15.507 2.08,-4.542 10.685,-25.202 5.836,-46.506 -0.858,-3.771 -1.181,-7.726 -0.959,-11.755 l 0.064,-1.16 c 0.051,-0.917 0.602,-1.733 1.433,-2.124 0.831,-0.391 1.81,-0.294 2.55,0.252 7.363,5.444 14.66,7.157 14.733,7.173 0.862,0.197 1.561,0.837 1.829,1.681 7.92,24.933 -2.757,50.012 -4.978,54.787 -0.254,0.546 -0.618,1.034 -1.082,1.452 -0.09,0.089 -0.183,0.172 -0.282,0.248 -0.139,0.105 -0.274,0.189 -0.414,0.264 -0.535,0.323 -1.105,0.526 -1.691,0.603 -0.176,0.023 -0.342,0.058 -0.508,0.092 l -0.654,0.121 c -0.104,0.017 -0.207,0.032 -0.303,0.055 -0.17,0.041 -0.325,0.092 -0.48,0.142 l -0.567,0.17 c -0.076,0.021 -0.153,0.04 -0.224,0.065 -0.171,0.062 -0.328,0.136 -0.486,0.208 l -0.192,0.087 c -0.092,0.042 -0.191,0.083 -0.291,0.123 l -0.123,0.051 c -0.113,0.057 -0.226,0.129 -0.34,0.199 l -0.581,0.338 c -0.093,0.062 -0.181,0.136 -0.27,0.207 l -0.514,0.392 c -0.089,0.077 -0.169,0.163 -0.252,0.247 l -0.426,0.416 c -0.062,0.069 -0.13,0.16 -0.199,0.25 l -0.363,0.45 c -0.139,0.191 -0.259,0.393 -0.379,0.595 -0.043,0.071 -0.085,0.136 -0.129,0.2 -0.25,0.439 -0.496,0.98 -0.699,1.557 l -0.071,0.237 c -0.084,0.254 -0.141,0.422 -0.186,0.589 l -0.119,0.508 c -0.026,0.107 -0.053,0.213 -0.073,0.318 -0.041,0.202 -0.068,0.389 -0.097,0.576 l -0.029,0.175 c -0.029,0.186 -0.039,0.293 -0.05,0.401 L 80.89,251 h 6.188 c 1.381,0 2.5,1.119 2.5,2.5 0,1.381 -1.12,2.5 -2.501,2.5 z m -22.275,-5 h 11.087 l 0.041,-0.877 c 0.007,-0.124 0.015,-0.247 0.025,-0.377 0.009,-0.107 0.022,-0.222 0.036,-0.336 l 0.02,-0.178 c 0.018,-0.175 0.036,-0.349 0.062,-0.531 0.01,-0.072 0.026,-0.168 0.044,-0.265 0.046,-0.295 0.087,-0.56 0.142,-0.833 0.033,-0.169 0.077,-0.351 0.121,-0.532 l 0.064,-0.273 c 0.025,-0.114 0.052,-0.227 0.083,-0.342 0.067,-0.253 0.15,-0.51 0.234,-0.766 l 0.04,-0.126 c 0.029,-0.101 0.06,-0.201 0.096,-0.302 0.304,-0.859 0.675,-1.675 1.104,-2.424 0.047,-0.083 0.104,-0.173 0.164,-0.262 0.179,-0.297 0.377,-0.617 0.603,-0.931 0.088,-0.123 0.189,-0.247 0.293,-0.371 l 0.174,-0.217 c 0.146,-0.187 0.292,-0.373 0.454,-0.552 0.113,-0.125 0.232,-0.24 0.354,-0.354 l 0.197,-0.194 c 0.178,-0.181 0.357,-0.361 0.556,-0.532 0.127,-0.11 0.271,-0.22 0.419,-0.328 l 0.241,-0.186 c 0.198,-0.158 0.397,-0.313 0.616,-0.459 0.143,-0.096 0.304,-0.189 0.466,-0.279 l 0.276,-0.163 c 0.229,-0.141 0.46,-0.279 0.712,-0.405 0.153,-0.077 0.317,-0.147 0.482,-0.214 l 0.292,-0.127 c 0.277,-0.126 0.557,-0.25 0.859,-0.36 0.186,-0.067 0.384,-0.125 0.582,-0.18 l 0.389,-0.117 c 0.271,-0.086 0.543,-0.171 0.837,-0.241 0.205,-0.049 0.427,-0.088 0.648,-0.125 l 0.486,-0.09 c 0.177,-0.036 0.354,-0.07 0.537,-0.101 2.254,-4.918 11.514,-27.272 5.029,-49.634 -2.153,-0.64 -6.464,-2.144 -11.289,-5.052 0.07,2.416 0.366,4.783 0.886,7.067 5.169,22.71 -3.506,43.985 -6.288,49.964 -0.654,1.409 -1.948,2.369 -3.459,2.565 -6.92,0.901 -8.594,5.836 -8.715,10.04 z m 24.139,-14.996 c -0.001,0 -0.002,0 -0.003,0 z"
       id="path10474" />
    <path
       d="m 12.512,103.906 c -1.122,0 -2.143,-0.761 -2.425,-1.899 -0.332,-1.339 0.484,-2.694 1.823,-3.027 0.099,-0.025 9.982,-2.553 18.74,-9.594 1.078,-0.867 2.65,-0.693 3.515,0.382 0.865,1.076 0.694,2.65 -0.382,3.515 -9.649,7.757 -20.223,10.439 -20.668,10.55 -0.202,0.049 -0.404,0.073 -0.603,0.073 z"
       id="path10476" />
    <path
       d="m 102.603,67.961 c -3.974,0 -8.054,-0.914 -12.086,-3.053 -1.22,-0.647 -1.684,-2.161 -1.036,-3.38 0.646,-1.22 2.158,-1.684 3.38,-1.037 14.129,7.498 27.045,-3.778 30.668,-7.412 6.173,-6.191 8.069,-11.922 7.355,-13.259 -0.575,-1.078 -3.788,-0.626 -7.504,-0.103 -4.847,0.681 -11.484,1.615 -19.138,0.226 -4.725,-0.857 -9.034,-0.306 -12.816,1.643 -1.951,1.005 -3.521,2.598 -4.538,4.608 -0.625,1.231 -2.13,1.724 -3.36,1.101 -1.231,-0.624 -1.725,-2.128 -1.101,-3.36 1.496,-2.955 3.816,-5.304 6.71,-6.794 4.784,-2.463 10.165,-3.175 15.999,-2.117 6.864,1.247 12.788,0.413 17.547,-0.257 5.574,-0.783 10.39,-1.462 12.611,2.698 2.604,4.875 -2.438,13.341 -8.226,19.146 -6.147,6.165 -15.003,11.35 -24.465,11.35 z"
       id="path10478" />
    <path
       d="m 45.456,132.23 c -0.413,0 -0.827,-0.102 -1.204,-0.309 -0.887,-0.488 -1.393,-1.462 -1.28,-2.468 0.463,-4.157 -0.011,-7.742 -0.633,-10.354 l -1.062,1.648 c -0.597,0.928 -1.732,1.354 -2.792,1.049 -1.061,-0.305 -1.796,-1.269 -1.81,-2.372 -0.034,-2.184 -0.788,-8.336 -3.826,-10.501 -1.313,-0.937 -3.026,-1.04 -5.23,-0.315 -4.979,1.634 -9.176,1.542 -12.471,-0.277 -2.234,-1.233 -3.531,-2.976 -4.253,-4.326 -3.323,-0.04 -5.503,-1.431 -6.807,-2.705 -4.519,-4.415 -4.337,-12.748 -3.827,-17.322 0.466,-4.184 1.946,-7.297 4.398,-9.254 3.367,-2.688 7.688,-2.592 11.078,-2.211 2.389,-0.09 11.97,-8.588 20.984,-18.641 4.141,-10.936 10.373,-18.098 18.53,-21.294 10.497,-4.114 20.672,-0.228 23.382,0.975 2.18,-0.163 8.829,-0.42 15.354,1.761 3.509,-0.901 7.253,-1 11.147,-0.292 6.864,1.247 12.787,0.413 17.548,-0.257 5.571,-0.784 10.389,-1.462 12.61,2.698 1.295,2.424 0.807,5.925 -1.412,10.124 -4.551,8.614 -14.998,17.962 -26.612,19.979 -0.197,0.727 -0.409,1.454 -0.634,2.175 -6.327,20.327 -18.938,27.366 -28.402,29.691 -5.446,1.338 -10.443,1.302 -13.971,0.964 1.896,5.632 0.612,11.205 0.541,11.505 -0.257,1.073 -1.187,1.851 -2.288,1.915 -1.091,0.052 -2.114,-0.603 -2.492,-1.64 -0.341,-0.934 -0.949,-1.62 -1.62,-2.122 0.011,12.305 -10.866,21.208 -11.381,21.622 -0.453,0.368 -1.007,0.554 -1.565,0.554 z m -2.429,-21.317 c 0.041,0 0.082,0.001 0.123,0.003 0.894,0.044 1.694,0.562 2.103,1.357 0.119,0.234 2.296,4.568 2.8,11.14 3.051,-3.854 6.429,-9.895 5.004,-16.628 -0.166,-0.786 0.056,-1.604 0.596,-2.199 0.539,-0.594 1.319,-0.892 2.132,-0.803 0.153,0.018 2.236,0.273 4.423,1.499 -0.21,-2.154 -0.856,-4.591 -2.458,-6.612 -0.672,-0.848 -0.723,-2.031 -0.126,-2.933 0.597,-0.901 1.705,-1.317 2.749,-1.03 1.244,0.338 30.793,7.912 41.49,-26.451 0.363,-1.167 0.69,-2.35 0.971,-3.515 0.248,-1.026 1.112,-1.786 2.161,-1.899 10.454,-1.132 20.408,-9.908 24.467,-17.589 1.765,-3.338 1.625,-5.052 1.423,-5.432 -0.576,-1.079 -3.785,-0.626 -7.504,-0.103 -4.846,0.682 -11.484,1.616 -19.138,0.226 -3.416,-0.621 -6.657,-0.489 -9.637,0.388 -0.513,0.152 -1.062,0.134 -1.563,-0.05 -6.88,-2.513 -14.5,-1.702 -14.575,-1.692 -0.485,0.054 -0.977,-0.035 -1.411,-0.255 -0.096,-0.048 -10.136,-4.98 -20.023,-1.081 -6.861,2.707 -12.173,9.034 -15.788,18.806 -0.108,0.293 -0.271,0.563 -0.479,0.796 -6.951,7.793 -19.312,20.651 -25.178,20.652 -0.141,0 -0.277,-0.008 -0.411,-0.022 -2.428,-0.275 -5.464,-0.393 -7.397,1.15 -1.376,1.099 -2.233,3.084 -2.548,5.9 -0.686,6.151 0.194,11.083 2.353,13.192 1.101,1.077 2.6,1.469 4.597,1.202 1.255,-0.168 2.449,0.635 2.759,1.871 0.017,0.055 0.599,2.072 2.691,3.192 2.024,1.083 4.863,1.039 8.431,-0.132 4.701,-1.542 7.872,-0.306 9.702,1.003 2.593,1.853 4.049,4.856 4.866,7.658 l 0.297,-0.46 c 0.458,-0.72 1.251,-1.149 2.098,-1.149 z"
       id="path10480" />
    <path
       d="m 90.14,54.879 c -0.118,0 -0.235,0 -0.353,-10e-4 -1.381,-0.007 -2.494,-1.132 -2.487,-2.512 0.007,-1.376 1.125,-2.488 2.5,-2.488 0.096,0 0.228,10e-4 0.343,10e-4 6.406,0 15.573,-0.925 23.52,-5.233 8.869,-4.808 15.462,-4.273 19.433,-2.978 1.312,0.428 2.028,1.84 1.601,3.152 -0.429,1.312 -1.84,2.032 -3.153,1.601 -3.035,-0.991 -8.19,-1.341 -15.497,2.621 -8.866,4.805 -18.916,5.837 -25.907,5.837 z"
       id="path10482" />
    <path
       d="m 88.414,39.012 c -0.139,0 -0.278,-0.011 -0.417,-0.035 -5.144,-0.868 -9.485,-0.393 -9.529,-0.389 -0.485,0.054 -0.973,-0.032 -1.406,-0.251 -0.051,-0.025 -5.116,-2.527 -11.553,-2.59 -0.897,-0.009 -1.722,-0.498 -2.158,-1.282 -0.438,-0.783 -0.422,-1.741 0.042,-2.51 3.334,-5.527 10.627,-15.9 22.012,-23.277 13.849,-8.975 29.448,-11.014 46.365,-6.059 2.386,0.699 3.973,2.915 3.857,5.388 -0.134,2.867 -2.47,5.086 -5.333,5.086 -0.026,0 -0.053,0 -0.08,-10e-4 -16.13,-0.206 -29.474,8.084 -39.669,24.726 -0.459,0.75 -1.272,1.194 -2.131,1.194 z m -6.848,-5.557 c 1.545,0 3.478,0.079 5.596,0.347 10.947,-17.078 25.823,-25.996 43.124,-25.708 0.183,0.032 0.338,-0.135 0.347,-0.32 0.007,-0.161 -0.104,-0.308 -0.27,-0.356 -11.43,-3.35 -39.619,-7.472 -60.493,23.666 4.192,0.608 7.414,1.875 8.764,2.472 0.634,-0.047 1.65,-0.101 2.932,-0.101 z"
       id="path10484" />
    <path
       d="m 197.529,256 h -25.97 c -1.22,0 -2.364,-0.478 -3.223,-1.345 -0.865,-0.874 -1.335,-2.035 -1.322,-3.27 0.037,-3.503 1.229,-12.077 11.463,-16.061 0.114,-0.044 0.271,-0.127 0.358,-0.269 1.988,-3.176 11.904,-19.657 11.904,-32.327 0,-5.669 -3.663,-9.271 -7.904,-13.441 -0.539,-0.53 -1.088,-1.069 -1.637,-1.621 -6.606,3.734 -30.459,15.315 -58.792,6.512 -1.023,7.45 -3.982,26.453 -8.477,34.603 -4.018,7.285 -4.092,10.458 -4.061,11.06 0.055,0.116 0.013,0.074 0.049,0.288 0.263,1.587 1.401,9.708 -1.968,13.68 -1.215,1.433 -2.871,2.19 -4.789,2.19 H 80.323 c -2.445,0 -4.438,-1.994 -4.443,-4.446 -0.016,-8.558 4.747,-14.333 12.759,-15.507 2.257,-4.924 11.515,-27.282 5.024,-49.645 C 87.535,184.528 63.94,175.558 60.999,147.9 59.77,136.334 59.821,127.046 59.867,118.853 c 0.015,-2.589 0.028,-5.079 0.001,-7.51 -0.003,-0.246 0.03,-0.485 0.095,-0.712 0.146,-0.729 0.848,-4.748 -0.442,-8.607 -0.06,-0.18 -0.1,-0.366 -0.117,-0.555 -0.117,-1.222 -0.263,-2.441 -0.433,-3.625 -0.114,-0.795 0.16,-1.597 0.738,-2.154 0.579,-0.558 1.392,-0.803 2.18,-0.662 5.382,0.97 23.808,2.736 34.858,-15.239 0.485,-0.79 1.373,-1.258 2.291,-1.186 0.925,0.06 1.74,0.625 2.119,1.471 6.995,15.576 17.592,23.473 31.495,23.473 7.674,0 15.959,-0.905 23.971,-1.78 23.208,-2.533 47.204,-5.155 63.878,12.249 7.593,7.926 12.064,18.732 12.589,30.428 0.488,10.85 -1.541,26.77 -13.976,40.995 -1.054,1.206 -1.509,2.833 -1.248,4.463 1.025,6.424 2.12,18.332 -2.062,25.916 -4.479,8.122 -11.29,21.699 -13.271,25.667 -0.17,0.341 -0.233,0.724 -0.182,1.107 0.785,5.882 0.298,9.875 -1.446,11.868 -0.87,0.993 -2.068,1.54 -3.376,1.54 z m -25.504,-5 h 25.224 c 0.397,-0.784 0.733,-3.336 0.146,-7.746 -0.185,-1.378 0.046,-2.761 0.664,-4.001 1.992,-3.99 8.842,-17.644 13.366,-25.848 3.59,-6.508 2.248,-18.051 1.504,-22.712 -0.496,-3.102 0.387,-6.216 2.422,-8.543 11.343,-12.976 13.191,-27.544 12.745,-37.479 -0.471,-10.486 -4.45,-20.143 -11.206,-27.194 -14.969,-15.624 -36.708,-13.25 -59.724,-10.737 -8.146,0.889 -16.567,1.809 -24.514,1.809 -14.58,0 -26.312,-7.759 -34.139,-22.501 -10.941,14.329 -26.326,15.085 -34.192,14.35 0.011,0.107 0.021,0.214 0.032,0.322 1.534,4.854 0.766,9.617 0.518,10.868 0.023,2.363 0.01,4.783 -0.004,7.295 -0.045,8.063 -0.097,17.202 1.104,28.49 2.981,28.042 29.123,34.301 30.234,34.554 0.865,0.196 1.564,0.837 1.833,1.682 7.92,24.933 -2.757,50.012 -4.978,54.787 -0.657,1.411 -1.951,2.369 -3.46,2.566 -6.921,0.901 -8.594,5.836 -8.715,10.039 h 22.275 c 0.514,0 0.754,-0.163 0.977,-0.424 1.376,-1.623 1.33,-6.596 0.864,-9.524 -0.32,-1.357 -0.514,-5.503 4.549,-14.684 5.064,-9.184 8.255,-35.552 8.286,-35.817 0.09,-0.755 0.52,-1.429 1.166,-1.83 0.648,-0.4 1.442,-0.484 2.158,-0.229 31.708,11.333 58.822,-5.906 59.094,-6.082 1.012,-0.658 2.353,-0.497 3.182,0.383 0.937,0.995 1.937,1.978 2.903,2.929 4.621,4.543 9.399,9.242 9.399,17.006 0,13.684 -9.694,30.233 -12.666,34.979 -0.645,1.03 -1.607,1.817 -2.782,2.275 -6.508,2.535 -8.115,7.301 -8.265,11.017 z"
       id="path10486" />
    <path
       d="m 16.41,87.049 c -0.643,0 -1.285,-0.247 -1.774,-0.738 -0.907,-0.915 -1.586,-1.139 -1.838,-0.961 0.077,-0.055 0.111,-0.102 0.111,-0.102 L 9.36,81.726 c 0.237,-0.239 1.528,-1.433 3.644,-1.434 h 0.001 c 1.793,0 3.535,0.839 5.18,2.495 0.973,0.98 0.967,2.563 -0.013,3.536 -0.488,0.484 -1.125,0.726 -1.762,0.726 z"
       id="path10488" />
    <path
       d="m 197.529,256 h -25.97 c -1.22,0 -2.365,-0.478 -3.224,-1.345 -0.864,-0.874 -1.334,-2.034 -1.321,-3.267 0.036,-3.497 1.223,-12.059 11.43,-16.05 0.126,-0.05 0.3,-0.143 0.403,-0.304 0.364,-0.568 0.943,-0.964 1.604,-1.099 0.666,-0.134 1.35,0.004 1.907,0.384 2.974,2.028 9.182,5.276 17.361,4.245 0.84,-0.106 1.68,0.222 2.225,0.87 0.547,0.649 0.727,1.53 0.479,2.341 -0.084,0.276 -0.108,0.558 -0.071,0.837 0.782,5.871 0.295,9.858 -1.448,11.85 -0.869,0.992 -2.067,1.538 -3.375,1.538 z m -25.503,-5 h 25.223 c 0.383,-0.754 0.709,-3.145 0.208,-7.251 -7.084,0.205 -12.729,-2.172 -16.229,-4.232 -0.302,0.184 -0.623,0.344 -0.961,0.476 -6.781,2.652 -8.106,7.858 -8.241,11.007 z"
       id="path10490" />
    <path
       d="M 103.162,256 H 80.323 c -2.445,0 -4.438,-1.995 -4.443,-4.446 -0.016,-8.57 4.761,-14.35 12.795,-15.513 0.752,-0.971 2.116,-1.257 3.205,-0.642 3.325,1.883 8.688,3.965 15.362,3.193 1.37,-0.154 2.59,0.805 2.766,2.16 0.455,3.484 0.782,9.825 -2.132,13.145 -1.208,1.376 -2.838,2.103 -4.714,2.103 z m -22.275,-5 h 22.275 c 0.501,0 0.745,-0.161 0.957,-0.401 0.883,-1.005 1.302,-3.667 1.144,-6.854 -5.911,0.177 -10.817,-1.447 -14.325,-3.188 -0.418,0.205 -0.869,0.342 -1.337,0.403 -6.92,0.902 -8.593,5.837 -8.714,10.04 z"
       id="path10492" />
    <path
       d="M 87.077,256 H 81.864 64.238 c -2.446,0 -4.439,-1.995 -4.444,-4.446 -10e-4,-1.001 0.078,-2.062 0.229,-3.068 0.172,-1.143 0.437,-2.228 0.789,-3.225 0.022,-0.066 0.057,-0.151 0.092,-0.235 0.29,-0.787 0.624,-1.511 1.012,-2.188 0.028,-0.05 0.098,-0.161 0.13,-0.209 1.56,-2.66 3.939,-4.61 7.029,-5.726 0.166,-0.06 0.343,-0.111 0.52,-0.16 l 0.149,-0.042 c 0.966,-0.304 1.902,-0.52 2.853,-0.659 0.738,-1.017 2.086,-1.271 3.201,-0.64 1.688,0.956 4.418,2.235 7.844,2.9 0.979,0.19 1.75,0.943 1.965,1.916 0.215,0.973 -0.17,1.981 -0.978,2.565 -3.022,2.183 -3.663,5.886 -3.739,8.218 h 6.188 c 1.381,0 2.5,1.119 2.5,2.5 0,1.381 -1.12,2.499 -2.501,2.499 z m -22.273,-5 h 11.083 c 0.06,-2.37 0.555,-5.862 2.594,-8.927 -1.382,-0.479 -2.602,-1.011 -3.632,-1.52 -0.104,0.053 -0.208,0.101 -0.316,0.143 -0.312,0.125 -0.663,0.218 -1.013,0.264 -0.756,0.099 -1.501,0.265 -2.279,0.51 -0.104,0.033 -0.21,0.062 -0.316,0.092 l -0.157,0.045 c -1.984,0.717 -3.443,1.903 -4.453,3.624 -0.018,0.03 -0.054,0.087 -0.082,0.131 -0.246,0.438 -0.453,0.896 -0.646,1.418 -0.014,0.036 -0.062,0.156 -0.076,0.192 -0.233,0.663 -0.416,1.416 -0.542,2.257 -0.103,0.675 -0.148,1.286 -0.165,1.771 z m 1.466,-5.706 c -0.008,0.012 -0.015,0.024 -0.021,0.037 0.007,-0.012 0.014,-0.024 0.021,-0.037 z m 6.465,-9.285 c -0.009,0.005 -0.018,0.01 -0.026,0.015 0.013,-0.007 0.022,-0.012 0.026,-0.015 z"
       id="path10494" />
    <path
       d="m 171.56,256 h -16.086 c -1.219,0 -2.363,-0.478 -3.222,-1.345 -0.865,-0.874 -1.335,-2.035 -1.322,-3.27 l 0.026,-0.796 c 0.003,-0.08 0.012,-0.182 0.021,-0.285 0,-0.004 0.008,-0.1 0.008,-0.104 l 0.009,-0.114 c 0.008,-0.122 0.017,-0.243 0.029,-0.372 l 0.034,-0.276 c 0.001,-0.003 0.014,-0.103 0.014,-0.106 l 0.015,-0.12 c 0.019,-0.152 0.037,-0.305 0.062,-0.465 l 0.066,-0.376 c 0.035,-0.205 0.071,-0.411 0.116,-0.623 0.021,-0.095 0.046,-0.197 0.072,-0.298 l 0.048,-0.199 c 0.044,-0.188 0.088,-0.375 0.142,-0.567 0.051,-0.18 0.11,-0.365 0.172,-0.55 l 0.04,-0.122 c 0.059,-0.195 0.095,-0.311 0.137,-0.429 0.068,-0.194 0.15,-0.396 0.232,-0.598 l 0.088,-0.219 c 0.039,-0.101 0.078,-0.202 0.122,-0.304 0.073,-0.166 0.154,-0.331 0.237,-0.496 l 0.12,-0.248 c 0.063,-0.135 0.127,-0.27 0.199,-0.405 0.08,-0.148 0.167,-0.293 0.254,-0.437 l 0.159,-0.27 c 0.084,-0.147 0.169,-0.294 0.265,-0.441 0.113,-0.175 0.239,-0.35 0.368,-0.524 l 0.161,-0.226 c 0.09,-0.13 0.18,-0.259 0.281,-0.387 0.121,-0.156 0.261,-0.318 0.402,-0.478 l 0.211,-0.246 c 0.105,-0.127 0.212,-0.253 0.329,-0.377 0.111,-0.12 0.242,-0.247 0.375,-0.372 l 0.246,-0.241 c 0.149,-0.15 0.3,-0.299 0.463,-0.444 0.114,-0.101 0.229,-0.193 0.345,-0.284 l 0.233,-0.19 c 0.214,-0.179 0.429,-0.356 0.661,-0.528 0.124,-0.091 0.247,-0.172 0.371,-0.252 l 0.267,-0.181 c 0.247,-0.171 0.495,-0.34 0.764,-0.503 0.135,-0.081 0.282,-0.16 0.43,-0.238 l 0.315,-0.173 c 0.261,-0.148 0.521,-0.294 0.804,-0.433 0.167,-0.082 0.343,-0.158 0.519,-0.232 l 0.426,-0.188 c 0.252,-0.115 0.505,-0.229 0.777,-0.335 0.125,-0.049 0.294,-0.14 0.395,-0.296 0.364,-0.57 0.943,-0.968 1.605,-1.103 0.662,-0.137 1.351,0.002 1.91,0.384 1.476,1.007 4.571,2.839 8.72,3.799 0.92,0.212 1.641,0.925 1.865,1.842 0.224,0.917 -0.088,1.882 -0.806,2.495 -3.256,2.778 -3.941,6.427 -4.03,8.587 1.159,0.218 2.035,1.235 2.035,2.457 0.001,1.383 -1.119,2.502 -2.499,2.502 z m -15.617,-5 h 11.08 c 0.073,-2.276 0.62,-5.837 2.931,-9.193 -1.885,-0.707 -3.497,-1.52 -4.81,-2.291 -0.302,0.185 -0.623,0.344 -0.962,0.476 -0.181,0.07 -0.349,0.149 -0.518,0.226 l -0.558,0.246 c -0.088,0.037 -0.178,0.073 -0.26,0.114 -0.188,0.093 -0.365,0.194 -0.542,0.295 l -0.452,0.248 c -0.059,0.031 -0.118,0.061 -0.173,0.094 -0.179,0.108 -0.341,0.222 -0.503,0.334 l -0.523,0.35 c -0.14,0.104 -0.276,0.22 -0.414,0.334 l -0.469,0.38 c -0.079,0.07 -0.157,0.151 -0.237,0.231 l -0.354,0.345 c -0.054,0.051 -0.109,0.101 -0.158,0.154 -0.053,0.056 -0.093,0.106 -0.133,0.155 l -0.307,0.358 c -0.074,0.084 -0.149,0.167 -0.216,0.252 -0.04,0.051 -0.07,0.097 -0.101,0.142 l -0.253,0.354 c -0.068,0.093 -0.139,0.186 -0.2,0.28 -0.044,0.068 -0.081,0.136 -0.119,0.202 l -0.23,0.391 c -0.04,0.066 -0.081,0.132 -0.117,0.198 l -0.259,0.536 c -0.043,0.084 -0.086,0.167 -0.122,0.25 l -0.166,0.418 c -0.051,0.125 -0.103,0.249 -0.146,0.373 l -0.142,0.447 c -0.037,0.112 -0.074,0.223 -0.105,0.333 -0.033,0.12 -0.06,0.234 -0.086,0.349 l -0.078,0.321 c -0.053,0.231 -0.076,0.372 -0.1,0.512 l -0.047,0.263 c -0.025,0.145 -0.035,0.233 -0.045,0.321 z"
       id="path10496" />
  </g>
</svg>
