<?xml version="1.0" encoding="UTF-8" standalone="no"?>
<svg
   xmlns:dc="http://purl.org/dc/elements/1.1/"
   xmlns:cc="http://creativecommons.org/ns#"
   xmlns:rdf="http://www.w3.org/1999/02/22-rdf-syntax-ns#"
   xmlns:svg="http://www.w3.org/2000/svg"
   xmlns="http://www.w3.org/2000/svg"
   width="500"
   height="250"
   viewBox="0 0 132.29166 66.145835"
   version="1.1"
   id="svg8">
  <defs
     id="defs2">
    <rect
       id="rect17555"
       height="33.899739"
       width="45.47526"
       y="14.469401"
       x="64.905598" />
    <rect
       id="rect16657"
       height="39.6875"
       width="52.916666"
       y="16.536458"
       x="16.123047" />
    <rect
       id="rect14952"
       height="41.217972"
       width="28.355626"
       y="11.693042"
       x="56.1266" />
    <rect
       id="rect12397"
       height="46.715494"
       width="47.955729"
       y="8.6816405"
       x="71.933593" />
    <rect
       id="rect10750"
       height="32.448191"
       width="43.55658"
       y="16.95491"
       x="54.080318" />
    <rect
       id="rect10116"
       height="31.278887"
       width="27.917137"
       y="16.808747"
       x="101.14481" />
    <rect
       id="rect9439"
       height="25.14004"
       width="57.003578"
       y="26.309344"
       x="5.2618688" />
    <rect
       id="rect8476"
       height="26.60167"
       width="35.663777"
       y="22.216779"
       x="51.449384" />
    <rect
       id="rect8111"
       height="60.358072"
       width="46.715494"
       y="-7.4414062"
       x="111.20768" />
    <rect
       id="rect5692"
       height="31.419271"
       width="28.318685"
       y="19.223633"
       x="111.62109" />
    <rect
       id="rect4959"
       height="36.793619"
       width="38.447265"
       y="12.815755"
       x="87.436523" />
    <rect
       id="rect3591"
       height="32.246093"
       width="36.586914"
       y="17.569987"
       x="2.6871745" />
    <rect
       x="33.261906"
       y="1.889881"
       width="32.127975"
       height="25.607887"
       id="rect952" />
    <rect
       x="23.718006"
       y="3.0238094"
       width="21.45015"
       height="20.127232"
       id="rect946" />
    <rect
       id="rect952-5"
       height="25.607887"
       width="32.127975"
       y="1.889881"
       x="33.261906" />
    <rect
       id="rect1246"
       height="25.607887"
       width="32.127975"
       y="1.889881"
       x="33.261906" />
    <rect
       id="rect2592"
       height="20.127232"
       width="21.45015"
       y="3.0238094"
       x="23.718006" />
    <rect
       x="23.718006"
       y="3.0238094"
       width="21.45015"
       height="20.127232"
       id="rect2600" />
    <rect
       id="rect2608"
       height="20.127232"
       width="21.45015"
       y="3.0238094"
       x="23.718006" />
    <rect
       x="2.6871746"
       y="17.569986"
       width="36.586914"
       height="32.246094"
       id="rect3591-5" />
    <rect
       x="2.6871746"
       y="17.569986"
       width="36.586914"
       height="32.246094"
       id="rect4205" />
    <rect
       x="111.20768"
       y="-7.4414062"
       width="46.715494"
       height="60.358072"
       id="rect8139" />
    <rect
       x="51.449384"
       y="22.216779"
       width="35.663777"
       height="26.60167"
       id="rect8484" />
    <rect
       x="16.123047"
       y="16.536458"
       width="52.916666"
       height="39.6875"
       id="rect16854" />
    <rect
       x="16.123047"
       y="16.536458"
       width="52.916666"
       height="39.6875"
       id="rect16860" />
    <rect
       x="64.905598"
       y="14.469401"
       width="45.47526"
       height="33.899739"
       id="rect17563" />
    <rect
       x="64.905598"
       y="14.469401"
       width="45.47526"
       height="33.899739"
       id="rect20027" />
    <rect
       id="rect28320"
       height="33.899739"
       width="45.47526"
       y="14.469401"
       x="64.905598" />
  </defs>
  <metadata
     id="metadata5">
    <rdf:RDF>
      <cc:Work
         rdf:about="">
        <dc:format>image/svg+xml</dc:format>
        <dc:type
           rdf:resource="http://purl.org/dc/dcmitype/StillImage" />
        <dc:title></dc:title>
      </cc:Work>
    </rdf:RDF>
  </metadata>
  <g
     transform="matrix(0.26458333,0,0,0.26458333,71.999739,33.965621)"
     id="g14585">
</g>
  <g
     transform="matrix(0.26458333,0,0,0.26458333,71.999739,33.965621)"
     id="g14587">
</g>
  <g
     transform="matrix(0.26458333,0,0,0.26458333,71.999739,33.965621)"
     id="g14589">
</g>
  <g
     transform="matrix(0.26458333,0,0,0.26458333,71.999739,33.965621)"
     id="g14591">
</g>
  <g
     transform="matrix(0.26458333,0,0,0.26458333,71.999739,33.965621)"
     id="g14593">
</g>
  <g
     transform="matrix(0.26458333,0,0,0.26458333,71.999739,33.965621)"
     id="g14595">
</g>
  <g
     transform="matrix(0.26458333,0,0,0.26458333,71.999739,33.965621)"
     id="g14597">
</g>
  <g
     transform="matrix(0.26458333,0,0,0.26458333,71.999739,33.965621)"
     id="g14599">
</g>
  <g
     transform="matrix(0.26458333,0,0,0.26458333,71.999739,33.965621)"
     id="g14601">
</g>
  <g
     transform="matrix(0.26458333,0,0,0.26458333,71.999739,33.965621)"
     id="g14603">
</g>
  <g
     transform="matrix(0.26458333,0,0,0.26458333,71.999739,33.965621)"
     id="g14605">
</g>
  <g
     transform="matrix(0.26458333,0,0,0.26458333,71.999739,33.965621)"
     id="g14607">
</g>
  <g
     transform="matrix(0.26458333,0,0,0.26458333,71.999739,33.965621)"
     id="g14609">
</g>
  <g
     transform="matrix(0.26458333,0,0,0.26458333,71.999739,33.965621)"
     id="g14611">
</g>
  <g
     transform="matrix(0.26458333,0,0,0.26458333,71.999739,33.965621)"
     id="g14613">
</g>
  <text
     xml:space="preserve"
     id="text20025"
     style="font-style:normal;font-variant:normal;font-weight:bold;font-stretch:normal;font-size:10.5833px;line-height:1.25;font-family:sans-serif;-inkscape-font-specification:'sans-serif Bold';white-space:pre;shape-inside:url(#rect20027);fill:#000000;fill-opacity:1;stroke:none;"
     transform="matrix(2.2684795,0,0,2.2684795,-78.341582,-14.085616)"><tspan
       x="64.90625"
       y="24.124215"><tspan
         style="font-style:normal;font-variant:normal;font-weight:bold;font-stretch:normal;font-family:sans-serif;-inkscape-font-specification:'sans-serif Bold'">2</tspan></tspan></text>
  <g
     transform="matrix(0.09194677,0,0,0.09194677,8.1934851,10.149989)"
     id="g28314">
    <path
       style="fill:#f3705a"
       d="m 153.6,115.448 c 0,0 -28.8,13.867 -97.067,42.667 -68.267,28.8 -55.467,86.4 -55.467,86.4 v 0 c 9.6,7.467 18.133,17.067 24.533,26.667 7.467,11.733 21.333,34.133 51.2,72.533 58.667,76.8 166.4,54.4 166.4,54.4 0,0 83.2,4.267 139.733,-20.267 39.467,-17.067 76.8,-75.733 94.933,-108.8 6.4,-11.733 14.933,-22.4 24.533,-33.067 7.467,-8.533 9.6,-18.133 9.6,-18.133 -11.733,-52.267 -120.533,-89.6 -132.267,-93.867 0,0 -46.933,-22.4 -81.067,21.333 0,0 -12.8,10.667 -32,8.533 -18.133,1.067 -32,-10.667 -32,-10.667 C 201.6,97.314 153.6,115.448 153.6,115.448 Z"
       id="path28202" />
    <path
       style="fill:#f05540"
       d="m 510.933,216.781 -2.133,2.133 c -1.067,1.067 -2.133,2.133 -3.2,3.2 -1.067,1.067 -2.133,2.133 -3.2,3.2 l -1.067,1.067 -2.133,1.067 c -4.267,3.2 -9.6,6.4 -14.933,9.6 -5.333,2.133 -10.667,4.267 -17.067,6.4 -5.333,1.067 -11.733,2.133 -17.067,3.2 -6.4,0 -11.733,0 -18.133,0 -6.4,0 -11.733,-1.067 -18.133,-2.133 h -2.133 -2.134 l -2.133,-1.067 -2.133,-1.067 c -3.2,-1.067 -6.4,-1.067 -8.533,-2.133 -11.733,-3.2 -24.533,-5.333 -36.267,-7.467 -6.4,-1.067 -12.8,-2.133 -19.2,-2.133 -6.4,0 -12.8,-1.067 -19.2,0 -3.2,0 -6.4,0 -9.6,1.067 H 310.4 c -1.067,0 -2.133,0 -2.133,0 H 307.2 306.133 305.066 304 l -2.133,1.067 -3.2,2.133 c -1.067,0 -3.2,1.067 -4.267,1.067 l -4.267,1.067 -4.267,1.067 c -5.333,1.067 -11.733,2.133 -17.067,2.133 -5.333,0 -11.733,0 -17.067,0 -5.333,0 -11.733,-1.067 -17.067,-3.2 l -5.333,-1.067 c -1.067,0 -1.067,0 -2.133,-1.067 l -2.133,-1.067 c -1.067,0 -3.2,-1.067 -4.267,-1.067 l -4.267,-1.067 c -1.067,0 -1.067,0 -2.133,-1.067 l -2.133,-1.067 -4.266,-1.066 -5.333,-1.067 c -1.067,0 -3.2,-1.067 -4.267,-1.067 -6.4,-2.133 -12.8,-3.2 -19.2,-3.2 -6.4,-1.067 -12.8,-1.067 -19.2,0 -6.4,0 -12.8,1.067 -19.2,2.133 -12.8,2.133 -24.533,6.4 -36.267,11.733 -5.333,2.133 -11.733,5.333 -17.067,9.6 h -1.067 l -2.133,1.067 c 0,0 -1.067,1.067 -2.133,1.067 H 81.066 80 c -1.067,1.067 -2.133,1.067 -4.267,1.067 -1.067,0 -3.2,1.067 -4.267,1.067 -5.333,1.067 -11.733,1.067 -17.067,1.067 -6.4,0 -11.733,-1.067 -18.133,-2.133 -11.733,-2.133 -23.467,-4.267 -35.2,-8.533 v 0 0 H 0 c 0,1.067 0,2.133 0,2.133 2.133,1.067 3.2,2.133 4.267,4.267 4.267,1.067 8.533,3.2 12.8,4.267 3.2,1.067 6.4,2.133 8.533,2.133 1.067,0 3.2,1.067 4.267,1.067 1.067,0 3.2,1.067 4.267,1.067 6.4,1.067 12.8,2.133 18.133,3.2 6.4,1.067 12.8,1.067 19.2,0 2.133,0 3.2,0 5.333,-1.067 2.133,0 3.2,-1.067 5.333,-1.067 h 3.2 1.067 c 1.067,0 2.133,-1.067 2.133,-1.067 l 2.133,-1.067 2.133,-1.067 c 1.067,-1.067 2.133,-1.067 4.267,-2.133 1.067,-1.067 2.133,-1.067 4.267,-2.133 2.134,-1.066 5.333,-2.133 8.533,-3.2 5.333,-2.133 10.667,-4.267 17.067,-5.333 5.333,-1.067 11.733,-3.2 17.067,-4.267 11.733,-2.133 23.467,-2.133 35.2,-1.067 5.333,1.067 11.733,2.133 17.067,3.2 1.067,0 3.2,1.067 4.267,1.067 l 4.267,1.067 4.267,2.133 2.133,1.067 c 1.067,0 1.067,0 2.133,1.067 l 4.267,1.067 c 1.067,0 3.2,1.067 4.267,1.067 3.2,1.067 6.4,2.133 9.6,2.133 6.4,1.067 12.8,2.133 19.2,3.2 6.4,1.067 12.8,1.067 19.2,0 6.4,0 12.8,-1.067 19.2,-3.2 l 4.267,-1.067 4.267,-1.067 c 1.067,0 3.2,-1.067 4.267,-1.067 l 2.133,-1.067 2.133,-1.067 c 0,0 0,0 1.067,0 v 0 h 1.067 1.067 1.067 c 1.067,0 1.067,0 2.133,0 h 2.133 c 3.2,0 5.333,-1.067 8.533,-1.067 5.333,0 11.733,0 18.133,0 6.4,0 11.733,1.067 18.133,2.133 11.733,2.133 23.467,4.267 36.267,6.4 l 8.533,2.133 h 2.133 2.133 2.133 2.133 c 6.4,1.067 12.8,1.067 19.2,1.067 12.8,0 25.6,-2.133 37.333,-5.333 6.4,-2.133 11.733,-4.267 18.133,-7.467 5.333,-3.2 10.667,-6.4 16,-10.667 l 2.133,-1.067 2.133,-2.133 c 1.067,-1.067 2.133,-2.133 3.2,-3.2 2.133,-3.2 2.133,-6.4 2.133,-6.4 -1.065,10e-4 -1.065,-1.065 -2.132,-2.132 z"
       id="path28204" />
    <g
       id="g28234">
	<path
   style="fill:#ffffff"
   d="m 155.733,277.581 c 0,1.067 -1.067,2.133 -1.067,3.2 -5.333,13.867 -13.867,25.6 -24.533,35.2 1.067,-2.133 1.067,-4.267 2.133,-6.4 -1.067,2.133 -2.133,3.2 -3.2,5.333 1.067,-2.133 1.067,-3.2 2.133,-5.333 -1.067,1.067 -2.133,2.133 -2.133,3.2 v -6.4 c -1.067,1.067 -2.133,2.133 -2.133,3.2 1.067,-4.267 2.133,-8.533 4.267,-12.8 v 0 -1.067 c -1.067,1.067 -2.133,1.067 -3.2,2.133 0,-2.133 1.067,-3.2 1.067,-5.333 l -3.2,2.133 c 3.2,-4.267 6.4,-9.6 10.667,-13.867 0,2.133 -1.067,4.267 -1.067,6.4 1.067,-2.133 2.133,-3.2 4.267,-5.333 -1.067,2.133 -1.067,5.333 -2.133,7.467 1.067,-2.133 2.133,-4.267 4.267,-6.4 0,1.067 -1.067,2.133 -1.067,4.267 1.067,-2.133 2.133,-3.2 4.267,-5.333 L 144,286.114 c 2.133,-2.133 3.2,-4.267 5.333,-5.333 1.067,-1.067 3.2,-1.067 4.267,-2.133 0,1.067 0,1.067 0,2.133 0,-1.067 1.067,-1.067 1.067,-2.133 0,1.067 0,1.067 0,2.133 -1.067,-2.133 0,-2.133 1.066,-3.2 z"
   id="path28206" />

	<path
   style="fill:#ffffff"
   d="m 151.467,260.514 v 0 c 0,0 0,0 0,1.067 0,0 0,0 0,-1.067 z"
   id="path28208" />

	<path
   style="fill:#ffffff"
   d="m 150.4,302.114 c -1.067,1.067 -1.067,3.2 -2.133,4.267 -1.067,1.067 -2.133,2.133 -3.2,3.2 z"
   id="path28210" />

	<path
   style="fill:#ffffff"
   d="m 153.6,308.514 c 0,1.067 -1.067,3.2 -1.067,4.267 -1.067,1.067 -2.133,3.2 -3.2,4.267 2.134,-3.2 3.2,-5.334 4.267,-8.534 z"
   id="path28212" />

	<path
   style="fill:#ffffff"
   d="m 179.2,297.848 c 1.067,-1.067 1.067,-2.133 2.133,-2.133 -1.067,3.2 -2.133,6.4 -3.2,8.533 0,-1.067 1.067,-2.133 1.067,-3.2 -1.067,3.2 -3.2,7.467 -4.267,10.667 -2.133,4.267 -3.2,8.533 -5.333,12.8 v -1.067 c -2.133,3.2 -3.2,6.4 -5.333,9.6 1.067,-5.333 2.133,-10.667 3.2,-16 -1.067,3.2 -2.133,6.4 -3.2,9.6 1.067,-5.333 2.133,-10.667 3.2,-14.933 -1.067,3.2 -3.2,6.4 -4.267,9.6 1.067,-4.267 1.067,-8.533 2.133,-12.8 -1.067,3.2 -3.2,7.467 -4.267,11.733 1.067,-3.2 1.067,-6.4 2.133,-9.6 -2.133,4.267 -3.2,7.467 -5.333,11.733 1.067,-3.2 2.133,-6.4 2.133,-9.6 -3.2,4.267 -5.333,7.467 -8.533,11.733 1.067,-3.2 1.067,-6.4 2.133,-9.6 0,-1.067 1.067,-1.067 1.067,-2.133 2.133,-3.2 4.267,-7.467 5.333,-10.667 -2.133,3.2 -4.267,5.333 -6.4,8.533 1.067,-2.133 2.133,-4.267 4.267,-6.4 -2.133,2.133 -3.2,5.333 -5.333,7.467 0,-2.133 0,-3.2 1.067,-5.333 -2.133,3.2 -4.267,5.333 -6.4,8.533 1.067,-2.133 2.133,-4.267 2.133,-6.4 -1.067,2.133 -2.133,4.267 -3.2,5.333 1.067,-1.067 1.067,-3.2 2.133,-4.267 7.467,-8.533 13.867,-16 21.333,-24.533 -2.133,3.2 -4.267,7.467 -6.4,10.667 3.2,-3.2 6.4,-6.4 9.6,-9.6 -2.133,3.2 -4.267,5.333 -6.4,8.533 2.133,-1.067 3.2,-3.2 5.333,-4.267 -1.067,-1.067 -1.067,0 -2.133,1.067 2.133,-2.133 3.2,-3.2 5.333,-5.333 0,2.133 -1.067,3.2 -1.067,5.333 1.067,-2.133 3.2,-3.2 4.267,-5.333 l -2.133,6.4 c 1.067,-2.133 3.2,-5.333 4.267,-7.467 -1.067,2.133 -1.067,3.2 -2.133,5.333 1.067,-1.067 1.067,-2.133 2.133,-3.2 0.001,4.268 0.001,7.468 -1.066,10.668 z"
   id="path28214" />

	<path
   style="fill:#ffffff"
   d="m 192,306.381 c 0,-1.067 0,-2.133 1.067,-3.2 0,-1.067 1.067,-2.133 1.067,-3.2 -1.067,2.133 -1.067,4.267 -2.134,6.4 z"
   id="path28216" />

	<path
   style="fill:#ffffff"
   d="m 194.133,294.648 c 0,2.133 -1.067,5.333 -2.133,7.467 0,-2.134 1.067,-4.267 2.133,-7.467 z"
   id="path28218" />

	<path
   style="fill:#ffffff"
   d="m 203.733,303.181 c 0,-1.067 1.067,-2.133 1.067,-3.2 -1.067,3.2 -2.133,7.467 -4.267,10.667 0,-1.067 0,-2.133 0,-3.2 -2.133,4.267 -4.267,8.533 -6.4,12.8 0,-1.067 1.067,-3.2 1.067,-4.267 -1.067,2.133 -2.133,4.267 -3.2,5.333 1.067,-2.133 1.067,-4.267 2.133,-6.4 -2.133,4.267 -4.267,7.467 -6.4,11.733 0,-2.133 1.067,-5.333 1.067,-7.467 -2.133,2.133 -3.2,5.333 -5.333,7.467 1.067,-2.133 1.067,-3.2 2.133,-5.333 -2.133,3.2 -3.2,5.333 -5.333,8.533 1.067,-4.267 2.133,-8.533 3.2,-12.8 -1.067,2.133 -3.2,5.333 -4.267,7.467 1.067,-3.2 1.067,-6.4 2.133,-9.6 -1.067,2.133 -2.133,4.267 -3.2,6.4 1.067,-2.133 2.133,-4.267 3.2,-7.467 0,1.067 -1.067,1.067 -1.067,2.133 1.067,-3.2 1.067,-5.333 2.133,-8.533 -2.133,2.133 -3.2,5.333 -5.333,7.467 0,-1.067 1.067,-2.133 1.067,-2.133 0,-2.133 1.067,-4.267 1.067,-6.4 l -1.067,1.067 c 3.2,-5.333 6.4,-10.667 10.667,-17.067 -1.067,3.2 -2.133,6.4 -3.2,8.533 1.067,-1.067 1.067,-2.133 2.133,-3.2 v 2.133 c 1.067,-1.067 2.133,-3.2 2.133,-4.267 -1.067,2.133 -2.133,4.267 -3.2,7.467 1.067,-3.2 2.133,-5.333 3.2,-8.533 -1.067,4.267 -2.133,7.467 -4.267,11.733 1.067,-1.067 2.133,-3.2 3.2,-4.267 0,1.067 0,1.067 0,2.133 1.067,-3.2 2.133,-5.333 3.2,-8.533 -1.067,2.133 -1.067,4.267 -2.133,7.467 -1.067,2.133 -1.067,4.267 -2.133,5.333 3.2,-4.267 5.333,-7.467 8.533,-11.733 0,2.133 -1.067,3.2 -1.067,5.333 1.067,-2.133 3.2,-5.333 4.267,-7.467 0,1.067 0,2.133 1.067,2.133 0,-1.067 1.067,-1.067 1.067,-2.133 0,2.133 -1.067,5.333 -1.067,7.467 1.067,-2.133 1.067,-3.2 2.133,-5.333 3.201,4.267 2.134,6.401 1.067,8.534 z"
   id="path28220" />

	<path
   style="fill:#ffffff"
   d="m 236.8,312.781 c 0,3.2 -1.067,6.4 -1.067,9.6 -1.067,3.2 -2.133,6.4 -2.133,10.667 0,-1.067 0,-3.2 1.067,-4.267 0,2.133 -1.067,5.333 -1.067,7.467 0,-1.067 0,-3.2 0,-4.267 -1.067,3.2 -3.2,5.333 -4.267,8.533 0,-3.2 1.067,-6.4 1.067,-9.6 -1.067,3.2 -2.133,6.4 -4.267,9.6 0,-2.133 0,-4.267 0,-6.4 -1.067,2.133 -1.067,4.267 -2.133,6.4 0,-4.267 0,-7.467 0,-11.733 -1.067,3.2 -2.133,5.333 -3.2,8.533 0,-3.2 0,-5.333 0,-8.533 -1.067,2.133 -1.067,4.267 -2.133,6.4 0,-3.2 0,-5.333 0,-8.533 -1.067,2.133 -1.067,4.267 -2.133,6.4 0,-3.2 0,-6.4 -1.067,-9.6 -1.067,2.133 -2.133,4.267 -2.133,5.333 0,-3.2 0,-5.333 0,-8.533 0,2.133 -1.067,3.2 -1.067,5.333 0,-3.2 0,-7.467 1.067,-10.667 0,1.067 -1.067,3.2 -1.067,4.267 0,-3.2 0,-5.333 0,-7.467 0,2.133 -1.067,4.267 -1.067,6.4 0,-1.067 0,-2.133 0,-3.2 0,1.067 -1.067,2.133 -1.067,4.267 0,-2.133 0,-4.267 0,-6.4 -1.067,1.067 -1.067,3.2 -1.067,4.267 0,-1.067 0,-3.2 0,-4.267 0,1.067 -1.067,3.2 -1.067,4.267 0,-2.133 0,-4.267 0,-5.333 v -1.067 c 2.133,-4.267 4.267,-7.467 6.4,-11.733 -1.067,3.2 -2.133,6.4 -3.2,8.533 1.067,-1.067 2.133,-2.133 2.133,-4.267 v 1.067 c 0,-1.067 1.067,-2.133 1.067,-3.2 0,1.067 0,2.133 0,3.2 1.067,-1.067 2.133,-2.133 3.2,-4.267 0,1.067 -1.067,3.2 -1.067,4.267 0,2.133 -1.067,4.267 -1.067,6.4 1.067,-2.133 1.067,-3.2 2.133,-5.333 0,2.133 0,3.2 -1.067,5.333 1.067,-2.133 3.2,-4.267 4.267,-7.467 0,3.2 -1.067,6.4 -1.067,9.6 1.067,-2.133 1.067,-4.267 2.133,-6.4 0,3.2 -1.067,7.467 -1.067,10.667 1.067,-3.2 3.2,-6.4 4.267,-9.6 0,2.133 -1.067,4.267 -1.067,6.4 1.067,-2.133 2.133,-5.333 3.2,-7.467 0,2.133 0,4.267 -1.067,7.467 1.067,-2.133 2.133,-3.2 2.133,-5.333 0,3.2 -1.067,6.4 -1.067,9.6 0,2.133 -1.067,4.267 -1.067,7.467 1.067,-3.2 3.2,-5.333 4.267,-8.533 0,2.133 -1.067,5.333 -1.067,7.467 1.067,-2.133 2.133,-5.333 3.2,-7.467 0,2.133 0,3.2 0,5.333 1.067,-3.2 2.133,-6.4 4.267,-10.667 0,2.133 0,4.267 0,7.467 1.067,-3.2 2.133,-5.333 2.133,-8.533 0,2.133 0,5.333 0,7.467 -3.196,-2.135 -2.129,-4.268 -2.129,-5.335 z"
   id="path28222" />

	<path
   style="fill:#ffffff"
   d="m 235.733,321.314 c 0,-1.067 1.067,-2.133 1.067,-3.2 0,2.133 -1.067,3.2 -1.067,5.333 0,-1.066 0,-1.066 0,-2.133 z"
   id="path28224" />

	<path
   style="fill:#ffffff"
   d="m 225.067,317.048 v 0 c 0,-2.133 1.067,-4.267 1.067,-6.4 -10e-4,2.133 -1.067,4.266 -1.067,6.4 z"
   id="path28226" />

	<path
   style="fill:#ffffff"
   d="m 280.533,338.381 c 0,-2.133 0,-4.267 0,-7.467 -1.067,3.2 -1.067,6.4 -2.133,10.667 0,-2.133 0,-4.267 0,-6.4 0,2.133 0,4.267 0,6.4 0,-3.2 0,-5.333 -1.067,-8.533 0,1.067 0,3.2 0,4.267 0,-4.267 -1.067,-7.467 -1.067,-11.733 0,2.133 0,5.333 -1.067,7.467 0,-3.2 -1.067,-6.4 -1.067,-9.6 0,1.067 0,2.133 -1.067,3.2 -1.067,-3.2 -1.067,-6.4 -2.133,-9.6 v 5.333 -1.067 c 0,-2.133 0,-4.267 -1.067,-6.4 0,3.2 0,6.4 -1.067,10.667 0,-3.2 -1.067,-6.4 -1.067,-10.667 0,3.2 -1.067,6.4 -1.067,9.6 0,-2.133 0,-4.267 0,-7.467 0,2.133 0,4.267 0,6.4 0,2.133 0,4.267 1.067,6.4 l -1.067,-8.533 c 1.067,6.4 1.067,11.733 2.133,18.133 0,-3.2 0,-5.333 0,-8.533 0,4.267 1.067,9.6 1.067,13.867 0,-3.2 0,-5.333 -1.067,-8.533 -1.067,4.267 -1.067,8.533 -2.133,13.867 0,-2.133 -1.067,-5.333 -1.067,-7.467 0,2.133 0,5.333 0,7.467 -1.067,-4.267 -2.133,-9.6 -3.2,-13.867 0,3.2 -1.067,6.4 -1.067,9.6 0,-5.333 -1.067,-9.6 -1.067,-14.933 0,5.333 -1.067,10.667 -1.067,16 0,-5.333 0,-10.667 0,-17.067 0,-2.133 0,-4.267 0,-6.4 0,6.4 -1.067,11.733 -1.067,18.133 0,-4.267 0,-7.467 0,-11.733 0,6.4 0,12.8 0,18.133 0,-2.133 0,-4.267 0,-5.333 0,4.267 0,8.533 0,12.8 0,-4.267 -1.067,-8.533 -1.067,-12.8 0,3.2 -1.067,7.467 -1.067,10.667 -1.067,-5.333 -1.067,-10.667 -2.133,-16 -1.067,4.267 -2.133,7.467 -3.2,11.733 1.067,-5.333 1.067,-10.667 2.133,-16 0,-3.2 0,-6.4 0,-8.533 0,3.2 0,7.467 0,10.667 v -13.867 c 0,2.133 0,4.267 0,5.333 0,-3.2 -1.067,-5.333 -1.067,-8.533 -1.067,2.133 -1.067,5.333 -2.133,7.467 0,-3.2 0,-6.4 -1.067,-8.533 l -1.067,-5.333 c 1.067,-4.267 2.133,-9.6 3.2,-13.867 0,4.267 1.067,8.533 1.067,11.733 l 2.133,-6.4 c 0,2.133 0,3.2 0,5.333 2.133,-2.133 3.2,-4.267 2.133,-7.467 0,3.2 0,6.4 1.067,9.6 0,-3.2 1.067,-7.467 1.067,-10.667 0,2.133 0,4.267 0,7.467 0,-3.2 0,-5.333 0,-8.533 l 3.2,6.4 c 1.067,-2.133 1.067,-4.267 2.133,-6.4 1.067,3.2 1.067,5.333 2.133,8.533 0,-2.133 0,-4.267 1.067,-6.4 0,2.133 1.067,3.2 1.067,5.333 0,-2.133 0,-3.2 1.067,-5.333 1.067,1.067 1.067,3.2 2.133,4.267 0,-2.133 0,-3.2 0,-5.333 0,2.133 1.067,4.267 1.067,6.4 0,-3.2 0,-5.333 0,-8.533 1.067,3.2 2.133,7.467 3.2,10.667 0,-2.133 0,-3.2 0,-5.333 1.067,3.2 1.067,6.4 2.133,10.667 0,-2.133 0,-4.267 0,-6.4 0,4.267 1.067,7.467 1.067,11.733 0,-2.133 1.067,-3.2 1.067,-5.333 0,3.2 1.067,6.4 1.067,9.6 0,-1.067 0,-3.2 0,-4.267 0,4.267 1.067,8.533 1.067,11.733 0,-1.067 0,-3.2 0,-4.267 -1.063,4.264 -1.063,7.464 -1.063,11.731 z"
   id="path28228" />

	<path
   style="fill:#ffffff"
   d="m 375.467,312.781 c -3.2,-2.133 -6.4,-4.267 -9.6,-5.333 2.133,3.2 4.267,7.467 5.333,10.667 -2.133,-2.133 -4.267,-3.2 -5.333,-5.333 1.067,3.2 3.2,5.333 4.267,8.533 -3.2,-1.067 -6.4,-4.267 -7.467,-7.467 1.067,3.2 3.2,7.467 4.267,10.667 -2.133,-2.133 -5.333,-4.267 -7.467,-6.4 2.133,3.2 3.2,7.467 5.333,10.667 l -8.533,-5.333 c 1.067,2.133 2.133,4.267 4.267,6.4 -2.133,-1.067 -3.2,-1.067 -5.333,-2.133 1.067,2.133 3.2,3.2 4.267,5.333 -1.067,-1.067 -3.2,-2.133 -4.267,-3.2 1.067,2.133 2.133,4.267 3.2,7.467 -2.133,-2.133 -5.333,-4.267 -7.467,-5.333 1.067,2.133 2.133,3.2 3.2,5.333 -1.067,-1.067 -3.2,-3.2 -4.267,-4.267 1.067,2.133 1.067,3.2 2.133,5.333 -3.2,-2.133 -5.333,-4.267 -8.533,-6.4 1.067,2.133 2.133,5.333 3.2,7.467 -2.133,-2.133 -3.2,-3.2 -5.333,-5.333 1.067,2.133 1.067,3.2 2.133,5.333 -2.133,-2.133 -4.267,-3.2 -5.333,-5.333 1.067,3.2 3.2,6.4 4.267,9.6 -3.2,-1.067 -6.4,-4.267 -7.467,-7.467 1.067,2.133 2.133,5.333 3.2,7.467 -2.133,-3.2 -5.333,-6.4 -7.467,-8.533 1.067,1.067 1.067,3.2 2.133,4.267 -3.2,-3.2 -5.333,-6.4 -8.533,-9.6 1.067,3.2 1.067,5.333 2.133,8.533 -2.133,-3.2 -3.2,-5.333 -5.333,-8.533 1.067,3.2 2.133,6.4 3.2,8.533 -1.067,-3.2 -2.133,-6.4 -3.2,-8.533 0,2.133 0,4.267 1.067,7.467 -1.067,-3.2 -2.133,-5.333 -3.2,-8.533 0,3.2 0,5.333 0,8.533 -1.067,-3.2 -2.133,-7.467 -3.2,-10.667 0,3.2 0,6.4 0,8.533 -2.133,-2.133 -4.267,-5.333 -5.333,-8.533 0,1.067 0,1.067 0,2.133 -1.067,-3.2 -3.2,-6.4 -4.267,-10.667 0,3.2 0,6.4 0,9.6 -1.067,-4.267 -3.2,-8.533 -4.267,-12.8 1.067,4.267 2.133,8.533 2.133,12.8 v 0 c 0,1.067 1.067,3.2 1.067,4.267 1.067,3.2 2.133,5.333 3.2,8.533 0,3.2 1.067,6.4 1.067,9.6 -1.067,-3.2 -2.133,-6.4 -3.2,-9.6 0,2.133 1.067,4.267 1.067,5.333 -1.067,-3.2 -2.133,-6.4 -4.267,-9.6 0,4.267 0,8.533 1.067,12.8 -1.067,-3.2 -1.067,-5.333 -2.133,-8.533 0,2.133 0,5.333 0,7.467 0,-2.133 0,-4.267 -1.067,-6.4 0,3.2 0,5.333 -1.067,8.533 0,-2.133 -1.067,-5.333 -1.067,-7.467 0,4.267 -1.067,7.467 -1.067,11.733 0,-2.133 -1.067,-5.333 -1.067,-7.467 0,2.133 -1.067,3.2 -1.067,5.333 0,-4.267 -1.067,-9.6 -1.067,-13.867 0,2.133 0,4.267 0,6.4 0,-3.2 -1.067,-6.4 -1.067,-10.667 0,1.067 0,2.133 -1.067,4.267 -1.067,-4.267 -1.067,-9.6 -2.133,-13.867 0,3.2 0,6.4 0,9.6 0,-4.267 0,-7.467 -1.067,-11.733 0,3.2 -1.067,7.467 -1.067,10.667 -1.067,-4.267 -1.067,-9.6 -2.133,-13.867 0,1.067 0,2.133 0,3.2 0,-2.133 -1.067,-5.333 -1.067,-7.467 0,1.067 0,2.133 0,3.2 0,-1.067 0,-2.133 -1.067,-3.2 0,1.067 -1.067,2.133 -1.067,3.2 -1.067,-5.333 -1.067,-9.6 -2.133,-14.933 v 0 c -1.067,-2.133 -1.067,-5.333 -2.133,-7.467 v 0 c 2.133,2.133 4.267,5.333 5.333,7.467 v 0 c 0,0 0,0 0,1.067 1.067,2.133 2.133,3.2 3.2,5.333 0,-3.2 -1.067,-7.467 -1.067,-10.667 1.067,2.133 1.067,5.333 2.133,7.467 0,-3.2 0,-5.333 0,-8.533 1.067,4.267 3.2,8.533 4.267,11.733 0,-3.2 0,-6.4 0,-10.667 1.067,3.2 3.2,5.333 4.267,8.533 0,-3.2 0,-6.4 -1.067,-10.667 1.067,3.2 2.133,6.4 3.2,9.6 0,-3.2 -1.067,-7.467 -1.067,-10.667 2.133,3.2 4.267,6.4 6.4,9.6 0,-2.133 0,-4.267 0,-6.4 1.067,2.133 3.2,5.333 4.267,7.467 0,-2.133 0,-5.333 0,-7.467 1.067,2.133 2.133,4.267 3.2,7.467 0,-3.2 -1.067,-6.4 -1.067,-9.6 2.133,3.2 3.2,6.4 5.333,10.667 0,-3.2 0,-6.4 -1.067,-8.533 1.067,2.133 3.2,5.333 4.267,7.467 0,-3.2 -1.067,-6.4 -1.067,-10.667 2.133,4.267 4.267,7.467 6.4,11.733 -1.067,-3.2 -2.133,-6.4 -3.2,-9.6 2.133,2.133 3.2,5.333 5.333,7.467 0,-2.133 -1.067,-5.333 -1.067,-7.467 2.133,4.267 5.333,8.533 7.467,12.8 l -3.2,-14.933 c 2.133,3.2 4.267,6.4 6.4,9.6 -1.067,-3.2 -2.133,-6.4 -3.2,-9.6 2.133,4.267 5.333,8.533 7.467,12.8 -2.133,-5.333 -3.2,-9.6 -5.333,-14.933 3.2,3.2 6.4,6.4 8.533,9.6 -1.067,-3.2 -3.2,-6.4 -4.267,-10.667 2.133,3.2 5.333,7.467 7.467,10.667 -2.133,-3.2 -3.2,-7.467 -5.333,-10.667 1.067,2.133 3.2,4.267 4.267,7.467 -2.133,-3.2 -4.267,-6.4 -6.4,-9.6 1.067,2.133 3.2,4.267 4.267,6.4 -2.133,-4.267 -4.267,-8.533 -5.333,-12.8 3.2,4.267 6.4,7.467 9.6,11.733 -1.067,-2.133 -2.133,-5.333 -3.2,-7.467 4.267,5.333 8.533,10.667 13.867,16 -3.2,-5.333 -5.333,-9.6 -8.533,-14.933 4.267,5.333 8.533,10.667 12.8,14.933 -3.2,-5.333 -6.4,-9.6 -9.6,-14.933 3.2,2.133 5.333,5.333 8.533,7.467 -4.267,-4.267 -7.467,-8.533 -9.6,-13.867 1.067,2.133 2.133,3.2 3.2,5.333 -1.067,-2.133 -3.2,-5.333 -4.267,-7.467 4.267,4.267 8.533,9.6 12.8,13.867 3.2,5.333 7.467,9.6 10.667,14.933 -1.067,-1.067 -3.2,-2.133 -4.267,-3.2 2.136,2.134 3.202,4.268 5.336,6.401 -2.133,-1.067 -4.267,-3.2 -6.4,-4.267 3.2,-1.066 5.333,2.134 6.4,4.267 z"
   id="path28230" />

	<path
   style="fill:#ffffff"
   d="m 309.333,338.381 c 0,-1.067 -1.067,-2.133 -1.067,-3.2 v 0 c 0,1.067 1.067,1.067 1.067,2.133 0,0 0,1.067 0,1.067 z"
   id="path28232" />

</g>
    <g
       id="g28240">
	<path
   style="fill:#f05540"
   d="m 413.867,247.714 c 4.267,-4.267 7.467,-8.533 11.733,-12.8 -7.467,1.067 -13.867,3.2 -21.333,4.267 19.2,-7.467 39.467,-19.2 56.533,-30.933 -25.6,6.4 -48,22.4 -76.8,26.667 9.6,-4.267 19.2,-9.6 28.8,-14.933 -10.667,3.2 -22.4,5.333 -33.067,8.533 11.733,-6.4 23.467,-13.867 36.267,-20.267 -20.267,6.4 -40.533,12.8 -60.8,20.267 20.267,-10.667 40.533,-21.333 60.8,-32 -19.2,8.533 -38.4,16 -58.667,24.533 8.533,-9.6 18.133,-19.2 26.667,-28.8 -18.133,11.733 -36.267,22.4 -54.4,34.133 11.733,-11.733 23.467,-23.467 35.2,-35.2 -17.067,11.733 -33.067,23.467 -50.133,35.2 3.2,-10.667 6.4,-21.333 9.6,-32 -5.333,12.8 -12.8,23.467 -22.4,33.067 1.067,-7.467 3.2,-13.867 4.267,-21.333 -6.4,12.8 -18.133,23.467 -32,28.8 2.133,-5.333 4.267,-10.667 6.4,-17.067 -5.333,11.733 -13.867,18.133 -24.533,20.267 -10.667,1.067 -22.4,-3.2 -28.8,-12.8 -8.533,-12.8 -6.4,-29.867 -16,-41.6 3.2,14.933 7.467,29.867 10.667,45.867 -2.133,1.067 -6.4,0 -8.533,-2.133 -2.133,-2.133 -3.2,-5.333 -4.267,-7.467 -6.4,-17.067 -12.8,-33.067 -19.2,-50.133 5.333,18.133 10.667,37.333 16,55.467 -3.2,1.067 -7.467,0 -9.6,-3.2 -2.133,-3.2 -3.2,-6.4 -4.267,-9.6 -3.2,-10.667 -7.467,-22.4 -10.667,-33.067 3.2,13.867 6.4,26.667 9.6,40.533 -14.933,-8.533 -25.6,-23.467 -28.8,-40.533 2.133,14.933 9.6,29.867 19.2,41.6 -12.8,-10.667 -24.533,-22.4 -37.333,-33.067 9.6,12.8 20.267,24.533 29.867,37.333 -18.133,-13.867 -36.267,-26.667 -54.4,-40.533 9.6,9.6 18.133,19.2 27.733,29.867 -12.8,-6.4 -25.6,-12.8 -38.4,-20.267 10.667,7.467 22.4,16 33.067,23.467 -18.133,-4.267 -36.267,-11.733 -54.4,-20.267 10.667,7.467 20.267,14.933 30.933,22.4 -20.267,-6.4 -40.533,-12.8 -60.8,-19.2 10.667,4.267 20.267,8.533 30.933,12.8 C 76.8,212.514 64,211.448 52.267,209.314 c 26.667,6.4 53.333,11.733 78.933,18.133 -32,5.333 -62.933,-4.267 -93.867,-13.867 21.333,7.467 42.667,14.933 64,22.4 -27.733,-3.2 -54.4,-9.6 -81.067,-18.133 13.867,5.333 27.733,11.733 41.6,17.067 -11.733,-1.067 -24.533,-3.2 -36.267,-4.267 22.4,5.333 44.8,10.667 67.2,16 26.667,-13.867 71.467,-24.533 107.733,-10.667 40.533,16 68.267,14.933 97.067,4.267 28.8,-9.6 83.2,3.2 104.533,8.533 21.333,5.333 74.667,7.467 104.533,-28.8 v 0 c 0,-1.067 -1.067,-2.133 -1.067,-3.2 -3.2,0 -7.467,1.067 -10.667,2.133 -23.464,9.601 -52.264,19.201 -81.064,28.801 z"
   id="path28236" />

	<path
   style="fill:#f05540"
   d="m 141.867,234.914 c 38.4,-4.267 74.667,26.667 113.067,25.6 14.933,0 29.867,-5.333 44.8,-9.6 28.8,-7.467 58.667,-8.533 87.467,-5.333 -22.4,-8.533 -46.933,-9.6 -70.4,-8.533 -23.467,1.067 -48,4.267 -71.467,3.2 -32,-2.133 -64,-12.8 -96,-10.667"
   id="path28238" />

</g>
    <g
       id="g28242">
</g>
    <g
       id="g28244">
</g>
    <g
       id="g28246">
</g>
    <g
       id="g28248">
</g>
    <g
       id="g28250">
</g>
    <g
       id="g28252">
</g>
    <g
       id="g28254">
</g>
    <g
       id="g28256">
</g>
    <g
       id="g28258">
</g>
    <g
       id="g28260">
</g>
    <g
       id="g28262">
</g>
    <g
       id="g28264">
</g>
    <g
       id="g28266">
</g>
    <g
       id="g28268">
</g>
    <g
       id="g28270">
</g>
  </g>
  <text
     transform="matrix(2.2684795,0,0,2.2684795,-46.922311,-14.085616)"
     style="font-style:normal;font-variant:normal;font-weight:bold;font-stretch:normal;font-size:10.5833px;line-height:1.25;font-family:sans-serif;-inkscape-font-specification:'sans-serif Bold';white-space:pre;shape-inside:url(#rect28320);fill:#000000;fill-opacity:1;stroke:none;"
     id="text28318"
     xml:space="preserve"><tspan
       x="64.90625"
       y="24.124215"><tspan
         style="font-style:normal;font-variant:normal;font-weight:bold;font-stretch:normal;font-family:sans-serif;-inkscape-font-specification:'sans-serif Bold'">N</tspan></tspan></text>
</svg>
