<?xml version="1.0" encoding="UTF-8" standalone="no"?>
<svg
   xmlns:dc="http://purl.org/dc/elements/1.1/"
   xmlns:cc="http://creativecommons.org/ns#"
   xmlns:rdf="http://www.w3.org/1999/02/22-rdf-syntax-ns#"
   xmlns:svg="http://www.w3.org/2000/svg"
   xmlns="http://www.w3.org/2000/svg"
   width="500"
   height="250"
   viewBox="0 0 132.29166 66.145835"
   version="1.1"
   id="svg8">
  <defs
     id="defs2">
    <rect
       id="rect8476"
       height="26.60167"
       width="35.663777"
       y="22.216779"
       x="51.449384" />
    <rect
       id="rect8111"
       height="60.358072"
       width="46.715494"
       y="-7.4414062"
       x="111.20768" />
    <rect
       id="rect5692"
       height="31.419271"
       width="28.318685"
       y="19.223633"
       x="111.62109" />
    <rect
       id="rect4959"
       height="36.793619"
       width="38.447265"
       y="12.815755"
       x="87.436523" />
    <rect
       id="rect3591"
       height="32.246093"
       width="36.586914"
       y="17.569987"
       x="2.6871745" />
    <rect
       x="33.261906"
       y="1.889881"
       width="32.127975"
       height="25.607887"
       id="rect952" />
    <rect
       x="23.718006"
       y="3.0238094"
       width="21.45015"
       height="20.127232"
       id="rect946" />
    <rect
       id="rect952-5"
       height="25.607887"
       width="32.127975"
       y="1.889881"
       x="33.261906" />
    <rect
       id="rect1246"
       height="25.607887"
       width="32.127975"
       y="1.889881"
       x="33.261906" />
    <rect
       id="rect2592"
       height="20.127232"
       width="21.45015"
       y="3.0238094"
       x="23.718006" />
    <rect
       x="23.718006"
       y="3.0238094"
       width="21.45015"
       height="20.127232"
       id="rect2600" />
    <rect
       id="rect2608"
       height="20.127232"
       width="21.45015"
       y="3.0238094"
       x="23.718006" />
    <rect
       x="2.6871746"
       y="17.569986"
       width="36.586914"
       height="32.246094"
       id="rect3591-5" />
    <rect
       x="2.6871746"
       y="17.569986"
       width="36.586914"
       height="32.246094"
       id="rect4205" />
    <rect
       x="111.20768"
       y="-7.4414062"
       width="46.715494"
       height="60.358072"
       id="rect8139" />
    <rect
       x="51.449384"
       y="22.216779"
       width="35.663777"
       height="26.60167"
       id="rect8484" />
  </defs>
  <metadata
     id="metadata5">
    <rdf:RDF>
      <cc:Work
         rdf:about="">
        <dc:format>image/svg+xml</dc:format>
        <dc:type
           rdf:resource="http://purl.org/dc/dcmitype/StillImage" />
        <dc:title></dc:title>
      </cc:Work>
    </rdf:RDF>
  </metadata>
  <g
     transform="matrix(0.06418012,0,0,0.06418012,15.244062,16.709573)"
     id="g9119">
    <g
       fill="#9e9797"
       id="g9035">
      <circle
         cx="313.43301"
         cy="69.537003"
         r="69.537003"
         id="circle9031" />
      <circle
         cx="112.547"
         cy="69.537003"
         r="69.537003"
         id="circle9033" />
    </g>
    <g
       id="g9117">
      <g
         id="g9039">
        <path
           d="m 327.136,444.967 h -22.277 c -8.534,0 -15.453,-6.919 -15.453,-15.453 0,-8.534 6.919,-15.453 15.453,-15.453 h 22.277 c 26.328,0 47.747,-21.419 47.747,-47.748 v -30.96 c 0,-43.37 35.284,-78.653 78.654,-78.653 8.534,0 15.453,6.918 15.453,15.453 0,8.535 -6.918,15.453 -15.453,15.453 -26.329,0 -47.749,21.42 -47.749,47.748 v 30.96 c 10e-4,43.37 -35.283,78.653 -78.652,78.653 z"
           fill="#766e6e"
           id="path9037" />
      </g>
      <g
         fill="#766e6e"
         id="g9045">
        <path
           d="M 335.819,512 H 284.46 c -10.057,0 -18.209,-8.153 -18.209,-18.209 0,-10.057 8.153,-18.209 18.209,-18.209 h 29.364 c 16.131,0 29.207,13.076 29.207,29.207 0,3.982 -3.229,7.211 -7.212,7.211 z"
           id="path9041" />
        <path
           d="m 90.16,512 h 51.359 c 10.057,0 18.209,-8.153 18.209,-18.209 0,-10.057 -8.153,-18.209 -18.209,-18.209 h -29.364 c -16.131,0 -29.207,13.076 -29.207,29.207 0.001,3.982 3.23,7.211 7.212,7.211 z"
           id="path9043" />
      </g>
      <path
         d="M 225.714,512 H 200.266 C 131.838,512 80.71,449.461 94.699,382.871 105.868,329.702 126.493,278.942 155.602,232.978 h 114.774 c 29.11,45.964 49.734,96.725 60.903,149.893 C 345.269,449.461 294.142,512 225.714,512 Z"
         fill="#9e9797"
         id="path9047" />
      <path
         d="m 311.37,394.369 c 8.694,-9.764 13.265,-20.47 15.536,-30.279 -4.029,-15.812 -8.915,-31.376 -14.609,-46.636 -2.25,0.444 -8.204,1.929 -13.387,7.206 -5.648,5.751 -6.835,12.397 -7.133,14.602 0.543,3.078 2.717,19.026 -7.74,30.769 -4.987,5.601 -11.114,8.32 -15.374,9.615 -9.67,2.938 -15.127,13.159 -12.189,22.829 2.399,7.897 9.655,12.984 17.503,12.984 1.762,0 3.553,-0.257 5.326,-0.795 12.554,-3.815 23.642,-10.833 32.067,-20.295 z"
         fill="#766e6e"
         id="path9049" />
      <path
         d="m 114.605,394.369 c -8.694,-9.764 -13.265,-20.47 -15.536,-30.279 4.029,-15.812 8.915,-31.376 14.609,-46.636 2.25,0.444 8.204,1.929 13.387,7.206 5.648,5.751 6.835,12.397 7.133,14.602 -0.543,3.078 -2.717,19.026 7.74,30.769 4.987,5.601 11.114,8.32 15.374,9.615 9.67,2.938 15.127,13.159 12.189,22.829 -2.399,7.897 -9.655,12.984 -17.503,12.984 -1.762,0 -3.553,-0.257 -5.326,-0.795 -12.554,-3.815 -23.642,-10.833 -32.067,-20.295 z"
         fill="#766e6e"
         id="path9051" />
      <g
         id="g9065">
        <g
           fill="#766e6e"
           id="g9059">
          <path
             d="m 130.647,85.663 c -17.259,17.796 -25.696,37.482 -29.887,52.396 3.833,0.655 7.767,1.015 11.787,1.015 38.404,0 69.537,-31.133 69.537,-69.537 0,-5.237 -0.598,-10.331 -1.695,-15.237 -25.396,8.25 -42.417,23.81 -49.742,31.363 z"
             id="path9053" />
          <path
             d="m 245.7,53.823 c -1.168,5.052 -1.805,10.307 -1.805,15.714 0,38.404 31.133,69.537 69.537,69.537 4.296,0 8.494,-0.41 12.574,-1.156 C 318.974,109.697 303.162,90.89 301.229,88.652 284.034,68.744 262.971,58.792 245.7,53.823 Z"
             id="path9055" />
          <path
             d="M 270.377,232.977 H 155.603 c -3.031,4.785 -5.947,9.634 -8.792,14.52 11.916,21.132 29.53,40.088 45.348,54.58 20.963,19.205 53.043,19.592 74.399,0.825 9.062,-7.964 18.611,-17.427 27.272,-28.142 -7.073,-14.299 -14.885,-28.253 -23.453,-41.783 z"
             id="path9057" />
        </g>
        <path
           d="m 212.99,73.363 c -35.887,0.508 -59.409,21.659 -67.729,30.239 -22.785,23.495 -26.883,50.998 -27.834,59.841 0,0 -0.001,0 -0.001,10e-4 -0.003,0.057 -0.158,2.863 -0.158,5.522 0,58.346 70.578,113.196 90.527,127.535 3.144,2.26 7.345,2.37 10.599,0.272 20.227,-13.038 90.319,-62.902 90.319,-127.807 0,-2.831 -0.149,-5.381 -0.176,-5.812 C 306.523,130.92 287.514,108.311 285.57,106.061 257.417,73.466 216.658,73.311 212.99,73.363 Z"
           fill="#9e9797"
           id="path9061" />
        <path
           d="m 212.99,260.054 c -11.26,0 -20.388,9.117 -20.388,20.363 0,1.716 0.236,3.373 0.636,4.965 5.975,4.821 11.046,8.594 14.554,11.116 3.155,2.268 7.367,2.361 10.633,0.254 3.386,-2.184 8.159,-5.394 13.761,-9.526 0.759,-2.132 1.193,-4.418 1.193,-6.81 -0.001,-11.246 -9.129,-20.362 -20.389,-20.362 z"
           fill="#e1d3ce"
           id="path9063" />
      </g>
      <ellipse
         cx="212.99001"
         cy="395.79401"
         fill="#efe2dd"
         rx="53.387001"
         ry="66.453003"
         id="ellipse9067" />
      <path
         d="m 265.066,381.182 c -7.362,4.102 -11.141,12.901 -8.591,21.293 1.376,4.528 4.353,8.126 8.118,10.377 1.158,-5.445 1.783,-11.159 1.783,-17.058 0,-5.023 -0.462,-9.909 -1.31,-14.612 z"
         fill="#e1d3ce"
         id="path9069" />
      <path
         d="m 161.386,412.849 c 3.764,-2.251 6.739,-5.848 8.114,-10.374 2.549,-8.39 -1.228,-17.188 -8.587,-21.29 -0.848,4.703 -1.31,9.588 -1.31,14.609 0,5.897 0.625,11.611 1.783,17.055 z"
         fill="#e1d3ce"
         id="path9071" />
      <g
         id="g9075">
        <path
           d="m 312.368,317.46 c 1.483,8.418 4.679,37.728 -16.451,61.456 -8.425,9.462 -19.513,16.479 -32.067,20.294 -1.773,0.538 -3.565,0.795 -5.326,0.795 -7.847,0 -15.103,-5.087 -17.502,-12.984 -2.938,-9.67 2.519,-19.891 12.189,-22.829 4.26,-1.295 10.387,-4.014 15.374,-9.615 10.457,-11.743 8.282,-27.691 7.74,-30.769 z"
           fill="#9e9797"
           id="path9073" />
      </g>
      <g
         id="g9079">
        <path
           d="m 113.686,317.46 c -1.483,8.418 -4.679,37.728 16.451,61.456 8.425,9.462 19.513,16.479 32.067,20.294 1.773,0.538 3.565,0.795 5.326,0.795 7.847,0 15.103,-5.087 17.502,-12.984 2.938,-9.67 -2.519,-19.891 -12.189,-22.829 -4.26,-1.295 -10.387,-4.014 -15.374,-9.615 -10.457,-11.743 -8.282,-27.691 -7.74,-30.769 z"
           fill="#9e9797"
           id="path9077" />
      </g>
      <g
         id="g9089">
        <g
           id="g9083">
          <path
             d="m 191.436,163.127 c -0.951,0 -1.917,-0.177 -2.854,-0.549 -3.529,-1.404 -7.224,-2.105 -11.043,-2.07 -3.633,0.03 -7.186,0.726 -10.562,2.069 -3.963,1.579 -8.458,-0.356 -10.036,-4.321 -1.577,-3.964 0.357,-8.458 4.322,-10.036 5.161,-2.054 10.596,-3.119 16.15,-3.164 0.124,-0.001 0.248,-0.002 0.371,-0.002 5.677,0 11.23,1.064 16.511,3.165 3.965,1.577 5.9,6.071 4.323,10.036 -1.207,3.027 -4.111,4.872 -7.182,4.872 z"
             fill="#766e6e"
             id="path9081" />
        </g>
        <g
           id="g9087">
          <path
             d="m 261.859,163.127 c -0.952,0 -1.918,-0.177 -2.855,-0.55 -3.453,-1.374 -7.086,-2.07 -10.799,-2.07 -0.081,0 -0.163,0 -0.243,0.001 -3.632,0.03 -7.185,0.726 -10.563,2.07 -3.962,1.576 -8.457,-0.358 -10.035,-4.322 -1.577,-3.965 0.358,-8.458 4.323,-10.036 5.163,-2.054 10.596,-3.119 16.149,-3.164 5.829,-0.028 11.489,1.018 16.883,3.164 3.965,1.578 5.899,6.071 4.322,10.036 -1.206,3.027 -4.111,4.871 -7.182,4.871 z"
             fill="#766e6e"
             id="path9085" />
        </g>
      </g>
      <g
         id="g9115">
        <g
           id="g9101">
          <g
             id="g9099">
            <g
               id="g9093">
              <path
                 d="m 259.463,213.989 c -2.378,0 -4.724,-1.094 -6.237,-3.159 -2.523,-3.442 -1.778,-8.277 1.664,-10.799 9.167,-6.719 19.376,-11.417 30.343,-13.963 17.737,-4.118 33.097,-1.501 42.859,1.419 4.088,1.223 6.41,5.528 5.188,9.616 -1.223,4.088 -5.525,6.411 -9.617,5.189 -7.971,-2.384 -20.506,-4.521 -34.936,-1.171 -8.919,2.071 -17.23,5.898 -24.703,11.375 -1.376,1.007 -2.976,1.493 -4.561,1.493 z"
                 fill="#766e6e"
                 id="path9091" />
            </g>
            <g
               id="g9097">
              <path
                 d="m 321.042,260.348 c -1.475,0 -2.966,-0.422 -4.284,-1.302 -8.847,-5.908 -18.568,-10.096 -28.895,-12.446 -9.064,-2.064 -18.367,-2.648 -27.654,-1.742 -4.256,0.417 -8.027,-2.691 -8.442,-6.938 -0.414,-4.247 2.691,-8.026 6.939,-8.442 10.936,-1.069 21.902,-0.378 32.588,2.054 12.171,2.771 23.627,7.704 34.046,14.663 3.549,2.37 4.504,7.167 2.135,10.716 -1.49,2.231 -3.939,3.437 -6.433,3.437 z"
                 fill="#766e6e"
                 id="path9095" />
            </g>
          </g>
        </g>
        <g
           id="g9113">
          <g
             id="g9111">
            <g
               id="g9105">
              <path
                 d="m 166.516,213.989 c -1.52,0 -3.055,-0.447 -4.398,-1.379 -7.684,-5.333 -16.116,-9.215 -25.06,-11.538 -15.811,-4.107 -29.792,-2.376 -38.734,-0.202 -4.154,1.012 -8.326,-1.537 -9.334,-5.682 -1.008,-4.146 1.536,-8.325 5.682,-9.333 15.295,-3.72 31.296,-3.629 46.272,0.26 10.712,2.783 20.801,7.426 29.986,13.8 3.505,2.433 4.375,7.247 1.942,10.753 -1.502,2.162 -3.909,3.321 -6.356,3.321 z"
                 fill="#766e6e"
                 id="path9103" />
            </g>
            <g
               id="g9109">
              <path
                 d="m 104.938,260.348 c -2.495,0 -4.943,-1.206 -6.433,-3.436 -2.369,-3.549 -1.414,-8.347 2.135,-10.716 10.42,-6.959 21.875,-11.893 34.046,-14.663 10.683,-2.433 21.648,-3.124 32.588,-2.054 4.247,0.415 7.353,4.195 6.939,8.442 -0.415,4.246 -4.194,7.361 -8.442,6.938 -9.287,-0.906 -18.59,-0.322 -27.654,1.742 -10.327,2.351 -20.048,6.538 -28.895,12.446 -1.319,0.88 -2.81,1.301 -4.284,1.301 z"
                 fill="#766e6e"
                 id="path9107" />
            </g>
          </g>
        </g>
      </g>
    </g>
  </g>
  <g
     transform="matrix(0.09170465,0,0,0.09170465,68.245076,10.495575)"
     id="g9435">
    <g
       id="BULINE" />
    <g
       id="Icons">
      <path
         d="m 466.52,263.63 c 0,7.29 5.91,41.22 13.19,41.22 7.28,0 13.2,-33.93 13.2,-41.22 a 13.2,13.2 0 0 0 -26.39,0 z"
         fill="#ffffff"
         id="path9288" />
      <path
         d="m 485.11,298.86 c -1.64,3.62 -3.47,6 -5.4,6 -7.28,0 -13.19,-33.93 -13.19,-41.22 a 13.17,13.17 0 0 1 7.73,-12 13.11,13.11 0 0 0 -1.52,6.15 c 0,7 5.47,38.72 12.38,41.07 z"
         fill="#b5b5b5"
         id="path9290" />
      <path
         d="m 439.44,114.33 c 0,0 40.12,-7.82 45,142 a 4.9,4.9 0 0 1 -5.06,5.06 4.88,4.88 0 0 1 -4.7,-5.18 c 1.12,-17.27 1.62,-76.81 -35.24,-141.88 z"
         fill="#535045"
         id="path9292" />
      <path
         d="m 437.3,270.22 c -3.86,22.89 -3.86,78.61 -3.86,78.61 0,3.67 -1.7,7.91 -3.65,11.57 a 63.58,63.58 0 0 1 -5.67,8.77 c -9.15,4.1 -21,2.47 -27.3,1.12 a 3.63,3.63 0 0 1 -2.12,-5.77 49.32,49.32 0 0 1 8,-7.42 16.8,16.8 0 0 0 7,-6.88 c 5.74,-9.79 6.65,-26.39 6.28,-39.5 a 87.05,87.05 0 0 0 -6.89,-31.56 c -5.91,-13.91 -15,-36.1 -19.23,-46.44 8.27,-7.84 23.47,-19.1 35.91,-10.69 a 253.08,253.08 0 0 0 10.06,33.45 28.51,28.51 0 0 1 1.47,14.74 z"
         fill="#cccccc"
         id="path9294" />
      <path
         d="m 420.3,350.22 a 16.86,16.86 0 0 1 -7,6.88 48.88,48.88 0 0 0 -8,7.42 3.63,3.63 0 0 0 2.11,5.77 70.85,70.85 0 0 0 7.76,1.21 59,59 0 0 1 -18.36,-1.21 3.63,3.63 0 0 1 -2.12,-5.77 49.32,49.32 0 0 1 8,-7.42 16.8,16.8 0 0 0 7,-6.88 c 5.74,-9.79 6.65,-26.39 6.28,-39.5 a 87.05,87.05 0 0 0 -6.89,-31.56 c -5.91,-13.91 -15,-36.1 -19.23,-46.44 7.27,-6.89 19.88,-16.42 31.27,-12.92 -8,2.08 -15.61,8.14 -20.66,12.92 4.23,10.34 13.32,32.53 19.22,46.44 a 86.86,86.86 0 0 1 6.9,31.56 c 0.42,13.11 -0.58,29.71 -6.28,39.5 z"
         fill="#b5b5b5"
         id="path9296" />
      <path
         d="m 376.93,276.59 h 11.73 v 25.87 a 5.86,5.86 0 0 1 -5.86,5.86 5.86,5.86 0 0 1 -5.86,-5.86 v -25.87 z"
         fill="#c7877f"
         transform="matrix(0.924,0.382,-0.382,0.924,140.6,-123.96)"
         id="path9298" />
      <path
         d="m 399.08,281.17 h 11.73 V 307 a 5.86,5.86 0 0 1 -5.86,5.86 5.86,5.86 0 0 1 -5.86,-5.86 v -25.83 z"
         fill="#c7877f"
         transform="matrix(0.996,-0.093,0.093,0.996,-25.82,38.87)"
         id="path9300" />
      <path
         d="m 430.37,290.38 2.63,13.39 c 0.51,3.15 0.4,6.18 -2.32,7.94 a 5.86,5.86 0 0 1 -8.11,-1.74 l -3.92,-15.43 a 59.69,59.69 0 0 1 -18.27,1.29 c -2.55,-0.22 -10,-1.57 -11.4,-1.82 h -0.12 -0.1 c -1.38,-0.33 -2.77,-0.7 -4.15,-1.12 a 73.72,73.72 0 0 1 -14.36,-6.09 l -9,12.91 a 5.8641282,5.8641282 0 0 1 -9.64,-6.68 l 8.9,-12.84 c -11.66,-9.71 -17.52,-22.32 -14.08,-33.61 5.34,-17.53 31.07,-25.22 57.47,-17.18 26.4,8.04 43.48,28.78 38.13,46.31 -1.84,6.1 -6.21,11.02 -11.66,14.67 z"
         fill="#e79d90"
         id="path9302" />
      <path
         d="m 200.82,376.17 c -1.68,3.9 -4.13,11.71 -5.46,16.07 -0.58,1.89 -0.94,3.13 -0.94,3.13 -7.4,13.57 -30,11 -40,9.07 a 3.56,3.56 0 0 1 -2.06,-5.75 120.5,120.5 0 0 1 9.25,-9.51 24.75,24.75 0 0 0 5.66,-4.6 c 10.44,-11.13 15.32,-32.62 17.51,-46.95 a 63.19,63.19 0 0 0 -1.5,-25.89 l -6,-22.24 -10.07,-37.35 37.6,-4 c 3.41,7.4 5,18.47 5.39,31.07 1.34,40.57 -9.38,96.95 -9.38,96.95 z"
         fill="#cccccc"
         id="path9304" />
      <path
         d="m 200.69,311.74 a 62.84,62.84 0 0 1 1.5,25.89 c -2.18,14.33 -7.07,35.82 -17.51,46.95 a 24.53,24.53 0 0 1 -5.66,4.6 120.5,120.5 0 0 0 -9.25,9.51 3.56,3.56 0 0 0 2.06,5.75 c 1.69,0.32 3.73,0.66 6,0.94 -8.52,1.37 -17.89,0.11 -23.4,-0.94 a 3.56,3.56 0 0 1 -2.06,-5.75 120.5,120.5 0 0 1 9.25,-9.51 24.75,24.75 0 0 0 5.66,-4.6 c 10.44,-11.13 15.32,-32.62 17.51,-46.95 a 63.19,63.19 0 0 0 -1.5,-25.89 l -6,-22.24 -10.07,-37.35 37.6,-4 c 0.26,0.57 0.52,1.16 0.76,1.77 l -21,2.23 10.07,37.35 z"
         fill="#b5b5b5"
         id="path9306" />
      <path
         style="fill:#edebe8;fill-opacity:1"
         d="m 469.52,289.94 c -3.86,22.89 -3.86,78.61 -3.86,78.61 a 17.2,17.2 0 0 1 -0.79,4.82 30,30 0 0 1 -1.61,4.24 61.74,61.74 0 0 1 -6.91,11.28 c -9.16,4.1 -21,2.48 -27.32,1.12 a 3.64,3.64 0 0 1 -2.87,-3.82 3.42,3.42 0 0 1 0.76,-1.93 38.31,38.31 0 0 1 4.88,-4.9 c 1.77,-1.53 3.16,-2.53 3.16,-2.53 a 15.62,15.62 0 0 0 5.67,-4.94 22.93,22.93 0 0 0 2.11,-3.49 c 5,-9.93 5.81,-25.53 5.45,-38 a 87,87 0 0 0 -6.89,-31.53 c -1.71,-4 -3.68,-8.76 -5.73,-13.68 -7.42,-17.86 -15.79,-38.43 -15.79,-38.43 -7.83,-10 -17.62,-9.28 -26.25,-5.11 l -0.36,0.18 c -11.37,5.63 -20.64,17 -20.64,17 -29.65,19.19 -73.22,22.58 -106.38,21.74 a 17,17 0 0 0 -17.44,17.21 l 0.33,35.13 c -0.69,23.73 11.73,46 11.73,46 -0.76,3.78 -0.68,9.46 -0.46,13.79 0.18,3.55 0.46,6.21 0.46,6.21 -4.08,17.81 -21.64,17.23 -30.59,15.7 a 3.14,3.14 0 0 1 -2.17,-4.69 c 3.05,-5.15 7.23,-11 7.23,-11 a 18.21,18.21 0 0 0 2,-6.2 c 0.95,-5.52 0.9,-12.94 0.46,-20 A 81.35,81.35 0 0 0 229,341.47 c -5.23,-10.48 -7.56,-23.28 -7.56,-23.28 a 96.94,96.94 0 0 0 -5.54,-32.67 10.55,10.55 0 0 0 -5.7,-6.3 10.24,10.24 0 0 0 -2.23,-0.74 10,10 0 0 0 -6.47,0.83 5.38,5.38 0 0 0 -1.45,0.93 c -8.48,6.94 -16.09,9.47 -22.77,9.26 -21.86,-0.69 -33.8,-30.64 -33.8,-30.64 -7.2,-14.65 -33.3,-45.19 -48.49,-62.39 a 14.3,14.3 0 0 0 -14.32,-4.36 13.41,13.41 0 0 0 -2.47,0.86 65.13,65.13 0 0 1 -9.29,3.39 c 2.41,-2.41 8.34,-8.9 8.34,-8.9 C 78.85,165 55.54,165 44.55,166.24 a 55.91,55.91 0 0 0 -5.58,0.87 c 2.43,-5.87 -1,-33.81 -1,-33.81 C 33.47,119.49 43,105.66 51,97.09 a 82.82,82.82 0 0 1 9.33,-8.63 c 6.76,-6.12 17,-0.9 20.33,1.06 0.28,0.16 0.5,0.31 0.68,0.42 l 0.38,0.25 c 3.6,4.62 7.15,11.7 10,18.39 a 106.55,106.55 0 0 0 19.37,2 h 1.18 c 11.58,0.29 24.45,-0.27 34.29,-0.88 a 68.15,68.15 0 0 1 25.66,3.47 c 14.06,4.67 38.55,7 67.2,7.93 47,1.49 105.27,-0.9 146.72,-3.25 31.43,-1.77 53.22,-3.52 53.22,-3.52 31.74,3.8 14.84,82.09 14.84,82.09 -3.13,29.4 8.07,63.69 13.77,78.78 a 28.49,28.49 0 0 1 1.55,14.74 z"
         fill="#ffffff"
         id="path9308" />
      <path
         d="m 435.54,285.74 a 29.68,29.68 0 0 1 -5.19,4 c -3.91,-9.49 -7.51,-18.29 -9.41,-22.94 a 18.52,18.52 0 0 0 -8.52,-9.59 c -6.21,-3.19 -13,-1.95 -19.14,1 -6.81,3.29 -12.91,8.69 -16.75,12.56 a 53.31,53.31 0 0 1 -14.1,10.2 l -0.68,0.33 a 50.12,50.12 0 0 1 -11.15,-11.85 115.9,115.9 0 0 0 13.4,-5.79 48,48 0 0 0 12.26,-9.1 c 3.82,-3.89 10.06,-9.5 17.06,-12.88 6.17,-3 12.93,-4.22 19.14,-1 a 18.52,18.52 0 0 1 8.52,9.59 c 2.69,6.6 8.81,21.56 14.38,35 0.04,0.12 0.11,0.3 0.18,0.47 z"
         fill="#c7877f"
         id="path9310" />
      <path
         d="m 51,97.09 a 77.49,77.49 0 0 0 -5.54,6.64 l -1.32,-0.11 a 10.07,10.07 0 0 1 -6.17,-3 c -2.89,-2.83 -7.58,-4.9 -13,-5.36 -9.38,-0.79 -17.4,3.51 -17.91,9.6 -0.51,6.09 6.67,11.67 16,12.46 5.43,0.46 10.4,-0.79 13.72,-3.1 a 11,11 0 0 1 3.2,-1.54 c -3,6.39 -4.41,13.49 -2.11,20.58 0,0 3.46,27.94 1,33.81 a 55.91,55.91 0 0 1 5.58,-0.87 c 7.44,-7 12.59,-21.92 12.59,-39.21 0.1,-11.56 -2.22,-22.11 -6.04,-29.9 z"
         fill="#535045"
         id="path9312" />
      <ellipse
         cx="45.619999"
         cy="129.53"
         fill="#2b1812"
         rx="4.5700002"
         ry="6.4699998"
         id="ellipse9314" />
      <path
         d="m 260.77,398.9 c -4.08,17.81 -21.64,17.23 -30.59,15.7 a 3.14,3.14 0 0 1 -2.17,-4.69 c 3.05,-5.15 7.23,-11 7.23,-11 a 18.21,18.21 0 0 0 2,-6.2 38,38 0 0 1 10.37,-1.77 37.34,37.34 0 0 1 12.7,1.76 c 0.18,3.54 0.46,6.2 0.46,6.2 z"
         fill="#535045"
         id="path9316" />
      <path
         d="m 254.56,410 c -7.12,6.31 -18,5.69 -24.38,4.6 a 3.14,3.14 0 0 1 -2.17,-4.69 c 3.05,-5.15 7.23,-11 7.23,-11 a 18.21,18.21 0 0 0 2,-6.2 37.92,37.92 0 0 1 9.17,-1.72 13,13 0 0 1 -1.34,3.26 c 0,0 -4.18,5.86 -7.23,11 a 3.14,3.14 0 0 0 2.17,4.69 40.54,40.54 0 0 0 14.55,0.06 z"
         fill="#403d36"
         id="path9318" />
      <path
         d="m 195.36,392.24 c -0.58,1.89 -0.94,3.13 -0.94,3.13 -7.4,13.57 -30,11 -40,9.07 a 3.56,3.56 0 0 1 -2.06,-5.75 120.5,120.5 0 0 1 9.25,-9.51 24.75,24.75 0 0 0 5.66,-4.6 40.43,40.43 0 0 1 4.45,-0.39 c 9.57,-0.3 18.17,2.87 23.64,8.05 z"
         fill="#535045"
         id="path9320" />
      <path
         d="m 188.5,401.62 c -9.88,6.32 -26.06,4.35 -34.07,2.82 a 3.56,3.56 0 0 1 -2.06,-5.75 120.5,120.5 0 0 1 9.25,-9.51 24.75,24.75 0 0 0 5.66,-4.6 40.43,40.43 0 0 1 4.45,-0.39 36.84,36.84 0 0 1 5,0.16 c -0.35,0.24 -0.71,0.47 -1.07,0.67 a 120.5,120.5 0 0 0 -9.25,9.51 3.56,3.56 0 0 0 2.06,5.75 76.75,76.75 0 0 0 20.03,1.34 z"
         fill="#403d36"
         id="path9322" />
      <path
         d="m 464.87,373.37 a 30,30 0 0 1 -1.61,4.24 61.74,61.74 0 0 1 -6.91,11.28 c -9.16,4.1 -21,2.48 -27.32,1.12 a 3.64,3.64 0 0 1 -2.87,-3.82 3.42,3.42 0 0 1 0.76,-1.93 38.31,38.31 0 0 1 4.88,-4.9 c 1.77,-1.53 3.16,-2.53 3.16,-2.53 a 15.62,15.62 0 0 0 5.67,-4.94 22.93,22.93 0 0 0 2.11,-3.49 47.72,47.72 0 0 1 22.13,4.97 z"
         fill="#535045"
         id="path9324" />
      <path
         d="m 456.94,388.12 -0.59,0.77 c -9.16,4.1 -21,2.48 -27.32,1.12 a 3.64,3.64 0 0 1 -2.87,-3.82 3.42,3.42 0 0 1 0.76,-1.93 38.31,38.31 0 0 1 4.88,-4.9 c 1.77,-1.53 3.16,-2.53 3.16,-2.53 a 15.62,15.62 0 0 0 5.67,-4.94 22.93,22.93 0 0 0 2.11,-3.49 52.9,52.9 0 0 1 7.4,0.46 15.31,15.31 0 0 1 -5.61,4.86 c 0,0 -1.39,1 -3.16,2.54 a 37.57,37.57 0 0 0 -4.88,4.89 3.52,3.52 0 0 0 -0.76,1.94 3.65,3.65 0 0 0 2.87,3.82 59.15,59.15 0 0 0 18.34,1.21 z"
         fill="#403d36"
         id="path9326" />
      <path
         d="m 429.79,360.4 a 63.58,63.58 0 0 1 -5.67,8.77 c -9.15,4.1 -21,2.47 -27.3,1.12 a 3.63,3.63 0 0 1 -2.12,-5.77 49.32,49.32 0 0 1 8,-7.42 16.8,16.8 0 0 0 7,-6.88 c 8.54,0.99 15.84,4.78 20.09,10.18 z"
         fill="#535045"
         id="path9328" />
      <path
         d="m 424.88,368.17 c -0.47,0.64 -0.76,1 -0.76,1 -9.15,4.1 -21,2.47 -27.3,1.12 a 3.63,3.63 0 0 1 -2.12,-5.77 49.32,49.32 0 0 1 8,-7.42 16.8,16.8 0 0 0 7,-6.88 35.72,35.72 0 0 1 6.35,1.31 13.52,13.52 0 0 1 -3.22,2.2 48.81,48.81 0 0 0 -8,7.42 3.62,3.62 0 0 0 2.12,5.76 59.38,59.38 0 0 0 17.93,1.26 z"
         fill="#403d36"
         id="path9330" />
      <g
         fill="#535045"
         id="g9342">
        <ellipse
           cx="430.59"
           cy="143.59"
           rx="9.6400003"
           ry="12.88"
           transform="matrix(0.736,-0.677,0.677,0.736,16.51,329.5)"
           id="ellipse9332" />
        <ellipse
           cx="188.44"
           cy="140.07001"
           rx="9.6400003"
           ry="12.88"
           transform="matrix(0.736,-0.677,0.677,0.736,-45.07,164.6)"
           id="ellipse9334" />
        <ellipse
           cx="298.37"
           cy="250.44"
           rx="12.88"
           ry="9.6400003"
           transform="matrix(0.831,-0.556,0.556,0.831,-88.87,208.11)"
           id="ellipse9336" />
        <path
           d="m 432.13,198 -0.08,-0.08 a 18.32,18.32 0 0 0 2.83,-4.89 c 2.86,-7.32 0.74,-15 -4.74,-17.13 -5.48,-2.13 -12.24,2 -15.1,9.37 a 16.86,16.86 0 0 1 -5.66,7.53 10.39,10.39 0 0 0 -0.9,0.74 c -5.87,5.4 -4.78,16.12 2.43,24 7.21,7.88 17.81,9.8 23.67,4.41 5.86,-5.39 4.76,-16.15 -2.45,-23.95 z"
           id="path9338" />
        <path
           d="m 229.91,193 c -9.58,-10.4 -23.1,-14 -32.25,-9.14 a 3.19,3.19 0 0 1 -3.86,-0.69 101.59,101.59 0 0 0 -31,-23.11 c 2.7,-7.86 0.73,-15.85 -5,-18.82 a 9.65,9.65 0 0 0 -1.56,-0.64 15.83,15.83 0 0 1 -8.29,-6.69 39.26,39.26 0 0 0 -3.93,-5.05 c -7.28,-7.91 -16.86,-11.87 -25.05,-11.18 a 6.83,6.83 0 0 1 -7.15,-5.07 c -0.19,-0.69 -0.38,-1.36 -0.59,-2 a 106.55,106.55 0 0 1 -19.37,-2 c -2.9,-6.69 -6.45,-13.77 -10,-18.39 L 81.48,89.97 C 72,96.78 65.24,114.59 65.24,135.47 65.24,153 70,168.29 77,176.83 a 17.46,17.46 0 0 1 3.8,14.55 c 0,0.24 -0.1,0.48 -0.14,0.73 A 14.3,14.3 0 0 1 95,196.47 c 15.19,17.2 41.29,47.74 48.49,62.39 0,0 20.35,51.05 56.57,21.38 a 5.38,5.38 0 0 1 1.45,-0.93 10,10 0 0 1 6.47,-0.83 c 8,-9.49 11.76,-21.89 11.61,-35.32 a 10.47,10.47 0 0 1 7.29,-10.22 16.9,16.9 0 0 0 6.7,-3.77 C 242.44,221 240.8,204.81 229.91,193 Z"
           id="path9340" />
      </g>
      <path
         d="m 196.49,282.94 c -34,23.63 -53,-24.08 -53,-24.08 -7.2,-14.65 -33.3,-45.19 -48.49,-62.39 A 14.3,14.3 0 0 0 80.68,192.11 17.45,17.45 0 0 0 77,176.83 C 70,168.29 65.24,153 65.24,135.47 c 0,-20.88 6.71,-38.69 16.13,-45.53 l 0.38,0.25 c 3.6,4.62 7.15,11.7 10,18.39 h 0.11 a 12.71,12.71 0 0 1 9.9,14.06 93,93 0 0 0 -0.87,12.81 c 0,17.5 4.71,32.82 11.77,41.36 a 17.42,17.42 0 0 1 3.65,15.26 14.3,14.3 0 0 1 14.32,4.36 c 15.19,17.2 41.29,47.74 48.49,62.39 0.07,0.04 6.08,15.11 17.37,24.12 z"
         fill="#49463d"
         id="path9344" />
      <path
         d="m 385.62,171.19 a 14.08,14.08 0 0 0 -1.28,13.54 c 4.2,9.67 3.33,19.88 -3.13,25.82 -8.86,8.15 -24.86,5.16 -35.76,-6.67 a 8.46,8.46 0 0 0 -8.07,-2.66 104.06,104.06 0 0 1 -24.18,2.4 h -0.78 a 8.49,8.49 0 0 0 -8.37,6.17 17.25,17.25 0 0 1 -4.88,8 c -8.86,8.16 -24.87,5.16 -35.76,-6.66 -6.06,-6.59 -9.26,-14.53 -9.38,-21.68 a 15.83,15.83 0 0 0 -4.49,-10.78 59.64,59.64 0 0 1 -8.5,-10.94 9,9 0 0 0 -8.91,-4.36 10.68,10.68 0 0 1 -6.28,-1 c -6.55,-3.37 -8.22,-13.18 -3.73,-21.93 a 21.58,21.58 0 0 1 7.83,-8.63 23.11,23.11 0 0 0 9,-9.44 c 0.21,-0.41 0.42,-0.83 0.64,-1.24 47,1.49 105.27,-0.9 146.72,-3.25 a 46.8,46.8 0 0 1 -0.6,53.34 z"
         fill="#535045"
         id="path9346" />
      <ellipse
         cx="77.489998"
         cy="129.53"
         fill="#2b1812"
         rx="4.5700002"
         ry="6.4699998"
         id="ellipse9348" />
      <path
         d="m 81.58,177.22 c 0,6.06 -4.91,13.78 -11.85,18.59 a 23.65,23.65 0 0 1 -13.38,4.59 c -5.84,0 -11.17,-3 -15.3,-7.23 -5.12,-5.2 -8.37,-12.23 -8.37,-17.51 0,-7.3 6.23,-9.14 15,-9.61 2.68,-0.14 5.59,-0.15 8.64,-0.15 a 85.81,85.81 0 0 1 10.5,0.54 c 8.46,1.06 14.76,3.91 14.76,10.78 z"
         fill="#e79d90"
         id="path9350" />
      <path
         d="m 69.73,195.81 a 23.65,23.65 0 0 1 -13.38,4.59 c -5.84,0 -11.17,-3 -15.3,-7.23 7.84,-7 7.24,-21.51 6.66,-27.12 2.68,-0.14 5.59,-0.15 8.64,-0.15 a 85.81,85.81 0 0 1 10.5,0.54 c -2.66,9.1 0.55,22.01 2.88,29.37 z"
         fill="#c68880"
         id="path9352" />
      <ellipse
         cx="43.07"
         cy="178.67999"
         fill="#381e14"
         rx="3.3199999"
         ry="6.98"
         transform="matrix(0.729,-0.684,0.684,0.729,-110.63,77.9)"
         id="ellipse9354" />
      <path
         d="m 47.85,183.78 c -0.64,0.6 -1.73,0.62 -3,0.16 a 2.39,2.39 0 0 0 0.22,-0.16 c 1.33,-1.27 0.28,-4.56 -2.36,-7.37 a 11.65,11.65 0 0 0 -4.23,-3 c 1.44,-1 4.48,0.31 7,3 2.52,2.69 3.71,6.1 2.37,7.37 z"
         fill="#2b1812"
         id="path9356" />
      <ellipse
         cx="67.559998"
         cy="178.67999"
         fill="#381e14"
         rx="6.98"
         ry="3.3199999"
         transform="matrix(0.684,-0.729,0.729,0.684,-108.95,105.64)"
         id="ellipse9358" />
      <path
         d="m 62.79,183.78 c 0.64,0.6 1.73,0.62 3,0.16 a 1.53,1.53 0 0 1 -0.22,-0.16 c -1.33,-1.27 -0.28,-4.56 2.36,-7.37 a 11.65,11.65 0 0 1 4.23,-3 c -1.45,-1 -4.48,0.31 -7,3 -2.66,2.81 -3.72,6.1 -2.37,7.37 z"
         fill="#2b1812"
         id="path9360" />
      <path
         d="m 94.47,119.44 c -0.47,5.28 -0.9,15.59 1.81,23.68 a 37.69,37.69 0 0 1 1.92,8.49 c 0.77,8.27 0.24,23.23 -11.55,32.52 a 0.62,0.62 0 0 1 -0.92,-0.77 c 2.88,-5.73 9.74,-21.12 8,-34.85 a 25.18,25.18 0 0 0 -0.5,-2.59 c -0.93,-3.9 -3.61,-17.2 0.08,-26.74 a 0.61,0.61 0 0 1 1.16,0.26 z"
         fill="#403d36"
         id="path9362" />
      <path
         d="m 393.28,241.68 -0.11,0.18 c -11.37,5.63 -20.64,17 -20.64,17 -29.65,19.19 -73.22,22.58 -106.38,21.74 0,0 77.18,-11.7 127.13,-38.92 z"
         fill="#cccccc"
         id="path9364" />
      <ellipse
         cx="395.23999"
         cy="282.53"
         fill="#f0d3d0"
         rx="9.4399996"
         ry="4.8600001"
         id="ellipse9366" />
      <ellipse
         cx="410.5"
         cy="282.53"
         fill="#f0d3d0"
         rx="4.3000002"
         ry="2.21"
         id="ellipse9368" />
      <path
         d="m 109.19,112.24 c 9,-2.89 14.7,-9.95 12.82,-15.76 -1.88,-5.81 -10.65,-8.2 -19.61,-5.31 -5.19,1.67 -9.29,4.74 -11.47,8.16 a 10,10 0 0 1 -5.34,4.27 4.29,4.29 0 0 0 -2.76,5.4 l 0.07,0.22 a 4.28,4.28 0 0 0 5.39,2.78 10,10 0 0 1 6.83,0.35 c 3.76,1.47 8.88,1.56 14.07,-0.11 z"
         fill="#403d36"
         id="path9370" />
      <path
         d="m 105.6,106.64 c 4.2,-1.35 6.89,-4.66 6,-7.38 -0.89,-2.72 -5,-3.84 -9.19,-2.49 a 10,10 0 0 0 -5.37,3.82 4.62,4.62 0 0 1 -2.5,2 2,2 0 0 0 -1.29,2.53 v 0.1 a 2,2 0 0 0 2.52,1.3 4.7,4.7 0 0 1 3.2,0.16 10,10 0 0 0 6.63,-0.04 z"
         fill="#35332d"
         id="path9372" />
      <path
         d="m 25,101.2 c -4.36,-0.63 -8.23,1.14 -8.65,4 -0.42,2.86 2.79,5.65 7.15,6.28 a 10,10 0 0 0 6.5,-1 4.69,4.69 0 0 1 3.13,-0.69 2,2 0 0 0 2.28,-1.7 v -0.11 a 2,2 0 0 0 -1.69,-2.27 4.72,4.72 0 0 1 -2.8,-1.56 A 10,10 0 0 0 25,101.2 Z"
         fill="#403d36"
         id="path9374" />
    </g>
  </g>
</svg>
