<?xml version="1.0" encoding="UTF-8" standalone="no"?>
<svg
   xmlns:dc="http://purl.org/dc/elements/1.1/"
   xmlns:cc="http://creativecommons.org/ns#"
   xmlns:rdf="http://www.w3.org/1999/02/22-rdf-syntax-ns#"
   xmlns:svg="http://www.w3.org/2000/svg"
   xmlns="http://www.w3.org/2000/svg"
   width="500"
   height="250"
   viewBox="0 0 132.29166 66.145835"
   version="1.1"
   id="svg8">
  <defs
     id="defs2">
    <rect
       id="rect17555"
       height="33.899739"
       width="45.47526"
       y="14.469401"
       x="64.905598" />
    <rect
       id="rect16657"
       height="39.6875"
       width="52.916666"
       y="16.536458"
       x="16.123047" />
    <rect
       id="rect14952"
       height="41.217972"
       width="28.355626"
       y="11.693042"
       x="56.1266" />
    <rect
       id="rect12397"
       height="46.715494"
       width="47.955729"
       y="8.6816405"
       x="71.933593" />
    <rect
       id="rect10750"
       height="32.448191"
       width="43.55658"
       y="16.95491"
       x="54.080318" />
    <rect
       id="rect10116"
       height="31.278887"
       width="27.917137"
       y="16.808747"
       x="101.14481" />
    <rect
       id="rect9439"
       height="25.14004"
       width="57.003578"
       y="26.309344"
       x="5.2618688" />
    <rect
       id="rect8476"
       height="26.60167"
       width="35.663777"
       y="22.216779"
       x="51.449384" />
    <rect
       id="rect8111"
       height="60.358072"
       width="46.715494"
       y="-7.4414062"
       x="111.20768" />
    <rect
       id="rect5692"
       height="31.419271"
       width="28.318685"
       y="19.223633"
       x="111.62109" />
    <rect
       id="rect4959"
       height="36.793619"
       width="38.447265"
       y="12.815755"
       x="87.436523" />
    <rect
       id="rect3591"
       height="32.246093"
       width="36.586914"
       y="17.569987"
       x="2.6871745" />
    <rect
       x="33.261906"
       y="1.889881"
       width="32.127975"
       height="25.607887"
       id="rect952" />
    <rect
       x="23.718006"
       y="3.0238094"
       width="21.45015"
       height="20.127232"
       id="rect946" />
    <rect
       id="rect952-5"
       height="25.607887"
       width="32.127975"
       y="1.889881"
       x="33.261906" />
    <rect
       id="rect1246"
       height="25.607887"
       width="32.127975"
       y="1.889881"
       x="33.261906" />
    <rect
       id="rect2592"
       height="20.127232"
       width="21.45015"
       y="3.0238094"
       x="23.718006" />
    <rect
       x="23.718006"
       y="3.0238094"
       width="21.45015"
       height="20.127232"
       id="rect2600" />
    <rect
       id="rect2608"
       height="20.127232"
       width="21.45015"
       y="3.0238094"
       x="23.718006" />
    <rect
       x="2.6871746"
       y="17.569986"
       width="36.586914"
       height="32.246094"
       id="rect3591-5" />
    <rect
       x="2.6871746"
       y="17.569986"
       width="36.586914"
       height="32.246094"
       id="rect4205" />
    <rect
       x="111.20768"
       y="-7.4414062"
       width="46.715494"
       height="60.358072"
       id="rect8139" />
    <rect
       x="51.449384"
       y="22.216779"
       width="35.663777"
       height="26.60167"
       id="rect8484" />
    <rect
       x="16.123047"
       y="16.536458"
       width="52.916666"
       height="39.6875"
       id="rect16854" />
    <rect
       x="16.123047"
       y="16.536458"
       width="52.916666"
       height="39.6875"
       id="rect16860" />
    <rect
       x="64.905598"
       y="14.469401"
       width="45.47526"
       height="33.899739"
       id="rect17563" />
    <rect
       x="64.905598"
       y="14.469401"
       width="45.47526"
       height="33.899739"
       id="rect20027" />
  </defs>
  <metadata
     id="metadata5">
    <rdf:RDF>
      <cc:Work
         rdf:about="">
        <dc:format>image/svg+xml</dc:format>
        <dc:type
           rdf:resource="http://purl.org/dc/dcmitype/StillImage" />
        <dc:title></dc:title>
      </cc:Work>
    </rdf:RDF>
  </metadata>
  <g
     transform="matrix(0.26458333,0,0,0.26458333,71.999739,33.965621)"
     id="g14585">
</g>
  <g
     transform="matrix(0.26458333,0,0,0.26458333,71.999739,33.965621)"
     id="g14587">
</g>
  <g
     transform="matrix(0.26458333,0,0,0.26458333,71.999739,33.965621)"
     id="g14589">
</g>
  <g
     transform="matrix(0.26458333,0,0,0.26458333,71.999739,33.965621)"
     id="g14591">
</g>
  <g
     transform="matrix(0.26458333,0,0,0.26458333,71.999739,33.965621)"
     id="g14593">
</g>
  <g
     transform="matrix(0.26458333,0,0,0.26458333,71.999739,33.965621)"
     id="g14595">
</g>
  <g
     transform="matrix(0.26458333,0,0,0.26458333,71.999739,33.965621)"
     id="g14597">
</g>
  <g
     transform="matrix(0.26458333,0,0,0.26458333,71.999739,33.965621)"
     id="g14599">
</g>
  <g
     transform="matrix(0.26458333,0,0,0.26458333,71.999739,33.965621)"
     id="g14601">
</g>
  <g
     transform="matrix(0.26458333,0,0,0.26458333,71.999739,33.965621)"
     id="g14603">
</g>
  <g
     transform="matrix(0.26458333,0,0,0.26458333,71.999739,33.965621)"
     id="g14605">
</g>
  <g
     transform="matrix(0.26458333,0,0,0.26458333,71.999739,33.965621)"
     id="g14607">
</g>
  <g
     transform="matrix(0.26458333,0,0,0.26458333,71.999739,33.965621)"
     id="g14609">
</g>
  <g
     transform="matrix(0.26458333,0,0,0.26458333,71.999739,33.965621)"
     id="g14611">
</g>
  <g
     transform="matrix(0.26458333,0,0,0.26458333,71.999739,33.965621)"
     id="g14613">
</g>
  <text
     xml:space="preserve"
     id="text20025"
     style="font-style:normal;font-variant:normal;font-weight:bold;font-stretch:normal;font-size:10.5833px;line-height:1.25;font-family:sans-serif;-inkscape-font-specification:'sans-serif Bold';white-space:pre;shape-inside:url(#rect20027);fill:#000000;fill-opacity:1;stroke:none;"
     transform="matrix(2.9395256,0,0,2.9395256,-103.22767,-26.95187)"><tspan
       x="64.90625"
       y="24.124215"><tspan
         style="font-style:normal;font-variant:normal;font-weight:bold;font-stretch:normal;font-family:sans-serif;-inkscape-font-specification:'sans-serif Bold'">R</tspan></tspan></text>
  <g
     transform="matrix(0.10026843,0,0,0.10026843,14.901944,6.887435)"
     id="g20158">
    <g
       id="g20096">
	<path
   style="fill:#e6e7e8"
   d="m 61.793,0 h 388.414 c 9.751,0 17.655,7.904 17.655,17.655 v 476.69 c 0,9.751 -7.904,17.655 -17.655,17.655 H 61.793 c -9.751,0 -17.655,-7.905 -17.655,-17.655 V 17.655 C 44.138,7.904 52.042,0 61.793,0 Z"
   id="path20082" />

	<g
   id="g20094">
		<path
   style="fill:#35495e"
   d="m 119.578,32.448 c -1.223,-3.568 -4.577,-5.965 -8.349,-5.966 h -10.595 c -3.772,0 -7.127,2.397 -8.349,5.966 L 71.099,94.241 c -1.57,4.608 0.888,9.616 5.493,11.195 4.605,1.579 9.618,-0.869 11.206,-5.471 l 4.008,-11.69 h 28.251 l 4.008,11.69 c 1.018,2.989 3.555,5.206 6.653,5.815 3.098,0.609 6.285,-0.484 8.359,-2.865 2.073,-2.381 2.716,-5.689 1.687,-8.674 z m -21.719,38.173 8.072,-23.543 8.072,23.543 z"
   id="path20084" />

		<path
   style="fill:#35495e"
   d="m 435.414,406.547 c -2.214,-0.764 -4.642,-0.615 -6.745,0.415 -2.104,1.03 -3.711,2.855 -4.466,5.073 l -4.008,11.69 h -28.251 l -4.008,-11.69 c -1.018,-2.989 -3.555,-5.206 -6.653,-5.815 -3.098,-0.609 -6.285,0.484 -8.358,2.865 -2.073,2.381 -2.716,5.689 -1.687,8.674 l 21.185,61.793 c 1.223,3.568 4.577,5.965 8.349,5.966 h 10.595 c 3.772,0 7.126,-2.397 8.349,-5.966 l 21.185,-61.793 c 0.76,-2.214 0.608,-4.64 -0.421,-6.742 -1.029,-2.103 -2.852,-3.711 -5.066,-4.47 z m -29.345,58.375 -8.072,-23.543 h 16.144 z"
   id="path20086" />

		<path
   style="fill:#35495e"
   d="m 317.793,314.483 c -17.742,-0.012 -34.305,-8.889 -44.138,-23.658 v 43.785 c 3.608,5.589 8.181,10.491 13.506,14.477 2.771,2.45 4.294,6.015 4.149,9.71 v 4.237 c 0.53,5.461 -3.383,10.353 -8.828,11.034 h -52.966 c -5.445,-0.682 -9.358,-5.573 -8.828,-11.034 v -4.237 c -0.145,-3.696 1.378,-7.261 4.149,-9.71 5.325,-3.987 9.898,-8.889 13.506,-14.477 v -43.785 c -1.01,1.528 -2.1,3.001 -3.266,4.414 -15.658,18.979 -42.323,24.679 -64.372,13.76 -22.049,-10.919 -33.677,-35.582 -28.072,-59.54 5.605,-23.958 26.968,-40.902 51.572,-40.907 10.076,-0.03 19.947,2.852 28.425,8.298 l 1.06,-1.677 c -17.968,-13.832 -25.138,-37.568 -17.833,-59.034 7.306,-21.467 27.466,-35.901 50.141,-35.901 22.675,0 42.836,14.435 50.141,35.901 7.306,21.467 0.136,45.202 -17.833,59.034 l 1.06,1.677 c 8.478,-5.446 18.348,-8.328 28.425,-8.298 29.252,0 52.965,23.713 52.965,52.966 0,29.253 -23.71,52.965 -52.963,52.965 z"
   id="path20088" />

		<path
   style="fill:#35495e"
   d="m 150.069,167.018 c 0.027,7.327 -4.32,13.962 -11.048,16.865 -6.727,2.902 -14.537,1.511 -19.849,-3.535 v 22.687 c 0,4.875 -3.952,8.828 -8.828,8.828 -4.875,0 -8.828,-3.952 -8.828,-8.828 v -22.599 c -3.389,3.195 -7.877,4.965 -12.535,4.943 -6.544,0 -12.591,-3.491 -15.863,-9.159 -3.272,-5.667 -3.272,-12.65 0,-18.317 3.272,-5.667 9.319,-9.159 15.863,-9.159 3.473,-0.041 6.881,0.942 9.799,2.825 l 0.353,-0.53 c -6.224,-4.798 -8.704,-13.025 -6.169,-20.463 2.535,-7.438 9.522,-12.439 17.38,-12.439 7.858,0 14.846,5.001 17.38,12.439 2.535,7.438 0.054,15.665 -6.169,20.463 l 0.353,0.53 c 2.918,-1.883 6.326,-2.866 9.799,-2.825 10.114,-0.017 18.331,8.16 18.362,18.274 z"
   id="path20090" />

		<path
   style="fill:#35495e"
   d="m 441.379,344.982 c -0.031,10.114 -8.248,18.291 -18.361,18.273 -3.473,0.041 -6.881,-0.942 -9.799,-2.825 l -0.353,0.53 c 6.224,4.798 8.704,13.025 6.169,20.463 -2.535,7.438 -9.522,12.439 -17.38,12.439 -7.858,0 -14.846,-5.001 -17.38,-12.439 -2.535,-7.438 -0.054,-15.665 6.169,-20.463 l -0.353,-0.53 c -2.918,1.883 -6.326,2.866 -9.799,2.825 -8.213,-0.008 -15.417,-5.483 -17.624,-13.393 -2.207,-7.91 1.12,-16.324 8.142,-20.584 7.022,-4.26 16.021,-3.326 22.018,2.287 v -22.599 c 0,-4.875 3.952,-8.828 8.828,-8.828 4.876,0 8.828,3.952 8.828,8.828 v 22.687 c 5.312,-5.047 13.122,-6.438 19.849,-3.535 6.727,2.903 11.073,9.537 11.046,16.864 z"
   id="path20092" />

	</g>

</g>
    <g
       id="g20098">
</g>
    <g
       id="g20100">
</g>
    <g
       id="g20102">
</g>
    <g
       id="g20104">
</g>
    <g
       id="g20106">
</g>
    <g
       id="g20108">
</g>
    <g
       id="g20110">
</g>
    <g
       id="g20112">
</g>
    <g
       id="g20114">
</g>
    <g
       id="g20116">
</g>
    <g
       id="g20118">
</g>
    <g
       id="g20120">
</g>
    <g
       id="g20122">
</g>
    <g
       id="g20124">
</g>
    <g
       id="g20126">
</g>
  </g>
</svg>
