<?xml version="1.0" encoding="UTF-8" standalone="no"?>
<svg
   xmlns:dc="http://purl.org/dc/elements/1.1/"
   xmlns:cc="http://creativecommons.org/ns#"
   xmlns:rdf="http://www.w3.org/1999/02/22-rdf-syntax-ns#"
   xmlns:svg="http://www.w3.org/2000/svg"
   xmlns="http://www.w3.org/2000/svg"
   width="500"
   height="250"
   viewBox="0 0 132.29166 66.145835"
   version="1.1"
   id="svg8">
  <defs
     id="defs2">
    <rect
       x="36.783534"
       y="5.9191895"
       width="39.32033"
       height="36.783534"
       id="rect8007" />
    <rect
       x="5.7077898"
       y="18.180368"
       width="32.132743"
       height="24.522356"
       id="rect7100" />
    <rect
       x="65.956682"
       y="3.382394"
       width="49.044713"
       height="48.621913"
       id="rect5371" />
    <rect
       x="33.261906"
       y="1.889881"
       width="32.127975"
       height="25.607887"
       id="rect952" />
    <rect
       x="23.718006"
       y="3.0238094"
       width="21.45015"
       height="20.127232"
       id="rect946" />
    <rect
       id="rect4359"
       height="25.607887"
       width="32.127975"
       y="1.889881"
       x="33.261906" />
    <rect
       id="rect7340"
       height="24.522356"
       width="32.132743"
       y="18.180368"
       x="5.7077898" />
  </defs>
  <metadata
     id="metadata5">
    <rdf:RDF>
      <cc:Work
         rdf:about="">
        <dc:format>image/svg+xml</dc:format>
        <dc:type
           rdf:resource="http://purl.org/dc/dcmitype/StillImage" />
        <dc:title></dc:title>
      </cc:Work>
    </rdf:RDF>
  </metadata>
  <g
     transform="translate(-58.671727,22.796021)"
     id="g1562">
    <path
       d="m 98.297298,30.229552 v 3.492587 c -0.01423,0.01067 -0.03023,0.01956 -0.04446,0.03023 A 12.60817,12.60817 0 0 1 84.07087,33.722139 v -3.492587 z"
       fill="#e6af89"
       id="path1463"
       style="stroke-width:0.17783" />
    <path
       d="m 98.297298,30.229552 v 3.492587 c -0.01423,0.01067 -0.03023,0.01956 -0.04446,0.03023 A 12.60817,12.60817 0 0 1 84.07087,33.722139 v -3.492587 z"
       fill="#e6af89"
       id="path1467"
       style="stroke-width:0.17783" />
    <path
       d="M 72.689732,10.312556 V -2.4951393 a 10.294242,10.294242 0 0 1 3.015113,-7.2791285 l 2.505629,-2.5056292 a 10.294242,10.294242 0 0 1 7.279128,-3.015113 h 7.868103 a 10.294419,10.294419 0 0 1 9.207525,5.6905702 7.9749785,7.9749785 0 0 1 6.63538,3.5510936 2.8452851,2.8452851 0 0 1 0.47783,1.5782441 V 10.312556 Z"
       fill="#55300b"
       id="path1473"
       style="stroke-width:0.17783" />
    <path
       d="M 91.184085,33.074837 A 12.60817,12.60817 0 0 1 79.478048,25.149473 35.238145,35.238145 0 0 1 76.957659,12.061873 V 1.7767006 l 4.267928,-7.2430289 h 19.916993 l 4.26793,7.2430289 V 12.061873 a 35.238145,35.238145 0 0 1 -2.52039,13.088311 12.60817,12.60817 0 0 1 -11.706035,7.924653 z"
       fill="#fdc9a6"
       id="path1475"
       style="stroke-width:0.17783" />
    <g
       fill="#55300b"
       id="g1485"
       transform="matrix(0.17783032,0,0,0.17783032,45.659523,-25.253508)">
      <path
         d="m 304,184 h -24 a 8,8 0 0 1 0,-16 h 24 a 8,8 0 0 1 0,16 z"
         id="path1477" />
      <circle
         cx="290"
         cy="202"
         r="10"
         id="circle1479" />
      <path
         d="m 232,184 h -24 a 8,8 0 0 1 0,-16 h 24 a 8,8 0 0 1 0,16 z"
         id="path1481" />
      <circle
         cx="222"
         cy="202"
         r="10"
         id="circle1483" />
    </g>
    <path
       d="M 94.02937,24.538982 H 88.3388 a 1.422643,1.422643 0 0 1 0,-2.845286 h 5.69057 a 1.422643,1.422643 0 0 1 0,2.845286 z"
       fill="#e6af89"
       id="path1487"
       style="stroke-width:0.17783" />
    <path
       d="M 92.606727,18.848411 H 89.761442 A 1.4226426,1.4226426 0 0 1 88.3388,17.425769 v -4.267928 a 1.4226426,1.4226426 0 0 1 2.845285,0 v 2.845285 h 1.422642 a 1.4226426,1.4226426 0 0 1 0,2.845285 z"
       fill="#e6af89"
       id="path1489"
       style="stroke-width:0.17783" />
    <path
       d="m 76.957659,6.0446283 h -1.966092 a 3.7244782,3.7244782 0 0 0 -3.724478,3.7244782 v 2.5095415 a 3.7244782,3.7244782 0 0 0 0.393183,1.665559 3.7244782,3.7244782 0 0 0 3.331295,2.058919 h 3.388735 z"
       fill="#fdc9a6"
       id="path1491"
       style="stroke-width:0.17783" />
    <path
       d="m 105.41051,6.0446283 h 1.96609 a 3.7244782,3.7244782 0 0 1 3.72448,3.7244782 v 2.5095415 a 3.7244782,3.7244782 0 0 1 -0.39318,1.665559 3.7244782,3.7244782 0 0 1 -3.3313,2.058919 h -3.38873 z"
       fill="#fdc9a6"
       id="path1493"
       style="stroke-width:0.17783" />
  </g>
  <g
     transform="matrix(0.10607494,0,0,0.10607494,69.412437,7.6552667)"
     id="g1705">
    <path
       d="m 500.856,96.089 h -22.912 v 300.519 c 0,0 -30.804,8.972 -103.579,-12.96 -49.068,-14.788 -85.774,3.054 -104.483,16.247 -3.98,2.806 -8.708,7.446 -13.577,7.446 H 256 255.696 c -4.869,0 -9.598,-4.639 -13.577,-7.445 C 223.41,386.703 186.703,368.86 137.635,383.648 64.861,405.58 34.056,396.608 34.056,396.608 V 96.089 H 11.144 C 4.989,96.089 0,101.078 0,107.233 v 313.324 c 0,6.155 4.99,11.144 11.144,11.144 h 200.192 c 5.906,0 11.394,3.305 13.918,8.644 5.443,11.517 17.161,19.486 30.745,19.486 13.584,0 25.302,-7.969 30.745,-19.486 2.524,-5.34 8.012,-8.644 13.918,-8.644 h 200.192 c 6.155,0 11.144,-4.989 11.144,-11.144 V 107.233 C 512,101.078 507.01,96.089 500.856,96.089 Z"
       fill="#f87c68"
       id="path1627" />
    <g
       id="g1631">
      <path
         d="m 57.004,420.556 v -22.165 c -15.72,0.321 -22.946,-1.783 -22.946,-1.783 V 96.089 H 11.144 C 4.989,96.089 0,101.078 0,107.233 v 313.324 c 0,6.155 4.989,11.144 11.144,11.144 h 57.004 c -6.155,0 -11.144,-4.99 -11.144,-11.145 z"
         fill="#ec625e"
         id="path1629" />
    </g>
    <path
       d="M 471.08,72.106 C 456.235,73.297 424.541,72.867 374.364,57.745 301.59,35.812 256,85.658 256,85.658 l -7.94,10.431 v 300.19 l 7.94,10.656 v 0.407 h 0.303 c 4.87,0 9.599,-1.549 13.578,-4.355 18.709,-13.194 55.415,-31.035 104.483,-16.247 72.775,21.932 106.67,12.96 106.67,12.96 V 81.313 c 0,-5.387 -4.584,-9.638 -9.954,-9.207 z"
       fill="#dbedff"
       id="path1633" />
    <path
       d="M 286.225,64.285 C 266.782,73.873 256,85.658 256,85.658 l -7.94,10.431 v 300.19 l 7.94,10.656 v 0.407 h 0.303 c 4.87,0 9.599,-1.549 13.578,-4.355 4.451,-3.139 9.932,-6.538 16.344,-9.701 z"
       fill="#b5dcff"
       id="path1635" />
    <g
       id="g1639">
      <path
         d="m 445.1,132.951 c -0.199,0 -0.399,-0.007 -0.6,-0.023 -21.651,-1.662 -45.998,-6.533 -72.366,-14.48 -26.822,-8.085 -52.776,-6.87 -77.142,3.604 -3.921,1.686 -8.464,-0.128 -10.15,-4.047 -1.685,-3.921 0.127,-8.465 4.047,-10.15 27.799,-11.949 57.306,-13.361 87.703,-4.201 25.302,7.625 48.548,12.291 69.09,13.868 4.255,0.326 7.439,4.04 7.112,8.295 -0.31,4.053 -3.695,7.134 -7.694,7.134 z"
         fill="#8bcaff"
         id="path1637" />
    </g>
    <g
       id="g1643">
      <path
         d="m 445.1,165.788 c -0.199,0 -0.398,-0.007 -0.6,-0.023 -21.646,-1.66 -45.993,-6.532 -72.366,-14.48 -26.822,-8.084 -52.776,-6.871 -77.142,3.604 -3.921,1.685 -8.464,-0.127 -10.15,-4.047 -1.685,-3.921 0.127,-8.465 4.047,-10.15 27.799,-11.949 57.306,-13.362 87.703,-4.201 25.308,7.627 48.553,12.293 69.089,13.868 4.255,0.326 7.439,4.039 7.113,8.294 -0.309,4.054 -3.695,7.135 -7.694,7.135 z"
         fill="#8bcaff"
         id="path1641" />
    </g>
    <g
       id="g1647">
      <path
         d="m 445.1,329.976 c -0.199,0 -0.399,-0.007 -0.6,-0.023 -21.652,-1.662 -45.999,-6.534 -72.366,-14.481 -26.821,-8.082 -52.775,-6.869 -77.142,3.605 -3.921,1.686 -8.464,-0.128 -10.15,-4.047 -1.685,-3.921 0.127,-8.465 4.047,-10.15 27.799,-11.949 57.306,-13.363 87.703,-4.202 25.302,7.626 48.547,12.292 69.09,13.869 4.255,0.326 7.439,4.04 7.112,8.295 -0.31,4.053 -3.695,7.134 -7.694,7.134 z"
         fill="#8bcaff"
         id="path1645" />
    </g>
    <g
       id="g1651">
      <path
         d="m 445.1,362.814 c -0.199,0 -0.399,-0.007 -0.6,-0.023 -21.651,-1.662 -45.998,-6.533 -72.366,-14.48 -26.822,-8.084 -52.776,-6.87 -77.142,3.604 -3.921,1.685 -8.464,-0.128 -10.15,-4.047 -1.685,-3.921 0.127,-8.465 4.047,-10.15 27.799,-11.949 57.306,-13.361 87.703,-4.201 25.302,7.625 48.548,12.291 69.09,13.868 4.255,0.326 7.439,4.04 7.112,8.295 -0.31,4.052 -3.695,7.134 -7.694,7.134 z"
         fill="#8bcaff"
         id="path1649" />
    </g>
    <g
       id="g1655">
      <path
         d="m 445.1,198.626 c -0.199,0 -0.399,-0.007 -0.6,-0.023 -21.652,-1.662 -45.999,-6.534 -72.366,-14.481 -26.821,-8.082 -52.775,-6.869 -77.142,3.605 -3.921,1.685 -8.464,-0.128 -10.15,-4.047 -1.685,-3.921 0.127,-8.465 4.047,-10.15 27.799,-11.949 57.306,-13.363 87.703,-4.202 25.302,7.626 48.547,12.292 69.09,13.869 4.255,0.326 7.439,4.04 7.112,8.295 -0.31,4.053 -3.695,7.134 -7.694,7.134 z"
         fill="#8bcaff"
         id="path1653" />
    </g>
    <g
       id="g1659">
      <path
         d="m 445.1,264.301 c -0.198,0 -0.398,-0.007 -0.599,-0.022 -21.646,-1.661 -45.993,-6.533 -72.366,-14.481 -26.822,-8.084 -52.776,-6.87 -77.142,3.604 -3.921,1.686 -8.464,-0.128 -10.15,-4.047 -1.685,-3.921 0.127,-8.465 4.047,-10.15 27.799,-11.949 57.306,-13.362 87.703,-4.201 25.308,7.627 48.553,12.293 69.089,13.867 4.255,0.327 7.439,4.04 7.113,8.295 -0.31,4.052 -3.696,7.135 -7.695,7.135 z"
         fill="#8bcaff"
         id="path1657" />
    </g>
    <g
       id="g1663">
      <path
         d="m 445.1,231.464 c -0.199,0 -0.399,-0.007 -0.6,-0.023 -21.651,-1.662 -45.998,-6.533 -72.366,-14.48 -26.82,-8.083 -52.774,-6.872 -77.142,3.604 -3.921,1.685 -8.464,-0.128 -10.15,-4.047 -1.685,-3.921 0.127,-8.465 4.047,-10.15 27.799,-11.949 57.306,-13.363 87.703,-4.201 25.302,7.625 48.548,12.291 69.089,13.868 4.255,0.326 7.439,4.04 7.112,8.295 -0.309,4.052 -3.694,7.134 -7.693,7.134 z"
         fill="#8bcaff"
         id="path1661" />
    </g>
    <g
       id="g1667">
      <path
         d="m 445.1,297.138 c -0.198,0 -0.398,-0.007 -0.599,-0.022 -21.65,-1.661 -45.997,-6.533 -72.366,-14.481 -26.821,-8.083 -52.775,-6.87 -77.142,3.605 -3.921,1.686 -8.464,-0.127 -10.15,-4.047 -1.685,-3.921 0.127,-8.465 4.047,-10.15 27.799,-11.949 57.306,-13.364 87.703,-4.202 25.304,7.626 48.549,12.292 69.089,13.867 4.255,0.327 7.439,4.04 7.113,8.295 -0.31,4.053 -3.696,7.135 -7.695,7.135 z"
         fill="#8bcaff"
         id="path1665" />
    </g>
    <path
       d="M 40.92,72.106 C 55.765,73.297 87.459,72.867 137.636,57.745 210.41,35.812 256,85.658 256,85.658 v 321.684 h -0.304 c -4.869,0 -9.598,-1.549 -13.578,-4.355 -18.709,-13.194 -55.415,-31.035 -104.483,-16.248 -72.775,21.932 -106.67,12.96 -106.67,12.96 V 81.313 c 0.001,-5.387 4.585,-9.638 9.955,-9.207 z"
       fill="#dbedff"
       id="path1669" />
    <path
       d="M 64.962,72.061 C 54.5,72.772 46.513,72.554 40.92,72.106 c -5.37,-0.431 -9.954,3.82 -9.954,9.207 v 318.386 c 0,0 11.038,2.909 33.996,1.352 z"
       fill="#b5dcff"
       id="path1671" />
    <g
       id="g1675">
      <path
         d="m 66.9,132.951 c -3.999,0 -7.384,-3.081 -7.695,-7.135 -0.327,-4.255 2.858,-7.969 7.112,-8.295 20.542,-1.577 43.787,-6.243 69.09,-13.868 30.398,-9.162 59.905,-7.748 87.703,4.201 3.92,1.685 5.732,6.229 4.047,10.15 -1.685,3.921 -6.229,5.731 -10.15,4.047 -24.366,-10.475 -50.32,-11.686 -77.142,-3.604 -26.367,7.947 -50.714,12.818 -72.366,14.48 -0.2,0.017 -0.401,0.024 -0.599,0.024 z"
         fill="#8bcaff"
         id="path1673" />
    </g>
    <g
       id="g1679">
      <path
         d="m 66.9,165.788 c -3.999,0 -7.385,-3.082 -7.695,-7.136 -0.326,-4.255 2.858,-7.968 7.113,-8.294 20.537,-1.575 43.782,-6.241 69.089,-13.868 30.398,-9.162 59.905,-7.748 87.703,4.201 3.92,1.685 5.732,6.229 4.047,10.15 -1.685,3.921 -6.229,5.732 -10.15,4.047 -24.366,-10.476 -50.32,-11.685 -77.142,-3.604 -26.373,7.948 -50.72,12.82 -72.366,14.48 -0.201,0.017 -0.401,0.024 -0.599,0.024 z"
         fill="#8bcaff"
         id="path1677" />
    </g>
    <g
       id="g1683">
      <path
         d="m 66.9,329.976 c -3.999,0 -7.384,-3.082 -7.695,-7.135 -0.327,-4.255 2.858,-7.969 7.112,-8.295 20.543,-1.577 43.788,-6.243 69.089,-13.869 30.397,-9.16 59.905,-7.747 87.703,4.202 3.92,1.685 5.732,6.229 4.047,10.15 -1.685,3.92 -6.229,5.732 -10.15,4.047 -24.366,-10.474 -50.321,-11.688 -77.142,-3.605 -26.366,7.947 -50.713,12.819 -72.366,14.481 -0.199,0.017 -0.4,0.024 -0.598,0.024 z"
         fill="#8bcaff"
         id="path1681" />
    </g>
    <g
       id="g1687">
      <path
         d="m 66.9,362.814 c -3.999,0 -7.384,-3.082 -7.695,-7.135 -0.327,-4.255 2.858,-7.969 7.112,-8.295 20.542,-1.577 43.787,-6.243 69.09,-13.868 30.398,-9.162 59.905,-7.748 87.703,4.201 3.92,1.685 5.732,6.229 4.047,10.15 -1.685,3.921 -6.229,5.731 -10.15,4.047 -24.366,-10.476 -50.32,-11.685 -77.142,-3.604 -26.367,7.947 -50.714,12.818 -72.366,14.48 -0.2,0.016 -0.401,0.024 -0.599,0.024 z"
         fill="#8bcaff"
         id="path1685" />
    </g>
    <g
       id="g1691">
      <path
         d="m 66.9,198.626 c -3.999,0 -7.384,-3.082 -7.695,-7.135 -0.327,-4.255 2.858,-7.969 7.112,-8.295 20.543,-1.577 43.788,-6.243 69.089,-13.869 30.397,-9.16 59.905,-7.747 87.703,4.202 3.92,1.685 5.732,6.229 4.047,10.15 -1.685,3.92 -6.229,5.732 -10.15,4.047 -24.366,-10.474 -50.321,-11.688 -77.142,-3.605 -26.366,7.947 -50.713,12.819 -72.366,14.481 -0.199,0.017 -0.4,0.024 -0.598,0.024 z"
         fill="#8bcaff"
         id="path1689" />
    </g>
    <g
       id="g1695">
      <path
         d="m 66.9,264.301 c -3.999,0 -7.385,-3.082 -7.695,-7.136 -0.326,-4.255 2.858,-7.968 7.113,-8.295 20.537,-1.574 43.782,-6.24 69.089,-13.867 30.398,-9.163 59.905,-7.748 87.703,4.201 3.92,1.685 5.732,6.229 4.047,10.15 -1.685,3.921 -6.229,5.733 -10.15,4.047 -24.366,-10.476 -50.32,-11.685 -77.142,-3.604 -26.373,7.948 -50.72,12.82 -72.366,14.481 -0.201,0.016 -0.401,0.023 -0.599,0.023 z"
         fill="#8bcaff"
         id="path1693" />
    </g>
    <g
       id="g1699">
      <path
         d="m 66.9,231.464 c -3.999,0 -7.384,-3.081 -7.695,-7.135 -0.327,-4.255 2.858,-7.969 7.112,-8.295 20.542,-1.577 43.787,-6.243 69.09,-13.868 30.397,-9.162 59.905,-7.749 87.703,4.201 3.92,1.685 5.732,6.229 4.047,10.15 -1.685,3.921 -6.229,5.732 -10.15,4.047 -24.367,-10.476 -50.321,-11.686 -77.141,-3.604 -26.367,7.947 -50.715,12.818 -72.366,14.48 -0.201,0.017 -0.402,0.024 -0.6,0.024 z"
         fill="#8bcaff"
         id="path1697" />
    </g>
    <g
       id="g1703">
      <path
         d="m 66.9,297.138 c -3.999,0 -7.385,-3.081 -7.695,-7.136 -0.326,-4.255 2.858,-7.968 7.113,-8.295 20.54,-1.575 43.785,-6.241 69.089,-13.867 30.397,-9.16 59.905,-7.747 87.703,4.202 3.92,1.685 5.732,6.229 4.047,10.15 -1.685,3.921 -6.229,5.733 -10.15,4.047 -24.366,-10.474 -50.321,-11.687 -77.142,-3.605 -26.369,7.948 -50.716,12.82 -72.366,14.481 -0.201,0.016 -0.401,0.023 -0.599,0.023 z"
         fill="#8bcaff"
         id="path1701" />
    </g>
  </g>
</svg>
