<?xml version="1.0" encoding="UTF-8" standalone="no"?>
<svg
   xmlns:dc="http://purl.org/dc/elements/1.1/"
   xmlns:cc="http://creativecommons.org/ns#"
   xmlns:rdf="http://www.w3.org/1999/02/22-rdf-syntax-ns#"
   xmlns:svg="http://www.w3.org/2000/svg"
   xmlns="http://www.w3.org/2000/svg"
   id="svg8"
   version="1.1"
   viewBox="0 0 132.29166 66.145835"
   height="250"
   width="500">
  <defs
     id="defs2">
    <rect
       id="rect5371"
       height="48.621913"
       width="49.044713"
       y="3.382394"
       x="65.956682" />
    <rect
       id="rect952"
       height="25.607887"
       width="32.127975"
       y="1.889881"
       x="33.261906" />
    <rect
       id="rect946"
       height="20.127232"
       width="21.45015"
       y="3.0238094"
       x="23.718006" />
    <rect
       x="33.261906"
       y="1.889881"
       width="32.127975"
       height="25.607887"
       id="rect4359" />
  </defs>
  <metadata
     id="metadata5">
    <rdf:RDF>
      <cc:Work
         rdf:about="">
        <dc:format>image/svg+xml</dc:format>
        <dc:type
           rdf:resource="http://purl.org/dc/dcmitype/StillImage" />
        <dc:title></dc:title>
      </cc:Work>
    </rdf:RDF>
  </metadata>
  <g
     transform="matrix(0.11586395,0,0,0.11586395,6.2565361,-9.3924254)"
     id="g5509">
    <path
       style="fill:#df9d27"
       d="M 308.608,362.32 192.336,480.032 H 512 L 395.728,362.32 c -24.064,-24.352 -63.056,-24.352 -87.12,0 z"
       id="path5430" />
    <path
       style="fill:#e8af2a"
       d="M 145.344,332.88 0,480.032 H 399.6 L 254.256,332.896 c -30.08,-30.448 -78.832,-30.448 -108.912,-0.016 z"
       id="path5432" />
    <path
       style="fill:#7fb241"
       d="m 108.112,297.504 c -6.528,0 -11.824,5.296 -11.824,11.824 v 22.16 H 77.232 v -53.616 c 0,-8.112 -6.576,-14.688 -14.688,-14.688 -8.112,0 -14.688,6.576 -14.688,14.688 V 380.576 H 27.984 V 358.4 c 0,-6.528 -5.296,-11.824 -11.824,-11.824 -6.528,0 -11.824,5.296 -11.824,11.824 v 33.984 c 0,6.528 5.296,11.824 11.824,11.824 h 31.68 v 70.368 h 29.392 v -119.44 h 30.88 c 6.528,0 11.824,-5.296 11.824,-11.824 v -33.984 c 0,-6.528 -5.296,-11.824 -11.824,-11.824 z"
       id="path5434" />
    <path
       style="fill:#f3c432"
       d="M 512,500.32 V 431.344 C 341.328,399.536 170.672,488.496 0,459.872 v 40.448 z"
       id="path5436" />
    <g
       id="g5444">
	<path
   style="fill:#7fb241"
   d="m 495.328,381.328 h -17.952 c -2.576,0 -4.656,-2.08 -4.656,-4.656 0,-2.576 2.08,-4.656 4.656,-4.656 h 13.296 v -8.736 c 0,-2.576 2.08,-4.656 4.656,-4.656 2.576,0 4.656,2.08 4.656,4.656 v 13.392 c 0,2.576 -2.08,4.656 -4.656,4.656 z"
   id="path5438" />

	<path
   style="fill:#7fb241"
   d="m 477.376,400.672 h -18.272 c -2.576,0 -4.656,-2.08 -4.656,-4.656 v -13.392 c 0,-2.576 2.08,-4.656 4.656,-4.656 2.576,0 4.656,2.08 4.656,4.656 v 8.736 h 13.616 c 2.576,0 4.656,2.08 4.656,4.656 0,2.576 -2.08,4.656 -4.656,4.656 z"
   id="path5440" />

	<path
   style="fill:#7fb241"
   d="M 483.168,444.992 V 350.88 c 0,-3.2 -2.592,-5.792 -5.792,-5.792 -3.2,0 -5.792,2.592 -5.792,5.792 v 94.096 h 11.584 z"
   id="path5442" />

</g>
    <g
       id="g5448">
</g>
    <g
       id="g5450">
</g>
    <g
       id="g5452">
</g>
    <g
       id="g5454">
</g>
    <g
       id="g5456">
</g>
    <g
       id="g5458">
</g>
    <g
       id="g5460">
</g>
    <g
       id="g5462">
</g>
    <g
       id="g5464">
</g>
    <g
       id="g5466">
</g>
    <g
       id="g5468">
</g>
    <g
       id="g5470">
</g>
    <g
       id="g5472">
</g>
    <g
       id="g5474">
</g>
    <g
       id="g5476">
</g>
  </g>
  <g
     transform="matrix(0.10190472,0,0,0.10190472,71.652431,8.0730386)"
     id="g5626">
    <path
       style="fill:#333333"
       d="m 221.687,63.216 c 3.189,5.427 6.02,11.787 8.359,19.234 L 258.572,69.969 243.03,49.295 Z"
       id="path5511" />
    <g
       id="g5517">
	<path
   style="fill:#412559"
   d="m 279.562,95.141 c 5.046,-2.587 46.136,-15.675 63.798,-52.671 l -38.883,20.033 c -0.034,0.017 -75.867,33.204 -75.867,33.204 -0.023,0.01 -38.924,15.817 -38.924,15.817 22.869,4.181 84.83,-13.797 89.876,-16.383 z"
   id="path5513" />

	<path
   style="fill:#412559"
   d="m 198.346,11.568 c -21.129,0 -39.751,8.843 -55.565,26.338 7.776,-2.331 17.184,-4.255 27.053,-4.255 14.421,0 31.723,4.178 45.183,20.103 L 253.888,28.405 C 237.491,19.156 218.045,11.568 198.346,11.568 Z"
   id="path5515" />

</g>
    <path
       style="fill:#333333"
       d="m 264.855,167.967 c -12.632,-21.401 -9.012,-41.358 -4.05,-53.963 -25.098,7.965 -43.441,10.622 -56.731,10.622 -0.777,0 -1.535,-0.009 -2.279,-0.028 -3.924,3.738 -15.256,16.395 -18.969,40.757 6.852,-3.933 16.222,-8.073 25.634,-8.343 2.256,-0.061 4.37,1.205 5.365,3.248 0.995,2.043 0.701,4.479 -0.75,6.227 -0.407,0.506 -9.678,12.283 -5.162,30.452 4.158,-0.942 10.47,-2.471 17.434,-4.502 20.214,-5.894 38.126,-19.497 39.508,-24.47 z"
       id="path5519" />
    <g
       id="g5525">
	<path
   style="fill:#e6e6e6"
   d="m 314.927,98.708 -4.852,-5.464 c -13.616,8.283 -25.029,12.259 -26.756,12.837 -2.353,0.902 -4.657,1.764 -6.917,2.589 -3.548,5.469 -15.421,26.788 -3.063,50.717 L 309.708,156 c 2.351,-0.995 10.972,-4.964 13.808,-10.675 -3.583,0.931 -7.92,1.734 -12.252,1.734 -7.119,0 -14.191,-2.171 -17.75,-9.515 -1.394,-2.875 -0.193,-6.335 2.681,-7.727 2.875,-1.394 6.335,-0.192 7.727,2.681 2.206,4.551 11.96,3.066 18.905,0.988 -0.312,-4.676 1.185,-8.181 2.762,-10.505 4.036,-5.952 11.555,-8.776 17.426,-10.108 -7.965,-13.099 -22.66,-12.283 -23.373,-12.234 -1.795,0.112 -3.527,-0.595 -4.715,-1.931 z m -4.805,15.298 c -1.077,1.076 -2.569,1.701 -4.095,1.701 -1.515,0 -3.009,-0.625 -4.084,-1.701 -1.076,-1.076 -1.701,-2.568 -1.701,-4.084 0,-1.527 0.625,-3.019 1.701,-4.095 1.076,-1.076 2.568,-1.689 4.084,-1.689 1.526,0 3.018,0.613 4.095,1.689 1.076,1.076 1.689,2.568 1.689,4.095 0,1.516 -0.613,3.008 -1.689,4.084 z"
   id="path5521" />

	<path
   style="fill:#e6e6e6"
   d="m 392.747,247.377 c 0.036,-3.631 -0.523,-6.601 -7.752,-6.969 -6.445,-0.329 -11.964,-1.263 -16.082,-2.182 -0.345,11.369 -2.258,20.506 -4.096,26.817 26.626,-5.447 27.931,-17.532 27.93,-17.666 z"
   id="path5523" />

</g>
    <path
       style="fill:#ffaa2a"
       d="m 33.238,419.587 c -0.821,0.875 -1.175,4.089 -0.407,9.242 16.022,-8.777 56.445,-28.987 89.888,-29.491 3.186,-0.095 5.821,2.502 5.87,5.696 0.049,3.194 -2.502,5.822 -5.696,5.871 -32.557,0.489 -74.422,22.441 -87.202,29.583 1.837,5.651 4.562,12.292 8.479,19.764 l 83.091,-47.299 c 2.775,-1.583 6.308,-0.611 7.888,2.166 1.579,2.776 0.61,6.308 -2.166,7.888 l -83.095,47.3 c 4.424,7.181 8.744,12.913 12.668,17.376 12.669,-7.345 52.915,-32.132 69.955,-59.871 1.672,-2.722 5.232,-3.573 7.957,-1.901 2.722,1.672 3.573,5.233 1.902,7.955 -17.497,28.483 -55.491,52.916 -71.233,62.221 4.011,3.254 6.955,4.589 8.18,4.353 4.855,-3.187 68.986,-45.85 79.65,-80.839 L 143.456,392.352 C 107.79,383.618 38.095,417.212 33.238,419.587 Z"
       id="path5527" />
    <path
       style="fill:#808080"
       d="m 269.465,65.206 22.023,-9.635 C 285.78,50.464 276.438,42.685 264.829,35.082 l -12.085,7.883 z"
       id="path5529" />
    <path
       style="fill:#754c24"
       d="m 475.701,214.401 -74.256,42.082 c -3.09,5.384 -9.504,12.048 -22.835,16.759 0.929,0.759 1.909,1.526 2.921,2.292 l 96.646,-56.64 c 1.291,-0.736 1.723,-2.304 1.024,-3.532 -0.703,-1.23 -2.272,-1.658 -3.5,-0.961 z"
       id="path5531" />
    <path
       style="fill:#808080"
       d="m 447.197,374.72 3.828,-10.149 c -0.368,-0.199 -0.743,-0.389 -1.039,-0.541 -2.227,-1.135 -5.275,-2.691 -5.981,-6.226 -0.404,-2.029 0.175,-4.145 1.589,-5.804 2.312,-2.714 6.239,-3.872 10.394,-5.097 1.888,-0.556 5.026,-1.482 5.915,-2.141 6.183,-6.92 8.995,-14.211 8.361,-21.674 -0.489,-5.759 -2.997,-11.21 -6.19,-15.77 -1.193,6.492 -3.761,14.145 -9.157,20.54 -5.695,6.749 -13.434,10.89 -23.036,12.355 l -10.646,28.084 c 2.606,3.801 10.01,11.279 25.962,6.423 z"
       id="path5533" />
    <g
       id="g5541">
	<polygon
   style="fill:#333333"
   points="396.081,361.473 410.993,362.678 420.153,338.515 412.295,335.977 "
   id="polygon5535" />

	
		<rect
   x="151.032"
   y="396.72501"
   transform="matrix(0.4947,0.869,-0.869,0.4947,429.3643,59.7173)"
   style="fill:#333333"
   width="24.589001"
   height="4.7550001"
   id="rect5537" />

	<path
   style="fill:#333333"
   d="m 344.602,278.775 c -28.844,0.304 -49.41,-12.756 -62.083,-24.25 -15.458,-14.021 -22.606,-28.954 -22.904,-29.583 -1.363,-2.889 -0.125,-6.336 2.764,-7.699 2.885,-1.362 6.33,-0.128 7.695,2.754 0.093,0.193 6.676,13.791 20.529,26.24 17.44,15.674 38.085,22.616 61.408,20.659 1.893,-5.037 5.417,-16.569 5.39,-32.512 -8.101,-3.92 -27.987,-14.783 -35.548,-30.108 -6.121,-12.822 -12.032,-28.847 -14.729,-36.416 l -31.067,2.893 c -0.127,0.479 -0.279,0.959 -0.466,1.439 -4.405,11.268 -26.578,24.807 -44.756,30.657 -8.859,15.63 -18.362,41.89 -16.077,80.777 4.038,68.63 60.64,95.164 71.457,99.616 73.495,-25.431 107.214,-67.31 118.041,-83.599 -16.995,-4.274 -30.9,-15.106 -39.134,-22.863 -2.627,0.488 -12.218,1.907 -20.52,1.995 z"
   id="path5539" />

</g>
    <polygon
       style="fill:#ffaa2a"
       points="192.891,401.117 176.672,372.623 168.642,380.214 182.264,404.145 "
       id="polygon5543" />
    <path
       style="fill:#808080"
       d="m 394.472,330.221 c -8.47,8.818 -19.471,18.644 -33.478,28.418 l 22.048,1.781 17.883,-28.116 z"
       id="path5545" />
    <path
       style="fill:#754c24"
       d="m 193.541,378.871 2.537,4.457 38.825,-22.594 c -1.149,-1.266 -2.295,-2.58 -3.436,-3.944 z"
       id="path5547" />
    <path
       d="m 306.027,104.137 c -1.515,0 -3.009,0.613 -4.084,1.689 -1.076,1.076 -1.701,2.568 -1.701,4.095 0,1.515 0.625,3.008 1.701,4.084 1.076,1.076 2.568,1.701 4.084,1.701 1.526,0 3.018,-0.625 4.095,-1.701 1.076,-1.076 1.689,-2.568 1.689,-4.084 0,-1.527 -0.613,-3.019 -1.689,-4.095 -1.077,-1.074 -2.569,-1.689 -4.095,-1.689 z"
       id="path5549" />
    <path
       d="m 469.988,204.341 -66.27,37.557 c -1.888,-7.866 -8.25,-12.541 -18.136,-13.044 -11.127,-0.566 -19.252,-3.222 -20.361,-3.6 -2.017,-0.88 -25.796,-11.507 -32.962,-26.031 -5.601,-11.735 -11.198,-26.781 -13.947,-34.445 9.797,-5.098 21.424,-15.358 16.635,-29.364 -1.143,-3.344 -0.428,-4.987 0.211,-5.931 2.83,-4.191 12.378,-6.006 16.548,-6.228 1.801,-0.089 3.457,-1.013 4.479,-2.499 1.023,-1.485 1.292,-3.362 0.733,-5.076 -6.705,-20.511 -24.452,-26.254 -35.091,-26.625 l -2.022,-2.278 c 16.331,-11.849 33.283,-29.644 39.562,-54.768 0.552,-2.204 -0.238,-4.525 -2.019,-5.936 -1.781,-1.411 -4.22,-1.647 -6.241,-0.608 L 302.893,50.304 C 290.922,38.921 246.469,0 198.346,0 c -31.099,0 -57.217,16.129 -77.634,47.941 -1.431,2.23 -1.164,5.148 0.649,7.081 1.813,1.933 4.706,2.387 7.024,1.102 0.197,-0.109 19.917,-10.904 41.449,-10.904 24.475,0 41.106,14.052 49.499,41.771 l -45.573,18.515 c -1.652,0.671 -2.902,2.067 -3.388,3.783 -0.486,1.716 -0.154,3.56 0.9,4.997 0.869,1.185 5.091,6.108 16.577,8.71 -7.181,9.394 -16.656,26.744 -17.692,53.739 -0.088,2.275 1.17,4.391 3.209,5.403 2.043,1.011 4.485,0.732 6.244,-0.715 2.905,-2.389 10.209,-7.444 18.244,-10.455 -2.898,8.203 -4.642,20.227 0.663,34.729 0.847,2.315 3.041,3.798 5.428,3.798 0.369,0 0.744,-0.036 1.116,-0.109 0.273,-0.053 4.48,-0.885 10.732,-2.418 -7.864,17.403 -14.615,42.838 -12.587,77.336 1.572,26.739 10.454,47.521 21.218,63.199 l -36.611,21.314 -4.737,-8.321 c -0.879,-1.543 -2.418,-2.598 -4.174,-2.86 -1.758,-0.259 -3.536,0.298 -4.827,1.518 0,0 -16.762,15.871 -16.807,15.918 l -10.762,6.126 c -47.433,-10.133 -118.875,28.26 -118.968,28.313 -4.396,2.502 -8.896,8.929 -5.373,25.343 2.296,10.697 7.526,23.553 14.725,36.199 10e-4,10e-4 0.002,0.003 0.002,0.003 C 48.887,492.129 66.23,512 79.318,512 c 2.016,0 3.932,-0.472 5.712,-1.485 0.094,-0.053 0.185,-0.109 0.275,-0.168 3.017,-1.947 72.634,-47.26 84.812,-87.674 l 10.744,-6.117 c 0.069,-0.017 22.286,-6.335 22.286,-6.335 1.709,-0.487 3.098,-1.732 3.77,-3.376 0.671,-1.644 0.551,-3.506 -0.327,-5.049 l -4.793,-8.418 41.549,-24.181 c 0.723,0.661 1.443,1.308 2.154,1.931 19.308,16.871 37.905,23.457 38.687,23.729 0.614,0.214 1.257,0.32 1.901,0.32 0.627,0 1.254,-0.102 1.856,-0.305 22.339,-7.566 41.188,-16.54 57.018,-25.925 l 66.349,5.358 c 4.114,6.332 12.708,13.561 26.139,13.56 4.773,0 10.16,-0.914 16.172,-3.106 1.583,-0.577 2.835,-1.816 3.431,-3.393 l 6.024,-15.972 c 0.394,-1.046 0.477,-2.183 0.238,-3.275 -0.413,-1.895 -1.345,-3.392 -2.484,-4.591 3.698,-1.12 7.325,-2.42 9.599,-4.952 8.456,-9.416 12.28,-19.669 11.361,-30.472 -1.203,-14.143 -10.621,-26.294 -19.032,-32.952 -1.812,-1.434 -4.307,-1.652 -6.343,-0.551 -2.034,1.101 -3.216,3.309 -3.007,5.613 0.015,0.157 1.203,16.064 -7.334,26.18 -4.145,4.913 -10.098,7.807 -17.707,8.614 l -25.423,-8.21 c 10.717,-12.764 15.314,-21.865 15.786,-22.826 0.834,-1.699 0.783,-3.698 -0.135,-5.354 -0.919,-1.655 -2.588,-2.756 -4.47,-2.948 -7.883,-0.804 -15.248,-3.572 -21.74,-7.094 l 91.575,-53.669 c 6.772,-3.857 9.143,-12.503 5.289,-19.271 -3.853,-6.769 -12.501,-9.142 -19.262,-5.295 z m -101.076,33.886 c 4.119,0.919 9.637,1.854 16.082,2.182 7.229,0.368 7.788,3.337 7.752,6.969 0.001,0.134 -1.304,12.219 -27.931,17.666 1.839,-6.312 3.754,-15.448 4.097,-26.817 z M 343.017,112.872 c -5.87,1.334 -13.389,4.158 -17.426,10.108 -1.577,2.324 -3.074,5.828 -2.762,10.505 -6.944,2.078 -16.699,3.564 -18.905,-0.988 -1.393,-2.874 -4.852,-4.075 -7.727,-2.681 -2.875,1.393 -4.075,4.853 -2.681,7.727 3.56,7.343 10.63,9.515 17.75,9.515 4.332,0 8.669,-0.804 12.252,-1.734 -2.835,5.711 -11.457,9.68 -13.808,10.675 l -36.369,3.387 c -12.358,-23.929 -0.485,-45.248 3.063,-50.717 2.258,-0.824 4.562,-1.685 6.917,-2.589 1.727,-0.578 13.14,-4.554 26.756,-12.837 l 4.852,5.464 c 1.187,1.337 2.919,2.044 4.715,1.931 0.713,-0.049 15.408,-0.864 23.373,12.234 z m -51.529,-57.301 -22.023,9.635 -16.721,-22.242 12.085,-7.883 c 11.609,7.604 20.951,15.383 26.659,20.49 z m -32.915,14.4 -28.526,12.481 c -2.339,-7.448 -5.171,-13.809 -8.359,-19.234 l 21.344,-13.92 z M 215.016,53.756 C 201.557,37.83 184.254,33.653 169.833,33.653 c -9.869,0 -19.277,1.924 -27.053,4.255 15.815,-17.497 34.438,-26.339 55.566,-26.339 19.699,0 39.145,7.588 55.541,16.839 z m 13.595,41.949 c 0,0 75.834,-33.187 75.867,-33.204 l 38.883,-20.032 c -17.662,36.997 -58.752,50.084 -63.798,52.671 -5.046,2.587 -67.007,20.566 -89.876,16.383 -0.001,-10e-4 38.902,-15.807 38.924,-15.818 z m -20.697,101.234 c -4.516,-18.169 4.753,-29.946 5.162,-30.452 1.451,-1.749 1.744,-4.184 0.75,-6.227 -0.994,-2.043 -3.11,-3.31 -5.365,-3.248 -9.413,0.268 -18.782,4.409 -25.634,8.343 3.715,-24.362 15.047,-37.019 18.969,-40.757 0.744,0.019 1.502,0.028 2.279,0.028 13.291,0 31.633,-2.657 56.731,-10.622 -4.962,12.605 -8.582,32.562 4.05,53.963 -1.381,4.973 -19.294,18.577 -39.506,24.47 -6.967,2.031 -13.279,3.559 -17.436,4.502 z M 79.318,500.441 c -1.226,0.236 -4.169,-1.099 -8.18,-4.353 15.742,-9.304 53.736,-33.738 71.233,-62.221 1.672,-2.722 0.82,-6.284 -1.902,-7.955 -2.723,-1.673 -6.285,-0.821 -7.957,1.901 -17.04,27.74 -57.285,52.528 -69.955,59.872 -3.925,-4.462 -8.245,-10.194 -12.668,-17.376 l 83.095,-47.3 c 2.775,-1.58 3.745,-5.112 2.166,-7.888 -1.58,-2.775 -5.113,-3.748 -7.888,-2.166 l -83.091,47.299 c -3.917,-7.472 -6.642,-14.113 -8.479,-19.764 12.779,-7.142 54.644,-29.094 87.202,-29.583 3.194,-0.049 5.745,-2.677 5.696,-5.871 -0.049,-3.195 -2.684,-5.791 -5.87,-5.696 -33.442,0.503 -73.867,20.713 -89.888,29.491 -0.768,-5.154 -0.414,-8.367 0.407,-9.242 4.857,-2.375 74.552,-35.969 110.219,-27.233 l 15.511,27.249 c -10.665,34.986 -74.796,77.65 -79.651,80.836 z m 88.03,-89.501 -12.166,-21.37 4.133,-2.353 12.166,21.371 z m 14.916,-6.795 -13.621,-23.932 8.029,-7.591 6.387,11.221 c 0.003,0.007 0.006,0.014 0.009,0.021 l 9.822,17.254 z m 13.814,-20.818 -2.537,-4.457 37.926,-22.08 c 1.139,1.364 2.287,2.678 3.436,3.944 z m 164.916,-24.688 c 14.007,-9.775 25.008,-19.6 33.478,-28.418 l 6.452,2.083 -17.883,28.116 z m 70.888,-18.425 c 9.602,-1.465 17.341,-5.606 23.036,-12.355 5.397,-6.395 7.965,-14.048 9.157,-20.54 3.193,4.559 5.701,10.011 6.19,15.77 0.635,7.463 -2.178,14.754 -8.361,21.674 -0.89,0.659 -4.027,1.585 -5.915,2.141 -4.156,1.226 -8.081,2.384 -10.394,5.097 -1.415,1.659 -1.993,3.773 -1.589,5.804 0.704,3.535 3.754,5.09 5.981,6.226 0.297,0.152 0.671,0.342 1.039,0.541 l -3.828,10.149 c -15.952,4.856 -23.356,-2.622 -25.961,-6.421 z m -19.587,-4.237 7.858,2.538 -9.16,24.162 -14.914,-1.204 z m -8.039,-36.336 c -10.827,16.289 -44.546,58.168 -118.041,83.599 -10.819,-4.453 -67.419,-30.986 -71.457,-99.616 -2.285,-38.886 7.217,-65.146 16.077,-80.777 18.179,-5.85 40.352,-19.388 44.756,-30.657 0.187,-0.48 0.339,-0.96 0.466,-1.439 l 31.067,-2.893 c 2.695,7.57 8.607,23.594 14.729,36.416 7.561,15.325 27.448,26.188 35.548,30.108 0.027,15.944 -3.497,27.477 -5.39,32.512 -23.324,1.956 -43.968,-4.986 -61.408,-20.659 -13.853,-12.448 -20.436,-26.047 -20.529,-26.24 -1.366,-2.884 -4.81,-4.117 -7.695,-2.754 -2.889,1.363 -4.125,4.81 -2.764,7.699 0.297,0.629 7.445,15.563 22.904,29.583 12.673,11.494 33.239,24.554 62.083,24.25 8.302,-0.088 17.894,-1.507 20.521,-1.998 8.234,7.76 22.14,18.591 39.133,22.866 z m 73.92,-80.747 -96.646,56.64 c -1.012,-0.766 -1.993,-1.533 -2.921,-2.292 13.331,-4.711 19.746,-11.375 22.835,-16.759 L 475.7,214.401 c 1.23,-0.698 2.797,-0.268 3.498,0.962 0.701,1.227 0.269,2.797 -1.022,3.531 z"
       id="path5551" />
    <g
       id="g5553">
</g>
    <g
       id="g5555">
</g>
    <g
       id="g5557">
</g>
    <g
       id="g5559">
</g>
    <g
       id="g5561">
</g>
    <g
       id="g5563">
</g>
    <g
       id="g5565">
</g>
    <g
       id="g5567">
</g>
    <g
       id="g5569">
</g>
    <g
       id="g5571">
</g>
    <g
       id="g5573">
</g>
    <g
       id="g5575">
</g>
    <g
       id="g5577">
</g>
    <g
       id="g5579">
</g>
    <g
       id="g5581">
</g>
  </g>
</svg>
