<?xml version="1.0" encoding="UTF-8" standalone="no"?>
<svg
   xmlns:dc="http://purl.org/dc/elements/1.1/"
   xmlns:cc="http://creativecommons.org/ns#"
   xmlns:rdf="http://www.w3.org/1999/02/22-rdf-syntax-ns#"
   xmlns:svg="http://www.w3.org/2000/svg"
   xmlns="http://www.w3.org/2000/svg"
   width="500"
   height="250"
   viewBox="0 0 132.29166 66.145835"
   version="1.1"
   id="svg8">
  <defs
     id="defs2">
    <rect
       x="33.261906"
       y="1.889881"
       width="32.127975"
       height="25.607887"
       id="rect952" />
    <rect
       x="23.718006"
       y="3.0238094"
       width="21.45015"
       height="20.127232"
       id="rect946" />
    <rect
       id="rect952-5"
       height="25.607887"
       width="32.127975"
       y="1.889881"
       x="33.261906" />
    <rect
       id="rect1246"
       height="25.607887"
       width="32.127975"
       y="1.889881"
       x="33.261906" />
    <rect
       id="rect2592"
       height="20.127232"
       width="21.45015"
       y="3.0238094"
       x="23.718006" />
    <rect
       x="23.718006"
       y="3.0238094"
       width="21.45015"
       height="20.127232"
       id="rect2600" />
    <rect
       id="rect2608"
       height="20.127232"
       width="21.45015"
       y="3.0238094"
       x="23.718006" />
  </defs>
  <metadata
     id="metadata5">
    <rdf:RDF>
      <cc:Work
         rdf:about="">
        <dc:format>image/svg+xml</dc:format>
        <dc:type
           rdf:resource="http://purl.org/dc/dcmitype/StillImage" />
        <dc:title></dc:title>
      </cc:Work>
    </rdf:RDF>
  </metadata>
  <text
     transform="matrix(2.0049913,0,0,2.0049913,-10.004565,13.383332)"
     style="font-style:normal;font-variant:normal;font-weight:bold;font-stretch:normal;font-size:10.5833px;line-height:1.25;font-family:sans-serif;-inkscape-font-specification:'sans-serif Bold';white-space:pre;shape-inside:url(#rect946);fill:#000000;fill-opacity:1;stroke:none;"
     id="text944"
     xml:space="preserve"><tspan
       x="23.71875"
       y="12.678903"><tspan
         style="font-style:normal;font-variant:normal;font-weight:bold;font-stretch:normal;font-family:sans-serif;-inkscape-font-specification:'sans-serif Bold'">+</tspan></tspan></text>
  <g
     transform="matrix(0.54775144,0,0,0.54775144,0.27380033,14.4249)"
     id="flat">
    <path
       d="M 56,7 A 150.212,150.212 0 0 1 32,9 150.212,150.212 0 0 1 8,7 V 3 A 150.212,150.212 0 0 0 32,5 150.212,150.212 0 0 0 56,3 Z"
       fill="#98a1a1"
       id="path2427" />
    <path
       d="M 56,31 A 150.212,150.212 0 0 1 32,33 150.212,150.212 0 0 1 8,31 v -4 a 150.212,150.212 0 0 0 24,2 150.212,150.212 0 0 0 24,-2 z"
       fill="#98a1a1"
       id="path2429" />
    <path
       d="M 56.641,6.232 A 1,1 0 0 0 55.821,6.016 150.561,150.561 0 0 1 32,8 150.561,150.561 0 0 1 8.179,6.016 1,1 0 0 0 7,7 V 27 A 1,1 0 0 0 7.821,27.984 152.772,152.772 0 0 0 32,30 152.772,152.772 0 0 0 56.179,27.984 1,1 0 0 0 57,27 V 7 A 1,1 0 0 0 56.641,6.232 Z M 55,22.155 c -0.477,0.077 -1.156,0.182 -2,0.3 v -1.977 c 0.81,-0.114 1.486,-0.217 2,-0.3 z M 17,17.2 c 0.642,0.065 1.31,0.129 2,0.191 v 1.992 C 18.309,19.321 17.641,19.256 17,19.19 Z m -2,1.771 c -0.713,-0.082 -1.383,-0.165 -2,-0.244 v -1.981 c 0.622,0.079 1.289,0.161 2,0.242 z m 28,-3.42 q -0.977,0.076 -2,0.143 v -2 q 1.023,-0.066 2,-0.141 z m 2,-2.16 c 0.69,-0.062 1.358,-0.126 2,-0.191 v 1.99 c -0.641,0.066 -1.309,0.131 -2,0.193 z m -20,4.426 c 0.656,0.033 1.324,0.062 2,0.087 v 2 C 26.324,19.879 25.656,19.849 25,19.815 Z M 23,19.7 q -1.023,-0.066 -2,-0.143 v -1.996 q 0.977,0.075 2,0.141 z m 6,-1.734 q 0.992,0.023 2,0.031 v 2 Q 29.991,19.989 29,19.966 Z M 33,18 q 1.01,-0.008 2,-0.031 v 2 Q 34.01,19.992 33,20 Z m 4,-0.091 c 0.676,-0.025 1.344,-0.054 2,-0.087 v 2 c -0.656,0.034 -1.324,0.064 -2,0.089 z m 4,-0.2 q 1.023,-0.066 2,-0.141 v 1.994 q -0.977,0.077 -2,0.143 z m -2,-1.888 c -0.656,0.034 -1.324,0.064 -2,0.089 v -2 c 0.676,-0.025 1.344,-0.054 2,-0.087 z m -4,0.15 q -0.99,0.022 -2,0.031 V 14 q 1.01,-0.007 2,-0.031 z M 31,16 q -1.009,-0.007 -2,-0.031 v -2 q 0.992,0.022 2,0.031 z m -4,-0.1 c -0.676,-0.025 -1.344,-0.055 -2,-0.089 v -2 c 0.656,0.033 1.324,0.062 2,0.087 z m -4,-0.2 q -1.023,-0.066 -2,-0.143 v -1.996 q 0.977,0.075 2,0.141 z M 19,15.389 C 18.309,15.327 17.641,15.262 17,15.196 V 13.2 c 0.642,0.065 1.31,0.129 2,0.191 z m 0,6.011 v 1.992 C 18.309,23.33 17.641,23.265 17,23.199 V 21.2 c 0.642,0.069 1.31,0.133 2,0.2 z m 2,0.166 q 0.977,0.075 2,0.141 v 2 q -1.023,-0.066 -2,-0.143 z m 4,0.256 c 0.656,0.033 1.324,0.062 2,0.087 v 2 C 26.324,23.884 25.656,23.854 25,23.82 Z m 4,0.147 q 0.992,0.023 2,0.031 v 2 Q 29.991,23.992 29,23.969 Z M 33,22 q 1.01,-0.008 2,-0.031 v 2 Q 34.01,23.992 33,24 Z m 4,-0.091 c 0.676,-0.025 1.344,-0.054 2,-0.087 v 2 c -0.656,0.034 -1.324,0.064 -2,0.089 z m 4,-0.2 q 1.023,-0.066 2,-0.141 v 1.994 q -0.977,0.077 -2,0.143 z m 4,-0.307 c 0.69,-0.062 1.358,-0.126 2,-0.191 v 1.99 c -0.641,0.066 -1.309,0.131 -2,0.193 z m 0,-2.008 V 17.4 c 0.69,-0.062 1.358,-0.126 2,-0.191 v 1.99 c -0.641,0.061 -1.309,0.126 -2,0.188 z m 4,-2.4 c 0.711,-0.081 1.378,-0.163 2,-0.242 v 1.985 c -0.617,0.079 -1.287,0.162 -2,0.244 z m 0,-2.013 v -1.993 c 0.711,-0.081 1.378,-0.163 2,-0.242 v 1.985 c -0.617,0.079 -1.287,0.162 -2,0.244 z m 0,-4 V 8.988 c 0.715,-0.082 1.376,-0.163 2,-0.242 v 1.985 c -0.617,0.079 -1.287,0.162 -2,0.244 z M 47,11.2 c -0.641,0.066 -1.309,0.131 -2,0.193 V 9.394 c 0.692,-0.062 1.357,-0.126 2,-0.192 z m -4,0.361 q -0.977,0.076 -2,0.143 v -2 c 0.68,-0.044 1.35,-0.09 2,-0.14 z m -4,0.259 c -0.656,0.034 -1.324,0.064 -2,0.089 v -2 q 1.014,-0.037 2,-0.087 z m -4,0.15 q -0.99,0.022 -2,0.031 v -2 q 1.01,-0.008 2,-0.03 z M 31,12 q -1.009,-0.007 -2,-0.031 v -2 q 0.99,0.023 2,0.03 z m -4,-0.1 c -0.676,-0.025 -1.344,-0.055 -2,-0.089 v -2 q 0.986,0.05 2,0.087 z M 23,11.7 Q 21.977,11.634 21,11.557 V 9.561 c 0.65,0.05 1.32,0.1 2,0.14 z M 19,11.389 C 18.309,11.327 17.641,11.262 17,11.196 V 9.2 c 0.643,0.066 1.308,0.13 2,0.192 z M 15,10.977 C 14.287,10.895 13.617,10.812 13,10.733 V 8.746 c 0.624,0.079 1.285,0.16 2,0.242 z m 0,2.013 v 1.987 c -0.713,-0.082 -1.383,-0.165 -2,-0.244 v -1.987 c 0.622,0.079 1.289,0.161 2,0.242 z m -4,1.471 C 10.156,14.339 9.477,14.234 9,14.161 V 12.18 c 0.514,0.081 1.19,0.184 2,0.3 z m 0,2.019 v 1.981 C 10.156,18.339 9.477,18.234 9,18.161 V 16.18 c 0.514,0.081 1.19,0.184 2,0.298 z m -2,3.7 c 0.514,0.081 1.19,0.184 2,0.3 v 1.981 c -0.844,-0.122 -1.523,-0.227 -2,-0.3 z m 4,0.566 c 0.622,0.079 1.289,0.161 2,0.242 v 1.987 C 14.287,22.893 13.617,22.81 13,22.731 Z m 2,4.242 v 1.986 Q 13.928,26.849 13,26.73 v -1.984 c 0.622,0.079 1.289,0.161 2,0.242 z m 2,0.216 c 0.642,0.065 1.31,0.129 2,0.191 v 1.992 c -0.7,-0.062 -1.356,-0.128 -2,-0.194 z m 4,0.357 q 0.977,0.075 2,0.141 V 27.7 c -0.681,-0.044 -1.35,-0.091 -2,-0.141 z m 4,0.256 c 0.656,0.033 1.324,0.062 2,0.087 v 2 q -1.015,-0.039 -2,-0.089 z m 4,0.147 q 0.992,0.023 2,0.031 v 2 Q 29.991,27.987 29,27.964 Z M 33,26 q 1.01,-0.008 2,-0.031 v 2 Q 34.01,27.993 33,28 Z m 4,-0.091 c 0.676,-0.025 1.344,-0.054 2,-0.087 v 2 q -0.984,0.051 -2,0.089 z m 4,-0.2 q 1.023,-0.066 2,-0.141 v 1.994 c -0.65,0.05 -1.319,0.1 -2,0.141 z m 4,-0.307 c 0.69,-0.062 1.358,-0.126 2,-0.191 V 27.2 c -0.644,0.066 -1.3,0.132 -2,0.194 z m 4,-0.407 c 0.711,-0.081 1.378,-0.163 2,-0.242 v 1.977 q -0.928,0.12 -2,0.244 z m 0,-2.013 v -1.994 c 0.711,-0.081 1.378,-0.163 2,-0.242 v 1.985 c -0.617,0.079 -1.287,0.162 -2,0.244 z m 6,-4.82 c -0.477,0.077 -1.156,0.182 -2,0.3 v -1.984 c 0.81,-0.114 1.486,-0.217 2,-0.3 z m 0,-4 c -0.477,0.077 -1.156,0.182 -2,0.3 v -1.984 c 0.81,-0.114 1.486,-0.217 2,-0.3 z m 0,-4 c -0.477,0.077 -1.156,0.182 -2,0.3 V 8.478 c 0.8,-0.114 1.488,-0.217 2,-0.3 z M 11,8.478 v 1.981 C 10.156,10.337 9.477,10.232 9,10.159 V 8.18 c 0.512,0.081 1.2,0.184 2,0.298 z M 9,24.18 c 0.514,0.081 1.19,0.184 2,0.3 v 1.98 C 10.16,26.339 9.475,26.233 9,26.16 Z m 44,2.278 v -1.98 c 0.81,-0.114 1.486,-0.217 2,-0.3 v 1.974 c -0.475,0.079 -1.16,0.185 -2,0.306 z"
       fill="#dbdabd"
       id="path2431" />
    <path
       d="M 4,3 H 8 V 61 H 4 Z"
       fill="#32b1cc"
       id="path2433" />
    <path
       d="m 56,3 h 4 v 58 h -4 z"
       fill="#32b1cc"
       id="path2435" />
    <g
       fill="#0191b6"
       id="g2445">
      <path
         d="M 4,3 H 8 V 9 H 4 Z"
         id="path2437" />
      <path
         d="m 4,26 h 4 v 6 H 4 Z"
         id="path2439" />
      <path
         d="m 56,3 h 4 v 6 h -4 z"
         id="path2441" />
      <path
         d="m 56,26 h 4 v 6 h -4 z"
         id="path2443" />
    </g>
  </g>
  <g
     transform="matrix(0.29817681,0,0,0.29817681,61.681426,20.86356)"
     id="g2556">
    <g
       id="g2552">
      <g
         id="g2518">
        <path
           d="m 28,11 c 0.55,0 1,0.45 1,1 v 1 1 c 0,1.07 -0.84,1.94 -1.9,2 -0.03,0 -0.07,0 -0.1,0 h -3 c -0.55,0 -1,-0.45 -1,-1 0,-2.21 1.79,-4 4,-4 z"
           fill="#b27946"
           id="path2516" />
      </g>
      <g
         id="g2522">
        <path
           d="m 41,15 c 0,0.55 -0.45,1 -1,1 h -3 c -0.03,0 -0.07,0 -0.1,0 C 35.84,15.94 35,15.07 35,14 v -1 -1 c 0,-0.55 0.45,-1 1,-1 h 1 c 2.21,0 4,1.79 4,4 z"
           fill="#b27946"
           id="path2520" />
      </g>
      <g
         id="g2526">
        <path
           d="m 38,27.51 -1.74,3.77 c -0.38,0.83 -0.99,1.51 -1.73,1.98 C 33.79,33.74 32.92,34 32,34 30.17,34 28.51,32.94 27.74,31.28 L 26,27.51 24,23.16 23.38,21.82 C 23.13,21.28 23,20.69 23,20.1 23,17.87 24.79,16.05 27,16 h 0.1 C 28.16,15.94 29,15.07 29,14 V 13 12 11 C 29,10.17 29.34,9.42 29.88,8.88 29.9,8.86 29.93,8.84 29.95,8.81 30.48,8.31 31.2,8 32,8 32.8,8 33.52,8.31 34.05,8.81 34.64,9.36 35,10.14 35,11 v 1 1 1 c 0,1.07 0.84,1.94 1.9,2 H 37 c 1.09,0.03 2.08,0.48 2.8,1.2 0.74,0.74 1.2,1.77 1.2,2.9 0,0.59 -0.13,1.18 -0.38,1.72 L 40,23.16 Z"
           fill="#838f9b"
           id="path2524" />
      </g>
      <g
         id="g2530">
        <path
           d="M 38,27.51 C 37.94,32.73 37.07,32.31 37.01,40 H 37 27 26.99 C 26.93,32.31 26.06,32.73 26,27.51 l 1.74,3.77 C 28.51,32.94 30.17,34 32,34 c 0.92,0 1.79,-0.26 2.53,-0.74 0.74,-0.47 1.35,-1.15 1.73,-1.98 z"
           fill="#969faa"
           id="path2528" />
      </g>
      <g
         id="g2534">
        <path
           d="m 39.61,48.84 c -0.35,1.22 -0.75,2.27 -1.16,3.16 h -12.9 c -0.4,-0.87 -0.79,-1.89 -1.14,-3.07 l -0.06,-0.04 c 0.62,-0.93 1.16,-1.91 1.58,-2.92 L 26,46 h 12 l 0.07,-0.03 c 0.42,1 0.94,1.96 1.54,2.87 z"
           fill="#969faa"
           id="path2532" />
      </g>
      <g
         id="g2538">
        <path
           d="m 27,40 h 10 0.01 C 37,40.32 37,40.65 37,41 c 0,1.71 0.4,3.38 1.07,4.97 L 38,46 H 26 L 25.93,45.97 C 26.6,44.38 27,42.71 27,41 c 0,-0.35 0,-0.68 -0.01,-1 z"
           fill="#838f9b"
           id="path2536" />
      </g>
      <g
         id="g2542">
        <path
           d="M 36.75,54.8 C 35.61,56.23 33.84,57 32.01,57 h -0.02 c -1.83,0 -3.6,-0.77 -4.74,-2.2 -0.56,-0.7 -1.15,-1.62 -1.7,-2.8 h 12.9 c -0.55,1.19 -1.14,2.1 -1.7,2.8 z"
           fill="#838f9b"
           id="path2540" />
      </g>
      <g
         id="g2546">
        <path
           d="m 26,27.51 c 0.06,5.22 0.93,4.8 0.99,12.49 0.01,0.32 0.01,0.65 0.01,1 0,1.71 -0.4,3.38 -1.07,4.97 -0.42,1.01 -0.96,1.99 -1.58,2.92 -1.71,2.58 -4.03,4.81 -6.27,6.42 C 15.71,57 13.42,58 12,58 8,58 6,55 6,49 6,42.88 12.74,37.14 17.97,32 21.22,28.8 23.89,25.84 24,23.16 Z"
           fill="#e6e9ed"
           id="path2544" />
      </g>
      <g
         id="g2550">
        <path
           d="m 40,23.16 c 0.11,2.68 2.78,5.64 6.03,8.84 5.23,5.14 11.97,10.88 11.97,17 0,6 -2,9 -6,9 -1.42,0 -3.71,-1 -6.08,-2.69 -2.26,-1.62 -4.59,-3.86 -6.31,-6.47 -0.6,-0.91 -1.12,-1.87 -1.54,-2.87 C 37.4,44.38 37,42.71 37,41 c 0,-0.35 0,-0.68 0.01,-1 0.06,-7.69 0.93,-7.27 0.99,-12.49 z"
           fill="#e6e9ed"
           id="path2548" />
      </g>
    </g>
    <path
       d="M 56.469,27 H 63 v -2 h -7.469 l -5,6 h -4.087 c -2.858,-2.828 -5.2,-5.469 -5.418,-7.67 l 0.505,-1.094 c 0.303,-0.658 0.464,-1.387 0.467,-2.111 l 6.933,-2.388 1.022,-10.23 5.687,-4.738 -1.281,-1.536 -6.313,5.262 -0.978,9.77 -5.461,1.881 C 41.406,17.664 41.118,17.233 40.787,16.839 41.499,16.531 42,15.823 42,15 42,12.243 39.757,10 37,10 h -1 c -0.047,0 -0.091,0.011 -0.138,0.014 -0.138,-0.541 -0.387,-1.032 -0.72,-1.46 L 35.97,5.243 34.03,4.757 33.402,7.267 C 32.965,7.102 32.495,7 32,7 31.505,7 31.035,7.102 30.597,7.267 l -0.628,-2.51 -1.939,0.486 0.828,3.311 c -0.334,0.428 -0.582,0.919 -0.72,1.46 C 28.091,10.011 28.047,10 28,10 h -1 c -2.757,0 -5,2.243 -5,5 0,0.823 0.501,1.531 1.213,1.838 -0.331,0.394 -0.619,0.825 -0.82,1.307 L 16.932,16.264 15.954,6.494 9.641,1.232 8.359,2.768 l 5.687,4.738 1.022,10.23 6.933,2.388 c 0.004,0.724 0.164,1.452 0.467,2.111 l 0.505,1.094 c -0.218,2.2 -2.56,4.841 -5.418,7.67 h -4.087 l -5,-6 H 1 v 2 h 6.531 l 5,6 H 15.5 C 10.578,37.749 5,43.132 5,49 c 0,8.265 3.807,10 7,10 1.328,0 3.32,-0.754 5.451,-2.073 l 0.489,1.957 -1.835,3.669 1.789,0.895 2.165,-4.331 -0.847,-3.39 c 1.704,-1.269 3.406,-2.857 4.853,-4.68 0.654,1.729 1.457,3.196 2.399,4.374 1.311,1.639 3.327,2.579 5.542,2.579 2.203,0 4.219,-0.94 5.53,-2.579 0.941,-1.177 1.742,-2.647 2.396,-4.377 1.447,1.824 3.15,3.413 4.856,4.683 l -0.847,3.39 2.165,4.331 1.789,-0.895 -1.835,-3.669 0.489,-1.957 C 48.68,58.246 50.672,59 52,59 55.193,59 59,57.265 59,49 59,43.132 53.422,37.749 48.5,33 h 2.969 z M 27.1,17 v -0.01 c 1.272,-0.043 2.336,-0.878 2.729,-2.03 V 15 h 4.344 v -0.04 c 0.392,1.151 1.456,1.987 2.729,2.03 V 17 c 1.709,0 3.1,1.391 3.1,3.1 0,0.445 -0.099,0.894 -0.285,1.299 l -4.366,9.459 C 34.749,32.159 33.434,33 32,33 30.566,33 29.251,32.159 28.651,30.857 L 24.285,21.399 C 24.099,20.994 24,20.544 24,20.1 24,18.391 25.391,17 27.1,17 Z m 8.919,22 H 27.98 C 27.917,35.813 27.704,34.137 27.493,32.758 28.556,34.143 30.212,35 32,35 c 1.788,0 3.444,-0.857 4.507,-2.242 -0.212,1.379 -0.425,3.055 -0.488,6.242 z M 28,41 h 8 c 0,1.372 0.233,2.71 0.635,4 h -9.27 C 27.767,43.71 28,42.372 28,41 Z m 9,-29 c 1.654,0 3,1.346 3.001,3 H 37 c -0.552,0 -1,-0.449 -1,-1 v -1 -1 z m -3,-1 v 1 1 h -4 v -1 -1 c 0,-1.103 0.897,-2 2,-2 1.103,0 2,0.897 2,2 z m -7,1 h 1 v 1 1 c 0,0.551 -0.448,1 -1,1 h -3 c 0,-1.654 1.346,-3 3,-3 z M 12,57 c -2.146,0 -5,-0.829 -5,-8 0,-5.02 5.255,-10.09 9.892,-14.563 2.997,-2.892 5.713,-5.513 7.112,-8.045 -0.44,3.046 -3.397,6.359 -6.27,9.572 -3.453,3.864 -7.024,7.859 -7.024,12.082 0,3.385 1.864,6.056 1.943,6.168 l 1.634,-1.154 c -0.016,-0.022 -1.577,-2.282 -1.577,-5.014 0,-3.458 3.313,-7.165 6.516,-10.749 0.39,-0.436 0.781,-0.875 1.169,-1.315 -0.147,0.232 -0.294,0.464 -0.441,0.694 -2.005,3.134 -3.898,6.094 -3.953,9.307 -0.028,1.669 0.513,3.553 1.564,5.447 l 1.748,-0.971 C 18.432,48.872 17.978,47.335 18,46.017 c 0.045,-2.646 1.79,-5.375 3.638,-8.263 1.366,-2.136 2.756,-4.32 3.59,-6.64 0.064,0.503 0.135,0.966 0.209,1.433 C 25.7,34.224 26,36.124 26,41 26,49.62 15.328,57 12,57 Z M 31.994,56 C 30.426,56 28.942,55.316 28.026,54.172 27.741,53.815 27.471,53.422 27.213,53 h 9.573 c -0.257,0.422 -0.528,0.815 -0.814,1.171 C 35.058,55.316 33.574,56 31.994,56 Z m 5.788,-5 H 26.217 C 25.956,50.381 25.713,49.724 25.496,49.016 25.902,48.364 26.271,47.692 26.593,47 h 10.815 c 0.321,0.691 0.69,1.363 1.095,2.013 -0.218,0.709 -0.46,1.368 -0.721,1.987 z M 57,49 c 0,7.171 -2.854,8 -5,8 -3.328,0 -14,-7.38 -14,-16 0,-4.876 0.3,-6.776 0.563,-8.453 0.074,-0.468 0.145,-0.93 0.209,-1.433 0.833,2.32 2.223,4.504 3.59,6.64 1.848,2.889 3.593,5.617 3.638,8.263 0.022,1.318 -0.432,2.854 -1.313,4.442 l 1.748,0.971 c 1.052,-1.894 1.593,-3.777 1.564,-5.447 -0.055,-3.212 -1.948,-6.173 -3.953,-9.307 -0.147,-0.23 -0.294,-0.462 -0.441,-0.694 0.388,0.44 0.779,0.878 1.169,1.315 3.203,3.584 6.516,7.29 6.516,10.749 0,2.732 -1.562,4.992 -1.576,5.012 l 1.633,1.156 c 0.079,-0.112 1.943,-2.783 1.943,-6.168 0,-4.222 -3.571,-8.218 -7.024,-12.082 -2.872,-3.213 -5.83,-6.526 -6.27,-9.572 1.4,2.532 4.115,5.153 7.112,8.045 C 51.745,38.91 57,43.98 57,49 Z"
       id="path2554" />
  </g>
  <text
     transform="matrix(2.6448665,0,0,2.6448665,45.734941,8.0434053)"
     style="font-style:normal;font-variant:normal;font-weight:bold;font-stretch:normal;font-size:10.5833px;line-height:1.25;font-family:sans-serif;-inkscape-font-specification:'sans-serif Bold';white-space:pre;shape-inside:url(#rect2600);fill:#000000;fill-opacity:1;stroke:none;"
     id="text2598"
     xml:space="preserve"><tspan
       x="23.71875"
       y="12.678903"><tspan>X</tspan></tspan></text>
  <text
     xml:space="preserve"
     id="text2606"
     style="font-style:normal;font-variant:normal;font-weight:bold;font-stretch:normal;font-size:10.5833px;line-height:1.25;font-family:sans-serif;-inkscape-font-specification:'sans-serif Bold';white-space:pre;shape-inside:url(#rect2608);fill:#000000;fill-opacity:1;stroke:none;"
     transform="matrix(2.0049913,0,0,2.0049913,38.1449,13.383332)"><tspan
       x="23.71875"
       y="12.678903"><tspan
         style="font-style:normal;font-variant:normal;font-weight:bold;font-stretch:normal;font-family:sans-serif;-inkscape-font-specification:'sans-serif Bold'">+</tspan></tspan></text>
</svg>
