<?xml version="1.0" encoding="UTF-8" standalone="no"?>
<svg
   xmlns:dc="http://purl.org/dc/elements/1.1/"
   xmlns:cc="http://creativecommons.org/ns#"
   xmlns:rdf="http://www.w3.org/1999/02/22-rdf-syntax-ns#"
   xmlns:svg="http://www.w3.org/2000/svg"
   xmlns="http://www.w3.org/2000/svg"
   id="svg8"
   version="1.1"
   viewBox="0 0 132.29166 66.145835"
   height="250"
   width="500">
  <defs
     id="defs2">
    <rect
       id="rect5371"
       height="48.621913"
       width="49.044713"
       y="3.382394"
       x="65.956682" />
    <rect
       id="rect952"
       height="25.607887"
       width="32.127975"
       y="1.889881"
       x="33.261906" />
    <rect
       id="rect946"
       height="20.127232"
       width="21.45015"
       y="3.0238094"
       x="23.718006" />
    <rect
       x="33.261906"
       y="1.889881"
       width="32.127975"
       height="25.607887"
       id="rect4359" />
  </defs>
  <metadata
     id="metadata5">
    <rdf:RDF>
      <cc:Work
         rdf:about="">
        <dc:format>image/svg+xml</dc:format>
        <dc:type
           rdf:resource="http://purl.org/dc/dcmitype/StillImage" />
        <dc:title></dc:title>
      </cc:Work>
    </rdf:RDF>
  </metadata>
  <g
     transform="matrix(0.1124061,0,0,0.1124061,8.3704535,4.428601)"
     id="g6417">
    <path
       d="m 182.468,341.254 h 158.361 v 117.46 H 182.468 Z"
       fill="#aaaaaa"
       id="path6302" />
    <g
       fill="#cbcbcb"
       id="g6314">
      <path
         d="m 174.38,474.002 c -8.442,0 -15.286,-6.844 -15.286,-15.285 V 357.114 h 30.571 v 101.602 c 0.001,8.442 -6.843,15.286 -15.285,15.286 z"
         id="path6304" />
      <path
         d="m 228.794,474.002 c -8.442,0 -15.286,-6.844 -15.286,-15.285 V 357.114 h 30.571 v 101.602 c 0.001,8.442 -6.843,15.286 -15.285,15.286 z"
         id="path6306" />
      <path
         d="m 283.208,474.002 c -8.442,0 -15.286,-6.844 -15.286,-15.285 V 357.114 h 30.571 v 101.602 c 0.001,8.442 -6.843,15.286 -15.285,15.286 z"
         id="path6308" />
      <path
         d="m 337.622,474.002 c -8.442,0 -15.286,-6.844 -15.286,-15.285 V 357.114 h 30.571 v 101.602 c 0.001,8.442 -6.843,15.286 -15.285,15.286 z"
         id="path6310" />
      <path
         d="m 308.071,296.528 c 0,-43.302 35.229,-78.53 78.53,-78.53 43.301,0 78.53,35.228 78.53,78.53 0,43.302 -35.229,78.53 -78.53,78.53 -43.301,0 -78.53,-35.229 -78.53,-78.53 z m 30.933,0 c 0,26.245 21.352,47.596 47.596,47.596 26.244,0 47.596,-21.352 47.596,-47.596 0,-26.245 -21.352,-47.596 -47.596,-47.596 -26.244,0 -47.596,21.351 -47.596,47.596 z"
         id="path6312" />
    </g>
    <path
       d="m 392.082,343.799 c 1.8,0.207 3.627,0.325 5.481,0.325 26.245,0 47.596,-21.352 47.596,-47.596 0,-26.245 -21.352,-47.596 -47.596,-47.596 -1.855,0 -3.681,0.118 -5.481,0.325 23.671,2.728 42.115,22.881 42.115,47.271 0,24.39 -18.444,44.543 -42.115,47.271 z"
       fill="#aaaaaa"
       id="path6316" />
    <path
       d="M 283.308,127.117 H 443.171 V 246.406 H 283.308 Z"
       fill="#cbcbcb"
       transform="matrix(-0.707,-0.707,0.707,-0.707,488.029,575.671)"
       id="path6318" />
    <path
       d="m 297.014,86.954 h 32.115 v 119.289 h -32.115 z"
       fill="#aaaaaa"
       transform="matrix(-0.707,-0.707,0.707,-0.707,430.786,471.634)"
       id="path6320" />
    <path
       d="m 506.067,178.852 -12.929,17.544 -9.282,12.568 -14.587,19.79 L 321.252,80.727 341.031,66.15 353.61,56.868 371.154,43.939 c 12.105,-8.932 28.928,-7.665 39.559,2.967 l 92.376,92.377 c 10.643,10.641 11.9,27.454 2.978,39.569 z"
       fill="#da4a54"
       id="path6322" />
    <path
       d="M 359.311,118.789 321.252,80.73 371.148,43.93 c 12.116,-8.919 28.923,-7.661 39.564,2.98 L 448.77,84.968 C 438.139,74.327 421.322,73.069 409.206,81.998 Z"
       fill="#c32430"
       id="path6324" />
    <path
       d="m 125.402,375.058 c -43.301,0 -78.53,-35.228 -78.53,-78.53 0,-43.302 35.229,-78.53 78.53,-78.53 43.301,0 78.53,35.228 78.53,78.53 0,43.302 -35.229,78.53 -78.53,78.53 z m 0,-126.127 c -26.245,0 -47.596,21.352 -47.596,47.596 0,26.245 21.352,47.596 47.596,47.596 26.244,0 47.596,-21.352 47.596,-47.596 0,-26.244 -21.352,-47.596 -47.596,-47.596 z"
       fill="#cbcbcb"
       id="path6326" />
    <path
       d="m 59.893,296.528 c 0,-41.104 31.75,-74.946 72.02,-78.263 -2.143,-0.175 -4.316,-0.268 -6.511,-0.268 -43.299,0 -78.531,35.232 -78.531,78.531 0,43.299 35.232,78.531 78.531,78.531 2.194,0 4.368,-0.093 6.511,-0.268 -40.269,-3.317 -72.02,-37.159 -72.02,-78.263 z"
       fill="#aaaaaa"
       id="path6328" />
    <path
       d="M 68.831,127.117 H 228.694 V 246.406 H 68.831 Z"
       fill="#cbcbcb"
       transform="matrix(0.707,-0.707,0.707,0.707,-88.489,159.892)"
       id="path6330" />
    <path
       d="m 87.539,172.282 h 32.115 V 291.571 H 87.539 Z"
       fill="#aaaaaa"
       transform="matrix(0.707,-0.707,0.707,0.707,-133.654,141.184)"
       id="path6332" />
    <path
       d="m 278.184,158.777 h -44.366 l -113.04,113.04 38.317,118.973 h 96.906 96.907 l 38.316,-118.973"
       fill="#e2dfe2"
       id="path6334" />
    <path
       d="m 131.358,215.784 c -5.853,5.853 -15.342,5.853 -21.195,0 l -27.233,-27.233 21.195,-21.195 27.233,27.233 c 5.852,5.852 5.852,15.342 0,21.195 z"
       fill="#818181"
       id="path6336" />
    <path
       d="m 177.785,169.356 c -5.853,5.853 -15.342,5.853 -21.195,0 l -27.233,-27.233 21.195,-21.195 27.233,27.233 c 5.853,5.853 5.853,15.342 0,21.195 z"
       fill="#818181"
       id="path6338" />
    <path
       d="M 190.749,80.727 42.732,228.754 28.145,208.964 18.863,196.396 5.934,178.852 c -8.921,-12.115 -7.665,-28.928 2.977,-39.569 l 92.376,-92.377 c 10.642,-10.631 27.454,-11.899 39.559,-2.967 l 17.544,12.929 12.579,9.272 z"
       fill="#da4a54"
       id="path6340" />
    <path
       d="M 80.79,190.691 42.732,228.749 5.932,178.853 C -2.987,166.737 -1.729,149.93 8.912,139.289 L 46.97,101.231 C 36.328,111.862 35.07,128.679 44,140.795 Z"
       fill="#c32430"
       id="path6342" />
    <path
       d="m 380.645,215.784 c 5.853,5.853 15.342,5.853 21.195,0 l 27.233,-27.233 -21.195,-21.195 -27.233,27.233 c -5.853,5.852 -5.853,15.342 0,21.195 z"
       fill="#818181"
       id="path6344" />
    <path
       d="m 334.218,169.356 c 5.853,5.853 15.342,5.853 21.195,0 l 27.233,-27.233 -21.195,-21.195 -27.233,27.233 c -5.853,5.853 -5.853,15.342 0,21.195 z"
       fill="#818181"
       id="path6346" />
    <path
       d="M 170.969,66.139 28.145,208.964 18.863,196.396 158.391,56.868 Z"
       fill="#c32430"
       id="path6348" />
    <path
       d="M 493.138,196.396 483.856,208.964 341.032,66.15 353.61,56.868 Z"
       fill="#c32430"
       id="path6350" />
    <circle
       cx="256.00101"
       cy="257.94601"
       fill="#818181"
       r="36.002998"
       id="circle6352" />
    <circle
       cx="352.90799"
       cy="342.29501"
       fill="#818181"
       r="48.494999"
       id="circle6354" />
    <circle
       cx="173.55299"
       cy="368.92999"
       fill="#818181"
       r="58.157001"
       id="circle6356" />
    <circle
       cx="173.55299"
       cy="368.92999"
       fill="#e2dfe2"
       r="15.594"
       id="circle6358" />
    <circle
       cx="352.90799"
       cy="342.29501"
       fill="#e2dfe2"
       r="15.594"
       id="circle6360" />
    <path
       d="m 127.931,340.589 c -2.007,0 -4.011,-0.777 -5.525,-2.324 -2.983,-3.051 -2.929,-7.943 0.122,-10.926 L 226.447,225.724 c 3.051,-2.984 7.943,-2.928 10.926,0.122 2.983,3.051 2.929,7.943 -0.122,10.926 L 133.333,338.386 c -1.503,1.47 -3.453,2.203 -5.402,2.203 z"
       fill="#544f57"
       id="path6362" />
    <path
       d="m 372.778,305.79 c -1.564,0 -3.143,-0.473 -4.509,-1.457 l -92.197,-66.409 c -3.463,-2.494 -4.247,-7.323 -1.754,-10.785 2.494,-3.462 7.322,-4.247 10.785,-1.754 l 92.197,66.409 c 3.463,2.494 4.247,7.323 1.754,10.785 -1.51,2.096 -3.875,3.211 -6.276,3.211 z"
       fill="#544f57"
       id="path6364" />
    <path
       d="m 213.509,418.916 c -2.003,0 -4.004,-0.774 -5.517,-2.316 -2.988,-3.047 -2.94,-7.938 0.106,-10.926 l 103.53,-101.532 c 3.047,-2.988 7.939,-2.94 10.926,0.106 2.988,3.047 2.94,7.938 -0.106,10.926 l -103.53,101.532 c -1.504,1.475 -3.457,2.21 -5.409,2.21 z"
       fill="#544f57"
       id="path6366" />
    <path
       d="m 256.001,301.675 c -24.113,0 -43.729,-19.617 -43.729,-43.73 0,-24.112 19.617,-43.729 43.729,-43.729 24.112,0 43.73,19.617 43.73,43.729 0,24.113 -19.617,43.73 -43.73,43.73 z m 0,-72.006 c -15.592,0 -28.277,12.685 -28.277,28.277 0,15.592 12.685,28.277 28.277,28.277 15.592,0 28.277,-12.685 28.277,-28.277 0,-15.592 -12.685,-28.277 -28.277,-28.277 z"
       fill="#736e6e"
       id="path6368" />
    <path
       d="m 352.908,398.516 c -31.001,0 -56.221,-25.221 -56.221,-56.221 0,-31 25.221,-56.221 56.221,-56.221 31,0 56.221,25.221 56.221,56.221 0,31 -25.221,56.221 -56.221,56.221 z m 0,-96.99 c -22.48,0 -40.769,18.289 -40.769,40.769 0,22.48 18.289,40.769 40.769,40.769 22.48,0 40.769,-18.289 40.769,-40.769 0,-22.48 -18.289,-40.769 -40.769,-40.769 z"
       fill="#736e6e"
       id="path6370" />
    <path
       d="m 173.553,434.814 c -36.328,0 -65.883,-29.555 -65.883,-65.883 0,-36.328 29.555,-65.883 65.883,-65.883 36.328,0 65.883,29.555 65.883,65.883 0,36.327 -29.555,65.883 -65.883,65.883 z m 0,-116.314 c -27.807,0 -50.431,22.623 -50.431,50.43 0,27.808 22.623,50.431 50.431,50.431 27.808,0 50.431,-22.623 50.431,-50.431 -0.001,-27.807 -22.624,-50.43 -50.431,-50.43 z"
       fill="#736e6e"
       id="path6372" />
  </g>
  <g
     transform="matrix(0.07878284,0,0,0.07878284,81.914472,13.444172)"
     id="g6452">
    <path
       d="m 100.562,168.314 c 0,0 3.613,-144.478 136.57,-166.042 C 370.089,-19.292 412,117.28 412,214.317 412,311.354 310.837,381.078 269.649,460.145 228.461,539.212 135.969,514.773 115.736,473.083 95.503,431.393 100.562,168.314 100.562,168.314 Z"
       fill="#fdba91"
       id="path6440" />
    <path
       d="m 248.35,0.817 c 99.794,10.718 132.657,127.591 132.657,213.5 0,97.037 -101.163,166.761 -142.351,245.828 -16.254,31.202 -40.497,46.275 -65.136,50.54 33.624,5.641 72.98,-6.101 96.13,-50.54 C 310.837,381.078 412,311.354 412,214.317 412,120.065 372.452,-11.468 248.35,0.817 Z"
       fill="#fc997d"
       id="path6442" />
    <path
       d="m 207.316,252.873 c 10.982,-37.34 -66.727,-72.551 -40.189,-149.112 13.73,-39.611 44.767,-67.355 88.669,-67.355 73.024,0 103.806,93.388 103.806,162.3 0,57.301 -61.923,175.763 -162.122,175.763 -39.627,0 -44.406,-33.152 -44.406,-55.699 10e-4,-41.626 43.26,-28.557 54.242,-65.897 z"
       fill="#fc997d"
       id="path6444" />
    <g
       fill="#eb866c"
       id="g6450">
      <path
         d="m 255.796,36.406 c -5.643,0 -11.07,0.466 -16.278,1.349 62.461,11.626 89.091,96.865 89.091,160.951 0,53.723 -54.431,161.207 -143.805,174.421 3.773,0.862 7.972,1.342 12.677,1.342 100.199,0 162.122,-118.462 162.122,-175.763 0,-68.911 -30.782,-162.3 -103.807,-162.3 z"
         id="path6446" />
      <path
         d="m 278.43,264.29 c -1.164,3.952 -5.327,6.251 -9.32,5.07 -3.97,-1.18 -6.24,-5.35 -5.06,-9.32 0.07,-0.26 7.65,-26.86 -3.21,-44.64 -4.96,-8.13 -12.95,-13.15 -24.43,-15.37 -33.36,-6.43 -54.14,-17.41 -65.12,-24.85 -3.95,-8.22 -7.09,-17.09 -8.64,-26.76 10.266,9.099 26.793,27.276 76.6,36.89 15.67,3.02 27.25,10.54 34.44,22.34 14.29,23.52 5.14,55.3 4.74,56.64 z"
         id="path6448" />
    </g>
  </g>
</svg>
