<?xml version="1.0" encoding="UTF-8" standalone="no"?>
<svg
   xmlns:dc="http://purl.org/dc/elements/1.1/"
   xmlns:cc="http://creativecommons.org/ns#"
   xmlns:rdf="http://www.w3.org/1999/02/22-rdf-syntax-ns#"
   xmlns:svg="http://www.w3.org/2000/svg"
   xmlns="http://www.w3.org/2000/svg"
   id="svg8"
   version="1.1"
   viewBox="0 0 132.29166 66.145835"
   height="250"
   width="500">
  <defs
     id="defs2">
    <rect
       id="rect8007"
       height="36.783534"
       width="39.32033"
       y="5.9191895"
       x="36.783534" />
    <rect
       id="rect7100"
       height="24.522356"
       width="32.132743"
       y="18.180368"
       x="5.7077898" />
    <rect
       id="rect5371"
       height="48.621913"
       width="49.044713"
       y="3.382394"
       x="65.956682" />
    <rect
       id="rect952"
       height="25.607887"
       width="32.127975"
       y="1.889881"
       x="33.261906" />
    <rect
       id="rect946"
       height="20.127232"
       width="21.45015"
       y="3.0238094"
       x="23.718006" />
    <rect
       x="33.261906"
       y="1.889881"
       width="32.127975"
       height="25.607887"
       id="rect4359" />
    <rect
       x="5.7077898"
       y="18.180368"
       width="32.132743"
       height="24.522356"
       id="rect7340" />
  </defs>
  <metadata
     id="metadata5">
    <rdf:RDF>
      <cc:Work
         rdf:about="">
        <dc:format>image/svg+xml</dc:format>
        <dc:type
           rdf:resource="http://purl.org/dc/dcmitype/StillImage" />
        <dc:title></dc:title>
      </cc:Work>
    </rdf:RDF>
  </metadata>
  <g
     transform="matrix(0.10562122,0,0,0.10562122,9.2159982,6.5735056)"
     id="g8386">
    <path
       style="fill:#0e9347"
       d="M 488.727,325.818 H 23.273 C 10.473,325.818 0,315.345 0,302.545 v -256 C 0,33.745 10.473,23.272 23.273,23.272 h 465.455 c 12.8,0 23.273,10.473 23.273,23.273 v 256 c -10e-4,12.8 -10.474,23.273 -23.274,23.273 z"
       id="path8208" />
    <path
       style="fill:#0d8944"
       d="m 430.545,232.727 c -26.764,0 -51.2,12.8 -65.164,33.745 C 353.745,260.655 340.945,256 325.818,256 c -40.727,0 -74.473,30.255 -80.291,69.818 h 243.2 c 11.636,0 20.945,-8.145 23.273,-19.782 -4.655,-40.727 -39.564,-73.309 -81.455,-73.309 z"
       id="path8210" />
    <path
       style="fill:#3bb54a"
       d="M 442.182,302.545 H 69.818 C 69.818,276.945 48.873,256 23.273,256 V 93.091 c 25.6,0 46.545,-20.945 46.545,-46.545 h 372.364 c 0,25.6 20.945,46.545 46.545,46.545 V 256 c -25.6,0 -46.545,20.945 -46.545,46.545 z"
       id="path8212" />
    <g
       id="g8222">
	<path
   style="fill:#0e9347"
   d="m 430.545,232.727 c -26.764,0 -51.2,12.8 -65.164,33.745 C 353.745,260.655 340.945,256 325.818,256 c -32.582,0 -60.509,18.618 -73.309,46.545 h 189.673 c 0,-25.6 19.782,-45.382 45.382,-46.545 -15.128,-13.964 -34.909,-23.273 -57.019,-23.273 z"
   id="path8214" />

	<ellipse
   style="fill:#0e9347"
   cx="256"
   cy="174.545"
   rx="93.091003"
   ry="104.727"
   id="ellipse8216" />

	<circle
   style="fill:#0e9347"
   cx="116.364"
   cy="174.545"
   r="23.273001"
   id="circle8218" />

	<circle
   style="fill:#0e9347"
   cx="395.63599"
   cy="174.545"
   r="23.273001"
   id="circle8220" />

</g>
    <path
       style="fill:#89c763"
       d="m 267.636,162.909 h -23.273 c -6.982,0 -11.636,-4.655 -11.636,-11.636 0,-6.982 4.655,-11.636 11.636,-11.636 h 34.909 c 6.982,0 11.636,-4.655 11.636,-11.636 0,-6.982 -4.655,-11.636 -11.636,-11.636 h -11.636 c 0,-6.982 -4.655,-11.636 -11.636,-11.636 -6.982,0 -11.636,4.655 -11.636,11.636 -19.782,0 -34.909,15.127 -34.909,34.909 0,19.782 15.127,34.909 34.909,34.909 h 23.273 c 6.982,0 11.636,4.655 11.636,11.636 0,6.982 -4.655,11.636 -11.636,11.636 h -34.909 c -6.982,0 -11.636,4.655 -11.636,11.636 0,6.982 4.655,11.636 11.636,11.636 h 11.636 c 0,6.982 4.655,11.636 11.636,11.636 6.982,0 11.636,-4.655 11.636,-11.636 19.782,0 34.909,-15.127 34.909,-34.909 0,-19.782 -15.127,-34.909 -34.909,-34.909 z"
       id="path8224" />
    <circle
       style="fill:#ffca5d"
       cx="302.54501"
       cy="337.45499"
       r="81.455002"
       id="circle8226" />
    <circle
       style="fill:#f6b545"
       cx="407.27301"
       cy="314.18201"
       r="81.455002"
       id="circle8228" />
    <path
       style="fill:#ffcb5b"
       d="m 407.273,232.727 c -45.382,0 -81.455,36.073 -81.455,81.455 0,45.382 36.073,81.455 81.455,81.455 45.382,0 81.455,-36.073 81.455,-81.455 0,-45.382 -36.073,-81.455 -81.455,-81.455 z m 0,139.637 c -32.582,0 -58.182,-25.6 -58.182,-58.182 0,-32.582 25.6,-58.182 58.182,-58.182 32.582,0 58.182,25.6 58.182,58.182 0,32.582 -25.6,58.182 -58.182,58.182 z"
       id="path8230" />
    <path
       style="fill:#f6b545"
       d="m 407.273,394.473 v 0 c 45.382,1.164 81.455,-36.073 81.455,-80.291 h -1.164 c -5.818,0 -10.473,4.655 -11.636,10.473 -2.327,16.291 -10.473,31.418 -22.109,41.891 -9.309,9.309 -22.109,15.127 -36.073,17.454 -5.819,0 -10.473,4.655 -10.473,10.473 z"
       id="path8232" />
    <path
       style="fill:#ffe27a"
       d="m 407.273,233.891 v 0 c -45.382,-1.164 -81.455,36.073 -81.455,80.291 h 1.164 c 5.818,0 10.473,-4.655 11.636,-10.473 2.327,-16.291 10.473,-31.418 22.109,-41.891 9.309,-9.309 22.109,-15.127 36.073,-17.455 5.818,0.001 10.473,-4.654 10.473,-10.472 z"
       id="path8234" />
    <path
       style="fill:#f19920"
       d="m 357.236,322.327 c 0,-32.582 25.6,-58.182 58.182,-58.182 13.964,0 26.764,4.655 37.236,13.964 C 441.018,264.145 425.891,256 407.273,256 c -32.582,0 -58.182,25.6 -58.182,58.182 0,18.618 8.145,33.745 20.945,44.218 -8.145,-9.309 -12.8,-22.109 -12.8,-36.073 z"
       id="path8236" />
    <path
       style="fill:#ffcb5b"
       d="m 442.182,350.255 c -1.164,0 -2.327,0 -3.491,-1.164 -2.327,-2.327 -2.327,-5.818 0,-8.145 6.982,-6.982 10.473,-17.455 10.473,-26.764 0,-3.491 2.327,-5.818 5.818,-5.818 3.491,0 5.818,2.327 5.818,5.818 0,12.8 -4.655,25.6 -12.8,34.909 -2.327,1.164 -4.655,1.164 -5.818,1.164 z"
       id="path8238" />
    <g
       id="g8244">
	<path
   style="fill:#f19920"
   d="m 407.273,349.091 c -6.982,0 -11.636,-4.655 -11.636,-11.636 V 290.91 c 0,-6.982 4.655,-11.636 11.636,-11.636 6.981,0 11.636,4.655 11.636,11.636 v 46.545 c 0,6.981 -4.654,11.636 -11.636,11.636 z"
   id="path8240" />

	<path
   style="fill:#f19920"
   d="M 450.327,382.836 C 442.182,353.745 421.236,330.472 394.472,320 c -4.655,-26.764 -22.109,-50.036 -44.218,-64 -13.964,15.127 -23.273,34.909 -23.273,57.018 0,45.382 36.073,81.455 81.455,81.455 15.128,1.163 29.091,-3.491 41.891,-11.637 z"
   id="path8242" />

</g>
    <g
       id="g8250">
	<path
   style="fill:#e78825"
   d="m 370.036,358.4 c -8.145,-10.473 -13.964,-23.273 -13.964,-37.236 0,-16.291 6.982,-31.418 18.618,-41.891 -2.327,-3.491 -4.655,-5.818 -6.982,-8.145 -11.636,10.473 -18.618,25.6 -18.618,43.055 0.001,18.617 8.146,33.744 20.946,44.217 z"
   id="path8246" />

	<path
   style="fill:#e78825"
   d="m 395.636,321.164 v 16.291 c 0,6.982 4.655,11.636 11.636,11.636 6.981,0 11.636,-4.655 11.636,-11.636 v -2.327 c -6.981,-5.819 -15.126,-10.473 -23.272,-13.964 z"
   id="path8248" />

</g>
    <path
       style="fill:#f6b545"
       d="m 450.327,382.836 c -2.327,-8.145 -4.655,-15.127 -9.309,-22.109 -9.309,6.982 -20.945,11.636 -33.745,11.636 -32.582,0 -58.182,-25.6 -58.182,-58.182 0,-17.455 6.982,-32.582 18.618,-43.055 -5.818,-5.818 -11.636,-10.473 -18.618,-13.964 -13.964,15.127 -23.273,34.909 -23.273,57.018 0,45.382 36.073,81.455 81.455,81.455 16.291,0.001 30.254,-4.653 43.054,-12.799 z"
       id="path8252" />
    <path
       style="fill:#f19920"
       d="m 446.836,372.364 c -8.145,5.818 -18.618,9.309 -29.091,11.636 -5.818,1.164 -10.473,5.818 -10.473,11.636 v 0 c 16.291,0 30.255,-4.655 43.055,-12.8 -1.163,-3.491 -2.327,-6.981 -3.491,-10.472 z"
       id="path8254" />
    <path
       style="fill:#ffcb5b"
       d="m 349.091,257.164 c -13.964,15.127 -23.273,34.909 -23.273,57.018 h 1.164 c 5.818,0 10.473,-4.655 11.636,-10.473 2.327,-16.291 10.473,-30.255 20.945,-40.727 -3.49,-1.164 -6.981,-3.491 -10.472,-5.818 z"
       id="path8256" />
    <circle
       style="fill:#f6b545"
       cx="302.54501"
       cy="337.45499"
       r="81.455002"
       id="circle8258" />
    <path
       style="fill:#f19920"
       d="m 290.909,395.636 c 0,8.145 1.164,15.127 3.491,23.273 2.327,0 5.818,0 8.145,0 45.382,0 81.455,-36.073 81.455,-81.455 0,-8.145 -1.164,-15.127 -3.491,-23.273 -2.327,0 -5.818,0 -8.145,0 -45.382,0.001 -81.455,36.074 -81.455,81.455 z"
       id="path8260" />
    <path
       style="fill:#ffcb5b"
       d="m 302.545,256 c -45.382,0 -81.455,36.073 -81.455,81.455 0,45.382 36.073,81.455 81.455,81.455 C 347.927,418.91 384,382.836 384,337.455 384,292.074 347.927,256 302.545,256 Z m 0,139.636 c -32.582,0 -58.182,-25.6 -58.182,-58.182 0,-32.582 25.6,-58.182 58.182,-58.182 32.582,0 58.182,25.6 58.182,58.182 0,32.582 -25.6,58.182 -58.182,58.182 z"
       id="path8262" />
    <path
       style="fill:#f6b545"
       d="m 302.545,417.745 v 0 C 347.927,418.909 384,381.673 384,337.455 h -1.164 c -5.818,0 -10.473,4.655 -11.636,10.473 -2.327,16.291 -10.473,31.418 -22.109,41.891 -9.309,9.309 -22.109,15.127 -36.073,17.455 -5.818,-10e-4 -10.473,4.653 -10.473,10.471 z"
       id="path8264" />
    <path
       style="fill:#ffe27a"
       d="m 302.545,257.164 v 0 C 257.163,256 221.09,293.237 221.09,337.455 h 1.164 c 5.818,0 10.473,-4.655 11.636,-10.473 2.327,-16.291 10.473,-31.418 22.109,-41.891 9.309,-9.309 22.109,-15.127 36.073,-17.455 5.819,0 10.473,-4.654 10.473,-10.472 z"
       id="path8266" />
    <path
       style="fill:#f19920"
       d="m 252.509,345.6 c 0,-32.582 25.6,-58.182 58.182,-58.182 13.964,0 26.764,4.655 37.236,13.964 -11.636,-13.964 -26.764,-22.109 -45.382,-22.109 -32.582,0 -58.182,25.6 -58.182,58.182 0,18.618 8.145,33.745 20.945,44.218 -8.144,-9.309 -12.799,-22.109 -12.799,-36.073 z"
       id="path8268" />
    <path
       style="fill:#ffcb5b"
       d="m 337.455,373.527 c -1.164,0 -2.327,0 -3.491,-1.164 -2.327,-2.327 -2.327,-5.818 0,-8.145 6.982,-6.982 10.473,-17.455 10.473,-26.764 0,-3.491 2.327,-5.818 5.818,-5.818 3.491,0 5.818,2.327 5.818,5.818 0,12.8 -4.655,25.6 -12.8,34.909 -2.328,1.164 -4.655,1.164 -5.818,1.164 z"
       id="path8270" />
    <path
       style="fill:#f19920"
       d="m 302.545,372.364 c -6.982,0 -11.636,-4.655 -11.636,-11.636 v -46.545 c 0,-6.982 4.655,-11.636 11.636,-11.636 6.982,0 11.636,4.655 11.636,11.636 v 46.545 c 0.001,6.981 -4.654,11.636 -11.636,11.636 z"
       id="path8272" />
    <g
       id="g8278">
	<path
   style="fill:#f6b545"
   d="m 356.073,315.345 c 2.327,6.982 4.655,13.964 4.655,22.109 0,32.582 -25.6,58.182 -58.182,58.182 -3.491,0 -8.145,0 -11.636,-1.164 v 1.164 c 0,8.145 1.164,15.127 3.491,23.273 2.327,0 5.818,0 8.145,0 45.382,0 81.455,-36.073 81.455,-81.455 0,-8.145 -1.164,-15.127 -3.491,-23.273 -2.327,0 -5.818,0 -8.145,0 -5.82,0.001 -10.474,0.001 -16.292,1.164 z"
   id="path8274" />

	<circle
   style="fill:#f6b545"
   cx="360.72699"
   cy="407.27301"
   r="81.455002"
   id="circle8276" />

</g>
    <path
       style="fill:#ffcb5b"
       d="m 360.727,325.818 c -45.382,0 -81.455,36.073 -81.455,81.455 0,45.382 36.073,81.455 81.455,81.455 45.382,0 81.455,-36.073 81.455,-81.455 0,-45.382 -36.073,-81.455 -81.455,-81.455 z m 0,139.637 c -32.582,0 -58.182,-25.6 -58.182,-58.182 0,-32.582 25.6,-58.182 58.182,-58.182 32.582,0 58.182,25.6 58.182,58.182 0,32.582 -25.6,58.182 -58.182,58.182 z"
       id="path8280" />
    <path
       style="fill:#f6b545"
       d="m 360.727,487.564 v 0 c 45.382,1.164 81.455,-36.073 81.455,-80.291 h -1.164 c -5.818,0 -10.473,4.655 -11.636,10.473 -2.327,16.291 -10.473,31.418 -22.109,41.891 -9.309,9.309 -22.109,15.127 -36.073,17.455 -5.818,-10e-4 -10.473,4.653 -10.473,10.472 z"
       id="path8282" />
    <path
       style="fill:#ffe27a"
       d="m 360.727,326.982 v 0 c -45.382,-1.164 -81.455,36.073 -81.455,80.291 h 1.164 c 5.818,0 10.473,-4.655 11.636,-10.473 2.327,-16.291 10.473,-31.418 22.109,-41.891 9.309,-9.309 22.109,-15.127 36.073,-17.455 5.819,10e-4 10.473,-4.654 10.473,-10.472 z"
       id="path8284" />
    <path
       style="fill:#f19920"
       d="m 310.691,415.418 c 0,-32.582 25.6,-58.182 58.182,-58.182 13.964,0 26.764,4.655 37.236,13.964 -11.636,-13.964 -26.764,-22.109 -45.382,-22.109 -32.582,0 -58.182,25.6 -58.182,58.182 0,18.618 8.145,33.745 20.945,44.218 -8.145,-9.309 -12.799,-22.109 -12.799,-36.073 z"
       id="path8286" />
    <path
       style="fill:#ffcb5b"
       d="m 395.636,443.345 c -1.164,0 -2.327,0 -3.491,-1.164 -2.327,-2.327 -2.327,-5.818 0,-8.145 6.982,-6.982 10.473,-17.455 10.473,-26.764 0,-3.491 2.327,-5.818 5.818,-5.818 3.491,0 5.818,2.327 5.818,5.818 0,12.8 -4.655,25.6 -12.8,34.909 -2.327,1.164 -4.654,1.164 -5.818,1.164 z"
       id="path8288" />
    <path
       style="fill:#f19920"
       d="m 360.727,442.182 c -6.982,0 -11.636,-4.655 -11.636,-11.636 V 384 c 0,-6.982 4.655,-11.636 11.636,-11.636 6.982,0 11.636,4.655 11.636,11.636 v 46.545 c 10e-4,6.982 -4.654,11.637 -11.636,11.637 z"
       id="path8290" />
    <g
       id="g8292">
</g>
    <g
       id="g8294">
</g>
    <g
       id="g8296">
</g>
    <g
       id="g8298">
</g>
    <g
       id="g8300">
</g>
    <g
       id="g8302">
</g>
    <g
       id="g8304">
</g>
    <g
       id="g8306">
</g>
    <g
       id="g8308">
</g>
    <g
       id="g8310">
</g>
    <g
       id="g8312">
</g>
    <g
       id="g8314">
</g>
    <g
       id="g8316">
</g>
    <g
       id="g8318">
</g>
    <g
       id="g8320">
</g>
  </g>
  <g
     transform="matrix(0.08561089,0,0,0.08561089,83.205999,11.337379)"
     id="g8449">
    <g
       id="g8435">
      <path
         d="m 504.5,208.2 c 0,52.8 -42.81,95.6 -95.61,95.6 H 7.5 v -95.6 h 305.79 c 0,-52.8 42.8,-95.6 95.6,-95.6 26.4,0 50.3,10.7 67.61,28 17.3,17.3 28,41.2 28,67.6 z"
         fill="#e9e9e9"
         id="path8423" />
      <path
         d="m 408.887,112.592 c -32.16,15.39 -54.37,57.57 -54.37,95.61 0,13.2 5.35,25.15 14,33.8 3.81,3.81 8.27,6.98 13.19,9.34 -6.24,2.99 -13.23,4.66 -20.62,4.66 -13.2,0 -25.15,-5.35 -33.8,-14 -8.65,-8.65 -14,-20.6 -14,-33.8 0.001,-52.8 42.8,-95.61 95.6,-95.61 z"
         fill="#dedede"
         id="path8425" />
      <path
         d="m 287.85,112.595 c 0,52.8 -42.81,95.6 -95.61,95.6 H 7.5 v -95.6 h 89.14 c 0,-52.8 42.8,-95.6 95.6,-95.6 26.4,0 50.3,10.7 67.61,28 17.3,17.3 28,41.2 28,67.6 z"
         fill="#e9e9e9"
         id="path8427" />
      <path
         d="m 192.237,16.987 c -32.16,15.39 -54.37,57.57 -54.37,95.61 0,13.2 5.35,25.15 14,33.8 3.81,3.81 8.27,6.98 13.19,9.34 -6.24,2.99 -13.23,4.66 -20.62,4.66 -13.2,0 -25.15,-5.35 -33.8,-14 -8.65,-8.65 -14,-20.6 -14,-33.8 0,-52.8 42.8,-95.61 95.6,-95.61 z"
         fill="#dedede"
         id="path8429" />
      <path
         d="m 422.321,399.405 c 0,-52.8 -42.81,-95.6 -95.61,-95.6 H 7.5 v 95.6 h 223.611 c 0,52.8 42.8,95.6 95.6,95.6 26.4,0 50.3,-10.7 67.61,-28 17.3,-17.3 28,-41.2 28,-67.6 z"
         fill="#e9e9e9"
         id="path8431" />
      <path
         d="m 326.709,495.013 c -32.16,-15.39 -54.37,-57.57 -54.37,-95.61 0,-13.2 5.35,-25.15 14,-33.8 3.81,-3.81 8.27,-6.98 13.19,-9.34 -6.24,-2.99 -13.23,-4.66 -20.62,-4.66 -13.2,0 -25.15,5.35 -33.8,14 -8.65,8.65 -14,20.6 -14,33.8 0,52.8 42.799,95.61 95.6,95.61 z"
         fill="#dedede"
         id="path8433" />
    </g>
    <g
       id="g8447">
      <path
         d="m 512,208.2 c 0,-56.851 -46.252,-103.103 -103.103,-103.103 -54.328,0 -98.973,42.24 -102.828,95.603 h -60.323 c 29.715,-18.113 49.597,-50.83 49.597,-88.103 0,-56.81 -46.186,-103.034 -102.98,-103.101 -0.041,-0.001 -0.081,-0.006 -0.123,-0.006 -33.317,0 -64.751,16.237 -84.084,43.435 -2.399,3.376 -1.608,8.058 1.768,10.458 1.318,0.937 2.836,1.387 4.339,1.387 2.347,0 4.657,-1.097 6.12,-3.155 16.511,-23.227 43.342,-37.101 71.787,-37.124 0.024,0 0.047,0.004 0.071,0.004 48.58,0 88.103,39.523 88.103,88.103 0,48.58 -39.522,88.103 -88.103,88.103 H 52.068 c -4.143,0 -7.5,3.358 -7.5,7.5 0,4.142 3.357,7.5 7.5,7.5 h 254.249 c 3.673,26.957 26.83,47.802 54.778,47.802 30.493,0 55.302,-24.808 55.302,-55.302 0,-4.142 -3.357,-7.5 -7.5,-7.5 -4.143,0 -7.5,3.358 -7.5,7.5 0,22.222 -18.079,40.302 -40.302,40.302 -22.222,0 -40.301,-18.079 -40.301,-40.302 0,-48.58 39.522,-88.103 88.103,-88.103 48.581,0 88.103,39.522 88.103,88.102 0,48.58 -39.522,88.103 -88.103,88.103 L 7.5,296.3 c -4.143,0 -7.5,3.358 -7.5,7.5 0,4.142 3.357,7.5 7.5,7.5 l 319.412,0.002 c 48.491,0.105 87.908,39.588 87.908,88.107 0,18.766 -5.817,36.669 -16.822,51.774 -2.439,3.348 -1.703,8.039 1.645,10.478 1.333,0.971 2.879,1.439 4.411,1.439 2.315,0 4.6,-1.069 6.067,-3.084 12.888,-17.687 19.699,-38.645 19.699,-60.607 0,-37.275 -19.881,-69.993 -49.594,-88.107 h 28.671 C 465.748,311.302 512,265.051 512,208.2 Z"
         id="path8437" />
      <path
         d="m 378.503,470.688 c -15.096,10.999 -32.992,16.815 -51.756,16.821 -0.01,0 -0.019,-0.001 -0.028,-0.001 -48.58,0 -88.104,-39.523 -88.104,-88.103 0,-22.222 18.079,-40.302 40.302,-40.302 22.223,0 40.302,18.079 40.302,40.302 0,4.142 3.357,7.5 7.5,7.5 4.143,0 7.5,-3.358 7.5,-7.5 0,-30.493 -24.809,-55.302 -55.302,-55.302 -27.948,0 -51.106,20.845 -54.779,47.802 H 69.332 c -4.143,0 -7.5,3.358 -7.5,7.5 0,4.142 3.357,7.5 7.5,7.5 H 223.89 c 3.854,53.346 48.472,95.576 102.779,95.602 0.017,0 0.034,0.003 0.051,0.003 21.97,0 42.931,-6.812 60.617,-19.698 3.348,-2.439 4.084,-7.13 1.645,-10.478 -2.44,-3.349 -7.132,-4.084 -10.479,-1.646 z"
         id="path8439" />
      <path
         d="M 150.224,450.195 H 49.969 c -4.143,0 -7.5,3.358 -7.5,7.5 0,4.142 3.357,7.5 7.5,7.5 h 100.255 c 4.143,0 7.5,-3.358 7.5,-7.5 0,-4.142 -3.358,-7.5 -7.5,-7.5 z"
         id="path8441" />
      <path
         d="m 7.501,77.898 h 42.468 c 4.143,0 7.5,-3.358 7.5,-7.5 0,-4.142 -3.357,-7.5 -7.5,-7.5 H 7.501 c -4.143,0 -7.5,3.358 -7.5,7.5 0,4.142 3.357,7.5 7.5,7.5 z"
         id="path8443" />
      <path
         d="m 7.5,120.097 h 82.153 c 1.607,11.927 7.027,22.95 15.683,31.606 10.445,10.444 24.333,16.197 39.104,16.197 30.492,0 55.3,-24.807 55.3,-55.3 0,-4.142 -3.357,-7.5 -7.5,-7.5 -4.143,0 -7.5,3.358 -7.5,7.5 0,22.221 -18.078,40.3 -40.3,40.3 -10.766,0 -20.886,-4.192 -28.497,-11.803 -7.612,-7.612 -11.804,-17.732 -11.804,-28.497 0,-8.956 1.339,-17.786 3.979,-26.245 1.234,-3.954 -0.971,-8.16 -4.924,-9.394 -3.954,-1.235 -8.16,0.971 -9.395,4.924 -2.352,7.533 -3.816,15.312 -4.386,23.212 H 7.5 c -4.143,0 -7.5,3.358 -7.5,7.5 0,4.142 3.357,7.5 7.5,7.5 z"
         id="path8445" />
    </g>
  </g>
</svg>
