<?xml version="1.0" encoding="UTF-8" standalone="no"?>
<svg
   xmlns:dc="http://purl.org/dc/elements/1.1/"
   xmlns:cc="http://creativecommons.org/ns#"
   xmlns:rdf="http://www.w3.org/1999/02/22-rdf-syntax-ns#"
   xmlns:svg="http://www.w3.org/2000/svg"
   xmlns="http://www.w3.org/2000/svg"
   width="500"
   height="250"
   viewBox="0 0 132.29166 66.145835"
   version="1.1"
   id="svg8">
  <defs
     id="defs2">
    <rect
       x="36.783534"
       y="5.9191895"
       width="39.32033"
       height="36.783534"
       id="rect8007" />
    <rect
       x="5.7077898"
       y="18.180368"
       width="32.132743"
       height="24.522356"
       id="rect7100" />
    <rect
       x="65.956682"
       y="3.382394"
       width="49.044713"
       height="48.621913"
       id="rect5371" />
    <rect
       x="33.261906"
       y="1.889881"
       width="32.127975"
       height="25.607887"
       id="rect952" />
    <rect
       x="23.718006"
       y="3.0238094"
       width="21.45015"
       height="20.127232"
       id="rect946" />
    <rect
       id="rect4359"
       height="25.607887"
       width="32.127975"
       y="1.889881"
       x="33.261906" />
    <rect
       id="rect7340"
       height="24.522356"
       width="32.132743"
       y="18.180368"
       x="5.7077898" />
  </defs>
  <metadata
     id="metadata5">
    <rdf:RDF>
      <cc:Work
         rdf:about="">
        <dc:format>image/svg+xml</dc:format>
        <dc:type
           rdf:resource="http://purl.org/dc/dcmitype/StillImage" />
        <dc:title></dc:title>
      </cc:Work>
    </rdf:RDF>
  </metadata>
  <g
     transform="matrix(0.11238167,0,0,0.11238167,3.6173267,5.8865697)"
     id="g1250">
    <path
       d="m 193.846,138.058 v -27.053 c 0,-2.326 0.702,-4.598 2.015,-6.519 l 38.4,-56.197 c 9.619,-14.077 6.005,-33.285 -8.072,-42.904 -14.076,-9.619 -33.285,-6.005 -42.904,8.072 l -42.898,62.78 c -5.394,7.894 -8.28,17.233 -8.28,26.794 v 86.698 73.128 l 67.074,-45.561 z"
       fill="#ffefe7"
       id="path1203" />
    <g
       id="g1233">
      <g
         id="XMLID_148_">
        <g
           id="g1207">
          <path
             d="m 272.71,227.863 17.65,-90.05 -69.09,57.89 0.05,0.32 c 7.28,-1.13 14.94,0.83 20.9,5.9 z m 40.41,-137.7 0.76,-0.32 c 3.48,-2.58 7.3,-4.74 11.37,-6.41 4.07,-1.67 8.39,-2.84 12.89,-3.46 15.73,-2.16 29.41,10.81 28.1,26.63 l -7.22,87.27 c -0.31,3.83 0.4,7.66 2.07,11.12 l 13.36,27.62 c 17.75,36.71 18.35,79.39 1.65,116.59 l -40.96,91.21 v 45.882 c 0,6.075 -4.933,10.995 -11.008,10.979 L 160.68,496.842 c -6.052,-0.016 -10.95,-4.927 -10.95,-10.979 v -37.6 l -32.57,-40.94 C 103.32,389.933 95,368.813 93.26,346.663 l -6.85,-87.03 c -1.47,-18.63 6.18,-36.83 20.52,-48.83 l 157.96,-132.2 c 5.78,-4.85 12.82,-7.21 19.82,-7.21 8.81,0 17.57,3.75 23.67,11.04 2,2.39 3.58,5 4.74,7.73 z"
             fill="#ffefe7"
             id="path1205" />
        </g>
        <g
           id="g1211">
          <path
             d="m 331.126,81.421 c -2.005,0.557 -3.973,1.231 -5.876,2.012 -4.07,1.67 -7.89,3.83 -11.37,6.41 l -0.76,0.32 c -1.16,-2.73 -2.74,-5.34 -4.74,-7.73 -1.538,-1.838 -3.245,-3.449 -5.079,-4.833 l -13.817,60.948 0.877,-0.735 -6.119,31.22 33.16,-27.785 c 17.813,-14.936 22.795,-39.593 13.724,-59.827 z"
             fill="#ffe0d1"
             id="path1209" />
        </g>
        <path
           d="m 160.03,192.259 35.845,-24.061 -2.029,-30.14 v -19.557 l -23.068,19.306 c -4.917,4.115 -12.402,0.619 -12.402,-5.793 v -22.599 c 0,-9.562 2.886,-18.9 8.28,-26.795 l 42.898,-62.78 c 4.629,-6.774 11.48,-11.117 18.91,-12.736 -0.727,-0.601 -1.482,-1.177 -2.276,-1.72 -14.076,-9.619 -33.285,-6.005 -42.904,8.072 l -42.898,62.78 c -5.394,7.895 -8.28,17.233 -8.28,26.795 v 86.698 2.529 h 27.924 z"
           fill="#ffd1c2"
           id="path1213" />
        <path
           d="m 308.38,82.433 c 10.95,13.07 9.23,32.54 -3.83,43.49 l -83.28,69.78 0.05,0.32 c -4.73,0.72 -9.3,2.76 -13.13,6.1 l -40.19,34.98 -78.6,-0.85 c 3.38,-9.78 9.37,-18.62 17.53,-25.45 l 157.96,-132.2 c 5.78,-4.85 12.82,-7.21 19.82,-7.21 8.81,0 17.57,3.75 23.67,11.04 z"
           fill="#ffefe7"
           id="path1215" />
        <g
           id="g1219">
          <path
             d="m 203.308,496.842 c -6.052,-0.016 -10.95,-4.927 -10.95,-10.979 v -20.637 c 0,-10.983 -3.723,-21.643 -10.561,-30.238 l -22.009,-27.665 c -13.84,-17.39 -22.16,-38.51 -23.9,-60.66 l -6.85,-87.03 c -1.47,-18.63 6.18,-36.83 20.52,-48.83 L 305.989,79.883 c -5.886,-5.612 -13.563,-8.489 -21.28,-8.489 -7,0 -14.04,2.36 -19.82,7.21 l -157.96,132.2 c -14.34,12 -21.99,30.2 -20.52,48.83 l 6.85,87.03 c 1.74,22.15 10.06,43.27 23.9,60.66 l 32.57,40.94 v 37.6 c 0,6.052 4.898,10.963 10.95,10.979 h 42.629 z"
             fill="#ffe0d1"
             id="path1217" />
        </g>
        <g
           id="g1230">
          <g
             id="XMLID_149_">
            <g
               id="g1223">
              <path
                 d="m 317.946,306.861 c 7.051,-8.291 10.934,-18.842 10.934,-29.708 0,-13.488 -5.89,-26.228 -16.152,-34.945 l -36.709,-31.226 -3.309,16.882 -30.49,-25.94 c -4.192,-3.566 -9.226,-5.587 -14.376,-6.083 v 128.342 c 0,21.195 9.303,41.323 25.448,55.056 8.284,7.046 18.832,10.927 29.699,10.927 13.489,0 26.231,-5.89 34.956,-16.155 7.05,-8.292 10.933,-18.839 10.933,-29.697 0,-12.806 -5.32,-24.936 -14.651,-33.606 1.302,-1.212 2.556,-2.481 3.717,-3.847 z"
                 fill="#ffe0d1"
                 id="path1221" />
            </g>
            <path
               d="m 313.88,277.153 c 0,7.07 -2.42,14.18 -7.36,19.99 -4.95,5.82 -11.59,9.35 -18.59,10.48 l -0.16,0.19 -45.55,-38.74 c -9.83,-8.36 -24.3,-8.28 -34.03,0.2 L 168,304.253 v -67.15 l 40.19,-34.98 c 3.83,-3.34 8.4,-5.38 13.13,-6.1 7.28,-1.13 14.94,0.83 20.9,5.9 l 30.49,25.94 30.3,25.77 c 7.18,6.1 10.87,14.78 10.87,23.52 z"
               fill="#ffefe7"
               id="path1225" />
            <path
               d="m 306.282,297.398 c -1.751,-3.157 -4.079,-6.062 -6.993,-8.537 l -30.3,-25.77 -30.49,-25.94 c -5.96,-5.07 -13.62,-7.03 -20.9,-5.9 -4.73,0.72 -9.3,2.76 -13.13,6.1 l -29.226,25.437 c -4.602,4.005 -7.243,9.807 -7.243,15.907 v 25.558 l 40.19,-34.98 c 9.73,-8.48 24.2,-8.56 34.03,-0.2 l 45.55,38.74 0.16,-0.19 c 6.892,-1.112 13.428,-4.563 18.352,-10.225 z"
               fill="#ffe0d1"
               id="path1227" />
          </g>
        </g>
      </g>
    </g>
    <g
       id="g1240">
      <g
         id="XMLID_152_">
        <g
           id="g1237">
          <path
             d="m 313.88,344.313 c 0,7.07 -2.42,14.17 -7.36,19.98 -11.04,12.99 -30.53,14.56 -43.51,3.52 l -37.63,-32.01 -11.17,11.17 -46.21,-42.72 40.19,-34.98 c 9.73,-8.48 24.2,-8.56 34.03,-0.2 l 60.79,51.71 c 7.18,6.11 10.87,14.79 10.87,23.53 z"
             fill="#ffefe7"
             id="path1235" />
        </g>
      </g>
    </g>
    <g
       id="g1244">
      <path
         d="m 349.538,47.144 c -1.235,0 -2.486,-0.305 -3.643,-0.948 -3.618,-2.016 -4.918,-6.583 -2.903,-10.202 L 358.403,8.322 c 2.016,-3.618 6.583,-4.918 10.202,-2.903 3.618,2.016 4.918,6.583 2.903,10.202 l -15.411,27.672 c -1.371,2.462 -3.926,3.851 -6.559,3.851 z"
         fill="#fbe88c"
         id="path1242" />
    </g>
    <g
       id="g1248">
      <path
         d="m 376.621,71.843 c -2.511,0 -4.964,-1.261 -6.383,-3.552 -2.182,-3.521 -1.095,-8.145 2.427,-10.325 l 26.928,-16.677 c 3.523,-2.181 8.145,-1.094 10.325,2.427 2.182,3.521 1.095,8.145 -2.427,10.325 l -26.928,16.677 c -1.23,0.762 -2.594,1.125 -3.942,1.125 z"
         fill="#fbe88c"
         id="path1246" />
    </g>
  </g>
  <g
     transform="matrix(0.11203567,0,0,0.11203567,66.800564,5.1391943)"
     id="g1449">
    <path
       style="fill:#f3705a"
       d="m 295.467,25.6 v 157.867 c 0,13.867 -11.733,25.6 -25.6,25.6 H 134.4 L 34.133,261.333 V 209.066 H 25.6 C 11.733,209.066 0,197.333 0,183.466 V 25.6 C 0,11.733 11.733,0 25.6,0 h 245.333 c 13.867,0 24.534,11.733 24.534,25.6 z"
       id="path1352" />
    <g
       id="g1360">
	<circle
   style="fill:#ffffff"
   cx="69.333"
   cy="104.533"
   r="27.733"
   id="circle1354" />

	<circle
   style="fill:#ffffff"
   cx="148.267"
   cy="104.533"
   r="27.733"
   id="circle1356" />

	<circle
   style="fill:#ffffff"
   cx="227.2"
   cy="104.533"
   r="27.733"
   id="circle1358" />

</g>
    <path
       style="fill:#ffd15c"
       d="m 216.533,88.533 v 156.8 c 0,13.867 11.733,25.6 25.6,25.6 H 378.666 L 478.933,323.2 v -52.267 h 7.467 c 13.867,0 25.6,-11.733 25.6,-25.6 v -156.8 c 0,-13.867 -11.733,-25.6 -25.6,-25.6 H 241.067 c -13.867,0 -24.534,11.734 -24.534,25.6 z"
       id="path1362" />
    <g
       id="g1370">
	<circle
   style="fill:#ffffff"
   cx="442.66699"
   cy="167.467"
   r="27.733"
   id="circle1364" />

	<circle
   style="fill:#ffffff"
   cx="363.733"
   cy="167.467"
   r="27.733"
   id="circle1366" />

	<circle
   style="fill:#ffffff"
   cx="284.79999"
   cy="167.467"
   r="27.733"
   id="circle1368" />

</g>
    <path
       style="fill:#66c6b9"
       d="M 371.2,277.333 V 435.2 c 0,13.867 -11.733,25.6 -25.6,25.6 h -84.267 l -38.4,51.2 -38.4,-52.267 h -83.2 c -13.867,0 -25.6,-11.733 -25.6,-25.6 v -156.8 c 0,-13.867 11.733,-25.6 25.6,-25.6 h 245.333 c 13.867,0 24.534,11.734 24.534,25.6 z"
       id="path1372" />
    <g
       id="g1380">
	<circle
   style="fill:#ffffff"
   cx="301.867"
   cy="356.267"
   r="27.733"
   id="circle1374" />

	<circle
   style="fill:#ffffff"
   cx="224"
   cy="356.267"
   r="27.733"
   id="circle1376" />

	<circle
   style="fill:#ffffff"
   cx="145.067"
   cy="356.267"
   r="27.733"
   id="circle1378" />

</g>
    <g
       id="g1382">
</g>
    <g
       id="g1384">
</g>
    <g
       id="g1386">
</g>
    <g
       id="g1388">
</g>
    <g
       id="g1390">
</g>
    <g
       id="g1392">
</g>
    <g
       id="g1394">
</g>
    <g
       id="g1396">
</g>
    <g
       id="g1398">
</g>
    <g
       id="g1400">
</g>
    <g
       id="g1402">
</g>
    <g
       id="g1404">
</g>
    <g
       id="g1406">
</g>
    <g
       id="g1408">
</g>
    <g
       id="g1410">
</g>
  </g>
</svg>
