<?xml version="1.0" encoding="UTF-8" standalone="no"?>
<svg
   xmlns:dc="http://purl.org/dc/elements/1.1/"
   xmlns:cc="http://creativecommons.org/ns#"
   xmlns:rdf="http://www.w3.org/1999/02/22-rdf-syntax-ns#"
   xmlns:svg="http://www.w3.org/2000/svg"
   xmlns="http://www.w3.org/2000/svg"
   id="svg8"
   version="1.1"
   viewBox="0 0 132.29166 66.145835"
   height="250"
   width="500">
  <defs
     id="defs2">
    <rect
       id="rect7100"
       height="24.522356"
       width="32.132743"
       y="18.180368"
       x="5.7077898" />
    <rect
       id="rect5371"
       height="48.621913"
       width="49.044713"
       y="3.382394"
       x="65.956682" />
    <rect
       id="rect952"
       height="25.607887"
       width="32.127975"
       y="1.889881"
       x="33.261906" />
    <rect
       id="rect946"
       height="20.127232"
       width="21.45015"
       y="3.0238094"
       x="23.718006" />
    <rect
       x="33.261906"
       y="1.889881"
       width="32.127975"
       height="25.607887"
       id="rect4359" />
    <rect
       x="5.7077898"
       y="18.180368"
       width="32.132743"
       height="24.522356"
       id="rect7340" />
  </defs>
  <metadata
     id="metadata5">
    <rdf:RDF>
      <cc:Work
         rdf:about="">
        <dc:format>image/svg+xml</dc:format>
        <dc:type
           rdf:resource="http://purl.org/dc/dcmitype/StillImage" />
        <dc:title></dc:title>
      </cc:Work>
    </rdf:RDF>
  </metadata>
  <text
     transform="matrix(3.0938645,0,0,3.0938645,-11.613895,-40.262779)"
     style="font-style:normal;font-variant:normal;font-weight:bold;font-stretch:normal;font-size:10.5833px;line-height:1.25;font-family:sans-serif;-inkscape-font-specification:'sans-serif Bold';white-space:pre;shape-inside:url(#rect7100);fill:#000000;fill-opacity:1;stroke:none;"
     id="text7098"
     xml:space="preserve"><tspan
       x="5.7070312"
       y="27.835153"><tspan
         style="font-style:normal;font-variant:normal;font-weight:bold;font-stretch:normal;font-family:sans-serif;-inkscape-font-specification:'sans-serif Bold'">D</tspan></tspan></text>
  <g
     transform="matrix(0.96008249,0,0,0.96008249,38.342408,2.8252116)"
     id="g7334">
    <line
       style="fill:none;stroke:#38454f;stroke-width:2;stroke-linecap:round;stroke-miterlimit:10"
       x1="28.664"
       y1="4"
       x2="28.664"
       y2="1"
       id="line7267" />
    <line
       style="fill:none;stroke:#38454f;stroke-width:2;stroke-linecap:round;stroke-miterlimit:10"
       x1="28.664"
       y1="59"
       x2="28.664"
       y2="40"
       id="line7269" />
    <line
       style="fill:none;stroke:#38454f;stroke-width:2;stroke-linecap:round;stroke-miterlimit:10"
       x1="28.664"
       y1="20"
       x2="28.664"
       y2="24"
       id="line7271" />
    <path
       style="fill:#23a24d"
       d="M 48.553,20 H 10.061 C 8.737,20 7.664,18.927 7.664,17.603 V 6.397 C 7.664,5.073 8.737,4 10.061,4 h 38.492 l 8.711,7.84 c 0.095,0.085 0.095,0.234 0,0.319 z"
       id="path7273" />
    <path
       style="fill:#ebba16"
       d="m 11.447,40 h 38.821 c 1.324,0 2.397,-1.073 2.397,-2.397 V 26.397 C 52.665,25.073 51.592,24 50.268,24 H 11.447 l -8.711,7.84 c -0.095,0.085 -0.095,0.234 0,0.319 z"
       id="path7275" />
    <g
       id="g7277">
</g>
    <g
       id="g7279">
</g>
    <g
       id="g7281">
</g>
    <g
       id="g7283">
</g>
    <g
       id="g7285">
</g>
    <g
       id="g7287">
</g>
    <g
       id="g7289">
</g>
    <g
       id="g7291">
</g>
    <g
       id="g7293">
</g>
    <g
       id="g7295">
</g>
    <g
       id="g7297">
</g>
    <g
       id="g7299">
</g>
    <g
       id="g7301">
</g>
    <g
       id="g7303">
</g>
    <g
       id="g7305">
</g>
  </g>
  <text
     xml:space="preserve"
     id="text7338"
     style="font-style:normal;font-variant:normal;font-weight:bold;font-stretch:normal;font-size:10.5833px;line-height:1.25;font-family:sans-serif;-inkscape-font-specification:'sans-serif Bold';white-space:pre;shape-inside:url(#rect7340);fill:#000000;fill-opacity:1;stroke:none;"
     transform="matrix(3.0938645,0,0,3.0938645,81.363976,-40.262779)"><tspan
       x="5.7070312"
       y="27.835153"><tspan
         style="font-style:normal;font-variant:normal;font-weight:bold;font-stretch:normal;font-family:sans-serif;-inkscape-font-specification:'sans-serif Bold'">R</tspan></tspan></text>
</svg>
