<?xml version="1.0" encoding="UTF-8" standalone="no"?>
<svg
   xmlns:dc="http://purl.org/dc/elements/1.1/"
   xmlns:cc="http://creativecommons.org/ns#"
   xmlns:rdf="http://www.w3.org/1999/02/22-rdf-syntax-ns#"
   xmlns:svg="http://www.w3.org/2000/svg"
   xmlns="http://www.w3.org/2000/svg"
   id="svg8"
   version="1.1"
   viewBox="0 0 132.29166 66.145835"
   height="250"
   width="500">
  <defs
     id="defs2">
    <rect
       id="rect8007"
       height="36.783534"
       width="39.32033"
       y="5.9191895"
       x="36.783534" />
    <rect
       id="rect7100"
       height="24.522356"
       width="32.132743"
       y="18.180368"
       x="5.7077898" />
    <rect
       id="rect5371"
       height="48.621913"
       width="49.044713"
       y="3.382394"
       x="65.956682" />
    <rect
       id="rect952"
       height="25.607887"
       width="32.127975"
       y="1.889881"
       x="33.261906" />
    <rect
       id="rect946"
       height="20.127232"
       width="21.45015"
       y="3.0238094"
       x="23.718006" />
    <rect
       x="33.261906"
       y="1.889881"
       width="32.127975"
       height="25.607887"
       id="rect4359" />
    <rect
       x="5.7077898"
       y="18.180368"
       width="32.132743"
       height="24.522356"
       id="rect7340" />
  </defs>
  <metadata
     id="metadata5">
    <rdf:RDF>
      <cc:Work
         rdf:about="">
        <dc:format>image/svg+xml</dc:format>
        <dc:type
           rdf:resource="http://purl.org/dc/dcmitype/StillImage" />
        <dc:title></dc:title>
      </cc:Work>
    </rdf:RDF>
  </metadata>
  <g
     transform="matrix(0.10372296,0,0,0.10372296,3.7436941,5.1076618)"
     id="g9179">
    <path
       style="fill:#e14b4b"
       d="m 511.819,272.06 v 26.48 c 0,0 -8.448,14.88 -14.032,17.2 h -101.28 l -7.44,-2.32 -3.264,7.44 H 133.051 l -0.672,-0.24 -11.408,-3.952 -85.952,11.152 c 0,0 -2.72,-0.128 -6.624,-0.64 -10.944,-1.424 -31.152,-5.856 -26.368,-18.88 0,0 -4.56,-24.688 0,-39.024 0,0 1.392,-19.984 18.576,-26.96 17.2,-6.96 67.84,-20.448 95.712,-24.608 0,0 24.624,-7.44 35.312,-17.2 0,0 24.112,-18.016 53.888,-31.072 16.048,-7.024 33.216,-11.168 50.656,-12.8 33.744,-3.168 107.088,-8.048 153.776,3.44 39.664,9.776 65.952,32.176 79.792,47.152 7.6,8.224 11.744,18.96 11.744,30.16 v 10.048 l 3.248,11.616 c 0.016,0 7.088,5.104 7.088,13.008 z"
       id="path9058" />
    <path
       style="fill:#2e3235"
       d="m 132.587,315.9 c 0,1.584 -0.064,3.168 -0.208,4.72 l -11.408,-3.952 -85.952,11.152 c 0,0 -2.72,-0.128 -6.624,-0.64 -0.8,-3.632 -1.216,-7.408 -1.216,-11.28 0,-29.104 23.6,-52.704 52.704,-52.704 29.104,0 52.704,23.6 52.704,52.704 z"
       id="path9060" />
    <circle
       style="fill:#3e4347"
       cx="79.883003"
       cy="315.89999"
       r="43.071999"
       id="circle9062" />
    <path
       style="fill:#2e3235"
       d="m 388.059,315.708 1.008,-2.304 7.44,2.32 h 96.944 c -0.096,-29.024 -23.648,-52.528 -52.688,-52.528 -29.056,0 -52.608,23.504 -52.704,52.512 z"
       id="path9064" />
    <g
       id="g9072">
	<circle
   style="fill:#3e4347"
   cx="440.74701"
   cy="315.89999"
   r="43.071999"
   id="circle9066" />

	<path
   style="fill:#3e4347"
   d="m 287.499,166.652 c -8.944,0.304 -14.608,0.608 -14.72,0.624 l -0.32,0.016 h -0.32 c -0.896,-0.032 -1.792,-0.032 -2.688,-0.032 -39.056,0 -77.968,23.2 -97.696,37.024 -8.912,6.24 -15.92,15.024 -19.984,24.944 l 124.464,-9.936 z"
   id="path9068" />

	<path
   style="fill:#3e4347"
   d="m 403.771,174.444 c -12.368,-5.408 -41.824,-8.384 -83.072,-8.384 -4.832,0 -9.52,0.048 -13.936,0.112 l -4.48,51.024 v 0 l 123.344,-9.84 c 0.4,-2.304 0.736,-4.496 0.976,-6.496 l 0.016,-0.16 0.032,-0.16 c 1.296,-7.552 -12.752,-19.92 -22.88,-26.096 z"
   id="path9070" />

</g>
    <g
       id="g9078">
	<path
   style="fill:#ffd83b"
   d="m 11.019,261.468 c 0,0 17.136,-19.952 36.336,-18.448 4.672,0.368 18.64,6.624 -3.2,18.448 -6.832,3.696 -20.272,5.872 -30.496,6.032 -8.288,0.112 -2.64,-6.032 -2.64,-6.032 z"
   id="path9074" />

	<path
   style="fill:#ffd83b"
   d="m 501.499,247.436 v -10.048 c 0,-4.336 -0.8,-8.544 -2,-12.624 -6.912,-0.864 -15.568,-1.296 -18.384,1.52 -3.744,3.744 -3.744,17.44 0,21.184 3.136,3.136 13.6,2.256 20.72,1.216 z"
   id="path9076" />

</g>
    <circle
       style="fill:#cbd6e0"
       cx="79.883003"
       cy="315.89999"
       r="28.752001"
       id="circle9080" />
    <circle
       style="fill:#939799"
       cx="79.883003"
       cy="315.89999"
       r="23.455999"
       id="circle9082" />
    <g
       id="g9088">
	<circle
   style="fill:#cbd6e0"
   cx="79.883003"
   cy="315.89999"
   r="16.879999"
   id="circle9084" />

	<circle
   style="fill:#cbd6e0"
   cx="440.74701"
   cy="315.89999"
   r="28.752001"
   id="circle9086" />

</g>
    <circle
       style="fill:#939799"
       cx="440.74701"
       cy="315.89999"
       r="23.455999"
       id="circle9090" />
    <circle
       style="fill:#cbd6e0"
       cx="440.74701"
       cy="315.89999"
       r="16.879999"
       id="circle9092" />
    <g
       id="g9102">
	<path
   style="fill:#5a5f63"
   d="m 180.875,226.892 26.192,-2.096 32.944,-53.568 c -11.456,2.944 -22.32,7.28 -32.32,12.064 z"
   id="path9094" />

	<path
   style="fill:#5a5f63"
   d="m 216.299,224.06 13.664,-1.088 34.032,-55.344 c -4.688,0.256 -9.344,0.768 -13.968,1.584 z"
   id="path9096" />

	<path
   style="fill:#5a5f63"
   d="m 309.403,216.636 26.192,-2.096 28.912,-47.024 c -7.296,-0.544 -15.392,-0.944 -24.192,-1.168 z"
   id="path9098" />

	<path
   style="fill:#5a5f63"
   d="m 344.811,213.804 13.664,-1.088 26.416,-42.96 c -3.68,-0.576 -7.632,-1.104 -12.048,-1.536 z"
   id="path9100" />

</g>
    <g
       id="g9104">
</g>
    <g
       id="g9106">
</g>
    <g
       id="g9108">
</g>
    <g
       id="g9110">
</g>
    <g
       id="g9112">
</g>
    <g
       id="g9114">
</g>
    <g
       id="g9116">
</g>
    <g
       id="g9118">
</g>
    <g
       id="g9120">
</g>
    <g
       id="g9122">
</g>
    <g
       id="g9124">
</g>
    <g
       id="g9126">
</g>
    <g
       id="g9128">
</g>
    <g
       id="g9130">
</g>
    <g
       id="g9132">
</g>
  </g>
  <g
     transform="matrix(0.05381203,0,0,0.05381203,62.915687,18.145445)"
     id="g9350">
    <path
       d="m 118.232,197.24 h 86.78 v 306.275 h -86.78 z"
       fill="#5a5a5a"
       transform="matrix(0.707,0.707,-0.707,0.707,295.093,-11.661)"
       id="path9324" />
    <path
       d="M 84.019,489.344 22.656,427.981 0.261,504.019 c -1.391,4.722 2.998,9.111 7.72,7.72 z"
       fill="#e2e2e2"
       id="path9326" />
    <path
       d="M 478.422,84.217 427.783,33.578 c -2.961,-2.961 -7.762,-2.961 -10.724,0 L 239.225,211.412 300.588,272.775 478.422,94.941 c 2.961,-2.961 2.961,-7.762 0,-10.724 z"
       fill="#ca2c2c"
       id="path9328" />
    <path
       d="M 475.89,81.686 430.314,36.11 460.363,6.061 c 8.081,-8.081 21.184,-8.081 29.266,0 l 16.31,16.31 c 8.081,8.081 8.081,21.184 0,29.266 z"
       fill="#5a5a5a"
       id="path9330" />
    <path
       d="m 28.842,356.134 h 306.275 v 29.202 H 28.842 Z"
       fill="#444444"
       transform="matrix(0.707,-0.707,0.707,0.707,-208.849,237.265)"
       id="path9332" />
    <path
       d="M 478.422,84.217 457.773,63.568 c 2.961,2.961 2.961,7.762 0,10.724 L 279.939,252.126 300.588,272.775 478.422,94.941 c 2.961,-2.961 2.961,-7.762 0,-10.724 z"
       fill="#a72b2b"
       id="path9334" />
    <path
       d="m 505.939,22.371 -16.31,-16.31 c -0.739,-0.739 -1.532,-1.387 -2.348,-1.991 5.999,8.1 5.351,19.575 -1.991,26.918 l -30.049,30.049 20.649,20.649 30.049,-30.049 c 8.081,-8.082 8.081,-21.184 0,-29.266 z"
       fill="#444444"
       id="path9336" />
    <g
       id="g9340">
      <path
         d="m 215.693,195.65 c -1.988,0 -3.978,-0.759 -5.495,-2.276 -3.035,-3.036 -3.035,-7.955 0,-10.991 L 345.137,47.445 c 3.036,-3.034 7.955,-3.034 10.991,0 3.035,3.036 3.035,7.955 0,10.991 L 221.189,193.375 c -1.518,1.516 -3.507,2.275 -5.496,2.275 z"
         fill="#5a5a5a"
         id="path9338" />
    </g>
    <path
       d="M 454.265,127.977 372.079,45.791 c -3.948,-3.948 -10.35,-3.948 -14.298,0 l -21.447,21.447 89.335,89.335 c 4.046,4.046 10.607,4.046 14.653,0 l 13.943,-13.943 c 4.046,-4.046 4.046,-10.607 0,-14.653 z"
       fill="#5a5a5a"
       id="path9342" />
    <path
       d="M 454.265,127.977 366.79,40.502 c -4.062,-4.062 -10.648,-4.062 -14.71,0 l -21.241,21.241 94.83,94.83 c 4.046,4.046 10.607,4.046 14.653,0 l 13.943,-13.943 c 4.046,-4.046 4.046,-10.607 0,-14.653 z"
       fill="#5a5a5a"
       id="path9344" />
    <path
       d="m 454.265,127.977 -20.649,-20.649 c 4.046,4.046 4.046,10.607 0,14.653 l -13.943,13.943 c -4.046,4.046 -10.607,4.046 -14.653,0 l 20.649,20.649 c 4.046,4.046 10.607,4.046 14.653,0 l 13.943,-13.943 c 4.046,-4.046 4.047,-10.607 0,-14.653 z"
       fill="#444444"
       id="path9346" />
    <path
       d="M 63.37,468.695 5.659,485.692 0.261,504.018 c -1.391,4.722 2.998,9.111 7.72,7.72 l 76.038,-22.395 z"
       fill="#cecece"
       id="path9348" />
  </g>
  <g
     transform="matrix(0.16052844,0,0,0.16052844,86.786691,10.07155)"
     id="g9571">
    <circle
       cx="167.855"
       cy="123"
       fill="#eaeaea"
       r="86"
       id="circle9527" />
    <path
       d="m 150,233 c 46.548,0 88.161,-31.115 115.855,-80 H 34.144 c 27.695,48.885 69.308,80 115.856,80 z"
       fill="#ffded5"
       id="path9529" />
    <g
       fill="#4c241d"
       id="g9543" />
    <g
       id="g9549">
      <path
         d="M 231.028,184.635 C 207.62,200.06 179.823,201 150,201 103.452,201 61.839,187.22 34.145,153 61.84,118.78 103.452,117 150,117 c 46.548,0 88.161,1.78 115.855,36"
         fill="#ffffff"
         id="path9545" />
      <path
         d="m 150,205 c -52.367,0 -92.391,-16.648 -118.965,-49.484 -1.188,-1.467 -1.188,-3.564 0,-5.031 C 59.14,115.76 99.785,113 150,113 c 50.215,0 90.859,2.76 118.965,37.484 1.391,1.717 1.125,4.234 -0.594,5.625 -1.719,1.393 -4.238,1.125 -5.625,-0.594 C 236.867,123.541 198.054,121 150,121 103.23,121 65.215,123.406 39.359,153.012 64.343,182.203 101.547,197 150,197 c 30.086,0 56.785,-1.182 78.828,-15.705 1.844,-1.217 4.324,-0.699 5.539,1.139 1.215,1.846 0.707,4.326 -1.141,5.541 C 209.336,203.719 181.398,205 150,205 Z"
         fill="#4c241d"
         id="path9547" />
    </g>
    <g
       id="g9555">
      <path
         d="m 105.624,118.741 c -7.35,9.475 -11.769,21.339 -11.769,34.259 0,18.751 9.25,35.308 23.4,45.471 C 127.8,200.175 138.751,201 150,201 c 10.308,0 20.366,-0.129 30.093,-0.913 15.482,-9.963 25.762,-27.309 25.762,-47.087 0,-12.937 -4.429,-24.815 -11.797,-34.296 C 180.116,117.221 165.335,117 150,117 c -15.452,0 -30.34,0.227 -44.376,1.741 z"
         fill="#bf7e68"
         id="path9551" />
      <path
         d="m 150,205 c -11.547,0 -22.781,-0.869 -33.383,-2.58 -0.613,-0.1 -1.191,-0.338 -1.695,-0.701 C 99.226,190.447 89.855,172.234 89.855,153 c 0,-13.383 4.359,-26.078 12.609,-36.711 0.664,-0.859 1.652,-1.41 2.73,-1.525 C 118.765,113.301 132.922,113 150,113 c 16.957,0 31.012,0.293 44.48,1.725 1.082,0.115 2.07,0.666 2.738,1.525 8.266,10.641 12.637,23.35 12.637,36.75 0,20.471 -10.316,39.33 -27.598,50.451 -0.555,0.357 -1.188,0.57 -1.844,0.623 C 170.32,204.889 159.832,205 150,205 Z m -31.164,-10.328 c 9.906,1.545 20.382,2.328 31.164,2.328 9.332,0 19.25,-0.102 28.758,-0.82 14.484,-9.705 23.098,-25.771 23.098,-43.18 0,-11.047 -3.43,-21.555 -9.941,-30.496 C 179.304,121.262 165.976,121 150,121 c -16.094,0 -29.523,0.268 -42.227,1.539 -6.496,8.934 -9.918,19.428 -9.918,30.461 0,16.355 7.824,31.861 20.981,41.672 z"
         fill="#4c241d"
         id="path9553" />
    </g>
    <circle
       cx="149.855"
       cy="153"
       fill="#6b4f5b"
       r="20"
       id="circle9557" />
    <path
       d="m 101.855,157 h -8 c -2.211,0 -4,-1.791 -4,-4 0,-2.209 1.789,-4 4,-4 h 8 c 2.211,0 4,1.791 4,4 0,2.209 -1.789,4 -4,4 z"
       fill="#4c241d"
       id="path9559" />
    <path
       d="m 205.855,157 h -8 c -2.211,0 -4,-1.791 -4,-4 0,-2.209 1.789,-4 4,-4 h 8 c 2.211,0 4,1.791 4,4 0,2.209 -1.789,4 -4,4 z"
       fill="#4c241d"
       id="path9561" />
    <circle
       cx="133.855"
       cy="137"
       fill="#ffffff"
       r="8"
       id="circle9563" />
    <g
       id="g9569">
      <path
         d="m 167.569,241.143 c 0,-9.862 -17.857,-32.143 -17.857,-32.143 0,0 -17.857,22.281 -17.857,32.143 0,9.862 7.995,17.857 17.857,17.857 9.862,0 17.857,-7.995 17.857,-17.857 z"
         fill="#26deeb"
         id="path9565" />
      <path
         d="m 149.711,263 c -12.051,0 -21.855,-9.805 -21.855,-21.857 0,-10.723 15.605,-30.74 18.734,-34.645 1.516,-1.895 4.727,-1.895 6.242,0 3.129,3.904 18.738,23.922 18.738,34.645 0,12.052 -9.805,21.857 -21.859,21.857 z m 0,-47.445 c -6.297,8.469 -13.855,20.346 -13.855,25.588 0,7.641 6.215,13.857 13.855,13.857 7.64,0 13.859,-6.217 13.859,-13.857 0,-5.241 -7.563,-17.12 -13.859,-25.588 z"
         fill="#4c241d"
         id="path9567" />
    </g>
  </g>
</svg>
