<?xml version="1.0" encoding="UTF-8" standalone="no"?>
<svg
   xmlns:dc="http://purl.org/dc/elements/1.1/"
   xmlns:cc="http://creativecommons.org/ns#"
   xmlns:rdf="http://www.w3.org/1999/02/22-rdf-syntax-ns#"
   xmlns:svg="http://www.w3.org/2000/svg"
   xmlns="http://www.w3.org/2000/svg"
   width="500"
   height="250"
   viewBox="0 0 132.29166 66.145835"
   version="1.1"
   id="svg8">
  <defs
     id="defs2">
    <rect
       id="rect2909"
       height="20.927495"
       width="20.180084"
       y="7.1004001"
       x="9.3426317" />
    <rect
       id="rect1838"
       height="36.466435"
       width="36.466435"
       y="11.09848"
       x="7.1347373" />
    <rect
       x="36.783534"
       y="5.9191895"
       width="39.32033"
       height="36.783534"
       id="rect8007" />
    <rect
       x="5.7077898"
       y="18.180368"
       width="32.132743"
       height="24.522356"
       id="rect7100" />
    <rect
       x="65.956682"
       y="3.382394"
       width="49.044713"
       height="48.621913"
       id="rect5371" />
    <rect
       x="33.261906"
       y="1.889881"
       width="32.127975"
       height="25.607887"
       id="rect952" />
    <rect
       x="23.718006"
       y="3.0238094"
       width="21.45015"
       height="20.127232"
       id="rect946" />
    <rect
       id="rect4359"
       height="25.607887"
       width="32.127975"
       y="1.889881"
       x="33.261906" />
    <rect
       id="rect7340"
       height="24.522356"
       width="32.132743"
       y="18.180368"
       x="5.7077898" />
  </defs>
  <metadata
     id="metadata5">
    <rdf:RDF>
      <cc:Work
         rdf:about="">
        <dc:format>image/svg+xml</dc:format>
        <dc:type
           rdf:resource="http://purl.org/dc/dcmitype/StillImage" />
        <dc:title></dc:title>
      </cc:Work>
    </rdf:RDF>
  </metadata>
  <text
     transform="matrix(4.1400634,0,0,4.1400634,-26.09686,-19.481551)"
     style="font-style:normal;font-variant:normal;font-weight:bold;font-stretch:normal;font-size:10.5833px;line-height:1.25;font-family:sans-serif;-inkscape-font-specification:'sans-serif Bold';white-space:pre;shape-inside:url(#rect2909);fill:#000000;fill-opacity:1;stroke:none;"
     id="text2907"
     xml:space="preserve"><tspan
       x="9.3417969"
       y="16.755074"><tspan
         style="font-style:normal;font-variant:normal;font-weight:bold;font-stretch:normal;font-family:sans-serif;-inkscape-font-specification:'sans-serif Bold'">U</tspan></tspan></text>
  <g
     transform="matrix(0.10984418,0,0,0.10984418,65.067258,5.5136913)"
     id="g3144">
    <g
       id="g3012">
	<path
   style="fill:#77533e"
   d="m 142.226,462.879 c 0.001,-0.002 0.001,-0.004 0.002,-0.005 -8.899,22.675 -21.899,41.555 -39.702,41.555 0,0 39.855,1.403 97.873,-10.719 -22.3,-6.232 -42.391,-16.472 -58.173,-30.831 z"
   id="path3008" />

	<path
   style="fill:#77533e"
   d="m 369.787,462.879 c -10e-4,-0.002 -10e-4,-0.004 -0.002,-0.005 8.899,22.675 21.899,41.555 39.702,41.555 0,0 -39.855,1.403 -97.873,-10.719 22.301,-6.232 42.393,-16.472 58.173,-30.831 z"
   id="path3010" />

</g>
    <path
       style="fill:#c6946a"
       d="m 102.527,357.387 c 46.181,0 58.004,30.295 51.354,64.285 -6.817,34.843 -22.991,82.758 -51.354,82.758 -28.363,0 -44.537,-47.914 -51.354,-82.758 -6.65,-33.99 5.173,-64.285 51.354,-64.285 z"
       id="path3014" />
    <path
       style="fill:#8c6348"
       d="m 102.527,383.352 c 26.364,0 33.113,18.445 29.317,39.139 -3.892,21.214 -13.125,50.386 -29.317,50.386 -16.192,0 -25.424,-29.172 -29.317,-50.386 -3.795,-20.693 2.953,-39.139 29.317,-39.139 z"
       id="path3016" />
    <path
       style="fill:#c6946a"
       d="m 409.488,357.387 c -46.181,0 -58.004,30.295 -51.354,64.285 6.817,34.843 22.991,82.758 51.354,82.758 28.363,0 44.537,-47.914 51.354,-82.758 6.649,-33.99 -5.173,-64.285 -51.354,-64.285 z"
       id="path3018" />
    <g
       id="g3028">
	<path
   style="fill:#8c6348"
   d="m 142.97,219.247 c 0,0 -133.019,85.545 -78.217,149.088 0.004,0.005 0.008,0.009 0.012,0.014 8.479,-6.86 20.794,-10.962 37.762,-10.962 2.039,0 3.987,0.08 5.893,0.195 5.32,-43.926 25.787,-88.405 58.76,-117.852 0.2,0.119 0.412,0.226 0.614,0.345 -9.587,-5.608 -17.969,-12.5 -24.824,-20.828 z"
   id="path3020" />

	<path
   style="fill:#8c6348"
   d="m 369.045,219.247 c 0,0 133.019,85.545 78.217,149.088 -0.004,0.005 -0.008,0.009 -0.012,0.014 -8.479,-6.86 -20.794,-10.962 -37.762,-10.962 -2.039,0 -3.988,0.08 -5.893,0.195 -5.32,-43.926 -25.787,-88.405 -58.76,-117.852 -0.2,0.119 -0.412,0.226 -0.614,0.345 9.586,-5.608 17.968,-12.5 24.824,-20.828 z"
   id="path3022" />

	<path
   style="fill:#8c6348"
   d="m 364.956,7.514 c -18.413,0 -33.723,13.2 -37.031,30.65 17.392,11.195 31.841,26.409 42.38,44.39 C 388.599,79.956 402.67,64.24 402.67,45.228 402.669,24.399 385.784,7.514 364.956,7.514 Z"
   id="path3024" />

	<path
   style="fill:#8c6348"
   d="m 184.09,38.165 c -3.307,-17.45 -18.619,-30.65 -37.031,-30.65 -20.829,0 -37.714,16.886 -37.714,37.714 0,19.012 14.071,34.728 32.365,37.326 10.539,-17.982 24.989,-33.196 42.38,-44.39 z"
   id="path3026" />

</g>
    <g
       id="g3034">
	<path
   style="fill:#5e4132"
   d="m 167.795,41.16 c -1.866,-9.841 -10.5,-17.286 -20.884,-17.286 -11.747,0 -21.27,9.522 -21.27,21.27 0,10.723 7.936,19.586 18.253,21.051 5.943,-10.141 14.092,-18.721 23.901,-25.035 z"
   id="path3030" />

	<path
   style="fill:#5e4132"
   d="m 344.22,41.16 c 1.866,-9.841 10.5,-17.286 20.884,-17.286 11.747,0 21.27,9.522 21.27,21.27 0,10.723 -7.936,19.586 -18.253,21.051 C 362.177,56.054 354.028,47.474 344.22,41.16 Z"
   id="path3032" />

</g>
    <path
       style="fill:#b27c57"
       d="m 256.007,501.028 c 43.704,0 85.607,-12.516 113.78,-38.149 -5.279,-13.45 -9.116,-28.234 -11.653,-41.207 -6.356,-32.489 4.188,-61.582 45.46,-64.09 -5.32,-43.926 -25.787,-88.405 -58.76,-117.852 -23.614,14.019 -54.725,20.077 -88.826,20.077 -34.101,0 -65.213,-6.058 -88.826,-20.077 -32.974,29.447 -53.44,73.927 -58.76,117.852 41.272,2.508 51.817,31.6 45.46,64.09 -2.538,12.973 -6.375,27.758 -11.653,41.207 28.171,25.633 70.074,38.149 113.778,38.149 z"
       id="path3036" />
    <path
       style="fill:#8c6348"
       d="m 256.007,468.787 c -39.688,0 -77.887,-10.323 -105.672,-31.415 -2.185,8.522 -4.873,17.265 -8.109,25.508 28.173,25.632 70.076,38.149 113.78,38.149 43.704,0 85.607,-12.516 113.78,-38.149 -3.235,-8.244 -5.923,-16.986 -8.109,-25.508 -27.782,21.091 -65.983,31.415 -105.67,31.415 z"
       id="path3038" />
    <path
       style="fill:#c6946a"
       d="m 256.007,17.399 c 76.898,0 133.657,61.739 133.657,137.898 0,76.159 -59.84,104.51 -133.657,104.51 -73.817,0 -133.657,-28.351 -133.657,-104.51 0,-76.159 56.758,-137.898 133.657,-137.898 z"
       id="path3040" />
    <path
       style="fill:#b27c57"
       d="m 256.007,232.755 c -69.399,0 -126.438,-25.064 -133.017,-91.35 -0.422,4.569 -0.639,9.203 -0.639,13.892 0,76.159 59.84,104.51 133.657,104.51 73.817,0 133.657,-28.352 133.657,-104.51 0,-4.689 -0.217,-9.323 -0.639,-13.892 -6.581,66.286 -63.621,91.35 -133.019,91.35 z"
       id="path3042" />
    <g
       id="g3048">
	<path
   style="fill:#77533e"
   d="m 369.045,219.247 c -6.855,8.328 -15.237,15.22 -24.825,20.829 0.201,-0.118 0.413,-0.225 0.614,-0.345 8.154,7.282 15.54,15.485 22.124,24.37 11.79,-6.55 21.813,-14.639 29.623,-24.428 -15.416,-12.63 -27.536,-20.426 -27.536,-20.426 z"
   id="path3044" />

	<path
   style="fill:#77533e"
   d="m 142.97,219.247 c 0,0 -12.12,7.796 -27.536,20.426 7.81,9.789 17.832,17.878 29.623,24.428 6.585,-8.884 13.97,-17.088 22.124,-24.37 0.201,0.119 0.412,0.226 0.614,0.345 -9.588,-5.609 -17.97,-12.501 -24.825,-20.829 z"
   id="path3046" />

</g>
    <path
       style="fill:#8c6348"
       d="m 344.834,239.73 c -23.614,14.019 -54.725,20.077 -88.826,20.077 -34.101,0 -65.213,-6.057 -88.826,-20.077 -8.154,7.282 -15.54,15.485 -22.124,24.37 28.682,15.934 67.81,22.759 110.951,22.759 43.141,0 82.269,-6.826 110.951,-22.759 -6.587,-8.884 -13.972,-17.088 -22.126,-24.37 z"
       id="path3050" />
    <path
       style="fill:#494949"
       d="m 282.266,142.303 c 0,-13.552 -52.519,-13.552 -52.519,0 0,13.552 11.757,24.538 26.26,24.538 14.503,0.001 26.259,-10.986 26.259,-24.538 z"
       id="path3052" />
    <path
       style="fill:#8c6348"
       d="m 409.488,383.352 c -26.364,0 -33.113,18.445 -29.317,39.139 3.892,21.214 13.125,50.386 29.317,50.386 16.192,0 25.424,-29.172 29.316,-50.386 3.795,-20.693 -2.954,-39.139 -29.316,-39.139 z"
       id="path3054" />
    <path
       d="m 184.755,140.681 c 6.501,0 11.79,-5.288 11.79,-11.789 0,-6.501 -5.288,-11.79 -11.79,-11.79 -6.5,0 -11.789,5.288 -11.789,11.79 0.002,6.501 5.29,11.789 11.789,11.789 z"
       id="path3056" />
    <path
       d="m 327.258,140.681 c 6.501,0 11.79,-5.288 11.79,-11.789 0,-6.501 -5.288,-11.79 -11.79,-11.79 -6.5,0 -11.789,5.288 -11.789,11.79 0,6.501 5.288,11.789 11.789,11.789 z"
       id="path3058" />
    <path
       d="m 248.492,173.547 v 27.997 c 0,4.15 3.363,7.514 7.514,7.514 4.151,0 7.515,-3.364 7.515,-7.514 v -27.997 c 15.016,-3.252 26.26,-16.021 26.26,-31.243 0,-13.034 -17.447,-17.678 -33.774,-17.678 -16.327,0 -33.774,4.644 -33.774,17.678 0,15.222 11.243,27.99 26.259,31.243 z m 7.515,-33.893 c 10.221,0 16.795,2.152 18.719,3.566 -0.525,8.962 -8.721,16.107 -18.719,16.107 -9.998,0 -18.193,-7.145 -18.719,-16.107 1.924,-1.414 8.498,-3.566 18.719,-3.566 z"
       id="path3060" />
    <path
       d="m 364.866,416.549 c -0.052,-0.336 -0.102,-0.673 -0.151,-1.014 -0.007,-0.053 -0.014,-0.104 -0.022,-0.156 -0.977,-6.963 -1.231,-14.926 0.512,-22.437 0.001,-0.003 0.001,-0.006 0.002,-0.009 0.094,-0.405 0.195,-0.808 0.302,-1.209 0.024,-0.091 0.049,-0.182 0.073,-0.273 0.085,-0.315 0.174,-0.627 0.268,-0.94 0.041,-0.137 0.082,-0.276 0.124,-0.411 0.083,-0.268 0.169,-0.536 0.258,-0.803 0.051,-0.153 0.101,-0.309 0.154,-0.459 0.097,-0.281 0.199,-0.559 0.303,-0.837 0.044,-0.118 0.087,-0.239 0.131,-0.357 0.15,-0.39 0.307,-0.779 0.471,-1.163 0.028,-0.067 0.058,-0.131 0.087,-0.197 0.147,-0.342 0.3,-0.681 0.458,-1.019 0.027,-0.058 0.055,-0.115 0.082,-0.173 0.974,-2.04 2.155,-3.998 3.578,-5.837 6.568,-8.489 17.52,-13.256 32.555,-14.169 1.075,-0.065 2.06,-0.111 3,-0.141 0.806,-0.021 1.611,-0.041 2.439,-0.041 0.904,0 1.792,0.014 2.67,0.038 13.022,0.37 23.228,3.477 30.366,9.251 0.222,0.18 0.467,0.325 0.705,0.477 7.81,6.665 11.77,16.72 11.81,30.132 0.013,4.143 3.374,7.492 7.514,7.492 0.007,0 0.015,0 0.022,0 4.15,-0.012 7.503,-3.387 7.492,-7.537 -0.044,-15.061 -4.436,-27.849 -12.724,-37.158 8.868,-12.67 12.24,-26.84 10.013,-42.218 -6.921,-47.791 -67.014,-93.549 -87.53,-107.906 11.527,-16.863 17.351,-37.654 17.351,-62.177 0,-24.209 -5.452,-47.394 -15.721,-67.974 C 398.377,80.65 410.184,64.049 410.184,45.23 410.183,20.289 389.894,0 364.956,0 346.791,0 330.747,10.842 323.633,26.872 303.327,15.774 280.253,9.884 256.008,9.884 c -24.247,0 -47.32,5.889 -67.625,16.987 C 181.268,10.842 165.225,0 147.059,0 122.12,0 101.83,20.289 101.83,45.228 c 0,18.819 11.807,35.42 28.726,42.094 -10.27,20.58 -15.721,43.766 -15.721,67.974 0,24.528 5.827,45.323 17.359,62.188 -7.006,4.919 -18.706,13.566 -31.398,24.767 -3.111,2.746 -3.408,7.494 -0.661,10.606 2.746,3.112 7.494,3.408 10.606,0.661 12.621,-11.139 24.422,-19.771 30.968,-24.34 4.026,4.192 8.497,8.072 13.42,11.629 -0.404,0.406 -0.799,0.822 -1.198,1.232 -0.346,0.355 -0.692,0.707 -1.035,1.065 -0.644,0.674 -1.28,1.358 -1.916,2.044 -0.266,0.287 -0.534,0.569 -0.798,0.858 -0.891,0.976 -1.771,1.964 -2.642,2.964 -0.168,0.193 -0.332,0.392 -0.499,0.585 -0.7,0.812 -1.397,1.628 -2.084,2.455 -0.312,0.375 -0.617,0.756 -0.927,1.134 -0.536,0.656 -1.071,1.314 -1.599,1.978 -0.34,0.428 -0.675,0.861 -1.011,1.292 -0.49,0.629 -0.978,1.26 -1.46,1.897 -0.342,0.452 -0.681,0.906 -1.02,1.361 -0.469,0.631 -0.935,1.266 -1.397,1.905 -0.334,0.462 -0.667,0.925 -0.998,1.39 -0.463,0.653 -0.921,1.312 -1.377,1.972 -0.315,0.456 -0.63,0.91 -0.941,1.369 -0.483,0.713 -0.958,1.435 -1.432,2.156 -0.271,0.412 -0.545,0.821 -0.813,1.235 -0.636,0.986 -1.262,1.98 -1.883,2.98 -0.1,0.162 -0.204,0.322 -0.305,0.484 -0.702,1.14 -1.392,2.291 -2.072,3.45 -0.244,0.417 -0.483,0.84 -0.724,1.258 -0.442,0.766 -0.882,1.531 -1.314,2.303 -0.274,0.489 -0.541,0.982 -0.811,1.474 -0.392,0.715 -0.783,1.432 -1.166,2.154 -0.275,0.516 -0.545,1.034 -0.815,1.553 -0.369,0.708 -0.734,1.42 -1.095,2.134 -0.267,0.527 -0.531,1.055 -0.793,1.585 -0.359,0.725 -0.711,1.455 -1.062,2.186 -0.249,0.52 -0.499,1.04 -0.744,1.563 -0.363,0.772 -0.716,1.55 -1.07,2.328 -0.22,0.486 -0.444,0.97 -0.66,1.458 -0.414,0.932 -0.818,1.871 -1.218,2.811 -0.144,0.339 -0.294,0.674 -0.437,1.014 -0.535,1.273 -1.057,2.555 -1.567,3.842 -0.148,0.375 -0.29,0.753 -0.437,1.13 -0.361,0.926 -0.719,1.853 -1.067,2.785 -0.188,0.504 -0.369,1.011 -0.553,1.517 -0.297,0.816 -0.592,1.631 -0.88,2.452 -0.189,0.541 -0.375,1.085 -0.56,1.629 -0.272,0.796 -0.539,1.593 -0.802,2.393 -0.181,0.554 -0.361,1.108 -0.537,1.664 -0.256,0.807 -0.508,1.615 -0.755,2.426 -0.166,0.546 -0.334,1.093 -0.496,1.641 -0.25,0.846 -0.493,1.694 -0.733,2.544 -0.146,0.516 -0.294,1.03 -0.436,1.547 -0.266,0.967 -0.52,1.937 -0.771,2.909 -0.104,0.401 -0.212,0.8 -0.315,1.2 -0.349,1.381 -0.686,2.765 -1.008,4.155 -0.04,0.174 -0.076,0.351 -0.116,0.525 -0.278,1.214 -0.547,2.432 -0.805,3.652 -0.096,0.458 -0.185,0.919 -0.279,1.378 -0.192,0.944 -0.382,1.888 -0.561,2.835 -0.1,0.527 -0.194,1.056 -0.29,1.584 -0.161,0.89 -0.32,1.779 -0.47,2.672 -0.092,0.549 -0.181,1.099 -0.27,1.649 -0.07,0.436 -0.146,0.87 -0.214,1.306 -1.047,0.006 -2.077,0.031 -3.099,0.067 -0.314,0.011 -0.623,0.026 -0.935,0.04 -0.888,0.039 -1.765,0.089 -2.633,0.15 -0.336,0.023 -0.675,0.042 -1.008,0.069 -0.955,0.078 -1.895,0.172 -2.825,0.278 -0.56,0.063 -1.113,0.133 -1.664,0.206 -0.398,0.053 -0.791,0.11 -1.183,0.168 -8.459,1.238 -15.85,3.669 -22.137,7.276 -14.898,-22.443 -7.078,-50.685 23.317,-84.063 2.794,-3.069 2.572,-7.821 -0.496,-10.615 -3.069,-2.794 -7.822,-2.572 -10.615,0.497 -44.173,48.509 -38.753,82.475 -23.935,103.667 -0.395,0.444 -0.799,0.878 -1.177,1.338 -10.733,13.035 -14.09,31.764 -9.707,54.162 5.21,26.634 21.321,88.481 58.423,88.821 0.014,0 0.028,0.003 0.042,0.003 0.306,0.01 1.892,0.061 4.641,0.061 12.069,0 46.53,-0.978 93.102,-10.538 17.285,4.656 36.132,7.082 56.002,7.082 19.87,0 38.717,-2.426 56.002,-7.082 46.576,9.561 81.035,10.538 93.101,10.538 2.748,0 4.335,-0.05 4.641,-0.061 0.044,-10e-4 0.086,-0.009 0.129,-0.011 13.903,-0.163 26.185,-8.908 36.506,-26.025 9.325,-15.466 15.343,-35.11 18.748,-48.864 0.997,-4.029 -1.46,-8.103 -5.488,-9.101 -4.03,-0.996 -8.104,1.46 -9.101,5.489 -9.844,39.755 -25.194,63.489 -41.058,63.489 -0.302,0 -0.602,-0.011 -0.901,-0.027 -0.113,-0.006 -0.227,-0.016 -0.342,-0.025 -0.185,-0.014 -0.371,-0.03 -0.556,-0.05 -0.139,-0.015 -0.281,-0.033 -0.422,-0.052 -0.16,-0.021 -0.32,-0.046 -0.479,-0.072 -0.151,-0.025 -0.303,-0.05 -0.456,-0.08 -0.156,-0.03 -0.312,-0.064 -0.468,-0.098 -0.149,-0.033 -0.298,-0.065 -0.448,-0.102 -0.185,-0.046 -0.371,-0.098 -0.555,-0.15 -0.115,-0.033 -0.23,-0.063 -0.347,-0.098 -0.297,-0.091 -0.592,-0.187 -0.887,-0.294 0,0 -10e-4,0 -0.002,0 -17.435,-6.299 -30.439,-39.835 -37.086,-70.623 0,-0.002 -0.001,-0.005 -0.001,-0.007 -0.109,-0.505 -0.215,-1.008 -0.321,-1.511 -0.052,-0.25 -0.103,-0.495 -0.153,-0.741 -0.067,-0.325 -0.134,-0.648 -0.2,-0.972 -0.123,-0.607 -0.242,-1.204 -0.356,-1.781 -0.119,-0.61 -0.228,-1.209 -0.333,-1.805 -0.026,-0.147 -0.052,-0.293 -0.078,-0.441 -0.078,-0.482 -0.154,-0.958 -0.227,-1.432 z m 0.09,-401.52 c 16.651,0 30.199,13.547 30.199,30.199 0,13.313 -8.843,24.963 -21.219,28.828 C 369.046,66.41 363.428,59.224 357.111,52.602 350.794,45.98 343.916,40.08 336.576,34.926 340.831,23.158 352.1,15.029 364.956,15.029 Z M 116.86,45.228 c 0,-16.652 13.548,-30.199 30.199,-30.199 12.856,0 24.124,8.129 28.38,19.897 -7.339,5.153 -14.217,11.053 -20.535,17.676 -6.316,6.623 -11.934,13.809 -16.824,21.454 -12.378,-3.865 -21.22,-15.515 -21.22,-28.828 z m 31.187,41.344 c 0.047,-0.074 0.103,-0.141 0.147,-0.217 9.907,-16.905 23.667,-31.339 39.798,-41.761 19.865,-12.817 43.246,-19.681 68.016,-19.681 24.77,0 48.15,6.864 68.016,19.681 16.131,10.421 29.891,24.855 39.798,41.761 0.045,0.076 0.1,0.143 0.147,0.217 11.842,20.277 18.181,43.887 18.181,68.725 0,24.565 -6.632,44.704 -19.744,60.143 -0.304,0.356 -0.608,0.711 -0.919,1.063 -0.325,0.369 -0.652,0.735 -0.985,1.099 -5.587,6.075 -12.31,11.441 -20.054,15.975 -0.012,0.007 -0.022,0.013 -0.034,0.02 -0.004,0.003 -0.008,0.006 -0.013,0.008 -1.013,0.592 -2.04,1.173 -3.085,1.738 -0.345,0.184 -0.692,0.367 -1.041,0.549 -0.8,0.42 -1.613,0.827 -2.431,1.23 -17.781,8.714 -40.351,13.792 -66.46,14.923 -1.487,0.062 -2.976,0.121 -4.488,0.158 -0.375,0.01 -0.754,0.014 -1.13,0.022 -1.902,0.039 -3.816,0.066 -5.759,0.066 -1.943,0 -3.856,-0.027 -5.759,-0.066 -0.376,-0.008 -0.755,-0.012 -1.13,-0.022 -1.512,-0.037 -3.002,-0.096 -4.488,-0.158 -26.109,-1.132 -48.679,-6.209 -66.46,-14.923 -0.818,-0.404 -1.632,-0.811 -2.431,-1.23 -0.349,-0.182 -0.696,-0.365 -1.041,-0.549 -1.046,-0.564 -2.072,-1.145 -3.085,-1.738 -0.004,-0.003 -0.008,-0.006 -0.013,-0.008 -0.011,-0.006 -0.021,-0.013 -0.033,-0.019 -7.744,-4.534 -14.467,-9.9 -20.054,-15.975 -0.334,-0.364 -0.661,-0.731 -0.987,-1.101 -0.311,-0.351 -0.614,-0.706 -0.917,-1.062 -13.113,-15.44 -19.745,-35.578 -19.745,-60.143 0.001,-24.839 6.341,-48.448 18.183,-68.725 z m -89.5,333.657 c -4.41,-22.543 1.133,-35.133 6.561,-41.724 1.288,-1.566 2.743,-2.988 4.34,-4.285 0.014,-0.011 0.029,-0.018 0.043,-0.029 0.948,-0.767 1.951,-1.487 3.007,-2.16 0.01,-0.007 0.021,-0.013 0.031,-0.02 2.617,-1.663 5.563,-3.036 8.827,-4.117 0.067,-0.022 0.134,-0.045 0.201,-0.067 0.596,-0.194 1.204,-0.379 1.822,-0.554 0.112,-0.032 0.226,-0.062 0.34,-0.093 0.613,-0.169 1.232,-0.333 1.866,-0.483 0.055,-0.013 0.112,-0.024 0.167,-0.037 1.851,-0.434 3.793,-0.782 5.814,-1.055 0.384,-0.051 0.765,-0.105 1.155,-0.151 0.446,-0.053 0.9,-0.098 1.354,-0.143 0.481,-0.047 0.965,-0.092 1.455,-0.131 0.41,-0.033 0.822,-0.064 1.237,-0.09 0.592,-0.038 1.193,-0.068 1.798,-0.093 0.341,-0.015 0.677,-0.033 1.022,-0.043 0.965,-0.03 1.941,-0.049 2.938,-0.049 0.828,0 1.633,0.02 2.439,0.041 0.939,0.03 1.925,0.076 3,0.141 15.035,0.914 25.987,5.68 32.555,14.169 7.504,9.7 8.329,22.694 7.106,33.717 -0.002,0.019 -0.004,0.037 -0.007,0.056 -0.045,0.402 -0.092,0.802 -0.142,1.197 -0.007,0.054 -0.014,0.107 -0.021,0.16 -0.046,0.362 -0.094,0.722 -0.145,1.079 -0.012,0.086 -0.025,0.171 -0.038,0.257 -0.046,0.322 -0.093,0.643 -0.143,0.961 -0.023,0.145 -0.047,0.288 -0.07,0.433 -0.041,0.257 -0.082,0.516 -0.125,0.771 -0.038,0.223 -0.077,0.443 -0.117,0.664 -0.03,0.172 -0.06,0.346 -0.091,0.516 -0.072,0.393 -0.145,0.78 -0.22,1.164 -0.113,0.576 -0.232,1.173 -0.356,1.781 -0.066,0.324 -0.133,0.647 -0.199,0.972 -0.051,0.245 -0.101,0.491 -0.153,0.741 -0.105,0.503 -0.212,1.007 -0.321,1.511 -0.001,0.002 -0.001,0.005 -0.001,0.007 -6.648,30.788 -19.651,64.324 -37.085,70.623 -0.001,0 -0.001,0 -0.002,0 -0.295,0.106 -0.59,0.203 -0.887,0.294 -0.117,0.035 -0.231,0.065 -0.347,0.098 -0.184,0.052 -0.369,0.104 -0.555,0.15 -0.15,0.037 -0.3,0.069 -0.448,0.102 -0.155,0.034 -0.312,0.068 -0.468,0.098 -0.153,0.029 -0.305,0.055 -0.456,0.08 -0.159,0.026 -0.319,0.051 -0.479,0.072 -0.141,0.019 -0.283,0.037 -0.422,0.052 -0.184,0.02 -0.37,0.036 -0.556,0.05 -0.114,0.009 -0.229,0.019 -0.342,0.025 -0.3,0.016 -0.599,0.027 -0.901,0.027 -21.388,0.001 -37.059,-41.31 -43.981,-76.685 z m 73.941,75.635 c 4.545,-5.511 8.77,-12.426 12.665,-20.742 0.079,0.061 0.161,0.119 0.24,0.18 0.421,0.323 0.851,0.635 1.275,0.954 0.57,0.427 1.136,0.857 1.716,1.274 0.515,0.373 1.042,0.734 1.564,1.1 0.493,0.346 0.979,0.697 1.478,1.037 6.361,4.337 13.208,8.208 20.473,11.605 -15.279,2.385 -28.626,3.78 -39.411,4.592 z m 19.163,-34.792 c -0.182,-0.149 -0.367,-0.299 -0.548,-0.449 3.894,-10.813 6.706,-21.567 8.655,-30.345 0.049,-0.219 0.096,-0.437 0.144,-0.653 0.074,-0.339 0.148,-0.676 0.22,-1.008 0.113,-0.524 0.223,-1.041 0.331,-1.548 0.042,-0.199 0.081,-0.392 0.122,-0.588 0.085,-0.411 0.168,-0.815 0.249,-1.213 0.037,-0.183 0.074,-0.366 0.111,-0.546 0.104,-0.515 0.205,-1.022 0.302,-1.515 0.006,-0.03 0.012,-0.062 0.018,-0.092 0.27,-1.376 0.508,-2.737 0.718,-4.086 0.098,-0.627 0.169,-1.24 0.254,-1.862 0.097,-0.707 0.206,-1.421 0.287,-2.12 0.095,-0.825 0.161,-1.633 0.234,-2.446 0.043,-0.476 0.098,-0.96 0.133,-1.432 0.069,-0.932 0.107,-1.848 0.146,-2.763 0.014,-0.338 0.04,-0.681 0.05,-1.017 0.03,-0.996 0.031,-1.975 0.025,-2.95 -0.002,-0.242 0.006,-0.491 0.002,-0.732 -0.016,-1.028 -0.061,-2.04 -0.117,-3.045 -0.01,-0.179 -0.013,-0.364 -0.025,-0.542 -0.066,-1.038 -0.16,-2.059 -0.27,-3.072 -0.015,-0.139 -0.025,-0.281 -0.041,-0.42 -0.117,-1.032 -0.264,-2.046 -0.426,-3.05 -0.019,-0.114 -0.033,-0.231 -0.052,-0.345 -0.169,-1.011 -0.367,-2.005 -0.582,-2.988 -0.023,-0.102 -0.041,-0.207 -0.065,-0.31 -0.219,-0.979 -0.467,-1.94 -0.732,-2.889 -0.029,-0.103 -0.055,-0.208 -0.084,-0.311 -0.269,-0.938 -0.562,-1.858 -0.876,-2.765 -0.038,-0.109 -0.072,-0.221 -0.111,-0.331 -0.314,-0.892 -0.653,-1.766 -1.011,-2.629 -0.049,-0.119 -0.096,-0.24 -0.146,-0.359 -0.357,-0.844 -0.738,-1.671 -1.137,-2.486 -0.064,-0.13 -0.125,-0.263 -0.19,-0.392 -0.398,-0.795 -0.819,-1.573 -1.257,-2.339 -0.08,-0.14 -0.159,-0.283 -0.24,-0.422 -0.438,-0.747 -0.897,-1.479 -1.374,-2.198 -0.097,-0.146 -0.192,-0.294 -0.291,-0.439 -0.479,-0.705 -0.978,-1.395 -1.494,-2.071 -0.062,-0.081 -0.117,-0.168 -0.179,-0.249 -0.061,-0.078 -0.127,-0.152 -0.188,-0.23 -0.226,-0.289 -0.437,-0.59 -0.67,-0.873 -0.191,-0.232 -0.4,-0.448 -0.595,-0.676 -0.105,-0.123 -0.214,-0.242 -0.322,-0.365 -1.521,-1.738 -3.16,-3.355 -4.921,-4.844 -0.014,-0.012 -0.028,-0.024 -0.042,-0.036 -0.577,-0.487 -1.17,-0.956 -1.772,-1.415 -0.079,-0.06 -0.158,-0.121 -0.237,-0.18 -7.151,-5.383 -16.073,-8.9 -26.7,-10.516 0.012,-0.075 0.023,-0.151 0.035,-0.226 0.088,-0.537 0.185,-1.072 0.278,-1.609 0.129,-0.749 0.257,-1.499 0.396,-2.247 0.105,-0.57 0.218,-1.138 0.329,-1.707 0.138,-0.712 0.277,-1.425 0.423,-2.136 0.119,-0.581 0.245,-1.16 0.37,-1.739 0.15,-0.697 0.302,-1.395 0.46,-2.091 0.132,-0.582 0.269,-1.163 0.406,-1.744 0.163,-0.691 0.33,-1.383 0.501,-2.072 0.143,-0.578 0.29,-1.155 0.438,-1.731 0.177,-0.689 0.36,-1.378 0.545,-2.065 0.154,-0.572 0.31,-1.144 0.469,-1.714 0.192,-0.69 0.391,-1.38 0.591,-2.068 0.163,-0.561 0.327,-1.123 0.494,-1.682 0.21,-0.699 0.428,-1.396 0.645,-2.092 0.169,-0.543 0.338,-1.086 0.512,-1.627 0.232,-0.722 0.474,-1.441 0.715,-2.159 0.171,-0.511 0.339,-1.023 0.514,-1.532 0.272,-0.789 0.553,-1.572 0.835,-2.357 0.155,-0.432 0.305,-0.867 0.463,-1.298 0.441,-1.204 0.893,-2.404 1.357,-3.597 0.054,-0.139 0.112,-0.278 0.166,-0.417 0.417,-1.063 0.84,-2.123 1.274,-3.177 0.174,-0.424 0.357,-0.843 0.534,-1.264 0.321,-0.764 0.642,-1.528 0.972,-2.287 0.208,-0.479 0.424,-0.954 0.636,-1.431 0.311,-0.696 0.62,-1.394 0.938,-2.085 0.228,-0.497 0.462,-0.99 0.694,-1.484 0.313,-0.665 0.625,-1.33 0.945,-1.991 0.242,-0.502 0.49,-1.001 0.736,-1.499 0.321,-0.648 0.643,-1.294 0.97,-1.938 0.253,-0.498 0.51,-0.993 0.766,-1.488 0.332,-0.638 0.667,-1.274 1.006,-1.909 0.262,-0.49 0.526,-0.979 0.792,-1.466 0.346,-0.632 0.695,-1.261 1.047,-1.888 0.269,-0.478 0.536,-0.955 0.809,-1.429 0.364,-0.633 0.732,-1.262 1.102,-1.891 0.271,-0.459 0.54,-0.919 0.814,-1.375 0.389,-0.646 0.784,-1.285 1.178,-1.925 0.265,-0.427 0.526,-0.857 0.794,-1.28 0.43,-0.682 0.868,-1.358 1.306,-2.032 0.242,-0.374 0.482,-0.751 0.727,-1.123 0.542,-0.822 1.093,-1.633 1.647,-2.443 0.147,-0.215 0.292,-0.435 0.44,-0.649 0.708,-1.025 1.427,-2.04 2.154,-3.045 0.167,-0.231 0.34,-0.458 0.509,-0.688 0.56,-0.765 1.122,-1.529 1.694,-2.282 0.265,-0.35 0.535,-0.691 0.802,-1.038 0.483,-0.626 0.965,-1.252 1.455,-1.87 0.304,-0.383 0.612,-0.759 0.919,-1.138 0.462,-0.571 0.924,-1.142 1.393,-1.705 0.327,-0.393 0.656,-0.78 0.986,-1.168 0.457,-0.539 0.916,-1.077 1.38,-1.609 0.342,-0.392 0.686,-0.78 1.031,-1.168 0.46,-0.518 0.923,-1.032 1.388,-1.542 0.353,-0.386 0.707,-0.769 1.063,-1.15 0.468,-0.502 0.94,-1 1.413,-1.494 0.359,-0.374 0.718,-0.747 1.08,-1.116 0.482,-0.492 0.967,-0.978 1.454,-1.462 0.361,-0.359 0.721,-0.717 1.085,-1.071 0.151,-0.147 0.306,-0.291 0.458,-0.438 0.242,0.128 0.496,0.246 0.739,0.374 6.878,3.597 14.338,6.658 22.363,9.179 0.169,0.053 0.337,0.107 0.505,0.159 1.521,0.472 3.063,0.925 4.625,1.358 0.235,0.065 0.473,0.129 0.709,0.194 1.56,0.426 3.135,0.837 4.734,1.223 0.174,0.042 0.353,0.081 0.528,0.123 6.491,1.55 13.307,2.785 20.438,3.706 0.768,0.099 1.532,0.204 2.308,0.297 1.205,0.143 2.427,0.27 3.649,0.395 1.012,0.104 2.028,0.204 3.052,0.297 1.112,0.099 2.231,0.191 3.358,0.277 1.2,0.091 2.412,0.17 3.628,0.245 1.015,0.062 2.028,0.125 3.054,0.175 1.457,0.072 2.932,0.125 4.411,0.174 0.833,0.028 1.657,0.064 2.498,0.084 2.349,0.057 4.718,0.091 7.121,0.091 2.403,0 4.773,-0.034 7.122,-0.091 0.839,-0.02 1.662,-0.057 2.494,-0.084 1.481,-0.049 2.957,-0.102 4.416,-0.174 1.025,-0.05 2.037,-0.113 3.05,-0.175 1.217,-0.075 2.429,-0.154 3.63,-0.245 1.126,-0.085 2.245,-0.177 3.357,-0.277 1.024,-0.092 2.039,-0.192 3.052,-0.297 1.223,-0.125 2.444,-0.253 3.649,-0.395 0.776,-0.092 1.541,-0.197 2.309,-0.297 7.131,-0.921 13.947,-2.156 20.437,-3.706 0.175,-0.042 0.354,-0.081 0.529,-0.123 1.599,-0.388 3.173,-0.799 4.733,-1.223 0.236,-0.065 0.475,-0.128 0.71,-0.194 1.562,-0.434 3.104,-0.886 4.626,-1.359 0.168,-0.052 0.335,-0.106 0.502,-0.158 8.036,-2.525 15.505,-5.59 22.391,-9.194 0.229,-0.119 0.468,-0.23 0.696,-0.352 0.452,0.435 0.905,0.868 1.353,1.309 0.651,0.642 1.303,1.286 1.945,1.943 0.756,0.773 1.501,1.563 2.244,2.357 0.617,0.659 1.236,1.318 1.844,1.99 0.745,0.825 1.478,1.669 2.209,2.514 0.584,0.674 1.17,1.345 1.745,2.033 0.734,0.879 1.453,1.777 2.171,2.676 0.549,0.687 1.104,1.367 1.644,2.066 0.726,0.939 1.434,1.901 2.143,2.861 0.51,0.689 1.027,1.37 1.529,2.07 0.728,1.017 1.435,2.061 2.145,3.101 0.46,0.673 0.929,1.335 1.381,2.018 0.766,1.157 1.508,2.344 2.252,3.528 0.372,0.592 0.755,1.17 1.122,1.769 1.098,1.794 2.173,3.617 3.219,5.471 2.04,3.614 6.625,4.889 10.238,2.848 3.614,-2.041 4.889,-6.625 2.848,-10.239 -0.923,-1.634 -1.871,-3.241 -2.831,-4.834 -0.178,-0.296 -0.355,-0.592 -0.534,-0.886 -0.935,-1.533 -1.888,-3.047 -2.857,-4.541 -0.176,-0.273 -0.356,-0.541 -0.534,-0.813 -0.991,-1.51 -1.995,-3.005 -3.021,-4.473 -0.027,-0.039 -0.053,-0.078 -0.08,-0.117 -1.045,-1.493 -2.113,-2.958 -3.193,-4.408 -0.199,-0.268 -0.398,-0.536 -0.599,-0.803 -1.057,-1.403 -2.131,-2.786 -3.221,-4.147 -0.183,-0.229 -0.37,-0.455 -0.554,-0.682 -1.086,-1.342 -2.185,-2.666 -3.303,-3.966 -0.066,-0.077 -0.131,-0.156 -0.198,-0.233 -1.153,-1.336 -2.327,-2.643 -3.514,-3.935 -0.228,-0.247 -0.456,-0.496 -0.684,-0.742 -1.169,-1.256 -2.352,-2.494 -3.552,-3.707 -0.062,-0.063 -0.121,-0.129 -0.183,-0.191 4.921,-3.556 9.392,-7.435 13.417,-11.625 18.049,12.624 76.093,56.203 82.185,98.363 1.623,11.23 -0.628,21.299 -6.874,30.604 -4.091,-2.348 -8.644,-4.199 -13.648,-5.549 -0.113,-0.031 -0.226,-0.06 -0.34,-0.09 -1.895,-0.5 -3.852,-0.93 -5.874,-1.288 -0.377,-0.067 -0.752,-0.133 -1.133,-0.194 -0.519,-0.084 -1.04,-0.165 -1.567,-0.24 -0.591,-0.084 -1.191,-0.159 -1.792,-0.231 -0.535,-0.064 -1.073,-0.126 -1.616,-0.181 -0.766,-0.078 -1.541,-0.148 -2.323,-0.208 -0.371,-0.028 -0.743,-0.053 -1.117,-0.077 -0.794,-0.051 -1.594,-0.093 -2.403,-0.125 -0.268,-0.011 -0.532,-0.026 -0.802,-0.034 -0.951,-0.031 -1.909,-0.052 -2.881,-0.057 -0.286,-1.845 -0.598,-3.686 -0.934,-5.525 -0.069,-0.382 -0.151,-0.761 -0.223,-1.143 -0.295,-1.564 -0.601,-3.126 -0.932,-4.684 -0.143,-0.675 -0.301,-1.348 -0.45,-2.021 -0.282,-1.266 -0.569,-2.532 -0.874,-3.794 -0.179,-0.742 -0.369,-1.483 -0.556,-2.223 -0.304,-1.199 -0.616,-2.396 -0.941,-3.59 -0.204,-0.752 -0.414,-1.503 -0.626,-2.253 -0.34,-1.194 -0.692,-2.386 -1.053,-3.575 -0.22,-0.727 -0.44,-1.456 -0.668,-2.181 -0.396,-1.257 -0.811,-2.509 -1.23,-3.759 -0.215,-0.642 -0.424,-1.286 -0.645,-1.927 -0.543,-1.568 -1.11,-3.13 -1.69,-4.687 -0.105,-0.283 -0.199,-0.567 -0.307,-0.85 -0.005,-0.014 -0.012,-0.026 -0.017,-0.04 -0.019,-0.051 -0.037,-0.103 -0.056,-0.154 -1.47,-3.881 -5.805,-5.836 -9.689,-4.366 -3.88,1.47 -5.835,5.807 -4.365,9.689 0.656,1.732 1.281,3.474 1.888,5.221 0.189,0.546 0.366,1.095 0.55,1.642 0.402,1.191 0.797,2.384 1.174,3.58 0.207,0.658 0.408,1.318 0.609,1.978 0.338,1.11 0.666,2.222 0.985,3.337 0.192,0.673 0.383,1.347 0.567,2.022 0.317,1.156 0.618,2.315 0.914,3.477 0.156,0.614 0.318,1.226 0.467,1.842 0.365,1.494 0.708,2.991 1.037,4.491 0.06,0.276 0.128,0.549 0.187,0.825 0.38,1.77 0.73,3.545 1.06,5.323 0.1,0.541 0.188,1.084 0.285,1.626 0.163,0.923 0.316,1.846 0.465,2.769 -10.625,1.617 -19.545,5.135 -26.692,10.517 -0.076,0.057 -0.152,0.116 -0.228,0.174 -0.605,0.461 -1.2,0.933 -1.779,1.421 -0.01,0.009 -0.02,0.018 -0.031,0.027 -1.766,1.492 -3.41,3.114 -4.935,4.857 -0.105,0.12 -0.212,0.237 -0.316,0.359 -0.196,0.229 -0.405,0.445 -0.597,0.678 -0.233,0.284 -0.444,0.584 -0.67,0.874 -0.061,0.078 -0.127,0.151 -0.188,0.23 -0.063,0.081 -0.117,0.168 -0.18,0.249 -0.516,0.676 -1.016,1.366 -1.494,2.071 -0.098,0.145 -0.194,0.293 -0.291,0.439 -0.476,0.718 -0.936,1.45 -1.374,2.197 -0.082,0.14 -0.16,0.283 -0.241,0.424 -0.438,0.765 -0.859,1.543 -1.256,2.338 -0.065,0.13 -0.126,0.262 -0.19,0.393 -0.399,0.815 -0.781,1.641 -1.137,2.485 -0.05,0.118 -0.097,0.24 -0.146,0.36 -0.358,0.863 -0.696,1.737 -1.011,2.629 -0.038,0.109 -0.073,0.22 -0.111,0.331 -0.313,0.908 -0.607,1.829 -0.876,2.765 -0.029,0.102 -0.055,0.207 -0.084,0.311 -0.266,0.949 -0.512,1.91 -0.732,2.889 -0.023,0.102 -0.042,0.207 -0.065,0.311 -0.215,0.982 -0.413,1.976 -0.582,2.987 -0.019,0.114 -0.033,0.231 -0.052,0.347 -0.162,1.004 -0.309,2.018 -0.426,3.049 -0.016,0.139 -0.026,0.282 -0.041,0.421 -0.109,1.012 -0.203,2.033 -0.269,3.071 -0.011,0.179 -0.015,0.364 -0.025,0.543 -0.056,1.005 -0.101,2.016 -0.117,3.044 -0.004,0.242 0.004,0.491 0.002,0.734 -0.006,0.975 -0.005,1.954 0.025,2.949 0.01,0.334 0.036,0.676 0.05,1.012 0.039,0.918 0.078,1.836 0.147,2.768 0.034,0.469 0.09,0.949 0.132,1.422 0.073,0.817 0.139,1.629 0.235,2.457 0.079,0.687 0.186,1.389 0.282,2.084 0.087,0.633 0.159,1.258 0.26,1.898 0.21,1.348 0.449,2.708 0.718,4.084 0.103,0.527 0.212,1.073 0.324,1.627 0.034,0.166 0.068,0.335 0.102,0.503 0.085,0.417 0.172,0.841 0.262,1.271 0.038,0.18 0.074,0.359 0.112,0.541 0.108,0.514 0.22,1.038 0.335,1.571 0.069,0.322 0.141,0.65 0.213,0.978 0.05,0.228 0.101,0.457 0.152,0.687 1.948,8.775 4.76,19.524 8.651,30.329 -0.181,0.15 -0.366,0.3 -0.548,0.449 -25.351,20.676 -62.982,32.442 -104.355,32.442 -41.373,0 -79.012,-11.783 -104.363,-32.459 z m 188.462,30.201 c 7.264,-3.398 14.112,-7.269 20.473,-11.605 0.499,-0.34 0.985,-0.691 1.478,-1.037 0.522,-0.366 1.049,-0.727 1.564,-1.1 0.579,-0.419 1.145,-0.849 1.716,-1.274 0.425,-0.318 0.856,-0.631 1.275,-0.954 0.079,-0.061 0.161,-0.119 0.241,-0.18 3.896,8.315 8.119,15.231 12.664,20.742 -10.783,-0.813 -24.13,-2.208 -39.411,-4.592 z"
       id="path3062" />
    <g
       id="g3064">
</g>
    <g
       id="g3066">
</g>
    <g
       id="g3068">
</g>
    <g
       id="g3070">
</g>
    <g
       id="g3072">
</g>
    <g
       id="g3074">
</g>
    <g
       id="g3076">
</g>
    <g
       id="g3078">
</g>
    <g
       id="g3080">
</g>
    <g
       id="g3082">
</g>
    <g
       id="g3084">
</g>
    <g
       id="g3086">
</g>
    <g
       id="g3088">
</g>
    <g
       id="g3090">
</g>
    <g
       id="g3092">
</g>
  </g>
</svg>
