<?xml version="1.0" encoding="UTF-8" standalone="no"?>
<svg
   xmlns:dc="http://purl.org/dc/elements/1.1/"
   xmlns:cc="http://creativecommons.org/ns#"
   xmlns:rdf="http://www.w3.org/1999/02/22-rdf-syntax-ns#"
   xmlns:svg="http://www.w3.org/2000/svg"
   xmlns="http://www.w3.org/2000/svg"
   id="svg8"
   version="1.1"
   viewBox="0 0 132.29166 66.145835"
   height="250"
   width="500">
  <defs
     id="defs2">
    <rect
       id="rect952"
       height="25.607887"
       width="32.127975"
       y="1.889881"
       x="33.261906" />
    <rect
       id="rect946"
       height="20.127232"
       width="21.45015"
       y="3.0238094"
       x="23.718006" />
  </defs>
  <metadata
     id="metadata5">
    <rdf:RDF>
      <cc:Work
         rdf:about="">
        <dc:format>image/svg+xml</dc:format>
        <dc:type
           rdf:resource="http://purl.org/dc/dcmitype/StillImage" />
        <dc:title></dc:title>
      </cc:Work>
    </rdf:RDF>
  </metadata>
  <text
     xml:space="preserve"
     id="text950"
     style="font-style:normal;font-variant:normal;font-weight:bold;font-stretch:normal;font-size:10.5833px;line-height:1.25;font-family:sans-serif;-inkscape-font-specification:'sans-serif Bold';white-space:pre;shape-inside:url(#rect952);fill:#000000;fill-opacity:1;stroke:none;"
     transform="matrix(3.1462281,0,0,3.1462281,-95.346558,7.7188756)"><tspan
       x="33.261719"
       y="11.54609"><tspan>AD</tspan></tspan></text>
  <g
     transform="matrix(0.1005036,0,0,0.1005036,71.143131,6.7087328)"
     id="g1427">
    <path
       d="m 491,128.984 v 254.034 c 0,12.6 -7.252,24.078 -18.638,29.498 L 270.076,508.819 C 265.628,510.943 260.808,512 256,512 c -4.808,0 -9.617,-1.057 -14.065,-3.181 L 39.639,412.516 C 28.252,407.096 21,395.618 21,383.018 V 128.984 c 0,-6.546 1.952,-12.788 5.441,-18.038 3.206,-4.858 7.731,-8.866 13.204,-11.459 l 202.29,-96.31 c 8.897,-4.237 19.234,-4.237 28.142,0 l 202.29,96.31 c 5.473,2.592 9.987,6.601 13.193,11.459 3.488,5.25 5.44,11.491 5.44,18.038 z"
       fill="#e53935"
       id="path1381" />
    <path
       d="m 485.559,110.946 c -3.206,-4.858 -7.72,-8.866 -13.193,-11.459 L 270.076,3.177 c -8.908,-4.237 -19.244,-4.237 -28.142,0 l -1.39,0.662 200.9,95.648 c 5.473,2.592 9.988,6.601 13.193,11.459 3.489,5.25 5.441,11.491 5.441,18.038 v 254.034 c 0,12.6 -7.252,24.078 -18.638,29.498 l -200.896,95.641 1.39,0.662 c 4.449,2.124 9.258,3.181 14.066,3.181 4.808,0 9.628,-1.057 14.076,-3.181 L 472.362,412.516 C 483.748,407.096 491,395.618 491,383.018 V 128.984 c 0,-6.547 -1.952,-12.788 -5.441,-18.038 z"
       fill="#d32f2f"
       id="path1383" />
    <path
       d="M 256,220.239 V 512 c -4.808,0 -9.617,-1.057 -14.065,-3.181 L 39.639,412.516 C 28.252,407.096 21,395.618 21,383.018 V 128.984 c 0,-6.546 1.952,-12.788 5.441,-18.038 z"
       fill="#f44336"
       id="path1385" />
    <path
       d="m 491,128.984 v 254.041 c 0,12.461 -7.109,23.843 -18.296,29.333 -0.109,0.054 -0.229,0.109 -0.338,0.163 L 270.076,508.82 C 265.628,510.943 260.808,512 256,512 V 220.239 L 485.559,110.946 c 3.489,5.25 5.441,11.491 5.441,18.038 z"
       fill="#d32f2f"
       id="path1387" />
    <path
       d="m 485.559,110.946 -25.994,12.376 c 0.326,1.851 0.513,3.741 0.513,5.662 v 254.041 c 0,12.461 -7.109,23.843 -18.296,29.333 -0.109,0.054 -0.229,0.109 -0.338,0.163 L 256,500.801 V 512 c 4.808,0 9.628,-1.057 14.076,-3.181 l 202.29,-96.299 c 0.109,-0.054 0.229,-0.109 0.338,-0.163 C 483.891,406.867 491,395.485 491,383.024 v -254.04 c 0,-6.547 -1.952,-12.788 -5.441,-18.038 z"
       fill="#c62828"
       id="path1389" />
    <g
       fill="#f1f1f1"
       id="g1405">
      <ellipse
         cx="389.64001"
         cy="306.50699"
         rx="26.736"
         ry="19.708"
         transform="matrix(0.134,-0.991,0.991,0.134,33.735,651.612)"
         id="ellipse1391" />
      <ellipse
         cx="190.492"
         cy="263.25201"
         rx="19.607"
         ry="26.736"
         transform="matrix(0.999,-0.055,0.055,0.999,-14.066,10.775)"
         id="ellipse1393" />
      <ellipse
         cx="78.302002"
         cy="360.19299"
         rx="19.607"
         ry="26.736"
         transform="matrix(0.999,-0.055,0.055,0.999,-19.517,4.803)"
         id="ellipse1395" />
      <ellipse
         cx="161.08299"
         cy="104.225"
         rx="26.736"
         ry="19.607"
         transform="matrix(0.999,-0.055,0.055,0.999,-5.442,8.935)"
         id="ellipse1397" />
      <ellipse
         cx="253.668"
         cy="58.477001"
         rx="26.736"
         ry="19.607"
         transform="matrix(0.999,-0.055,0.055,0.999,-2.81,13.914)"
         id="ellipse1399" />
      <ellipse
         cx="350.60901"
         cy="107.492"
         rx="26.736"
         ry="19.607"
         transform="matrix(0.999,-0.055,0.055,0.999,-5.338,19.27)"
         id="ellipse1401" />
      <ellipse
         cx="260.203"
         cy="149.972"
         rx="26.736"
         ry="19.607"
         transform="matrix(0.999,-0.055,0.055,0.999,-7.788,14.406)"
         id="ellipse1403" />
    </g>
  </g>
</svg>
