<?xml version="1.0" encoding="UTF-8" standalone="no"?>
<svg
   xmlns:dc="http://purl.org/dc/elements/1.1/"
   xmlns:cc="http://creativecommons.org/ns#"
   xmlns:rdf="http://www.w3.org/1999/02/22-rdf-syntax-ns#"
   xmlns:svg="http://www.w3.org/2000/svg"
   xmlns="http://www.w3.org/2000/svg"
   id="svg8"
   version="1.1"
   viewBox="0 0 132.29166 66.145835"
   height="250"
   width="500">
  <defs
     id="defs2">
    <rect
       id="rect5371"
       height="48.621913"
       width="49.044713"
       y="3.382394"
       x="65.956682" />
    <rect
       id="rect952"
       height="25.607887"
       width="32.127975"
       y="1.889881"
       x="33.261906" />
    <rect
       id="rect946"
       height="20.127232"
       width="21.45015"
       y="3.0238094"
       x="23.718006" />
    <rect
       x="33.261906"
       y="1.889881"
       width="32.127975"
       height="25.607887"
       id="rect4359" />
  </defs>
  <metadata
     id="metadata5">
    <rdf:RDF>
      <cc:Work
         rdf:about="">
        <dc:format>image/svg+xml</dc:format>
        <dc:type
           rdf:resource="http://purl.org/dc/dcmitype/StillImage" />
        <dc:title></dc:title>
      </cc:Work>
    </rdf:RDF>
  </metadata>
  <g
     transform="matrix(0.12057651,0,0,0.12057651,5.2572791,2.4159518)"
     id="g5367">
    <g
       id="g5294">
	<polygon
   style="fill:#805333"
   points="205.241,398.389 185.379,388.414 238.345,361.931 247.172,366.345 247.172,377.468 205.33,398.389 "
   id="polygon5258" />

	<polygon
   style="fill:#af8066"
   points="238.345,185.379 238.345,8.828 256,0 273.655,8.828 273.655,185.379 256,194.207 "
   id="polygon5260" />

	<polygon
   style="fill:#805333"
   points="238.345,97.103 132.414,150.069 132.414,88.276 238.345,35.31 "
   id="polygon5262" />

	<polygon
   style="fill:#cbb292"
   points="256,335.448 123.586,269.241 132.414,264.828 132.414,238.345 238.345,185.379 256,194.207 273.655,185.379 414.897,256 "
   id="polygon5264" />

	<polygon
   style="fill:#805333"
   points="414.897,282.483 256,361.931 256,335.448 414.897,256 "
   id="polygon5266" />

	<g
   id="g5272">
		<polygon
   style="fill:#af8066"
   points="379.586,300.138 414.897,282.483 414.897,432.552 397.241,441.379 379.586,432.552 "
   id="polygon5268" />

		<polygon
   style="fill:#af8066"
   points="238.345,353.103 123.586,295.724 123.586,269.241 256,335.448 256,361.931 249.379,358.665 "
   id="polygon5270" />

	</g>

	<g
   id="g5278">
		<polygon
   style="fill:#cb8252"
   points="256,512 238.345,503.172 238.345,353.103 249.379,358.665 256,361.931 273.655,353.103 273.655,503.172 "
   id="polygon5274" />

		<polygon
   style="fill:#cb8252"
   points="132.414,432.552 114.759,441.379 97.103,432.552 97.103,79.448 114.759,70.621 132.414,79.448 132.414,264.828 123.586,269.241 123.586,295.724 132.414,300.138 132.414,353.103 114.759,361.931 114.759,388.414 132.414,397.241 "
   id="polygon5276" />

	</g>

	<g
   id="g5284">
		<polygon
   style="fill:#af8066"
   points="114.759,388.414 114.759,361.931 132.414,370.759 163.84,386.472 189.352,399.272 238.345,423.724 238.345,450.207 "
   id="polygon5280" />

		<polygon
   style="fill:#af8066"
   points="379.586,379.586 300.138,339.862 326.621,326.621 379.586,353.103 "
   id="polygon5282" />

	</g>

	<g
   id="g5292">
		<polygon
   style="fill:#cbb292"
   points="379.586,353.103 326.621,326.621 344.276,317.793 379.586,335.448 "
   id="polygon5286" />

		<polygon
   style="fill:#cbb292"
   points="196.502,385.148 238.345,406.069 238.345,423.724 189.352,399.272 163.84,386.472 132.414,370.759 114.759,361.931 132.414,353.103 176.552,375.172 196.414,385.148 "
   id="polygon5288" />

		<polygon
   style="fill:#cbb292"
   points="196.414,385.148 176.552,375.172 229.517,348.69 238.345,353.103 238.345,364.226 196.502,385.148 "
   id="polygon5290" />

	</g>

</g>
    <g
       id="g5296">
</g>
    <g
       id="g5298">
</g>
    <g
       id="g5300">
</g>
    <g
       id="g5302">
</g>
    <g
       id="g5304">
</g>
    <g
       id="g5306">
</g>
    <g
       id="g5308">
</g>
    <g
       id="g5310">
</g>
    <g
       id="g5312">
</g>
    <g
       id="g5314">
</g>
    <g
       id="g5316">
</g>
    <g
       id="g5318">
</g>
    <g
       id="g5320">
</g>
    <g
       id="g5322">
</g>
    <g
       id="g5324">
</g>
  </g>
  <text
     transform="matrix(1.5494738,0,0,1.5494738,-21.92782,6.9709341)"
     style="font-style:normal;font-variant:normal;font-weight:bold;font-stretch:normal;font-size:25.4px;line-height:1.25;font-family:sans-serif;-inkscape-font-specification:'sans-serif Bold';white-space:pre;shape-inside:url(#rect5371);fill:#000000;fill-opacity:1;stroke:none;"
     id="text5369"
     xml:space="preserve"><tspan
       x="65.957031"
       y="26.556002"><tspan
         style="font-style:normal;font-variant:normal;font-weight:bold;font-stretch:normal;font-size:25.4px;font-family:sans-serif;-inkscape-font-specification:'sans-serif Bold'">Y</tspan></tspan></text>
</svg>
