<?xml version="1.0" encoding="UTF-8" standalone="no"?>
<svg
   xmlns:dc="http://purl.org/dc/elements/1.1/"
   xmlns:cc="http://creativecommons.org/ns#"
   xmlns:rdf="http://www.w3.org/1999/02/22-rdf-syntax-ns#"
   xmlns:svg="http://www.w3.org/2000/svg"
   xmlns="http://www.w3.org/2000/svg"
   width="500"
   height="250"
   viewBox="0 0 132.29166 66.145835"
   version="1.1"
   id="svg8">
  <defs
     id="defs2">
    <rect
       x="36.783534"
       y="5.9191895"
       width="39.32033"
       height="36.783534"
       id="rect8007" />
    <rect
       x="5.7077898"
       y="18.180368"
       width="32.132743"
       height="24.522356"
       id="rect7100" />
    <rect
       x="65.956682"
       y="3.382394"
       width="49.044713"
       height="48.621913"
       id="rect5371" />
    <rect
       x="33.261906"
       y="1.889881"
       width="32.127975"
       height="25.607887"
       id="rect952" />
    <rect
       x="23.718006"
       y="3.0238094"
       width="21.45015"
       height="20.127232"
       id="rect946" />
    <rect
       id="rect4359"
       height="25.607887"
       width="32.127975"
       y="1.889881"
       x="33.261906" />
    <rect
       id="rect7340"
       height="24.522356"
       width="32.132743"
       y="18.180368"
       x="5.7077898" />
  </defs>
  <metadata
     id="metadata5">
    <rdf:RDF>
      <cc:Work
         rdf:about="">
        <dc:format>image/svg+xml</dc:format>
        <dc:type
           rdf:resource="http://purl.org/dc/dcmitype/StillImage" />
        <dc:title></dc:title>
      </cc:Work>
    </rdf:RDF>
  </metadata>
  <g
     transform="matrix(0.10185355,0,0,0.10185355,6.8207531,7.5589646)"
     id="g961">
    <path
       d="m 280.62,54.943 -145.214,101.05 -2.931,7.728 H 103.666 V 347 h 29.283 l 2.457,9.007 145.214,101.05 c 7.994,5.563 18.943,-0.158 18.943,-9.896 V 256 64.839 C 299.564,55.101 288.614,49.38 280.62,54.943 Z"
       fill="#b6c4cf"
       id="path947" />
    <path
       d="m 342.923,213.252 c -4.281,5.284 -3.989,12.461 0.523,17.578 6.161,6.987 9.862,15.833 9.907,25.472 0.045,9.639 -3.572,18.52 -9.667,25.563 -4.464,5.159 -4.688,12.338 -0.358,17.582 6.18,7.484 18.582,7.762 25.007,0.439 10.546,-12.019 16.825,-27.231 16.747,-43.733 -0.078,-16.502 -6.499,-31.654 -17.157,-43.575 -6.494,-7.261 -18.892,-6.867 -25.002,0.674 z"
       fill="#f79595"
       id="path949" />
    <path
       d="m 381.084,166.327 -0.008,0.01 c -4.763,5.879 -3.823,13.974 1.997,19.004 20.665,17.856 33.607,42.988 33.738,70.844 0.131,27.856 -12.575,53.108 -33.071,71.155 -5.773,5.083 -6.637,13.187 -1.819,19.021 l 0.009,0.01 c 5.723,6.931 16.877,7.724 23.746,1.695 26.562,-23.315 43.034,-55.985 42.865,-92.029 -0.169,-36.044 -16.948,-68.559 -43.728,-91.626 -6.925,-5.964 -18.071,-5.068 -23.729,1.916 z"
       fill="#fd8087"
       id="path951" />
    <path
       d="m 418.82,119.925 -0.012,0.015 c -4.853,5.991 -3.88,14.362 2.299,19.24 36.048,28.458 58.943,70.263 59.162,116.887 0.219,46.624 -22.282,88.641 -58.061,117.434 -6.133,4.936 -7.027,13.316 -2.118,19.261 l 0.012,0.014 c 5.541,6.71 16.262,7.736 23.183,2.164 42.345,-34.091 68.973,-83.83 68.714,-139.02 -0.259,-55.191 -27.354,-104.679 -70.017,-138.374 -6.973,-5.508 -17.684,-4.382 -23.162,2.379 z"
       fill="#fe646f"
       id="path953" />
    <path
       d="M 280.62,417.372 135.406,316.322 v 39.685 l 145.214,101.05 c 7.994,5.563 18.943,-0.158 18.943,-9.896 v -39.685 c 0.001,9.738 -10.949,15.459 -18.943,9.896 z"
       fill="#9facba"
       id="path955" />
    <path
       d="M 135.407,356.007 H 30.606 C 13.703,356.007 0,342.304 0,325.401 V 186.599 c 0,-16.903 13.703,-30.606 30.606,-30.606 h 104.801 z"
       fill="#596c76"
       id="path957" />
    <path
       d="m 0,285.716 v 39.685 c 0,16.903 13.703,30.606 30.606,30.606 H 135.407 V 316.322 H 30.606 C 13.703,316.322 0,302.619 0,285.716 Z"
       fill="#465a61"
       id="path959" />
  </g>
  <g
     transform="matrix(0.12853796,0,0,0.12853796,67.574118,14.330359)"
     id="g1054">
    <path
       d="M 116.92969,0.113281 C 92.386719,0.128906 71.058594,16.972656 65.359375,40.84375 52.628906,35.1875 37.738281,37.820312 27.722656,47.503906 17.707031,57.1875 14.570312,71.976562 19.792969,84.890625 c 5.222656,12.914063 17.757812,21.367185 31.6875,21.367185 H 116.92969 C 146.24219,106.25781 170,82.496094 170,53.1875 170,23.875 146.24219,0.113281 116.92969,0.113281 Z m 0,0"
       fill="#d9ecf2"
       id="path1010" />
    <path
       d="M 170,53.1875 C 170,34.03125 159.66797,16.367188 142.97266,6.972656 115.78516,21.40625 95.902344,46.589844 88.171875,76.386719 65.828125,65.347656 39.355469,66.710938 18.261719,79.988281 21.921875,95.378906 35.667969,106.25 51.488281,106.25781 H 116.92969 C 146.24219,106.25781 170,82.496094 170,53.1875 Z m 0,0"
       fill="#bdd9e5"
       id="path1012" />
    <path
       d="m 51.484375,37.882812 c -0.570313,0 -1.125,0.05469 -1.691406,0.08203 0.46875,10.589844 6.347656,20.191406 15.566406,25.421875 -1.71875,-7.417969 -1.71875,-15.128907 0,-22.542969 -4.367187,-1.953125 -9.09375,-2.960938 -13.875,-2.960938 z m 0,0"
       fill="#bdd9e5"
       id="path1014" />
    <path
       d="M 411.84766,120.28906 C 415.38281,92.542969 401.71875,65.429688 377.3125,51.765625 352.90625,38.101562 322.64453,40.625 300.83984,58.144531 276.70312,22.4375 233.87109,4.191406 191.39453,11.523438 148.91797,18.859375 114.6875,50.410156 103.91797,92.144531 77.203125,79.066406 45.199219,83.714844 23.308594,103.85547 1.417969,124 -5.875,155.50391 4.9375,183.21484 c 10.816406,27.71094 37.523438,45.94922 67.269531,45.94141 H 403.40625 c 28.625,0.0273 52.44141,-21.99219 54.65234,-50.53125 2.20703,-28.53516 -17.93359,-53.96094 -46.22265,-58.33984 z m 0,0"
       fill="#26a3b9"
       id="path1016" />
    <path
       d="M 411.84766,120.28906 C 414.71875,97.636719 406.14062,75.039062 388.95703,60 371.77344,44.960938 348.23828,39.453125 326.16406,45.300781 c 33.5,8.492188 55.32422,40.734375 50.75391,74.988279 28.28515,4.37891 48.42969,29.80469 46.21875,58.33985 -2.21094,28.53906 -26.02735,50.55859 -54.65235,50.53125 h 34.92969 c 28.625,0.0273 52.44141,-21.99219 54.65235,-50.53125 2.21093,-28.53516 -17.9336,-53.96094 -46.21875,-58.33985 z m 0,0"
       fill="#168aa5"
       id="path1018" />
    <path
       d="m 345.83984,153.4375 c -7.15625,0.004 -14.23047,1.53906 -20.74609,4.5 -12.90234,-27.11328 -42.20703,-42.40625 -71.82813,-37.48047 -29.625,4.92188 -52.40625,28.87109 -55.84375,58.70313 -13.86718,-4.02344 -28.82031,0.10546 -38.65625,10.67578 -9.83984,10.57031 -12.88671,25.77734 -7.8789,39.32422 h 238.5625 c 9.07422,-15.59375 9.12109,-34.84766 0.11719,-50.48047 -9.00391,-15.63282 -25.67579,-25.25782 -43.71485,-25.23828 z m 0,0"
       fill="#168aa5"
       id="path1020" />
    <path
       d="M 78.753906,85.070312 C 81.035156,127.10156 105.6875,145.33594 105.6875,145.33594 100.89453,127.99609 100.28906,109.76563 103.91797,92.144531 96.03125,88.273438 87.503906,85.875 78.753906,85.070312 Z m 0,0"
       fill="#168aa5"
       id="path1022" />
    <path
       d="m 345.83984,176.09375 c -7.15625,0.004 -14.23047,1.53906 -20.74609,4.5 -12.90234,-27.11328 -42.20703,-42.40625 -71.82813,-37.48047 -29.625,4.92188 -52.40625,28.87109 -55.84375,58.69922 -14.39453,-4.12891 -29.8789,0.5 -39.64062,11.85937 -9.76172,11.35547 -12.01172,27.35938 -5.76172,40.97266 6.25,13.60938 19.85547,22.33203 34.83203,22.32813 h 158.98828 c 27.85938,0 50.44532,-22.58203 50.44532,-50.44141 0,-27.85547 -22.58594,-50.44141 -50.44532,-50.44141 z m 0,0"
       fill="#d9ecf2"
       id="path1024" />
    <g
       fill="#bdd9e5"
       id="g1032">
      <path
         d="m 299.41016,180.59375 c 6.51562,-2.96094 13.58984,-4.49609 20.74609,-4.5 0.89062,0 1.75781,0.0898 2.63281,0.13281 -14.28125,-25.13281 -43.02344,-38.33203 -71.39062,-32.78125 20.98437,4.07813 38.79687,17.85938 48.01172,37.14844 z m 0,0"
         id="path1026" />
      <path
         d="m 345.83984,176.09375 c -4.3125,0.0195 -8.60937,0.60156 -12.77343,1.73047 24.54296,6.42578 40.48437,30.09765 37.21093,55.25781 -3.27343,25.16016 -24.74218,43.96484 -50.11718,43.89453 h 25.67968 c 27.85938,0 50.44532,-22.58203 50.44532,-50.4414 0,-27.85547 -22.58594,-50.44141 -50.44532,-50.44141 z m 0,0"
         id="path1028" />
      <path
         d="m 330,214.27734 c 0,0 16.13281,-11.05078 14.91406,-38.13281 -6.83984,0.12109 -13.58594,1.63672 -19.82031,4.45313 4.58594,10.59375 6.28125,22.21875 4.90625,33.67968 z m 0,0"
         id="path1030" />
    </g>
  </g>
</svg>
