<?xml version="1.0" encoding="UTF-8" standalone="no"?>
<svg
   xmlns:dc="http://purl.org/dc/elements/1.1/"
   xmlns:cc="http://creativecommons.org/ns#"
   xmlns:rdf="http://www.w3.org/1999/02/22-rdf-syntax-ns#"
   xmlns:svg="http://www.w3.org/2000/svg"
   xmlns="http://www.w3.org/2000/svg"
   id="svg8"
   version="1.1"
   viewBox="0 0 132.29166 66.145835"
   height="250"
   width="500">
  <defs
     id="defs2">
    <rect
       id="rect952"
       height="25.607887"
       width="32.127975"
       y="1.889881"
       x="33.261906" />
    <rect
       id="rect946"
       height="20.127232"
       width="21.45015"
       y="3.0238094"
       x="23.718006" />
    <rect
       x="33.261906"
       y="1.889881"
       width="32.127975"
       height="25.607887"
       id="rect4359" />
  </defs>
  <metadata
     id="metadata5">
    <rdf:RDF>
      <cc:Work
         rdf:about="">
        <dc:format>image/svg+xml</dc:format>
        <dc:type
           rdf:resource="http://purl.org/dc/dcmitype/StillImage" />
        <dc:title></dc:title>
      </cc:Work>
    </rdf:RDF>
  </metadata>
  <g
     transform="matrix(0.08123426,0,0,0.08123426,12.987015,12.687991)"
     id="g4889">
    <path
       d="m 118.232,197.24 h 86.78 v 306.275 h -86.78 z"
       fill="#5a5a5a"
       transform="matrix(0.707,0.707,-0.707,0.707,295.093,-11.661)"
       id="path4863" />
    <path
       d="M 84.019,489.344 22.656,427.981 0.261,504.019 c -1.391,4.722 2.998,9.111 7.72,7.72 z"
       fill="#e2e2e2"
       id="path4865" />
    <path
       d="M 478.422,84.217 427.783,33.578 c -2.961,-2.961 -7.762,-2.961 -10.724,0 L 239.225,211.412 300.588,272.775 478.422,94.941 c 2.961,-2.961 2.961,-7.762 0,-10.724 z"
       fill="#ca2c2c"
       id="path4867" />
    <path
       d="M 475.89,81.686 430.314,36.11 460.363,6.061 c 8.081,-8.081 21.184,-8.081 29.266,0 l 16.31,16.31 c 8.081,8.081 8.081,21.184 0,29.266 z"
       fill="#5a5a5a"
       id="path4869" />
    <path
       d="m 28.842,356.134 h 306.275 v 29.202 H 28.842 Z"
       fill="#444444"
       transform="matrix(0.707,-0.707,0.707,0.707,-208.849,237.265)"
       id="path4871" />
    <path
       d="M 478.422,84.217 457.773,63.568 c 2.961,2.961 2.961,7.762 0,10.724 L 279.939,252.126 300.588,272.775 478.422,94.941 c 2.961,-2.961 2.961,-7.762 0,-10.724 z"
       fill="#a72b2b"
       id="path4873" />
    <path
       d="m 505.939,22.371 -16.31,-16.31 c -0.739,-0.739 -1.532,-1.387 -2.348,-1.991 5.999,8.1 5.351,19.575 -1.991,26.918 l -30.049,30.049 20.649,20.649 30.049,-30.049 c 8.081,-8.082 8.081,-21.184 0,-29.266 z"
       fill="#444444"
       id="path4875" />
    <g
       id="g4879">
      <path
         d="m 215.693,195.65 c -1.988,0 -3.978,-0.759 -5.495,-2.276 -3.035,-3.036 -3.035,-7.955 0,-10.991 L 345.137,47.445 c 3.036,-3.034 7.955,-3.034 10.991,0 3.035,3.036 3.035,7.955 0,10.991 L 221.189,193.375 c -1.518,1.516 -3.507,2.275 -5.496,2.275 z"
         fill="#5a5a5a"
         id="path4877" />
    </g>
    <path
       d="M 454.265,127.977 372.079,45.791 c -3.948,-3.948 -10.35,-3.948 -14.298,0 l -21.447,21.447 89.335,89.335 c 4.046,4.046 10.607,4.046 14.653,0 l 13.943,-13.943 c 4.046,-4.046 4.046,-10.607 0,-14.653 z"
       fill="#5a5a5a"
       id="path4881" />
    <path
       d="M 454.265,127.977 366.79,40.502 c -4.062,-4.062 -10.648,-4.062 -14.71,0 l -21.241,21.241 94.83,94.83 c 4.046,4.046 10.607,4.046 14.653,0 l 13.943,-13.943 c 4.046,-4.046 4.046,-10.607 0,-14.653 z"
       fill="#5a5a5a"
       id="path4883" />
    <path
       d="m 454.265,127.977 -20.649,-20.649 c 4.046,4.046 4.046,10.607 0,14.653 l -13.943,13.943 c -4.046,4.046 -10.607,4.046 -14.653,0 l 20.649,20.649 c 4.046,4.046 10.607,4.046 14.653,0 l 13.943,-13.943 c 4.046,-4.046 4.047,-10.607 0,-14.653 z"
       fill="#444444"
       id="path4885" />
    <path
       d="M 63.37,468.695 5.659,485.692 0.261,504.018 c -1.391,4.722 2.998,9.111 7.72,7.72 l 76.038,-22.395 z"
       fill="#cecece"
       id="path4887" />
  </g>
  <g
     transform="matrix(0.10906044,0,0,0.10906044,68.633834,3.7191321)"
     id="g5036">
    <path
       style="fill:#f94848"
       d="m 465.19,285.054 c 0,61.607 -40.062,146.747 -88.501,193.258 -21.482,20.655 -44.62,33.688 -66.647,33.688 -13.922,0 -27.808,-2.236 -39.754,-5.843 -16.368,-4.954 -33.775,-4.954 -50.143,0 C 208.2,509.764 194.315,512 180.392,512 157.316,512 133.004,497.682 110.656,475.285 63.614,428.181 25.244,345.338 25.244,285.053 c 0,-88.945 53.207,-142.683 103.238,-155.654 23.966,-6.214 51.774,-2.211 74.232,3.632 23.225,6.053 47.363,7.066 70.884,3.039 4.744,-0.815 9.45,-1.828 14.12,-3.039 22.459,-5.843 50.254,-9.846 74.232,-3.632 50.034,12.972 103.24,66.71 103.24,155.655 z"
       id="path4963" />
    <path
       style="fill:#e23d3d"
       d="m 376.687,478.307 c -59.444,10.504 -105.23,7.594 -139.729,-0.76 -56.335,-13.641 -98.243,-61.156 -105.227,-118.696 -17.493,-144.11 76.667,-186.066 76.667,-186.066 27.598,12.539 58.63,5.843 58.63,5.843 -19.803,-19.79 6.572,-42.558 6.572,-42.558 -23.521,4.027 -47.66,3.014 -70.884,-3.039 -22.459,-5.843 -50.266,-9.846 -74.232,-3.632 -50.033,12.972 -103.239,66.71 -103.239,155.655 0,88.933 83.497,226.946 155.147,226.946 13.922,0 27.808,-2.236 39.754,-5.843 16.368,-4.954 33.774,-4.954 50.143,0 11.946,3.607 25.831,5.843 39.754,5.843 22.026,0 45.164,-13.033 66.647,-33.688 -0.003,-0.003 0,0 -0.003,-0.005 z"
       id="path4965" />
    <path
       style="fill:#c7f492"
       d="m 486.756,5.506 c 0,0 -12.354,86.116 -77.419,111.182 -62.2,23.966 -117.643,-40.828 -140.385,-35.726 -1.025,0.21 -1.977,0.581 -2.866,1.112 -0.037,0.012 -0.049,0.025 -0.049,0.025 l 0.012,-0.049 c 0.766,-2.322 25.708,-76.616 89.761,-81.484 65.064,-4.943 100.47,24.706 130.946,4.94 z"
       id="path4967" />
    <path
       style="fill:#a3e261"
       d="m 486.756,5.506 c 0,0 -39.531,48.179 -95.122,48.179 -48.883,0 -108.909,21.965 -122.683,27.277 -1.655,0.63 -2.631,1.025 -2.866,1.112 -0.037,0.012 -0.049,0.025 -0.049,0.025 l 0.012,-0.049 c 0.766,-2.322 25.708,-76.616 89.761,-81.484 65.065,-4.943 100.471,24.706 130.947,4.94 z"
       id="path4969" />
    <ellipse
       transform="matrix(-0.0989,-0.9951,0.9951,-0.0989,186.5864,663.8789)"
       style="fill:#fc8181"
       cx="393.87799"
       cy="247.459"
       rx="44.464001"
       ry="28.771"
       id="ellipse4971" />
    <path
       style="fill:#e23d3d"
       d="m 291.289,166.437 c 0,10.118 -15.887,18.543 -36.974,20.457 -2.94,0.272 -5.979,0.408 -9.092,0.408 -3.249,0 -6.411,-0.148 -9.463,-0.432 -20.89,-1.989 -36.591,-10.377 -36.591,-20.433 z"
       id="path4973" />
    <path
       style="fill:#b25719"
       d="m 280.368,81.012 -33.787,51.316 c 2.532,10.402 4.719,21.866 6.14,34.108 0.778,6.609 1.334,13.441 1.594,20.457 -2.94,0.272 -5.979,0.408 -9.092,0.408 -3.249,0 -6.411,-0.148 -9.463,-0.432 -0.272,-7.017 -0.877,-13.836 -1.705,-20.433 -6.053,-47.969 -24.559,-83.3 -24.781,-83.695 -2.397,-4.521 -0.679,-10.13 3.842,-12.526 4.521,-2.409 10.13,-0.692 12.526,3.83 0.544,1.038 7.35,14.046 14.219,34.8 l 25.041,-38.024 c 2.804,-4.274 8.561,-5.448 12.823,-2.631 4.274,2.804 5.46,8.548 2.643,12.822 z"
       id="path4975" />
    <g
       id="g4977">
</g>
    <g
       id="g4979">
</g>
    <g
       id="g4981">
</g>
    <g
       id="g4983">
</g>
    <g
       id="g4985">
</g>
    <g
       id="g4987">
</g>
    <g
       id="g4989">
</g>
    <g
       id="g4991">
</g>
    <g
       id="g4993">
</g>
    <g
       id="g4995">
</g>
    <g
       id="g4997">
</g>
    <g
       id="g4999">
</g>
    <g
       id="g5001">
</g>
    <g
       id="g5003">
</g>
    <g
       id="g5005">
</g>
  </g>
</svg>
