<?xml version="1.0" encoding="UTF-8" standalone="no"?>
<svg
   xmlns:dc="http://purl.org/dc/elements/1.1/"
   xmlns:cc="http://creativecommons.org/ns#"
   xmlns:rdf="http://www.w3.org/1999/02/22-rdf-syntax-ns#"
   xmlns:svg="http://www.w3.org/2000/svg"
   xmlns="http://www.w3.org/2000/svg"
   id="svg8"
   version="1.1"
   viewBox="0 0 132.29166 66.145835"
   height="250"
   width="500">
  <defs
     id="defs2">
    <rect
       id="rect5371"
       height="48.621913"
       width="49.044713"
       y="3.382394"
       x="65.956682" />
    <rect
       id="rect952"
       height="25.607887"
       width="32.127975"
       y="1.889881"
       x="33.261906" />
    <rect
       id="rect946"
       height="20.127232"
       width="21.45015"
       y="3.0238094"
       x="23.718006" />
    <rect
       x="33.261906"
       y="1.889881"
       width="32.127975"
       height="25.607887"
       id="rect4359" />
  </defs>
  <metadata
     id="metadata5">
    <rdf:RDF>
      <cc:Work
         rdf:about="">
        <dc:format>image/svg+xml</dc:format>
        <dc:type
           rdf:resource="http://purl.org/dc/dcmitype/StillImage" />
        <dc:title></dc:title>
      </cc:Work>
    </rdf:RDF>
  </metadata>
  <g
     transform="matrix(0.10271988,0,0,0.10271988,10.821715,6.8350689)"
     id="g6011">
    <g
       id="g5981">
      <path
         d="m 410.672,400 h -62.008 c -7.588,0 -13.738,-6.151 -13.738,-13.739 0,-7.588 6.151,-13.738 13.738,-13.738 h 62.008 c 40.722,0 73.851,-33.13 73.851,-73.851 0,-12.587 -10.24,-22.827 -22.827,-22.827 H 348.664 c -7.588,0 -13.738,-6.151 -13.738,-13.739 0,-7.588 6.151,-13.739 13.738,-13.739 h 113.032 c 27.738,0 50.304,22.566 50.304,50.304 C 512,354.544 466.544,400 410.672,400 Z"
         fill="#ebebeb"
         id="path5979" />
    </g>
    <path
       d="M 461.696,248.367 H 421.31 c 19.714,0 36.806,11.405 45.05,27.958 10.357,2.159 18.163,11.358 18.163,22.346 0,26.257 -13.785,49.34 -34.486,62.439 C 431.472,384.772 402.624,400 370.286,400 h 40.386 C 466.544,400 512,354.544 512,298.671 c 0,-27.737 -22.566,-50.304 -50.304,-50.304 z"
       fill="#e2e2e2"
       id="path5983" />
    <path
       d="m 242.901,453.773 c -108.036,0 -195.616,-87.58 -195.616,-195.615 v -46.235 c 0,-6.547 5.308,-11.855 11.855,-11.855 h 367.521 c 6.547,0 11.855,5.308 11.855,11.855 v 46.235 c 0,108.035 -87.58,195.615 -195.615,195.615 z"
       fill="#ebebeb"
       id="path5985" />
    <path
       d="M 452.958,494.826 H 32.843 C 14.704,494.826 0,480.122 0,461.984 c 0,-4.535 3.676,-8.211 8.211,-8.211 H 477.59 c 4.535,0 8.211,3.676 8.211,8.211 0,18.138 -14.705,32.842 -32.843,32.842 z"
       fill="#bfbfbf"
       id="path5987" />
    <g
       id="g5991">
      <path
         d="m 232.724,171.859 c -4.215,0 -7.633,-3.417 -7.633,-7.633 0,-26.29 20.353,-27.555 20.353,-46.469 0,-18.961 -20.353,-20.156 -20.353,-46.476 0,-26.292 20.353,-27.558 20.353,-46.476 0,-4.215 3.417,-7.633 7.633,-7.633 4.215,0 7.632,3.417 7.632,7.633 0,26.274 -20.353,27.578 -20.353,46.476 0,18.958 20.353,20.159 20.353,46.476 0,26.29 -20.353,27.553 -20.353,46.469 0,4.216 -3.417,7.633 -7.632,7.633 z"
         fill="#b2caec"
         id="path5989" />
    </g>
    <g
       id="g5995">
      <path
         d="m 290.418,171.859 c -4.215,0 -7.633,-3.417 -7.633,-7.633 0,-26.29 20.353,-27.555 20.353,-46.469 0,-18.961 -20.353,-20.156 -20.353,-46.476 0,-26.292 20.353,-27.558 20.353,-46.476 0,-4.215 3.417,-7.633 7.633,-7.633 4.216,0 7.633,3.417 7.633,7.633 0,26.274 -20.353,27.578 -20.353,46.476 0,18.958 20.353,20.159 20.353,46.476 0,26.29 -20.353,27.553 -20.353,46.469 0,4.216 -3.417,7.633 -7.633,7.633 z"
         fill="#b2caec"
         id="path5993" />
    </g>
    <g
       id="g5999">
      <path
         d="m 175.029,171.859 c -4.215,0 -7.633,-3.417 -7.633,-7.633 0,-26.29 20.353,-27.555 20.353,-46.469 0,-18.961 -20.353,-20.156 -20.353,-46.476 0,-26.292 20.353,-27.558 20.353,-46.476 0,-4.215 3.417,-7.633 7.633,-7.633 4.216,0 7.633,3.417 7.633,7.633 0,26.274 -20.353,27.578 -20.353,46.476 0,18.958 20.353,20.159 20.353,46.476 0,26.29 -20.353,27.553 -20.353,46.469 0,4.216 -3.417,7.633 -7.633,7.633 z"
         fill="#b2caec"
         id="path5997" />
    </g>
    <path
       d="m 150.79,252.531 -29.004,29.277 c -2.077,2.096 -3.242,4.928 -3.242,7.878 v 64.595 c 0,6.182 5.012,11.194 11.194,11.194 h 58.007 c 6.182,0 11.194,-5.012 11.194,-11.194 v -64.595 c 0,-2.951 -1.165,-5.782 -3.242,-7.878 l -29.004,-29.277 c -4.378,-4.422 -11.523,-4.422 -15.903,0 z"
       fill="#57be92"
       id="path6001" />
    <g
       id="g6005">
      <path
         d="m 158.743,292.89 c -4.215,0 -7.633,-3.417 -7.633,-7.633 v -85.191 c 0,-4.215 3.417,-7.633 7.633,-7.633 4.215,0 7.632,3.417 7.632,7.633 v 85.191 c 0,4.216 -3.417,7.633 -7.632,7.633 z"
         fill="#444444"
         id="path6003" />
    </g>
    <path
       d="m 426.661,200.067 h -40.386 c 6.547,0 11.855,5.307 11.855,11.855 v 46.235 c 0,101.217 -76.875,184.477 -175.423,194.583 6.639,0.681 13.375,1.032 20.193,1.032 108.035,0 195.615,-87.58 195.615,-195.615 v -46.235 c 0.001,-6.548 -5.307,-11.855 -11.854,-11.855 z"
       fill="#e2e2e2"
       id="path6007" />
    <path
       d="m 477.59,453.773 h -40.386 c 4.535,0 8.211,3.676 8.211,8.211 0,18.139 -14.704,32.843 -32.843,32.843 h 40.386 c 18.139,0 32.843,-14.704 32.843,-32.843 0,-4.535 -3.676,-8.211 -8.211,-8.211 z"
       fill="#acacac"
       id="path6009" />
  </g>
  <g
     transform="matrix(0.11410824,0,0,0.11410824,72.603507,4.689174)"
     id="g6221">
    <g
       id="g6148">
	<polygon
   style="fill:#805333"
   points="185.379,388.414 238.345,361.931 247.172,366.345 247.172,377.468 205.33,398.389 205.241,398.389 "
   id="polygon6112" />

	<polygon
   style="fill:#af8066"
   points="238.345,8.828 256,0 273.655,8.828 273.655,185.379 256,194.207 238.345,185.379 "
   id="polygon6114" />

	<polygon
   style="fill:#805333"
   points="132.414,150.069 132.414,88.276 238.345,35.31 238.345,97.103 "
   id="polygon6116" />

	<polygon
   style="fill:#cbb292"
   points="123.586,269.241 132.414,264.828 132.414,238.345 238.345,185.379 256,194.207 273.655,185.379 414.897,256 256,335.448 "
   id="polygon6118" />

	<polygon
   style="fill:#805333"
   points="256,361.931 256,335.448 414.897,256 414.897,282.483 "
   id="polygon6120" />

	<g
   id="g6126">
		<polygon
   style="fill:#af8066"
   points="414.897,282.483 414.897,432.552 397.241,441.379 379.586,432.552 379.586,300.138 "
   id="polygon6122" />

		<polygon
   style="fill:#af8066"
   points="123.586,295.724 123.586,269.241 256,335.448 256,361.931 249.379,358.665 238.345,353.103 "
   id="polygon6124" />

	</g>

	<g
   id="g6132">
		<polygon
   style="fill:#cb8252"
   points="238.345,503.172 238.345,353.103 249.379,358.665 256,361.931 273.655,353.103 273.655,503.172 256,512 "
   id="polygon6128" />

		<polygon
   style="fill:#cb8252"
   points="114.759,441.379 97.103,432.552 97.103,79.448 114.759,70.621 132.414,79.448 132.414,264.828 123.586,269.241 123.586,295.724 132.414,300.138 132.414,353.103 114.759,361.931 114.759,388.414 132.414,397.241 132.414,432.552 "
   id="polygon6130" />

	</g>

	<g
   id="g6138">
		<polygon
   style="fill:#af8066"
   points="114.759,361.931 132.414,370.759 163.84,386.472 189.352,399.272 238.345,423.724 238.345,450.207 114.759,388.414 "
   id="polygon6134" />

		<polygon
   style="fill:#af8066"
   points="300.138,339.862 326.621,326.621 379.586,353.103 379.586,379.586 "
   id="polygon6136" />

	</g>

	<g
   id="g6146">
		<polygon
   style="fill:#cbb292"
   points="326.621,326.621 344.276,317.793 379.586,335.448 379.586,353.103 "
   id="polygon6140" />

		<polygon
   style="fill:#cbb292"
   points="238.345,406.069 238.345,423.724 189.352,399.272 163.84,386.472 132.414,370.759 114.759,361.931 132.414,353.103 176.552,375.172 196.414,385.148 196.502,385.148 "
   id="polygon6142" />

		<polygon
   style="fill:#cbb292"
   points="176.552,375.172 229.517,348.69 238.345,353.103 238.345,364.226 196.502,385.148 196.414,385.148 "
   id="polygon6144" />

	</g>

</g>
    <g
       id="g6150">
</g>
    <g
       id="g6152">
</g>
    <g
       id="g6154">
</g>
    <g
       id="g6156">
</g>
    <g
       id="g6158">
</g>
    <g
       id="g6160">
</g>
    <g
       id="g6162">
</g>
    <g
       id="g6164">
</g>
    <g
       id="g6166">
</g>
    <g
       id="g6168">
</g>
    <g
       id="g6170">
</g>
    <g
       id="g6172">
</g>
    <g
       id="g6174">
</g>
    <g
       id="g6176">
</g>
    <g
       id="g6178">
</g>
  </g>
</svg>
