<?xml version="1.0" encoding="UTF-8" standalone="no"?>
<svg
   xmlns:dc="http://purl.org/dc/elements/1.1/"
   xmlns:cc="http://creativecommons.org/ns#"
   xmlns:rdf="http://www.w3.org/1999/02/22-rdf-syntax-ns#"
   xmlns:svg="http://www.w3.org/2000/svg"
   xmlns="http://www.w3.org/2000/svg"
   id="svg8"
   version="1.1"
   viewBox="0 0 132.29166 66.145835"
   height="250"
   width="500">
  <defs
     id="defs2">
    <rect
       id="rect1186"
       height="20.347214"
       width="23.518208"
       y="20.347214"
       x="-2.1139962" />
    <rect
       x="7.1347373"
       y="11.09848"
       width="36.466435"
       height="36.466435"
       id="rect1838" />
    <rect
       id="rect8007"
       height="36.783534"
       width="39.32033"
       y="5.9191895"
       x="36.783534" />
    <rect
       id="rect7100"
       height="24.522356"
       width="32.132743"
       y="18.180368"
       x="5.7077898" />
    <rect
       id="rect5371"
       height="48.621913"
       width="49.044713"
       y="3.382394"
       x="65.956682" />
    <rect
       id="rect952"
       height="25.607887"
       width="32.127975"
       y="1.889881"
       x="33.261906" />
    <rect
       id="rect946"
       height="20.127232"
       width="21.45015"
       y="3.0238094"
       x="23.718006" />
    <rect
       x="33.261906"
       y="1.889881"
       width="32.127975"
       height="25.607887"
       id="rect4359" />
    <rect
       x="5.7077898"
       y="18.180368"
       width="32.132743"
       height="24.522356"
       id="rect7340" />
    <rect
       x="-2.1139962"
       y="20.347214"
       width="23.518208"
       height="20.347214"
       id="rect1194" />
  </defs>
  <metadata
     id="metadata5">
    <rdf:RDF>
      <cc:Work
         rdf:about="">
        <dc:format>image/svg+xml</dc:format>
        <dc:type
           rdf:resource="http://purl.org/dc/dcmitype/StillImage" />
        <dc:title></dc:title>
      </cc:Work>
    </rdf:RDF>
  </metadata>
  <g
     transform="matrix(0.06346941,0,0,0.06346941,26.620251,17.254439)"
     id="g1009">
    <path
       d="M 309.242,151.685 H 202.757 c -74.67,22.776 -128.99,92.211 -128.99,174.332 0,78.138 49.184,144.779 118.277,170.682 l 8.607,-12.884 -1.986,-20.128 C 144.779,441.219 106.9,388.045 106.9,326.017 c 0,-73.362 52.984,-134.349 122.772,-146.783 l 52.66,0.001 c 69.787,12.436 122.768,73.422 122.768,146.782 0,62.027 -37.879,115.201 -91.764,137.669 l -1.932,20.129 8.552,12.884 c 69.093,-25.902 118.277,-92.544 118.277,-170.682 0,-82.122 -54.321,-151.556 -128.991,-174.332 z"
       fill="#f4c338"
       id="path957" />
    <path
       d="m 309.242,151.685 h -23 c 74.67,22.776 128.991,92.211 128.991,174.333 0,72.452 -42.285,135.017 -103.521,164.386 l 8.244,6.296 c 69.093,-25.902 118.277,-92.544 118.277,-170.682 0,-82.123 -54.321,-151.557 -128.991,-174.333 z"
       fill="#f29c2a"
       id="path959" />
    <path
       d="m 313.463,186.688 c 0.509,-2.037 2.122,-3.585 4.158,-4.1 10.289,-2.606 19.274,-8.511 25.775,-16.511 -10.771,-5.898 -22.2,-10.746 -34.154,-14.392 l -18.003,0.383 c -3.801,0 -7.114,2.587 -8.036,6.274 0,0 -0.845,20.79 -0.875,20.894 h 0.005 c 10.674,1.902 20.953,4.945 30.711,8.99 0.148,-0.509 0.29,-1.021 0.419,-1.538 z"
       fill="#f29c2a"
       id="path961" />
    <path
       d="M 332.707,51.761 310.618,18.628 c -3.073,-4.609 -8.245,-7.377 -13.784,-7.377 h -15.882 l -7.396,2.96 -9.374,-2.96 h -16.363 l -8.736,1.557 -8.034,-1.557 h -15.882 c -5.539,0 -10.712,2.768 -13.784,7.377 l -22.089,33.133 c -0.365,0.547 -0.682,1.114 -0.975,1.69 v 15 c 0.293,0.576 0.611,1.143 0.975,1.69 l 27.007,40.51 49.683,24.067 49.717,-24.067 27.007,-40.51 c 0.365,-0.547 0.682,-1.114 0.975,-1.69 v -15 c -0.294,-0.576 -0.611,-1.143 -0.976,-1.69 z"
       fill="#8dd4ff"
       id="path963" />
    <path
       d="M 332.707,51.761 310.618,18.628 c -3.073,-4.609 -8.245,-7.377 -13.784,-7.377 h -15.882 l -2.016,0.807 c 3.505,1.135 6.584,3.422 8.683,6.57 l 22.089,33.133 c 3.71,5.565 3.71,12.814 0,18.379 l -27.007,40.51 -38.213,18.498 11.496,5.569 49.717,-24.067 27.007,-40.51 c 0.365,-0.547 0.682,-1.114 0.975,-1.69 v -15 c -0.294,-0.575 -0.611,-1.142 -0.976,-1.689 z"
       fill="#45afff"
       id="path965" />
    <path
       d="m 280.951,11.251 h -16.77 l 21.1,42.2 h -58.563 l 21.1,-42.2 h -16.77 l -21.1,42.2 h -31.631 c -2.395,4.711 -2.395,10.289 0,15 h 31.631 l 22.777,45.554 c 1.314,2.628 3.962,4.147 6.714,4.147 1.127,0 2.271,-0.255 3.348,-0.793 3.705,-1.852 5.207,-6.357 3.354,-10.062 L 226.718,68.451 h 58.563 l -19.423,38.846 c -1.853,3.705 -0.351,8.21 3.354,10.062 1.077,0.539 2.221,0.793 3.348,0.793 2.751,0 5.4,-1.52 6.714,-4.147 l 22.777,-45.554 h 31.631 c 2.395,-4.711 2.396,-10.289 0,-15 h -31.631 z"
       fill="#c2e8ff"
       id="path967" />
    <g
       id="g995">
      <g
         id="g993">
        <g
           id="g971">
          <path
             d="M 40.633,134.718 H 7.5 c -4.142,0 -7.5,-3.358 -7.5,-7.5 0,-4.142 3.358,-7.5 7.5,-7.5 h 33.133 c 4.142,0 7.5,3.358 7.5,7.5 0,4.142 -3.358,7.5 -7.5,7.5 z"
             fill="#8dd4ff"
             id="path969" />
        </g>
        <g
           id="g975">
          <path
             d="m 38.58,250.685 c -2.592,0 -5.113,-1.345 -6.502,-3.751 -2.071,-3.587 -0.842,-8.174 2.745,-10.245 l 28.694,-16.566 c 3.587,-2.071 8.174,-0.842 10.245,2.745 2.071,3.587 0.842,8.174 -2.745,10.245 l -28.694,16.566 c -1.181,0.682 -2.47,1.006 -3.743,1.006 z"
             fill="#8dd4ff"
             id="path973" />
        </g>
        <g
           id="g979">
          <path
             d="m 473.42,250.685 c -1.272,0 -2.562,-0.324 -3.743,-1.006 l -28.694,-16.566 c -3.587,-2.071 -4.816,-6.658 -2.745,-10.245 2.071,-3.587 6.658,-4.817 10.245,-2.745 l 28.694,16.566 c 3.587,2.071 4.816,6.658 2.745,10.245 -1.389,2.406 -3.91,3.751 -6.502,3.751 z"
             fill="#8dd4ff"
             id="path977" />
        </g>
        <g
           id="g983">
          <path
             d="m 504.5,134.718 h -33.133 c -4.142,0 -7.5,-3.358 -7.5,-7.5 0,-4.142 3.358,-7.5 7.5,-7.5 H 504.5 c 4.142,0 7.5,3.358 7.5,7.5 0,4.142 -3.358,7.5 -7.5,7.5 z"
             fill="#8dd4ff"
             id="path981" />
        </g>
        <g
           id="g987">
          <path
             d="m 444.739,35.319 c -2.592,0 -5.113,-1.345 -6.502,-3.751 -2.071,-3.587 -0.842,-8.174 2.745,-10.245 L 469.676,4.756 c 3.587,-2.071 8.174,-0.842 10.245,2.745 2.071,3.587 0.842,8.174 -2.745,10.245 l -28.694,16.567 c -1.181,0.682 -2.47,1.006 -3.743,1.006 z"
             fill="#8dd4ff"
             id="path985" />
        </g>
        <g
           id="g991">
          <path
             d="m 67.261,35.319 c -1.272,0 -2.562,-0.324 -3.743,-1.006 L 34.823,17.746 C 31.236,15.675 30.007,11.088 32.078,7.501 34.149,3.914 38.736,2.684 42.323,4.756 l 28.694,16.567 c 3.587,2.071 4.816,6.658 2.745,10.245 -1.389,2.406 -3.909,3.751 -6.501,3.751 z"
             fill="#8dd4ff"
             id="path989" />
        </g>
      </g>
    </g>
    <path
       d="m 313.983,110.651 h -17.35 l -6.771,2.56 -8.229,-2.56 h -51.267 l -8.376,3.386 -6.624,-3.386 h -17.35 c -4.575,0 -8.283,3.709 -8.283,8.283 v 16.567 c 0,9.15 7.417,16.567 16.567,16.567 h 10.099 c 3.801,0 7.114,2.587 8.036,6.274 l 5.146,20.585 c 0.922,3.687 4.235,6.274 8.036,6.274 h 36.765 c 3.801,0 7.114,-2.587 8.036,-6.274 l 3.146,-20.585 c 0.922,-3.688 4.235,-7.274 8.036,-7.274 l 12.099,1 c 9.149,0 16.567,-7.417 16.567,-16.567 v -16.567 c 10e-4,-4.575 -3.708,-8.283 -8.283,-8.283 z"
       fill="#ffe652"
       id="path997" />
    <path
       d="m 313.983,110.651 h -17.35 l -2.116,0.8 c 2.805,1.327 4.749,4.174 4.749,7.483 v 16.567 c 0,9.15 -7.417,16.567 -16.567,16.567 H 272.6 c -3.801,0 -7.114,2.587 -8.036,6.274 l -5.146,20.585 c -0.922,3.687 -4.235,6.274 -8.036,6.274 h 23 c 3.801,0 7.114,-2.587 8.036,-6.274 l 5.146,-20.585 c 0.922,-3.688 4.235,-6.274 8.036,-6.274 h 10.1 c 9.149,0 16.567,-7.417 16.567,-16.567 v -16.567 c 0,-4.575 -3.709,-8.283 -8.284,-8.283 z"
       fill="#f4c338"
       id="path999" />
    <path
       d="m 289.133,134.718 c 4.142,0 7.5,-3.358 7.5,-7.5 v -16.567 h -15 v 16.567 c 0,4.142 3.358,7.5 7.5,7.5 z"
       fill="#f29c2a"
       id="path1001" />
    <path
       d="m 222.867,134.718 c 4.142,0 7.5,-3.358 7.5,-7.5 v -16.567 h -15 v 16.567 c 0,4.142 3.358,7.5 7.5,7.5 z"
       fill="#f29c2a"
       id="path1003" />
    <path
       d="m 318.057,487.201 -4.703,-23.515 h -0.017 c -17.651,7.36 -37.018,11.431 -57.336,11.431 -20.318,0 -39.684,-4.071 -57.335,-11.43 h -0.019 l -6.603,33.012 c 19.901,7.461 41.45,11.552 63.956,11.552 22.118,0 43.307,-3.959 62.921,-11.176 z"
       fill="#ffe652"
       id="path1005" />
    <path
       d="m 319.956,496.699 -1.899,-9.498 c -22.2,11.737 -47.112,19.031 -73.557,20.678 3.804,0.237 7.636,0.372 11.5,0.372 22.507,0 44.055,-4.091 63.956,-11.552 z"
       fill="#f4c338"
       id="path1007" />
  </g>
  <g
     transform="matrix(0.08260682,0,0,0.08260682,62.694452,14.618452)"
     id="g1150">
    <g
       id="g1106">
      <path
         d="M 480.488,336.201 433.38,301.941 478.922,37.799 c 0.725,-4.205 -2.096,-8.202 -6.301,-8.927 -4.215,-0.723 -8.202,2.097 -8.927,6.301 l -8.166,47.362 H 416.69 l 5.192,-45.167 c 0.487,-4.239 -2.554,-8.071 -6.794,-8.558 -4.23,-0.478 -8.071,2.555 -8.558,6.794 l -5.394,46.932 H 354.47 l 2.621,-45.606 c 0.245,-4.26 -3.01,-7.912 -7.27,-8.157 -4.266,-0.247 -7.912,3.01 -8.157,7.271 l -2.672,46.492 h -46.716 v -46.05 c 0,-4.267 -3.459,-7.726 -7.726,-7.726 -4.267,0 -7.726,3.459 -7.726,7.726 V 82.535 H 235.176 V 36.486 c 0,-4.267 -3.459,-7.726 -7.726,-7.726 -4.268,0 -7.726,3.459 -7.726,7.726 v 46.049 h -46.716 l -2.672,-46.492 c -0.244,-4.261 -3.892,-7.509 -8.157,-7.271 -4.26,0.245 -7.515,3.897 -7.27,8.157 l 2.621,45.606 h -46.665 l -5.394,-46.932 c -0.487,-4.239 -4.32,-7.276 -8.558,-6.794 -4.239,0.487 -7.281,4.319 -6.794,8.558 l 5.192,45.167 H 56.472 L 48.306,35.172 c -0.724,-4.205 -4.726,-7.024 -8.927,-6.301 -4.205,0.725 -7.026,4.722 -6.301,8.927 l 45.542,264.143 -47.108,34.26 c -3.451,2.51 -4.214,7.342 -1.704,10.793 2.51,3.452 7.344,4.214 10.793,1.704 l 48.962,-35.609 h 39.116 c 0.004,0 0.007,10e-4 0.011,10e-4 0.003,0 0.006,-10e-4 0.009,-10e-4 h 254.604 c 0.003,0 0.006,10e-4 0.009,10e-4 0.004,0 0.007,-10e-4 0.011,-10e-4 h 39.116 l 48.962,35.609 c 1.372,0.998 2.962,1.478 4.538,1.478 2.387,0 4.742,-1.104 6.255,-3.183 2.508,-3.45 1.745,-8.282 -1.706,-10.792 z m -138.38,-38.564 2.203,-38.323 h 36.506 l -4.405,38.323 z m -49.831,0 v -38.323 h 36.557 l -2.203,38.323 z m -106.908,0 -2.203,-38.323 h 36.557 v 38.323 z m -49.78,0 -4.405,-38.323 h 36.506 l 2.203,38.323 z M 436.985,190.086 h -32.656 l 4.405,-38.323 h 34.859 z m -48.211,0 H 348.29 l 2.203,-38.323 h 42.687 z m -55.962,0 h -40.535 v -38.323 h 42.738 z m -97.636,15.452 h 41.648 v 38.322 h -41.648 z m -15.453,38.323 h -37.445 l -2.203,-38.322 h 39.647 v 38.322 z m 72.554,-38.323 h 39.647 l -2.203,38.322 h -37.445 v -38.322 z m -15.453,-15.452 h -41.648 v -38.323 h 41.648 z m -57.101,0 h -40.535 l -2.203,-38.323 h 42.738 z m -56.012,0 h -40.484 l -4.405,-38.323 h 42.687 z m -56.039,0 H 75.015 l -6.608,-38.323 h 34.859 z m -29.993,15.452 h 31.769 l 4.405,38.322 H 84.287 Z m 47.324,0 h 39.596 l 2.203,38.322 h -37.394 z m 110.173,53.776 h 41.648 v 38.323 h -41.648 z m 110.023,-15.453 2.203,-38.322 h 39.596 l -4.405,38.322 z m 57.353,-38.323 h 31.769 l -6.608,38.322 h -29.566 z m 50.312,-107.55 -6.608,38.322 H 410.51 l 4.405,-38.322 z m -53.504,0 -4.405,38.322 H 351.38 l 2.203,-38.322 z m -61.255,0 -2.203,38.322 H 292.276 V 97.988 Z m -61.281,0 V 136.31 H 235.176 V 97.988 Z m -57.101,0 v 38.322 h -43.626 l -2.203,-38.322 z m -61.305,0 2.203,38.322 h -43.575 l -4.405,-38.322 z m -61.332,0 4.405,38.322 H 65.743 L 59.135,97.988 Z M 86.951,259.314 h 28.678 l 4.405,38.323 H 93.558 Z m 305.015,38.323 4.405,-38.323 h 28.678 l -6.608,38.323 z"
         fill="#cbc4cc"
         id="path1102" />
      <path
         d="M 36.056,349.879 V 42.667 c 0,-3.414 2.768,-6.181 6.181,-6.181 h 427.525 c 3.413,0 6.181,2.767 6.181,6.181 V 349.543 L 512,365.284 V 26.184 C 512,11.96 500.469,0.429 486.245,0.429 H 26.239 C 12.027,0.429 0.502,11.941 0.484,26.153 L 0,365.284 Z"
         fill="#918291"
         id="path1104" />
    </g>
    <g
       id="g1148">
      <circle
         cx="256"
         cy="403.633"
         fill="#f9f7f8"
         r="107.938"
         id="circle1108" />
      <path
         d="m 288.13,300.558 c 27.195,19.599 44.903,51.541 44.903,87.622 0,59.613 -48.325,107.938 -107.938,107.938 -11.189,0 -21.98,-1.703 -32.13,-4.863 17.736,12.781 39.505,20.316 63.035,20.316 59.613,0 107.938,-48.326 107.938,-107.938 0,-48.424 -31.887,-89.399 -75.808,-103.075 z"
         fill="#e5e1e5"
         id="path1110" />
      <g
         id="g1114">
        <path
           d="m 256,387.962 c -4.268,0 -7.726,-3.459 -7.726,-7.726 v -64.442 c 0,-4.267 3.459,-7.726 7.726,-7.726 4.267,0 7.726,3.459 7.726,7.726 v 64.442 c 0,4.266 -3.458,7.726 -7.726,7.726 z"
           fill="#b5adb6"
           id="path1112" />
      </g>
      <g
         id="g1118">
        <path
           d="m 307.232,480.734 c -2.181,0 -4.348,-0.918 -5.876,-2.705 l -33.151,-38.77 c -2.774,-3.243 -2.392,-8.12 0.851,-10.893 3.243,-2.775 8.121,-2.391 10.893,0.851 l 33.151,38.77 c 2.774,3.243 2.392,8.12 -0.851,10.893 -1.455,1.245 -3.241,1.854 -5.017,1.854 z"
           fill="#b5adb6"
           id="path1116" />
      </g>
      <g
         id="g1122">
        <path
           d="m 205.662,479.688 c -1.777,0 -3.561,-0.609 -5.017,-1.854 -3.243,-2.773 -3.625,-7.65 -0.851,-10.893 l 34.122,-39.904 c 2.773,-3.243 7.651,-3.624 10.893,-0.851 3.243,2.773 3.625,7.65 0.851,10.893 l -34.122,39.904 c -1.528,1.787 -3.695,2.705 -5.876,2.705 z"
           fill="#b5adb6"
           id="path1120" />
      </g>
      <g
         id="g1126">
        <path
           d="m 288.778,405.986 c -2.942,0 -5.752,-1.688 -7.043,-4.541 -1.761,-3.887 -0.036,-8.465 3.851,-10.225 l 49.076,-22.221 c 3.889,-1.762 8.466,-0.036 10.225,3.851 1.761,3.887 0.036,8.465 -3.851,10.225 l -49.076,22.221 c -1.034,0.468 -2.117,0.69 -3.182,0.69 z"
           fill="#b5adb6"
           id="path1124" />
      </g>
      <g
         id="g1130">
        <path
           d="m 227.278,407.823 c -1.065,0 -2.148,-0.222 -3.182,-0.69 l -52.85,-23.931 c -3.887,-1.76 -5.612,-6.338 -3.851,-10.225 1.76,-3.886 6.335,-5.612 10.225,-3.851 l 52.85,23.931 c 3.887,1.76 5.612,6.338 3.851,10.225 -1.292,2.853 -4.102,4.541 -7.043,4.541 z"
           fill="#b5adb6"
           id="path1128" />
      </g>
      <path
         d="m 289.956,301.139 -30.323,22.031 c -2.166,1.574 -5.1,1.574 -7.266,0 l -30.323,-22.031 c 7.766,-2.556 19.494,-5.445 33.956,-5.445 8.175,0 20.219,0.924 33.956,5.445 z"
         fill="#918291"
         id="path1132" />
      <path
         d="m 169.016,339.666 11.582,35.647 c 0.827,2.547 -0.079,5.337 -2.245,6.911 l -30.323,22.031 c -0.042,-8.561 0.904,-21.381 5.942,-35.936 4.374,-12.64 10.322,-22.223 15.044,-28.653 z"
         fill="#918291"
         id="path1134" />
      <path
         d="m 168.285,466.593 h 37.481 c 2.678,0 5.051,1.724 5.879,4.271 l 11.582,35.647 c -8.149,-2.616 -20.007,-7.477 -32.258,-16.722 -10.703,-8.078 -18.008,-16.708 -22.684,-23.196 z"
         fill="#7a6d79"
         id="path1136" />
      <g
         fill="#685e68"
         id="g1144">
        <path
           d="m 219.804,495.975 c -9.302,-0.449 -18.298,-2.061 -26.837,-4.72 4.945,2.989 9.565,8.051 30.252,15.229 z"
           id="path1138" />
        <path
           d="m 288.773,506.511 11.582,-35.647 c 0.827,-2.547 3.201,-4.271 5.879,-4.271 h 37.481 c -4.527,6.277 -11.269,14.225 -20.859,21.785 -12.855,10.134 -25.492,15.366 -34.083,18.133 z"
           id="path1140" />
        <path
           d="m 363.97,404.255 -30.323,-22.031 c -2.166,-1.574 -3.073,-4.364 -2.245,-6.911 l 11.582,-35.647 c 4.795,6.527 11.025,16.54 15.467,29.896 4.674,14.057 5.563,26.39 5.519,34.693 z"
           id="path1142" />
      </g>
      <path
         d="m 252.367,366.842 -34.193,24.843 c -2.166,1.574 -3.073,4.364 -2.245,6.911 l 13.061,40.197 c 0.827,2.547 3.201,4.271 5.879,4.271 h 42.265 c 2.678,0 5.051,-1.724 5.879,-4.271 l 13.061,-40.197 c 0.827,-2.547 -0.079,-5.337 -2.245,-6.911 l -34.193,-24.843 c -2.169,-1.574 -5.103,-1.574 -7.269,0 z"
         fill="#918291"
         id="path1146" />
    </g>
  </g>
  <text
     transform="matrix(2.2066163,0,0,2.2066163,9.2926904,-21.63284)"
     style="font-style:normal;font-variant:normal;font-weight:bold;font-stretch:normal;font-size:10.5833px;line-height:1.25;font-family:sans-serif;-inkscape-font-specification:'sans-serif Bold';white-space:pre;shape-inside:url(#rect1186);fill:#000000;fill-opacity:1;stroke:none;"
     id="text1184"
     xml:space="preserve"><tspan
       x="-2.1132812"
       y="30.003121"><tspan
         style="font-style:normal;font-variant:normal;font-weight:bold;font-stretch:normal;font-family:sans-serif;-inkscape-font-specification:'sans-serif Bold'">P</tspan></tspan></text>
  <text
     xml:space="preserve"
     id="text1192"
     style="font-style:normal;font-variant:normal;font-weight:bold;font-stretch:normal;font-size:10.5833px;line-height:1.25;font-family:sans-serif;-inkscape-font-specification:'sans-serif Bold';white-space:pre;shape-inside:url(#rect1194);fill:#000000;fill-opacity:1;stroke:none;"
     transform="matrix(2.2066163,0,0,2.2066163,117.1065,-21.63284)"><tspan
       x="-2.1132812"
       y="30.003121"><tspan
         style="font-style:normal;font-variant:normal;font-weight:bold;font-stretch:normal;font-family:sans-serif;-inkscape-font-specification:'sans-serif Bold'">S</tspan></tspan></text>
</svg>
