<?xml version="1.0" encoding="UTF-8" standalone="no"?>
<svg
   xmlns:dc="http://purl.org/dc/elements/1.1/"
   xmlns:cc="http://creativecommons.org/ns#"
   xmlns:rdf="http://www.w3.org/1999/02/22-rdf-syntax-ns#"
   xmlns:svg="http://www.w3.org/2000/svg"
   xmlns="http://www.w3.org/2000/svg"
   id="svg8"
   version="1.1"
   viewBox="0 0 132.29166 66.145835"
   height="250"
   width="500">
  <defs
     id="defs2">
    <rect
       id="rect952"
       height="25.607887"
       width="32.127975"
       y="1.889881"
       x="33.261906" />
    <rect
       id="rect946"
       height="20.127232"
       width="21.45015"
       y="3.0238094"
       x="23.718006" />
  </defs>
  <metadata
     id="metadata5">
    <rdf:RDF>
      <cc:Work
         rdf:about="">
        <dc:format>image/svg+xml</dc:format>
        <dc:type
           rdf:resource="http://purl.org/dc/dcmitype/StillImage" />
        <dc:title></dc:title>
      </cc:Work>
    </rdf:RDF>
  </metadata>
  <text
     xml:space="preserve"
     id="text950"
     style="font-style:normal;font-variant:normal;font-weight:bold;font-stretch:normal;font-size:10.5833px;line-height:1.25;font-family:sans-serif;-inkscape-font-specification:'sans-serif Bold';white-space:pre;shape-inside:url(#rect952);fill:#000000;fill-opacity:1;stroke:none;"
     transform="matrix(3.534766,0,0,3.534766,-31.185412,6.2224243)"><tspan
       x="33.261719"
       y="11.54609"><tspan>X</tspan></tspan></text>
  <g
     transform="matrix(0.10751171,0,0,0.10751171,11.192645,6.4094455)"
     id="g1379">
    <path
       style="fill:#64b5f6"
       d="M 501.333,0.002 H 106.667 C 100.776,0.002 96,4.778 96,10.669 v 426.667 c 0,5.891 4.776,10.667 10.667,10.667 H 416 c 5.891,0 10.667,-4.776 10.667,-10.667 v -74.667 h 74.667 c 5.891,0 10.667,-4.776 10.667,-10.667 V 10.669 C 512,4.778 507.224,0.002 501.333,0.002 Z"
       id="path1309" />
    <g
       id="g1315">
	<path
   style="fill:#2196f3"
   d="m 511.189,347.928 c -1.649,-3.989 -5.539,-6.591 -9.856,-6.592 H 416 c -5.891,0 -10.667,4.776 -10.667,10.667 v 85.333 c 10e-4,4.316 2.603,8.207 6.592,9.856 1.291,0.538 2.676,0.813 4.075,0.811 2.831,0.005 5.548,-1.115 7.552,-3.115 l 85.333,-85.333 c 3.049,-3.054 3.958,-7.642 2.304,-11.627 z"
   id="path1311" />

	<path
   style="fill:#2196f3"
   d="m 202.667,64.002 h -192 C 4.776,64.002 0,68.778 0,74.669 v 362.667 c 0,41.856 46.933,74.667 106.667,74.667 59.734,0 106.667,-32.811 106.667,-74.667 V 74.669 c -0.001,-5.891 -4.776,-10.667 -10.667,-10.667 z"
   id="path1313" />

</g>
    <path
       style="fill:#cfd8dc"
       d="M 106.667,0.002 C 46.933,0.002 0,32.813 0,74.669 c 0,41.856 46.933,74.667 106.667,74.667 59.734,0 106.667,-32.811 106.667,-74.667 0,-41.856 -46.934,-74.667 -106.667,-74.667 z"
       id="path1317" />
    <path
       style="fill:#607d8b"
       d="m 106.667,42.669 c -23.915,0 -42.667,14.059 -42.667,32 0,17.941 18.752,32 42.667,32 23.915,0 42.667,-14.059 42.667,-32 0,-17.941 -18.753,-32 -42.667,-32 z"
       id="path1319" />
    <g
       id="g1321">
</g>
    <g
       id="g1323">
</g>
    <g
       id="g1325">
</g>
    <g
       id="g1327">
</g>
    <g
       id="g1329">
</g>
    <g
       id="g1331">
</g>
    <g
       id="g1333">
</g>
    <g
       id="g1335">
</g>
    <g
       id="g1337">
</g>
    <g
       id="g1339">
</g>
    <g
       id="g1341">
</g>
    <g
       id="g1343">
</g>
    <g
       id="g1345">
</g>
    <g
       id="g1347">
</g>
    <g
       id="g1349">
</g>
  </g>
</svg>
