<?xml version="1.0" encoding="UTF-8" standalone="no"?>
<svg
   xmlns:dc="http://purl.org/dc/elements/1.1/"
   xmlns:cc="http://creativecommons.org/ns#"
   xmlns:rdf="http://www.w3.org/1999/02/22-rdf-syntax-ns#"
   xmlns:svg="http://www.w3.org/2000/svg"
   xmlns="http://www.w3.org/2000/svg"
   id="svg8"
   version="1.1"
   viewBox="0 0 132.29166 66.145835"
   height="250"
   width="500">
  <defs
     id="defs2">
    <rect
       id="rect1186"
       height="20.347214"
       width="23.518208"
       y="20.347214"
       x="-2.1139962" />
    <rect
       x="7.1347373"
       y="11.09848"
       width="36.466435"
       height="36.466435"
       id="rect1838" />
    <rect
       id="rect8007"
       height="36.783534"
       width="39.32033"
       y="5.9191895"
       x="36.783534" />
    <rect
       id="rect7100"
       height="24.522356"
       width="32.132743"
       y="18.180368"
       x="5.7077898" />
    <rect
       id="rect5371"
       height="48.621913"
       width="49.044713"
       y="3.382394"
       x="65.956682" />
    <rect
       id="rect952"
       height="25.607887"
       width="32.127975"
       y="1.889881"
       x="33.261906" />
    <rect
       id="rect946"
       height="20.127232"
       width="21.45015"
       y="3.0238094"
       x="23.718006" />
    <rect
       x="33.261906"
       y="1.889881"
       width="32.127975"
       height="25.607887"
       id="rect4359" />
    <rect
       x="5.7077898"
       y="18.180368"
       width="32.132743"
       height="24.522356"
       id="rect7340" />
    <rect
       x="-2.1139962"
       y="20.347214"
       width="23.518208"
       height="20.347214"
       id="rect1194" />
  </defs>
  <metadata
     id="metadata5">
    <rdf:RDF>
      <cc:Work
         rdf:about="">
        <dc:format>image/svg+xml</dc:format>
        <dc:type
           rdf:resource="http://purl.org/dc/dcmitype/StillImage" />
        <dc:title></dc:title>
      </cc:Work>
    </rdf:RDF>
  </metadata>
  <g
     transform="matrix(0.12475129,0,0,0.12475129,-1.4771676,1.3591105)"
     id="g1329">
    <g
       id="g1271">
      <path
         d="m 372.686,68.686 -9.373,-9.373 C 356.07,52.07 352,42.245 352,32 H 160 c 0,10.245 -4.07,20.07 -11.314,27.314 l -9.373,9.373 C 132.07,75.93 128,85.755 128,96 h 256 c 0,-10.245 -4.07,-20.07 -11.314,-27.314 z"
         fill="#73c369"
         id="path1269" />
    </g>
    <g
       id="g1275">
      <path
         d="M 128,96 H 384 V 448 H 128 Z"
         fill="#73c369"
         id="path1273" />
    </g>
    <g
       id="g1279">
      <path
         d="M 256,96 H 384 V 448 H 256 Z"
         fill="#3c915a"
         id="path1277" />
    </g>
    <g
       id="g1283">
      <path
         d="M 360,32 H 152 c -4.418,0 -8,-3.582 -8,-8 0,-4.418 3.582,-8 8,-8 h 208 c 4.418,0 8,3.582 8,8 0,4.418 -3.582,8 -8,8 z"
         fill="#c8c8c3"
         id="path1281" />
    </g>
    <g
       id="g1287">
      <path
         d="m 128,448 32,32 h 192 l 32,-32 z"
         fill="#3c915a"
         id="path1285" />
    </g>
    <g
       id="g1291">
      <path
         d="m 372.686,68.686 -9.373,-9.373 C 356.07,52.07 352,42.245 352,32 H 224 c 0,10.245 4.07,20.07 11.314,27.314 l 9.373,9.373 C 251.93,75.93 256,85.755 256,96 h 128 c 0,-10.245 -4.07,-20.07 -11.314,-27.314 z"
         fill="#3c915a"
         id="path1289" />
    </g>
    <g
       id="g1295">
      <path
         d="m 304,384 h -96 c -17.673,0 -32,-14.327 -32,-32 V 152 c 0,-17.673 14.327,-32 32,-32 h 96 c 17.673,0 32,14.327 32,32 v 200 c 0,17.673 -14.327,32 -32,32 z"
         fill="#facc0a"
         id="path1293" />
    </g>
    <g
       id="g1299">
      <path
         d="m 128,224 h 48 v 64 h -48 z"
         fill="#facc0a"
         id="path1297" />
    </g>
    <g
       id="g1303">
      <path
         d="m 336,224 h 48 v 64 h -48 z"
         fill="#faa01e"
         id="path1301" />
    </g>
    <g
       id="g1307">
      <path
         d="M 304,384 H 256 V 120 h 48 c 17.673,0 32,14.327 32,32 v 200 c 0,17.673 -14.327,32 -32,32 z"
         fill="#faa01e"
         id="path1305" />
    </g>
    <g
       id="g1311">
      <path
         d="m 261.767,209.201 9.925,20.11 c 0.937,1.898 2.748,3.214 4.842,3.518 l 22.192,3.225 c 5.275,0.767 7.381,7.249 3.564,10.97 l -16.058,15.653 c -1.516,1.478 -2.207,3.606 -1.85,5.693 l 3.791,22.102 c 0.901,5.254 -4.613,9.26 -9.331,6.78 l -19.849,-10.435 c -1.874,-0.985 -4.112,-0.985 -5.985,0 l -19.849,10.435 c -4.718,2.48 -10.233,-1.526 -9.331,-6.78 l 3.791,-22.102 c 0.358,-2.086 -0.334,-4.215 -1.85,-5.693 l -16.058,-15.653 c -3.817,-3.721 -1.711,-10.203 3.564,-10.97 l 22.192,-3.225 c 2.095,-0.304 3.906,-1.62 4.842,-3.518 l 9.925,-20.11 c 2.358,-4.78 9.174,-4.78 11.533,0 z"
         fill="#ffffff"
         id="path1309" />
    </g>
    <g
       id="g1315">
      <path
         d="M 344,496 H 168 c -4.418,0 -8,-3.582 -8,-8 v -8 h 192 v 8 c 0,4.418 -3.582,8 -8,8 z"
         fill="#c8c8c3"
         id="path1313" />
    </g>
    <g
       id="g1319">
      <path
         d="m 352,480 h -96 c 0,8.837 -7.163,16 -16,16 h 104 c 4.418,0 8,-3.582 8,-8 z"
         fill="#a0a5aa"
         id="path1317" />
    </g>
    <g
       id="g1323">
      <path
         d="M 360,16 H 248 c 4.418,0 8,3.582 8,8 0,4.418 -3.582,8 -8,8 h 112 c 4.418,0 8,-3.582 8,-8 0,-4.418 -3.582,-8 -8,-8 z"
         fill="#a0a5aa"
         id="path1321" />
    </g>
    <g
       id="g1327">
      <path
         d="m 152,432 c -4.418,0 -8,-3.582 -8,-8 V 106.67 c 0,-12.448 4.847,-24.158 13.648,-32.972 l 9.389,-9.378 c 3.104,-3.104 5.556,-6.94 7.088,-11.091 1.53,-4.145 6.131,-6.264 10.275,-4.734 4.146,1.531 6.265,6.131 4.734,10.276 -2.327,6.303 -6.058,12.135 -10.787,16.865 l -9.385,9.374 C 163.186,90.796 160,98.491 160,106.67 V 424 c 0,4.418 -3.582,8 -8,8 z"
         fill="#ffffff"
         id="path1325" />
    </g>
  </g>
  <g
     transform="matrix(0.10165102,0,0,0.10165102,67.033928,7.6691544)"
     id="g1503">
    <path
       style="fill:#cfd8dc"
       d="M 373.333,117.333 H 138.667 C 62.083,117.333 0,179.417 0,256 0,332.583 62.083,394.667 138.667,394.667 H 373.334 C 449.917,394.667 512,332.583 512,256 512,179.417 449.917,117.333 373.333,117.333 Z"
       id="path1436" />
    <circle
       style="fill:#4caf50"
       cx="373.33301"
       cy="256"
       r="96"
       id="circle1438" />
    <g
       id="g1444">
	<path
   style="fill:#455a64"
   d="m 117.333,309.333 c -17.673,0 -32,-14.327 -32,-32 v -42.667 c 0,-17.673 14.327,-32 32,-32 17.673,0 32,14.327 32,32 v 42.667 c 0,17.673 -14.327,32 -32,32 z m 0,-85.333 c -5.891,0 -10.667,4.776 -10.667,10.667 v 42.667 c 0,5.891 4.776,10.667 10.667,10.667 5.891,0 10.667,-4.777 10.667,-10.668 V 234.666 C 128,228.776 123.224,224 117.333,224 Z"
   id="path1440" />

	<path
   style="fill:#455a64"
   d="m 224,309.333 c -4.037,0 -7.728,-2.279 -9.536,-5.888 L 192,258.517 v 40.149 c 0,5.891 -4.776,10.667 -10.667,10.667 -5.891,0 -10.667,-4.776 -10.667,-10.667 v -85.333 c 0.006,-4.941 3.405,-9.232 8.213,-10.368 4.819,-1.186 9.812,1.151 11.989,5.611 l 22.464,44.907 v -40.149 c 0,-5.891 4.776,-10.667 10.667,-10.667 5.891,0 10.667,4.776 10.667,10.667 v 85.333 c -0.006,4.941 -3.405,9.232 -8.213,10.368 -0.802,0.202 -1.626,0.302 -2.453,0.298 z"
   id="path1442" />

</g>
    <g
       id="g1446">
</g>
    <g
       id="g1448">
</g>
    <g
       id="g1450">
</g>
    <g
       id="g1452">
</g>
    <g
       id="g1454">
</g>
    <g
       id="g1456">
</g>
    <g
       id="g1458">
</g>
    <g
       id="g1460">
</g>
    <g
       id="g1462">
</g>
    <g
       id="g1464">
</g>
    <g
       id="g1466">
</g>
    <g
       id="g1468">
</g>
    <g
       id="g1470">
</g>
    <g
       id="g1472">
</g>
    <g
       id="g1474">
</g>
  </g>
</svg>
