<?xml version="1.0" encoding="UTF-8" standalone="no"?>
<svg
   xmlns:dc="http://purl.org/dc/elements/1.1/"
   xmlns:cc="http://creativecommons.org/ns#"
   xmlns:rdf="http://www.w3.org/1999/02/22-rdf-syntax-ns#"
   xmlns:svg="http://www.w3.org/2000/svg"
   xmlns="http://www.w3.org/2000/svg"
   id="svg8"
   version="1.1"
   viewBox="0 0 132.29166 66.145835"
   height="250"
   width="500">
  <defs
     id="defs2">
    <rect
       id="rect952"
       height="25.607887"
       width="32.127975"
       y="1.889881"
       x="33.261906" />
    <rect
       id="rect946"
       height="20.127232"
       width="21.45015"
       y="3.0238094"
       x="23.718006" />
  </defs>
  <metadata
     id="metadata5">
    <rdf:RDF>
      <cc:Work
         rdf:about="">
        <dc:format>image/svg+xml</dc:format>
        <dc:type
           rdf:resource="http://purl.org/dc/dcmitype/StillImage" />
        <dc:title></dc:title>
      </cc:Work>
    </rdf:RDF>
  </metadata>
  <text
     xml:space="preserve"
     id="text950"
     style="font-style:normal;font-variant:normal;font-weight:bold;font-stretch:normal;font-size:10.5833px;line-height:1.25;font-family:sans-serif;-inkscape-font-specification:'sans-serif Bold';white-space:pre;shape-inside:url(#rect952);fill:#000000;fill-opacity:1;stroke:none;"
     transform="matrix(3.534766,0,0,3.534766,-31.185412,6.2224243)"><tspan
       x="33.261719"
       y="11.54609"><tspan>A</tspan></tspan></text>
  <g
     transform="matrix(0.11457899,0,0,0.11457899,10.046094,4.1093535)"
     id="g1258">
    <g
       id="g1162">
	<path
   style="fill:#f7a738"
   d="m 170.296,309.412 h -8.661 c -4.268,0 -7.728,-3.46 -7.728,-7.728 0,-4.268 3.46,-7.728 7.728,-7.728 h 8.661 c 3.445,0 6.248,-2.802 6.248,-6.247 0,-2.381 -1.323,-4.521 -3.452,-5.588 L 111.72,251.405 C 83.47,237.266 59.763,215.587 43.16,188.711 26.557,161.835 17.782,130.931 17.782,99.341 V 87.235 c 0,-13.965 11.361,-25.327 25.327,-25.327 h 91.578 c 4.268,0 7.728,3.46 7.728,7.728 0,4.268 -3.46,7.728 -7.728,7.728 H 43.108 c -5.443,0 -9.871,4.428 -9.871,9.871 v 12.106 c 0,28.719 7.978,56.814 23.072,81.247 15.094,24.434 36.647,44.142 62.329,56.996 L 180.01,268.3 c 7.395,3.702 11.989,11.139 11.989,19.408 0,11.968 -9.735,21.704 -21.703,21.704 z"
   id="path1158" />

	<path
   style="fill:#f7a738"
   d="m 350.362,309.412 h -8.661 c -11.967,0 -21.703,-9.736 -21.703,-21.703 0,-8.27 4.594,-15.706 11.989,-19.408 l 61.373,-30.717 c 25.682,-12.854 47.235,-32.562 62.329,-56.996 15.093,-24.433 23.072,-52.528 23.072,-81.247 V 87.235 c 0,-5.443 -4.428,-9.871 -9.871,-9.871 h -91.578 c -4.268,0 -7.728,-3.46 -7.728,-7.728 0,-4.268 3.46,-7.728 7.728,-7.728 h 91.578 c 13.965,0 25.327,11.361 25.327,25.327 v 12.106 c 0,31.59 -8.776,62.494 -25.378,89.37 -16.603,26.876 -40.311,48.555 -68.56,62.694 l -61.372,30.716 c -2.129,1.066 -3.451,3.206 -3.451,5.587 0,3.445 2.803,6.247 6.248,6.247 h 8.661 c 4.268,0 7.728,3.46 7.728,7.728 -0.003,4.269 -3.463,7.729 -7.731,7.729 z"
   id="path1160" />

</g>
    <path
       style="fill:#fec93e"
       d="M 282.398,340.11 V 306.488 H 229.6 v 33.622 c 0,14.875 -8.387,28.479 -21.676,35.161 l -5.307,2.668 c -10.036,5.046 -16.369,15.319 -16.369,26.552 v 39.362 h 139.503 v -39.362 c 0,-11.233 -6.333,-21.506 -16.369,-26.552 l -5.307,-2.668 c -13.29,-6.682 -21.677,-20.286 -21.677,-35.161 z"
       id="path1164" />
    <path
       style="fill:#efb635"
       d="m 309.382,377.939 -5.307,-2.668 c -13.29,-6.682 -21.676,-20.286 -21.676,-35.161 v -33.622 h -26.4 v 137.365 h 69.752 v -39.362 c 0,-11.233 -6.334,-21.506 -16.369,-26.552 z"
       id="path1166" />
    <path
       style="fill:#fec93e"
       d="m 255.999,334.975 v 0 0 C 191.924,309.327 148.064,249.411 142.979,180.581 L 131.171,20.733 H 380.828 L 369.02,180.581 c -5.086,68.83 -48.946,128.746 -113.021,154.394 z"
       id="path1168" />
    <path
       style="fill:#efb635"
       d="m 331.216,20.733 -11.809,159.848 c -3.631,49.145 -27.033,112.704 -63.444,154.379 0.012,0.005 0.024,0.01 0.036,0.015 v 0 0 c 64.075,-25.648 107.935,-85.564 113.02,-154.394 L 380.828,20.733 Z"
       id="path1170" />
    <path
       style="fill:#f7a738"
       d="m 392.509,35.485 h -273.02 c -5.313,0 -9.62,-4.307 -9.62,-9.62 V 9.62 c 0,-5.313 4.307,-9.62 9.62,-9.62 h 273.02 c 5.313,0 9.62,4.307 9.62,9.62 v 16.244 c 10e-4,5.313 -4.307,9.621 -9.62,9.621 z"
       id="path1172" />
    <path
       style="fill:#ea9632"
       d="m 392.509,17.674 h -273.02 c -5.049,0 -9.181,-3.891 -9.581,-8.837 -0.021,0.259 -0.04,0.519 -0.04,0.783 v 16.244 c 0,5.313 4.307,9.62 9.62,9.62 h 273.02 c 5.313,0 9.62,-4.307 9.62,-9.62 V 9.62 c 0,-0.264 -0.019,-0.524 -0.04,-0.783 -0.398,4.946 -4.53,8.837 -9.579,8.837 z"
       id="path1174" />
    <path
       style="fill:#f7a738"
       d="M 377.83,484.537 H 134.169 V 440.39 c 0,-14.566 11.808,-26.374 26.374,-26.374 h 190.915 c 14.566,0 26.374,11.808 26.374,26.374 v 44.147 z"
       id="path1176" />
    <path
       style="fill:#ea9632"
       d="m 351.457,414.016 h -27.608 v 31.168 c 0,10.827 -8.777,19.605 -19.605,19.605 H 134.169 v 19.749 H 377.83 V 464.789 440.39 c 0,-14.566 -11.808,-26.374 -26.373,-26.374 z"
       id="path1178" />
    <path
       style="fill:#fec93e"
       d="M 398.695,512 H 113.303 c -1.661,0 -3.008,-1.347 -3.008,-3.008 v -27.041 c 0,-1.661 1.347,-3.008 3.008,-3.008 h 285.392 c 1.661,0 3.008,1.347 3.008,3.008 v 27.041 c 0,1.661 -1.347,3.008 -3.008,3.008 z"
       id="path1180" />
    <path
       style="fill:#ff8150"
       d="m 287.946,344.161 h -63.893 c -7.973,0 -14.437,-6.464 -14.437,-14.437 v -4.656 c 0,-7.973 6.464,-14.437 14.437,-14.437 h 63.893 c 7.973,0 14.437,6.464 14.437,14.437 v 4.656 c 0,7.974 -6.464,14.437 -14.437,14.437 z"
       id="path1182" />
    <path
       style="fill:#fd6e2e"
       d="m 287.946,327.396 h -63.893 c -5.808,0 -10.802,-3.438 -13.093,-8.383 -0.854,1.843 -1.344,3.889 -1.344,6.054 v 4.656 c 0,7.973 6.464,14.437 14.437,14.437 h 63.893 c 7.973,0 14.437,-6.464 14.437,-14.437 v -4.656 c 0,-2.165 -0.49,-4.211 -1.344,-6.054 -2.291,4.945 -7.285,8.383 -13.093,8.383 z"
       id="path1184" />
    <path
       style="fill:#f2ebda"
       d="m 258.374,74.07 17.889,49.396 52.507,1.749 c 2.361,0.079 3.332,3.066 1.468,4.518 l -41.45,32.278 14.562,50.477 c 0.655,2.27 -1.887,4.116 -3.843,2.792 l -43.508,-29.447 -43.507,29.447 c -1.956,1.324 -4.498,-0.522 -3.843,-2.792 l 14.562,-50.477 -41.45,-32.278 c -1.864,-1.451 -0.893,-4.439 1.468,-4.518 l 52.507,-1.749 17.889,-49.396 c 0.803,-2.221 3.945,-2.221 4.749,0 z"
       id="path1186" />
    <path
       style="fill:#efb635"
       d="m 398.695,478.943 h -50.973 v 10.687 c 0,6.316 -5.12,11.436 -11.436,11.436 H 113.303 c -1.661,0 -3.008,-1.347 -3.008,-3.008 v 10.934 c 0,1.661 1.347,3.008 3.008,3.008 h 285.392 c 1.661,0 3.008,-1.347 3.008,-3.008 v -10.934 -16.107 c 0,-1.661 -1.347,-3.008 -3.008,-3.008 z"
       id="path1188" />
    <g
       id="g1190">
</g>
    <g
       id="g1192">
</g>
    <g
       id="g1194">
</g>
    <g
       id="g1196">
</g>
    <g
       id="g1198">
</g>
    <g
       id="g1200">
</g>
    <g
       id="g1202">
</g>
    <g
       id="g1204">
</g>
    <g
       id="g1206">
</g>
    <g
       id="g1208">
</g>
    <g
       id="g1210">
</g>
    <g
       id="g1212">
</g>
    <g
       id="g1214">
</g>
    <g
       id="g1216">
</g>
    <g
       id="g1218">
</g>
  </g>
</svg>
