<?xml version="1.0" encoding="UTF-8" standalone="no"?>
<svg
   xmlns:dc="http://purl.org/dc/elements/1.1/"
   xmlns:cc="http://creativecommons.org/ns#"
   xmlns:rdf="http://www.w3.org/1999/02/22-rdf-syntax-ns#"
   xmlns:svg="http://www.w3.org/2000/svg"
   xmlns="http://www.w3.org/2000/svg"
   id="svg8"
   version="1.1"
   viewBox="0 0 132.29166 66.145835"
   height="250"
   width="500">
  <defs
     id="defs2">
    <rect
       id="rect5371"
       height="48.621913"
       width="49.044713"
       y="3.382394"
       x="65.956682" />
    <rect
       id="rect952"
       height="25.607887"
       width="32.127975"
       y="1.889881"
       x="33.261906" />
    <rect
       id="rect946"
       height="20.127232"
       width="21.45015"
       y="3.0238094"
       x="23.718006" />
    <rect
       x="33.261906"
       y="1.889881"
       width="32.127975"
       height="25.607887"
       id="rect4359" />
  </defs>
  <metadata
     id="metadata5">
    <rdf:RDF>
      <cc:Work
         rdf:about="">
        <dc:format>image/svg+xml</dc:format>
        <dc:type
           rdf:resource="http://purl.org/dc/dcmitype/StillImage" />
        <dc:title></dc:title>
      </cc:Work>
    </rdf:RDF>
  </metadata>
  <g
     transform="matrix(0.09817398,0,0,0.09817398,9.4128775,7.4711153)"
     id="g5660">
    <g
       id="g5630">
      <path
         d="m 410.672,400 h -62.008 c -7.588,0 -13.738,-6.151 -13.738,-13.739 0,-7.588 6.151,-13.738 13.738,-13.738 h 62.008 c 40.722,0 73.851,-33.13 73.851,-73.851 0,-12.587 -10.24,-22.827 -22.827,-22.827 H 348.664 c -7.588,0 -13.738,-6.151 -13.738,-13.739 0,-7.588 6.151,-13.739 13.738,-13.739 h 113.032 c 27.738,0 50.304,22.566 50.304,50.304 C 512,354.544 466.544,400 410.672,400 Z"
         fill="#ebebeb"
         id="path5628" />
    </g>
    <path
       d="M 461.696,248.367 H 421.31 c 19.714,0 36.806,11.405 45.05,27.958 10.357,2.159 18.163,11.358 18.163,22.346 0,26.257 -13.785,49.34 -34.486,62.439 C 431.472,384.772 402.624,400 370.286,400 h 40.386 C 466.544,400 512,354.544 512,298.671 c 0,-27.737 -22.566,-50.304 -50.304,-50.304 z"
       fill="#e2e2e2"
       id="path5632" />
    <path
       d="m 242.901,453.773 c -108.036,0 -195.616,-87.58 -195.616,-195.615 v -46.235 c 0,-6.547 5.308,-11.855 11.855,-11.855 h 367.521 c 6.547,0 11.855,5.308 11.855,11.855 v 46.235 c 0,108.035 -87.58,195.615 -195.615,195.615 z"
       fill="#ebebeb"
       id="path5634" />
    <path
       d="M 452.958,494.826 H 32.843 C 14.704,494.826 0,480.122 0,461.984 c 0,-4.535 3.676,-8.211 8.211,-8.211 H 477.59 c 4.535,0 8.211,3.676 8.211,8.211 0,18.138 -14.705,32.842 -32.843,32.842 z"
       fill="#bfbfbf"
       id="path5636" />
    <g
       id="g5640">
      <path
         d="m 232.724,171.859 c -4.215,0 -7.633,-3.417 -7.633,-7.633 0,-26.29 20.353,-27.555 20.353,-46.469 0,-18.961 -20.353,-20.156 -20.353,-46.476 0,-26.292 20.353,-27.558 20.353,-46.476 0,-4.215 3.417,-7.633 7.633,-7.633 4.215,0 7.632,3.417 7.632,7.633 0,26.274 -20.353,27.578 -20.353,46.476 0,18.958 20.353,20.159 20.353,46.476 0,26.29 -20.353,27.553 -20.353,46.469 0,4.216 -3.417,7.633 -7.632,7.633 z"
         fill="#b2caec"
         id="path5638" />
    </g>
    <g
       id="g5644">
      <path
         d="m 290.418,171.859 c -4.215,0 -7.633,-3.417 -7.633,-7.633 0,-26.29 20.353,-27.555 20.353,-46.469 0,-18.961 -20.353,-20.156 -20.353,-46.476 0,-26.292 20.353,-27.558 20.353,-46.476 0,-4.215 3.417,-7.633 7.633,-7.633 4.216,0 7.633,3.417 7.633,7.633 0,26.274 -20.353,27.578 -20.353,46.476 0,18.958 20.353,20.159 20.353,46.476 0,26.29 -20.353,27.553 -20.353,46.469 0,4.216 -3.417,7.633 -7.633,7.633 z"
         fill="#b2caec"
         id="path5642" />
    </g>
    <g
       id="g5648">
      <path
         d="m 175.029,171.859 c -4.215,0 -7.633,-3.417 -7.633,-7.633 0,-26.29 20.353,-27.555 20.353,-46.469 0,-18.961 -20.353,-20.156 -20.353,-46.476 0,-26.292 20.353,-27.558 20.353,-46.476 0,-4.215 3.417,-7.633 7.633,-7.633 4.216,0 7.633,3.417 7.633,7.633 0,26.274 -20.353,27.578 -20.353,46.476 0,18.958 20.353,20.159 20.353,46.476 0,26.29 -20.353,27.553 -20.353,46.469 0,4.216 -3.417,7.633 -7.633,7.633 z"
         fill="#b2caec"
         id="path5646" />
    </g>
    <g
       id="g5654" />
    <path
       d="m 426.661,200.067 h -40.386 c 6.547,0 11.855,5.307 11.855,11.855 v 46.235 c 0,101.217 -76.875,184.477 -175.423,194.583 6.639,0.681 13.375,1.032 20.193,1.032 108.035,0 195.615,-87.58 195.615,-195.615 v -46.235 c 0.001,-6.548 -5.307,-11.855 -11.854,-11.855 z"
       fill="#e2e2e2"
       id="path5656" />
    <path
       d="m 477.59,453.773 h -40.386 c 4.535,0 8.211,3.676 8.211,8.211 0,18.139 -14.704,32.843 -32.843,32.843 h 40.386 c 18.139,0 32.843,-14.704 32.843,-32.843 0,-4.535 -3.676,-8.211 -8.211,-8.211 z"
       fill="#acacac"
       id="path5658" />
  </g>
  <g
     transform="matrix(0.10403202,0,0,0.10403202,70.078233,7.3094694)"
     id="g5766">
    <path
       d="m 130.357,56.357 h 395.52 v 312.879 h -395.52 z"
       fill="#91a8dd"
       transform="matrix(0.103,-0.995,0.995,0.103,82.716,517.299)"
       id="path5756" />
    <path
       d="M 307.063,453.981 61.001,487.31 7.96,95.364 318.009,53.368 362.397,381.376 Z"
       fill="#b5ceff"
       id="path5758" />
    <path
       d="M 362.397,512 H 114.09 V 116.478 h 312.877 v 331 z"
       fill="#e9f2ff"
       id="path5760" />
    <path
       d="m 375.458,116.478 v 382.471 l 51.509,-51.471 v -331 z"
       fill="#deebff"
       id="path5762" />
    <path
       d="m 362.397,512 v -64.522 h 64.57 z"
       fill="#91a8dd"
       id="path5764" />
  </g>
</svg>
