<?xml version="1.0" encoding="UTF-8" standalone="no"?>
<svg
   xmlns:dc="http://purl.org/dc/elements/1.1/"
   xmlns:cc="http://creativecommons.org/ns#"
   xmlns:rdf="http://www.w3.org/1999/02/22-rdf-syntax-ns#"
   xmlns:svg="http://www.w3.org/2000/svg"
   xmlns="http://www.w3.org/2000/svg"
   width="500"
   height="250"
   viewBox="0 0 132.29166 66.145835"
   version="1.1"
   id="svg8">
  <defs
     id="defs2">
    <rect
       id="rect2909"
       height="20.927495"
       width="20.180084"
       y="7.1004001"
       x="9.3426317" />
    <rect
       id="rect1838"
       height="36.466435"
       width="36.466435"
       y="11.09848"
       x="7.1347373" />
    <rect
       x="36.783534"
       y="5.9191895"
       width="39.32033"
       height="36.783534"
       id="rect8007" />
    <rect
       x="5.7077898"
       y="18.180368"
       width="32.132743"
       height="24.522356"
       id="rect7100" />
    <rect
       x="65.956682"
       y="3.382394"
       width="49.044713"
       height="48.621913"
       id="rect5371" />
    <rect
       x="33.261906"
       y="1.889881"
       width="32.127975"
       height="25.607887"
       id="rect952" />
    <rect
       x="23.718006"
       y="3.0238094"
       width="21.45015"
       height="20.127232"
       id="rect946" />
    <rect
       id="rect4359"
       height="25.607887"
       width="32.127975"
       y="1.889881"
       x="33.261906" />
    <rect
       id="rect7340"
       height="24.522356"
       width="32.132743"
       y="18.180368"
       x="5.7077898" />
  </defs>
  <metadata
     id="metadata5">
    <rdf:RDF>
      <cc:Work
         rdf:about="">
        <dc:format>image/svg+xml</dc:format>
        <dc:type
           rdf:resource="http://purl.org/dc/dcmitype/StillImage" />
        <dc:title></dc:title>
      </cc:Work>
    </rdf:RDF>
  </metadata>
  <g
     transform="matrix(0.10781002,0,0,0.10781002,8.4471274,5.5129002)"
     id="g3449">
    <g
       id="g3374">
	<path
   style="fill:#547580"
   d="M 251.586,150.069 487.283,16.508 c 3.487,-1.976 5.205,-6.054 4.183,-9.93 C 490.444,2.701 486.939,0 482.931,0 H 184.064 c -2.005,-0.001 -3.951,0.681 -5.517,1.933 L 7.724,138.593 c -2.093,1.676 -3.311,4.213 -3.31,6.894 v 256 c -10e-4,2.868 1.392,5.557 3.734,7.212 l 144.049,101.685 c 1.488,1.05 3.264,1.614 5.085,1.615 h 329.551 c 3.901,-0.003 7.337,-2.565 8.452,-6.303 1.116,-3.738 -0.354,-7.764 -3.615,-9.905 L 260.414,344.276 Z"
   id="path3334" />

	<path
   style="fill:#35495e"
   d="m 251.586,512 h -94.305 c -1.821,-10e-4 -3.597,-0.565 -5.085,-1.615 L 8.148,408.717 C 5.803,407.06 4.41,404.367 4.414,401.496 v -39.565 z"
   id="path3336" />

	<path
   style="fill:#e57e25"
   d="m 472.276,105.931 c 0,0 -8.404,-26.483 -44.138,-26.483 H 286.897 c -35.734,0 -44.138,26.483 -44.138,26.483 0,0 -35.31,-2.525 -35.31,61.793 v 238.345 c 0,28.584 22.281,52.966 79.448,52.966 h 141.241 c 57.167,0 79.448,-24.382 79.448,-52.966 V 167.724 c 0,-64.318 -35.31,-61.793 -35.31,-61.793 z"
   id="path3338" />

	<g
   id="g3344">
		<path
   style="fill:#e6e7e8"
   d="m 423.901,323.602 -3.884,11.626 c -1.492,4.438 -0.586,9.332 2.396,12.941 2.982,3.609 7.618,5.422 12.257,4.793 17.655,-2.569 39.883,-9.057 39.883,-25.432 0,-9.419 -22.89,-12.297 -36.873,-13.171 -6.16,-0.411 -11.822,3.387 -13.779,9.243 z"
   id="path3340" />

		<path
   style="fill:#e6e7e8"
   d="m 291.134,323.602 3.884,11.626 c 1.492,4.438 0.586,9.332 -2.396,12.941 -2.982,3.609 -7.618,5.422 -12.257,4.793 -17.655,-2.569 -39.883,-9.057 -39.883,-25.432 0,-9.419 22.89,-12.297 36.873,-13.171 6.159,-0.411 11.821,3.387 13.779,9.243 z"
   id="path3342" />

	</g>

	<path
   style="fill:#9fc9d3"
   d="m 469.539,150.069 c -4.492,35.626 -12.9,70.648 -25.07,104.43 -4.104,11.489 -14.988,19.158 -27.189,19.156 H 297.754 c -12.2,0.002 -23.085,-7.666 -27.189,-19.156 -12.17,-33.783 -20.578,-68.804 -25.07,-104.43 z"
   id="path3346" />

	<g
   id="g3352">
		<path
   style="fill:#35495e"
   d="m 472.276,105.931 c 0,4.59 -0.088,9.092 -0.265,13.594 -0.177,3.178 -0.265,6.356 -0.53,9.446 -0.441,7.15 -1.148,14.212 -1.942,21.098 H 245.495 c -0.794,-6.886 -1.501,-13.948 -1.942,-21.098 -0.265,-3.09 -0.353,-6.268 -0.53,-9.446 -0.177,-4.502 -0.265,-9.004 -0.265,-13.594 0,0 8.386,-26.483 44.138,-26.483 h 141.241 c 35.753,0 44.139,26.483 44.139,26.483 z"
   id="path3348" />

		<path
   style="fill:#35495e"
   d="m 331.034,273.655 c 0,-14.626 11.857,-26.483 26.483,-26.483 14.626,0 26.483,11.857 26.483,26.483 z"
   id="path3350" />

	</g>

	<path
   style="fill:#e57e25"
   d="m 110.345,344.276 c -0.249,12.274 1.541,24.505 5.297,36.193 L 52.525,344.894 c -2.698,-8.778 -4.038,-17.917 -3.972,-27.101 V 194.207 c -0.185,-12.11 2.223,-24.119 7.062,-35.222 L 121.91,136.21 c -8.414,14.972 -12.423,32.017 -11.564,49.17 v 158.896 z"
   id="path3354" />

	<g
   id="g3360">
		<path
   style="fill:#f29c1f"
   d="m 253.263,91.012 c -4.64,4.065 -8.241,9.18 -10.505,14.919 0,0 -35.31,-2.56 -35.31,61.793 v 238.345 c -0.222,13.347 5.465,26.109 15.537,34.869 L 115.642,380.469 c -3.756,-11.688 -5.546,-23.919 -5.297,-36.193 V 185.379 c -0.859,-17.152 3.15,-34.198 11.564,-49.17 l 66.737,-22.952 43.255,-14.919 z"
   id="path3356" />

		<path
   style="fill:#f29c1f"
   d="m 48.552,317.793 c -0.066,9.183 1.274,18.323 3.972,27.101 L 17.92,325.385 C 9.571,320.724 4.402,311.907 4.414,302.345 V 195.443 C 4.413,184.142 11.57,174.08 22.246,170.373 l 33.368,-11.388 c -4.839,11.103 -7.247,23.112 -7.062,35.222 z"
   id="path3358" />

	</g>

	<g
   id="g3366">
		<path
   style="fill:#9fc9d3"
   d="M 163.31,205.241 V 306.14 c 0.02,2.773 -1.265,5.395 -3.469,7.078 -2.204,1.684 -5.071,2.233 -7.742,1.484 l -41.754,-11.564 v -97.192 l 42.196,-9.357 c 2.624,-0.592 5.374,0.045 7.47,1.729 2.097,1.686 3.311,4.234 3.299,6.923 z"
   id="path3362" />

		<polygon
   style="fill:#9fc9d3"
   points="4.414,273.655 4.414,229.517 48.552,219.719 48.552,285.926 "
   id="polygon3364" />

	</g>

	<polygon
   style="fill:#67b9cc"
   points="48.552,285.926 48.552,219.719 110.345,205.948 110.345,303.139 "
   id="polygon3368" />

	<path
   style="fill:#5e5f62"
   d="m 313.379,397.241 h 97.103 c 9.751,0 17.655,7.904 17.655,17.655 v 44.138 H 295.724 v -44.138 c 0,-9.75 7.905,-17.655 17.655,-17.655 z"
   id="path3370" />

	<path
   style="fill:#3f5c6c"
   d="M 419.31,123.586 H 295.724 c -4.875,0 -8.828,-3.952 -8.828,-8.828 0,-4.876 3.952,-8.828 8.828,-8.828 H 419.31 c 4.875,0 8.828,3.952 8.828,8.828 0,4.876 -3.952,8.828 -8.828,8.828 z"
   id="path3372" />

</g>
    <g
       id="g3376">
</g>
    <g
       id="g3378">
</g>
    <g
       id="g3380">
</g>
    <g
       id="g3382">
</g>
    <g
       id="g3384">
</g>
    <g
       id="g3386">
</g>
    <g
       id="g3388">
</g>
    <g
       id="g3390">
</g>
    <g
       id="g3392">
</g>
    <g
       id="g3394">
</g>
    <g
       id="g3396">
</g>
    <g
       id="g3398">
</g>
    <g
       id="g3400">
</g>
    <g
       id="g3402">
</g>
    <g
       id="g3404">
</g>
  </g>
  <g
     transform="matrix(0.1054663,0,0,0.1054663,73.400553,6.634162)"
     id="g3660">
    <path
       style="fill:#49ceab"
       d="m 404.7,472.751 c 0,0 -0.024,0 -0.072,0.012 -39.819,11.234 -88.579,21.309 -141.635,28.585 C 123.806,520.462 7.848,513.15 3.999,485.023 c -3.861,-28.115 105.798,-66.389 244.936,-85.49 0.048,-0.012 0.072,-0.012 0.072,-0.012 139.186,-19.102 255.144,-11.801 258.993,16.325 2.389,17.388 -38.685,38.673 -103.3,56.905 z"
       id="path3536" />
    <path
       style="fill:#3aba96"
       d="m 303.896,484.598 c -13.273,2.268 -26.944,4.38 -40.905,6.299 -133.008,18.268 -244.803,12.392 -257.823,-12.706 12.465,-27.21 115.608,-61.068 243.765,-78.661 -3.005,0.676 -101.37,23.035 -96.821,66.993 2.607,25.158 82.535,23.939 151.784,18.075 z"
       id="path3538" />
    <path
       style="fill:#f9e178"
       d="m 270.484,216.193 c 0,0 85.14,76.706 65.967,213.985 l -0.012,-0.024 c -0.422,-1.581 -28.091,-102.926 -88.966,-125.756 -61.358,-23.011 -72.857,151.095 -72.857,151.095 0,-0.012 -0.012,-0.012 -0.012,-0.024 -1.062,-1.605 -50.027,-77.032 -3.825,-192.483 32.941,-82.353 -12.959,-116.236 -65.267,-126.818 -13.852,-2.799 -28.151,-3.97 -41.545,-3.97 23.433,-16.893 58.51,-33.062 98.498,-21.345 0.06,0.012 0.109,0.036 0.169,0.048 14.926,4.404 30.54,12.694 46.492,26.293 12.525,10.679 25.46,18.824 38.48,24.929 h 0.012 c 84.211,39.505 171.656,-6.516 171.656,-6.516 0,0 -35.269,73.63 -148.79,60.586 z"
       id="path3540" />
    <g
       id="g3546">
	<path
   style="fill:#e8d170"
   d="m 187.359,276.115 c -12.597,33.508 -39.421,118.492 -12.754,179.355 -1.062,-1.605 -50.027,-77.032 -3.825,-192.483 32.941,-82.353 -12.959,-116.236 -65.267,-126.818 0,0 54.769,-3.523 72.459,23.023 17.7,26.546 21.984,83.415 9.387,116.923 z"
   id="path3542" />

	<path
   style="fill:#e8d170"
   d="m 336.451,430.179 -0.012,-0.024 c -0.422,-1.581 -28.091,-102.926 -88.966,-125.756 0,0 74.921,-6.576 88.978,125.78 z"
   id="path3544" />

</g>
    <path
       style="fill:#f24141"
       d="m 329.841,320.425 c -14.262,14.262 -41.882,14.154 -41.882,14.154 -11.354,-13.237 -24.821,-24.302 -40.483,-30.178 -26.872,-10.075 -44.175,17.641 -55.143,51.982 -23.735,0 -40.459,-12.706 -40.459,-12.706 h -0.29 c 1.327,-18.582 5.008,-39.131 12.199,-61.37 l 0.145,-0.048 c 0,0 67.053,-24.977 151.904,0 5.237,11.344 10.087,24.074 14.009,38.166 z"
       id="path3548" />
    <circle
       style="fill:#f9e178"
       cx="257.79901"
       cy="105.195"
       r="60.995998"
       id="circle3550" />
    <path
       style="fill:#e8d170"
       d="m 271.076,152.918 c -26.355,0 -47.721,-21.366 -47.721,-47.721 0,-26.355 21.366,-47.721 47.721,-47.721 25.532,0 46.381,20.051 47.66,45.266 -1.291,-32.545 -28.07,-58.539 -60.933,-58.539 -33.687,0 -60.994,27.309 -60.994,60.994 0,33.687 27.309,60.994 60.994,60.994 32.863,0 59.642,-25.992 60.933,-58.539 -1.279,25.216 -22.128,45.266 -47.66,45.266 z"
       id="path3552" />
    <g
       id="g3558">
	<path
   style="fill:#216b84"
   d="m 246.605,102.359 c -3.602,0 -6.64,-3.041 -6.637,-6.637 0.004,-3.873 3.481,-7.021 7.336,-6.599 3.54,0.387 6.218,3.592 5.91,7.157 -0.293,3.389 -3.199,6.079 -6.609,6.079 z"
   id="path3554" />

	<path
   style="fill:#216b84"
   d="m 295.689,100.525 c -3.607,0 -6.635,-3.031 -6.637,-6.637 -0.001,-3.69 3.171,-6.76 6.86,-6.632 3.453,0.119 6.295,2.961 6.407,6.414 0.12,3.696 -2.926,6.855 -6.63,6.855 z"
   id="path3556" />

</g>
    <path
       style="fill:#4d4d4d"
       d="m 291.504,114.655 c 0.302,5.756 -1.991,11.041 -5.84,14.745 -3.198,3.065 -7.469,5.032 -12.235,5.285 -4.995,0.253 -9.641,-1.436 -13.201,-4.416 -3.934,-3.282 -6.54,-8.133 -6.818,-13.659 z"
       id="path3560" />
    <path
       style="fill:#f24141"
       d="m 285.663,129.4 c -3.198,3.065 -7.469,5.032 -12.235,5.285 -4.995,0.253 -9.641,-1.436 -13.201,-4.416 3.186,-3.065 7.457,-5.032 12.223,-5.285 5.008,-0.254 9.654,1.435 13.213,4.416 z"
       id="path3562" />
    <path
       style="fill:#f2d546"
       d="m 307.769,74.015 c -6.407,-3.813 -12.573,-6.709 -18.486,-8.808 -4.259,-1.52 -8.386,-2.63 -12.368,-3.379 -1.11,-0.217 -2.208,-0.398 -3.294,-0.555 -9.798,-1.388 -18.739,-0.627 -26.824,1.508 -1.762,0.471 -3.487,1.002 -5.164,1.593 -5.032,1.762 -9.689,4.054 -13.961,6.637 -26.932,16.35 -59.511,11.644 -81.34,-7.155 -0.012,0 -0.012,-0.012 -0.024,-0.012 -10.136,-8.736 -17.955,-20.513 -21.804,-34.643 -0.121,-0.446 -0.181,-0.688 -0.181,-0.688 61.539,19.306 106.185,-35.524 150.831,-27.753 60.863,10.594 32.615,73.255 32.615,73.255 z"
       id="path3564" />
    <path
       style="fill:#f9e280"
       d="m 275.154,0.76 c -4.18,-0.728 -8.361,-0.906 -12.555,-0.648 1.873,0.116 3.745,0.322 5.617,0.648 52.628,9.161 38.631,57.243 33.879,70.09 1.871,0.979 3.761,2.026 5.675,3.165 -10e-4,0 28.247,-62.661 -32.616,-73.255 z"
       id="path3566" />
    <g
       id="g3572">
	<path
   style="fill:#d8ba3a"
   d="m 178.66,51.441 c -14.48,0 -28.962,-18.797 -28.962,-18.797 L 124.505,29.199 C 141.54,56.43 178.66,51.441 178.66,51.441 Z"
   id="path3568" />

	<path
   style="fill:#d8ba3a"
   d="m 286.81,59.909 c -1.919,-3.572 -4.296,-6.878 -7.059,-9.726 -0.724,-0.7 -1.376,-1.424 -2.136,-2.063 l -2.293,-1.834 c -0.76,-0.591 -1.629,-1.086 -2.425,-1.605 l -1.207,-0.748 -1.303,-0.615 c -3.33,-1.774 -7.011,-2.51 -10.437,-3.041 2.956,1.955 5.683,3.982 7.674,6.624 l 0.784,0.929 0.664,1.014 c 0.422,0.688 0.881,1.315 1.255,2.015 l 1.026,2.112 c 0.338,0.688 0.555,1.46 0.833,2.172 0.41,1.195 0.748,2.413 1.001,3.644 -7.964,-5.852 -28.428,-17.665 -61.346,-15.385 0,0 17.267,3.367 25.932,14.01 -10.674,4.993 -57.329,24.767 -91.44,6.442 21.828,18.799 54.407,23.505 81.34,7.155 4.271,-2.582 8.929,-4.875 13.961,-6.637 0.736,-0.259 1.484,-0.502 2.237,-0.738 0.237,-0.074 0.474,-0.146 0.713,-0.218 0.544,-0.164 1.093,-0.321 1.645,-0.473 8.227,-2.256 17.365,-3.091 27.393,-1.672 1.086,0.157 2.184,0.338 3.294,0.555 3.982,0.748 8.109,1.858 12.368,3.379 -0.725,-1.82 -1.569,-3.582 -2.474,-5.296 z"
   id="path3570" />

</g>
    <g
       id="g3582">
	<path
   style="fill:#e8d170"
   d="m 247.606,162.124 c -4.839,0.591 -15.795,0.652 -31.023,-6.95 -20.911,-10.462 -24.869,-35.137 -53.466,-44.115 -0.169,-0.048 -0.326,-0.109 -0.483,-0.157 14.926,4.404 30.54,12.694 46.492,26.293 12.525,10.678 25.46,18.823 38.48,24.929 z"
   id="path3574" />

	<circle
   style="fill:#e8d170"
   cx="209.75"
   cy="194.582"
   r="4.4250002"
   id="circle3576" />

	<circle
   style="fill:#e8d170"
   cx="256.41101"
   cy="201.82201"
   r="4.4250002"
   id="circle3578" />

	<circle
   style="fill:#e8d170"
   cx="238.71001"
   cy="248.483"
   r="4.4250002"
   id="circle3580" />

</g>
    <g
       id="g3584">
</g>
    <g
       id="g3586">
</g>
    <g
       id="g3588">
</g>
    <g
       id="g3590">
</g>
    <g
       id="g3592">
</g>
    <g
       id="g3594">
</g>
    <g
       id="g3596">
</g>
    <g
       id="g3598">
</g>
    <g
       id="g3600">
</g>
    <g
       id="g3602">
</g>
    <g
       id="g3604">
</g>
    <g
       id="g3606">
</g>
    <g
       id="g3608">
</g>
    <g
       id="g3610">
</g>
    <g
       id="g3612">
</g>
  </g>
</svg>
