<?xml version="1.0" encoding="UTF-8" standalone="no"?>
<svg
   xmlns:dc="http://purl.org/dc/elements/1.1/"
   xmlns:cc="http://creativecommons.org/ns#"
   xmlns:rdf="http://www.w3.org/1999/02/22-rdf-syntax-ns#"
   xmlns:svg="http://www.w3.org/2000/svg"
   xmlns="http://www.w3.org/2000/svg"
   id="svg8"
   version="1.1"
   viewBox="0 0 132.29166 66.145835"
   height="250"
   width="500">
  <defs
     id="defs2">
    <rect
       id="rect8007"
       height="36.783534"
       width="39.32033"
       y="5.9191895"
       x="36.783534" />
    <rect
       id="rect7100"
       height="24.522356"
       width="32.132743"
       y="18.180368"
       x="5.7077898" />
    <rect
       id="rect5371"
       height="48.621913"
       width="49.044713"
       y="3.382394"
       x="65.956682" />
    <rect
       id="rect952"
       height="25.607887"
       width="32.127975"
       y="1.889881"
       x="33.261906" />
    <rect
       id="rect946"
       height="20.127232"
       width="21.45015"
       y="3.0238094"
       x="23.718006" />
    <rect
       x="33.261906"
       y="1.889881"
       width="32.127975"
       height="25.607887"
       id="rect4359" />
    <rect
       x="5.7077898"
       y="18.180368"
       width="32.132743"
       height="24.522356"
       id="rect7340" />
  </defs>
  <metadata
     id="metadata5">
    <rdf:RDF>
      <cc:Work
         rdf:about="">
        <dc:format>image/svg+xml</dc:format>
        <dc:type
           rdf:resource="http://purl.org/dc/dcmitype/StillImage" />
        <dc:title></dc:title>
      </cc:Work>
    </rdf:RDF>
  </metadata>
  <g
     transform="matrix(0.08025687,0,0,0.08025687,6.5043342,12.671197)"
     id="g8003">
    <path
       style="fill:#ede6f5"
       d="m 445.684,197.307 v 122.692 c 0,13.63 -5.529,25.969 -14.453,34.904 -8.934,8.934 -21.263,14.453 -34.894,14.453 v 59.531 H 115.664 v -59.531 c -27.25,0 -49.347,-22.097 -49.347,-49.357 V 197.307 C 66.317,144.921 87.55,97.505 121.874,63.181 156.198,28.857 203.614,7.623 256,7.623 c 104.762,0 189.684,84.922 189.684,189.684 z"
       id="path7876" />
    <path
       style="fill:#cec1e8"
       d="m 160.168,263.367 11.522,47.188 c 0,0 28.267,25.532 28.267,81.212 0,14.921 -5.539,27.179 -13.64,37.119 h -70.651 v -59.531 c -27.25,0 -49.347,-22.097 -49.347,-49.357 V 197.307 c 0,-52.386 21.233,-99.802 55.557,-134.126 C 156.2,28.857 203.616,7.624 256.002,7.624 193.999,7.623 120.817,139.757 160.168,263.367 Z"
       id="path7878" />
    <path
       style="fill:#ede6f5"
       d="M 366.993,428.888 H 145.008 v 53.252 c 0,12.281 9.956,22.237 22.237,22.237 h 177.51 c 12.281,0 22.237,-9.956 22.237,-22.237 v -53.252 z"
       id="path7880" />
    <path
       style="fill:#cec1e8"
       d="m 240.168,482.139 v -53.252 h -95.159 v 53.252 c 0,12.281 9.956,22.237 22.237,22.237 h 95.159 c -12.281,0.001 -22.237,-9.956 -22.237,-22.237 z"
       id="path7882" />
    <g
       id="g7890">
	<path
   style="fill:#4e4f75"
   d="m 256,318.814 v 10.243 c 0,8.961 7.264,16.224 16.224,16.224 v 0 c 10.707,0 18.478,-10.189 15.647,-20.514 l -14.009,-51.091 c -4.98,-18.165 -30.743,-18.165 -35.725,0 l -14.009,51.091 c -2.832,10.326 4.94,20.514 15.647,20.514 v 0 c 8.961,0 16.224,-7.264 16.224,-16.224 v -10.243 z"
   id="path7884" />

	<path
   style="fill:#4e4f75"
   d="m 327.141,216.182 v 0 c -12.423,0 -22.492,10.071 -22.492,22.492 v 36.211 c 0,19.698 15.969,35.667 35.667,35.667 h 36.211 c 12.423,0 22.492,-10.071 22.492,-22.492 v 0 c 0,-39.697 -32.18,-71.878 -71.878,-71.878 z"
   id="path7886" />

	<path
   style="fill:#4e4f75"
   d="m 184.861,216.182 v 0 c 12.423,0 22.492,10.071 22.492,22.492 v 36.211 c 0,19.698 -15.969,35.667 -35.668,35.667 h -36.211 c -12.423,0 -22.492,-10.071 -22.492,-22.492 v 0 c 0.001,-39.697 32.181,-71.878 71.879,-71.878 z"
   id="path7888" />

</g>
    <g
       id="g7916">
	<path
   style="fill:#f7f5f0"
   d="m 237.074,391.767 v 0 c 10.251,0 18.56,8.309 18.56,18.56 v 18.56 h -37.12 v -18.56 c -0.001,-10.251 8.309,-18.56 18.56,-18.56 z"
   id="path7892" />

	<path
   style="fill:#f7f5f0"
   d="m 274.193,391.767 v 0 c 10.251,0 18.56,8.309 18.56,18.56 v 18.56 h -37.121 v -18.56 c 0.002,-10.251 8.311,-18.56 18.561,-18.56 z"
   id="path7894" />

	<path
   style="fill:#f7f5f0"
   d="m 311.314,391.767 v 0 c 10.251,0 18.56,8.309 18.56,18.56 v 18.56 h -37.121 v -18.56 c 0,-10.251 8.31,-18.56 18.561,-18.56 z"
   id="path7896" />

	<path
   style="fill:#f7f5f0"
   d="m 348.433,391.767 v 0 c 10.251,0 18.56,8.309 18.56,18.56 v 18.56 h -37.121 v -18.56 c 0.002,-10.251 8.311,-18.56 18.561,-18.56 z"
   id="path7898" />

	<path
   style="fill:#f7f5f0"
   d="m 199.953,391.767 v 0 c 10.251,0 18.56,8.309 18.56,18.56 v 18.56 h -37.121 v -18.56 c 0.002,-10.251 8.311,-18.56 18.561,-18.56 z"
   id="path7900" />

	<path
   style="fill:#f7f5f0"
   d="m 162.833,391.767 v 0 c 10.251,0 18.56,8.309 18.56,18.56 v 18.56 h -37.12 v -18.56 c 0,-10.251 8.31,-18.56 18.56,-18.56 z"
   id="path7902" />

	<path
   style="fill:#f7f5f0"
   d="m 274.193,466.007 v 0 c -10.251,0 -18.56,-8.309 -18.56,-18.56 v -18.56 h 37.121 v 18.56 c -0.001,10.251 -8.31,18.56 -18.561,18.56 z"
   id="path7904" />

	<path
   style="fill:#f7f5f0"
   d="m 237.074,466.007 v 0 c -10.251,0 -18.56,-8.309 -18.56,-18.56 v -18.56 h 37.12 v 18.56 c 0,10.251 -8.311,18.56 -18.56,18.56 z"
   id="path7906" />

	<path
   style="fill:#f7f5f0"
   d="m 199.953,466.007 v 0 c -10.251,0 -18.56,-8.309 -18.56,-18.56 v -18.56 h 37.12 v 18.56 c 0,10.251 -8.309,18.56 -18.56,18.56 z"
   id="path7908" />

	<path
   style="fill:#f7f5f0"
   d="m 162.833,466.007 v 0 c -10.251,0 -18.56,-8.309 -18.56,-18.56 v -18.56 h 37.121 v 18.56 c 0,10.251 -8.311,18.56 -18.561,18.56 z"
   id="path7910" />

	<path
   style="fill:#f7f5f0"
   d="m 311.314,466.007 v 0 c -10.251,0 -18.56,-8.309 -18.56,-18.56 v -18.56 h 37.121 v 18.56 c -10e-4,10.251 -8.312,18.56 -18.561,18.56 z"
   id="path7912" />

	<path
   style="fill:#f7f5f0"
   d="m 348.433,466.007 v 0 c -10.251,0 -18.56,-8.309 -18.56,-18.56 v -18.56 h 37.12 v 18.56 c 0,10.251 -8.309,18.56 -18.56,18.56 z"
   id="path7914" />

</g>
    <path
       d="m 256,0 c -39.539,0 -77.687,11.653 -110.322,33.7 -3.488,2.357 -4.406,7.096 -2.049,10.585 2.357,3.488 7.095,4.405 10.585,2.049 30.104,-20.338 65.302,-31.088 101.787,-31.088 100.39,0 182.063,81.673 182.063,182.063 v 15.144 c -4.048,-6.48 -8.86,-12.549 -14.397,-18.085 -8.057,-8.057 -11.365,-19.933 -8.631,-30.996 l 3.876,-15.688 c 1.009,-4.087 -1.485,-8.219 -5.572,-9.229 -4.084,-1.007 -8.219,1.485 -9.229,5.572 l -3.876,15.688 c -4.006,16.215 0.843,33.624 12.652,45.433 16.236,16.236 25.178,37.822 25.178,60.784 V 320 c 0,23.009 -18.719,41.728 -41.728,41.728 -0.014,0 -0.027,0.002 -0.041,0.002 -14.844,-0.015 -28.677,-8.007 -36.108,-20.868 -2.107,-3.646 -6.77,-4.894 -10.414,-2.786 -3.645,2.106 -4.893,6.769 -2.786,10.414 8.867,15.347 24.416,25.616 41.727,27.97 v 44.804 h -14.097 v -10.937 c 0,-14.437 -11.746,-26.183 -26.183,-26.183 -7.247,0 -13.814,2.961 -18.56,7.735 -4.746,-4.774 -11.313,-7.735 -18.56,-7.735 -7.247,0 -13.814,2.961 -18.56,7.735 -4.746,-4.774 -11.313,-7.735 -18.56,-7.735 -7.247,0 -13.814,2.961 -18.56,7.735 -4.746,-4.774 -11.313,-7.735 -18.56,-7.735 -7.247,0 -13.814,2.961 -18.56,7.735 -4.746,-4.774 -11.313,-7.735 -18.56,-7.735 -7.247,0 -13.814,2.961 -18.56,7.735 -4.746,-4.774 -11.313,-7.735 -18.56,-7.735 -14.437,0 -26.183,11.746 -26.183,26.183 v 10.937 H 123.29 V 376.46 c 17.311,-2.354 32.859,-12.623 41.727,-27.97 2.107,-3.645 0.859,-8.308 -2.786,-10.414 -3.647,-2.108 -8.309,-0.858 -10.414,2.786 -7.431,12.861 -21.264,20.853 -36.108,20.868 -0.014,0 -0.027,-0.002 -0.041,-0.002 C 92.659,361.728 73.94,343.009 73.94,320 v -54.068 c 0,-22.961 8.941,-44.547 25.178,-60.784 11.81,-11.81 16.658,-29.218 12.651,-45.434 l -3.877,-15.688 c -1.01,-4.087 -5.144,-6.584 -9.229,-5.571 -4.087,1.009 -6.581,5.142 -5.572,9.229 l 3.877,15.688 c 2.733,11.063 -0.574,22.938 -8.631,30.996 -5.536,5.537 -10.348,11.605 -14.397,18.085 V 197.31 c 0,-48.631 18.938,-94.353 53.326,-128.74 2.977,-2.977 2.977,-7.804 0,-10.78 -2.977,-2.978 -7.804,-2.977 -10.78,0 -37.275,37.267 -57.8,86.816 -57.8,139.52 V 320 c 0,28.831 21.528,52.729 49.351,56.467 v 52.421 c 0,4.21 3.413,7.623 7.623,7.623 h 20.985 v 10.937 c 0,2.116 0.259,4.171 0.735,6.143 v 28.548 c 0,16.465 13.395,29.86 29.86,29.86 h 128.4 c 4.21,0 7.623,-3.413 7.623,-7.623 0,-4.21 -3.413,-7.623 -7.623,-7.623 H 167.246 c -8.058,0 -14.614,-6.556 -14.614,-14.614 V 471.56 c 3.137,1.333 6.584,2.07 10.202,2.07 7.247,0 13.814,-2.961 18.56,-7.735 4.746,4.774 11.313,7.735 18.56,7.735 7.247,0 13.814,-2.961 18.56,-7.735 4.746,4.774 11.313,7.735 18.56,7.735 7.247,0 13.814,-2.961 18.56,-7.735 4.746,4.774 11.313,7.735 18.56,7.735 7.247,0 13.814,-2.961 18.56,-7.735 4.746,4.774 11.313,7.735 18.56,7.735 7.247,0 13.814,-2.961 18.56,-7.735 4.746,4.774 11.313,7.735 18.56,7.735 3.903,0 7.606,-0.865 10.937,-2.403 v 10.911 c 0,8.058 -6.556,14.614 -14.614,14.614 h -23.703 c -4.21,0 -7.623,3.413 -7.623,7.623 0,4.21 3.413,7.623 7.623,7.623 h 23.703 c 16.465,0 29.86,-13.395 29.86,-29.86 V 447.446 436.51 h 21.72 c 4.21,0 7.623,-3.413 7.623,-7.623 v -52.421 c 27.824,-3.737 49.351,-27.635 49.351,-56.467 V 197.31 C 453.311,88.513 364.798,0 256,0 Z m 92.433,399.39 c 6.03,0 10.937,4.906 10.937,10.937 v 10.937 h -21.874 v -10.937 c 0.001,-6.03 4.907,-10.937 10.937,-10.937 z m -37.119,0 c 6.03,0 10.937,4.906 10.937,10.937 v 10.937 h -21.874 v -10.937 c -0.001,-6.03 4.906,-10.937 10.937,-10.937 z m -37.121,0 c 6.03,0 10.937,4.906 10.937,10.937 v 10.937 h -21.874 v -10.937 c 0.001,-6.03 4.907,-10.937 10.937,-10.937 z m -37.119,0 c 6.03,0 10.937,4.906 10.937,10.937 v 10.937 h -21.874 v -10.937 c -0.001,-6.03 4.906,-10.937 10.937,-10.937 z m -37.121,0 c 6.03,0 10.937,4.906 10.937,10.937 v 10.937 h -21.874 v -10.937 c 0.001,-6.03 4.907,-10.937 10.937,-10.937 z m -48.057,10.937 c 0,-6.03 4.906,-10.937 10.937,-10.937 6.03,0 10.937,4.906 10.937,10.937 v 10.937 h -21.874 z m 10.938,48.057 c -4.651,0 -8.623,-2.924 -10.202,-7.027 V 436.51 h 21.138 v 10.937 c 0,6.031 -4.906,10.937 -10.936,10.937 z m 37.119,0 c -6.03,0 -10.937,-4.906 -10.937,-10.937 V 436.51 h 21.874 v 10.937 c 0,6.031 -4.906,10.937 -10.937,10.937 z m 37.121,0 c -6.03,0 -10.937,-4.906 -10.937,-10.937 V 436.51 h 21.874 v 10.937 c -0.001,6.031 -4.907,10.937 -10.937,10.937 z m 37.119,0 c -6.03,0 -10.937,-4.906 -10.937,-10.937 V 436.51 h 21.874 v 10.937 c 0,6.031 -4.906,10.937 -10.937,10.937 z m 37.121,0 c -6.03,0 -10.937,-4.906 -10.937,-10.937 V 436.51 h 21.874 v 10.937 c -10e-4,6.031 -4.907,10.937 -10.937,10.937 z m 37.119,0 c -6.03,0 -10.937,-4.906 -10.937,-10.937 V 436.51 h 21.874 v 10.937 c 0,6.031 -4.906,10.937 -10.937,10.937 z"
       id="path7918" />
    <path
       d="m 239.776,352.906 c 6.26,0 11.965,-2.425 16.224,-6.385 4.259,3.96 9.964,6.385 16.224,6.385 7.501,0 14.413,-3.421 18.962,-9.386 4.549,-5.965 6.02,-13.535 4.037,-20.768 L 281.214,271.661 C 278.06,260.158 267.927,252.43 256,252.43 c -11.927,0 -22.06,7.729 -25.214,19.231 l -14.009,51.091 c -1.984,7.235 -0.512,14.804 4.037,20.768 4.55,5.964 11.461,9.386 18.962,9.386 z m -8.294,-26.123 14.009,-51.091 c 1.621,-5.91 6.492,-8.016 10.511,-8.016 4.019,0 8.89,2.106 10.511,8.016 l 14.009,51.091 c 0.716,2.609 0.185,5.339 -1.457,7.491 -1.642,2.152 -4.134,3.386 -6.839,3.386 -4.743,0 -8.601,-3.858 -8.601,-8.601 v -10.243 c 0,-4.21 -3.413,-7.623 -7.623,-7.623 -4.21,0 -7.623,3.413 -7.623,7.623 v 10.243 c 0,4.743 -3.858,8.601 -8.601,8.601 -2.706,0 -5.199,-1.234 -6.839,-3.386 -1.642,-2.151 -2.173,-4.882 -1.457,-7.491 z"
       id="path7920" />
    <path
       d="m 376.527,318.177 c 16.605,0 30.115,-13.51 30.115,-30.115 0,-43.837 -35.664,-79.501 -79.501,-79.501 -16.606,0 -30.115,13.51 -30.115,30.115 v 36.211 c 0,23.871 19.42,43.29 43.291,43.29 z m -64.255,-43.291 v -36.211 c 0,-8.198 6.671,-14.869 14.869,-14.869 35.43,0 64.255,28.825 64.255,64.256 0,8.198 -6.671,14.869 -14.869,14.869 h -36.211 c -15.464,-10e-4 -28.044,-12.582 -28.044,-28.045 z"
       id="path7922" />
    <path
       d="m 135.475,318.177 h 36.211 c 23.871,0 43.291,-19.42 43.291,-43.29 v -36.212 c 0,-16.605 -13.51,-30.115 -30.115,-30.115 -43.837,0 -79.501,35.664 -79.501,79.502 -0.001,16.604 13.508,30.115 30.114,30.115 z m 49.386,-94.371 c 8.199,0 14.869,6.671 14.869,14.869 v 36.211 c 0,15.464 -12.58,28.044 -28.045,28.044 h -36.211 c -8.198,0 -14.869,-6.671 -14.869,-14.869 10e-4,-35.431 28.825,-64.255 64.256,-64.255 z"
       id="path7924" />
    <g
       id="g7926">
</g>
    <g
       id="g7928">
</g>
    <g
       id="g7930">
</g>
    <g
       id="g7932">
</g>
    <g
       id="g7934">
</g>
    <g
       id="g7936">
</g>
    <g
       id="g7938">
</g>
    <g
       id="g7940">
</g>
    <g
       id="g7942">
</g>
    <g
       id="g7944">
</g>
    <g
       id="g7946">
</g>
    <g
       id="g7948">
</g>
    <g
       id="g7950">
</g>
    <g
       id="g7952">
</g>
    <g
       id="g7954">
</g>
  </g>
  <text
     transform="matrix(3.1429546,0,0,3.1429546,-62.325624,-4.2042004)"
     style="font-style:normal;font-variant:normal;font-weight:bold;font-stretch:normal;font-size:10.5833px;line-height:1.25;font-family:sans-serif;-inkscape-font-specification:'sans-serif Bold';white-space:pre;shape-inside:url(#rect8007);fill:#000000;fill-opacity:1;stroke:none;"
     id="text8005"
     xml:space="preserve"><tspan
       x="36.783203"
       y="15.575387"><tspan
         style="font-style:normal;font-variant:normal;font-weight:bold;font-stretch:normal;font-family:sans-serif;-inkscape-font-specification:'sans-serif Bold'">P</tspan></tspan></text>
  <g
     transform="matrix(0.16345341,0,0,0.16345341,80.89766,9.1520461)"
     id="g8055">
    <circle
       cx="167.855"
       cy="123"
       fill="#eaeaea"
       r="86"
       id="circle8011" />
    <path
       d="m 150,233 c 46.548,0 88.161,-31.115 115.855,-80 H 34.144 c 27.695,48.885 69.308,80 115.856,80 z"
       fill="#ffded5"
       id="path8013" />
    <g
       fill="#4c241d"
       id="g8027" />
    <g
       id="g8033">
      <path
         d="M 231.028,184.635 C 207.62,200.06 179.823,201 150,201 103.452,201 61.839,187.22 34.145,153 61.84,118.78 103.452,117 150,117 c 46.548,0 88.161,1.78 115.855,36"
         fill="#ffffff"
         id="path8029" />
      <path
         d="m 150,205 c -52.367,0 -92.391,-16.648 -118.965,-49.484 -1.188,-1.467 -1.188,-3.564 0,-5.031 C 59.14,115.76 99.785,113 150,113 c 50.215,0 90.859,2.76 118.965,37.484 1.391,1.717 1.125,4.234 -0.594,5.625 -1.719,1.393 -4.238,1.125 -5.625,-0.594 C 236.867,123.541 198.054,121 150,121 103.23,121 65.215,123.406 39.359,153.012 64.343,182.203 101.547,197 150,197 c 30.086,0 56.785,-1.182 78.828,-15.705 1.844,-1.217 4.324,-0.699 5.539,1.139 1.215,1.846 0.707,4.326 -1.141,5.541 C 209.336,203.719 181.398,205 150,205 Z"
         fill="#4c241d"
         id="path8031" />
    </g>
    <g
       id="g8039">
      <path
         d="m 105.624,118.741 c -7.35,9.475 -11.769,21.339 -11.769,34.259 0,18.751 9.25,35.308 23.4,45.471 C 127.8,200.175 138.751,201 150,201 c 10.308,0 20.366,-0.129 30.093,-0.913 15.482,-9.963 25.762,-27.309 25.762,-47.087 0,-12.937 -4.429,-24.815 -11.797,-34.296 C 180.116,117.221 165.335,117 150,117 c -15.452,0 -30.34,0.227 -44.376,1.741 z"
         fill="#bf7e68"
         id="path8035" />
      <path
         d="m 150,205 c -11.547,0 -22.781,-0.869 -33.383,-2.58 -0.613,-0.1 -1.191,-0.338 -1.695,-0.701 C 99.226,190.447 89.855,172.234 89.855,153 c 0,-13.383 4.359,-26.078 12.609,-36.711 0.664,-0.859 1.652,-1.41 2.73,-1.525 C 118.765,113.301 132.922,113 150,113 c 16.957,0 31.012,0.293 44.48,1.725 1.082,0.115 2.07,0.666 2.738,1.525 8.266,10.641 12.637,23.35 12.637,36.75 0,20.471 -10.316,39.33 -27.598,50.451 -0.555,0.357 -1.188,0.57 -1.844,0.623 C 170.32,204.889 159.832,205 150,205 Z m -31.164,-10.328 c 9.906,1.545 20.382,2.328 31.164,2.328 9.332,0 19.25,-0.102 28.758,-0.82 14.484,-9.705 23.098,-25.771 23.098,-43.18 0,-11.047 -3.43,-21.555 -9.941,-30.496 C 179.304,121.262 165.976,121 150,121 c -16.094,0 -29.523,0.268 -42.227,1.539 -6.496,8.934 -9.918,19.428 -9.918,30.461 0,16.355 7.824,31.861 20.981,41.672 z"
         fill="#4c241d"
         id="path8037" />
    </g>
    <circle
       cx="149.855"
       cy="153"
       fill="#6b4f5b"
       r="20"
       id="circle8041" />
    <path
       d="m 101.855,157 h -8 c -2.211,0 -4,-1.791 -4,-4 0,-2.209 1.789,-4 4,-4 h 8 c 2.211,0 4,1.791 4,4 0,2.209 -1.789,4 -4,4 z"
       fill="#4c241d"
       id="path8043" />
    <path
       d="m 205.855,157 h -8 c -2.211,0 -4,-1.791 -4,-4 0,-2.209 1.789,-4 4,-4 h 8 c 2.211,0 4,1.791 4,4 0,2.209 -1.789,4 -4,4 z"
       fill="#4c241d"
       id="path8045" />
    <circle
       cx="133.855"
       cy="137"
       fill="#ffffff"
       r="8"
       id="circle8047" />
    <g
       id="g8053">
      <path
         d="m 167.569,241.143 c 0,-9.862 -17.857,-32.143 -17.857,-32.143 0,0 -17.857,22.281 -17.857,32.143 0,9.862 7.995,17.857 17.857,17.857 9.862,0 17.857,-7.995 17.857,-17.857 z"
         fill="#26deeb"
         id="path8049" />
      <path
         d="m 149.711,263 c -12.051,0 -21.855,-9.805 -21.855,-21.857 0,-10.723 15.605,-30.74 18.734,-34.645 1.516,-1.895 4.727,-1.895 6.242,0 3.129,3.904 18.738,23.922 18.738,34.645 0,12.052 -9.805,21.857 -21.859,21.857 z m 0,-47.445 c -6.297,8.469 -13.855,20.346 -13.855,25.588 0,7.641 6.215,13.857 13.855,13.857 7.64,0 13.859,-6.217 13.859,-13.857 0,-5.241 -7.563,-17.12 -13.859,-25.588 z"
         fill="#4c241d"
         id="path8051" />
    </g>
  </g>
</svg>
