<?xml version="1.0" encoding="UTF-8" standalone="no"?>
<svg
   xmlns:dc="http://purl.org/dc/elements/1.1/"
   xmlns:cc="http://creativecommons.org/ns#"
   xmlns:rdf="http://www.w3.org/1999/02/22-rdf-syntax-ns#"
   xmlns:svg="http://www.w3.org/2000/svg"
   xmlns="http://www.w3.org/2000/svg"
   id="svg8"
   version="1.1"
   viewBox="0 0 132.29166 66.145835"
   height="250"
   width="500">
  <defs
     id="defs2">
    <rect
       id="rect952"
       height="25.607887"
       width="32.127975"
       y="1.889881"
       x="33.261906" />
    <rect
       id="rect946"
       height="20.127232"
       width="21.45015"
       y="3.0238094"
       x="23.718006" />
    <rect
       x="33.261906"
       y="1.889881"
       width="32.127975"
       height="25.607887"
       id="rect4359" />
  </defs>
  <metadata
     id="metadata5">
    <rdf:RDF>
      <cc:Work
         rdf:about="">
        <dc:format>image/svg+xml</dc:format>
        <dc:type
           rdf:resource="http://purl.org/dc/dcmitype/StillImage" />
        <dc:title></dc:title>
      </cc:Work>
    </rdf:RDF>
  </metadata>
  <g
     transform="matrix(0.10020608,0,0,0.10020608,6.6071481,8.3520685)"
     id="g5102">
    <path
       style="fill:#ff6536"
       d="m 54.211,249.7 c 0,0 20.228,29.717 62.624,54.871 0,0 -30.705,-259.502 169.358,-304.571 -51.257,188.121 65.2,241.174 107.651,141.786 70.893,94.651 17.066,177.229 17.066,177.229 29.069,4.188 53.487,-27.57 53.487,-27.57 0.218,3.912 0.34,7.851 0.34,11.818 C 464.738,418.545 371.283,512 256,512 140.717,512 47.262,418.545 47.262,303.262 c 0,-18.518 2.424,-36.468 6.949,-53.562 z"
       id="path5038" />
    <path
       style="fill:#ff421d"
       d="m 464.398,291.445 c 0,0 -24.418,31.758 -53.487,27.57 0,0 53.827,-82.578 -17.066,-177.229 C 351.394,241.174 234.937,188.121 286.194,0 275.479,2.414 265.431,5.447 256,9.018 V 512 c 115.283,0 208.738,-93.455 208.738,-208.738 0,-3.967 -0.122,-7.905 -0.34,-11.817 z"
       id="path5040" />
    <path
       style="fill:#fbbf00"
       d="m 164.456,420.456 c 0,50.558 40.986,91.544 91.544,91.544 50.558,0 91.544,-40.986 91.544,-91.544 0,-27.061 -11.741,-51.379 -30.408,-68.138 -35.394,48.085 -85.832,-24.856 -46.524,-78.122 0,0 -106.156,13.303 -106.156,146.26 z"
       id="path5042" />
    <path
       style="fill:#ffa900"
       d="m 347.544,420.456 c 0,-27.061 -11.741,-51.379 -30.408,-68.138 -35.394,48.085 -85.832,-24.856 -46.524,-78.122 0,0 -5.768,0.725 -14.612,3.516 V 512 c 50.558,0 91.544,-40.986 91.544,-91.544 z"
       id="path5044" />
    <g
       id="g5046">
</g>
    <g
       id="g5048">
</g>
    <g
       id="g5050">
</g>
    <g
       id="g5052">
</g>
    <g
       id="g5054">
</g>
    <g
       id="g5056">
</g>
    <g
       id="g5058">
</g>
    <g
       id="g5060">
</g>
    <g
       id="g5062">
</g>
    <g
       id="g5064">
</g>
    <g
       id="g5066">
</g>
    <g
       id="g5068">
</g>
    <g
       id="g5070">
</g>
    <g
       id="g5072">
</g>
    <g
       id="g5074">
</g>
  </g>
  <g
     transform="matrix(0.10383851,0,0,0.10383851,68.811376,7.0980407)"
     id="g5133">
    <path
       d="m 130.357,56.357 h 395.52 v 312.879 h -395.52 z"
       fill="#91a8dd"
       transform="matrix(0.103,-0.995,0.995,0.103,82.716,517.299)"
       id="path5123" />
    <path
       d="M 307.063,453.981 61.001,487.31 7.96,95.364 318.009,53.368 362.397,381.376 Z"
       fill="#b5ceff"
       id="path5125" />
    <path
       d="M 362.397,512 H 114.09 V 116.478 h 312.877 v 331 z"
       fill="#e9f2ff"
       id="path5127" />
    <path
       d="m 375.458,116.478 v 382.471 l 51.509,-51.471 v -331 z"
       fill="#deebff"
       id="path5129" />
    <path
       d="m 362.397,512 v -64.522 h 64.57 z"
       fill="#91a8dd"
       id="path5131" />
  </g>
</svg>
