<?xml version="1.0" encoding="UTF-8" standalone="no"?>
<svg
   xmlns:dc="http://purl.org/dc/elements/1.1/"
   xmlns:cc="http://creativecommons.org/ns#"
   xmlns:rdf="http://www.w3.org/1999/02/22-rdf-syntax-ns#"
   xmlns:svg="http://www.w3.org/2000/svg"
   xmlns="http://www.w3.org/2000/svg"
   width="500"
   height="250"
   viewBox="0 0 132.29166 66.145835"
   version="1.1"
   id="svg8">
  <defs
     id="defs2">
    <rect
       x="33.261906"
       y="1.889881"
       width="32.127975"
       height="25.607887"
       id="rect952" />
    <rect
       x="23.718006"
       y="3.0238094"
       width="21.45015"
       height="20.127232"
       id="rect946" />
    <rect
       id="rect952-5"
       height="25.607887"
       width="32.127975"
       y="1.889881"
       x="33.261906" />
    <rect
       id="rect1246"
       height="25.607887"
       width="32.127975"
       y="1.889881"
       x="33.261906" />
    <rect
       id="rect2592"
       height="20.127232"
       width="21.45015"
       y="3.0238094"
       x="23.718006" />
    <rect
       x="23.718006"
       y="3.0238094"
       width="21.45015"
       height="20.127232"
       id="rect2600" />
    <rect
       id="rect2608"
       height="20.127232"
       width="21.45015"
       y="3.0238094"
       x="23.718006" />
  </defs>
  <metadata
     id="metadata5">
    <rdf:RDF>
      <cc:Work
         rdf:about="">
        <dc:format>image/svg+xml</dc:format>
        <dc:type
           rdf:resource="http://purl.org/dc/dcmitype/StillImage" />
        <dc:title></dc:title>
      </cc:Work>
    </rdf:RDF>
  </metadata>
  <g
     transform="matrix(0.62956775,0,0,0.62956775,6.7324626,64.386358)"
     id="g3047">
    <path
       style="fill:none;stroke:#000000;stroke-width:3.96875;stroke-linecap:round;stroke-linejoin:miter;stroke-miterlimit:4;stroke-dasharray:none;stroke-opacity:1"
       d="m 60.616729,-60.990905 v 18.708867"
       id="path3041" />
    <path
       id="path3043"
       d="M 69.971162,-51.636471 H 51.262295"
       style="fill:none;stroke:#000000;stroke-width:3.96875;stroke-linecap:round;stroke-linejoin:miter;stroke-miterlimit:4;stroke-dasharray:none;stroke-opacity:1" />
  </g>
  <g
     id="g3053"
     transform="matrix(0.62956775,0,0,0.62956775,58.597916,64.386358)">
    <path
       id="path3049"
       d="m 60.616729,-60.990905 v 18.708867"
       style="fill:none;stroke:#000000;stroke-width:3.96875;stroke-linecap:round;stroke-linejoin:miter;stroke-miterlimit:4;stroke-dasharray:none;stroke-opacity:1" />
    <path
       style="fill:none;stroke:#000000;stroke-width:3.96875;stroke-linecap:round;stroke-linejoin:miter;stroke-miterlimit:4;stroke-dasharray:none;stroke-opacity:1"
       d="M 69.971162,-51.636471 H 51.262295"
       id="path3051" />
  </g>
  <g
     transform="matrix(0.05579681,0,0,0.05579681,2.8471109,18.254644)"
     id="g3244">
    <g
       id="g3214">
      <path
         clip-rule="evenodd"
         d="m 427.187,49.522 c 92.277,92.279 95.314,240.014 9.14,335.944 -76.279,54.249 -172.844,80.014 -172.786,81.037 -65.528,2.453 -131.874,-21.347 -181.926,-71.4 -18.485,-18.456 -33.377,-39.16 -44.678,-61.208 -9.082,-17.726 -5.285,-21.347 10.513,-9.52 86.466,64.596 209.492,57.616 288.073,-20.938 78.552,-78.584 85.531,-201.613 20.908,-288.081 -11.797,-15.798 -8.176,-19.595 9.52,-10.513 22.077,11.33 42.781,26.223 61.236,44.679 z"
         fill="#fde588"
         fill-rule="evenodd"
         id="path3212" />
    </g>
    <g
       id="g3218">
      <path
         clip-rule="evenodd"
         d="m 193.574,147.613 c -29.932,0 -54.227,24.267 -54.227,54.229 0,2.92 0.234,5.782 0.672,8.556 -13.696,3.212 -23.916,15.506 -23.916,30.166 0,17.113 13.871,31.013 30.983,31.013 h 100.716 c 25.668,0 46.489,-20.821 46.489,-46.49 0,-25.669 -20.821,-46.49 -46.489,-46.49 -1.723,0 -3.417,0.088 -5.081,0.292 -8.644,-18.485 -27.391,-31.276 -49.147,-31.276 z"
         fill="#eff6ff"
         fill-rule="evenodd"
         id="path3216" />
    </g>
    <g
       id="g3222">
      <path
         clip-rule="evenodd"
         d="m 363.995,352.906 c 20.821,0 38.634,12.761 46.022,30.896 3.446,-0.964 7.038,-1.46 10.775,-1.46 5.519,0 10.775,1.11 15.535,3.125 12.586,5.315 21.872,16.879 23.974,30.808 26.427,0 47.861,21.435 47.861,47.863 0,26.428 -21.434,47.863 -47.861,47.863 H 312.045 c -25.814,0 -46.898,-20.091 -48.504,-45.497 -0.058,-1.022 -0.088,-2.044 -0.088,-3.066 0,-16.091 7.826,-30.37 19.886,-39.19 -0.876,-3.183 -1.343,-6.541 -1.343,-9.987 0,-20.442 16.557,-37.029 37.028,-37.029 0.73,0 1.46,0.029 2.19,0.058 8.644,-14.602 24.588,-24.384 42.781,-24.384 z"
         fill="#eff6ff"
         fill-rule="evenodd"
         id="path3220" />
    </g>
    <g
       id="g3226">
      <path
         clip-rule="evenodd"
         d="m 281.617,12.61 15.36,30.283 30.282,15.331 c 4.088,2.073 4.059,3.621 -0.029,5.694 l -30.253,15.332 -15.331,30.254 c -2.073,4.088 -3.621,4.118 -5.694,0.029 L 260.621,79.25 230.339,63.89 c -4.088,-2.073 -4.088,-3.592 0,-5.665 l 30.282,-15.331 15.331,-30.283 c 2.073,-4.089 3.592,-4.089 5.665,-0.001 z"
         fill="#fde588"
         fill-rule="evenodd"
         id="path3224" />
    </g>
    <g
       id="g3230">
      <path
         clip-rule="evenodd"
         d="m 58.196,73.848 15.36,30.283 30.282,15.36 c 4.088,2.073 4.059,3.592 -0.029,5.665 l -30.253,15.36 -15.36,30.254 c -2.073,4.088 -3.592,4.118 -5.665,0.029 L 37.171,140.516 6.889,125.156 c -4.088,-2.073 -4.059,-3.592 0.029,-5.665 l 30.253,-15.36 15.36,-30.254 c 2.073,-4.088 3.592,-4.118 5.665,-0.029 z"
         fill="#fde588"
         fill-rule="evenodd"
         id="path3228" />
    </g>
    <g
       id="g3234">
      <path
         clip-rule="evenodd"
         d="m 436.327,385.466 c 86.174,-95.93 83.137,-243.664 -9.14,-335.944 -18.455,-18.456 -39.159,-33.349 -61.236,-44.68 -17.696,-9.082 -21.317,-5.286 -9.52,10.513 10.454,13.988 33.553,28.94 43.598,44.504 69.646,107.727 81.034,199.189 1.811,310.509 3.387,3.972 6.161,8.527 8.176,13.433 3.446,-0.964 7.038,-1.46 10.775,-1.46 5.52,10e-4 10.776,1.11 15.536,3.125 z"
         fill="#fdd76f"
         fill-rule="evenodd"
         id="path3232" />
    </g>
    <g
       id="g3238">
      <path
         clip-rule="evenodd"
         d="m 508.163,464.137 c 0,-26.428 -21.434,-47.863 -47.861,-47.863 -2.103,-13.93 -11.389,-25.494 -23.974,-30.808 -4.76,-2.015 -10.016,-3.125 -15.535,-3.125 -3.738,0 -7.33,0.496 -10.775,1.46 -2.015,-4.906 -4.789,-9.462 -8.176,-13.433 -9.111,-10.688 -22.69,-17.463 -37.845,-17.463 -15.594,0 -29.494,7.155 -38.604,18.397 41.933,11.36 72.537,46.928 72.537,89.067 0,19.098 -6.278,36.883 -17.083,51.63 h 79.457 c 26.425,10e-4 47.859,-21.434 47.859,-47.862 z"
         fill="#d9eeff"
         fill-rule="evenodd"
         id="path3236" />
    </g>
    <g
       id="g3242">
      <path
         clip-rule="evenodd"
         d="m 247.802,271.577 c 25.668,0 46.489,-20.821 46.489,-46.49 0,-25.669 -20.821,-46.49 -46.489,-46.49 -1.723,0 -3.417,0.088 -5.081,0.292 -8.644,-18.485 -27.391,-31.276 -49.146,-31.276 -5.811,0 -11.418,0.905 -16.674,2.628 21.288,13.024 35.655,37.759 35.655,66.114 0,21.756 -8.468,41.351 -21.989,55.222 z"
         fill="#d9eeff"
         fill-rule="evenodd"
         id="path3240" />
    </g>
  </g>
  <path
     style="stroke-width:0.0588075"
     d="M 85.076192,26.675843 C 84.879095,26.066172 84.33834,25.633154 83.698575,25.575495 l -8.690219,-0.78908 -3.436346,-8.043104 c -0.253377,-0.589454 -0.830428,-0.971017 -1.471569,-0.971017 -0.641142,0 -1.218193,0.381563 -1.471571,0.972396 l -3.436348,8.041725 -8.691596,0.78908 c -0.638616,0.05903 -1.177992,0.490677 -1.376238,1.100348 -0.198247,0.609671 -0.01516,1.278379 0.467933,1.69991 l 6.568777,5.76086 -1.936979,8.532402 c -0.141736,0.627359 0.101765,1.275851 0.622306,1.652129 0.279795,0.202153 0.607142,0.305066 0.937247,0.305066 0.28462,0 0.566944,-0.07673 0.820321,-0.22834 l 7.496148,-4.480183 7.493389,4.480183 c 0.548336,0.329875 1.239555,0.299782 1.758948,-0.07673 0.52077,-0.377425 0.764041,-1.026148 0.622305,-1.65213 l -1.936978,-8.532402 6.568774,-5.759711 c 0.483096,-0.422679 0.667559,-1.090239 0.469313,-1.701058 z m 0,0"
     fill="#ffc107"
     id="path3280" />
  <g
     transform="matrix(0.05809721,0,0,0.05809721,102.89745,18.284413)"
     id="g3308">
    <path
       d="M 376.001,151 H 312.5 L 388.862,22.72 c 2.783,-4.644 2.856,-10.415 0.19,-15.117 C 386.386,2.901 381.406,0 376.001,0 h -120 -60 c -6.885,0 -12.876,4.688 -14.546,11.367 l -60,241 c -1.128,4.482 -0.117,9.229 2.725,12.861 2.842,3.647 7.207,5.771 11.821,5.771 h 68.35 l -82.397,220.727 c -2.637,7.031 0.337,14.927 6.943,18.486 6.636,3.556 14.846,1.653 19.233,-4.395 L 256.001,356.494 388.13,174.818 c 3.325,-4.556 3.794,-10.591 1.245,-15.63 C 386.812,154.164 381.641,151 376.001,151 Z"
       fill="#fed843"
       id="path3304" />
    <path
       d="M 389.375,159.188 C 386.812,154.164 381.641,151 376.001,151 H 312.5 L 388.862,22.72 c 2.783,-4.644 2.856,-10.415 0.19,-15.117 C 386.386,2.901 381.406,0 376.001,0 h -120 V 356.496 L 388.13,174.818 c 3.325,-4.555 3.794,-10.59 1.245,-15.63 z"
       fill="#fabe2c"
       id="path3306" />
  </g>
</svg>
