<?xml version="1.0" encoding="UTF-8" standalone="no"?>
<svg
   xmlns:dc="http://purl.org/dc/elements/1.1/"
   xmlns:cc="http://creativecommons.org/ns#"
   xmlns:rdf="http://www.w3.org/1999/02/22-rdf-syntax-ns#"
   xmlns:svg="http://www.w3.org/2000/svg"
   xmlns="http://www.w3.org/2000/svg"
   id="svg8"
   version="1.1"
   viewBox="0 0 132.29166 66.145835"
   height="250"
   width="500">
  <defs
     id="defs2">
    <rect
       id="rect952"
       height="25.607887"
       width="32.127975"
       y="1.889881"
       x="33.261906" />
    <rect
       id="rect946"
       height="20.127232"
       width="21.45015"
       y="3.0238094"
       x="23.718006" />
    <rect
       x="33.261906"
       y="1.889881"
       width="32.127975"
       height="25.607887"
       id="rect4359" />
  </defs>
  <metadata
     id="metadata5">
    <rdf:RDF>
      <cc:Work
         rdf:about="">
        <dc:format>image/svg+xml</dc:format>
        <dc:type
           rdf:resource="http://purl.org/dc/dcmitype/StillImage" />
        <dc:title></dc:title>
      </cc:Work>
    </rdf:RDF>
  </metadata>
  <text
     xml:space="preserve"
     id="text950"
     style="font-style:normal;font-variant:normal;font-weight:bold;font-stretch:normal;font-size:10.5833px;line-height:1.25;font-family:sans-serif;-inkscape-font-specification:'sans-serif Bold';white-space:pre;shape-inside:url(#rect952);fill:#000000;fill-opacity:1;stroke:none;"
     transform="matrix(2.1948822,0,0,2.1948822,-67.390361,17.280922)"><tspan
       x="33.261719"
       y="11.54609"><tspan>AR</tspan></tspan></text>
  <g
     transform="matrix(0.11060292,0,0,0.11060292,46.614942,0.63457989)"
     id="flat">
    <path
       d="m 336,488 h 144 l -3.554,-24.879 a 60,60 0 0 0 -32.564,-45.18 L 296,344 H 216 L 68.118,417.941 a 60,60 0 0 0 -32.564,45.18 L 32,488 h 144"
       fill="#48351b"
       id="path4279" />
    <path
       d="m 424,488 v -32 a 8,8 0 0 1 16,0 v 32 z"
       fill="#332613"
       id="path4281" />
    <path
       d="m 216,344 -64,32 24,48 40,-32 z"
       fill="#5f4623"
       id="path4283" />
    <path
       d="m 208,488 h -32 l -24,-72 56,-24 z"
       fill="#6e5129"
       id="path4285" />
    <path
       d="m 296,344 64,32 -24,48 -40,-32 z"
       fill="#5f4623"
       id="path4287" />
    <path
       d="m 304,488 h 32 l 24,-72 -56,-24 z"
       fill="#6e5129"
       id="path4289" />
    <path
       d="m 296,312 v 19.64 c -0.08,0.06 -0.17,0.11 -0.25,0.17 A 70.9,70.9 0 0 1 216,331.64 V 312 Z"
       fill="#e6af89"
       id="path4291" />
    <path
       d="m 216,312 v 32 l -8,24 48,48 48,-48 -8,-24 v -32 z"
       fill="#fdc9a6"
       id="path4293" />
    <path
       d="m 296,312 v 19.64 c -0.08,0.06 -0.17,0.11 -0.25,0.17 A 70.9,70.9 0 0 1 216,331.64 V 312 Z"
       fill="#e6af89"
       id="path4295" />
    <path
       d="m 304,368 -48,48 -48,-48 v 120 h 96 z"
       fill="#026ca2"
       id="path4297" />
    <path
       d="m 72,488 v -32 a 8,8 0 0 1 16,0 v 32 z"
       fill="#332613"
       id="path4299" />
    <path
       d="m 152,200 v -72.022 a 57.888,57.888 0 0 1 16.955,-40.933 l 14.09,-14.09 A 57.888,57.888 0 0 1 223.978,56 h 44.245 A 57.889,57.889 0 0 1 320,88 44.846,44.846 0 0 1 357.313,107.969 16,16 0 0 1 360,116.844 V 200 Z"
       fill="#55300b"
       id="path4301" />
    <path
       d="M 256,328 A 70.9,70.9 0 0 1 190.173,283.433 198.156,198.156 0 0 1 176,209.837 V 152 l 24,-40.73 H 312 L 336,152 v 57.837 a 198.156,198.156 0 0 1 -14.173,73.6 A 70.9,70.9 0 0 1 256,328 Z"
       fill="#fdc9a6"
       id="path4303" />
    <g
       fill="#55300b"
       id="g4313">
      <path
         d="m 304,184 h -24 a 8,8 0 0 1 0,-16 h 24 a 8,8 0 0 1 0,16 z"
         id="path4305" />
      <circle
         cx="290"
         cy="202"
         r="10"
         id="circle4307" />
      <path
         d="m 232,184 h -24 a 8,8 0 0 1 0,-16 h 24 a 8,8 0 0 1 0,16 z"
         id="path4309" />
      <circle
         cx="222"
         cy="202"
         r="10"
         id="circle4311" />
    </g>
    <path
       d="m 272,280 h -32 a 8,8 0 0 1 0,-16 h 32 a 8,8 0 0 1 0,16 z"
       fill="#e6af89"
       id="path4315" />
    <path
       d="m 264,248 h -16 a 8,8 0 0 1 -8,-8 v -24 a 8,8 0 0 1 16,0 v 16 h 8 a 8,8 0 0 1 0,16 z"
       fill="#e6af89"
       id="path4317" />
    <path
       d="M 176,176 H 164.944 A 20.944,20.944 0 0 0 144,196.944 v 14.112 a 20.944,20.944 0 0 0 2.211,9.366 A 20.944,20.944 0 0 0 164.944,232 H 184 Z"
       fill="#fdc9a6"
       id="path4319" />
    <path
       d="m 336,176 h 11.056 A 20.944,20.944 0 0 1 368,196.944 v 14.112 a 20.944,20.944 0 0 1 -2.211,9.366 A 20.944,20.944 0 0 1 347.056,232 H 328 Z"
       fill="#fdc9a6"
       id="path4321" />
  </g>
  <text
     transform="matrix(2.1948822,0,0,2.1948822,35.752293,17.280922)"
     style="font-style:normal;font-variant:normal;font-weight:bold;font-stretch:normal;font-size:10.5833px;line-height:1.25;font-family:sans-serif;-inkscape-font-specification:'sans-serif Bold';white-space:pre;shape-inside:url(#rect4359);fill:#000000;fill-opacity:1;stroke:none;"
     id="text4357"
     xml:space="preserve"><tspan
       x="33.261719"
       y="11.54609"><tspan>I</tspan></tspan></text>
</svg>
