<?xml version="1.0" encoding="UTF-8" standalone="no"?>
<svg
   xmlns:dc="http://purl.org/dc/elements/1.1/"
   xmlns:cc="http://creativecommons.org/ns#"
   xmlns:rdf="http://www.w3.org/1999/02/22-rdf-syntax-ns#"
   xmlns:svg="http://www.w3.org/2000/svg"
   xmlns="http://www.w3.org/2000/svg"
   id="svg8"
   version="1.1"
   viewBox="0 0 132.29166 66.145835"
   height="250"
   width="500">
  <defs
     id="defs2">
    <rect
       id="rect7100"
       height="24.522356"
       width="32.132743"
       y="18.180368"
       x="5.7077898" />
    <rect
       id="rect5371"
       height="48.621913"
       width="49.044713"
       y="3.382394"
       x="65.956682" />
    <rect
       id="rect952"
       height="25.607887"
       width="32.127975"
       y="1.889881"
       x="33.261906" />
    <rect
       id="rect946"
       height="20.127232"
       width="21.45015"
       y="3.0238094"
       x="23.718006" />
    <rect
       x="33.261906"
       y="1.889881"
       width="32.127975"
       height="25.607887"
       id="rect4359" />
    <rect
       x="5.7077898"
       y="18.180368"
       width="32.132743"
       height="24.522356"
       id="rect7340" />
  </defs>
  <metadata
     id="metadata5">
    <rdf:RDF>
      <cc:Work
         rdf:about="">
        <dc:format>image/svg+xml</dc:format>
        <dc:type
           rdf:resource="http://purl.org/dc/dcmitype/StillImage" />
        <dc:title></dc:title>
      </cc:Work>
    </rdf:RDF>
  </metadata>
  <g
     transform="matrix(1.0156285,0,0,1.0156285,5.323263,1.7569398)"
     id="g7391">
    <path
       d="m 62,37 -2.4,1.8 A 6,6 0 0 1 56,40 6,6 0 0 1 52.4,38.8 L 51.6,38.2 A 6,6 0 0 0 48,37 6,6 0 0 0 44.4,38.2 l -0.8,0.6 A 6,6 0 0 1 40,40 6,6 0 0 1 36.4,38.8 L 35.6,38.2 A 6,6 0 0 0 32,37 6,6 0 0 0 28.4,38.2 l -0.8,0.6 A 6,6 0 0 1 24,40 6,6 0 0 1 20.4,38.8 L 19.6,38.2 A 6,6 0 0 0 16,37 6,6 0 0 0 12.4,38.2 l -0.8,0.6 A 6,6 0 0 1 8,40 6,6 0 0 1 4.4,38.8 L 2,37 v 12 l 2.4,1.8 A 6,6 0 0 0 8,52 6,6 0 0 0 11.6,50.8 l 0.8,-0.6 A 6,6 0 0 1 16,49 a 6,6 0 0 1 3.6,1.2 l 0.8,0.6 A 6,6 0 0 0 24,52 6,6 0 0 0 27.6,50.8 l 0.8,-0.6 A 6,6 0 0 1 32,49 a 6,6 0 0 1 3.6,1.2 l 0.8,0.6 A 6,6 0 0 0 40,52 6,6 0 0 0 43.6,50.8 l 0.8,-0.6 A 6,6 0 0 1 48,49 a 6,6 0 0 1 3.6,1.2 l 0.8,0.6 A 6,6 0 0 0 56,52 6,6 0 0 0 59.6,50.8 L 62,49 Z"
       fill="#c0dafc"
       id="path7363" />
    <path
       d="m 56,40 a 6,6 0 0 1 -3.6,-1.2 l -0.8,-0.6 a 6,6 0 0 0 -7.2,0 l -0.8,0.6 a 6,6 0 0 1 -7.2,0 l -0.8,-0.6 a 6,6 0 0 0 -7.2,0 l -0.8,0.6 a 6,6 0 0 1 -7.2,0 l -0.8,-0.6 a 6,6 0 0 0 -7.2,0 l -0.8,0.6 a 6,6 0 0 1 -7.2,0 L 2,37 v 9 l 2.4,1.8 a 6,6 0 0 0 7.2,0 l 0.8,-0.6 a 6,6 0 0 1 7.2,0 l 0.8,0.6 a 6,6 0 0 0 7.2,0 l 0.8,-0.6 a 6,6 0 0 1 7.2,0 l 0.8,0.6 a 6,6 0 0 0 7.2,0 l 0.8,-0.6 a 6,6 0 0 1 7.2,0 l 0.8,0.6 a 6,6 0 0 0 7.2,0 L 62,46 v -9 l -2.4,1.8 A 6,6 0 0 1 56,40 Z"
       fill="#d4e9ff"
       id="path7365" />
    <path
       d="M 51.158,37.9 A 23.755,23.755 0 0 0 62,17.96 V 17 A 74.608,74.608 0 0 1 30.447,24 130.706,130.706 0 0 1 7.727,22.01 L 2,21 2.5,23.011 A 23.726,23.726 0 0 0 13.342,37.621 6,6 0 0 1 16,37 a 6,6 0 0 1 3.6,1.2 l 0.8,0.6 A 6,6 0 0 0 24,40 6,6 0 0 0 27.6,38.8 l 0.8,-0.6 A 6,6 0 0 1 32,37 a 6,6 0 0 1 3.6,1.2 l 0.8,0.6 A 6,6 0 0 0 40,40 6,6 0 0 0 43.6,38.8 l 0.8,-0.6 A 6,6 0 0 1 48,37 a 6,6 0 0 1 3.158,0.9 z"
       fill="#976947"
       id="path7367" />
    <path
       d="M 21.53,39.47 25,36 v -2 l -2,-2 h -2 l -5,5 a 6,6 0 0 1 3.6,1.2 l 0.8,0.6 a 6,6 0 0 0 1.131,0.668 z"
       fill="#674025"
       id="path7369" />
    <path
       d="M 61.792,21.1 A 74.621,74.621 0 0 1 30.447,28 130.706,130.706 0 0 1 7.727,26.01 L 3.166,25.21 Q 2.785,24.135 2.504,23.016 L 2,21 7.727,22.01 A 130.706,130.706 0 0 0 30.447,24 74.608,74.608 0 0 0 62,17 v 0.96 a 23.68,23.68 0 0 1 -0.208,3.137 z"
       fill="#c18e59"
       id="path7371" />
    <path
       d="M 40,47 A 7.04,7.04 0 0 1 35.8,45.6 L 35,45 a 5.138,5.138 0 0 0 -6,0 l -0.8,0.6 a 7.189,7.189 0 0 1 -8.4,0 L 19,45 a 5.028,5.028 0 0 0 -3,-1 v -2 a 7.04,7.04 0 0 1 4.2,1.4 L 21,44 a 5.138,5.138 0 0 0 6,0 l 0.8,-0.6 a 7.189,7.189 0 0 1 8.4,0 L 37,44 a 5.138,5.138 0 0 0 6,0 l 0.8,-0.6 A 7.04,7.04 0 0 1 48,42 v 2 a 5.028,5.028 0 0 0 -3,1 l -0.8,0.6 A 7.04,7.04 0 0 1 40,47 Z"
       fill="#c0dafc"
       id="path7373" />
    <path
       d="M 23,32 42.586,12.414 a 1.415,1.415 0 0 1 1,-0.414 1.414,1.414 0 0 1 1.414,1.414 1.415,1.415 0 0 1 -0.414,1 L 25,34"
       fill="#cccccc"
       id="path7375" />
  </g>
  <g
     transform="matrix(0.12502777,0,0,0.12502777,70.784973,1.5025305)"
     id="g7502">
    <g
       id="g7429">
	<polygon
   style="fill:#805333"
   points="238.345,361.931 247.172,366.345 247.172,377.468 205.33,398.389 205.241,398.389 185.379,388.414 "
   id="polygon7393" />

	<polygon
   style="fill:#af8066"
   points="256,0 273.655,8.828 273.655,185.379 256,194.207 238.345,185.379 238.345,8.828 "
   id="polygon7395" />

	<polygon
   style="fill:#805333"
   points="238.345,97.103 132.414,150.069 132.414,88.276 238.345,35.31 "
   id="polygon7397" />

	<polygon
   style="fill:#cbb292"
   points="238.345,185.379 256,194.207 273.655,185.379 414.897,256 256,335.448 123.586,269.241 132.414,264.828 132.414,238.345 "
   id="polygon7399" />

	<polygon
   style="fill:#805333"
   points="414.897,282.483 256,361.931 256,335.448 414.897,256 "
   id="polygon7401" />

	<g
   id="g7407">
		<polygon
   style="fill:#af8066"
   points="414.897,282.483 414.897,432.552 397.241,441.379 379.586,432.552 379.586,300.138 "
   id="polygon7403" />

		<polygon
   style="fill:#af8066"
   points="123.586,269.241 256,335.448 256,361.931 249.379,358.665 238.345,353.103 123.586,295.724 "
   id="polygon7405" />

	</g>

	<g
   id="g7413">
		<polygon
   style="fill:#cb8252"
   points="249.379,358.665 256,361.931 273.655,353.103 273.655,503.172 256,512 238.345,503.172 238.345,353.103 "
   id="polygon7409" />

		<polygon
   style="fill:#cb8252"
   points="132.414,353.103 114.759,361.931 114.759,388.414 132.414,397.241 132.414,432.552 114.759,441.379 97.103,432.552 97.103,79.448 114.759,70.621 132.414,79.448 132.414,264.828 123.586,269.241 123.586,295.724 132.414,300.138 "
   id="polygon7411" />

	</g>

	<g
   id="g7419">
		<polygon
   style="fill:#af8066"
   points="163.84,386.472 189.352,399.272 238.345,423.724 238.345,450.207 114.759,388.414 114.759,361.931 132.414,370.759 "
   id="polygon7415" />

		<polygon
   style="fill:#af8066"
   points="379.586,379.586 300.138,339.862 326.621,326.621 379.586,353.103 "
   id="polygon7417" />

	</g>

	<g
   id="g7427">
		<polygon
   style="fill:#cbb292"
   points="379.586,353.103 326.621,326.621 344.276,317.793 379.586,335.448 "
   id="polygon7421" />

		<polygon
   style="fill:#cbb292"
   points="114.759,361.931 132.414,353.103 176.552,375.172 196.414,385.148 196.502,385.148 238.345,406.069 238.345,423.724 189.352,399.272 163.84,386.472 132.414,370.759 "
   id="polygon7423" />

		<polygon
   style="fill:#cbb292"
   points="229.517,348.69 238.345,353.103 238.345,364.226 196.502,385.148 196.414,385.148 176.552,375.172 "
   id="polygon7425" />

	</g>

</g>
    <g
       id="g7431">
</g>
    <g
       id="g7433">
</g>
    <g
       id="g7435">
</g>
    <g
       id="g7437">
</g>
    <g
       id="g7439">
</g>
    <g
       id="g7441">
</g>
    <g
       id="g7443">
</g>
    <g
       id="g7445">
</g>
    <g
       id="g7447">
</g>
    <g
       id="g7449">
</g>
    <g
       id="g7451">
</g>
    <g
       id="g7453">
</g>
    <g
       id="g7455">
</g>
    <g
       id="g7457">
</g>
    <g
       id="g7459">
</g>
  </g>
</svg>
