<?xml version="1.0" encoding="UTF-8" standalone="no"?>
<svg
   xmlns:dc="http://purl.org/dc/elements/1.1/"
   xmlns:cc="http://creativecommons.org/ns#"
   xmlns:rdf="http://www.w3.org/1999/02/22-rdf-syntax-ns#"
   xmlns:svg="http://www.w3.org/2000/svg"
   xmlns="http://www.w3.org/2000/svg"
   width="500"
   height="250"
   viewBox="0 0 132.29166 66.145835"
   version="1.1"
   id="svg8">
  <defs
     id="defs2">
    <rect
       id="rect3761"
       height="23.543432"
       width="17.564148"
       y="11.211158"
       x="2.9896421" />
    <rect
       id="rect2909"
       height="20.927495"
       width="20.180084"
       y="7.1004001"
       x="9.3426317" />
    <rect
       id="rect1838"
       height="36.466435"
       width="36.466435"
       y="11.09848"
       x="7.1347373" />
    <rect
       x="36.783534"
       y="5.9191895"
       width="39.32033"
       height="36.783534"
       id="rect8007" />
    <rect
       x="5.7077898"
       y="18.180368"
       width="32.132743"
       height="24.522356"
       id="rect7100" />
    <rect
       x="65.956682"
       y="3.382394"
       width="49.044713"
       height="48.621913"
       id="rect5371" />
    <rect
       x="33.261906"
       y="1.889881"
       width="32.127975"
       height="25.607887"
       id="rect952" />
    <rect
       x="23.718006"
       y="3.0238094"
       width="21.45015"
       height="20.127232"
       id="rect946" />
    <rect
       id="rect4359"
       height="25.607887"
       width="32.127975"
       y="1.889881"
       x="33.261906" />
    <rect
       id="rect7340"
       height="24.522356"
       width="32.132743"
       y="18.180368"
       x="5.7077898" />
  </defs>
  <metadata
     id="metadata5">
    <rdf:RDF>
      <cc:Work
         rdf:about="">
        <dc:format>image/svg+xml</dc:format>
        <dc:type
           rdf:resource="http://purl.org/dc/dcmitype/StillImage" />
        <dc:title></dc:title>
      </cc:Work>
    </rdf:RDF>
  </metadata>
  <g
     transform="matrix(0.11389573,0,0,0.11389573,69.790207,5.0367265)"
     id="g3729">
    <path
       style="fill:#00c1fd"
       d="M 500.614,226.064 C 509.296,215.243 512,204.802 512,196 512,175.945 497.971,147.381 431.138,125.195 384.136,109.593 321.937,101 256,101 190.063,101 127.864,109.593 80.862,125.195 14.029,147.38 0,175.944 0,196 0,204.801 2.703,215.24 11.383,226.06 5.029,234.027 0,244.091 0,256 0,264.801 2.703,275.24 11.383,286.059 5.029,294.027 0,304.091 0,316 0,336.056 14.029,364.62 80.862,386.805 127.864,402.407 190.063,411 256,411 321.937,411 384.136,402.407 431.138,386.805 497.971,364.62 512,336.056 512,316 512,304.153 507.035,294.108 500.614,286.064 509.296,275.243 512,264.802 512,256 c 0,-11.847 -4.965,-21.892 -11.386,-29.936 z"
       id="path3662" />
    <path
       style="fill:#08a8ee"
       d="M 500.614,226.064 C 509.296,215.243 512,204.802 512,196 512,175.945 497.971,147.381 431.138,125.195 384.136,109.593 321.937,101 256,101 v 310 c 65.937,0 128.136,-8.593 175.138,-24.195 C 497.971,364.62 512,336.056 512,316 512,304.153 507.035,294.108 500.614,286.064 509.296,275.243 512,264.802 512,256 c 0,-11.847 -4.965,-21.892 -11.386,-29.936 z"
       id="path3664" />
    <path
       style="fill:#e4f7ff"
       d="M 256,241 C 206.858,241 160.501,236.712 125.467,228.927 107.641,224.966 93.409,220.229 83.169,214.848 68.458,207.12 61,197.414 61,186 c 0,-11.414 7.458,-21.12 22.169,-28.849 10.24,-5.38 24.472,-10.117 42.298,-14.078 C 160.501,135.287 206.858,131 256,131 c 49.142,0 95.499,4.288 130.533,12.073 17.826,3.961 32.058,8.698 42.298,14.078 C 443.542,164.88 451,174.586 451,186 c 0,11.414 -7.458,21.12 -22.169,28.849 -10.24,5.38 -24.472,10.117 -42.298,14.079 C 351.499,236.712 305.142,241 256,241 Z"
       id="path3666" />
    <path
       style="fill:#cbedfd"
       d="m 428.831,157.151 c -10.24,-5.38 -24.472,-10.117 -42.298,-14.078 C 351.499,135.287 305.142,131 256,131 v 110 c 49.142,0 95.499,-4.288 130.533,-12.073 17.826,-3.961 32.058,-8.698 42.298,-14.079 C 443.542,207.12 451,197.414 451,186 c 0,-11.414 -7.458,-21.12 -22.169,-28.849 z"
       id="path3668" />
    <path
       style="fill:#0e61c4"
       d="m 186,211 v 25 h -30 v -25 h -30 v 200 h 30 v -25 h 30 v 25 h 30 V 211 Z m 0,55 v 30 h -30 v -30 z m -30,90 v -30 h 30 v 30 z"
       id="path3670" />
    <g
       id="g3672">
</g>
    <g
       id="g3674">
</g>
    <g
       id="g3676">
</g>
    <g
       id="g3678">
</g>
    <g
       id="g3680">
</g>
    <g
       id="g3682">
</g>
    <g
       id="g3684">
</g>
    <g
       id="g3686">
</g>
    <g
       id="g3688">
</g>
    <g
       id="g3690">
</g>
    <g
       id="g3692">
</g>
    <g
       id="g3694">
</g>
    <g
       id="g3696">
</g>
    <g
       id="g3698">
</g>
    <g
       id="g3700">
</g>
  </g>
  <g
     transform="matrix(0.06766326,0,0,0.06766326,30.17166,15.907154)"
     id="filled_outline"
     data-name="filled outline">
    <circle
       cx="255.51401"
       cy="256.457"
       fill="#eaeae8"
       r="225.423"
       id="circle3731" />
    <path
       d="M 304.433,333.283 347.825,224.8 a 52.693,52.693 0 0 1 -37,-34.338 L 206.378,220.79 a 347.533,347.533 0 0 0 -127.6,68.454 L 39.84,322.193 A 225.847,225.847 0 0 0 199.689,474.907 347.545,347.545 0 0 0 304.433,333.283 Z"
       fill="#d32b39"
       id="path3733" />
    <path
       d="m 456.867,155.023 a 199.471,199.471 0 0 0 -52.67,-10.814 52.578,52.578 0 0 1 -9.291,69.542 439.94,439.94 0 0 1 55.912,155.34 225.711,225.711 0 0 0 6.049,-214.068 z"
       fill="#43dcfe"
       id="path3735" />
    <path
       d="m 356.136,121.413 -1.071,-4.639 A 522.008,522.008 0 0 0 332.793,44.631 225.753,225.753 0 0 0 117.337,78.35 a 521.968,521.968 0 0 1 200.812,64.562 52.532,52.532 0 0 1 37.987,-21.499 z"
       fill="#fbb540"
       id="path3737" />
    <circle
       cx="360.71201"
       cy="173.80099"
       fill="#fbfdff"
       r="52.598999"
       id="circle3739" />
    <path
       d="M 420.569,91.4 A 233.42337,233.42337 0 1 0 90.459,421.511 233.42337,233.42337 0 1 0 420.569,91.4 Z M 454.41,344.57 A 445.523,445.523 0 0 0 404.965,215.135 60.433,60.433 0 0 0 417.87,153.7 a 191.483,191.483 0 0 1 33.386,7.885 218.584,218.584 0 0 1 3.154,182.985 z M 316.113,173.8 a 44.6,44.6 0 1 1 44.6,44.6 44.649,44.649 0 0 1 -44.6,-44.6 z m 124.19,-32.04 A 207.444,207.444 0 0 0 408.426,136.51 60.511,60.511 0 0 0 362.445,113.246 530.672,530.672 0 0 0 346.6,58.922 219.419,219.419 0 0 1 440.3,141.761 Z M 326.608,50.883 a 515.9,515.9 0 0 1 19.786,64.044 60.618,60.618 0 0 0 -30.152,17.765 A 526.308,526.308 0 0 0 138.685,73.009 218.348,218.348 0 0 1 326.608,50.883 Z m -224.836,51.832 a 221.264,221.264 0 0 1 17.91,-16.045 510.779,510.779 0 0 1 187.283,59.193 60.271,60.271 0 0 0 -5.808,39.08 l -97.01,28.164 A 353.313,353.313 0 0 0 73.611,283.137 L 44.218,308.008 A 218.961,218.961 0 0 1 38.091,256.457 216,216 0 0 1 101.772,102.715 Z M 49.029,324.9 83.947,295.353 a 337.4,337.4 0 0 1 124.661,-66.879 l 97.543,-28.319 a 60.971,60.971 0 0 0 31.109,29.522 L 297.005,330.312 A 340.264,340.264 0 0 1 197.747,466.159 218.273,218.273 0 0 1 49.029,324.9 Z m 360.227,85.3 a 216,216 0 0 1 -153.742,63.681 219.927,219.927 0 0 1 -38.258,-3.342 356.327,356.327 0 0 0 94.6,-134.283 L 352.81,233.87 a 60.146,60.146 0 0 0 39.594,-8.445 429.845,429.845 0 0 1 50.061,142.2 218.862,218.862 0 0 1 -33.209,42.575 z"
       id="path3741" />
  </g>
  <text
     transform="matrix(2.9011897,0,0,2.9011897,-4.7891157,-15.365433)"
     style="font-style:normal;font-variant:normal;font-weight:bold;font-stretch:normal;font-size:10.5833px;line-height:1.25;font-family:sans-serif;-inkscape-font-specification:'sans-serif Bold';white-space:pre;shape-inside:url(#rect3761);fill:#000000;fill-opacity:1;stroke:none;"
     id="text3759"
     xml:space="preserve"><tspan
       x="2.9902344"
       y="20.866403"><tspan
         style="font-style:normal;font-variant:normal;font-weight:bold;font-stretch:normal;font-family:sans-serif;-inkscape-font-specification:'sans-serif Bold'">8</tspan></tspan></text>
</svg>
