<?xml version="1.0" encoding="UTF-8" standalone="no"?>
<svg
   xmlns:dc="http://purl.org/dc/elements/1.1/"
   xmlns:cc="http://creativecommons.org/ns#"
   xmlns:rdf="http://www.w3.org/1999/02/22-rdf-syntax-ns#"
   xmlns:svg="http://www.w3.org/2000/svg"
   xmlns="http://www.w3.org/2000/svg"
   width="500"
   height="250"
   viewBox="0 0 132.29166 66.145835"
   version="1.1"
   id="svg8">
  <defs
     id="defs2">
    <rect
       id="rect1838"
       height="36.466435"
       width="36.466435"
       y="11.09848"
       x="7.1347373" />
    <rect
       x="36.783534"
       y="5.9191895"
       width="39.32033"
       height="36.783534"
       id="rect8007" />
    <rect
       x="5.7077898"
       y="18.180368"
       width="32.132743"
       height="24.522356"
       id="rect7100" />
    <rect
       x="65.956682"
       y="3.382394"
       width="49.044713"
       height="48.621913"
       id="rect5371" />
    <rect
       x="33.261906"
       y="1.889881"
       width="32.127975"
       height="25.607887"
       id="rect952" />
    <rect
       x="23.718006"
       y="3.0238094"
       width="21.45015"
       height="20.127232"
       id="rect946" />
    <rect
       id="rect4359"
       height="25.607887"
       width="32.127975"
       y="1.889881"
       x="33.261906" />
    <rect
       id="rect7340"
       height="24.522356"
       width="32.132743"
       y="18.180368"
       x="5.7077898" />
  </defs>
  <metadata
     id="metadata5">
    <rdf:RDF>
      <cc:Work
         rdf:about="">
        <dc:format>image/svg+xml</dc:format>
        <dc:type
           rdf:resource="http://purl.org/dc/dcmitype/StillImage" />
        <dc:title></dc:title>
      </cc:Work>
    </rdf:RDF>
  </metadata>
  <g
     transform="matrix(0.11693553,0,0,0.11693553,4.3916521,4.0460982)"
     id="g2697">
    <g
       id="g2671">
      <path
         clip-rule="evenodd"
         d="m 59.835,217.286 c 67.661,-111.438 324.523,-111.351 392.271,-0.029 5.548,27.042 12.615,24.005 12.615,42.987 l 36.415,-11.389 C 465.159,49.02 46.781,48.815 10.833,248.855 l 29.786,18.077 c 2.688,1.634 1.666,-35.804 19.216,-49.646 z"
         fill="#e0dfe1"
         fill-rule="evenodd"
         id="path2669" />
    </g>
    <g
       id="g2675">
      <path
         clip-rule="evenodd"
         d="m 0,256.739 v 38.635 c 0,4.351 3.533,7.885 7.885,7.885 H 36.036 L 63.357,279.694 35.861,248.854 H 10.834 7.885 C 3.533,248.855 0,252.388 0,256.739 Z"
         fill="#7e707d"
         fill-rule="evenodd"
         id="path2673" />
    </g>
    <g
       id="g2679">
      <path
         clip-rule="evenodd"
         d="M 59.835,217.286 C 43.482,224.003 35.86,230.164 35.86,247.482 v 1.373 28.181 19.683 c 0,2.19 0.058,4.38 0.175,6.541 3.358,67.108 57.995,110.474 119.32,109.832 49.03,-0.496 62.872,-12.032 78.262,-31.189 5.753,-7.155 14.075,-10.717 22.369,-10.688 8.323,-0.029 16.616,3.534 22.369,10.688 15.389,19.157 29.26,30.692 78.262,31.189 61.324,0.642 115.991,-42.724 119.349,-109.832 0.088,-2.161 0.146,-4.351 0.146,-6.541 v -19.683 -28.181 -1.373 c 0,-17.347 -7.622,-23.479 -24.004,-30.225 h -0.029 c -7.008,-2.891 -15.623,-5.899 -25.931,-9.929 -87.781,-29.028 -252.54,-29.028 -340.321,0 -8.617,3.358 -17.436,6.425 -25.992,9.958 z"
         fill="#a1d4ff"
         fill-rule="evenodd"
         id="path2677" />
    </g>
    <g
       id="g2683">
      <path
         clip-rule="evenodd"
         d="m 66.785,247.891 v 48.827 c 0,50.346 38.722,86.002 88.249,85.477 13.813,-0.146 35.13,-0.555 46.198,-10.455 3.037,-2.716 5.753,-6.016 8.293,-9.199 11.36,-14.105 28.355,-22.253 46.46,-22.253 18.105,0 35.13,8.148 46.461,22.253 2.541,3.183 5.286,6.483 8.323,9.199 11.068,9.9 32.385,10.309 46.168,10.455 49.527,0.526 88.278,-35.131 88.278,-85.477 v -48.827 c -7.008,-3.65 -23.07,-9.053 -29.406,-11.448 -81.737,-26.721 -237.909,-26.721 -319.617,0 -6.337,2.395 -22.428,7.798 -29.407,11.448 z"
         fill="#eff6ff"
         fill-rule="evenodd"
         id="path2681" />
    </g>
    <g
       id="g2687">
      <path
         clip-rule="evenodd"
         d="m 476.111,248.855 -9.954,27.202 c 0,0 9.895,25.041 9.808,27.202 h 28.151 c 4.322,0 7.885,-3.534 7.885,-7.885 v -38.635 c 0,-4.351 -3.563,-7.885 -7.885,-7.885 h -2.979 -25.026 z"
         fill="#7e707d"
         fill-rule="evenodd"
         id="path2685" />
    </g>
    <g
       id="g2691">
      <path
         clip-rule="evenodd"
         d="m 66.785,296.718 c 0,50.346 38.722,86.002 88.249,85.477 13.813,-0.146 35.13,-0.555 46.198,-10.455 3.037,-2.716 5.753,-6.016 8.293,-9.199 11.36,-14.105 28.355,-22.253 46.46,-22.253 18.105,0 35.13,8.148 46.461,22.253 2.541,3.183 5.286,6.483 8.323,9.199 11.068,9.9 32.385,10.309 46.168,10.455 49.527,0.526 88.278,-35.131 88.278,-85.477 v -36.766 -12.061 c -7.008,-3.65 -23.07,-9.053 -29.406,-11.448 2.336,52.711 7.914,109.715 -58.871,109.014 -55.017,-0.584 -38.78,-41.906 -100.952,-41.906 -62.172,0 -45.935,41.322 -100.952,41.906 -49.527,0.526 -88.249,-35.131 -88.249,-85.506 z"
         fill="#d9eeff"
         fill-rule="evenodd"
         id="path2689" />
    </g>
    <g
       id="g2695">
      <path
         clip-rule="evenodd"
         d="m 445.215,296.718 c 0,49.032 -36.736,84.133 -84.423,85.448 -9.929,10.542 -21.201,20.179 -33.641,28.765 8.177,1.314 17.813,2.044 29.465,2.161 61.324,0.642 115.991,-42.724 119.349,-109.832 0.088,-2.161 0.146,-4.351 0.146,-6.541 v -19.683 -20.354 -7.826 -1.373 c 0,-17.347 -7.622,-23.479 -24.004,-30.225 h -0.029 c -7.008,-2.891 -15.623,-5.899 -25.931,-9.929 -10.6,-3.504 -22.34,-6.6 -34.897,-9.257 5.548,11.126 9.841,22.778 12.732,34.839 4.088,1.11 8.031,2.307 11.827,3.534 6.337,2.395 22.398,7.797 29.406,11.448 v 12.061 z"
         fill="#86beec"
         fill-rule="evenodd"
         id="path2693" />
    </g>
  </g>
  <g
     transform="matrix(0.09355506,0,0,0.09355506,75.395852,8.7155023)"
     id="g2905">
    <g
       id="g2800">
	<path
   style="fill:#44c868"
   d="M 511.879,475.685 471.655,254.074 c -0.401,-2.212 -1.773,-4.128 -3.739,-5.221 l -101.242,-56.31 c -1.314,-0.732 -2.787,-1.023 -4.234,-0.911 l 18.419,237.608 -0.617,0.276 121.164,54.357 c 0.986,0.441 2.034,0.659 3.077,0.659 1.651,0 3.287,-0.543 4.632,-1.596 2.198,-1.716 3.261,-4.508 2.764,-7.251 z"
   id="path2796" />

	<path
   style="fill:#44c868"
   d="M 256,246.375 152.455,192.444 c -1.241,-0.647 -2.617,-0.911 -3.972,-0.82 0.359,-0.022 0.72,-0.02 1.078,0.008 l -18.419,237.608 121.781,54.634 c 0.983,0.44 2.032,0.659 3.077,0.659 v 0 z"
   id="path2798" />

</g>
    <g
       id="g2806">
	<path
   style="fill:#4ce166"
   d="m 149.56,191.633 c -1.447,-0.112 -2.92,0.179 -4.234,0.91 l -101.243,56.31 c -1.966,1.093 -3.338,3.008 -3.739,5.221 L 0.121,475.685 c -0.498,2.742 0.566,5.534 2.763,7.252 1.347,1.053 2.982,1.596 4.632,1.596 1.043,0 2.092,-0.217 3.077,-0.659 l 120.504,-54.061 z"
   id="path2802" />

	<path
   style="fill:#4ce166"
   d="m 362.439,191.628 c -0.996,0.077 -1.981,0.342 -2.894,0.818 L 256,246.376 v 238.158 c 0,0 0,0 10e-4,0 1.045,0 2.095,-0.218 3.077,-0.659 l 121.781,-54.634 z"
   id="path2804" />

</g>
    <polygon
       style="fill:#ffdb56"
       points="28.154,321.233 19.983,366.252 140.977,302.346 143.786,266.107 144.252,260.097 "
       id="polygon2808" />
    <path
       style="fill:#a8eefc"
       d="M 142.066,288.294 140.977,302.346 19.983,366.252 0.121,475.685 c -0.498,2.742 0.566,5.534 2.763,7.252 1.347,1.053 2.982,1.596 4.632,1.596 1.043,0 2.092,-0.217 3.077,-0.659 l 120.504,-54.061 z"
       id="path2810" />
    <g
       id="g2816">
	<polygon
   style="fill:#ffbb24"
   points="256,477.025 256,413.507 187.363,305.429 256.03,313.642 256.03,276.08 144.252,260.097 140.977,302.346 "
   id="polygon2812" />

	<polygon
   style="fill:#ffbb24"
   points="459.946,244.421 411.311,217.37 365.269,228.128 365.845,235.564 368.119,264.898 "
   id="polygon2814" />

</g>
    <polygon
       style="fill:#ffdb56"
       points="256.03,276.08 256.03,313.642 327.386,282.612 372.202,317.576 367.842,261.327 365.269,228.128 "
       id="polygon2818" />
    <path
       style="fill:#ffbb24"
       d="m 511.879,475.685 -10.103,-55.666 -133.657,-155.121 4.084,52.678 137.07,165.221 c 2.084,-1.727 3.091,-4.439 2.606,-7.112 z"
       id="path2820" />
    <path
       style="fill:#ff4a4a"
       d="m 256.481,27.465 c -57.963,0 -105.12,47.118 -105.12,105.034 0,35.826 17.009,74.29 50.556,114.322 24.639,29.403 48.943,48.314 49.966,49.105 1.354,1.047 2.976,1.57 4.599,1.57 1.622,0 3.245,-0.523 4.599,-1.57 1.022,-0.791 25.327,-19.702 49.966,-49.105 33.547,-40.032 50.556,-78.495 50.556,-114.322 C 361.601,74.583 314.444,27.465 256.481,27.465 Z m 38.93,105.033 c 0,21.482 -17.43,38.898 -38.93,38.898 -21.5,0 -38.93,-17.415 -38.93,-38.898 0,-21.483 17.43,-38.898 38.93,-38.898 21.5,0 38.93,17.416 38.93,38.898 z"
       id="path2822" />
    <path
       style="fill:#e7343f"
       d="m 256.481,27.465 c -4.594,0 -9.119,0.298 -13.559,0.872 51.583,6.667 91.562,50.836 91.562,104.162 0,35.826 -17.009,74.29 -50.556,114.322 -15.845,18.908 -31.54,33.467 -41.005,41.669 5.254,4.552 8.596,7.154 8.96,7.436 1.354,1.047 2.976,1.57 4.599,1.57 1.622,0 3.245,-0.523 4.599,-1.57 1.022,-0.791 25.327,-19.702 49.966,-49.105 33.547,-40.032 50.556,-78.495 50.556,-114.322 C 361.601,74.583 314.444,27.465 256.481,27.465 Z"
       id="path2824" />
    <path
       style="fill:#ffdb56"
       d="M 259.078,483.874 304.363,463.558 256,413.507 v 71.026 c 0,0 0,0 10e-4,0 1.045,0 2.094,-0.217 3.077,-0.659 z"
       id="path2826" />
    <g
       id="g2832">
	<path
   style="fill:#1ea4e9"
   d="m 471.654,254.074 c -0.401,-2.212 -1.773,-4.128 -3.739,-5.221 l -7.97,-4.433 -91.827,20.477 v 0 l 133.656,155.121 z"
   id="path2828" />

	<path
   style="fill:#1ea4e9"
   d="m 255.999,484.533 c 0.001,0 0.001,0 0,0 v -7.508 L 140.977,302.346 131.14,429.241 252.921,483.875 c 0.983,0.441 2.032,0.658 3.078,0.658 z"
   id="path2830" />

</g>
    <g
       id="g2834">
</g>
    <g
       id="g2836">
</g>
    <g
       id="g2838">
</g>
    <g
       id="g2840">
</g>
    <g
       id="g2842">
</g>
    <g
       id="g2844">
</g>
    <g
       id="g2846">
</g>
    <g
       id="g2848">
</g>
    <g
       id="g2850">
</g>
    <g
       id="g2852">
</g>
    <g
       id="g2854">
</g>
    <g
       id="g2856">
</g>
    <g
       id="g2858">
</g>
    <g
       id="g2860">
</g>
    <g
       id="g2862">
</g>
  </g>
</svg>
