<?xml version="1.0" encoding="UTF-8" standalone="no"?>
<svg
   xmlns:dc="http://purl.org/dc/elements/1.1/"
   xmlns:cc="http://creativecommons.org/ns#"
   xmlns:rdf="http://www.w3.org/1999/02/22-rdf-syntax-ns#"
   xmlns:svg="http://www.w3.org/2000/svg"
   xmlns="http://www.w3.org/2000/svg"
   id="svg8"
   version="1.1"
   viewBox="0 0 132.29166 66.145835"
   height="250"
   width="500">
  <defs
     id="defs2">
    <rect
       id="rect1507"
       height="16.069327"
       width="25.411958"
       y="6.3529896"
       x="4.1107579" />
    <rect
       id="rect1186"
       height="20.347214"
       width="23.518208"
       y="20.347214"
       x="-2.1139962" />
    <rect
       x="7.1347373"
       y="11.09848"
       width="36.466435"
       height="36.466435"
       id="rect1838" />
    <rect
       id="rect8007"
       height="36.783534"
       width="39.32033"
       y="5.9191895"
       x="36.783534" />
    <rect
       id="rect7100"
       height="24.522356"
       width="32.132743"
       y="18.180368"
       x="5.7077898" />
    <rect
       id="rect5371"
       height="48.621913"
       width="49.044713"
       y="3.382394"
       x="65.956682" />
    <rect
       id="rect952"
       height="25.607887"
       width="32.127975"
       y="1.889881"
       x="33.261906" />
    <rect
       id="rect946"
       height="20.127232"
       width="21.45015"
       y="3.0238094"
       x="23.718006" />
    <rect
       x="33.261906"
       y="1.889881"
       width="32.127975"
       height="25.607887"
       id="rect4359" />
    <rect
       x="5.7077898"
       y="18.180368"
       width="32.132743"
       height="24.522356"
       id="rect7340" />
    <rect
       x="-2.1139962"
       y="20.347214"
       width="23.518208"
       height="20.347214"
       id="rect1194" />
  </defs>
  <metadata
     id="metadata5">
    <rdf:RDF>
      <cc:Work
         rdf:about="">
        <dc:format>image/svg+xml</dc:format>
        <dc:type
           rdf:resource="http://purl.org/dc/dcmitype/StillImage" />
        <dc:title></dc:title>
      </cc:Work>
    </rdf:RDF>
  </metadata>
  <text
     transform="matrix(3.1369584,0,0,3.1369584,84.749253,-2.8192823)"
     style="font-style:normal;font-variant:normal;font-weight:bold;font-stretch:normal;font-size:10.5833px;line-height:1.25;font-family:sans-serif;-inkscape-font-specification:'sans-serif Bold';white-space:pre;shape-inside:url(#rect1507);fill:#000000;fill-opacity:1;stroke:none;"
     id="text1505"
     xml:space="preserve"><tspan
       x="4.1113281"
       y="16.008981"><tspan
         style="font-style:normal;font-variant:normal;font-weight:bold;font-stretch:normal;font-family:sans-serif;-inkscape-font-specification:'sans-serif Bold'">A</tspan></tspan></text>
  <g
     transform="matrix(0.09035318,0,0,0.09035318,4.7654895,10.689914)"
     id="_x34_8_eye">
    <path
       d="M 256,124.089 C 74.97,127.31 0,256 0,256 0,256 74.97,384.69 256,387.911 437.031,384.69 512,256 512,256 512,256 437.031,127.31 256,124.089 Z"
       fill="#d8ecfe"
       id="path1646" />
    <path
       d="m 480.147,216.55 c 2.354,3.458 3.506,5.434 3.506,5.434 0,0 -74.969,128.69 -256,131.912 C 113.068,351.857 40.991,299.557 3.506,261.435 20.179,285.929 97.368,385.088 256,387.911 437.031,384.69 512,256 512,256 c 0,0 -10.116,-17.344 -31.853,-39.45 z"
       fill="#c4e2ff"
       id="path1648" />
    <circle
       cx="256"
       cy="256"
       fill="#0182fc"
       r="131.911"
       id="circle1650" />
    <path
       d="m 256,329.699 c -40.638,0 -73.7,-33.061 -73.7,-73.699 0,-40.639 33.061,-73.7 73.7,-73.7 40.638,0 73.699,33.061 73.699,73.7 0,40.638 -33.061,73.699 -73.699,73.699 z"
       fill="#465a61"
       id="path1652" />
    <path
       d="m 300.019,247.636 c -19.66,0 -35.655,-15.995 -35.655,-35.655 0,-19.661 15.995,-35.655 35.655,-35.655 19.66,0 35.655,15.995 35.655,35.655 -10e-4,19.66 -15.995,35.655 -35.655,35.655 z"
       fill="#d8ecfe"
       id="path1654" />
    <path
       d="m 330.706,147.278 c 14.622,21.24 23.189,46.971 23.189,74.706 0,72.853 -59.059,131.911 -131.911,131.911 -27.736,0 -53.467,-8.567 -74.706,-23.189 23.786,34.55 63.605,57.205 108.722,57.205 72.853,0 131.911,-59.059 131.911,-131.911 0,-45.117 -22.655,-84.937 -57.205,-108.722 z"
       fill="#0172fb"
       id="path1656" />
  </g>
  <g
     transform="matrix(0.08940899,0,0,0.08940899,45.499364,10.74462)"
     id="g1685">
    <g
       id="g1677">
      <path
         d="m 148.375,478.215 -10.332,-10.293 18.501,-18.432 c 0.034,0.034 0.062,0.072 0.096,0.106 l 10.465,10.426 c 2.931,2.92 6.76,4.378 10.588,4.378 3.86,0 7.72,-1.483 10.656,-4.445 5.849,-5.9 5.819,-15.435 -0.066,-21.298 L 150.831,401.344 356.757,196.72 315.834,155.95 4.432,466.729 c -5.91,5.889 -5.909,15.476 10e-4,21.364 l 19.603,19.53 c 5.863,5.841 15.33,5.837 21.188,-0.01 l 44.489,-45.377 37.484,37.344 c 2.931,2.92 6.759,4.378 10.588,4.378 3.86,0 7.72,-1.483 10.656,-4.444 5.849,-5.901 5.819,-15.436 -0.066,-21.299 z"
         fill="#f4da90"
         id="path1673" />
      <path
         d="m 148.375,478.215 -10.332,-10.293 18.501,-18.432 c 0.034,0.034 0.062,0.072 0.096,0.106 l 10.465,10.426 c 2.931,2.92 6.76,4.378 10.588,4.378 3.86,0 7.72,-1.483 10.656,-4.445 5.849,-5.9 5.819,-15.435 -0.066,-21.298 L 150.831,401.344 356.757,196.72 335.692,175.734 14.31,497.933 l 9.726,9.689 c 5.863,5.841 15.33,5.837 21.188,-0.01 l 44.489,-45.377 37.484,37.344 c 2.931,2.92 6.759,4.378 10.588,4.378 3.86,0 7.72,-1.483 10.656,-4.444 5.849,-5.9 5.819,-15.435 -0.066,-21.298 z"
         fill="#e7aa60"
         id="path1675" />
    </g>
    <g
       id="g1683">
      <path
         d="m 459.602,238.277 c 13.917,-13.865 21.581,-32.305 21.58,-51.926 0,-16.478 -5.424,-32.112 -15.4,-44.914 8.973,-3.566 17.384,-8.941 24.638,-16.167 C 504.336,111.404 512,92.964 512,73.344 c 0,-19.62 -7.664,-38.061 -21.58,-51.926 -28.666,-28.558 -75.307,-28.558 -103.972,0 -7.185,7.158 -12.688,15.543 -16.345,24.673 -28.818,-22.341 -70.612,-20.345 -97.086,6.03 -13.917,13.865 -21.581,32.305 -21.58,51.926 0,19.62 7.664,38.06 21.58,51.925 14.332,14.279 33.159,21.419 51.986,21.419 3.241,0 6.48,-0.238 9.698,-0.662 -0.416,3.166 -0.651,6.375 -0.651,9.623 0,19.62 7.664,38.061 21.581,51.926 14.333,14.279 33.159,21.418 51.986,21.418 18.825,-0.001 37.652,-7.14 51.985,-21.419 z M 438.434,30.091 c 11.156,0 22.315,4.232 30.808,12.693 8.198,8.169 12.714,19.022 12.714,30.56 0,11.538 -4.515,22.392 -12.714,30.56 -16.988,16.923 -44.628,16.923 -61.617,0 -8.198,-8.168 -12.714,-19.022 -12.714,-30.56 0,-11.539 4.515,-22.392 12.714,-30.56 8.495,-8.463 19.65,-12.693 30.809,-12.693 z M 294.195,134.607 c -8.199,-8.168 -12.714,-19.021 -12.714,-30.56 0,-11.539 4.515,-22.392 12.714,-30.56 8.495,-8.463 19.65,-12.694 30.808,-12.694 11.156,0 22.315,4.232 30.808,12.693 8.199,8.169 12.714,19.022 12.714,30.561 0,11.539 -4.515,22.392 -12.714,30.56 -16.988,16.924 -44.628,16.924 -61.616,0 z m 82.613,82.305 c -8.199,-8.169 -12.714,-19.022 -12.714,-30.561 0.001,-11.538 4.516,-22.392 12.714,-30.56 8.494,-8.462 19.651,-12.693 30.808,-12.693 11.157,0 22.314,4.231 30.808,12.693 8.199,8.168 12.714,19.021 12.714,30.56 0,11.539 -4.515,22.392 -12.714,30.561 -16.988,16.923 -44.628,16.923 -61.616,0 z"
         fill="#e7aa60"
         id="path1679" />
      <path
         d="m 459.602,238.277 c 13.917,-13.865 21.581,-32.305 21.58,-51.926 0,-16.478 -5.424,-32.112 -15.4,-44.914 8.973,-3.566 17.384,-8.941 24.638,-16.167 C 504.336,111.404 512,92.964 512,73.344 c 0,-19.62 -7.664,-38.061 -21.58,-51.926 -0.135,-0.135 -0.277,-0.258 -0.413,-0.391 l -21.247,21.3 c 0.159,0.154 0.324,0.299 0.482,0.456 8.198,8.169 12.714,19.022 12.714,30.56 0,11.538 -4.515,22.392 -12.714,30.56 -16.988,16.923 -44.628,16.923 -61.617,0 -0.048,-0.048 -0.092,-0.098 -0.14,-0.146 L 334.7,176.728 c -0.416,3.166 -0.651,6.375 -0.651,9.623 0,19.62 7.664,38.061 21.581,51.926 14.333,14.279 33.159,21.418 51.986,21.418 18.826,0 37.653,-7.139 51.986,-21.418 z m -82.794,-21.365 c -8.199,-8.169 -12.714,-19.022 -12.714,-30.561 0.001,-11.538 4.516,-22.392 12.714,-30.56 8.494,-8.462 19.651,-12.693 30.808,-12.693 11.157,0 22.314,4.231 30.808,12.693 8.199,8.168 12.714,19.021 12.714,30.56 0,11.539 -4.515,22.392 -12.714,30.561 -16.988,16.923 -44.628,16.923 -61.616,0 z"
         fill="#e48d3c"
         id="path1681" />
    </g>
  </g>
</svg>
