<?xml version="1.0" encoding="UTF-8" standalone="no"?>
<svg
   xmlns:dc="http://purl.org/dc/elements/1.1/"
   xmlns:cc="http://creativecommons.org/ns#"
   xmlns:rdf="http://www.w3.org/1999/02/22-rdf-syntax-ns#"
   xmlns:svg="http://www.w3.org/2000/svg"
   xmlns="http://www.w3.org/2000/svg"
   id="svg8"
   version="1.1"
   viewBox="0 0 132.29166 66.145835"
   height="250"
   width="500">
  <defs
     id="defs2">
    <rect
       id="rect1507"
       height="16.069327"
       width="25.411958"
       y="6.3529896"
       x="4.1107579" />
    <rect
       id="rect1186"
       height="20.347214"
       width="23.518208"
       y="20.347214"
       x="-2.1139962" />
    <rect
       x="7.1347373"
       y="11.09848"
       width="36.466435"
       height="36.466435"
       id="rect1838" />
    <rect
       id="rect8007"
       height="36.783534"
       width="39.32033"
       y="5.9191895"
       x="36.783534" />
    <rect
       id="rect7100"
       height="24.522356"
       width="32.132743"
       y="18.180368"
       x="5.7077898" />
    <rect
       id="rect5371"
       height="48.621913"
       width="49.044713"
       y="3.382394"
       x="65.956682" />
    <rect
       id="rect952"
       height="25.607887"
       width="32.127975"
       y="1.889881"
       x="33.261906" />
    <rect
       id="rect946"
       height="20.127232"
       width="21.45015"
       y="3.0238094"
       x="23.718006" />
    <rect
       x="33.261906"
       y="1.889881"
       width="32.127975"
       height="25.607887"
       id="rect4359" />
    <rect
       x="5.7077898"
       y="18.180368"
       width="32.132743"
       height="24.522356"
       id="rect7340" />
    <rect
       x="-2.1139962"
       y="20.347214"
       width="23.518208"
       height="20.347214"
       id="rect1194" />
  </defs>
  <metadata
     id="metadata5">
    <rdf:RDF>
      <cc:Work
         rdf:about="">
        <dc:format>image/svg+xml</dc:format>
        <dc:type
           rdf:resource="http://purl.org/dc/dcmitype/StillImage" />
        <dc:title></dc:title>
      </cc:Work>
    </rdf:RDF>
  </metadata>
  <text
     transform="matrix(3.1369584,0,0,3.1369584,2.5340942,-5.4352192)"
     style="font-style:normal;font-variant:normal;font-weight:bold;font-stretch:normal;font-size:10.5833px;line-height:1.25;font-family:sans-serif;-inkscape-font-specification:'sans-serif Bold';white-space:pre;shape-inside:url(#rect1507);fill:#000000;fill-opacity:1;stroke:none;"
     id="text1505"
     xml:space="preserve"><tspan
       x="4.1113281"
       y="16.008981"><tspan
         style="font-style:normal;font-variant:normal;font-weight:bold;font-stretch:normal;font-family:sans-serif;-inkscape-font-specification:'sans-serif Bold'">X</tspan></tspan></text>
  <g
     transform="matrix(0.16024451,0,0,0.16024451,54.607608,-2.1385432)"
     id="g1596">
    <g
       id="g1531">
	<polygon
   style="fill:#d9ac80"
   points="374,248.4 299.2,292.4 224.4,248.4 299.2,204.8 374,160.8 448.8,204.8 "
   id="polygon1511" />

	<polygon
   style="fill:#a67e4f"
   points="224.4,248.4 223.6,248 223.6,419.6 372,333.6 372,249.6 299.2,292.4 "
   id="polygon1513" />

	<polygon
   style="fill:#d9ac80"
   points="74.8,248.4 149.6,292.4 224.4,248.4 149.6,204.8 74.8,160.8 0,204.8 "
   id="polygon1515" />

	<polygon
   style="fill:#643513"
   points="149.6,204.8 74.8,160.8 149.6,116.8 224.4,72.8 299.2,116.8 374,160.8 299.2,204.8 224.4,248.4 "
   id="polygon1517" />

	<g
   id="g1523">
		<polygon
   style="fill:#d9ac80"
   points="74.8,72.8 149.6,29.2 224.4,72.8 149.6,116.8 74.8,160.8 0,116.8 "
   id="polygon1519" />

		<polygon
   style="fill:#d9ac80"
   points="374,72.8 299.2,29.2 224.4,72.8 299.2,116.8 374,160.8 448.8,116.8 "
   id="polygon1521" />

	</g>

	<polygon
   style="fill:#926e43"
   points="223.6,249.2 223.6,419.6 74.8,333.6 74.8,248.4 149.6,292.4 "
   id="polygon1525" />

	<polygon
   style="fill:#8d5122"
   points="224.4,72.8 149.6,116.8 74.8,160.8 149.6,204.8 173.6,218.8 224.4,189.2 "
   id="polygon1527" />

	<polygon
   style="fill:#77411b"
   points="299.2,116.8 224.4,72.8 224.4,189.2 275.2,218.8 299.2,204.8 374,160.8 "
   id="polygon1529" />

</g>
    <g
       id="g1533">
</g>
    <g
       id="g1535">
</g>
    <g
       id="g1537">
</g>
    <g
       id="g1539">
</g>
    <g
       id="g1541">
</g>
    <g
       id="g1543">
</g>
    <g
       id="g1545">
</g>
    <g
       id="g1547">
</g>
    <g
       id="g1549">
</g>
    <g
       id="g1551">
</g>
    <g
       id="g1553">
</g>
    <g
       id="g1555">
</g>
    <g
       id="g1557">
</g>
    <g
       id="g1559">
</g>
    <g
       id="g1561">
</g>
  </g>
</svg>
