<?xml version="1.0" encoding="UTF-8" standalone="no"?>
<svg
   xmlns:dc="http://purl.org/dc/elements/1.1/"
   xmlns:cc="http://creativecommons.org/ns#"
   xmlns:rdf="http://www.w3.org/1999/02/22-rdf-syntax-ns#"
   xmlns:svg="http://www.w3.org/2000/svg"
   xmlns="http://www.w3.org/2000/svg"
   id="svg8"
   version="1.1"
   viewBox="0 0 132.29166 66.145835"
   height="250"
   width="500">
  <defs
     id="defs2">
    <rect
       id="rect5371"
       height="48.621913"
       width="49.044713"
       y="3.382394"
       x="65.956682" />
    <rect
       id="rect952"
       height="25.607887"
       width="32.127975"
       y="1.889881"
       x="33.261906" />
    <rect
       id="rect946"
       height="20.127232"
       width="21.45015"
       y="3.0238094"
       x="23.718006" />
    <rect
       x="33.261906"
       y="1.889881"
       width="32.127975"
       height="25.607887"
       id="rect4359" />
  </defs>
  <metadata
     id="metadata5">
    <rdf:RDF>
      <cc:Work
         rdf:about="">
        <dc:format>image/svg+xml</dc:format>
        <dc:type
           rdf:resource="http://purl.org/dc/dcmitype/StillImage" />
        <dc:title></dc:title>
      </cc:Work>
    </rdf:RDF>
  </metadata>
  <g
     transform="matrix(0.09583003,0,0,0.09583003,7.5705909,8.7893418)"
     id="g6612">
    <path
       style="fill:#8d6e63"
       d="m 461.781,320.672 c -5.243,-1.595 -10.841,1.043 -12.949,6.101 -9.024,21.675 -21.333,35.328 -32.235,35.648 h -0.427 c -10.667,0 -22.443,-12.16 -33.259,-34.304 -1.835,-3.77 -5.708,-6.116 -9.899,-5.995 -4.194,0.124 -7.926,2.695 -9.536,6.571 -7.673,18.172 -24.232,31.057 -43.733,34.027 -20.435,3.895 -41.457,-2.77 -55.915,-17.728 -4.257,-4.324 -11.213,-4.378 -15.537,-0.122 -0.041,0.04 -0.081,0.081 -0.122,0.122 -14.474,14.931 -35.482,21.592 -55.915,17.728 -19.491,-2.962 -36.049,-15.828 -43.733,-33.984 -1.61,-3.875 -5.342,-6.447 -9.536,-6.571 -4.218,-0.224 -8.143,2.153 -9.899,5.995 -10.816,22.165 -22.613,34.304 -33.259,34.304 H 95.4 c -10.859,-0.32 -23.211,-13.973 -32.235,-35.648 -2.249,-5.445 -8.486,-8.035 -13.931,-5.786 -4.726,1.952 -7.402,6.984 -6.378,11.994 l 21.333,106.667 c 1.624,8.512 18.52,51.179 191.811,51.179 173.291,0 190.187,-42.667 191.787,-51.2 L 469.12,333.003 c 1.097,-5.387 -2.08,-10.726 -7.339,-12.331 z"
       id="path6527" />
    <path
       style="fill:#ffc107"
       d="m 256,192.203 c -102.869,0 -256,82.944 -256,138.667 0,16.256 4.864,26.389 14.443,30.101 13.186,2.38 26.666,-2.218 35.648,-12.16 7.584,18.837 24.682,32.165 44.8,34.923 18.864,-1.2 35.637,-12.42 43.947,-29.397 12.253,15.742 30.013,26.26 49.707,29.44 23.883,4.349 48.479,-1.843 67.456,-16.981 14.884,11.902 33.402,18.333 52.459,18.219 5.007,-0.005 10.004,-0.447 14.933,-1.323 19.694,-3.18 37.453,-13.698 49.707,-29.44 8.335,17.003 25.135,28.244 44.032,29.461 20.605,-2.96 37.997,-16.834 45.461,-36.267 10.031,8.674 23.626,11.985 36.523,8.896 9.248,-4.913 14.407,-15.111 12.885,-25.472 C 512,275.147 358.869,192.203 256,192.203 Z"
       id="path6529" />
    <g
       id="g6539">
	<path
   style="fill:#795548"
   d="m 117.333,298.87 c -5.891,0 -10.667,-4.776 -10.667,-10.667 0,-2.308 0.749,-4.554 2.133,-6.4 12.607,-15.226 30.993,-24.504 50.731,-25.6 5.477,-0.638 10.434,3.284 11.073,8.761 0.056,0.477 0.077,0.957 0.063,1.436 0.265,5.885 -4.292,10.87 -10.177,11.135 -0.007,0 -0.014,10e-4 -0.021,10e-4 -13.347,0.807 -25.806,6.959 -34.56,17.067 -2.022,2.698 -5.202,4.28 -8.575,4.267 z"
   id="path6531" />

	<path
   style="fill:#795548"
   d="m 202.667,320.203 v 0 c -5.891,0 -10.667,-4.776 -10.667,-10.667 3.016,-19.309 11.963,-37.202 25.6,-51.2 4.73,-3.511 11.411,-2.522 14.922,2.208 3.43,4.621 2.576,11.13 -1.93,14.709 -8.32,9.86 -14.17,21.561 -17.067,34.133 0.083,5.89 -4.624,10.733 -10.515,10.817 -0.114,0.002 -0.229,0.002 -0.343,0 z"
   id="path6533" />

	<path
   style="fill:#795548"
   d="m 394.667,298.87 c -3.357,0 -6.519,-1.581 -8.533,-4.267 -8.754,-10.108 -21.213,-16.26 -34.56,-17.067 -5.887,-0.23 -10.472,-5.188 -10.243,-11.075 10e-4,-0.02 0.002,-0.041 0.003,-0.061 0.002,-5.655 4.588,-10.238 10.243,-10.237 0.298,0 0.596,0.013 0.893,0.039 19.752,1.085 38.156,10.364 50.773,25.6 3.535,4.713 2.58,11.399 -2.133,14.933 -1.846,1.385 -4.092,2.133 -6.4,2.133 h -0.043 z"
   id="path6535" />

	<path
   style="fill:#795548"
   d="m 309.333,320.203 c -5.891,0 -10.667,-4.776 -10.667,-10.667 -2.896,-12.572 -8.747,-24.273 -17.067,-34.133 -4.716,-3.531 -5.677,-10.216 -2.146,-14.931 3.53,-4.716 10.216,-5.677 14.931,-2.146 0.005,0.004 0.01,0.007 0.015,0.011 13.637,13.998 22.584,31.891 25.6,51.2 10e-4,5.89 -4.775,10.666 -10.666,10.666 z"
   id="path6537" />

</g>
    <g
       id="g6547">
	<path
   style="fill:#cfd8dc"
   d="m 171.029,170.87 c -5.891,0.011 -10.675,-4.757 -10.686,-10.648 -0.005,-2.84 1.123,-5.565 3.134,-7.571 13.035,-13.056 7.68,-28.885 -2.133,-53.653 -9.131,-23.04 -20.501,-51.712 2.133,-74.347 4.237,-4.093 10.99,-3.975 15.083,0.262 3.992,4.134 3.992,10.687 0,14.82 -12.096,12.096 -6.869,27.413 2.624,51.392 9.344,23.595 20.992,52.971 -2.624,76.608 -1.996,2.002 -4.704,3.13 -7.531,3.137 z"
   id="path6541" />

	<path
   style="fill:#cfd8dc"
   d="m 255.829,170.87 c -5.891,0.011 -10.675,-4.757 -10.686,-10.648 -0.005,-2.84 1.123,-5.565 3.134,-7.571 13.035,-13.056 7.68,-28.885 -2.133,-53.653 -9.131,-23.04 -20.501,-51.712 2.133,-74.347 4.093,-4.237 10.845,-4.355 15.083,-0.262 4.237,4.093 4.355,10.845 0.262,15.083 -0.086,0.089 -0.173,0.176 -0.262,0.262 -12.096,12.096 -6.869,27.413 2.624,51.392 9.344,23.595 20.992,52.971 -2.624,76.608 -1.996,2.001 -4.704,3.129 -7.531,3.136 z"
   id="path6543" />

	<path
   style="fill:#cfd8dc"
   d="m 341.163,170.87 c -5.891,0.011 -10.675,-4.757 -10.686,-10.648 -0.005,-2.84 1.123,-5.565 3.134,-7.571 13.035,-13.056 7.68,-28.885 -2.133,-53.653 -9.131,-23.04 -20.501,-51.712 2.133,-74.347 4.093,-4.237 10.845,-4.355 15.083,-0.262 4.238,4.093 4.355,10.845 0.262,15.083 -0.086,0.089 -0.173,0.176 -0.262,0.262 -12.096,12.096 -6.869,27.413 2.624,51.392 9.344,23.595 20.992,52.971 -2.624,76.608 -1.996,2.001 -4.705,3.129 -7.531,3.136 z"
   id="path6545" />

</g>
    <g
       id="g6549">
</g>
    <g
       id="g6551">
</g>
    <g
       id="g6553">
</g>
    <g
       id="g6555">
</g>
    <g
       id="g6557">
</g>
    <g
       id="g6559">
</g>
    <g
       id="g6561">
</g>
    <g
       id="g6563">
</g>
    <g
       id="g6565">
</g>
    <g
       id="g6567">
</g>
    <g
       id="g6569">
</g>
    <g
       id="g6571">
</g>
    <g
       id="g6573">
</g>
    <g
       id="g6575">
</g>
    <g
       id="g6577">
</g>
  </g>
  <g
     style="fill:none"
     transform="matrix(1.0293767,0,0,1.0293767,66.001753,2.322765)"
     fill-rule="nonzero"
     id="010---Loot">
    <path
       fill="#f3d55b"
       d="M 44.81,11.63 C 46.945784,9.878997 47.610416,6.8962362 46.420108,4.4040984 45.229799,1.9119605 42.492054,0.55426201 39.787768,1.1149993 37.083483,1.6757366 35.111281,4.0100493 35.01,6.77 32.086943,4.4098388 27.913057,4.4098388 24.99,6.77 24.888719,4.0100493 22.916517,1.6757366 20.212232,1.1149993 17.507947,0.55426201 14.770201,1.9119605 13.579892,4.4040984 12.389584,6.8962362 13.054216,9.878997 15.19,11.63 L 12,13 v 6 l 4,2 h 28 l 4,-2 v -6 z"
       id="Shape" />
    <path
       fill="#a56a43"
       d="M 49.36,30 C 52.89,33.96 55,38.68 55,43 55,52.94 52,59 30,59 8,59 5,52.94 5,43 5,38.68 7.12,33.96 10.64,30 L 31,28 Z"
       id="path6672" />
    <path
       fill="#a56a43"
       d="M 11.44,26 8.51,22.23 C 8.0395956,21.626869 7.9543816,20.808264 8.2904789,20.121178 8.6265762,19.434093 9.325117,18.998873 10.09,19 h 39.82 c 0.764883,-0.0011 1.463424,0.434093 1.799521,1.121178 C 52.045618,20.808264 51.960404,21.626869 51.49,22.23 L 48.56,26 30,28 Z"
       id="path6674" />
    <path
       fill="#f0c419"
       d="m 34,28 c 7.27e-4,0.702589 0.187009,1.392522 0.54,2 H 10 C 8.8967981,29.9967 8.0032948,29.103202 8,28 8.00817,26.898831 8.8988312,26.008167 10,26 h 24.54 c -0.352991,0.607478 -0.539273,1.297411 -0.54,2 z"
       id="path6676" />
    <path
       fill="#f0c419"
       d="m 52,28 c -0.0082,1.101169 -0.898831,1.991833 -2,2 h -8.54 c 0.719938,-1.23615 0.719938,-2.76385 0,-4 H 50 c 1.103202,0.0033 1.996705,0.896798 2,2 z"
       id="path6678" />
    <path
       fill="#ffffff"
       d="M 10.879,51.034 C 10.42952,51.033563 10.035561,50.733287 9.916,50.3 8.8436219,46.834652 8.7172587,43.145605 9.55,39.615 c 0.1456393,-0.528995 0.69032,-0.841846 1.220639,-0.701104 0.530319,0.140742 0.848193,0.682506 0.712361,1.214104 -0.739884,3.187847 -0.615259,6.515426 0.361,9.639 0.07048,0.25594 0.03631,0.529402 -0.095,0.760123 -0.131305,0.230721 -0.348961,0.399765 -0.605003,0.469877 -0.08632,0.02395 -0.175423,0.03639 -0.265,0.037 z"
       id="path6680" />
    <path
       fill="#ffffff"
       d="M 12.24,37 C 11.871136,36.999564 11.532465,36.796104 11.35886,36.470648 11.185256,36.145191 11.204911,35.750593 11.41,35.444 c 0.541122,-0.848053 1.21272,-1.605373 1.99,-2.244 0.285813,-0.214359 0.664273,-0.259956 0.99282,-0.119615 0.328547,0.140341 0.557266,0.445299 0.6,0.8 0.04274,0.3547 -0.107007,0.705256 -0.39282,0.919615 -0.594231,0.507964 -1.110434,1.100653 -1.532,1.759 -0.185647,0.275372 -0.495894,0.440612 -0.828,0.441 z"
       id="path6682" />
    <path
       fill="#ff5364"
       d="m 19,10 v 4 l -3,1 -4,-2 3.19,-1.37 z"
       id="path6684" />
    <path
       fill="#fb7b76"
       d="m 16,15 v 4 h -4 v -6 z"
       id="path6686" />
    <path
       fill="#fb7b76"
       d="m 38,15 v 4 h -4 v -6 z"
       id="path6688" />
    <path
       fill="#ff5364"
       d="m 48,13 v 6 h -4 v -4 z"
       id="path6690" />
    <path
       fill="#fb7b76"
       d="m 48,13 -4,2 -3,-1 v -4 l 3.81,1.63 z"
       id="path6692" />
    <path
       fill="#df4d60"
       d="m 44,15 v 4 h -6 v -4 l 3,-1 z"
       id="path6694" />
    <path
       fill="#ff5364"
       d="m 26,13 v 6 h -4 v -4 z"
       id="path6696" />
    <path
       fill="#df4d60"
       d="m 22,15 v 4 h -6 v -4 l 3,-1 z"
       id="path6698" />
    <path
       fill="#fb7b76"
       d="m 26,13 -4,2 -3,-1 v -4 l 3.17,1.36 z"
       id="path6700" />
    <path
       fill="#f0c419"
       d="m 24.99,6.77 c -1.443815,1.1567043 -2.440694,2.7792842 -2.82,4.59 L 19,10 15.19,11.63 C 13.054216,9.878997 12.389584,6.8962362 13.579892,4.4040984 14.770201,1.9119605 17.507946,0.55426201 20.212232,1.1149993 22.916517,1.6757366 24.888719,4.0100493 24.99,6.77 Z"
       id="path6702" />
    <path
       fill="#ff5364"
       d="m 41,10 v 4 l -3,1 -4,-2 3.83,-1.64 z"
       id="path6704" />
    <path
       fill="#f0c419"
       d="m 47,7 c 0.0013,1.7936705 -0.80257,3.493209 -2.19,4.63 L 41,10 37.83,11.36 C 37.450694,9.5492842 36.453814,7.9267043 35.01,6.77 35.18826,3.5453596 37.886958,1.0403411 41.115928,1.1022813 44.344898,1.1642215 46.94554,3.7708954 47,7 Z"
       id="path6706" />
    <path
       fill="#805333"
       d="m 34.977,27.067 c -1.770538,-0.08444 -3.459706,-0.768568 -4.79,-1.94 -0.880003,-0.6497 -1.425368,-1.657209 -1.488174,-2.749258 -0.06281,-1.092049 0.363458,-2.155438 1.163174,-2.901742 0.654444,-0.87526 1.662948,-1.415704 2.754164,-1.47592 1.091216,-0.06021 2.153061,0.365982 2.899836,1.16392 1.541501,1.338676 2.43981,3.270586 2.47,5.312 -0.06038,0.538802 -0.539122,0.931346 -1.079309,0.884974 C 36.366504,25.314603 35.961666,24.846209 35.994,24.305 35.897275,22.897805 35.247216,21.58618 34.186,20.657 33.838406,20.210712 33.294383,19.962815 32.729526,19.99332 32.164668,20.023826 31.650508,20.328873 31.353,20.81 c -0.439347,0.350568 -0.681259,0.892534 -0.648859,1.453671 0.0324,0.561136 0.335082,1.071658 0.811859,1.369329 0.998169,0.891294 2.281174,1.397902 3.619,1.429 0.547632,-0.02666 1.017824,0.385584 1.063,0.932 0.01755,0.264697 -0.07079,0.525523 -0.245582,0.725073 -0.174794,0.199549 -0.421714,0.321469 -0.686418,0.338927 -0.094,0.006 -0.191,0.009 -0.289,0.009 z"
       id="path6712" />
    <path
       fill="#805333"
       d="m 41.023,27.067 c -0.1,0 -0.194,0 -0.289,-0.009 C 40.469296,27.04054 40.222376,26.918622 40.047582,26.719073 39.872789,26.519523 39.784447,26.258697 39.802,25.994 c 0.04667,-0.54566 0.515922,-0.95708 1.063,-0.932 1.338265,-0.03131 2.621622,-0.538274 3.62,-1.43 0.477232,-0.298967 0.779558,-0.811068 0.810774,-1.373347 C 45.326989,21.696374 45.083206,21.153955 44.642,20.804 44.343402,20.32527 43.829779,20.022587 43.26632,19.993298 42.702861,19.964009 42.160624,20.211809 41.814,20.657 c -1.061216,0.92918 -1.711276,2.240805 -1.808,3.648 0.04675,0.549649 -0.36043,1.033337 -0.91,1.081 -0.264956,0.02662 -0.529414,-0.05506 -0.733209,-0.226461 C 38.158995,24.98814 38.033192,24.741597 38.014,24.476 c 0.03041,-2.041648 0.928656,-3.97378 2.47,-5.313 0.745482,-0.797312 1.80571,-1.223658 2.895636,-1.164415 1.089926,0.05924 2.097696,0.597998 2.752364,1.471415 0.801654,0.745706 1.229863,1.809494 1.168403,2.902631 -0.06146,1.093137 -0.606213,2.102222 -1.486403,2.753369 -1.330463,1.171935 -3.020008,1.856429 -4.791,1.941 z"
       id="path6714" />
    <path
       fill="#f29c1f"
       d="m 42,28 c 0.0049,2.012742 -1.48297,3.71728 -3.477921,3.984341 -1.994952,0.267062 -3.878783,-0.986109 -4.403438,-2.929274 -0.524654,-1.943165 0.472445,-3.974188 2.33071,-4.747495 C 38.307616,23.534265 40.451218,24.258302 41.46,26 c 0.352991,0.607478 0.539273,1.297411 0.54,2 z"
       id="path6716" />
  </g>
</svg>
