<?xml version="1.0" encoding="UTF-8" standalone="no"?>
<svg
   xmlns:dc="http://purl.org/dc/elements/1.1/"
   xmlns:cc="http://creativecommons.org/ns#"
   xmlns:rdf="http://www.w3.org/1999/02/22-rdf-syntax-ns#"
   xmlns:svg="http://www.w3.org/2000/svg"
   xmlns="http://www.w3.org/2000/svg"
   id="svg8"
   version="1.1"
   viewBox="0 0 132.29166 66.145835"
   height="250"
   width="500">
  <defs
     id="defs2">
    <rect
       id="rect952"
       height="25.607887"
       width="32.127975"
       y="1.889881"
       x="33.261906" />
    <rect
       id="rect946"
       height="20.127232"
       width="21.45015"
       y="3.0238094"
       x="23.718006" />
    <rect
       x="33.261906"
       y="1.889881"
       width="32.127975"
       height="25.607887"
       id="rect4359" />
  </defs>
  <metadata
     id="metadata5">
    <rdf:RDF>
      <cc:Work
         rdf:about="">
        <dc:format>image/svg+xml</dc:format>
        <dc:type
           rdf:resource="http://purl.org/dc/dcmitype/StillImage" />
        <dc:title></dc:title>
      </cc:Work>
    </rdf:RDF>
  </metadata>
  <text
     xml:space="preserve"
     id="text950"
     style="font-style:normal;font-variant:normal;font-weight:bold;font-stretch:normal;font-size:10.5833px;line-height:1.25;font-family:sans-serif;-inkscape-font-specification:'sans-serif Bold';white-space:pre;shape-inside:url(#rect952);fill:#000000;fill-opacity:1;stroke:none;"
     transform="matrix(3.2786989,0,0,3.2786989,-16.562323,8.7372372)"><tspan
       x="33.261719"
       y="11.54609"><tspan>S</tspan></tspan></text>
  <g
     transform="matrix(1.0827621,0,0,1.0827621,8.8015079,-1.4630227)"
     id="g4705">
    <g
       id="g4657">
      <path
         id="path4645"
         fill="#707c99"
         d="m 49.5,15 h -5.562 l -1.5,6 H 51 Z" />
      <path
         id="path4647"
         fill="#707c99"
         d="m 19.5,15 h -5.562 l -1.5,6 H 21 Z" />
      <g
         id="g4655">
        <path
           id="path4649"
           fill="#fccd81"
           d="m 20.351,11.063 -8,-3 A 1,1 0 0 0 11,9 v 4 a 1,1 0 0 0 1,1 c 0.552,0 7.649,-1.063 7.649,-1.063 a 1.0002345,1.0002345 0 1 0 0.7,-1.874 z" />
        <path
           id="path4651"
           fill="#e66e5c"
           d="M 50.362,11.756 31.09,10 H 31 L 11.638,11.76 A 3.981,3.981 0 0 0 8,15.74 V 17 h 46 v -1.26 a 3.981,3.981 0 0 0 -3.638,-3.984 z" />
        <path
           id="path4653"
           fill="#fccd81"
           d="M 24,10.632 V 17 h 6 v -6.913 z" />
      </g>
    </g>
    <g
       id="g4703">
      <g
         id="g4689">
        <path
           id="path4659"
           fill="#e66e5c"
           d="M 61.618,31 H 2.382 L 2,33 0,35.764 V 47 a 3,3 0 0 0 3,3 h 6.945 l 0.109,-0.876 A 7,7 0 0 1 24,50 h 37 a 3,3 0 0 0 3,-3 V 35.764 L 62,33 Z" />
        <g
           id="g4671"
           fill="#e65a45">
          <path
             id="path4661"
             d="m 5,35 h 4 v 2 H 5 Z" />
          <path
             id="path4663"
             d="m 20,35 h 12 v 2 H 20 Z" />
          <path
             id="path4665"
             d="m 12,35 h 5 v 2 h -5 z" />
          <path
             id="path4667"
             d="m 5,39 h 4 v 2 H 5 Z" />
          <path
             id="path4669"
             d="m 42,36 h 4 v 2 h -4 z" />
        </g>
        <path
           id="path4673"
           fill="#fccd81"
           d="m 62,37 h 2 v 8 h -2 a 2,2 0 0 1 -2,-2 v -4 a 2,2 0 0 1 2,-2 z" />
        <path
           id="path4675"
           fill="#fccd81"
           d="m 0,44 h 2 a 2,2 0 0 1 2,2 v 4 H 2 A 2,2 0 0 1 0,48 Z" />
        <path
           id="path4677"
           fill="#e65a45"
           d="m 36,32 h 2 v 18 h -2 z" />
        <path
           id="path4679"
           fill="#fccd81"
           d="M 58.935,22.144 A 4.976,4.976 0 0 0 54.292,19 H 6.64 A 3.007,3.007 0 0 0 3.7,21.412 L 2.02,29.8 2,33 h 60 v -3.192 z" />
        <g
           id="g4685"
           fill="#fef4e5">
          <path
             id="path4681"
             d="M 59.277,23 H 41 a 3,3 0 0 0 -3,3 v 7 h 24 v -3.192 z" />
          <path
             id="path4683"
             d="M 9,23 H 3.38 L 2.02,29.8 2,33 H 12 V 26 A 3,3 0 0 0 9,23 Z" />
        </g>
        <path
           id="path4687"
           fill="#fef4e5"
           d="M 33,23 H 17 a 3,3 0 0 0 -3,3 v 7 h 22 v -7 a 3,3 0 0 0 -3,-3 z" />
      </g>
      <g
         id="g4699">
        <circle
           id="circle4691"
           r="6"
           fill="#707c99"
           cy="50"
           cx="46" />
        <g
           id="g4697">
          <circle
             id="circle4693"
             r="6"
             fill="#707c99"
             cy="50"
             cx="17" />
          <path
             id="path4695"
             fill="#a4a8b3"
             d="m 16,49 h 2 v 2 h -2 z" />
        </g>
      </g>
      <path
         id="path4701"
         fill="#a4a8b3"
         d="m 45,49 h 2 v 2 h -2 z" />
    </g>
  </g>
</svg>
