<?xml version="1.0" encoding="UTF-8" standalone="no"?>
<svg
   xmlns:dc="http://purl.org/dc/elements/1.1/"
   xmlns:cc="http://creativecommons.org/ns#"
   xmlns:rdf="http://www.w3.org/1999/02/22-rdf-syntax-ns#"
   xmlns:svg="http://www.w3.org/2000/svg"
   xmlns="http://www.w3.org/2000/svg"
   width="500"
   height="250"
   viewBox="0 0 132.29166 66.145835"
   version="1.1"
   id="svg8">
  <defs
     id="defs2">
    <rect
       id="rect1838"
       height="36.466435"
       width="36.466435"
       y="11.09848"
       x="7.1347373" />
    <rect
       x="36.783534"
       y="5.9191895"
       width="39.32033"
       height="36.783534"
       id="rect8007" />
    <rect
       x="5.7077898"
       y="18.180368"
       width="32.132743"
       height="24.522356"
       id="rect7100" />
    <rect
       x="65.956682"
       y="3.382394"
       width="49.044713"
       height="48.621913"
       id="rect5371" />
    <rect
       x="33.261906"
       y="1.889881"
       width="32.127975"
       height="25.607887"
       id="rect952" />
    <rect
       x="23.718006"
       y="3.0238094"
       width="21.45015"
       height="20.127232"
       id="rect946" />
    <rect
       id="rect4359"
       height="25.607887"
       width="32.127975"
       y="1.889881"
       x="33.261906" />
    <rect
       id="rect7340"
       height="24.522356"
       width="32.132743"
       y="18.180368"
       x="5.7077898" />
  </defs>
  <metadata
     id="metadata5">
    <rdf:RDF>
      <cc:Work
         rdf:about="">
        <dc:format>image/svg+xml</dc:format>
        <dc:type
           rdf:resource="http://purl.org/dc/dcmitype/StillImage" />
        <dc:title></dc:title>
      </cc:Work>
    </rdf:RDF>
  </metadata>
  <g
     transform="matrix(0.11357243,0,0,0.11357243,64.913235,5.4639062)"
     id="icon_62_">
    <path
       id="path1784"
       fill="#f6b863"
       d="m 475.367,195.095 v 264.582 c 0.049,6.6 -2.742,12.903 -7.661,17.303 l -0.695,0.695 c -4.243,3.617 -9.641,5.595 -15.217,5.575 H 31.463 c -5.536,-10e-4 -10.89,-1.978 -15.099,-5.575 -0.287,-0.169 -0.526,-0.408 -0.695,-0.695 -4.956,-4.385 -7.791,-10.686 -7.785,-17.303 V 195.095 c -0.055,-5.882 2.196,-11.552 6.271,-15.794 1.661,-1.961 3.657,-3.613 5.893,-4.88 3.489,-1.909 7.403,-2.908 11.38,-2.905 h 420.361 c 6.598,0.119 12.873,2.879 17.421,7.661 3.952,4.361 6.147,10.033 6.157,15.918 z" />
    <path
       id="path1786"
       fill="#eaa14e"
       d="m 469.232,179.154 c -1.656,2.045 -227.483,181.639 -227.483,181.639 L 14.142,179.354 l 0.1,-0.094 v -0.1 L 228.861,4.569 c 7.49,-6.092 18.228,-6.092 25.719,0 z" />
    <path
       id="path1788"
       fill="#eeefee"
       d="M 421.219,57.415 V 217.82 L 241.726,360.793 62.132,217.626 V 57.415 Z" />
    <path
       id="path1790"
       fill="#eaa14e"
       d="m 467.677,476.968 c -0.202,0.252 -0.432,0.481 -0.684,0.684 L 264.804,342.777 283.309,327.873 Z" />
    <path
       id="path1792"
       fill="#eaa14e"
       d="M 218.541,342.677 16.352,477.634 c -0.297,-0.146 -0.538,-0.386 -0.684,-0.684 L 199.941,327.677 Z" />
    <g
       id="g1802"
       fill="#dbd8dd">
      <path
         id="path1794"
         d="M 101.912,99.517 H 381.333 V 111.64 H 101.912 Z" />
      <path
         id="path1796"
         d="m 101.912,146.275 h 279.421 v 12.123 H 101.912 Z" />
      <path
         id="path1798"
         d="m 101.912,193.039 h 279.421 v 12.123 H 101.912 Z" />
      <path
         id="path1800"
         d="m 148.841,239.796 h 185.57 v 12.123 h -185.57 z" />
    </g>
  </g>
  <text
     transform="matrix(3.7316008,0,0,3.7316008,-14.072781,-29.712077)"
     style="font-style:normal;font-variant:normal;font-weight:bold;font-stretch:normal;font-size:10.5833px;line-height:1.25;font-family:sans-serif;-inkscape-font-specification:'sans-serif Bold';white-space:pre;shape-inside:url(#rect1838);fill:#000000;fill-opacity:1;stroke:none;"
     id="text1836"
     xml:space="preserve"><tspan
       x="7.1347656"
       y="20.753121"><tspan
         style="font-style:normal;font-variant:normal;font-weight:bold;font-stretch:normal;font-family:sans-serif;-inkscape-font-specification:'sans-serif Bold'">G</tspan></tspan></text>
</svg>
