<?xml version="1.0" encoding="UTF-8" standalone="no"?>
<svg
   xmlns:dc="http://purl.org/dc/elements/1.1/"
   xmlns:cc="http://creativecommons.org/ns#"
   xmlns:rdf="http://www.w3.org/1999/02/22-rdf-syntax-ns#"
   xmlns:svg="http://www.w3.org/2000/svg"
   xmlns="http://www.w3.org/2000/svg"
   id="svg8"
   version="1.1"
   viewBox="0 0 132.29166 66.145835"
   height="250"
   width="500">
  <defs
     id="defs2">
    <rect
       id="rect7100"
       height="24.522356"
       width="32.132743"
       y="18.180368"
       x="5.7077898" />
    <rect
       id="rect5371"
       height="48.621913"
       width="49.044713"
       y="3.382394"
       x="65.956682" />
    <rect
       id="rect952"
       height="25.607887"
       width="32.127975"
       y="1.889881"
       x="33.261906" />
    <rect
       id="rect946"
       height="20.127232"
       width="21.45015"
       y="3.0238094"
       x="23.718006" />
    <rect
       x="33.261906"
       y="1.889881"
       width="32.127975"
       height="25.607887"
       id="rect4359" />
    <rect
       x="5.7077898"
       y="18.180368"
       width="32.132743"
       height="24.522356"
       id="rect7340" />
  </defs>
  <metadata
     id="metadata5">
    <rdf:RDF>
      <cc:Work
         rdf:about="">
        <dc:format>image/svg+xml</dc:format>
        <dc:type
           rdf:resource="http://purl.org/dc/dcmitype/StillImage" />
        <dc:title></dc:title>
      </cc:Work>
    </rdf:RDF>
  </metadata>
  <g
     transform="matrix(0.09897735,0,0,0.09897735,9.370762,8.9085359)"
     id="g7668">
    <path
       d="m 82.38,21.2 -0.03,54.61 h 0.03 l 349.37,0.44 0.77,-55.12 v -0.01 z"
       fill="#e5ab42"
       id="path7571" />
    <path
       d="m 390.34,436.01 c 49.53,-7.77 81.26,-19.72 81.26,-33.12 v 45.59 c 0,17.56 -54.42,32.62 -131.97,39.06 l -0.03,-0.39 v -45.2 c 18.34,-1.52 35.4,-3.53 50.74,-5.94 z"
       fill="#c79a83"
       id="path7573" />
    <path
       d="m 339.6,487.15 0.03,0.39 c -25.88,2.15 -54.34,3.34 -84.21,3.34 -31.09,0 -60.65,-1.29 -87.36,-3.6 l 0.06,-0.72 v -44.87 c 26.16,2.26 55.04,3.54 85.42,3.59 h 1.88 c 29.86,0 58.31,-1.19 84.18,-3.33 z"
       fill="#e1b7a3"
       id="path7575" />
    <path
       d="m 168.12,441.69 v 44.87 l -0.06,0.72 C 92.18,480.69 39.23,465.8 39.23,448.48 v -45.59 c 0,9.93 17.41,19.06 46.58,26.29 21.7,5.37 49.92,9.69 82.31,12.51 z"
       fill="#daaa79"
       id="path7577" />
    <path
       d="m 88.11,370.06 v 0.01 l -2.3,59.11 C 56.64,421.95 39.23,412.82 39.23,402.89 v -59.68 c 0,10.19 18.33,19.54 48.88,26.85 z"
       fill="#c2684f"
       id="path7579" />
    <path
       d="m 168.12,441.69 c -32.39,-2.82 -60.61,-7.14 -82.31,-12.51 l 2.3,-59.11 v -0.01 c 21.38,5.12 48.74,9.24 79.99,11.94 26.16,2.28 55.05,3.56 85.44,3.61 v 59.67 c -30.38,-0.05 -59.26,-1.33 -85.42,-3.59 z"
       fill="#c79a83"
       id="path7581" />
    <path
       d="m 390.34,376.52 v 59.49 c -15.34,2.41 -32.4,4.42 -50.74,5.94 -25.87,2.14 -54.32,3.33 -84.18,3.33 h -1.88 v -59.67 h 1.88 c 29.86,0 58.31,-1.19 84.18,-3.33 18.33,-1.53 35.37,-3.53 50.71,-5.94 z"
       fill="#daaa79"
       id="path7583" />
    <path
       d="m 471.6,343.21 v 59.68 c 0,13.4 -31.73,25.35 -81.26,33.12 v -59.49 l -0.03,-0.18 c 49.55,-7.76 81.29,-19.72 81.29,-33.13 z"
       fill="#c2684f"
       id="path7585" />
    <path
       d="m 471.6,235.42 v 48.12 c 0,13.36 -31.48,25.27 -80.68,33.04 v -0.57 l -1.71,-47.29 c 50.18,-7.76 82.39,-19.79 82.39,-33.3 z"
       fill="#c79a83"
       id="path7587" />
    <path
       d="m 471.6,283.54 v 59.67 c 0,13.41 -31.74,25.37 -81.29,33.13 -15.34,2.41 -32.38,4.41 -50.71,5.94 v -59.67 c 18.57,-1.54 35.82,-3.58 51.32,-6.03 49.2,-7.77 80.68,-19.68 80.68,-33.04 z"
       fill="#e1b7a3"
       id="path7589" />
    <path
       d="m 267.88,325.87 c 25.32,-0.28 49.47,-1.42 71.72,-3.26 v 59.67 c -25.87,2.14 -54.32,3.33 -84.18,3.33 h -1.88 C 223.15,385.56 194.26,384.28 168.1,382 l 0.02,-0.23 3.11,-59.16 c 25.87,2.14 54.32,3.33 84.19,3.33 q 6.27,0 12.46,-0.07 z"
       fill="#c2684f"
       id="path7591" />
    <path
       d="m 171.23,322.61 -3.11,59.16 -0.02,0.23 C 136.85,379.3 109.49,375.18 88.11,370.06 57.56,362.75 39.23,353.4 39.23,343.21 v -59.67 c 0,10.18 18.28,19.52 48.75,26.82 22.11,5.31 50.63,9.54 83.25,12.25 z"
       fill="#e1b7a3"
       id="path7593" />
    <path
       d="m 88.11,262.27 v 47.53 l -0.13,0.56 C 57.51,303.06 39.23,293.72 39.23,283.54 v -48.12 c 0,10.18 18.33,19.53 48.88,26.85 z"
       fill="#daaa79"
       id="path7595" />
    <path
       d="m 267.88,277.82 v 48.05 q -6.18,0.075 -12.46,0.07 c -29.87,0 -58.32,-1.19 -84.19,-3.33 -32.62,-2.71 -61.14,-6.94 -83.25,-12.25 l 0.13,-0.56 v -47.53 c 39.65,9.49 99.87,15.55 167.31,15.55 q 6.27,0 12.46,-0.07 z"
       fill="#c79a83"
       id="path7597" />
    <path
       d="m 390.92,316.01 v 0.57 c -15.5,2.45 -32.75,4.49 -51.32,6.03 -22.25,1.84 -46.4,2.98 -71.72,3.26 v -48.12 c 45.69,-0.51 87.57,-3.8 121.33,-9.03 z"
       fill="#daaa79"
       id="path7599" />
    <path
       d="m 59.93,21.2 a 20.761,20.761 0 0 0 -20.7,20.82 v 193.4 c 0,-9.53 16.01,-18.32 43.05,-25.4 L 82.38,21.2 Z"
       fill="#ec6437"
       id="path7601" />
    <path
       d="m 452.06,21.12 h -19.54 v 0.01 l -2.64,188.83 -0.1,0.39 c 25.63,6.85 41.04,15.26 41.79,24.37 l 1.2,-192.66 A 20.764,20.764 0 0 0 452.06,21.12 Z"
       fill="#ec6437"
       id="path7603" />
    <path
       d="m 82.28,210.02 c 39.43,-10.32 102.31,-17 173.14,-17 12.12,0 24.01,0.2 35.58,0.57 56.78,1.85 106.1,8.03 138.78,16.76 25.63,6.85 41.04,15.26 41.79,24.37 0.02,0.23 0.03,0.47 0.03,0.7 0,13.51 -32.21,25.54 -82.39,33.3 -33.76,5.23 -75.64,8.52 -121.33,9.03 q -6.18,0.075 -12.46,0.07 c -67.44,0 -127.66,-6.06 -167.31,-15.55 -30.55,-7.32 -48.88,-16.67 -48.88,-26.85 0,-9.53 16.01,-18.32 43.05,-25.4 z"
       fill="#e1b7a3"
       id="path7605" />
    <path
       d="m 291,212.04 c -12.03,-0.4 -24.57,-0.62 -37.46,-0.62 -90.88,0 -164.55,10.74 -164.55,24 0,13.26 73.67,24 164.55,24 12.89,0 25.43,-0.22 37.46,-0.63 72.82,-2.47 127.08,-12 127.08,-23.37 0,-11.37 -54.26,-20.9 -127.08,-23.38 z"
       fill="#3090fc"
       id="path7607" />
    <path
       d="m 324.26,76.26 q 0.03,0.57 0.03,1.14 a 23.275,23.275 0 0 1 -23.21,23.34 h -10.35 v -0.44 l -10,-45.75 v -0.49 h 20.35 a 23.265,23.265 0 0 1 23.18,22.2 z"
       fill="#6d7486"
       id="path7609" />
    <path
       d="m 290.73,100.3 v 0.44 h -20 v -0.44 l -10,-45.75 v -0.49 h 20 v 0.49 z"
       fill="#a7a9ac"
       id="path7611" />
    <path
       d="m 270.73,100.3 v 0.44 h -20 v -0.44 l -10,-45.75 v -0.49 h 20 v 0.49 z"
       fill="#ccd3df"
       id="path7613" />
    <path
       d="m 250.73,100.3 v 0.44 h -20 v -0.44 l -10,-45.75 v -0.49 h 20 v 0.49 z"
       fill="#a7a9ac"
       id="path7615" />
    <path
       d="m 230.73,100.3 v 0.44 h -20.35 a 23.34,23.34 0 0 1 0,-46.68 h 10.35 v 0.49 z"
       fill="#6d7486"
       id="path7617" />
    <path
       d="m 128.99,235.42 c 0,-12.268 63.062,-22.378 144.468,-23.822 q -9.8,-0.173 -19.918,-0.178 c -90.88,0 -164.55,10.74 -164.55,24 0,13.26 73.67,24 164.55,24 q 10.1,0 19.883,-0.179 C 192.034,257.793 128.99,247.677 128.99,235.42 Z"
       fill="#49bdff"
       id="path7619" />
    <path
       d="m 39.23,402.89 v 45.59 c 0,7.872 10.941,15.242 30,21.559 v -45.6 c -19.057,-6.313 -30,-13.679 -30,-21.549 z"
       fill="#fccb9d"
       id="path7621" />
    <path
       d="m 69.23,424.443 v -59.678 c -19.056,-6.316 -30,-13.684 -30,-21.555 v 59.68 c 0,7.87 10.943,15.236 30,21.553 z"
       fill="#ea917d"
       id="path7623" />
    <path
       d="M 69.23,364.765 V 305.1 c -19.056,-6.314 -30,-13.685 -30,-21.559 v 59.67 c 0,7.87 10.944,15.238 30,21.554 z"
       fill="#ffd7c7"
       id="path7625" />
    <path
       d="m 39.23,235.42 v 48.12 c 0,7.874 10.944,15.245 30,21.559 V 256.97 c -19.056,-6.32 -30,-13.687 -30,-21.55 z"
       fill="#f7c394"
       id="path7627" />
    <path
       d="m 285,101 h 12 v 158 h -12 z"
       fill="#4a5160"
       id="path7629" />
  </g>
  <g
     transform="matrix(0.1140028,0,0,0.1140028,67.793967,4.6505666)"
     id="flat">
    <path
       d="M 64,36.687 V 16 H 48 v 24 a 8,8 0 0 0 2.343,5.657 L 68.686,64 H 51.313 L 37.657,50.343 26.343,61.657 l 16,16 A 8,8 0 0 0 48,80 H 84.686 L 96,91.313 V 136 h 16 V 88 a 8,8 0 0 0 -2.343,-5.657 z"
       fill="#774b01"
       id="path7719" />
    <path
       d="M 202.343,50.343 188.687,64 H 171.314 L 189.657,45.657 A 8,8 0 0 0 192,40 V 16 H 176 V 36.687 L 130.343,82.343 A 8,8 0 0 0 128,88 v 48 h 16 V 91.313 L 155.314,80 H 192 a 8,8 0 0 0 5.657,-2.343 l 16,-16 z"
       fill="#774b01"
       id="path7721" />
    <path
       d="m 320,336 v 72 l 24,24 -8,56 h 24 l 16,-64 v -8 l -16,-16 v -64 z"
       fill="#c37c02"
       id="path7723" />
    <path
       d="m 240,344 v 16 l 8,128 h 24 V 360 344 Z"
       fill="#c37c02"
       id="path7725" />
    <path
       d="m 448,264 a 32,32 0 0 0 32,32 h 8 v 12 a 20,20 0 0 1 -20,20 20,20 0 0 1 -20,-20 z"
       fill="#fbd79a"
       id="path7727" />
    <path
       d="m 168,184 v 24 a 24,24 0 0 0 24,24 h 208 a 56,56 0 0 1 56,56 v 16 a 56,56 0 0 1 -56,56 v 32 l 32,32 -16,64 h -24 l 8,-48 -40,-40 V 360 H 216 V 488 H 192 L 176,360 A 56,56 0 0 1 120,304 V 184 Z"
       fill="#f69c03"
       id="path7729" />
    <path
       d="m 110.833,232 h 18.334 a 24,24 0 0 0 21.466,-13.267 L 168,184 V 136 A 16,16 0 0 0 152,120 H 88 a 16,16 0 0 0 -16,16 v 48 l 17.367,34.733 A 24,24 0 0 0 110.833,232 Z"
       fill="#f8b035"
       id="path7731" />
    <path
       d="M 72,136 H 56 A 32,32 0 0 1 24,104 h 16 a 32,32 0 0 1 32,32 z"
       fill="#f8b035"
       id="path7733" />
    <path
       d="m 168,136 h 16 a 32,32 0 0 0 32,-32 h -16 a 32,32 0 0 0 -32,32 z"
       fill="#f8b035"
       id="path7735" />
    <rect
       fill="#774b01"
       height="16"
       rx="8"
       width="16"
       x="96"
       y="144"
       id="rect7737" />
    <rect
       fill="#774b01"
       height="16"
       rx="8"
       width="16"
       x="128"
       y="144"
       id="rect7739" />
    <path
       d="m 96,216 a 24,24 0 0 1 24,-24 24,24 0 0 1 24,24 16,16 0 0 1 -16,16 H 112 A 16,16 0 0 1 96,216 Z"
       fill="#774b01"
       id="path7741" />
    <g
       fill="#fbd79a"
       id="g7757">
      <path
         d="m 192,256 h 16 v 16 h -16 z"
         id="path7743" />
      <path
         d="m 232,272 h 16 v 16 h -16 z"
         id="path7745" />
      <path
         d="m 272,248 h 16 v 16 h -16 z"
         id="path7747" />
      <path
         d="m 312,264 h 16 v 16 h -16 z"
         id="path7749" />
      <path
         d="m 352,248 h 16 v 16 h -16 z"
         id="path7751" />
      <path
         d="m 392,264 h 16 v 16 h -16 z"
         id="path7753" />
      <path
         d="m 368,296 h 16 v 16 h -16 z"
         id="path7755" />
    </g>
  </g>
</svg>
