<?xml version="1.0" encoding="UTF-8" standalone="no"?>
<svg
   xmlns:dc="http://purl.org/dc/elements/1.1/"
   xmlns:cc="http://creativecommons.org/ns#"
   xmlns:rdf="http://www.w3.org/1999/02/22-rdf-syntax-ns#"
   xmlns:svg="http://www.w3.org/2000/svg"
   xmlns="http://www.w3.org/2000/svg"
   width="500"
   height="250"
   viewBox="0 0 132.29166 66.145835"
   version="1.1"
   id="svg8">
  <defs
     id="defs2">
    <rect
       id="rect2909"
       height="20.927495"
       width="20.180084"
       y="7.1004001"
       x="9.3426317" />
    <rect
       id="rect1838"
       height="36.466435"
       width="36.466435"
       y="11.09848"
       x="7.1347373" />
    <rect
       x="36.783534"
       y="5.9191895"
       width="39.32033"
       height="36.783534"
       id="rect8007" />
    <rect
       x="5.7077898"
       y="18.180368"
       width="32.132743"
       height="24.522356"
       id="rect7100" />
    <rect
       x="65.956682"
       y="3.382394"
       width="49.044713"
       height="48.621913"
       id="rect5371" />
    <rect
       x="33.261906"
       y="1.889881"
       width="32.127975"
       height="25.607887"
       id="rect952" />
    <rect
       x="23.718006"
       y="3.0238094"
       width="21.45015"
       height="20.127232"
       id="rect946" />
    <rect
       id="rect4359"
       height="25.607887"
       width="32.127975"
       y="1.889881"
       x="33.261906" />
    <rect
       id="rect7340"
       height="24.522356"
       width="32.132743"
       y="18.180368"
       x="5.7077898" />
  </defs>
  <metadata
     id="metadata5">
    <rdf:RDF>
      <cc:Work
         rdf:about="">
        <dc:format>image/svg+xml</dc:format>
        <dc:type
           rdf:resource="http://purl.org/dc/dcmitype/StillImage" />
        <dc:title></dc:title>
      </cc:Work>
    </rdf:RDF>
  </metadata>
  <text
     transform="matrix(4.1400634,0,0,4.1400634,-26.09686,-19.481551)"
     style="font-style:normal;font-variant:normal;font-weight:bold;font-stretch:normal;font-size:10.5833px;line-height:1.25;font-family:sans-serif;-inkscape-font-specification:'sans-serif Bold';white-space:pre;shape-inside:url(#rect2909);fill:#000000;fill-opacity:1;stroke:none;"
     id="text2907"
     xml:space="preserve"><tspan
       x="9.3417969"
       y="16.755074"><tspan
         style="font-style:normal;font-variant:normal;font-weight:bold;font-stretch:normal;font-family:sans-serif;-inkscape-font-specification:'sans-serif Bold'">U</tspan></tspan></text>
  <g
     transform="matrix(0.11240908,0,0,0.11240908,62.682853,5.5181872)"
     id="g3227">
    <path
       d="M 94.441,278.994 22.713,347.245 179.991,415.5 244.3,313.957 Z"
       fill="#bed0e0"
       id="path3191" />
    <path
       d="M 351.436,445.318 488.151,210.43 c 5.625,-9.619 8.849,-20.814 8.849,-32.762 0,-35.897 -29.1,-64.998 -64.998,-64.998 -7.962,0 -17.448,2.547 -24.497,5.167 L 294.5,212.5 235.626,323.808 Z"
       fill="#bed0e0"
       id="path3193" />
    <path
       d="m 432.003,112.671 c -6.124,0 -13.145,1.508 -19.27,3.396 25.728,8.656 44.267,32.955 44.267,61.601 0,11.948 -3.224,23.142 -8.849,32.762 l -121.55,208.831 24.834,26.056 136.716,-234.887 c 5.625,-9.62 8.849,-20.814 8.849,-32.762 0,-35.897 -29.1,-64.997 -64.997,-64.997 z"
       fill="#aec2d4"
       id="path3195" />
    <path
       d="M 251.257,305.956 419.051,103.937 h 0.001 C 427.185,93.084 432.003,79.603 432.003,64.997 432.002,29.1 402.902,0 367.005,0 349.903,0 334.344,6.605 322.739,17.403 l 0.003,0.003 -201.201,165.163 z"
       fill="#bed0e0"
       id="path3197" />
    <path
       d="m 367.005,0 c -6.978,0 -13.692,1.116 -19.993,3.152 26.105,8.439 44.991,32.931 44.991,61.846 0,14.606 -4.818,28.086 -12.951,38.939 h -0.001 l -150.14,180.764 22.346,21.255 167.794,-202.019 h 0.001 C 427.185,93.084 432.003,79.604 432.003,64.998 432.003,29.1 402.902,0 367.005,0 Z"
       fill="#aec2d4"
       id="path3199" />
    <g
       id="g3225">
      <g
         id="g3207">
        <circle
           cx="179.991"
           cy="251.00101"
           fill="#e8f4ff"
           r="89.995003"
           id="circle3201" />
        <ellipse
           cx="179.991"
           cy="251.00101"
           fill="#889aa8"
           rx="64.996002"
           ry="64.995003"
           transform="matrix(0.16,-0.987,0.987,0.16,-96.6,388.462)"
           id="ellipse3203" />
        <path
           d="m 179.991,186.005 c -6.977,0 -13.695,1.118 -20,3.162 26.08,8.456 44.995,32.972 44.995,61.833 0,28.861 -18.915,53.377 -44.995,61.833 6.305,2.044 13.023,3.162 20,3.162 35.839,0 64.996,-29.157 64.996,-64.996 -0.001,-35.837 -29.157,-64.994 -64.996,-64.994 z"
           fill="#768a99"
           id="path3205" />
      </g>
      <g
         id="g3215">
        <circle
           cx="89.995003"
           cy="407.004"
           fill="#e8f4ff"
           r="89.995003"
           id="circle3209" />
        <ellipse
           cx="89.995003"
           cy="407.004"
           fill="#889aa8"
           rx="64.996002"
           ry="64.995003"
           transform="matrix(0.16,-0.987,0.987,0.16,-326.169,430.643)"
           id="ellipse3211" />
        <path
           d="m 89.995,342.009 c -6.977,0 -13.695,1.118 -20,3.162 26.08,8.457 44.995,32.972 44.995,61.833 0,28.861 -18.915,53.377 -44.995,61.833 6.305,2.044 13.023,3.162 20,3.162 35.839,0 64.996,-29.157 64.996,-64.996 0,-35.839 -29.157,-64.994 -64.996,-64.994 z"
           fill="#768a99"
           id="path3213" />
      </g>
      <g
         id="g3223">
        <circle
           cx="269.987"
           cy="407.004"
           fill="#e8f4ff"
           r="89.995003"
           id="circle3217" />
        <ellipse
           cx="269.987"
           cy="407.004"
           fill="#889aa8"
           rx="64.995003"
           ry="64.996002"
           transform="matrix(0.924,-0.383,0.383,0.924,-135.202,134.301)"
           id="ellipse3219" />
        <path
           d="m 269.987,342.009 c -6.977,0 -13.695,1.118 -20,3.162 26.08,8.457 44.995,32.972 44.995,61.833 0,28.861 -18.915,53.377 -44.995,61.833 6.305,2.044 13.023,3.162 20,3.162 35.838,0 64.995,-29.157 64.995,-64.996 0,-35.839 -29.157,-64.994 -64.995,-64.994 z"
           fill="#768a99"
           id="path3221" />
      </g>
    </g>
  </g>
</svg>
