<?xml version="1.0" encoding="UTF-8" standalone="no"?>
<svg
   xmlns:dc="http://purl.org/dc/elements/1.1/"
   xmlns:cc="http://creativecommons.org/ns#"
   xmlns:rdf="http://www.w3.org/1999/02/22-rdf-syntax-ns#"
   xmlns:svg="http://www.w3.org/2000/svg"
   xmlns="http://www.w3.org/2000/svg"
   id="svg8"
   version="1.1"
   viewBox="0 0 132.29166 66.145835"
   height="250"
   width="500">
  <defs
     id="defs2">
    <rect
       id="rect5371"
       height="48.621913"
       width="49.044713"
       y="3.382394"
       x="65.956682" />
    <rect
       id="rect952"
       height="25.607887"
       width="32.127975"
       y="1.889881"
       x="33.261906" />
    <rect
       id="rect946"
       height="20.127232"
       width="21.45015"
       y="3.0238094"
       x="23.718006" />
    <rect
       x="33.261906"
       y="1.889881"
       width="32.127975"
       height="25.607887"
       id="rect4359" />
  </defs>
  <metadata
     id="metadata5">
    <rdf:RDF>
      <cc:Work
         rdf:about="">
        <dc:format>image/svg+xml</dc:format>
        <dc:type
           rdf:resource="http://purl.org/dc/dcmitype/StillImage" />
        <dc:title></dc:title>
      </cc:Work>
    </rdf:RDF>
  </metadata>
  <g
     transform="matrix(0.10336809,0,0,0.10336809,7.9477075,7.0480515)"
     id="g5830">
    <path
       d="M 107,169.745 79.653,88.259 c -27.581,27.17 -37.674,28.509 -63.978,28.509 H 0.562 l 0.114,15.113 c 0.057,7.524 1.845,26.947 17.188,44.749 12.719,14.758 31.091,24.312 54.816,28.564 z"
       fill="#fc6363"
       id="path5810" />
    <path
       d="m 241.848,471.15 c -10.119,-2.409 -16.746,-8.318 -30.914,-11.584 -12.016,-2.77 -27.344,-2.774 -39.379,0 -14.106,3.251 -20.874,9.194 -30.915,11.584 -7.582,1.804 -18.681,1.811 -26.288,0 -10.064,-2.395 -16.783,-8.326 -30.916,-11.584 -12.016,-2.77 -27.344,-2.774 -39.378,0 -14.106,3.251 -20.875,9.194 -30.915,11.584 -3.546,0.844 -7.7,1.345 -13.144,1.345 v 30 c 28.277,0 37.026,-10.423 50.604,-13.655 7.582,-1.804 18.68,-1.81 26.288,0 10.12,2.408 16.747,8.318 30.915,11.584 12.016,2.77 27.344,2.774 39.379,0 14.106,-3.251 20.875,-9.194 30.915,-11.584 7.582,-1.804 18.681,-1.81 26.288,0 10.063,2.396 16.781,8.326 30.913,11.584 6.443,1.486 14.911,2.229 19.698,2.071 l 10,-15 -10,-15 c -0.002,0 -0.003,0 -0.004,0 -3.65,0.078 -8.893,-0.333 -13.147,-1.345 z"
       fill="#25d9f8"
       id="path5812" />
    <path
       d="m 331.886,488.84 c 10.065,2.395 16.783,8.326 30.916,11.584 12.017,2.77 27.346,2.774 39.381,0 14.107,-3.251 20.877,-9.195 30.917,-11.584 7.584,-1.804 18.685,-1.81 26.292,0 13.593,3.234 22.311,13.655 50.608,13.655 0,-10.492 0,-19.508 0,-30 -5.445,0 -9.6,-0.501 -13.146,-1.345 -13.593,-3.234 -22.311,-13.655 -50.608,-13.655 -28.28,0 -37.027,10.423 -50.608,13.655 -7.582,1.804 -18.683,1.811 -26.291,0 -10.064,-2.395 -16.782,-8.326 -30.916,-11.584 -12.016,-2.77 -27.345,-2.774 -39.38,0 -20.076,4.628 -22.345,12.927 -44.051,12.929 v 30 c 28.482,-0.002 36.743,-10.358 50.596,-13.655 7.583,-1.804 18.681,-1.81 26.29,0 z"
       fill="#00bdef"
       id="path5814" />
    <path
       d="m 161.77,398.929 -26.213,-1.877 c -2.359,0.286 -5.002,0.443 -8.049,0.443 -12.585,0 -18.28,-2.68 -25.49,-6.072 -8.453,-3.978 -18.973,-8.928 -38.264,-8.928 -19.291,0 -29.811,4.95 -38.264,8.928 -7.21,3.393 -12.905,6.072 -25.49,6.072 v 30 c 19.292,0 29.811,-4.95 38.264,-8.928 7.21,-3.393 12.905,-6.072 25.49,-6.072 12.586,0 18.281,2.68 25.491,6.072 8.453,3.978 18.972,8.928 38.264,8.928 28.886,0 37.225,-10.782 51.442,-13.841 z"
       fill="#25d9f8"
       id="path5816" />
    <path
       d="m 348.024,420.321 c 10.589,4.767 20.582,7.174 34.479,7.174 28.277,0 37.028,-10.424 50.605,-13.655 7.583,-1.804 18.681,-1.81 26.289,0 13.594,3.235 22.309,13.655 50.603,13.655 0,-10.492 0,-19.508 0,-30 -5.443,0 -9.598,-0.501 -13.144,-1.345 -10.062,-2.395 -16.767,-8.323 -30.914,-11.584 -9.58,-2.208 -20.604,-2.504 -29.63,-1.591 0,0 -89.604,36.754 -88.288,37.346 z"
       fill="#00bdef"
       id="path5818" />
    <path
       d="M 108.246,42.682 C 69.847,81.08 62.665,139.237 87.712,184.998 63.46,214.302 52.089,240.734 48.495,263.773 c -5.879,37.691 9.058,66.302 22.467,83.549 16.239,20.887 40.244,38.648 69.697,52.133 35.448,16.229 75.896,24.946 114.341,27.42 L 265,225.813 255,24.753 C 208.267,-3.527 147.671,3.256 108.246,42.682 Z"
       fill="#fad42b"
       id="path5820" />
    <path
       d="m 509.68,224.88 c -2.098,-45.665 -16.615,-83.804 -18.541,-91.146 l -3.647,-11.667 c -6.12,5.971 -11.38,11.102 -17.5,17.072 -18.611,18.157 -49.628,32.398 -83.08,41.579 -31.528,8.653 -65.222,12.81 -92.735,11.512 C 329.974,136.649 313.824,60.35 255,24.753 v 402.124 c 33.091,2.13 64.202,-0.379 92.196,-6.381 C 450.123,398.429 514.461,329.025 509.68,224.88 Z"
       fill="#fcbf00"
       id="path5822" />
    <path
       d="m 149.902,112.495 h 30 v 30 h -30 z"
       fill="#4b5586"
       id="path5824" />
    <path
       d="m 204.515,247.817 c -26.271,-3.005 -50.106,14.915 -54.18,40.904 -0.274,1.746 -0.462,3.544 -0.462,5.318 0,22.272 16.146,39.638 39.307,50.797 18.917,9.114 42.516,14.089 65.82,14.214 l 10,-49.012 -10,-49.013 c -11.43,-0.655 -34.327,-11.362 -50.485,-13.208 z"
       fill="#ff9200"
       id="path5826" />
    <path
       d="m 318.365,345.411 c 15.889,-8.933 27.538,-22.998 27.538,-41.372 0,-24.555 -20.216,-44.633 -45.263,-43.834 -5.733,0.184 -40.044,1.14 -45.641,0.82 v 98.025 c 21.149,0.116 44.856,-3.232 63.366,-13.639 z"
       fill="#ff6d00"
       id="path5828" />
  </g>
  <g
     transform="matrix(0.17093658,0,0,0.17093658,73.061702,8.183452)"
     id="g5947">
    <circle
       cx="167.855"
       cy="123"
       fill="#eaeaea"
       r="86"
       id="circle5903" />
    <path
       d="m 150,233 c 46.548,0 88.161,-31.115 115.855,-80 H 34.144 c 27.695,48.885 69.308,80 115.856,80 z"
       fill="#ffded5"
       id="path5905" />
    <g
       fill="#4c241d"
       id="g5919" />
    <g
       id="g5925">
      <path
         d="M 231.028,184.635 C 207.62,200.06 179.823,201 150,201 103.452,201 61.839,187.22 34.145,153 61.84,118.78 103.452,117 150,117 c 46.548,0 88.161,1.78 115.855,36"
         fill="#ffffff"
         id="path5921" />
      <path
         d="m 150,205 c -52.367,0 -92.391,-16.648 -118.965,-49.484 -1.188,-1.467 -1.188,-3.564 0,-5.031 C 59.14,115.76 99.785,113 150,113 c 50.215,0 90.859,2.76 118.965,37.484 1.391,1.717 1.125,4.234 -0.594,5.625 -1.719,1.393 -4.238,1.125 -5.625,-0.594 C 236.867,123.541 198.054,121 150,121 103.23,121 65.215,123.406 39.359,153.012 64.343,182.203 101.547,197 150,197 c 30.086,0 56.785,-1.182 78.828,-15.705 1.844,-1.217 4.324,-0.699 5.539,1.139 1.215,1.846 0.707,4.326 -1.141,5.541 C 209.336,203.719 181.398,205 150,205 Z"
         fill="#4c241d"
         id="path5923" />
    </g>
    <g
       id="g5931">
      <path
         d="m 105.624,118.741 c -7.35,9.475 -11.769,21.339 -11.769,34.259 0,18.751 9.25,35.308 23.4,45.471 C 127.8,200.175 138.751,201 150,201 c 10.308,0 20.366,-0.129 30.093,-0.913 15.482,-9.963 25.762,-27.309 25.762,-47.087 0,-12.937 -4.429,-24.815 -11.797,-34.296 C 180.116,117.221 165.335,117 150,117 c -15.452,0 -30.34,0.227 -44.376,1.741 z"
         fill="#bf7e68"
         id="path5927" />
      <path
         d="m 150,205 c -11.547,0 -22.781,-0.869 -33.383,-2.58 -0.613,-0.1 -1.191,-0.338 -1.695,-0.701 C 99.226,190.447 89.855,172.234 89.855,153 c 0,-13.383 4.359,-26.078 12.609,-36.711 0.664,-0.859 1.652,-1.41 2.73,-1.525 C 118.765,113.301 132.922,113 150,113 c 16.957,0 31.012,0.293 44.48,1.725 1.082,0.115 2.07,0.666 2.738,1.525 8.266,10.641 12.637,23.35 12.637,36.75 0,20.471 -10.316,39.33 -27.598,50.451 -0.555,0.357 -1.188,0.57 -1.844,0.623 C 170.32,204.889 159.832,205 150,205 Z m -31.164,-10.328 c 9.906,1.545 20.382,2.328 31.164,2.328 9.332,0 19.25,-0.102 28.758,-0.82 14.484,-9.705 23.098,-25.771 23.098,-43.18 0,-11.047 -3.43,-21.555 -9.941,-30.496 C 179.304,121.262 165.976,121 150,121 c -16.094,0 -29.523,0.268 -42.227,1.539 -6.496,8.934 -9.918,19.428 -9.918,30.461 0,16.355 7.824,31.861 20.981,41.672 z"
         fill="#4c241d"
         id="path5929" />
    </g>
    <circle
       cx="149.855"
       cy="153"
       fill="#6b4f5b"
       r="20"
       id="circle5933" />
    <path
       d="m 101.855,157 h -8 c -2.211,0 -4,-1.791 -4,-4 0,-2.209 1.789,-4 4,-4 h 8 c 2.211,0 4,1.791 4,4 0,2.209 -1.789,4 -4,4 z"
       fill="#4c241d"
       id="path5935" />
    <path
       d="m 205.855,157 h -8 c -2.211,0 -4,-1.791 -4,-4 0,-2.209 1.789,-4 4,-4 h 8 c 2.211,0 4,1.791 4,4 0,2.209 -1.789,4 -4,4 z"
       fill="#4c241d"
       id="path5937" />
    <circle
       cx="133.855"
       cy="137"
       fill="#ffffff"
       r="8"
       id="circle5939" />
    <g
       id="g5945">
      <path
         d="m 167.569,241.143 c 0,-9.862 -17.857,-32.143 -17.857,-32.143 0,0 -17.857,22.281 -17.857,32.143 0,9.862 7.995,17.857 17.857,17.857 9.862,0 17.857,-7.995 17.857,-17.857 z"
         fill="#26deeb"
         id="path5941" />
      <path
         d="m 149.711,263 c -12.051,0 -21.855,-9.805 -21.855,-21.857 0,-10.723 15.605,-30.74 18.734,-34.645 1.516,-1.895 4.727,-1.895 6.242,0 3.129,3.904 18.738,23.922 18.738,34.645 0,12.052 -9.805,21.857 -21.859,21.857 z m 0,-47.445 c -6.297,8.469 -13.855,20.346 -13.855,25.588 0,7.641 6.215,13.857 13.855,13.857 7.64,0 13.859,-6.217 13.859,-13.857 0,-5.241 -7.563,-17.12 -13.859,-25.588 z"
         fill="#4c241d"
         id="path5943" />
    </g>
  </g>
</svg>
