<?xml version="1.0" encoding="UTF-8" standalone="no"?>
<svg
   xmlns:dc="http://purl.org/dc/elements/1.1/"
   xmlns:cc="http://creativecommons.org/ns#"
   xmlns:rdf="http://www.w3.org/1999/02/22-rdf-syntax-ns#"
   xmlns:svg="http://www.w3.org/2000/svg"
   xmlns="http://www.w3.org/2000/svg"
   id="svg8"
   version="1.1"
   viewBox="0 0 132.29166 66.145835"
   height="250"
   width="500">
  <defs
     id="defs2">
    <rect
       id="rect952"
       height="25.607887"
       width="32.127975"
       y="1.889881"
       x="33.261906" />
    <rect
       id="rect946"
       height="20.127232"
       width="21.45015"
       y="3.0238094"
       x="23.718006" />
  </defs>
  <metadata
     id="metadata5">
    <rdf:RDF>
      <cc:Work
         rdf:about="">
        <dc:format>image/svg+xml</dc:format>
        <dc:type
           rdf:resource="http://purl.org/dc/dcmitype/StillImage" />
        <dc:title></dc:title>
      </cc:Work>
    </rdf:RDF>
  </metadata>
  <text
     xml:space="preserve"
     id="text950"
     style="font-style:normal;font-variant:normal;font-weight:bold;font-stretch:normal;font-size:10.5833px;line-height:1.25;font-family:sans-serif;-inkscape-font-specification:'sans-serif Bold';white-space:pre;shape-inside:url(#rect952);fill:#000000;fill-opacity:1;stroke:none;"
     transform="matrix(3.1462281,0,0,3.1462281,-27.698679,7.7188756)"><tspan
       x="33.261719"
       y="11.54609"><tspan>EL</tspan></tspan></text>
  <g
     transform="matrix(0.09612434,0,0,0.09612434,14.184964,8.6394161)"
     id="g1573">
    <path
       style="fill:#bfe1ff"
       d="m 442.579,260.115 c 43.699,-43.699 52.184,-111.157 20.576,-163.978 0.212,-0.212 0.212,-0.212 0.212,-0.212 -5.94,-9.757 -12.94,-18.88 -20.789,-26.729 C 421.365,47.983 393.576,34.195 363.24,30.588 321.875,25.709 281.145,39.711 251.66,69.196 l -42.426,42.426 c -34.79,34.79 -47.942,85.702 -34.578,131.311 0.848,4.243 11.03,32.243 14.848,33.941 5.728,9.545 12.305,18.243 19.729,25.667 15.273,15.273 33.305,25.668 52.396,32.032 v 0.425 l 29.91,40.517 56.639,-40.517 10e-4,-0.848 c 18.88,-6.153 36.911,-16.547 51.973,-31.609 z m -95.458,-10.607 -45.609,-18.88 -38.396,18.032 -0.849,0.425 c -10.607,-10.607 -17.606,-24.82 -18.455,-39.669 -0.848,-14.85 4.455,-30.759 18.457,-44.761 l 42.426,-42.426 c 23.122,-23.122 61.305,-22.698 84.64,0.212 0.212,0.212 0.212,0.212 0.425,0.425 24.394,24.394 22.485,61.519 -0.212,84.216 z"
       id="path1488" />
    <path
       style="fill:#a3d4ff"
       d="m 400.154,302.541 c -15.062,15.062 -33.093,25.456 -51.973,31.609 l -10e-4,0.848 -56.639,40.517 -29.91,-40.517 v -0.425 c -19.091,-6.364 -37.123,-16.759 -52.396,-32.032 l 53.881,-53.881 38.396,-18.032 45.609,18.88 42.426,-42.426 c 22.697,-22.697 24.607,-59.821 0.212,-84.216 -0.212,-0.212 -0.212,-0.212 -0.425,-0.425 l 53.245,-53.245 c 7.849,7.849 14.848,16.972 20.789,26.729 0,0 0,0 -0.212,0.212 31.607,52.821 23.123,120.279 -20.576,163.978 z"
       id="path1490" />
    <g
       id="g1496">
	<path
   style="fill:#65b1fc"
   d="m 348.18,334.998 c -28.002,9.334 -58.547,9.334 -86.549,0 l -41.366,41.366 c -28.002,28.002 -63.427,21.001 -84.64,-0.212 -21.426,-21.001 -28.637,-56.216 -0.212,-84.64 l 42.426,-42.426 c 23.123,-23.123 60.883,-22.698 84.428,0 l 0.637,0.637 c 21.213,20.789 56.428,27.576 84.217,-0.214 l 0.848,-0.848 c -2.758,-8.698 -6.788,-17.395 -11.667,-25.668 l 0.211,-0.211 c -5.939,-9.759 -13.152,-18.668 -21.001,-26.516 -14.849,-14.85 -32.456,-26.093 -52.184,-32.669 -8.698,-3.183 -17.818,-5.091 -26.941,-6.153 -20.577,-2.332 -40.941,-0.211 -59.609,6.154 -19.305,6.575 -37.123,17.606 -51.973,32.456 L 82.378,238.48 C 47.589,273.268 34.438,324.179 47.59,370 c 1.06,4.031 11.242,32.031 15.061,33.728 5.727,9.546 12.304,18.244 19.728,25.668 52.608,52.608 138.311,52.608 190.919,0 l 42.426,-42.426 c 15.062,-15.061 25.881,-33.092 32.456,-51.972 z"
   id="path1492" />

	<path
   style="fill:#65b1fc"
   d="M 503.25,50.953 379.364,174.838 c -11.667,11.667 -30.759,11.667 -42.426,0 -11.667,-11.667 -11.667,-30.759 0,-42.426 L 460.823,8.526 c 11.368,-11.368 31.058,-11.368 42.426,0 11.668,11.667 11.668,30.76 10e-4,42.427 z"
   id="path1494" />

</g>
    <g
       id="g1504">
	<path
   style="fill:#1689fc"
   d="M 336.938,174.838 503.25,8.526 c 11.667,11.667 11.667,30.759 0,42.426 L 379.364,174.838 c -11.667,11.667 -30.759,11.667 -42.426,0 z"
   id="path1498" />

	<path
   style="fill:#1689fc"
   d="m 262.904,249.722 -0.425,-0.425 53.033,-53.033 c 7.849,7.849 15.062,16.758 21.001,26.516 l -0.211,0.211 c 4.879,8.273 8.909,16.97 11.667,25.668 l -0.848,0.848 c -27.79,27.79 -63.004,21.003 -84.217,0.215 z"
   id="path1500" />

	<path
   style="fill:#1689fc"
   d="m 315.724,386.971 -42.426,42.426 c -52.608,52.608 -138.311,52.608 -190.919,0 l 53.245,-53.245 c 21.213,21.213 56.639,28.214 84.64,0.212 l 41.366,-41.366 c 28.002,9.334 58.547,9.334 86.549,0 -6.574,18.88 -17.393,36.911 -32.455,51.973 z"
   id="path1502" />

</g>
    <path
       style="fill:#bfe1ff"
       d="M 177.837,376.364 50.952,503.25 c -11.667,11.667 -30.76,11.667 -42.426,0 -11.368,-11.368 -11.368,-31.058 0,-42.426 L 135.412,333.938 c 11.667,-11.667 30.759,-11.667 42.426,0 11.667,11.667 11.667,30.759 -0.001,42.426 z"
       id="path1506" />
    <path
       style="fill:#a3d4ff"
       d="M 177.837,376.364 50.952,503.25 c -11.667,11.667 -30.76,11.667 -42.426,0 L 177.838,333.938 c 11.667,11.667 11.667,30.759 -0.001,42.426 z"
       id="path1508" />
    <g
       id="g1510">
</g>
    <g
       id="g1512">
</g>
    <g
       id="g1514">
</g>
    <g
       id="g1516">
</g>
    <g
       id="g1518">
</g>
    <g
       id="g1520">
</g>
    <g
       id="g1522">
</g>
    <g
       id="g1524">
</g>
    <g
       id="g1526">
</g>
    <g
       id="g1528">
</g>
    <g
       id="g1530">
</g>
    <g
       id="g1532">
</g>
    <g
       id="g1534">
</g>
    <g
       id="g1536">
</g>
    <g
       id="g1538">
</g>
  </g>
</svg>
