<?xml version="1.0" encoding="UTF-8" standalone="no"?>
<svg
   xmlns:dc="http://purl.org/dc/elements/1.1/"
   xmlns:cc="http://creativecommons.org/ns#"
   xmlns:rdf="http://www.w3.org/1999/02/22-rdf-syntax-ns#"
   xmlns:svg="http://www.w3.org/2000/svg"
   xmlns="http://www.w3.org/2000/svg"
   id="svg8"
   version="1.1"
   viewBox="0 0 132.29166 66.145835"
   height="250"
   width="500">
  <defs
     id="defs2">
    <rect
       id="rect8007"
       height="36.783534"
       width="39.32033"
       y="5.9191895"
       x="36.783534" />
    <rect
       id="rect7100"
       height="24.522356"
       width="32.132743"
       y="18.180368"
       x="5.7077898" />
    <rect
       id="rect5371"
       height="48.621913"
       width="49.044713"
       y="3.382394"
       x="65.956682" />
    <rect
       id="rect952"
       height="25.607887"
       width="32.127975"
       y="1.889881"
       x="33.261906" />
    <rect
       id="rect946"
       height="20.127232"
       width="21.45015"
       y="3.0238094"
       x="23.718006" />
    <rect
       x="33.261906"
       y="1.889881"
       width="32.127975"
       height="25.607887"
       id="rect4359" />
    <rect
       x="5.7077898"
       y="18.180368"
       width="32.132743"
       height="24.522356"
       id="rect7340" />
  </defs>
  <metadata
     id="metadata5">
    <rdf:RDF>
      <cc:Work
         rdf:about="">
        <dc:format>image/svg+xml</dc:format>
        <dc:type
           rdf:resource="http://purl.org/dc/dcmitype/StillImage" />
        <dc:title></dc:title>
      </cc:Work>
    </rdf:RDF>
  </metadata>
  <g
     transform="matrix(0.07593079,0,0,0.07593079,4.5651423,13.787644)"
     id="g8549">
    <path
       d="m 0,228.67 c 0,-11.055 11.564,-18.331 21.516,-13.517 21.755,10.523 28.665,35.383 61.315,35.383 41.416,0 41.416,-40 82.832,-40 41.415,0 41.415,40 82.831,40 41.416,0 41.416,-40 82.833,-40 41.418,0 41.418,40 82.837,40 26.995,0 36.395,-16.991 51.136,-28.826 3.09,-2.481 5.415,-1.735 9.186,-3.559 9.952,-4.813 21.515,2.463 21.515,13.517 l 1,85.435 -41.865,67.963 -391.7,0.357 L 0,317.104 Z"
       fill="#90d8f9"
       id="path8515" />
    <g
       id="g8519">
      <path
         d="m 475.485,215.152 c -3.771,1.824 -7.09,4.084 -10.181,6.565 1.073,2.049 1.696,4.398 1.696,6.953 v 168.4 l 30,-79.965 V 228.67 c 0,-11.055 -11.563,-18.331 -21.515,-13.518 z"
         fill="#75cef9"
         id="path8517" />
    </g>
    <path
       d="m 482,338.771 c -13.401,0 -7.466,-19.573 -15.001,-16.74 -15.754,5.922 -24.819,15.074 -52.836,15.074 -41.418,0 -41.418,-20 -82.837,-20 -41.417,0 -41.417,20 -82.833,20 -41.415,0 -41.415,-20 -82.831,-20 -41.416,0 -41.416,20 -82.832,20 -41.416,0 -41.416,-20 -82.831,-20 v 79.965 l 104.801,66.946 368.275,-16.98 z"
       fill="#75cef9"
       id="path8521" />
    <g
       id="g8525">
      <path
         d="m 89.567,141.774 c -10e-4,0 -10e-4,0 -0.002,0 -4.216,-0.001 -8.023,-2.501 -9.699,-6.37 -5.005,-11.544 -16.37,-19.003 -28.953,-19.003 -4.143,0 -7.5,-3.358 -7.5,-7.5 0,-4.142 3.357,-7.5 7.5,-7.5 15.7,0 30.113,7.871 38.654,20.602 8.542,-12.731 22.955,-20.602 38.655,-20.602 4.143,0 7.5,3.358 7.5,7.5 0,4.142 -3.357,7.5 -7.5,7.5 -12.583,0 -23.948,7.46 -28.954,19.005 -1.677,3.869 -5.485,6.368 -9.701,6.368 z"
         fill="#463c41"
         id="path8523" />
    </g>
    <g
       id="g8529">
      <path
         d="m 158.625,98.526 c -4.216,0 -8.023,-2.499 -9.701,-6.367 -5.005,-11.546 -16.37,-19.006 -28.953,-19.006 -4.143,0 -7.5,-3.358 -7.5,-7.5 0,-4.142 3.357,-7.5 7.5,-7.5 15.7,0 30.113,7.871 38.654,20.602 8.54,-12.731 22.954,-20.602 38.655,-20.602 4.143,0 7.5,3.358 7.5,7.5 0,4.142 -3.357,7.5 -7.5,7.5 -12.584,0 -23.949,7.46 -28.954,19.005 -1.678,3.869 -5.485,6.368 -9.701,6.368 z"
         fill="#463c41"
         id="path8527" />
    </g>
    <g
       id="g8533">
      <path
         d="m 197.28,160.837 c -4.216,0 -8.023,-2.499 -9.701,-6.366 -5.006,-11.546 -16.371,-19.006 -28.954,-19.006 -4.143,0 -7.5,-3.358 -7.5,-7.5 0,-4.142 3.357,-7.5 7.5,-7.5 15.7,0 30.114,7.871 38.655,20.602 8.541,-12.731 22.955,-20.602 38.654,-20.602 4.143,0 7.5,3.358 7.5,7.5 0,4.142 -3.357,7.5 -7.5,7.5 -12.583,0 -23.948,7.46 -28.954,19.005 -1.676,3.867 -5.482,6.367 -9.698,6.367 -0.001,0 -0.002,0 -0.002,0 z"
         fill="#463c41"
         id="path8531" />
    </g>
    <g
       id="g8537">
      <path
         d="m 467,322.032 v 79.965 l 30,-4.928 v -79.965 c -13.402,0 -22.465,2.095 -30,4.928 z"
         fill="#6bbef6"
         id="path8535" />
    </g>
    <path
       d="m 436.087,40.333 c 0,22.275 -8.058,39.333 -30.333,39.333 -3.452,0 -6.803,0.566 -10.001,-0.249 C 378.315,74.968 365.42,59.157 365.42,40.333 365.42,21.509 378.315,5.698 395.753,1.249 398.951,0.434 402.302,1 405.754,1 c 22.275,0 30.333,17.058 30.333,39.333 z"
       fill="#ffe282"
       id="path8539" />
    <path
       d="m 405.754,0 c -3.452,0 -6.802,0.436 -10,1.251 17.438,4.449 30.333,20.259 30.333,39.082 0,18.823 -12.895,34.633 -30.333,39.082 3.198,0.816 6.548,1.251 10,1.251 22.275,0 40.333,-18.058 40.333,-40.333 C 446.087,18.058 428.029,0 405.754,0 Z"
       fill="#fdda78"
       id="path8541" />
    <path
       d="m 490.728,408.842 c -13.401,0 -16.193,-9.679 -23.728,-6.846 -15.754,5.922 -24.819,15.074 -52.836,15.074 -41.418,0 -41.418,-20 -82.837,-20 -41.417,0 -41.417,20 -82.833,20 -41.415,0 -41.415,-20 -82.831,-20 -41.416,0 -41.416,20 -82.832,20 -41.416,0 -41.416,-20 -82.831,-20 V 482 c 0,8.284 6.716,15 15,15 h 447 c 8.284,0 15,-6.716 15,-15 z"
       fill="#90d8f9"
       id="path8543" />
    <g
       id="g8547">
      <path
         d="M 467,401.997 V 482 c 0,8.284 -6.716,15 -15,15 h 30 c 8.284,0 15,-6.716 15,-15 v -84.931 c -13.402,0 -22.465,2.095 -30,4.928 z"
         fill="#75cef9"
         id="path8545" />
    </g>
  </g>
  <g
     transform="matrix(0.07425465,0,0,0.07425465,47.243339,13.180278)"
     id="_x34_8_eye">
    <path
       d="M 256,124.089 C 74.97,127.31 0,256 0,256 0,256 74.97,384.69 256,387.911 437.031,384.69 512,256 512,256 512,256 437.031,127.31 256,124.089 Z"
       fill="#d8ecfe"
       id="path8738" />
    <path
       d="m 480.147,216.55 c 2.354,3.458 3.506,5.434 3.506,5.434 0,0 -74.969,128.69 -256,131.912 C 113.068,351.857 40.991,299.557 3.506,261.435 20.179,285.929 97.368,385.088 256,387.911 437.031,384.69 512,256 512,256 c 0,0 -10.116,-17.344 -31.853,-39.45 z"
       fill="#c4e2ff"
       id="path8740" />
    <circle
       cx="256"
       cy="256"
       fill="#0182fc"
       r="131.911"
       id="circle8742" />
    <path
       d="m 256,329.699 c -40.638,0 -73.7,-33.061 -73.7,-73.699 0,-40.639 33.061,-73.7 73.7,-73.7 40.638,0 73.699,33.061 73.699,73.7 0,40.638 -33.061,73.699 -73.699,73.699 z"
       fill="#465a61"
       id="path8744" />
    <path
       d="m 300.019,247.636 c -19.66,0 -35.655,-15.995 -35.655,-35.655 0,-19.661 15.995,-35.655 35.655,-35.655 19.66,0 35.655,15.995 35.655,35.655 -10e-4,19.66 -15.995,35.655 -35.655,35.655 z"
       fill="#d8ecfe"
       id="path8746" />
    <path
       d="m 330.706,147.278 c 14.622,21.24 23.189,46.971 23.189,74.706 0,72.853 -59.059,131.911 -131.911,131.911 -27.736,0 -53.467,-8.567 -74.706,-23.189 23.786,34.55 63.605,57.205 108.722,57.205 72.853,0 131.911,-59.059 131.911,-131.911 0,-45.117 -22.655,-84.937 -57.205,-108.722 z"
       fill="#0172fb"
       id="path8748" />
  </g>
  <g
     transform="matrix(0.07039782,0,0,0.07039782,93.089004,13.630904)"
     id="g8886">
    <path
       d="M 0.5,512 H 397.5625 V 103.10938 L 294.44922,0 H 0.5 Z m 0,0"
       fill="#e6e6e6"
       id="path8815" />
    <path
       d="M 397.5625,103.10938 H 294.44922 V 0"
       fill="#cccccc"
       id="path8817" />
    <path
       d="M 510.75391,191.92578 420.46094,412.61328 366.125,462.63672 362.43359,388.875 452.73047,168.1875 c 2.57422,-6.29688 9.78515,-9.32031 16.08203,-6.74609 l 35.19922,14.40625 c 6.29687,2.57421 9.32031,9.78125 6.74219,16.07812 z m 0,0"
       fill="#fc5f61"
       id="path8819" />
    <path
       d="M 486.41016,168.64453 366.125,462.63672 362.43359,388.875 452.73047,168.1875 c 2.57422,-6.29688 9.78515,-9.32031 16.08203,-6.74609 z m 0,0"
       fill="#e83842"
       id="path8821" />
    <path
       d="m 420.46094,412.61328 -54.33594,50.02344 -0.28906,-5.75 -3.40235,-68.01172 z m 0,0"
       fill="#545d68"
       id="path8823" />
    <path
       d="m 510.75391,191.92578 -17.48829,42.74609 -58.02343,-23.74218 17.48828,-42.74219 c 2.57422,-6.29688 9.78515,-9.32031 16.08203,-6.74609 l 35.19922,14.40625 c 6.29687,2.57421 9.32031,9.78125 6.74219,16.07812 z m 0,0"
       fill="#545d68"
       id="path8825" />
    <path
       d="m 484.14844,167.71875 -22.15625,54.15625 -26.75,-10.94531 17.48828,-42.74219 c 2.57422,-6.29688 9.78515,-9.32031 16.08203,-6.74609 z m 0,0"
       fill="#3b454f"
       id="path8827" />
    <path
       d="m 362.43359,388.875 26.75,10.94141 -23.34765,57.07031 z m 0,0"
       fill="#3b454f"
       id="path8829" />
    <g
       fill="#545d68"
       id="g8839">
      <path
         d="m 253.46484,93.394531 h -97.17187 c -4.32813,0 -7.83985,-3.511719 -7.83985,-7.839843 0,-4.328126 3.51172,-7.835938 7.83985,-7.835938 h 97.17187 c 4.32813,0 7.83594,3.507812 7.83594,7.835938 0,4.328124 -3.50781,7.839843 -7.83594,7.839843 z m 0,0"
         id="path8831" />
      <path
         d="M 115.23047,249.59766 H 53.273438 c -4.328126,0 -7.835938,-3.50782 -7.835938,-7.83594 v -61.95703 c 0,-4.32813 3.507812,-7.83594 7.835938,-7.83594 h 61.957032 c 4.32812,0 7.83594,3.50781 7.83594,7.83594 v 61.95703 c 0,4.32812 -3.50782,7.83594 -7.83594,7.83594 z M 61.113281,233.92578 H 107.39453 V 187.64062 H 61.113281 Z m 0,0"
         id="path8833" />
      <path
         d="M 337.05078,199.8125 H 169.35156 c -4.32812,0 -7.83594,-3.50781 -7.83594,-7.83594 0,-4.32812 3.50782,-7.83594 7.83594,-7.83594 h 167.69922 c 4.32813,0 7.83594,3.50782 7.83594,7.83594 0,4.32813 -3.50781,7.83594 -7.83594,7.83594 z m 0,0"
         id="path8835" />
      <path
         d="M 304.13672,237.42969 H 169.35156 c -4.32812,0 -7.83593,-3.51172 -7.83593,-7.83985 0,-4.32812 3.50781,-7.83593 7.83593,-7.83593 h 134.78516 c 4.32812,0 7.83594,3.50781 7.83594,7.83593 0,4.32813 -3.50782,7.83985 -7.83594,7.83985 z m 0,0"
         id="path8837" />
    </g>
    <path
       d="m 90.28125,223.13672 c -2.070312,0 -4.066406,-0.82031 -5.539062,-2.29297 L 69.773438,205.875 c -3.058594,-3.05859 -3.058594,-8.02344 0,-11.08203 3.0625,-3.0586 8.023437,-3.0586 11.082031,0 l 8.722656,8.72265 32.859375,-41.82421 c 2.67578,-3.40235 7.60156,-3.99219 11.00391,-1.32032 3.40234,2.67188 3.99609,7.60157 1.32031,11.00391 l -38.316408,48.76562 c -1.386718,1.76563 -3.457031,2.84766 -5.695312,2.98438 -0.15625,0.008 -0.3125,0.0117 -0.46875,0.0117 z m 0,0"
       fill="#fc5f61"
       id="path8841" />
    <path
       d="M 115.23047,352.51562 H 53.273438 c -4.328126,0 -7.835938,-3.50781 -7.835938,-7.83593 v -61.95703 c 0,-4.32813 3.507812,-7.83594 7.835938,-7.83594 h 61.957032 c 4.32812,0 7.83594,3.50781 7.83594,7.83594 v 61.95703 c 0,4.32812 -3.50782,7.83594 -7.83594,7.83593 z M 61.113281,336.83984 H 107.39453 V 290.55859 H 61.113281 Z m 0,0"
       fill="#545d68"
       id="path8843" />
    <path
       d="M 337.05078,302.73047 H 169.35156 c -4.32812,0 -7.83594,-3.51172 -7.83594,-7.83985 0,-4.32812 3.50782,-7.83593 7.83594,-7.83593 h 167.69922 c 4.32813,0 7.83594,3.50781 7.83594,7.83593 0,4.32813 -3.50781,7.83985 -7.83594,7.83985 z m 0,0"
       fill="#545d68"
       id="path8845" />
    <path
       d="m 219.50391,340.34375 h -50.15235 c -4.32812,0 -7.83594,-3.50781 -7.83594,-7.83594 0,-4.32812 3.50782,-7.83594 7.83594,-7.83594 h 50.15235 c 4.32812,0 7.83593,3.50782 7.83593,7.83594 0,4.32813 -3.50781,7.83594 -7.83593,7.83594 z m 0,0"
       fill="#545d68"
       id="path8847" />
    <path
       d="m 90.28125,326.05469 c -2.070312,0 -4.066406,-0.82032 -5.539062,-2.29688 l -14.96875,-14.96484 c -3.058594,-3.0625 -3.058594,-8.02344 0,-11.08203 3.0625,-3.0625 8.023437,-3.0625 11.082031,0 l 8.722656,8.71875 32.859375,-41.82031 c 2.67578,-3.40625 7.60156,-3.9961 11.00391,-1.32032 3.40234,2.67188 3.99609,7.59766 1.32031,11 l -38.316408,48.76953 c -1.386718,1.76172 -3.457031,2.84766 -5.695312,2.98047 -0.15625,0.0117 -0.3125,0.0156 -0.46875,0.0156 z m 0,0"
       fill="#fc5f61"
       id="path8849" />
    <path
       d="M 115.23047,455.42969 H 53.273438 c -4.328126,0 -7.835938,-3.50782 -7.835938,-7.83594 v -61.95703 c 0,-4.32813 3.507812,-7.83594 7.835938,-7.83594 h 61.957032 c 4.32812,0 7.83594,3.50781 7.83594,7.83594 v 61.95703 c 0,4.32812 -3.50782,7.83594 -7.83594,7.83594 z M 61.113281,439.75781 H 107.39453 V 393.47656 H 61.113281 Z m 0,0"
       fill="#545d68"
       id="path8851" />
    <path
       d="M 337.05078,405.64453 H 169.35156 c -4.32812,0 -7.83594,-3.50781 -7.83594,-7.83594 0,-4.32812 3.50782,-7.83593 7.83594,-7.83593 h 167.69922 c 4.32813,0 7.83594,3.50781 7.83594,7.83593 0,4.32813 -3.50781,7.83594 -7.83594,7.83594 z m 0,0"
       fill="#545d68"
       id="path8853" />
    <path
       d="m 311.97266,443.26172 h -142.6211 c -4.32812,0 -7.83594,-3.51172 -7.83594,-7.83985 0,-4.32812 3.50782,-7.83593 7.83594,-7.83593 h 142.6211 c 4.32812,0 7.83593,3.50781 7.83593,7.83593 0,4.32813 -3.50781,7.83985 -7.83593,7.83985 z m 0,0"
       fill="#545d68"
       id="path8855" />
  </g>
</svg>
