<?xml version="1.0" encoding="UTF-8" standalone="no"?>
<svg
   xmlns:dc="http://purl.org/dc/elements/1.1/"
   xmlns:cc="http://creativecommons.org/ns#"
   xmlns:rdf="http://www.w3.org/1999/02/22-rdf-syntax-ns#"
   xmlns:svg="http://www.w3.org/2000/svg"
   xmlns="http://www.w3.org/2000/svg"
   width="600"
   height="300"
   viewBox="0 0 158.75 79.375002"
   version="1.1"
   id="svg8">
  <defs
     id="defs2">
    <rect
       x="33.261906"
       y="1.889881"
       width="32.127975"
       height="25.607887"
       id="rect952" />
    <rect
       x="23.718006"
       y="3.0238094"
       width="21.45015"
       height="20.127232"
       id="rect946" />
  </defs>
  <metadata
     id="metadata5">
    <rdf:RDF>
      <cc:Work
         rdf:about="">
        <dc:format>image/svg+xml</dc:format>
        <dc:type
           rdf:resource="http://purl.org/dc/dcmitype/StillImage" />
        <dc:title></dc:title>
      </cc:Work>
    </rdf:RDF>
  </metadata>
  <g
     id="layer1">
    <g
       transform="matrix(0.13824988,0,0,0.13824988,5.6147265,5.0936688)"
       id="g21485">
      <path
         style="fill:#664b34"
         d="M 296.482,25.512 266.484,55.51 c -2.699,3.001 -6.599,4.501 -10.498,4.501 -3.899,0 -7.8,-1.5 -10.498,-4.501 L 215.49,25.512 c -6,-5.7 -6,-15.297 0,-20.998 5.7,-6 15.297,-6 20.998,0 l 19.499,19.198 19.5,-19.198 c 5.7,-6 15.297,-6 20.998,0 5.998,5.7 5.998,15.298 -0.003,20.998 z"
         id="path21367" />
      <path
         style="fill:#59422d"
         d="m 266.484,55.51 c -2.699,3.001 -6.599,4.501 -10.498,4.501 V 23.712 l 19.5,-19.198 c 5.7,-6 15.297,-6 20.998,0 6,5.7 6,15.297 0,20.998 z"
         id="path21369" />
      <path
         style="fill:#896748"
         d="m 255.986,30.013 c -41.398,0 -74.996,33.598 -74.996,74.996 0,13.8 3.9,24.599 11.399,32.098 13.499,13.199 33.898,12.899 55.797,12.899 h 22.799 c 19.199,0 36.597,-1.201 48.597,-12.899 7.5,-7.5 11.399,-18.299 11.399,-32.098 0,-41.398 -33.598,-74.996 -74.995,-74.996 z"
         id="path21371" />
      <g
         id="g21381">
	<path
   style="fill:#73553a"
   d="M 255.986,150.006 V 30.013 c 41.398,0 74.996,33.598 74.996,74.996 0,13.8 -3.9,24.599 -11.399,32.098 -12,11.698 -29.397,12.899 -48.597,12.899 z"
   id="path21373" />

	<path
   style="fill:#73553a"
   d="m 316.011,223.742 c -3.677,0 -7.354,-1.333 -10.253,-4.043 -6.05,-5.669 -6.357,-15.16 -0.703,-21.21 l 64.361,-68.756 -8.335,-83.227 c -0.439,-4.482 1.143,-8.92 4.321,-12.099 L 395.4,4.409 c 5.859,-5.859 15.351,-5.859 21.21,0 5.859,5.859 5.859,15.351 0,21.21 l -24.975,24.975 8.306,82.92 c 0.425,4.307 -1.025,8.584 -3.97,11.747 l -69.005,73.736 c -2.957,3.148 -6.956,4.745 -10.955,4.745 z"
   id="path21375" />

	<path
   style="fill:#73553a"
   d="m 436.004,479.987 c -3.838,0 -7.676,-1.465 -10.604,-4.395 l -29.998,-29.998 c -3.047,-3.047 -4.629,-7.251 -4.365,-11.542 l 7.09,-113.461 -93.013,-97.728 c -5.713,-6.006 -5.479,-15.497 0.527,-21.21 5.991,-5.684 15.482,-5.479 21.21,0.527 l 97.523,102.474 c 2.871,3.018 4.365,7.104 4.102,11.278 l -7.075,113.241 25.209,25.209 c 5.859,5.859 5.859,15.351 0,21.21 -2.93,2.93 -6.768,4.395 -10.606,4.395 z"
   id="path21377" />

	<path
   style="fill:#73553a"
   d="m 497.001,299.998 h -30.998 c -4.556,0 -8.861,-2.065 -11.718,-5.625 L 398.8,225.002 h -82.788 c -8.291,0 -14.999,-6.709 -14.999,-14.999 0,-8.291 6.709,-14.999 14.999,-14.999 h 89.995 c 4.556,0 8.861,2.065 11.718,5.625 L 473.21,270 h 23.792 c 8.291,0 14.999,6.709 14.999,14.999 -10e-4,8.29 -6.71,14.999 -15,14.999 z"
   id="path21379" />

</g>
      <g
         id="g21389">
	<path
   style="fill:#896748"
   d="m 196.004,223.742 c -3.999,0 -7.998,-1.597 -10.956,-4.746 L 116.043,145.26 c -2.944,-3.164 -4.395,-7.441 -3.97,-11.747 L 120.364,50.593 95.39,25.618 c -5.859,-5.859 -5.859,-15.351 0,-21.21 5.859,-5.859 15.351,-5.859 21.21,0 l 29.998,29.998 c 3.179,3.179 4.761,7.617 4.321,12.099 l -8.32,83.227 64.361,68.756 c 5.654,6.05 5.347,15.541 -0.703,21.21 -2.901,2.696 -6.577,4.044 -10.253,4.044 z"
   id="path21383" />

	<path
   style="fill:#896748"
   d="m 75.996,479.987 c -3.838,0 -7.676,-1.465 -10.604,-4.395 -5.859,-5.859 -5.859,-15.351 0,-21.21 L 90.6,429.174 83.525,315.933 c -0.264,-4.175 1.23,-8.262 4.102,-11.278 L 185.15,202.181 c 5.728,-5.991 15.233,-6.196 21.21,-0.527 6.006,5.713 6.24,15.204 0.527,21.21 l -93.013,97.728 7.09,113.461 c 0.264,4.292 -1.318,8.496 -4.365,11.542 l -29.998,29.998 c -2.93,2.929 -6.768,4.394 -10.605,4.394 z"
   id="path21385" />

	<path
   style="fill:#896748"
   d="M 45.997,299.998 H 14.999 C 6.709,299.998 0,293.289 0,284.999 0,276.708 6.709,270 14.999,270 h 23.792 l 55.485,-69.371 c 2.856,-3.56 7.163,-5.625 11.718,-5.625 h 89.995 c 8.291,0 14.999,6.709 14.999,14.999 0,8.291 -6.709,14.999 -14.999,14.999 h -82.788 l -55.485,69.371 c -2.857,3.559 -7.163,5.625 -11.719,5.625 z"
   id="path21387" />

</g>
      <path
         style="fill:#ff6200"
         d="m 255.986,120.008 c -41.398,0 -74.996,40.497 -74.996,89.995 0,49.496 33.598,89.995 74.996,89.995 41.398,0 74.996,-40.499 74.996,-89.995 -0.001,-49.498 -33.599,-89.995 -74.996,-89.995 z"
         id="path21391" />
      <path
         style="fill:#eb4f00"
         d="m 255.986,299.998 v -179.99 c 41.398,0 74.996,40.497 74.996,89.995 -0.001,49.496 -33.599,89.995 -74.996,89.995 z"
         id="path21393" />
      <path
         style="fill:#896748"
         d="m 357.38,404.091 c -11.699,50.098 -50.697,107.895 -101.394,107.895 -50.697,0 -89.695,-57.797 -101.394,-107.895 l 12.598,-12.899 -11.399,-45.896 c 2.1,-7.5 5.101,-14.4 8.701,-20.999 l 23.698,-13.499 -5.4,-10.799 c 18.899,-18.599 44.697,-29.998 73.196,-29.998 28.499,0 54.297,11.399 73.196,29.998 l -3.9,13.199 21.898,11.099 c 3.9,6.599 6.901,13.499 9,20.999 l -11.101,44.096 z"
         id="path21395" />
      <g
         id="g21401">
	<path
   style="fill:#ff6200"
   d="m 360.98,374.993 c 0,9.299 -1.199,19.199 -3.6,29.097 -25.2,28.498 -61.497,45.898 -101.394,45.898 -40.199,0 -76.496,-17.7 -101.394,-45.898 -2.401,-10.198 -3.6,-20.098 -3.6,-29.097 0,-10.5 2.1,-20.1 4.799,-29.698 13.199,43.797 53.098,74.696 100.195,74.696 46.797,0 86.996,-30.599 100.195,-74.696 2.699,9.598 4.799,19.198 4.799,29.698 z"
   id="path21397" />

	<path
   style="fill:#ff6200"
   d="m 347.179,324.296 c -24.299,22.499 -56.696,35.698 -91.194,35.698 -34.797,0 -66.895,-13.199 -91.495,-35.698 5.099,-9 11.099,-17.099 18.299,-24.299 19.199,18.899 45.297,29.998 73.196,29.998 27.899,0 53.997,-11.399 73.196,-29.998 7.2,6.899 13.2,15.3 17.998,24.299 z"
   id="path21399" />

</g>
      <path
         style="fill:#73553a"
         d="M 357.38,404.091 C 345.681,454.189 306.683,511.986 255.986,511.986 V 269.999 c 28.498,0 54.297,11.399 73.196,29.998 l -3.9,13.199 21.898,11.099 c 3.9,6.599 6.901,13.499 9,20.999 l -11.101,44.096 z"
         id="path21403" />
      <g
         id="g21409">
	<path
   style="fill:#eb4f00"
   d="m 347.179,324.296 c -24.299,22.499 -56.696,35.698 -91.194,35.698 v -29.998 c 27.898,0 53.997,-11.399 73.196,-29.998 7.2,6.898 13.2,15.299 17.998,24.298 z"
   id="path21405" />

	<path
   style="fill:#eb4f00"
   d="m 360.98,374.993 c 0,9.299 -1.199,19.199 -3.6,29.097 -25.2,28.498 -61.497,45.898 -101.394,45.898 V 419.99 c 46.797,0 86.996,-30.599 100.195,-74.696 2.699,9.599 4.799,19.199 4.799,29.699 z"
   id="path21407" />

</g>
      <g
         id="g21411">
</g>
      <g
         id="g21413">
</g>
      <g
         id="g21415">
</g>
      <g
         id="g21417">
</g>
      <g
         id="g21419">
</g>
      <g
         id="g21421">
</g>
      <g
         id="g21423">
</g>
      <g
         id="g21425">
</g>
      <g
         id="g21427">
</g>
      <g
         id="g21429">
</g>
      <g
         id="g21431">
</g>
      <g
         id="g21433">
</g>
      <g
         id="g21435">
</g>
      <g
         id="g21437">
</g>
      <g
         id="g21439">
</g>
    </g>
    <g
       transform="matrix(0.17178141,0,0,0.17178141,74.216479,-7.4359273)"
       id="flat">
      <path
         d="m 336,488 h 144 l -3.554,-24.879 a 60,60 0 0 0 -32.564,-45.18 L 296,344 H 216 L 68.118,417.941 a 60,60 0 0 0 -32.564,45.18 L 32,488 h 144"
         fill="#48351b"
         id="path26936" />
      <path
         d="m 424,488 v -32 a 8,8 0 0 1 16,0 v 32 z"
         fill="#332613"
         id="path26938" />
      <path
         d="m 216,344 -64,32 24,48 40,-32 z"
         fill="#5f4623"
         id="path26940" />
      <path
         d="m 208,488 h -32 l -24,-72 56,-24 z"
         fill="#6e5129"
         id="path26942" />
      <path
         d="m 296,344 64,32 -24,48 -40,-32 z"
         fill="#5f4623"
         id="path26944" />
      <path
         d="m 304,488 h 32 l 24,-72 -56,-24 z"
         fill="#6e5129"
         id="path26946" />
      <path
         d="m 296,312 v 19.64 c -0.08,0.06 -0.17,0.11 -0.25,0.17 A 70.9,70.9 0 0 1 216,331.64 V 312 Z"
         fill="#e6af89"
         id="path26948" />
      <path
         d="m 216,312 v 32 l -8,24 48,48 48,-48 -8,-24 v -32 z"
         fill="#fdc9a6"
         id="path26950" />
      <path
         d="m 296,312 v 19.64 c -0.08,0.06 -0.17,0.11 -0.25,0.17 A 70.9,70.9 0 0 1 216,331.64 V 312 Z"
         fill="#e6af89"
         id="path26952" />
      <path
         d="m 304,368 -48,48 -48,-48 v 120 h 96 z"
         fill="#026ca2"
         id="path26954" />
      <path
         d="m 72,488 v -32 a 8,8 0 0 1 16,0 v 32 z"
         fill="#332613"
         id="path26956" />
      <path
         d="m 152,200 v -72.022 a 57.888,57.888 0 0 1 16.955,-40.933 l 14.09,-14.09 A 57.888,57.888 0 0 1 223.978,56 h 44.245 A 57.889,57.889 0 0 1 320,88 44.846,44.846 0 0 1 357.313,107.969 16,16 0 0 1 360,116.844 V 200 Z"
         fill="#55300b"
         id="path26958" />
      <path
         d="M 256,328 A 70.9,70.9 0 0 1 190.173,283.433 198.156,198.156 0 0 1 176,209.837 V 152 l 24,-40.73 H 312 L 336,152 v 57.837 a 198.156,198.156 0 0 1 -14.173,73.6 A 70.9,70.9 0 0 1 256,328 Z"
         fill="#fdc9a6"
         id="path26960" />
      <g
         fill="#55300b"
         id="g26970">
        <path
           d="m 304,184 h -24 a 8,8 0 0 1 0,-16 h 24 a 8,8 0 0 1 0,16 z"
           id="path26962" />
        <circle
           cx="290"
           cy="202"
           r="10"
           id="circle26964" />
        <path
           d="m 232,184 h -24 a 8,8 0 0 1 0,-16 h 24 a 8,8 0 0 1 0,16 z"
           id="path26966" />
        <circle
           cx="222"
           cy="202"
           r="10"
           id="circle26968" />
      </g>
      <path
         d="m 272,280 h -32 a 8,8 0 0 1 0,-16 h 32 a 8,8 0 0 1 0,16 z"
         fill="#e6af89"
         id="path26972" />
      <path
         d="m 264,248 h -16 a 8,8 0 0 1 -8,-8 v -24 a 8,8 0 0 1 16,0 v 16 h 8 a 8,8 0 0 1 0,16 z"
         fill="#e6af89"
         id="path26974" />
      <path
         d="M 176,176 H 164.944 A 20.944,20.944 0 0 0 144,196.944 v 14.112 a 20.944,20.944 0 0 0 2.211,9.366 A 20.944,20.944 0 0 0 164.944,232 H 184 Z"
         fill="#fdc9a6"
         id="path26976" />
      <path
         d="m 336,176 h 11.056 A 20.944,20.944 0 0 1 368,196.944 v 14.112 a 20.944,20.944 0 0 1 -2.211,9.366 A 20.944,20.944 0 0 1 347.056,232 H 328 Z"
         fill="#fdc9a6"
         id="path26978" />
    </g>
  </g>
</svg>
