<?xml version="1.0" encoding="UTF-8" standalone="no"?>
<svg
   xmlns:dc="http://purl.org/dc/elements/1.1/"
   xmlns:cc="http://creativecommons.org/ns#"
   xmlns:rdf="http://www.w3.org/1999/02/22-rdf-syntax-ns#"
   xmlns:svg="http://www.w3.org/2000/svg"
   xmlns="http://www.w3.org/2000/svg"
   width="600"
   height="300"
   viewBox="0 0 158.75 79.375002"
   version="1.1"
   id="svg8">
  <defs
     id="defs2">
    <rect
       id="rect27647"
       height="49.177593"
       width="46.504898"
       y="14.967094"
       x="124.01306" />
    <rect
       x="33.261906"
       y="1.889881"
       width="32.127975"
       height="25.607887"
       id="rect952" />
    <rect
       x="23.718006"
       y="3.0238094"
       width="21.45015"
       height="20.127232"
       id="rect946" />
  </defs>
  <metadata
     id="metadata5">
    <rdf:RDF>
      <cc:Work
         rdf:about="">
        <dc:format>image/svg+xml</dc:format>
        <dc:type
           rdf:resource="http://purl.org/dc/dcmitype/StillImage" />
        <dc:title></dc:title>
      </cc:Work>
    </rdf:RDF>
  </metadata>
  <g
     id="layer1">
    <text
       transform="matrix(2.9622982,0,0,2.9622982,-297.3591,-23.596636)"
       style="font-style:normal;font-variant:normal;font-weight:bold;font-stretch:normal;font-size:10.5833px;line-height:1.25;font-family:'Arial Rounded MT Bold';-inkscape-font-specification:'Arial Rounded MT Bold, Bold';white-space:pre;shape-inside:url(#rect27647);fill:#000000;fill-opacity:1;stroke:none;"
       id="text27645"
       xml:space="preserve"><tspan
         x="124.01367"
         y="24.504025"><tspan
           style="font-style:normal;font-variant:normal;font-weight:bold;font-stretch:normal;font-family:'Arial Rounded MT Bold';-inkscape-font-specification:'Arial Rounded MT Bold,  Bold'">S</tspan></tspan></text>
    <g
       transform="matrix(0.09557743,0,0,0.09557743,9.7746989,18.344141)"
       id="g27983">
      <path
         d="M 265.678,18.693 505.385,146.466 423.09,163.595 169.384,133.451 36.53,45.092 Z"
         fill="#fcf3cd"
         id="path27946" />
      <g
         fill="#eed572"
         id="g27954">
        <path
           d="m 265.678,395.678 c 0,0 205.916,-47.519 209.084,-48.575 3.168,-1.056 23.232,-17.952 23.232,-17.952 l 7.392,-182.685 -234.428,49.631 z"
           id="path27948" />
        <path
           d="m 31.25,232.001 234.428,163.677 5.28,-199.58 L 36.53,45.092 Z"
           id="path27950" />
        <path
           d="m 89.505,349.887 c 49.278,35.199 68.99,80.255 59.135,135.166 C 145.388,493.791 43.016,464.792 25.09,463.933 6.239,463.03 -3.514,446.131 1.159,431.156 15.542,385.061 42.56,354.905 89.505,349.887 Z"
           id="path27952" />
      </g>
      <path
         d="m 35.602,77.936 c 20.108,29.59 45.085,66.616 64.831,96.756 39.664,60.542 45.882,9.772 68.951,62.129 23.069,52.357 5.507,122.165 83.304,125.339 4.364,0.178 9.003,0.316 13.866,0.398 L 270.958,196.098 36.53,45.092 Z"
         fill="#fee67b"
         id="path27956" />
      <path
         d="m 169.384,133.451 c 0,0 125.597,-21.351 156.996,0 31.399,21.351 96.71,30.143 96.71,30.143 l -56.519,102.989 c 0,0 -60.286,-10.048 -70.334,8.792 -10.048,18.84 -36.423,47.727 -36.423,47.727 l -25.119,-47.727 -37.679,-11.304 z"
         fill="#eed572"
         id="path27958" />
      <path
         d="m 191.192,130.221 c 42.512,43.137 -3.62,-1.042 54.35,39.293 57.971,40.335 51.351,5.431 50.695,32.403 -0.657,26.971 22.377,3.566 73.53,21.615 4.869,1.718 11.52,2.22 19.504,1.689 l 33.82,-61.627 c 0,0 -65.31,-8.792 -96.71,-30.143 -23.197,-15.773 -97.791,-8.242 -135.189,-3.23 z"
         fill="#fee67b"
         id="path27960" />
      <path
         d="m 352.932,146.503 c -9.868,-3.686 -19.152,-8.02 -26.552,-13.052 -31.399,-21.352 -156.996,0 -156.996,0 l 27.631,130.62 c 0,0 23.112,-9.324 48.527,-38.649 25.415,-29.325 22.45,81.851 73.528,-21.598 10.326,-20.912 22.427,-39.993 33.862,-57.321 z"
         fill="#feeb95"
         id="path27962" />
      <path
         d="m 89.505,349.888 c -30.823,3.295 -53.056,17.426 -68.762,39.791 2.893,8.93 6.824,17.973 11.694,27.119 7.332,13.769 26.166,18.854 40.138,6 6.385,-5.876 31.322,-21.177 54.934,-36.371 -9.688,-13.174 -22.347,-25.356 -38.004,-36.539 z"
         fill="#fee67b"
         id="path27964" />
    </g>
    <g
       transform="matrix(0.13659511,0,0,0.13659511,93.592058,5.1963)"
       id="g28162">
      <g
         id="g28118">
        <g
           id="g28080">
          <path
             d="m 256,303 h 44 l 98.846,21.665 C 426.379,330.7 446,355.086 446,383.274 V 469 h -66 v 33 H 256 132 V 469 H 66 V 383.274 C 66,355.087 85.621,330.7 113.154,324.665 L 212,303 Z"
             fill="#6e83b7"
             id="path28078" />
        </g>
        <g
           id="g28084">
          <path
             d="m 66,469 h 66 v 33 H 66 Z"
             fill="#ffd3b3"
             transform="rotate(180,99,485.5)"
             id="path28082" />
        </g>
        <g
           id="g28088">
          <path
             d="m 66,449 h 66 v 20 H 66 Z"
             fill="#466089"
             transform="rotate(180,99,459)"
             id="path28086" />
        </g>
        <g
           id="g28092">
          <path
             d="m 380,449 h 66 v 20 h -66 z"
             fill="#466089"
             id="path28090" />
        </g>
        <g
           id="g28096">
          <path
             d="m 380,469 h 66 v 33 h -66 z"
             fill="#ffd3b3"
             id="path28094" />
        </g>
        <g
           id="g28100">
          <path
             d="m 212,267 v 28 l 44,52 44,-52 v -28 z"
             fill="#ffd3b3"
             id="path28098" />
        </g>
        <g
           id="g28104">
          <path
             d="m 212,285.188 c 13.499,5.851 28.376,9.812 44,9.812 15.624,0 30.501,-3.961 44,-9.812 V 267 h -88 z"
             fill="#fcb98b"
             id="path28102" />
        </g>
        <g
           id="g28108">
          <path
             d="m 347,126 v 62 c 0,50.258 -40.742,91 -91,91 -50.258,0 -91,-40.742 -91,-91 v -62 z"
             fill="#ffd3b3"
             id="path28106" />
        </g>
        <g
           id="g28112">
          <path
             d="m 151,176 h 14 v -50 h -14 c -5.523,0 -10,4.477 -10,10 v 30 c 0,5.523 4.477,10 10,10 z"
             fill="#ffd3b3"
             id="path28110" />
        </g>
        <g
           id="g28116">
          <path
             d="m 361,176 h -14 v -50 h 14 c 5.523,0 10,4.477 10,10 v 30 c 0,5.523 -4.477,10 -10,10 z"
             fill="#ffd3b3"
             id="path28114" />
        </g>
      </g>
      <g
         id="g28122">
        <path
           d="M 256,347 205,387 194.004,306.944 212,295 Z"
           fill="#466089"
           id="path28120" />
      </g>
      <g
         id="g28126">
        <path
           d="m 256,347 51,40 10.996,-80.056 L 300,295 Z"
           fill="#466089"
           id="path28124" />
      </g>
      <g
         id="g28130">
        <path
           d="M 347,180.182 328.091,126 H 347 Z"
           fill="#6e83b7"
           id="path28128" />
      </g>
      <g
         id="g28134">
        <path
           d="M 165,180.182 183.909,126 H 165 Z"
           fill="#6e83b7"
           id="path28132" />
      </g>
      <g
         id="g28138">
        <path
           d="M 347,106 V 85 C 347,40.817 311.183,5 267,5 h -22 c -44.183,0 -80,35.817 -80,80 v 21 z"
           fill="#80d6fb"
           id="path28136" />
      </g>
      <g
         id="g28142">
        <path
           d="M 185,101 V 85 c 0,-33.084 26.916,-60 60,-60 h 22 c 33.084,0 60,26.916 60,60 v 16 z"
           fill="#edeff1"
           id="path28140" />
      </g>
      <g
         id="g28146">
        <path
           d="m 256,94 c -33.189,0.05 -66.387,3.93 -100,12 v 20 h 200 c 0,-7 0,-13 0,-20 C 322.387,97.93 289.189,94.05 256,94 Z"
           fill="#46bee8"
           id="path28144" />
      </g>
      <g
         id="g28150">
        <path
           d="m 249,347 h 14 v 59 h -14 z"
           fill="#466089"
           id="path28148" />
      </g>
      <path
         d="m 331.845,309.98 -3.499,28.941 c -4.479,37.062 -24.354,70.927 -54.528,92.912 L 256,444.813 238.182,431.832 c -30.174,-21.984 -50.049,-55.85 -54.528,-92.912 l -3.499,-28.941 -9.813,2.151 3.384,27.99 c 4.812,39.807 26.158,76.181 58.567,99.793 L 256,457.187 279.707,439.915 c 32.409,-23.613 53.756,-59.986 58.567,-99.793 l 3.384,-27.99 z"
         fill="#466089"
         id="path28152" />
      <g
         id="g28156">
        <path
           d="m 256,442 c -11.046,0 -20,8.954 -20,20 0,11.046 8.954,20 20,20 1.674,0 3.292,-0.228 4.846,-0.616 L 266,502 h 10 v -40 c 0,-11.046 -8.954,-20 -20,-20 z"
           fill="#ffe352"
           id="path28154" />
      </g>
      <g
         id="g28160">
        <circle
           cx="256"
           cy="462"
           fill="#ffb236"
           r="13"
           id="circle28158" />
      </g>
    </g>
  </g>
</svg>
