<?xml version="1.0" encoding="UTF-8" standalone="no"?>
<svg
   xmlns:dc="http://purl.org/dc/elements/1.1/"
   xmlns:cc="http://creativecommons.org/ns#"
   xmlns:rdf="http://www.w3.org/1999/02/22-rdf-syntax-ns#"
   xmlns:svg="http://www.w3.org/2000/svg"
   xmlns="http://www.w3.org/2000/svg"
   width="128"
   height="128"
   viewBox="0 0 33.866666 33.866668"
   version="1.1"
   id="svg1693">
  <defs
     id="defs1687">
    <rect
       x="307.67264"
       y="86.178574"
       width="223.91159"
       height="72.456772"
       id="rect9367" />
    <rect
       x="307.67264"
       y="86.178574"
       width="223.91159"
       height="72.456772"
       id="rect2927" />
  </defs>
  <metadata
     id="metadata1690">
    <rdf:RDF>
      <cc:Work
         rdf:about="">
        <dc:format>image/svg+xml</dc:format>
        <dc:type
           rdf:resource="http://purl.org/dc/dcmitype/StillImage" />
        <dc:title></dc:title>
      </cc:Work>
    </rdf:RDF>
  </metadata>
  <g
     id="layer1">
    <text
       xml:space="preserve"
       id="text9365"
       style="font-style:normal;font-variant:normal;font-weight:bold;font-stretch:normal;font-size:16.1882px;line-height:1.25;font-family:sans-serif;-inkscape-font-specification:'sans-serif Bold';white-space:pre;shape-inside:url(#rect9367);fill:#000000;fill-opacity:1;stroke:none;"
       transform="matrix(0.17835994,0,0,0.17835994,-53.286021,-11.617783)"><tspan
         x="307.67188"
         y="100.94672"><tspan
           style="shape-inside:url(#rect9367)">World's longest
</tspan></tspan><tspan
         x="307.67188"
         y="121.18197"><tspan
           style="shape-inside:url(#rect9367)">French fry is
</tspan></tspan><tspan
         x="307.67188"
         y="141.41722"><tspan
           style="shape-inside:url(#rect9367)">34 inches long</tspan></tspan></text>
    <g
       transform="matrix(0.21728569,0,0,0.21728569,9.4553567,18.690877)"
       id="g9480">
      <path
         d="m 52.77,27.27 a 21.76,21.76 0 0 0 -41.54,0 L 11,28 19,61 h 26 l 8,-33 z"
         fill="#4891d3"
         id="path9415" />
      <path
         d="m 27.23,49.5 -2.9,-2.75 33.06,-34.8 2.83,-0.07 0.76,2.1 z"
         fill="#e59730"
         id="path9417" />
      <path
         d="M 35,53 H 29 V 5 l 3,-2 3,1 z"
         fill="#fcbc04"
         id="path9419" />
      <path
         d="m 35,28 -3,5 V 3 l 3,1 z"
         fill="#f9e109"
         id="path9421" />
      <path
         d="M 37.7,53.15 31.79,52.11 40.13,4.84 43.26,4.37 46.21,4.89 Z"
         fill="#fcbc04"
         id="path9423" />
      <path
         d="M 40.68,18.05 43.26,4.37 40.13,4.84 36.51,25.36 Z"
         fill="#f9e109"
         id="path9425" />
      <path
         d="M 25.18,49.35 30.41,52.28 53.85,10.39 52.2,7.18 49.1,6.59 Z"
         fill="#f9e109"
         id="path9427" />
      <path
         d="M 53.85,10.39 52.2,7.18 51.93,7.13 27.62,50.72 l 2.79,1.56 z"
         fill="#fcbc04"
         id="path9429" />
      <path
         d="M 33.44,55.72 27.58,57.05 17,10.23 19.49,7.62 22.64,7.93 Z"
         fill="#fcbc04"
         id="path9431" />
      <path
         d="M 33.44,55.72 30.7,56.34 19.49,7.62 22.64,7.93 Z"
         fill="#f9e109"
         id="path9433" />
      <path
         d="M 25.46,56.61 21.6,57.65 9.06,11.32 10.47,8.87 12.66,9.31 Z"
         fill="#e59730"
         id="path9435" />
      <path
         d="M 10.47,8.87 12,15 13.73,13.27 12.66,9.31 Z"
         fill="#fcbc04"
         id="path9437" />
      <path
         d="M 27.69,54 18.64,13.93 15.49,13.62 13,16.23 21.54,54 Z"
         fill="#fcbc04"
         id="path9439" />
      <path
         d="M 27.69,54 18.64,13.93 15.49,13.62 24.76,54 Z"
         fill="#f9e109"
         id="path9441" />
      <path
         d="m 46,28 a 14,14 0 0 1 -28,0 h -7 l 8,33 h 26 l 8,-33 z"
         fill="#aae1f9"
         id="path9443" />
      <path
         d="M 38.73,56 A 20,20 0 0 1 19.29,40.71 L 16.21,28 H 11 l 8,33 h 26 l 1.21,-5 z"
         fill="#57b7eb"
         id="path9445" />
      <circle
         cx="32"
         cy="51"
         fill="#f8664f"
         r="5"
         id="circle9447" />
      <path
         d="M 27.2,52.32 A 5,5 0 0 0 32,56 a 4.92,4.92 0 0 0 2.2,-0.53 19.9,19.9 0 0 1 -7,-3.15 z"
         fill="#cc5144"
         id="path9449" />
      <path
         d="m 48,25 -0.3,2.95 13.28,-13.97 -0.76,-2.1 z"
         fill="#fcbc04"
         id="path9451" />
    </g>
  </g>
</svg>
