<?xml version="1.0" encoding="UTF-8" standalone="no"?>
<svg
   xmlns:dc="http://purl.org/dc/elements/1.1/"
   xmlns:cc="http://creativecommons.org/ns#"
   xmlns:rdf="http://www.w3.org/1999/02/22-rdf-syntax-ns#"
   xmlns:svg="http://www.w3.org/2000/svg"
   xmlns="http://www.w3.org/2000/svg"
   id="svg1693"
   version="1.1"
   viewBox="0 0 33.866666 33.866668"
   height="128"
   width="128">
  <defs
     id="defs1687">
    <rect
       id="rect9278"
       height="42.433125"
       width="208.01672"
       y="86.178574"
       x="307.67264" />
    <rect
       id="rect2265"
       height="42.433125"
       width="208.01672"
       y="86.178574"
       x="307.67264" />
    <rect
       x="307.67264"
       y="86.178574"
       width="145.14284"
       height="44.601189"
       id="rect9286" />
    <rect
       x="307.67264"
       y="86.178574"
       width="145.14284"
       height="44.601189"
       id="rect2268" />
    <rect
       id="rect9294"
       height="44.601189"
       width="145.14284"
       y="86.178574"
       x="307.67264" />
    <rect
       id="rect2271"
       height="44.601189"
       width="145.14284"
       y="86.178574"
       x="307.67264" />
  </defs>
  <metadata
     id="metadata1690">
    <rdf:RDF>
      <cc:Work
         rdf:about="">
        <dc:format>image/svg+xml</dc:format>
        <dc:type
           rdf:resource="http://purl.org/dc/dcmitype/StillImage" />
        <dc:title></dc:title>
      </cc:Work>
    </rdf:RDF>
  </metadata>
  <g
     id="layer1">
    <text
       transform="matrix(0.16613717,0,0,0.16613717,-49.057206,-7.837696)"
       style="font-style:normal;font-variant:normal;font-weight:bold;font-stretch:normal;font-size:16.1882px;line-height:1.25;font-family:sans-serif;-inkscape-font-specification:'sans-serif Bold';white-space:pre;shape-inside:url(#rect9278);fill:#000000;fill-opacity:1;stroke:none;"
       id="text9276"
       xml:space="preserve"><tspan
         x="307.67188"
         y="100.94672"><tspan
           style="shape-inside:url(#rect9278)">Name the country?</tspan></tspan></text>
    <g
       transform="matrix(0.58760748,0,0,0.58760748,-188.76031,-97.561171)"
       id="g9363">
      <text
         transform="matrix(0.76117266,0,0,0.76117266,94.280529,134.51593)"
         style="font-style:normal;font-variant:normal;font-weight:bold;font-stretch:normal;font-size:22.5778px;line-height:1.25;font-family:sans-serif;-inkscape-font-specification:'sans-serif Bold';white-space:pre;shape-inside:url(#rect9286);fill:#000000;fill-opacity:1;stroke:none;"
         id="text9284"
         xml:space="preserve"><tspan
           x="307.67188"
           y="106.77615"><tspan>J</tspan></tspan></text>
      <text
         xml:space="preserve"
         id="text9292"
         style="font-style:normal;font-variant:normal;font-weight:bold;font-stretch:normal;font-size:22.5778px;line-height:1.25;font-family:sans-serif;-inkscape-font-specification:'sans-serif Bold';white-space:pre;shape-inside:url(#rect9294);fill:#000000;fill-opacity:1;stroke:none;"
         transform="matrix(0.76117266,0,0,0.76117266,106.18678,133.382)"><tspan
           x="307.67188"
           y="106.77615"><tspan>+</tspan></tspan></text>
      <g
         id="Flat"
         transform="matrix(0.03640402,0,0,0.03640402,356.91851,200.19975)">
        <path
           id="path9319"
           fill="#c4d4e0"
           d="m 478.06006,41.93994 a 33.944,33.944 0 0 0 -48,0 l -24.49,24.49 a 81.26777,81.26777 0 0 0 -19.64014,31.78 L 382.07007,109.79 a 80.72606,80.72606 0 0 1 -7.97009,17.04 81.3402,81.3402 0 0 1 -55.79993,37.45 L 296,168 l 64,64 v -17.74 a 73.06242,73.06242 0 0 1 45.91992,-67.83008 l 12.16016,-4.85986 A 73.19509,73.19509 0 0 0 442.6,125.3999 l 35.46008,-35.46 a 33.944,33.944 0 0 0 0,-48 z M 456,72 a 8,8 0 1 1 8,-8 7.9979,7.9979 0 0 1 -8,8 z" />
        <path
           id="path9321"
           fill="#e44b4d"
           d="M 46.63779,397.40925 60.9221,413.71037 A 146.07553,146.07553 0 0 0 188.904,462.387 l 14.4075,-1.80094 A 202.94418,202.94418 0 0 0 354.34426,359.89755 l 9e-5,-1.7e-4 a 146.07536,146.07536 0 0 0 -6.696,-155.57655 v -8e-5 z" />
        <path
           id="path9323"
           fill="#395166"
           d="m 284.91992,379.78 a 0.75985,0.75985 0 0 1 -0.10986,0.0798 266.55491,266.55491 0 0 1 -36.55005,22.75 264.87679,264.87679 0 0 1 -44.84,18.26026 C 129.45,443.27 58.57,427.60986 33.26,378.60986 2.85,319.73 49.79,235.01 138.11,189.39014 c 88.32,-45.63013 184.57995,-34.89014 215,24 C 378.99,263.48 348.87,332.27 284.91992,379.78 Z" />
        <path
           id="path9325"
           fill="#2f4054"
           d="m 284.91992,379.78 a 0.75985,0.75985 0 0 1 -0.10986,0.0798 266.55491,266.55491 0 0 1 -36.55005,22.75 264.87679,264.87679 0 0 1 -44.84,18.26026 c -48.32,11.53979 -92.34,0.93994 -108.86,-30.04 C 72.73,349.89014 107.17,288.8999 171.5,254.58984 c 64.32,-34.30981 134.16992,-28.92993 156,12 C 345.03,299.45 326.28,345.25 284.91992,379.78 Z" />
        <g
           id="g9331"
           fill="#a6b2bc">
          <circle
             id="circle9327"
             r="8"
             cy="200"
             cx="296" />
          <circle
             id="circle9329"
             r="8"
             cy="216"
             cx="328" />
        </g>
      </g>
    </g>
  </g>
</svg>
