<?xml version="1.0" encoding="UTF-8" standalone="no"?>
<svg
   xmlns:dc="http://purl.org/dc/elements/1.1/"
   xmlns:cc="http://creativecommons.org/ns#"
   xmlns:rdf="http://www.w3.org/1999/02/22-rdf-syntax-ns#"
   xmlns:svg="http://www.w3.org/2000/svg"
   xmlns="http://www.w3.org/2000/svg"
   xml:space="preserve"
   style="enable-background:new 0 0 512 512;"
   viewBox="0 0 512 512"
   y="0px"
   x="0px"
   id="Capa_1"
   version="1.1"><metadata
   id="metadata149"><rdf:RDF><cc:Work
       rdf:about=""><dc:format>image/svg+xml</dc:format><dc:type
         rdf:resource="http://purl.org/dc/dcmitype/StillImage" /><dc:title></dc:title></cc:Work></rdf:RDF></metadata><defs
   id="defs147" />

<path
   id="path4"
   d="M424.532,448.699c-45.025,39.414-103.988,63.3-168.532,63.3s-123.507-23.886-168.532-63.3  c15.067-41.535,51.785-72.673,96.507-79.809c6.374-1.014,12.925-1.546,19.592-1.546h104.866c6.677,0,13.218,0.533,19.602,1.546  C372.757,376.016,409.475,407.164,424.532,448.699z"
   style="fill:#FFCF4B;" />
<path
   id="path6"
   d="M114.678,448.699c15.067-41.535,51.785-72.673,96.507-79.809c6.374-1.014,12.925-1.546,19.592-1.546  h-27.209c-6.666,0-13.218,0.533-19.592,1.546c-44.722,7.137-81.439,38.275-96.507,79.809c6.864,6.008,14.055,11.651,21.536,16.907  C111.087,459.78,113.029,454.106,114.678,448.699z"
   style="fill:#EFAA3A;" />
<path
   id="path8"
   d="M135.379,234.747L135.379,234.747c-2.847,0-5.156-2.308-5.156-5.156v-3.608  c0-2.847,2.308-5.156,5.156-5.156l0,0c2.847,0,5.156,2.308,5.156,5.156v3.608C140.535,232.439,138.226,234.747,135.379,234.747z"
   style="fill:#6E7789;" />
<path
   id="path10"
   d="M328.034,368.888v3.393c0,39.723-32.313,72.037-72.026,72.037c-11.887,0-23.67-2.966-34.079-8.563  c-6.128-3.266-11.829-7.501-16.86-12.534c-11.875-11.875-19.262-27.594-20.797-44.27c-0.208-2.354-0.3-4.559-0.3-6.671v-3.393  c6.382-1.016,12.925-1.546,19.596-1.546h104.87C315.108,367.341,321.652,367.872,328.034,368.888z"
   style="fill:#EFAA3A;" />
<path
   id="path12"
   d="M308.413,320.45v51.829c0,28.955-23.462,52.418-52.406,52.418c-8.967,0-17.404-2.251-24.778-6.22  c-4.547-2.423-8.679-5.516-12.291-9.128c-8.414-8.414-13.976-19.665-15.13-32.199c-0.139-1.604-0.219-3.232-0.219-4.87v-51.829  h104.824V320.45z"
   style="fill:#F9C1A5;" />
<g
   id="g20">
	<path
   id="path14"
   d="M308.413,335.454v26.763c-16.18,8.482-34.599,13.295-54.137,13.295   c-1.858,0-3.716-0.046-5.563-0.139c-0.265-0.011-0.519-0.023-0.773-0.023c-9.187,0-16.711,7.524-16.711,16.803v26.324   c-4.547-2.423-8.679-5.516-12.291-9.128c-8.414-8.414-13.976-19.665-15.13-32.199c-0.139-1.604-0.219-3.232-0.219-4.87v-36.826   H308.413z"
   style="fill:#E5AB91;" />
	<circle
   id="circle16"
   r="32.392"
   cy="221.968"
   cx="154.384"
   style="fill:#E5AB91;" />
	<circle
   id="circle18"
   r="32.392"
   cy="221.968"
   cx="357.616"
   style="fill:#E5AB91;" />
</g>
<path
   id="path22"
   d="M256.001,0L256.001,0c-64.456,0-116.708,52.251-116.708,116.707v130.558  c0,64.456,52.251,116.707,116.707,116.707l0,0c64.456,0,116.707-52.251,116.707-116.707V116.707C372.708,52.251,320.457,0,256.001,0  z"
   style="fill:#F9C1A5;" />
<path
   id="path24"
   d="M310.638,161.122c-7.414,0-15.49-0.556-24.04-1.144c-9.807-0.675-19.949-1.373-30.598-1.373  c-10.645,0-20.788,0.698-30.598,1.373c-8.55,0.588-16.626,1.143-24.037,1.144c-10.427,0-23.609-0.96-33.07-8.451  c-8.982-7.112-13.348-18.876-13.348-35.966c0-26.954,10.523-52.315,29.632-71.413c6.015-6.015,12.756-11.254,20.033-15.567  c15.508-9.2,33.279-14.063,51.387-14.063c18.109,0,35.879,4.863,51.389,14.063c30.632,18.159,49.663,51.487,49.663,86.977  C357.052,155.844,333.589,161.122,310.638,161.122z"
   style="fill:#E5AB91;" />
<path
   id="path26"
   d="M350.783,116.704c0,31.932-15.872,38.149-40.145,38.149c-15.454,0-34.304-2.518-54.638-2.518  c-52.266,0-94.783,16.635-94.783-35.631c0-26.122,10.627-49.821,27.794-66.978c5.611-5.611,11.922-10.533,18.798-14.608  c14.127-8.38,30.605-13.187,48.191-13.187s34.064,4.807,48.191,13.187C332.058,51.638,350.783,82.034,350.783,116.704z"
   style="fill:#535B70;" />
<g
   id="g34">
	<path
   id="path28"
   d="M288.738,222.559c0,0-2.398,11.746,19.065,20.075c0.963,0.374,2.06,0.155,2.79-0.576l0,0   c1.138-1.138,0.984-3.038-0.343-3.948c-2.915-1.998-6.932-5.945-5.537-11.975"
   style="fill:#E5AB91;" />
	<path
   id="path30"
   d="M230.67,222.559c0,0,2.398,11.746-19.065,20.075c-0.963,0.374-2.059,0.155-2.79-0.576l0,0   c-1.138-1.138-0.984-3.038,0.343-3.948c2.915-1.998,6.932-5.945,5.537-11.975"
   style="fill:#E5AB91;" />
	<path
   id="path32"
   d="M230.67,216.415c-0.65,5.379-5.398,9.328-10.816,9.328h-28.157c-2.94,0-5.604-1.189-7.533-3.118   c-2.208-2.214-3.457-5.396-3.039-8.856c0.65-5.379,5.398-9.328,10.816-9.328h28.157c2.94,0,5.604,1.189,7.533,3.118   C229.84,209.774,231.088,212.955,230.67,216.415z"
   style="fill:#E5AB91;" />
</g>
<path
   id="path36"
   d="M230.67,223.883c-0.65,5.379-5.398,9.328-10.816,9.328h-28.157c-2.94,0-5.604-1.189-7.533-3.118  c-2.208-2.214-3.457-5.396-3.039-8.856c0.65-5.379,5.398-9.328,10.816-9.328h28.157c2.94,0,5.604,1.189,7.533,3.118  C229.84,217.242,231.088,220.423,230.67,223.883z"
   style="fill:#FFFFFF;" />
<path
   id="path38"
   d="M327.789,204.442h-28.4c-5.882,0-10.65,4.768-10.65,10.65l0,0c0,5.882,4.768,10.65,10.65,10.65h28.4  c5.882,0,10.65-4.768,10.65-10.65l0,0C338.438,209.209,333.67,204.442,327.789,204.442z"
   style="fill:#E5AB91;" />
<path
   id="path40"
   d="M327.789,211.909h-28.4c-5.882,0-10.65,4.768-10.65,10.65l0,0c0,5.882,4.768,10.65,10.65,10.65h28.4  c5.882,0,10.65-4.768,10.65-10.65l0,0C338.438,216.677,333.67,211.909,327.789,211.909z"
   style="fill:#FFFFFF;" />
<path
   id="path42"
   d="M337,183.164h-46.825c-3.315,0-6.003,2.687-6.003,6.003l0,0c0,3.315,2.687,6.003,6.003,6.003H337  c3.315,0,6.003-2.687,6.003-6.003l0,0C343.003,185.852,340.316,183.164,337,183.164z"
   style="fill:#535B70;" />
<path
   id="path44"
   d="M220.064,219.045c0,7.822-6.343,14.166-14.166,14.166c-7.822,0-14.166-6.343-14.166-14.166  c0-2.604,0.704-5.042,1.935-7.136h24.461C219.36,214.003,220.064,216.441,220.064,219.045z"
   style="fill:#51B0E0;" />
<g
   id="g50">
	<circle
   id="circle46"
   r="5.733"
   cy="218.823"
   cx="210.913"
   style="fill:#6EC6EA;" />
	<circle
   id="circle48"
   r="3.353"
   cy="226.137"
   cx="200.38"
   style="fill:#6EC6EA;" />
</g>
<path
   id="path52"
   d="M327.753,219.045c0,7.822-6.343,14.166-14.166,14.166c-7.822,0-14.166-6.343-14.166-14.166  c0-2.604,0.704-5.042,1.935-7.136h24.461C327.049,214.003,327.753,216.441,327.753,219.045z"
   style="fill:#51B0E0;" />
<g
   id="g58">
	<circle
   id="circle54"
   r="5.733"
   cy="218.823"
   cx="318.61"
   style="fill:#6EC6EA;" />
	<circle
   id="circle56"
   r="3.353"
   cy="226.137"
   cx="308.067"
   style="fill:#6EC6EA;" />
</g>
<g
   id="g66">
	<path
   id="path60"
   d="M182.685,183.164c-3.305,0-6.141,2.586-6.2,5.89c-0.062,3.367,2.649,6.115,6.002,6.115h32.897   c13.062,0,23.65,10.589,23.65,23.65v58.596h5.96c7.656,0,13.863-6.207,13.863-13.863v-62.329c0-9.975-8.086-18.061-18.061-18.061   h-58.11V183.164z"
   style="fill:#E5AB91;" />
	<path
   id="path62"
   d="M276.021,298.763c-13.001,4.283-27.042,4.283-40.043,0c-3.474-1.133-7.443,0.224-8.988,3.476l0,0   c-1.544,3.239,0.588,7.466,4.915,8.888c15.645,5.156,32.543,5.156,48.189,0c4.326-1.422,6.459-5.649,4.915-8.888l0,0   C283.465,298.987,279.496,297.631,276.021,298.763z"
   style="fill:#E5AB91;" />
	<path
   id="path64"
   d="M261.49,321.574h-10.979c-2.799,0-5.069,2.27-5.069,5.069l0,0c0,2.799,2.27,5.069,5.069,5.069   h10.979c2.799,0,5.069-2.27,5.069-5.069l0,0C266.559,323.843,264.289,321.574,261.49,321.574z"
   style="fill:#E5AB91;" />
</g>
<path
   id="path68"
   d="M229.51,183.164h-46.825c-3.315,0-6.003,2.687-6.003,6.003l0,0c0,3.315,2.687,6.003,6.003,6.003  h46.825c3.315,0,6.003-2.687,6.003-6.003l0,0C235.513,185.852,232.825,183.164,229.51,183.164z"
   style="fill:#535B70;" />
<path
   id="path70"
   d="M161.22,247.265V116.707c0-60.758,46.43-110.663,105.744-116.191C263.354,0.18,259.699,0,256.001,0  l0,0c-64.456,0-116.707,52.251-116.707,116.707v130.558c0,64.456,52.251,116.707,116.707,116.707l0,0  c3.698,0,7.354-0.18,10.964-0.516C207.65,357.928,161.22,308.022,161.22,247.265z"
   style="fill:#E5AB91;" />



<g
   id="g82">
	
	
</g>















<g
   id="g114">
</g>
<g
   id="g116">
</g>
<g
   id="g118">
</g>
<g
   id="g120">
</g>
<g
   id="g122">
</g>
<g
   id="g124">
</g>
<g
   id="g126">
</g>
<g
   id="g128">
</g>
<g
   id="g130">
</g>
<g
   id="g132">
</g>
<g
   id="g134">
</g>
<g
   id="g136">
</g>
<g
   id="g138">
</g>
<g
   id="g140">
</g>
<g
   id="g142">
</g>
<g
   transform="matrix(0.22482167,0,0,0.22482167,198.36175,33.120377)"
   id="g1113"><g
     id="g1035">
	<path
   style="fill:#518282"
   d="m 256,2.667 c 169.221,0 239.491,223.821 99.587,319.603 v 108.556 c 0,23.125 -20.687,38.516 -39.462,46.939 -5.998,45.648 -114.252,45.648 -120.25,0 -18.798,-8.433 -39.462,-24.488 -39.462,-46.938 V 322.27 C 16.975,226.807 86.189,2.667 256,2.667 Z"
   id="path1031" />
	<path
   style="fill:#518282"
   d="m 355.587,334.85 v 95.975 c 0,32.523 -44.587,58.889 -99.587,58.889 -55,0 -99.587,-26.365 -99.587,-58.889 V 334.85 Z"
   id="path1033" />
</g><g
     id="g1041">
	<path
   style="fill:#749b9b"
   d="m 256,457.707 c 55,0 99.587,-26.365 99.587,-58.889 v 32.008 c 0,32.523 -44.587,58.889 -99.587,58.889 -55,0 -99.587,-26.365 -99.587,-58.889 v -32.008 c 0,32.523 44.587,58.889 99.587,58.889 z"
   id="path1037" />
	<path
   style="fill:#749b9b"
   d="m 256,393.739 c 55,0 99.587,-26.365 99.587,-58.889 v 32.008 c 0,32.523 -44.587,58.889 -99.587,58.889 -55,0 -99.587,-26.365 -99.587,-58.889 V 334.85 c 0,32.523 44.587,58.889 99.587,58.889 z"
   id="path1039" />
</g><path
     style="fill:#ffca00"
     d="M 79.475,176.525 C 79.475,79.033 158.508,0 256,0 c 97.492,0 176.525,79.033 176.525,176.525 0,60.541 -30.49,113.945 -76.938,145.744 v 12.58 c 0,32.523 -44.587,58.889 -99.587,58.889 -55,0 -99.587,-26.365 -99.587,-58.889 v -12.58 C 109.965,290.47 79.475,237.066 79.475,176.525 Z"
     id="path1043" /><ellipse
     style="opacity:0.3;fill:#ffffff;enable-background:new"
     cx="256"
     cy="334.85001"
     rx="99.589996"
     ry="58.889"
     id="ellipse1045" /><path
     style="fill:#caa414"
     d="m 189.27,238.094 c 10.678,-3.518 21.851,-7.598 31.735,-14.309 5.438,-1.741 8.678,0.195 9.721,5.809 v 11.662 l 0.154,-0.086 c 4.029,-2.254 6.532,-6.521 6.532,-11.138 v -22.79 c 0,-9.242 4.972,-17.855 12.976,-22.476 l 0.816,-0.471 c 10.522,-3.645 16.835,0 18.939,10.935 v 23.605 l 0.166,-0.09 c 4.111,-2.236 6.666,-6.531 6.666,-11.211 v -22.887 c 0,-17.601 31.576,-36.399 31.576,-11.338 v 0.636 l 14.894,-8.353 0.406,-1.664 c 2.807,-11.52 20.629,-7.177 17.82,4.343 L 306.21,313.784 c -3.19,13.101 -20.361,6.079 -17.82,-4.343 l 30.786,-126.328 -13.994,7.848 c -5.473,1.836 -8.747,-0.082 -9.822,-5.753 v -10.836 c -7.604,5.579 -6.579,25.4 -5.193,33.163 0,9.517 -5.194,18.254 -13.554,22.8 l -1.002,0.545 c -10.426,3.378 -16.646,-0.319 -18.658,-11.093 V 196.21 c -3.916,2.277 -6.348,6.501 -6.348,11.033 v 22.79 c 0,9.388 -5.09,18.068 -13.285,22.651 -7.931,3.689 -19.784,2.206 -19.784,-10.464 v -1.588 l -15.097,8.122 32.65,99.118 c 3.411,10.354 -13.278,18.322 -17.42,5.739 L 183.431,249.673 c -1.587,-4.81 1.028,-9.995 5.839,-11.579 1.802,-0.594 -4.811,1.584 0,0 z"
     id="path1047" /><circle
     style="opacity:0.3;fill:#ffffff;enable-background:new"
     cx="309.67999"
     cy="119.71"
     r="77.160004"
     id="circle1049" /><g
     id="g1051">
</g><g
     id="g1053">
</g><g
     id="g1055">
</g><g
     id="g1057">
</g><g
     id="g1059">
</g><g
     id="g1061">
</g><g
     id="g1063">
</g><g
     id="g1065">
</g><g
     id="g1067">
</g><g
     id="g1069">
</g><g
     id="g1071">
</g><g
     id="g1073">
</g><g
     id="g1075">
</g><g
     id="g1077">
</g><g
     id="g1079">
</g></g></svg>
