<?xml version="1.0" encoding="UTF-8" standalone="no"?>
<svg
   xmlns:dc="http://purl.org/dc/elements/1.1/"
   xmlns:cc="http://creativecommons.org/ns#"
   xmlns:rdf="http://www.w3.org/1999/02/22-rdf-syntax-ns#"
   xmlns:svg="http://www.w3.org/2000/svg"
   xmlns="http://www.w3.org/2000/svg"
   id="svg47"
   version="1.1"
   width="512"
   viewBox="0 0 512 512"
   height="512">
  <metadata
     id="metadata53">
    <rdf:RDF>
      <cc:Work
         rdf:about="">
        <dc:format>image/svg+xml</dc:format>
        <dc:type
           rdf:resource="http://purl.org/dc/dcmitype/StillImage" />
        <dc:title></dc:title>
      </cc:Work>
    </rdf:RDF>
  </metadata>
  <defs
     id="defs51" />
  <g
     transform="matrix(1.2202415,0,0,1.2202415,83.270432,-89.245674)"
     id="Flat">
    <g
       id="g12"
       fill="#f99e0c" />
    <path
       id="path14"
       fill="#784533"
       d="m 24,296 a 32,32 0 0 0 32,32 h 160 a 32,32 0 0 0 32,-32 V 192 A 112,112 0 0 0 136,80 112,112 0 0 0 24,192 Z" />
    <path
       id="path16"
       fill="#fdc8a2"
       d="M 222.276,354.855 208,352 174.431,345.286 A 8,8 0 0 1 168,337.441 V 296 h -64 v 41.441 a 8,8 0 0 1 -6.431,7.845 L 64,352 49.724,354.855 A 32,32 0 0 0 24,386.233 V 456 a 32,32 0 0 0 32,32 h 160 a 32,32 0 0 0 32,-32 v -69.767 a 32,32 0 0 0 -25.724,-31.378 z" />
    <path
       id="path18"
       fill="#fdbf92"
       d="m 168,296 v 41.33 a 80.1,80.1 0 0 1 -64,0 V 296 Z" />
    <path
       id="path20"
       fill="#de5540"
       d="M 248,456 V 386.234 A 32,32 0 0 0 222.276,354.855 L 208,352 190.627,369.373 A 77.254,77.254 0 0 1 136,392 77.254,77.254 0 0 1 81.373,369.373 L 64,352 49.724,354.855 A 32,32 0 0 0 24,386.234 V 456 a 32,32 0 0 0 32,32 h 160 a 32,32 0 0 0 32,-32 z" />
    <path
       id="path22"
       fill="#fdc8a2"
       d="m 104,144 h 64 a 48,48 0 0 1 48,48 v 56 a 80,80 0 0 1 -80,80 80,80 0 0 1 -80,-80 v -56 a 48,48 0 0 1 48,-48 z" />
    <g
       id="g30"
       fill="#844e3a">
      <circle
         id="circle24"
         r="16"
         cy="232"
         cx="96" />
      <circle
         id="circle26"
         r="16"
         cy="232"
         cx="176" />
      <path
         id="path28"
         d="m 248,192 v 104 a 32,32 0 0 1 -32,32 V 208 h -7.5 c -0.28,0 -0.56,0 -0.83,-0.01 A 73.056,73.056 0 0 1 136,144 73.037,73.037 0 0 1 64,207.99 C 63.83,208 63.67,208 63.5,208 H 56 V 328 A 31.991,31.991 0 0 1 24,296 V 192 A 111.983,111.983 0 0 1 128,80.29 c 2.64,-0.2 5.31,-0.29 8,-0.29 2.69,0 5.36,0.09 8,0.29 A 111.977,111.977 0 0 1 248,192 Z" />
    </g>
    <path
       id="path32"
       fill="#784533"
       d="M 48,191.877 V 208 H 64 V 191.877 A 81.674,81.674 0 0 1 65.292,177.42 L 49.546,174.58 A 97.67,97.67 0 0 0 48,191.877 Z" />
    <path
       id="path34"
       fill="#784533"
       d="M 223.67,191.88 V 208 h -16 v -16.12 c 0,-0.64 -0.03,-1.28 -0.05,-1.92 -16.68,-8.08 -34.57,-21.6 -53.28,-40.3 l 11.32,-11.32 c 13.39,13.4 26.18,23.87 38.2,31.31 C 195.69,145.4 174.66,122.38 144,113.96 V 144 h -13.43 c -10.46,9.32 -27.32,23.3 -46.37,35.05 l -8.4,-13.62 c 24.25,-14.95 45.35,-34.3 52.2,-40.82 v -11.6 a 76.767,76.767 0 0 0 -7.97,2.03 79.254,79.254 0 0 0 -50.68,47.82 l -14.94,-5.72 a 95.142,95.142 0 0 1 60.87,-57.38 90.18,90.18 0 0 1 12.72,-3 V 80.29 c 2.64,-0.2 5.31,-0.29 8,-0.29 2.69,0 5.36,0.09 8,0.29 v 17.18 a 105.635,105.635 0 0 1 55.89,33.78 c 15.11,17.53 23.78,39.63 23.78,60.63 z" />
    <path
       id="path36"
       fill="#fcb079"
       d="m 112,264 h 48 v 16 h -48 z" />
    <path
       id="path38"
       fill="#e86954"
       d="M 55.669,488 A 31.669,31.669 0 0 1 24,456.331 76.951,76.951 0 0 1 30.633,425.077 L 56,368 h 56 L 86.269,464.491 A 31.669,31.669 0 0 1 55.669,488 Z" />
    <path
       id="path40"
       fill="#ffd4b5"
       d="M 56,368 74.16,319.573 A 24,24 0 0 1 96.632,304 h 41.421 A 13.947,13.947 0 0 1 152,317.947 13.947,13.947 0 0 1 142.463,331.179 L 128,336 a 38.628,38.628 0 0 1 -11.314,27.314 L 112,368 Z" />
    <path
       id="path42"
       fill="#d64a34"
       d="m 200,440 h -64 v -16 h 56 v -16 h 16 v 24 a 8,8 0 0 1 -8,8 z" />
    <path
       id="path44"
       fill="#fdc8a2"
       d="M 136,488 H 76 A 12,12 0 0 1 64,476 v -32 a 12,12 0 0 1 12,-12 h 28 V 421.6 A 13.593,13.593 0 0 1 117.592,408 h 0.293 a 13.966,13.966 0 0 1 13.3,9.537 C 133.411,424.234 136,432 136,432 Z" />
  </g>
</svg>
